<svg width="100" height="100" viewBox="0 0 100 100" fill="none" xmlns="http://www.w3.org/2000/svg">
<path d="M61.0408 60.1381C64.7316 62.9583 75.2424 65.2342 78.7494 53.7935C83.1333 39.4926 70.7502 27.9876 76.545 20.2612C85.1873 8.73821 102.472 26.5988 86.9157 49.6448" stroke="#D0333D" stroke-width="2"/>
<path d="M61.0408 60.1381C64.7316 62.9583 75.2424 65.2342 78.7494 53.7935C83.1333 39.4926 70.7502 27.9876 76.545 20.2612C85.1873 8.73821 102.472 26.5988 86.9157 49.6448" stroke="black" stroke-opacity="0.6" stroke-width="2"/>
<path d="M49.3532 84.1308C47 82.5 44 79 43.5 75.5L51.2241 73.2935C50.1311 75.1168 50.3251 78.5807 53 81C56.3436 84.0242 59.8209 84.5825 60.4129 85.366C61.0048 86.1495 58.0442 90.1917 57.5321 92.8559C57.0476 95.377 56.8183 97.9184 57.4156 99.4097L56.0317 97.2276L55.464 99.6294L54.6639 97.1691L53.8962 98.9558C53.8241 98.0429 54.0606 95.0273 55.0808 92.4125C56.0317 89.9752 56.8028 87.6846 57.384 87.0524C55.4936 86.7693 51.4182 85.5618 49.3532 84.1308Z" fill="#D0333D"/>
<path d="M49.3532 84.1308C47 82.5 44 79 43.5 75.5L51.2241 73.2935C50.1311 75.1168 50.3251 78.5807 53 81C56.3436 84.0242 59.8209 84.5825 60.4129 85.366C61.0048 86.1495 58.0442 90.1917 57.5321 92.8559C57.0476 95.377 56.8183 97.9184 57.4156 99.4097L56.0317 97.2276L55.464 99.6294L54.6639 97.1691L53.8962 98.9558C53.8241 98.0429 54.0606 95.0273 55.0808 92.4125C56.0317 89.9752 56.8028 87.6846 57.384 87.0524C55.4936 86.7693 51.4182 85.5618 49.3532 84.1308Z" fill="black" fill-opacity="0.4"/>
<path d="M24.5362 65.4923C25.5209 65.274 27.2366 60.1981 27.9713 57.6875C28.6069 54.7293 33.0434 57.2674 31.3259 61.1699C29.8765 63.3694 26.7613 67.9572 25.8957 68.7125C24.8137 69.6567 18.6797 68.1991 15.9205 67.4021C13.713 66.7645 13.2899 70.0982 12.2079 71.0424L11.9102 69.6997L10.3616 71.4517L10.5306 69.3012L8.83318 70.3818C9.76637 68.7663 13.1137 64.6435 14.7098 64.8532C16.7048 65.1152 23.3054 65.7651 24.5362 65.4923Z" fill="#D0333D"/>
<path d="M24.5362 65.4923C25.5209 65.274 27.2366 60.1981 27.9713 57.6875C28.6069 54.7293 33.0434 57.2674 31.3259 61.1699C29.8765 63.3694 26.7613 67.9572 25.8957 68.7125C24.8137 69.6567 18.6797 68.1991 15.9205 67.4021C13.713 66.7645 13.2899 70.0982 12.2079 71.0424L11.9102 69.6997L10.3616 71.4517L10.5306 69.3012L8.83318 70.3818C9.76637 68.7663 13.1137 64.6435 14.7098 64.8532C16.7048 65.1152 23.3054 65.7651 24.5362 65.4923Z" fill="black" fill-opacity="0.4"/>
<path d="M26.9965 63.4723C26 61.5 25 59.3125 25 57.5L33.5 53.5C33.8841 54.0761 35.7852 55.1699 37 55.5C39.78 56.2553 41.0554 57.5624 50.6186 54.8301C62.7177 51.3732 65.5984 61.7439 64.4461 66.9292C62.9097 73.843 55.8039 80.1806 44.2809 77.2999C32.758 74.4192 28.87 67.1806 26.9965 63.4723Z" fill="#D0333D"/>
<path d="M26.9965 63.4723C26 61.5 25 59.3125 25 57.5L33.5 53.5C33.8841 54.0761 35.7852 55.1699 37 55.5C39.78 56.2553 41.0554 57.5624 50.6186 54.8301C62.7177 51.3732 65.5984 61.7439 64.4461 66.9292C62.9097 73.843 55.8039 80.1806 44.2809 77.2999C32.758 74.4192 28.87 67.1806 26.9965 63.4723Z" fill="black" fill-opacity="0.4"/>
<path d="M41.2771 56.7208C44.5416 53.1699 51.421 44.9084 52.8226 40.2699C54.5747 34.4717 54.3579 26.8131 55.3403 25.1962C56.3227 23.5794 67.5203 11.3446 71.102 9.09336C73.9674 7.29235 86.0864 2.4065 91.7878 0.188708C89.0841 2.08796 83.6784 7.92413 83.6848 16.0748C83.6908 23.7882 88.0787 26.227 91.2596 27.05C91.4443 27.0882 91.6207 27.1301 91.7878 27.175C91.6163 27.1381 91.4399 27.0966 91.2596 27.05C88.0797 26.3917 82.45 26.8328 79.4261 32.3603C76.2266 38.2088 77.3239 43.4242 77.9106 44.8876C76.3053 43.7647 72.1186 42.0324 68.2135 44.0872C64.3084 46.142 63.5463 50.9182 63.6533 53.0495C61.5917 52.3133 56.3443 51.0878 51.8482 52.075C47.3521 53.0623 42.5526 57.7109 41.2771 56.7208Z" fill="#D0333D"/>
<path d="M41.2771 56.7208C44.5416 53.1699 51.421 44.9084 52.8226 40.2699C54.5747 34.4717 54.3579 26.8131 55.3403 25.1962C56.3227 23.5794 67.5203 11.3446 71.102 9.09336C73.9674 7.29235 86.0864 2.4065 91.7878 0.188708C89.0841 2.08796 83.6784 7.92413 83.6848 16.0748C83.6908 23.7882 88.0787 26.227 91.2596 27.05C91.4443 27.0882 91.6207 27.1301 91.7878 27.175C91.6163 27.1381 91.4399 27.0966 91.2596 27.05C88.0797 26.3917 82.45 26.8328 79.4261 32.3603C76.2266 38.2088 77.3239 43.4242 77.9106 44.8876C76.3053 43.7647 72.1186 42.0324 68.2135 44.0872C64.3084 46.142 63.5463 50.9182 63.6533 53.0495C61.5917 52.3133 56.3443 51.0878 51.8482 52.075C47.3521 53.0623 42.5526 57.7109 41.2771 56.7208Z" fill="black" fill-opacity="0.2"/>
<path d="M37 37.5C39.0839 45.5294 41.5 47 39.5 56.5C40.5 56.5 41.8501 51.9494 43.6515 49.4408C45.4529 46.9322 47.7128 46.5217 49.024 46.0639C48.4374 44.6005 46.1989 42.4501 46.366 40.4264C46.533 38.4027 49.7187 35.9336 50.7373 35.5932C49.5769 34.224 47.4734 30.9091 48.3428 28.6038C49.2123 26.2984 53.4805 22.459 54.6512 21.9896C53.269 21.5926 48.3094 19.7539 46.366 14.4997C44.4226 9.24547 49.5099 4.11837 50.7373 1.24829C49.1334 1.82337 40.2668 9.03895 39.0953 12.1951C38.6677 13.3474 33.9168 25.6202 37 37.5Z" fill="#D0333D"/>
<path d="M37 37.5C39.0839 45.5294 41.5 47 39.5 56.5C40.5 56.5 41.8501 51.9494 43.6515 49.4408C45.4529 46.9322 47.7128 46.5217 49.024 46.0639C48.4374 44.6005 46.1989 42.4501 46.366 40.4264C46.533 38.4027 49.7187 35.9336 50.7373 35.5932C49.5769 34.224 47.4734 30.9091 48.3428 28.6038C49.2123 26.2984 53.4805 22.459 54.6512 21.9896C53.269 21.5926 48.3094 19.7539 46.366 14.4997C44.4226 9.24547 49.5099 4.11837 50.7373 1.24829C49.1334 1.82337 40.2668 9.03895 39.0953 12.1951C38.6677 13.3474 33.9168 25.6202 37 37.5Z" fill="black" fill-opacity="0.6"/>
<path d="M63.8699 83.6376C60.6434 82.7157 55.8038 76.9158 54.6515 74.9953C49.4661 64.0485 62.363 63.4724 61.5653 68.6577C61.1812 71.1544 62.5 79.424 65.0222 80.1807C70.7837 81.9091 76.5451 79.6045 77.6974 80.1807C78.8497 80.7568 77.1213 87.0945 77.6974 89.3991C78.1584 91.2427 80.1941 94.3924 81.7305 95.7367L78.8497 94.0083L79.4259 96.889L77.1213 94.5844V96.889C76.5451 95.9288 74.8167 93.3308 74.8167 89.9752C74.8167 86.5183 75.0087 84.0217 75.3928 83.0614C72.8962 83.6376 67.0963 84.5594 63.8699 83.6376Z" fill="#D0333D"/>
<path d="M63.8699 83.6376C60.6434 82.7157 55.8038 76.9158 54.6515 74.9953C49.4661 64.0485 62.363 63.4724 61.5653 68.6577C61.1812 71.1544 62.5 79.424 65.0222 80.1807C70.7837 81.9091 76.5451 79.6045 77.6974 80.1807C78.8497 80.7568 77.1213 87.0945 77.6974 89.3991C78.1584 91.2427 80.1941 94.3924 81.7305 95.7367L78.8497 94.0083L79.4259 96.889L77.1213 94.5844V96.889C76.5451 95.9288 74.8167 93.3308 74.8167 89.9752C74.8167 86.5183 75.0087 84.0217 75.3928 83.0614C72.8962 83.6376 67.0963 84.5594 63.8699 83.6376Z" fill="black" fill-opacity="0.2"/>
<path d="M28.9536 69.689C30.0313 69.689 32.9951 65.0645 34.3423 62.7522C35.6895 59.9775 39.7311 63.4459 37.0367 66.9143C35.0159 68.7641 30.7049 72.6024 29.6272 73.1574C28.28 73.851 22.2177 71.0763 19.5233 69.689C17.3678 68.5791 16.1553 71.77 14.8081 72.4637V71.0763L12.7874 72.4637L13.461 70.3826L11.4402 71.0763C12.7874 69.689 17.2331 66.3593 18.8497 66.9143C20.8705 67.6079 27.6064 69.689 28.9536 69.689Z" fill="#D0333D"/>
<path d="M28.9536 69.689C30.0313 69.689 32.9951 65.0645 34.3423 62.7522C35.6895 59.9775 39.7311 63.4459 37.0367 66.9143C35.0159 68.7641 30.7049 72.6024 29.6272 73.1574C28.28 73.851 22.2177 71.0763 19.5233 69.689C17.3678 68.5791 16.1553 71.77 14.8081 72.4637V71.0763L12.7874 72.4637L13.461 70.3826L11.4402 71.0763C12.7874 69.689 17.2331 66.3593 18.8497 66.9143C20.8705 67.6079 27.6064 69.689 28.9536 69.689Z" fill="black" fill-opacity="0.2"/>
<path d="M18.0311 56.1646L16.2099 52.268L19.0001 51.5L18.0311 56.1646Z" fill="#D0333D"/>
<path d="M18.0311 56.1646L16.2099 52.268L19.0001 51.5L18.0311 56.1646Z" fill="black" fill-opacity="0.2"/>
<path d="M85 46.5C84 49 83.5 53.5 83.5 55.5C85.1667 54.6667 89 52 90.5 50C92 48 93.1667 45.6667 94 44C92.1667 45.8333 88.7 48.9 87.5 48.5C86.3 48.1 87.5 43.1667 88 40.5C87.3333 41.6667 85.9036 44.2409 85 46.5Z" fill="#D0333D"/>
<path d="M85 46.5C84 49 83.5 53.5 83.5 55.5C85.1667 54.6667 89 52 90.5 50C92 48 93.1667 45.6667 94 44C92.1667 45.8333 88.7 48.9 87.5 48.5C86.3 48.1 87.5 43.1667 88 40.5C87.3333 41.6667 85.9036 44.2409 85 46.5Z" fill="black" fill-opacity="0.6"/>
<path d="M26.3895 47.3C25.7175 47.7342 24.3548 43.2828 24.0182 41.6762L25.101 41.3975C25.3797 42.4802 26.9834 46.9163 26.3895 47.3Z" fill="#D0333D"/>
<path d="M23.2553 41.4153C24.0018 41.6049 25.6673 40.262 26.0124 36.8176C25.4386 34.9059 23.928 35.3131 22.9124 33.3812C21.8409 31.343 22.0507 26.9703 22.351 24.3976C19.9104 29.8041 18.9786 36.3555 19.9447 38.8084C20.6983 40.7218 22.6748 41.2679 23.2553 41.4153Z" fill="#D0333D"/>
<path d="M23.2553 41.4153C24.0018 41.6049 25.6673 40.262 26.0124 36.8176C25.4386 34.9059 23.928 35.3131 22.9124 33.3812C21.8409 31.343 22.0507 26.9703 22.351 24.3976C19.9104 29.8041 18.9786 36.3555 19.9447 38.8084C20.6983 40.7218 22.6748 41.2679 23.2553 41.4153Z" fill="black" fill-opacity="0.4"/>
<path fill-rule="evenodd" clip-rule="evenodd" d="M12.4541 43.2258C13.42 41.1789 14.2134 39.4973 20.3143 36.9699C28.1528 33.7225 32.8143 34.4699 35.8143 37.9699C38.8143 41.4699 39.3143 46.4699 36.8143 50.4699C34.3143 54.4699 29.3143 56.9699 24.3143 58.4699C19.3143 59.9699 12.3143 60.4699 11.8143 59.9699C11.7083 59.8639 12.3033 59.6056 13.2819 59.1808C15.9965 58.0023 21.6624 55.5427 23.5 51.5C22.6558 51.6407 21.4692 51.881 20.1036 52.1576C14.9988 53.1915 7.39217 54.7322 5.81427 53.4699C4.03303 52.0449 7.41069 48.8584 9.80311 46.6014C10.7685 45.6907 11.5735 44.9313 11.8143 44.5C12.0631 44.0545 12.2621 43.6329 12.4541 43.2258ZM19.4999 45L27.9999 40C28.6666 41.5 29.5999 44.8 27.9999 46C26.3999 47.2 21.4999 47.5 19.4999 45Z" fill="#D0333D"/>
<path fill-rule="evenodd" clip-rule="evenodd" d="M12.4541 43.2258C13.42 41.1789 14.2134 39.4973 20.3143 36.9699C28.1528 33.7225 32.8143 34.4699 35.8143 37.9699C38.8143 41.4699 39.3143 46.4699 36.8143 50.4699C34.3143 54.4699 29.3143 56.9699 24.3143 58.4699C19.3143 59.9699 12.3143 60.4699 11.8143 59.9699C11.7083 59.8639 12.3033 59.6056 13.2819 59.1808C15.9965 58.0023 21.6624 55.5427 23.5 51.5C22.6558 51.6407 21.4692 51.881 20.1036 52.1576C14.9988 53.1915 7.39217 54.7322 5.81427 53.4699C4.03303 52.0449 7.41069 48.8584 9.80311 46.6014C10.7685 45.6907 11.5735 44.9313 11.8143 44.5C12.0631 44.0545 12.2621 43.6329 12.4541 43.2258ZM19.4999 45L27.9999 40C28.6666 41.5 29.5999 44.8 27.9999 46C26.3999 47.2 21.4999 47.5 19.4999 45Z" fill="black" fill-opacity="0.2"/>
<path d="M33.8656 40.2578C32.9493 40.6511 30.697 39.6172 29.8577 35.9763C30.3544 33.7625 32.3018 33.8227 33.3516 31.4759C34.4591 29 33.6809 24.32 33.0006 21.6112C36.7057 26.8479 38.6482 33.7039 37.722 36.6021C36.9994 38.863 34.5783 39.952 33.8656 40.2578Z" fill="#D0333D"/>
</svg>
