<svg width="100" height="100" viewBox="0 0 100 100" fill="none" xmlns="http://www.w3.org/2000/svg">
<path d="M43.3388 82.9874C48.6066 79.1274 50.0143 69.9995 40.8206 66.4065C34.7135 64.7396 27.8366 65.4513 24.4989 71.9453C21.1611 78.4393 26.692 83.3203 25.3422 83.1927C24.2623 83.0906 22.3434 84.1803 20.8441 84.6741C20.8441 84.6741 17.1594 84.191 16.9879 85.1267C16.8164 86.0623 31.0705 94.6295 32.5479 93.4073C34.0254 92.185 33.6507 91.0846 34.0872 88.6499C34.6635 85.4358 38.071 86.8475 43.3388 82.9874Z" fill="#2FC4A7"/>
<path d="M43.3388 82.9874C48.6066 79.1274 50.0143 69.9995 40.8206 66.4065C34.7135 64.7396 27.8366 65.4513 24.4989 71.9453C21.1611 78.4393 26.692 83.3203 25.3422 83.1927C24.2623 83.0906 22.3434 84.1803 20.8441 84.6741C20.8441 84.6741 17.1594 84.191 16.9879 85.1267C16.8164 86.0623 31.0705 94.6295 32.5479 93.4073C34.0254 92.185 33.6507 91.0846 34.0872 88.6499C34.6635 85.4358 38.071 86.8475 43.3388 82.9874Z" fill="black" fill-opacity="0.4"/>
<path d="M28.6133 50.7126C29.1859 47.9592 26.5416 45.6545 24.5227 44.4838C22.5038 43.3132 18.3635 43.8381 16.3364 44.3768C14.3094 44.9156 11.3171 46.2223 8.54472 48.0431C5.77232 49.8638 4.85327 51.1928 4.85327 51.1928L8.97658 51.7218L5.96559 54.6898L9.70231 55.2626L7.54508 58.6054C7.77611 58.4536 8.74494 58.0155 10.772 57.4767C13.3058 56.8033 17.5237 57.9955 21.8983 57.1038C26.2728 56.212 27.8976 54.1544 28.6133 50.7126Z" fill="#2FC4A7"/>
<path d="M28.6133 50.7126C29.1859 47.9592 26.5416 45.6545 24.5227 44.4838C22.5038 43.3132 18.3635 43.8381 16.3364 44.3768C14.3094 44.9156 11.3171 46.2223 8.54472 48.0431C5.77232 49.8638 4.85327 51.1928 4.85327 51.1928L8.97658 51.7218L5.96559 54.6898L9.70231 55.2626L7.54508 58.6054C7.77611 58.4536 8.74494 58.0155 10.772 57.4767C13.3058 56.8033 17.5237 57.9955 21.8983 57.1038C26.2728 56.212 27.8976 54.1544 28.6133 50.7126Z" fill="black" fill-opacity="0.4"/>
<path d="M69 55.7086C68.52 55.7086 66.8 58.5186 66 59.9236C68.8 61.1279 75.96 63.4161 82.2 62.9344C88.44 62.4527 94 56.4376 96 53.6276C95.4 53.2262 93.9464 52.7673 93.5806 53.1343C93.1006 53.616 93.4 55.1065 93.6 55.7086C92.8 55.1065 91.08 54.0226 90.6 54.5043C90.12 54.986 90.4 56.7122 90.6 57.5151C89.8 56.7122 88.08 55.2269 87.6 55.7086C87.12 56.1903 87 57.5151 87 58.1172C86.4 57.5151 85.08 56.3108 84.6 56.3108C84.12 56.3108 84 58.3179 84 59.3215C83.4 58.5186 82.08 56.9129 81.6 56.9129C81.12 56.9129 80.6 58.9201 80.4 59.9236C79.8 58.9201 78.48 56.9129 78 56.9129C77.52 56.9129 76.2 59.3215 75.6 60.5258C75.2 59.1208 74.28 56.3108 73.8 56.3108C73.32 56.3108 71.6 59.1208 70.8 60.5258C70.4 58.9201 69.48 55.7086 69 55.7086Z" fill="#2FC4A7"/>
<path d="M69 55.7086C68.52 55.7086 66.8 58.5186 66 59.9236C68.8 61.1279 75.96 63.4161 82.2 62.9344C88.44 62.4527 94 56.4376 96 53.6276C95.4 53.2262 93.9464 52.7673 93.5806 53.1343C93.1006 53.616 93.4 55.1065 93.6 55.7086C92.8 55.1065 91.08 54.0226 90.6 54.5043C90.12 54.986 90.4 56.7122 90.6 57.5151C89.8 56.7122 88.08 55.2269 87.6 55.7086C87.12 56.1903 87 57.5151 87 58.1172C86.4 57.5151 85.08 56.3108 84.6 56.3108C84.12 56.3108 84 58.3179 84 59.3215C83.4 58.5186 82.08 56.9129 81.6 56.9129C81.12 56.9129 80.6 58.9201 80.4 59.9236C79.8 58.9201 78.48 56.9129 78 56.9129C77.52 56.9129 76.2 59.3215 75.6 60.5258C75.2 59.1208 74.28 56.3108 73.8 56.3108C73.32 56.3108 71.6 59.1208 70.8 60.5258C70.4 58.9201 69.48 55.7086 69 55.7086Z" fill="white" fill-opacity="0.2"/>
<path d="M15.0001 54.5C16.7833 48.7679 23.0853 41.5209 25.5 39.5L42.1635 39.7752L57.2093 55.2079C65.5681 59.6172 68.5019 59.6233 75.1889 59.6233C81.8759 59.6233 90.792 56.8674 96.2169 53.0032C94.7309 57.5963 89.307 68.6563 79.4994 76.1522C67.2398 85.5221 50.6698 88.2839 43.9828 88.2839C37.2958 88.2839 23.0725 85.5221 17.5 76.1522C11.9275 66.7824 12.7711 61.6652 15.0001 54.5Z" fill="#2FC4A7"/>
<path d="M15.0001 54.5C16.7833 48.7679 23.0853 41.5209 25.5 39.5L42.1635 39.7752L57.2093 55.2079C65.5681 59.6172 68.5019 59.6233 75.1889 59.6233C81.8759 59.6233 90.792 56.8674 96.2169 53.0032C94.7309 57.5963 89.307 68.6563 79.4994 76.1522C67.2398 85.5221 50.6698 88.2839 43.9828 88.2839C37.2958 88.2839 23.0725 85.5221 17.5 76.1522C11.9275 66.7824 12.7711 61.6652 15.0001 54.5Z" fill="black" fill-opacity="0.2"/>
<path d="M54.3781 7.0318C53.893 6.54671 50.9421 7.23392 49.5272 7.63816C49.5272 7.63816 50.1336 4 49.5272 4C48.9209 4 46 6 46 6C46 6 45.5 2.5 45 2.5C44.5 2.5 42 5 42 5L53.7717 19.7653L53.1654 39.7752C55.3887 39.5731 59.8353 39.0476 59.8353 38.5625C59.8353 38.0774 56.6014 35.5307 54.9844 34.318C56.8035 34.1158 60.563 33.5903 61.048 33.1052C61.5331 32.6202 58.4205 30.4777 56.8035 29.4671C58.4205 28.8607 61.6544 27.5267 61.6544 27.0416C61.6544 26.5566 58.8247 25.6268 57.4099 25.2226C59.229 24.212 62.7458 22.0695 62.2608 21.5844C61.7757 21.0993 58.8247 20.5738 57.4099 20.3717C58.6226 19.159 61.048 16.6123 61.048 16.1272C61.048 15.6421 57.4099 15.5208 55.5908 15.5208C56.6014 14.3081 58.5013 11.7614 58.0162 11.2763C57.5312 10.7912 54.5802 11.0742 53.1654 11.2763C53.7717 10.0636 54.8632 7.51688 54.3781 7.0318Z" fill="#2FC4A7"/>
<path d="M25.5 11C23.7578 11.5808 14.2588 15.6061 11.1981 14.876C9.56565 14.3893 6.00005 14.2002 6 18C5.99996 20.6719 7.33835 21.6288 9.37887 23.8189L11.5913 21.5778L14 23.8189L16.5 21.5778L19 23.8189L21.5 21.5778L24 23.8189L26.5 21.5778L29 23.8189L36.7937 21.5778L31.5 28.5L30 36C29 38.5 28.5 40.7699 28.5 41.5C29.7243 41.9867 30.7301 44.0197 36.7937 43.4134C44.1031 42.6824 49.541 46.1213 53.7717 39.7752C57.4099 34.318 59.0975 20.0182 56.0367 14.9078C52.9759 9.79746 50.763 7.23852 45.1225 5.2061C39 3.00003 34.5 5.50003 30.5 5.00003C26.5 4.50002 27.3191 10.3937 25.5 11Z" fill="#2FC4A7"/>
<path d="M25.5 11C23.7578 11.5808 14.2588 15.6061 11.1981 14.876C9.56565 14.3893 6.00005 14.2002 6 18C5.99996 20.6719 7.33835 21.6288 9.37887 23.8189L11.5913 21.5778L14 23.8189L16.5 21.5778L19 23.8189L21.5 21.5778L24 23.8189L26.5 21.5778L29 23.8189L36.7937 21.5778L31.5 28.5L30 36C29 38.5 28.5 40.7699 28.5 41.5C29.7243 41.9867 30.7301 44.0197 36.7937 43.4134C44.1031 42.6824 49.541 46.1213 53.7717 39.7752C57.4099 34.318 59.0975 20.0182 56.0367 14.9078C52.9759 9.79746 50.763 7.23852 45.1225 5.2061C39 3.00003 34.5 5.50003 30.5 5.00003C26.5 4.50002 27.3191 10.3937 25.5 11Z" fill="black" fill-opacity="0.2"/>
<circle cx="34.0318" cy="10.0318" r="3.0318" fill="#898989"/>
<circle cx="34.0318" cy="10.0318" r="3.0318" fill="black" fill-opacity="0.6"/>
<circle cx="8.21272" cy="17.2127" r="1.21272" fill="#2FC4A7"/>
<circle cx="8.21272" cy="17.2127" r="1.21272" fill="black" fill-opacity="0.4"/>
<path d="M47.5001 25C47.5001 20 41 16.5 37.0001 21.5L29.5 28L26.5 26.5L24.5 29L21.5 27L19.5 29.5L16 28L14.5 30.5L11.5 29C11.6667 29.6667 12.5709 32.1631 15.5 33C19 34 29.159 32.2958 28 35C26.5 38.5 13 59.5 14 68.5C15 77.5 24.5 87.5 45.5 88.5C61.1028 89.243 76.6667 78.8333 82.5 73.5C74.5 78.5 63 80.5 54 81C41.9252 81.6708 35.0001 75 34.0001 69.5C33.0001 64 35.5001 51 39.5001 43.5C43.5001 36 47.5001 30.5 47.5001 25Z" fill="#2FC4A7"/>
<path d="M47.5001 25C47.5001 20 41 16.5 37.0001 21.5L29.5 28L26.5 26.5L24.5 29L21.5 27L19.5 29.5L16 28L14.5 30.5L11.5 29C11.6667 29.6667 12.5709 32.1631 15.5 33C19 34 29.159 32.2958 28 35C26.5 38.5 13 59.5 14 68.5C15 77.5 24.5 87.5 45.5 88.5C61.1028 89.243 76.6667 78.8333 82.5 73.5C74.5 78.5 63 80.5 54 81C41.9252 81.6708 35.0001 75 34.0001 69.5C33.0001 64 35.5001 51 39.5001 43.5C43.5001 36 47.5001 30.5 47.5001 25Z" fill="white" fill-opacity="0.4"/>
<path d="M63.7719 75.5215C64.4852 69.0299 58.7069 61.8249 49.8465 66.1753C44.4913 69.5515 40.3698 75.1022 42.9023 81.9505C45.4348 88.7987 52.7701 88.0189 51.7641 88.9279C50.9592 89.655 50.4661 91.8059 49.8171 93.245C49.8171 93.245 47.0005 95.9704 47.6947 96.4738C48.3889 96.9772 64.0659 92.4319 64.1631 90.5169C64.2602 88.6019 63.1958 88.1346 61.6958 86.1678C59.7156 83.5714 63.0585 82.0131 63.7719 75.5215Z" fill="#2FC4A7"/>
<path d="M63.7719 75.5215C64.4852 69.0299 58.7069 61.8249 49.8465 66.1753C44.4913 69.5515 40.3698 75.1022 42.9023 81.9505C45.4348 88.7987 52.7701 88.0189 51.7641 88.9279C50.9592 89.655 50.4661 91.8059 49.8171 93.245C49.8171 93.245 47.0005 95.9704 47.6947 96.4738C48.3889 96.9772 64.0659 92.4319 64.1631 90.5169C64.2602 88.6019 63.1958 88.1346 61.6958 86.1678C59.7156 83.5714 63.0585 82.0131 63.7719 75.5215Z" fill="black" fill-opacity="0.4"/>
<path d="M23 48L24.5 40.3816C22.883 41.9985 18.0896 46.4979 16 52.5C14.0016 58.2402 13.7979 64.2661 14 67.5L16 68.8738L19.5 64L23.8994 71.2992C26.527 72.1077 33.4799 73.7247 40.2711 73.7247C47.0623 73.7247 53.611 70.4908 56.0365 68.8738L53.611 60.3848L59.6746 66.4484L65.7382 58.5657C61.0478 56.1469 57.4097 52.5021 54.9842 47.0515C53.5793 43.8942 53.611 42.807 53.7715 40.9879L48.9206 39.7752L39.2189 40.3816C33.7617 40.9879 32.9128 41.473 29.5172 43.4134C26.1215 45.3537 24.617 46.5852 23 48Z" fill="#FAA21E"/>
<path d="M23 48L24.5 40.3816C22.883 41.9985 18.0896 46.4979 16 52.5C14.0016 58.2402 13.7979 64.2661 14 67.5L16 68.8738L19.5 64L23.8994 71.2992C26.527 72.1077 33.4799 73.7247 40.2711 73.7247C47.0623 73.7247 53.611 70.4908 56.0365 68.8738L53.611 60.3848L59.6746 66.4484L65.7382 58.5657C61.0478 56.1469 57.4097 52.5021 54.9842 47.0515C53.5793 43.8942 53.611 42.807 53.7715 40.9879L48.9206 39.7752L39.2189 40.3816C33.7617 40.9879 32.9128 41.473 29.5172 43.4134C26.1215 45.3537 24.617 46.5852 23 48Z" fill="white" fill-opacity="0.4"/>
<path d="M23.17 47.5187C23.17 45.0933 24.5588 41.8297 25.5694 39C23.9524 40.2127 19.9909 44.0934 17.0804 49.9145C14.1698 55.7355 13.4515 63.2555 14 67.5L16 69L19.5001 63.5" stroke="#FAA21E" stroke-width="1.21272" stroke-linejoin="round"/>
<path d="M23.17 47.5187C23.17 45.0933 24.5588 41.8297 25.5694 39C23.9524 40.2127 19.9909 44.0934 17.0804 49.9145C14.1698 55.7355 13.4515 63.2555 14 67.5L16 69L19.5001 63.5" stroke="black" stroke-opacity="0.4" stroke-width="1.21272" stroke-linejoin="round"/>
<path d="M36.7935 40.3816C28.8168 40.9952 21.8783 49.2682 19.0487 51.8957L17.8359 61.5975L23.8995 71.2992C27.5377 72.1077 36.3905 73.7247 42.6967 73.7247C49.0028 73.7247 54.2175 70.4908 56.0366 68.8738L53.6111 60.9911C52.8027 58.5657 51.9525 44.6261 51.9525 44.6261C51.9525 44.6261 51.3462 42.194 49.5271 39.7752C48.1122 39.9773 44.6762 39.7752 36.7935 40.3816Z" stroke="#FAA21E" stroke-width="1.21272"/>
<path d="M36.7935 40.3816C28.8168 40.9952 21.8783 49.2682 19.0487 51.8957L17.8359 61.5975L23.8995 71.2992C27.5377 72.1077 36.3905 73.7247 42.6967 73.7247C49.0028 73.7247 54.2175 70.4908 56.0366 68.8738L53.6111 60.9911C52.8027 58.5657 51.9525 44.6261 51.9525 44.6261C51.9525 44.6261 51.3462 42.194 49.5271 39.7752C48.1122 39.9773 44.6762 39.7752 36.7935 40.3816Z" stroke="black" stroke-opacity="0.4" stroke-width="1.21272"/>
<circle cx="22.2127" cy="52.2127" r="1.21272" fill="#FAA21E"/>
<circle cx="22.2127" cy="52.2127" r="1.21272" fill="black" fill-opacity="0.4"/>
<circle cx="21.2127" cy="56.7127" r="1.21272" fill="#FAA21E"/>
<circle cx="21.2127" cy="56.7127" r="1.21272" fill="black" fill-opacity="0.4"/>
<circle cx="20.2127" cy="61.2127" r="1.21272" fill="#FAA21E"/>
<circle cx="20.2127" cy="61.2127" r="1.21272" fill="black" fill-opacity="0.4"/>
<path d="M26.325 58.5657L27.5377 61.5975C29.5589 62.4059 34.4502 64.0229 37.8458 64.0229M16.6233 56.7466L14.8042 59.172L14 59.5" stroke="#FAA21E" stroke-width="1.21272"/>
<path d="M26.325 58.5657L27.5377 61.5975C29.5589 62.4059 34.4502 64.0229 37.8458 64.0229M16.6233 56.7466L14.8042 59.172L14 59.5" stroke="black" stroke-opacity="0.4" stroke-width="1.21272"/>
<path d="M49.5271 39.7752L53.7716 40.9879C53.5695 42.807 53.8929 46.2026 56.8034 50.0833C59.7139 53.964 64.0797 57.3596 65.8988 58.5723L59.8352 66.455L53.7716 61.6041" stroke="#FAA21E" stroke-width="1.21272"/>
<path d="M49.5271 39.7752L53.7716 40.9879C53.5695 42.807 53.8929 46.2026 56.8034 50.0833C59.7139 53.964 64.0797 57.3596 65.8988 58.5723L59.8352 66.455L53.7716 61.6041" stroke="black" stroke-opacity="0.4" stroke-width="1.21272"/>
<path d="M52.9129 43.8992C50.9257 41.9091 47.5477 42.8543 45.461 43.8992C43.3742 44.9441 41.5401 48.6929 40.8778 50.683C40.2154 52.6731 39.665 55.8916 39.665 59.2084C39.665 62.5252 40.2714 64.0229 40.2714 64.0229L42.977 60.8668L43.805 65.0128L46.335 62.2039L47.9449 65.842C47.9449 65.5656 48.1105 64.5153 48.7729 62.5252C49.6009 60.0376 52.9129 57.1665 54.5688 53.0204C56.2248 48.8744 55.3968 46.3868 52.9129 43.8992Z" fill="#2FC4A7"/>
<path d="M52.9129 43.8992C50.9257 41.9091 47.5477 42.8543 45.461 43.8992C43.3742 44.9441 41.5401 48.6929 40.8778 50.683C40.2154 52.6731 39.665 55.8916 39.665 59.2084C39.665 62.5252 40.2714 64.0229 40.2714 64.0229L42.977 60.8668L43.805 65.0128L46.335 62.2039L47.9449 65.842C47.9449 65.5656 48.1105 64.5153 48.7729 62.5252C49.6009 60.0376 52.9129 57.1665 54.5688 53.0204C56.2248 48.8744 55.3968 46.3868 52.9129 43.8992Z" fill="black" fill-opacity="0.4"/>
</svg>
