<svg width="100" height="100" viewBox="0 0 100 100" fill="none" xmlns="http://www.w3.org/2000/svg">
<path d="M13.9374 12.5267C13.7164 16.4898 19.0645 18.1947 19.9143 20.5049C20.481 22.0453 22.0092 21.9796 21.5436 19.8008C20.9616 17.0773 24.6789 14.4832 24.0283 11.4382C23.3008 8.03383 18.1507 5.75022 16.6737 4.27327C16.6737 5.75022 14.1142 9.3563 13.9374 12.5267Z" fill="#1D8CE0"/>
<path d="M13.9374 12.5267C13.7164 16.4898 19.0645 18.1947 19.9143 20.5049C20.481 22.0453 22.0092 21.9796 21.5436 19.8008C20.9616 17.0773 24.6789 14.4832 24.0283 11.4382C23.3008 8.03383 18.1507 5.75022 16.6737 4.27327C16.6737 5.75022 14.1142 9.3563 13.9374 12.5267Z" fill="white" fill-opacity="0.4"/>
<path d="M16.9349 13.1092C16.9614 15.7443 17.946 16.1743 18.7092 18.1705C19.2181 19.5016 20.3827 20.1748 19.9195 18.45C19.3405 16.294 20.425 15.1206 19.7777 12.7102C19.054 10.0151 18.8124 9.51716 17.4967 8.00001C17.7862 9.07801 16.9137 11.0011 16.9349 13.1092Z" fill="#1D8CE0"/>
<path d="M16.9349 13.1092C16.9614 15.7443 17.946 16.1743 18.7092 18.1705C19.2181 19.5016 20.3827 20.1748 19.9195 18.45C19.3405 16.294 20.425 15.1206 19.7777 12.7102C19.054 10.0151 18.8124 9.51716 17.4967 8.00001C17.7862 9.07801 16.9137 11.0011 16.9349 13.1092Z" fill="white" fill-opacity="0.6"/>
<path d="M13.5006 58.7778C18.7509 55.7946 21.578 53.8058 22.7896 57.2862C22.7896 60.7666 15.1161 69.2189 10.6735 68.2245C7.11952 67.429 4.07705 62.9211 3.00008 60.7666C4.75017 61.098 9.3004 61.1643 13.5006 58.7778Z" fill="#1D8CE0"/>
<path d="M13.5006 58.7778C18.7509 55.7946 21.578 53.8058 22.7896 57.2862C22.7896 60.7666 15.1161 69.2189 10.6735 68.2245C7.11952 67.429 4.07705 62.9211 3.00008 60.7666C4.75017 61.098 9.3004 61.1643 13.5006 58.7778Z" fill="white" fill-opacity="0.8"/>
<path fill-rule="evenodd" clip-rule="evenodd" d="M14.7208 58.0666C14.3295 58.2902 13.9229 58.5226 13.5006 58.7613C9.3004 61.136 4.75017 61.0701 3.00008 60.7402C3.1868 61.112 3.43261 61.554 3.72993 62.0351C6.30868 62.3419 9.41048 62.1848 12.5057 60.9209C13.9059 60.3492 15.2164 59.4375 16.531 58.5229L16.5311 58.5228C16.6944 58.4092 16.8578 58.2956 17.0214 58.1825C18.4663 57.1841 19.9554 56.2132 21.4925 55.9443C21.6561 55.9156 21.8231 55.971 21.9372 56.0917C22.0513 56.2123 22.0973 56.3822 22.0596 56.544C21.2144 60.1677 18.6882 63.2293 14.9904 65.7459C13.196 66.967 11.4655 67.5663 9.90367 67.9311C10.1572 68.026 10.414 68.1035 10.6735 68.1613C15.1161 69.1508 22.7896 60.7402 22.7896 57.2771C21.6754 54.0925 19.1952 55.5098 14.7208 58.0666ZM8.48741 67.2118C7.8589 66.81 7.26072 66.3192 6.70318 65.7822C8.58957 65.6769 10.7469 65.3465 13.2836 64.3107C15.0785 63.5777 16.746 62.2941 18.2062 60.9032C18.8969 60.2454 19.5466 59.5582 20.1466 58.8856C18.9901 61.1331 17.0469 63.1494 14.4337 64.9278C12.6833 66.1191 10.9971 66.6768 9.45571 67.0183C9.12559 67.0914 8.80303 67.1545 8.48741 67.2118ZM5.79235 64.8282C5.29008 64.259 4.83331 63.6685 4.43201 63.0982C6.96872 63.2961 9.92154 63.0449 12.8797 61.837C14.3887 61.2208 15.7942 60.242 17.0961 59.3354L17.0961 59.3354C17.2603 59.221 17.4229 59.1078 17.5839 58.9966C18.4598 58.3913 19.2806 57.8509 20.0734 57.4647C19.3095 58.3579 18.4529 59.3018 17.5238 60.1868C16.1049 61.5382 14.5415 62.7282 12.9095 63.3946C10.1183 64.5343 7.82155 64.7767 5.79235 64.8282Z" fill="#1D8CE0"/>
<path fill-rule="evenodd" clip-rule="evenodd" d="M14.7208 58.0666C14.3295 58.2902 13.9229 58.5226 13.5006 58.7613C9.3004 61.136 4.75017 61.0701 3.00008 60.7402C3.1868 61.112 3.43261 61.554 3.72993 62.0351C6.30868 62.3419 9.41048 62.1848 12.5057 60.9209C13.9059 60.3492 15.2164 59.4375 16.531 58.5229L16.5311 58.5228C16.6944 58.4092 16.8578 58.2956 17.0214 58.1825C18.4663 57.1841 19.9554 56.2132 21.4925 55.9443C21.6561 55.9156 21.8231 55.971 21.9372 56.0917C22.0513 56.2123 22.0973 56.3822 22.0596 56.544C21.2144 60.1677 18.6882 63.2293 14.9904 65.7459C13.196 66.967 11.4655 67.5663 9.90367 67.9311C10.1572 68.026 10.414 68.1035 10.6735 68.1613C15.1161 69.1508 22.7896 60.7402 22.7896 57.2771C21.6754 54.0925 19.1952 55.5098 14.7208 58.0666ZM8.48741 67.2118C7.8589 66.81 7.26072 66.3192 6.70318 65.7822C8.58957 65.6769 10.7469 65.3465 13.2836 64.3107C15.0785 63.5777 16.746 62.2941 18.2062 60.9032C18.8969 60.2454 19.5466 59.5582 20.1466 58.8856C18.9901 61.1331 17.0469 63.1494 14.4337 64.9278C12.6833 66.1191 10.9971 66.6768 9.45571 67.0183C9.12559 67.0914 8.80303 67.1545 8.48741 67.2118ZM5.79235 64.8282C5.29008 64.259 4.83331 63.6685 4.43201 63.0982C6.96872 63.2961 9.92154 63.0449 12.8797 61.837C14.3887 61.2208 15.7942 60.242 17.0961 59.3354L17.0961 59.3354C17.2603 59.221 17.4229 59.1078 17.5839 58.9966C18.4598 58.3913 19.2806 57.8509 20.0734 57.4647C19.3095 58.3579 18.4529 59.3018 17.5238 60.1868C16.1049 61.5382 14.5415 62.7282 12.9095 63.3946C10.1183 64.5343 7.82155 64.7767 5.79235 64.8282Z" fill="white" fill-opacity="0.6"/>
<path d="M38.6212 49.5C41.9486 40.5842 42.0843 25.2632 38.6212 20.3158C30.2106 23.779 11.1137 38.5221 13.8842 44.0632C19.079 54.4526 13.2649 60.442 14.8738 75.7263C15.8633 85.1263 23.7791 96.5053 45.5475 97C62.9622 97.3958 74.7369 75.0667 75.2317 64.8421C76.2212 65.007 79.6575 66.1965 85.1264 63.8526C88.5896 62.3684 92.0527 58.4105 92.5475 51.4842C92.9433 45.9432 93.5369 44.0632 97.0001 39.1158C92.0527 41.4246 83.6422 41.0947 79.1896 45.0526C75.2098 48.5902 74.2422 53.9579 73.2527 56.9263C72.758 53.4632 72.758 47.0316 70.779 43.0737C67.3159 36.1474 58.9054 35.6526 55.4422 30.2105V43.0737C55.4422 47.1534 53.4633 50 57.4212 56.4316C60.5875 61.5769 65.8317 63.3579 68.8001 63.3579C67.9755 68.6351 60 82 48 78.5C35.1676 74.7572 34.5158 60.5 38.6212 49.5Z" fill="#1D8CE0"/>
<path d="M38.6212 49.5C41.9486 40.5842 42.0843 25.2632 38.6212 20.3158C30.2106 23.779 11.1137 38.5221 13.8842 44.0632C19.079 54.4526 13.2649 60.442 14.8738 75.7263C15.8633 85.1263 23.7791 96.5053 45.5475 97C62.9622 97.3958 74.7369 75.0667 75.2317 64.8421C76.2212 65.007 79.6575 66.1965 85.1264 63.8526C88.5896 62.3684 92.0527 58.4105 92.5475 51.4842C92.9433 45.9432 93.5369 44.0632 97.0001 39.1158C92.0527 41.4246 83.6422 41.0947 79.1896 45.0526C75.2098 48.5902 74.2422 53.9579 73.2527 56.9263C72.758 53.4632 72.758 47.0316 70.779 43.0737C67.3159 36.1474 58.9054 35.6526 55.4422 30.2105V43.0737C55.4422 47.1534 53.4633 50 57.4212 56.4316C60.5875 61.5769 65.8317 63.3579 68.8001 63.3579C67.9755 68.6351 60 82 48 78.5C35.1676 74.7572 34.5158 60.5 38.6212 49.5Z" fill="white" fill-opacity="0.4"/>
<path d="M28.7263 8.93682C31.2 5.9684 33.1789 7.45261 36.6421 6.95788C39.4126 6.56209 40.2702 4.97893 41.0947 4.48419C40.4718 8.01855 40.0791 10.0032 37.1368 11.4105C37.7965 12.0702 40.6 12.4 43.0737 11.9052C45.0142 11.5171 47.0316 9.9263 50.9895 11.4105C48.0211 12.4 46.9326 16.8526 44.5579 16.8526C42.1832 16.8526 41.2597 18.1719 41.0947 18.8316C42.414 20.1509 44.1084 21.6876 46.5368 22.2947C48.5158 22.7895 51.4842 22.7895 53.9579 20.8105C52.9684 23.7789 51.979 26.2526 47.5263 27.2421C44.1113 28.001 41.9193 26.4175 41.0947 26.2526C42.2491 27.7368 43.359 29.5901 46.0421 31.2C48.5158 32.6842 50.9895 30.7052 53.9579 33.1789C50.9895 33.1789 50.4947 35.6526 47.0316 35.6526C44.0632 35.6526 42.5789 34.6631 41.0947 33.6737C42.5789 36.6421 44.459 38.5716 46.0421 39.3631C47.6253 40.1547 49.6702 41.0947 51.4842 41.0947C49.5053 42.0842 48.5158 43.0737 46.0421 43.0737C44.5213 43.0737 42.4832 42.4182 41.3593 41.7422C45.3451 45.3779 43.7599 48.1305 47.0316 50C47.0316 50 44.0632 50 42.5789 49.0105C41.0947 48.021 39.6105 46.5368 37.6316 47.0316C38.1263 36.6421 38.6211 33.752 38.6211 29.7158C38.6211 23.7789 36.1474 17.3474 33.6737 14.8737C31.6947 12.8947 29.5509 10.421 28.7263 8.93682Z" fill="#7445B8"/>
<path d="M28.7263 8.93682C31.2 5.9684 33.1789 7.45261 36.6421 6.95788C39.4126 6.56209 40.2702 4.97893 41.0947 4.48419C40.4718 8.01855 40.0791 10.0032 37.1368 11.4105C37.7965 12.0702 40.6 12.4 43.0737 11.9052C45.0142 11.5171 47.0316 9.9263 50.9895 11.4105C48.0211 12.4 46.9326 16.8526 44.5579 16.8526C42.1832 16.8526 41.2597 18.1719 41.0947 18.8316C42.414 20.1509 44.1084 21.6876 46.5368 22.2947C48.5158 22.7895 51.4842 22.7895 53.9579 20.8105C52.9684 23.7789 51.979 26.2526 47.5263 27.2421C44.1113 28.001 41.9193 26.4175 41.0947 26.2526C42.2491 27.7368 43.359 29.5901 46.0421 31.2C48.5158 32.6842 50.9895 30.7052 53.9579 33.1789C50.9895 33.1789 50.4947 35.6526 47.0316 35.6526C44.0632 35.6526 42.5789 34.6631 41.0947 33.6737C42.5789 36.6421 44.459 38.5716 46.0421 39.3631C47.6253 40.1547 49.6702 41.0947 51.4842 41.0947C49.5053 42.0842 48.5158 43.0737 46.0421 43.0737C44.5213 43.0737 42.4832 42.4182 41.3593 41.7422C45.3451 45.3779 43.7599 48.1305 47.0316 50C47.0316 50 44.0632 50 42.5789 49.0105C41.0947 48.021 39.6105 46.5368 37.6316 47.0316C38.1263 36.6421 38.6211 33.752 38.6211 29.7158C38.6211 23.7789 36.1474 17.3474 33.6737 14.8737C31.6947 12.8947 29.5509 10.421 28.7263 8.93682Z" fill="white" fill-opacity="0.2"/>
<path fill-rule="evenodd" clip-rule="evenodd" d="M38.6212 20.3158C42.0843 25.2632 42.0659 40.6877 40.1053 50C39.9556 50.7112 39.7938 51.4466 39.6281 52.2002C37.4632 62.0425 34.6169 74.9822 49 77.5C59.9946 79.4246 67.9755 68.6351 68.8001 63.3579C66.0148 63.3579 61.2258 61.7898 58.0298 57.3457C58.6771 58.0072 59.3413 58.6313 59.9993 59.1729C60.9051 59.9183 61.824 60.5282 62.6894 60.8527C62.9449 60.9485 63.21 61.0483 63.4824 61.1509L63.483 61.1511C64.8934 61.6822 66.5001 62.2872 67.973 62.7874C68.8522 63.086 69.6915 63.35 70.4191 63.5398C71.1091 63.7198 71.7358 63.8433 72.2098 63.8521C73.8327 64.1857 76.2282 64.2811 78.4916 64.2484C80.7828 64.2152 82.9958 64.0496 84.2182 63.8459C84.8915 63.7337 85.6984 63.3964 86.536 62.9564C86.8466 62.7932 87.1665 62.6132 87.4916 62.4205C86.7277 63.0342 85.927 63.5095 85.1264 63.8526C80.2525 65.9415 76.993 65.224 75.641 64.9265C75.476 64.8901 75.3393 64.8601 75.2317 64.8421C74.7369 75.0667 62.9622 97.3958 45.5475 97C23.7791 96.5053 15.8633 85.1263 14.8738 75.7263C14.1842 69.1757 14.8582 64.3324 15.4446 60.1183C16.2264 54.4999 16.8526 49.9999 13.8842 44.0632C11.1137 38.5221 30.2106 23.779 38.6212 20.3158ZM90.0906 59.494C91.045 58.0003 91.803 56.1575 92.2287 53.943C91.6811 54.6707 91.0719 55.4408 90.42 56.2029C88.6302 58.2953 86.4673 60.3899 84.3378 61.3363C81.9849 62.382 79.5376 62.932 77.3662 63.2641C77.7355 63.2662 78.1071 63.2644 78.4773 63.259C80.746 63.2262 82.9032 63.062 84.0555 62.8699C84.5695 62.7842 85.2634 62.5072 86.0759 62.0804C86.879 61.6585 87.7623 61.1097 88.6462 60.5116C89.1342 60.1814 89.6202 59.8376 90.0906 59.494ZM92.5174 51.8604C92.5284 51.736 92.5384 51.6106 92.5475 51.4842C92.6247 50.4035 92.7094 49.462 92.8214 48.6099C92.2557 49.3754 91.6397 50.1817 90.9948 50.99C89.0665 53.4071 86.8488 55.8818 84.9284 57.3221C82.9079 58.8375 80.5621 60.0503 78.3476 61.0851C77.5017 61.4804 76.6816 61.8469 75.9048 62.1942L75.9041 62.1945C75.6258 62.3189 75.353 62.4408 75.0866 62.5607C77.6622 62.2767 80.8748 61.7926 83.9359 60.4321C85.8501 59.5814 87.8924 57.6356 89.668 55.5597C90.7744 54.2664 91.7571 52.9467 92.5174 51.8604ZM93.2456 46.3261C93.7522 44.3316 94.6118 42.6447 96.2363 40.2274C94.3103 41.6732 92.6664 43.7366 91.0249 45.9076C90.8407 46.1512 90.6564 46.3963 90.4718 46.6419C88.7545 48.9265 87.0038 51.2554 84.9353 52.8642C83.0119 54.3602 80.3806 56.5392 78.0036 58.6118C76.7324 59.7203 75.5437 60.7901 74.5773 61.7049C74.8935 61.5622 75.2176 61.4173 75.5474 61.2698L75.5476 61.2697C76.3193 60.9246 77.1223 60.5655 77.9287 60.1886C80.1256 59.162 82.3973 57.9836 84.3347 56.5305C86.1482 55.1704 88.3008 52.7803 90.2214 50.3729C91.3635 48.9413 92.4125 47.5179 93.2456 46.3261ZM95.1488 39.824C94.8373 39.9226 94.518 40.0157 94.192 40.1043C91.0832 42.3418 87.1897 45.7539 83.5625 48.9327L83.5622 48.9329C83.1997 49.2506 82.8398 49.566 82.4837 49.8776C80.6765 51.4589 78.6076 54.3706 76.7826 57.1834C76.1686 58.1297 75.5866 59.0577 75.0555 59.9115C75.7703 59.2596 76.5491 58.5674 77.3533 57.8661C79.741 55.784 82.3869 53.5928 84.3278 52.0832C86.2853 50.5607 87.954 48.3426 89.6897 46.0353C89.8708 45.7946 90.0527 45.5529 90.2356 45.3108C91.7328 43.3308 93.3038 41.3359 95.1488 39.824ZM91.7901 40.6731C91.1866 40.801 90.572 40.9239 89.9527 41.0477C89.6213 41.114 89.2885 41.1805 88.9553 41.2483C86.8862 42.4603 83.2419 44.6683 80.034 47.8762C79.2217 48.6885 78.4455 49.8931 77.7122 51.3166C76.9818 52.7343 76.3088 54.339 75.693 55.9299C75.3332 56.8593 74.9954 57.7773 74.6775 58.6482C75.0806 58.0048 75.5082 57.3296 75.9525 56.6448C77.7707 53.8425 79.9071 50.8173 81.8321 49.1329C82.1897 48.8201 82.5516 48.5029 82.9167 48.1829C85.8628 45.6009 89.018 42.8356 91.7901 40.6731ZM85.9706 41.9147C83.3931 42.5693 80.9736 43.4668 79.1896 45.0526C75.8037 48.0623 74.5981 52.0386 73.7043 54.9862C73.5476 55.5032 73.4004 55.9886 73.2527 56.4316C73.2527 52.9684 72.758 47.0316 70.779 43.0737C69.9838 41.4832 68.9277 40.2319 67.7306 39.1819C67.9274 39.6161 68.122 40.0683 68.3123 40.5289C69.3246 42.9786 70.2366 45.7153 70.7564 47.3788C71.3959 49.4249 71.6382 52.4152 71.8266 55.286C71.8506 55.651 71.8737 56.0141 71.8965 56.3733C72.0293 58.4603 72.1539 60.4207 72.3939 61.9095C72.6086 61.3903 72.843 60.7754 73.0978 60.0864C73.2497 59.6758 73.4083 59.2408 73.5732 58.7883L73.5736 58.7872C73.942 57.7765 74.342 56.6789 74.7702 55.5727C75.3912 53.9685 76.0788 52.3265 76.8326 50.8634C77.5834 49.406 78.4151 48.0957 79.3344 47.1765C81.5618 44.9491 83.9883 43.1948 85.9706 41.9147ZM65.9396 37.8056C64.7747 37.011 63.5427 36.3247 62.3289 35.6487C62.09 35.5156 61.8519 35.383 61.6151 35.2499C63.2465 37.9522 65.2553 41.5484 66.2837 43.8622C67.5902 46.802 69.525 52.3017 70.9361 56.8651L70.9087 56.4337C70.8859 56.0735 70.863 55.7118 70.8393 55.3508C70.6489 52.4497 70.4094 49.5856 69.812 47.6739C69.2962 46.0234 68.3942 43.318 67.3978 40.9067C66.9182 39.7459 66.4212 38.6646 65.9396 37.8056ZM59.7942 34.1841C58.6526 33.4746 57.5898 32.7055 56.6904 31.7796C56.8574 32.2769 57.0349 32.8122 57.2217 33.3756L57.2219 33.376C57.6819 34.7635 58.1984 36.3212 58.7536 37.9004C59.9491 41.3014 61.3369 44.8455 62.7927 47.2718C63.8007 48.9519 65.2566 51.1146 66.7543 53.3394L66.7545 53.3397C67.3024 54.1536 67.856 54.9759 68.3952 55.7858C69.1852 56.9724 69.9434 58.1312 70.603 59.192C69.2086 54.4076 66.8734 47.6255 65.3795 44.2641C64.153 41.5044 61.4774 36.8378 59.7942 34.1841ZM55.4422 31.18V35.6118C55.6923 37.0792 56.5438 40.3602 57.7031 43.7161C58.2871 45.4065 58.9456 47.1055 59.6396 48.5926C60.337 50.087 61.0565 51.3373 61.7546 52.1517C62.6658 53.2148 64.1832 54.4918 65.8446 55.89L65.8447 55.8902L65.8449 55.8902C66.2877 56.263 66.7408 56.6443 67.1954 57.0325C67.8626 57.6022 68.5333 58.187 69.1714 58.7778C68.672 57.9972 68.1312 57.1747 67.5716 56.3342C67.0412 55.5376 66.4936 54.7241 65.949 53.9152L65.9489 53.915C64.4457 51.682 62.9666 49.4849 61.9442 47.7809C60.4315 45.2598 59.0158 41.6302 57.8201 38.2285C57.2478 36.6005 56.7287 35.0336 56.2706 33.6512L56.2705 33.651C55.9668 32.7342 55.6899 31.8986 55.4422 31.18ZM55.4422 39.8099V43.0737C55.4422 43.5286 55.4176 43.9682 55.3794 44.3992C55.425 44.5527 55.4743 44.7131 55.5272 44.8798C55.8773 45.9836 56.3758 47.3319 57.0071 48.7472C58.2757 51.5913 60.055 54.6478 62.2024 56.5566C63.9848 58.1409 65.9714 59.0216 67.8117 59.8064L68.0289 59.899C68.5824 60.1346 69.1256 60.3659 69.6391 60.6078C68.7323 59.6822 67.6604 58.7307 66.5529 57.7849C66.1208 57.416 65.6832 57.0479 65.25 56.6834L65.2499 56.6834C63.5788 55.2776 61.9726 53.9265 61.0033 52.7957C60.2172 51.8785 59.4525 50.5315 58.743 49.011C58.03 47.4833 57.359 45.7501 56.7679 44.0392C56.2615 42.5733 55.8113 41.1161 55.4422 39.8099ZM55.1032 46.6908C54.8661 48.6253 54.7598 50.632 55.8455 53.3566C56.5066 54.1848 57.2462 55.0602 58.0196 55.8982C58.8738 56.8237 59.7631 57.697 60.6281 58.4089C61.4982 59.1249 62.3192 59.6571 63.0369 59.9262C63.291 60.0216 63.5539 60.1205 63.8232 60.2219L63.836 60.2267C65.2469 60.758 66.8352 61.356 68.2912 61.8505C69.1601 62.1456 69.9741 62.4011 70.6688 62.5823C70.8672 62.6341 71.0527 62.6789 71.2246 62.7167C70.8603 62.4052 70.4269 62.1264 69.93 61.8596C69.2497 61.4944 68.4785 61.1659 67.632 60.8054L67.4235 60.7166C65.5836 59.9319 63.4603 58.9986 61.545 57.2961C59.2397 55.2469 57.3909 52.0367 56.1034 49.1502C55.7219 48.2949 55.3875 47.4629 55.1032 46.6908Z" fill="#1D8CE0"/>
<path fill-rule="evenodd" clip-rule="evenodd" d="M38.6212 20.3158C42.0843 25.2632 42.0659 40.6877 40.1053 50C39.9556 50.7112 39.7938 51.4466 39.6281 52.2002C37.4632 62.0425 34.6169 74.9822 49 77.5C59.9946 79.4246 67.9755 68.6351 68.8001 63.3579C66.0148 63.3579 61.2258 61.7898 58.0298 57.3457C58.6771 58.0072 59.3413 58.6313 59.9993 59.1729C60.9051 59.9183 61.824 60.5282 62.6894 60.8527C62.9449 60.9485 63.21 61.0483 63.4824 61.1509L63.483 61.1511C64.8934 61.6822 66.5001 62.2872 67.973 62.7874C68.8522 63.086 69.6915 63.35 70.4191 63.5398C71.1091 63.7198 71.7358 63.8433 72.2098 63.8521C73.8327 64.1857 76.2282 64.2811 78.4916 64.2484C80.7828 64.2152 82.9958 64.0496 84.2182 63.8459C84.8915 63.7337 85.6984 63.3964 86.536 62.9564C86.8466 62.7932 87.1665 62.6132 87.4916 62.4205C86.7277 63.0342 85.927 63.5095 85.1264 63.8526C80.2525 65.9415 76.993 65.224 75.641 64.9265C75.476 64.8901 75.3393 64.8601 75.2317 64.8421C74.7369 75.0667 62.9622 97.3958 45.5475 97C23.7791 96.5053 15.8633 85.1263 14.8738 75.7263C14.1842 69.1757 14.8582 64.3324 15.4446 60.1183C16.2264 54.4999 16.8526 49.9999 13.8842 44.0632C11.1137 38.5221 30.2106 23.779 38.6212 20.3158ZM90.0906 59.494C91.045 58.0003 91.803 56.1575 92.2287 53.943C91.6811 54.6707 91.0719 55.4408 90.42 56.2029C88.6302 58.2953 86.4673 60.3899 84.3378 61.3363C81.9849 62.382 79.5376 62.932 77.3662 63.2641C77.7355 63.2662 78.1071 63.2644 78.4773 63.259C80.746 63.2262 82.9032 63.062 84.0555 62.8699C84.5695 62.7842 85.2634 62.5072 86.0759 62.0804C86.879 61.6585 87.7623 61.1097 88.6462 60.5116C89.1342 60.1814 89.6202 59.8376 90.0906 59.494ZM92.5174 51.8604C92.5284 51.736 92.5384 51.6106 92.5475 51.4842C92.6247 50.4035 92.7094 49.462 92.8214 48.6099C92.2557 49.3754 91.6397 50.1817 90.9948 50.99C89.0665 53.4071 86.8488 55.8818 84.9284 57.3221C82.9079 58.8375 80.5621 60.0503 78.3476 61.0851C77.5017 61.4804 76.6816 61.8469 75.9048 62.1942L75.9041 62.1945C75.6258 62.3189 75.353 62.4408 75.0866 62.5607C77.6622 62.2767 80.8748 61.7926 83.9359 60.4321C85.8501 59.5814 87.8924 57.6356 89.668 55.5597C90.7744 54.2664 91.7571 52.9467 92.5174 51.8604ZM93.2456 46.3261C93.7522 44.3316 94.6118 42.6447 96.2363 40.2274C94.3103 41.6732 92.6664 43.7366 91.0249 45.9076C90.8407 46.1512 90.6564 46.3963 90.4718 46.6419C88.7545 48.9265 87.0038 51.2554 84.9353 52.8642C83.0119 54.3602 80.3806 56.5392 78.0036 58.6118C76.7324 59.7203 75.5437 60.7901 74.5773 61.7049C74.8935 61.5622 75.2176 61.4173 75.5474 61.2698L75.5476 61.2697C76.3193 60.9246 77.1223 60.5655 77.9287 60.1886C80.1256 59.162 82.3973 57.9836 84.3347 56.5305C86.1482 55.1704 88.3008 52.7803 90.2214 50.3729C91.3635 48.9413 92.4125 47.5179 93.2456 46.3261ZM95.1488 39.824C94.8373 39.9226 94.518 40.0157 94.192 40.1043C91.0832 42.3418 87.1897 45.7539 83.5625 48.9327L83.5622 48.9329C83.1997 49.2506 82.8398 49.566 82.4837 49.8776C80.6765 51.4589 78.6076 54.3706 76.7826 57.1834C76.1686 58.1297 75.5866 59.0577 75.0555 59.9115C75.7703 59.2596 76.5491 58.5674 77.3533 57.8661C79.741 55.784 82.3869 53.5928 84.3278 52.0832C86.2853 50.5607 87.954 48.3426 89.6897 46.0353C89.8708 45.7946 90.0527 45.5529 90.2356 45.3108C91.7328 43.3308 93.3038 41.3359 95.1488 39.824ZM91.7901 40.6731C91.1866 40.801 90.572 40.9239 89.9527 41.0477C89.6213 41.114 89.2885 41.1805 88.9553 41.2483C86.8862 42.4603 83.2419 44.6683 80.034 47.8762C79.2217 48.6885 78.4455 49.8931 77.7122 51.3166C76.9818 52.7343 76.3088 54.339 75.693 55.9299C75.3332 56.8593 74.9954 57.7773 74.6775 58.6482C75.0806 58.0048 75.5082 57.3296 75.9525 56.6448C77.7707 53.8425 79.9071 50.8173 81.8321 49.1329C82.1897 48.8201 82.5516 48.5029 82.9167 48.1829C85.8628 45.6009 89.018 42.8356 91.7901 40.6731ZM85.9706 41.9147C83.3931 42.5693 80.9736 43.4668 79.1896 45.0526C75.8037 48.0623 74.5981 52.0386 73.7043 54.9862C73.5476 55.5032 73.4004 55.9886 73.2527 56.4316C73.2527 52.9684 72.758 47.0316 70.779 43.0737C69.9838 41.4832 68.9277 40.2319 67.7306 39.1819C67.9274 39.6161 68.122 40.0683 68.3123 40.5289C69.3246 42.9786 70.2366 45.7153 70.7564 47.3788C71.3959 49.4249 71.6382 52.4152 71.8266 55.286C71.8506 55.651 71.8737 56.0141 71.8965 56.3733C72.0293 58.4603 72.1539 60.4207 72.3939 61.9095C72.6086 61.3903 72.843 60.7754 73.0978 60.0864C73.2497 59.6758 73.4083 59.2408 73.5732 58.7883L73.5736 58.7872C73.942 57.7765 74.342 56.6789 74.7702 55.5727C75.3912 53.9685 76.0788 52.3265 76.8326 50.8634C77.5834 49.406 78.4151 48.0957 79.3344 47.1765C81.5618 44.9491 83.9883 43.1948 85.9706 41.9147ZM65.9396 37.8056C64.7747 37.011 63.5427 36.3247 62.3289 35.6487C62.09 35.5156 61.8519 35.383 61.6151 35.2499C63.2465 37.9522 65.2553 41.5484 66.2837 43.8622C67.5902 46.802 69.525 52.3017 70.9361 56.8651L70.9087 56.4337C70.8859 56.0735 70.863 55.7118 70.8393 55.3508C70.6489 52.4497 70.4094 49.5856 69.812 47.6739C69.2962 46.0234 68.3942 43.318 67.3978 40.9067C66.9182 39.7459 66.4212 38.6646 65.9396 37.8056ZM59.7942 34.1841C58.6526 33.4746 57.5898 32.7055 56.6904 31.7796C56.8574 32.2769 57.0349 32.8122 57.2217 33.3756L57.2219 33.376C57.6819 34.7635 58.1984 36.3212 58.7536 37.9004C59.9491 41.3014 61.3369 44.8455 62.7927 47.2718C63.8007 48.9519 65.2566 51.1146 66.7543 53.3394L66.7545 53.3397C67.3024 54.1536 67.856 54.9759 68.3952 55.7858C69.1852 56.9724 69.9434 58.1312 70.603 59.192C69.2086 54.4076 66.8734 47.6255 65.3795 44.2641C64.153 41.5044 61.4774 36.8378 59.7942 34.1841ZM55.4422 31.18V35.6118C55.6923 37.0792 56.5438 40.3602 57.7031 43.7161C58.2871 45.4065 58.9456 47.1055 59.6396 48.5926C60.337 50.087 61.0565 51.3373 61.7546 52.1517C62.6658 53.2148 64.1832 54.4918 65.8446 55.89L65.8447 55.8902L65.8449 55.8902C66.2877 56.263 66.7408 56.6443 67.1954 57.0325C67.8626 57.6022 68.5333 58.187 69.1714 58.7778C68.672 57.9972 68.1312 57.1747 67.5716 56.3342C67.0412 55.5376 66.4936 54.7241 65.949 53.9152L65.9489 53.915C64.4457 51.682 62.9666 49.4849 61.9442 47.7809C60.4315 45.2598 59.0158 41.6302 57.8201 38.2285C57.2478 36.6005 56.7287 35.0336 56.2706 33.6512L56.2705 33.651C55.9668 32.7342 55.6899 31.8986 55.4422 31.18ZM55.4422 39.8099V43.0737C55.4422 43.5286 55.4176 43.9682 55.3794 44.3992C55.425 44.5527 55.4743 44.7131 55.5272 44.8798C55.8773 45.9836 56.3758 47.3319 57.0071 48.7472C58.2757 51.5913 60.055 54.6478 62.2024 56.5566C63.9848 58.1409 65.9714 59.0216 67.8117 59.8064L68.0289 59.899C68.5824 60.1346 69.1256 60.3659 69.6391 60.6078C68.7323 59.6822 67.6604 58.7307 66.5529 57.7849C66.1208 57.416 65.6832 57.0479 65.25 56.6834L65.2499 56.6834C63.5788 55.2776 61.9726 53.9265 61.0033 52.7957C60.2172 51.8785 59.4525 50.5315 58.743 49.011C58.03 47.4833 57.359 45.7501 56.7679 44.0392C56.2615 42.5733 55.8113 41.1161 55.4422 39.8099ZM55.1032 46.6908C54.8661 48.6253 54.7598 50.632 55.8455 53.3566C56.5066 54.1848 57.2462 55.0602 58.0196 55.8982C58.8738 56.8237 59.7631 57.697 60.6281 58.4089C61.4982 59.1249 62.3192 59.6571 63.0369 59.9262C63.291 60.0216 63.5539 60.1205 63.8232 60.2219L63.836 60.2267C65.2469 60.758 66.8352 61.356 68.2912 61.8505C69.1601 62.1456 69.9741 62.4011 70.6688 62.5823C70.8672 62.6341 71.0527 62.6789 71.2246 62.7167C70.8603 62.4052 70.4269 62.1264 69.93 61.8596C69.2497 61.4944 68.4785 61.1659 67.632 60.8054L67.4235 60.7166C65.5836 59.9319 63.4603 58.9986 61.545 57.2961C59.2397 55.2469 57.3909 52.0367 56.1034 49.1502C55.7219 48.2949 55.3875 47.4629 55.1032 46.6908Z" fill="white" fill-opacity="0.2"/>
<path d="M31 63C34.5 47.5 38.0334 26.9793 35.5 22C29.3473 25.4855 9.93235 36.6507 12.5 42C18.5 54.5 9.32317 60.6171 10.5001 76C11.4086 87.8737 23.6858 97.5021 39.6103 98C59.3459 98.6171 67.5 84 67.5 84C67.5 84 53 94.5 39.6105 87.1053C29.7156 80.1789 28.8616 72.4698 31 63Z" fill="#1D8CE0"/>
<path d="M5.50007 33.9416C5.4999 30.95 5.49954 24.7297 9.43157 18.8316C14.3789 12.4 20.3158 9.43158 30.2106 12.8947C40.1053 16.3579 39.1158 29.7158 37.6316 33.6737C36.2419 37.3796 33.6869 42.5169 30.2106 45C26.7106 47.5 24 48.5 20 49C14.8747 49.6407 4 47 4 39.5C4 34.9379 5.50007 36.9684 5.50007 34L5.50007 33.9416Z" fill="#1D8CE0"/>
<path d="M5.50007 33.9416C5.4999 30.95 5.49954 24.7297 9.43157 18.8316C14.3789 12.4 20.3158 9.43158 30.2106 12.8947C40.1053 16.3579 39.1158 29.7158 37.6316 33.6737C36.2419 37.3796 33.6869 42.5169 30.2106 45C26.7106 47.5 24 48.5 20 49C14.8747 49.6407 4 47 4 39.5C4 34.9379 5.50007 36.9684 5.50007 34L5.50007 33.9416Z" fill="white" fill-opacity="0.2"/>
<circle cx="28" cy="33" r="3" fill="#898989"/>
<circle cx="28" cy="33" r="3" fill="black" fill-opacity="0.8"/>
<ellipse cx="7.78179" cy="28.2664" rx="1.81516" ry="2.47368" transform="rotate(6.04683 7.78179 28.2664)" fill="#898989"/>
<ellipse cx="7.78179" cy="28.2664" rx="1.81516" ry="2.47368" transform="rotate(6.04683 7.78179 28.2664)" fill="black" fill-opacity="0.8"/>
<path d="M40.3065 14.681C36.1882 15.6457 36.0519 21.6261 33.9452 23.189C32.5405 24.2312 33.4122 26.6307 35.5 25.5C38.1097 24.0867 41.5335 26.2513 44.4513 24.6712C47.7135 22.9045 48.2031 17.5766 48.8012 15.5651C47.4964 16.2717 43.6012 13.9092 40.3065 14.681Z" fill="#1D8CE0"/>
<path d="M40.3065 14.681C36.1882 15.6457 36.0519 21.6261 33.9452 23.189C32.5405 24.2312 33.4122 26.6307 35.5 25.5C38.1097 24.0867 41.5335 26.2513 44.4513 24.6712C47.7135 22.9045 48.2031 17.5766 48.8012 15.5651C47.4964 16.2717 43.6012 13.9092 40.3065 14.681Z" fill="white" fill-opacity="0.4"/>
<path d="M41.0849 19.0237C39.8892 19.5155 39.2799 20.0645 38.2944 21.6644C37.8318 22.4154 38.4682 22.6218 40.0324 22.6882C41.3259 22.7432 42.3908 22.5938 43.5368 21.5411C44.8853 20.3025 44.6011 19.7294 45.4081 18.1649C44.6247 18.7513 41.9641 18.662 41.0849 19.0237Z" fill="#1D8CE0"/>
<path d="M41.0849 19.0237C39.8892 19.5155 39.2799 20.0645 38.2944 21.6644C37.8318 22.4154 38.4682 22.6218 40.0324 22.6882C41.3259 22.7432 42.3908 22.5938 43.5368 21.5411C44.8853 20.3025 44.6011 19.7294 45.4081 18.1649C44.6247 18.7513 41.9641 18.662 41.0849 19.0237Z" fill="white" fill-opacity="0.6"/>
<path d="M27.242 3C25.2631 4.97895 27.7529 8.4196 30.3959 8.44211C32.2099 8.77193 34.861 8.93684 35.6526 10.9158C36.642 13.3895 34.6631 16.8526 35.1578 18.8316C35.6526 20.8105 33.6736 23.2842 31.1999 24.2737C32.1894 22.2947 32.6841 20.8105 31.1999 19.3263C29.568 17.6944 28.5613 16.3579 28.7262 15.8632C28.0666 16.0281 25.2631 16.8526 24.7683 18.8316C24.2789 20.7895 26.7473 22.7895 24.2736 25.7579C23.7789 22.7895 22.4924 21.8989 21.305 20.3158C20.1176 18.7326 20.3155 17.3474 21.305 16.3579C19.8208 16.3579 18.8313 16.3579 16.8524 17.8421C15.0825 19.1697 14.8734 23.2842 14.8734 23.2842C14.8734 23.2842 11.9049 20.316 12.8945 17.3474C13.884 14.3788 16.8524 13.8842 16.8524 13.8842C16.8524 13.8842 15.4896 13.4947 14.5 13C13.1007 12.3004 12.0104 9.48421 13 8C13.4946 10.4737 16.4023 11.2195 17.5 11C19.9737 10.5053 20 10.1667 19 9.5C17.8126 8.70842 18.5 5.5 20 4.5C20.5 9.5 24.2736 8.44211 24.2736 8.44211C23.3625 8.58313 22.2947 3.98947 27.242 3Z" fill="#7445B8"/>
<path d="M27.242 3C25.2631 4.97895 27.7529 8.4196 30.3959 8.44211C32.2099 8.77193 34.861 8.93684 35.6526 10.9158C36.642 13.3895 34.6631 16.8526 35.1578 18.8316C35.6526 20.8105 33.6736 23.2842 31.1999 24.2737C32.1894 22.2947 32.6841 20.8105 31.1999 19.3263C29.568 17.6944 28.5613 16.3579 28.7262 15.8632C28.0666 16.0281 25.2631 16.8526 24.7683 18.8316C24.2789 20.7895 26.7473 22.7895 24.2736 25.7579C23.7789 22.7895 22.4924 21.8989 21.305 20.3158C20.1176 18.7326 20.3155 17.3474 21.305 16.3579C19.8208 16.3579 18.8313 16.3579 16.8524 17.8421C15.0825 19.1697 14.8734 23.2842 14.8734 23.2842C14.8734 23.2842 11.9049 20.316 12.8945 17.3474C13.884 14.3788 16.8524 13.8842 16.8524 13.8842C16.8524 13.8842 15.4896 13.4947 14.5 13C13.1007 12.3004 12.0104 9.48421 13 8C13.4946 10.4737 16.4023 11.2195 17.5 11C19.9737 10.5053 20 10.1667 19 9.5C17.8126 8.70842 18.5 5.5 20 4.5C20.5 9.5 24.2736 8.44211 24.2736 8.44211C23.3625 8.58313 22.2947 3.98947 27.242 3Z" fill="white" fill-opacity="0.2"/>
<path d="M45.0525 59.7508C38.621 56.7824 35.1578 54.8034 33.6736 58.2666C33.6736 61.7297 43.0736 70.1402 48.5157 69.1508C52.8694 68.3592 56.5964 63.8736 57.9157 61.7297C55.7718 62.0595 50.1978 62.1255 45.0525 59.7508Z" fill="#1D8CE0"/>
<path d="M45.0525 59.7508C38.621 56.7824 35.1578 54.8034 33.6736 58.2666C33.6736 61.7297 43.0736 70.1402 48.5157 69.1508C52.8694 68.3592 56.5964 63.8736 57.9157 61.7297C55.7718 62.0595 50.1978 62.1255 45.0525 59.7508Z" fill="white" fill-opacity="0.8"/>
<path fill-rule="evenodd" clip-rule="evenodd" d="M43.5578 59.0561C44.0372 59.2797 44.5353 59.512 45.0525 59.7508C50.1978 62.1255 55.7718 62.0595 57.9157 61.7297C57.6868 62.1017 57.3853 62.5443 57.0207 63.0258C53.8399 63.332 50.0152 63.1713 46.1986 61.8991C44.4659 61.3215 42.8464 60.4017 41.2387 59.4885L41.2387 59.4885C41.0383 59.3747 40.8381 59.261 40.638 59.1481C38.8599 58.1452 37.0646 57.1937 35.2279 56.9313C35.0619 56.9076 34.8952 56.9695 34.785 57.0959C34.6748 57.2222 34.6361 57.3958 34.6822 57.557C35.7239 61.2029 38.8254 64.2573 43.3282 66.7588C45.4941 67.9621 47.5806 68.5557 49.4676 68.9179C49.1542 69.014 48.8367 69.0924 48.5157 69.1508C43.0736 70.1402 33.6736 61.7297 33.6736 58.2666C35.0384 55.0819 38.0767 56.4992 43.5578 59.0561ZM51.1897 68.2034C51.9612 67.8011 52.6954 67.3094 53.3797 66.7715C51.0855 66.6662 48.4692 66.3375 45.3909 65.3115C42.0027 64.182 38.94 61.7062 36.5871 59.5015C37.9694 61.8783 40.4266 64.0149 43.8087 65.8938C45.972 67.0957 48.059 67.6594 49.9644 68.004C50.3825 68.0796 50.791 68.1445 51.1897 68.2034ZM54.4951 65.8177C55.1106 65.2483 55.6703 64.6577 56.162 64.0872C53.0763 64.2854 49.4843 64.0373 45.8857 62.8378C44.0547 62.2274 42.347 61.2568 40.7498 60.3489L40.7498 60.3489L40.7498 60.3489C40.5487 60.2346 40.3494 60.1214 40.1518 60.0099C38.9951 59.3574 37.9023 58.771 36.8363 58.3741C39.2109 60.6448 42.3077 63.2407 45.7038 64.3728C49.1537 65.5227 51.9952 65.7662 54.4951 65.8177Z" fill="#1D8CE0"/>
<path fill-rule="evenodd" clip-rule="evenodd" d="M43.5578 59.0561C44.0372 59.2797 44.5353 59.512 45.0525 59.7508C50.1978 62.1255 55.7718 62.0595 57.9157 61.7297C57.6868 62.1017 57.3853 62.5443 57.0207 63.0258C53.8399 63.332 50.0152 63.1713 46.1986 61.8991C44.4659 61.3215 42.8464 60.4017 41.2387 59.4885L41.2387 59.4885C41.0383 59.3747 40.8381 59.261 40.638 59.1481C38.8599 58.1452 37.0646 57.1937 35.2279 56.9313C35.0619 56.9076 34.8952 56.9695 34.785 57.0959C34.6748 57.2222 34.6361 57.3958 34.6822 57.557C35.7239 61.2029 38.8254 64.2573 43.3282 66.7588C45.4941 67.9621 47.5806 68.5557 49.4676 68.9179C49.1542 69.014 48.8367 69.0924 48.5157 69.1508C43.0736 70.1402 33.6736 61.7297 33.6736 58.2666C35.0384 55.0819 38.0767 56.4992 43.5578 59.0561ZM51.1897 68.2034C51.9612 67.8011 52.6954 67.3094 53.3797 66.7715C51.0855 66.6662 48.4692 66.3375 45.3909 65.3115C42.0027 64.182 38.94 61.7062 36.5871 59.5015C37.9694 61.8783 40.4266 64.0149 43.8087 65.8938C45.972 67.0957 48.059 67.6594 49.9644 68.004C50.3825 68.0796 50.791 68.1445 51.1897 68.2034ZM54.4951 65.8177C55.1106 65.2483 55.6703 64.6577 56.162 64.0872C53.0763 64.2854 49.4843 64.0373 45.8857 62.8378C44.0547 62.2274 42.347 61.2568 40.7498 60.3489L40.7498 60.3489L40.7498 60.3489C40.5487 60.2346 40.3494 60.1214 40.1518 60.0099C38.9951 59.3574 37.9023 58.771 36.8363 58.3741C39.2109 60.6448 42.3077 63.2407 45.7038 64.3728C49.1537 65.5227 51.9952 65.7662 54.4951 65.8177Z" fill="white" fill-opacity="0.6"/>
<circle cx="7" cy="39" r="1" fill="#1D8CE0"/>
<circle cx="7" cy="39" r="1" fill="black" fill-opacity="0.2"/>
<circle cx="20" cy="43" r="1" fill="#1D8CE0"/>
<circle cx="20" cy="43" r="1" fill="black" fill-opacity="0.2"/>
</svg>
