<svg width="100" height="100" viewBox="0 0 100 100" fill="none" xmlns="http://www.w3.org/2000/svg">
<g clip-path="url(#clip0_2033_15836)">
<path d="M9.5 66.5C11.5258 61 20.3467 49.1681 21 48H79C83.5 55.5 86.5 59.5 90 66.5C93.5 73.5 94.6433 77.4705 95.7291 82.5C97.7249 89.3862 100 96.4738 100 101H0C4.40579e-06 96.6558 0.552487 91.5 3.31492 82.5C6.07735 73.5 9.5 66.5 9.5 66.5Z" fill="#898989"/>
<path d="M9.5 66.5C11.5258 61 20.3467 49.1681 21 48H79C83.5 55.5 86.5 59.5 90 66.5C93.5 73.5 94.6433 77.4705 95.7291 82.5C97.7249 89.3862 100 96.4738 100 101H0C4.40579e-06 96.6558 0.552487 91.5 3.31492 82.5C6.07735 73.5 9.5 66.5 9.5 66.5Z" fill="black" fill-opacity="0.5"/>
<path d="M82 73C82.6482 74.2052 83.8406 80.0824 83.5001 88C83.1595 95.9176 82.4992 100.761 82.5733 104.462M17.5 74.5C17.0684 78.2624 16.948 86.2275 16.4805 89.3664C15.8961 93.2901 16.251 103.512 17.4999 105.5" stroke="#898989" stroke-width="0.996296" stroke-linecap="round"/>
<path d="M82 73C82.6482 74.2052 83.8406 80.0824 83.5001 88C83.1595 95.9176 82.4992 100.761 82.5733 104.462M17.5 74.5C17.0684 78.2624 16.948 86.2275 16.4805 89.3664C15.8961 93.2901 16.251 103.512 17.4999 105.5" stroke="black" stroke-opacity="0.3" stroke-width="0.996296" stroke-linecap="round"/>
<path d="M13.4499 20.3257C16.0999 24.5973 18.529 26.5551 19.4124 27L31.9998 17.656C31.7789 14.5413 31.9998 9.98044 30.0123 4.97473C28.6873 1.63757 24.0498 -1.69955 16.7624 0.970164C9.26518 3.71672 10.1374 14.9862 13.4499 20.3257Z" fill="#898989"/>
<path d="M13.4499 20.3257C16.0999 24.5973 18.529 26.5551 19.4124 27L31.9998 17.656C31.7789 14.5413 31.9998 9.98044 30.0123 4.97473C28.6873 1.63757 24.0498 -1.69955 16.7624 0.970164C9.26518 3.71672 10.1374 14.9862 13.4499 20.3257Z" fill="black" fill-opacity="0.2"/>
<path d="M86.5496 20.3257C83.8996 24.5973 81.4705 26.5551 80.5872 27L67.9998 17.656C68.2206 14.5413 67.9998 9.98044 69.9872 4.97473C71.3122 1.63757 75.9497 -1.69955 83.2371 0.970164C90.7343 3.71672 89.8621 14.9862 86.5496 20.3257Z" fill="#898989"/>
<path d="M86.5496 20.3257C83.8996 24.5973 81.4705 26.5551 80.5872 27L67.9998 17.656C68.2206 14.5413 67.9998 9.98044 69.9872 4.97473C71.3122 1.63757 75.9497 -1.69955 83.2371 0.970164C90.7343 3.71672 89.8621 14.9862 86.5496 20.3257Z" fill="black" fill-opacity="0.2"/>
<path d="M50.0392 10C40.384 10 32.6061 11.0173 29.2536 13.5606C25.901 16.1039 18.5255 22.8182 17.1845 26.3788C15.8435 29.9394 10.3453 47.0302 12.4909 52.7272C14.6366 58.4241 29.9241 64.8332 38.6406 67.6817C44.9523 69.7443 54.7328 69.1059 61.4378 67.6817C68.1429 66.2574 83.341 58.4241 86.917 52.7272C90.493 47.0302 84.235 29.2272 82.2235 26.3788C79.2062 22.106 72.8364 15.697 69.4839 13.5606C65.361 10.9334 59.6945 10 50.0392 10Z" fill="#898989"/>
<path d="M50.0392 10C40.384 10 32.6061 11.0173 29.2536 13.5606C25.901 16.1039 18.5255 22.8182 17.1845 26.3788C15.8435 29.9394 10.3453 47.0302 12.4909 52.7272C14.6366 58.4241 29.9241 64.8332 38.6406 67.6817C44.9523 69.7443 54.7328 69.1059 61.4378 67.6817C68.1429 66.2574 83.341 58.4241 86.917 52.7272C90.493 47.0302 84.235 29.2272 82.2235 26.3788C79.2062 22.106 72.8364 15.697 69.4839 13.5606C65.361 10.9334 59.6945 10 50.0392 10Z" fill="black" fill-opacity="0.4"/>
<path d="M58.726 39.6017C55.346 34.7186 46.1042 34.8809 42.3776 39.6017C40.2452 42.303 33.9108 62.8818 38.8236 65.7143C44.322 68.8844 57.5507 68.8844 62.6952 64.9116C66.6592 61.8506 60.4905 42.1508 58.726 39.6017Z" fill="#898989"/>
<path d="M58.726 39.6017C55.346 34.7186 46.1042 34.8809 42.3776 39.6017C40.2452 42.303 33.9108 62.8818 38.8236 65.7143C44.322 68.8844 57.5507 68.8844 62.6952 64.9116C66.6592 61.8506 60.4905 42.1508 58.726 39.6017Z" fill="white" fill-opacity="0.2"/>
<path d="M50.4995 49C43.8963 49 42.9529 51 42.0096 57C41.6952 59 48.9902 62 50.4995 62C52.3861 62 59.3038 59 58.9894 57C58.0461 51 57.1027 49 50.4995 49Z" fill="#898989"/>
<path d="M50.4995 49C43.8963 49 42.9529 51 42.0096 57C41.6952 59 48.9902 62 50.4995 62C52.3861 62 59.3038 59 58.9894 57C58.0461 51 57.1027 49 50.4995 49Z" fill="black" fill-opacity="0.8"/>
<circle cx="30.9998" cy="40" r="4" fill="#141414"/>
<circle cx="68.9998" cy="40" r="4" fill="#141414"/>
<ellipse rx="2.5" ry="2" transform="matrix(1 0 0 -1 38.4998 33)" fill="#898989"/>
<ellipse rx="2.5" ry="2" transform="matrix(1 0 0 -1 38.4998 33)" fill="black" fill-opacity="0.2"/>
<ellipse rx="2.5" ry="2" transform="matrix(1 0 0 -1 62.4998 33)" fill="#898989"/>
<ellipse rx="2.5" ry="2" transform="matrix(1 0 0 -1 62.4998 33)" fill="black" fill-opacity="0.2"/>
<path d="M49.9998 59C49.9998 59.5556 49.9998 61.5 49.9998 61.5M49.9998 61.5C49.9998 61.5 49.2998 62.3333 48.5998 63.1667C47.8998 64 42.9998 64 42.9998 64M49.9998 61.5L50.6998 62.3333C50.6998 62.3333 50.6998 62.3333 51.3998 63.1667C52.0998 64 56.9998 64 56.9998 64" stroke="#898989" stroke-linecap="round"/>
<path d="M49.9998 59C49.9998 59.5556 49.9998 61.5 49.9998 61.5M49.9998 61.5C49.9998 61.5 49.2998 62.3333 48.5998 63.1667C47.8998 64 42.9998 64 42.9998 64M49.9998 61.5L50.6998 62.3333C50.6998 62.3333 50.6998 62.3333 51.3998 63.1667C52.0998 64 56.9998 64 56.9998 64" stroke="black" stroke-opacity="0.8" stroke-linecap="round"/>
</g>
<defs>
<clipPath id="clip0_2033_15836">
<rect width="99.6296" height="99.6296" fill="white"/>
</clipPath>
</defs>
</svg>
