<svg width="100" height="100" viewBox="0 0 100 100" fill="none" xmlns="http://www.w3.org/2000/svg">
<g clip-path="url(#clip0_2333_11014)">
<path d="M39 5C39 8.08726 41.1667 9.68377 42 9.5C45.3333 10.0513 51.1 11.3231 55.5 10C59.9 8.67689 62 5 63 2C60.5 4 58.0298 4.31623 55.5 4C51.5 3.5 50 0 45.5 0C43 0 39 1.14093 39 5Z" fill="#546DDB"/>
<path d="M39 5C39 8.08726 41.1667 9.68377 42 9.5C45.3333 10.0513 51.1 11.3231 55.5 10C59.9 8.67689 62 5 63 2C60.5 4 58.0298 4.31623 55.5 4C51.5 3.5 50 0 45.5 0C43 0 39 1.14093 39 5Z" fill="black" fill-opacity="0.2"/>
<path d="M18.711 37.9803C17.5777 48.7788 14.3499 91.6426 13.8777 99.9748H86.3777C85.5906 91.476 81.6332 47.3733 80.8777 36.9748C79.9332 23.9766 69.2388 6.48478 49.4055 6.98471C29.5721 7.48464 20.1277 24.4822 18.711 37.9803Z" fill="#546DDB"/>
<path d="M18.711 37.9803C17.5777 48.7788 14.3499 91.6426 13.8777 99.9748H86.3777C85.5906 91.476 81.6332 47.3733 80.8777 36.9748C79.9332 23.9766 69.2388 6.48478 49.4055 6.98471C29.5721 7.48464 20.1277 24.4822 18.711 37.9803Z" fill="white" fill-opacity="0.4"/>
<path d="M-0.0665429 28.3372C0.402561 26.8805 13.4202 30.1581 19.8704 31.979L18.6977 48.9742C17.5249 48.5695 13.63 47.5654 9.31553 44.1184C2.87657 38.9742 -0.652922 30.1581 -0.0665429 28.3372Z" fill="#546DDB"/>
<path d="M-0.0665429 28.3372C0.402561 26.8805 13.4202 30.1581 19.8704 31.979L18.6977 48.9742C17.5249 48.5695 13.63 47.5654 9.31553 44.1184C2.87657 38.9742 -0.652922 30.1581 -0.0665429 28.3372Z" fill="white" fill-opacity="0.4"/>
<path d="M99.8146 28.3372C99.3455 26.8805 86.3279 30.1581 79.8777 31.979L81.0503 48.9742C82.2231 48.5695 86.118 47.5654 90.4325 44.1184C96.8715 38.9742 100.401 30.1581 99.8146 28.3372Z" fill="#546DDB"/>
<path d="M99.8146 28.3372C99.3455 26.8805 86.3279 30.1581 79.8777 31.979L81.0503 48.9742C82.2231 48.5695 86.118 47.5654 90.4325 44.1184C96.8715 38.9742 100.401 30.1581 99.8146 28.3372Z" fill="white" fill-opacity="0.4"/>
<circle cx="30.3777" cy="43.4742" r="4.5" fill="#CE4317"/>
<circle cx="30.3777" cy="43.4742" r="4.5" fill="white" fill-opacity="0.15"/>
<circle cx="69.3777" cy="43.4742" r="4.5" fill="#CE4317"/>
<circle cx="69.3777" cy="43.4742" r="4.5" fill="white" fill-opacity="0.15"/>
<path d="M32.8777 59.4742C36.211 58.9742 44.3777 57.9742 50.3777 57.9742C56.3777 57.9742 63.8777 58.9742 66.8777 59.4742" stroke="#546DDB" stroke-linecap="round"/>
<path d="M32.8777 59.4742C36.211 58.9742 44.3777 57.9742 50.3777 57.9742C56.3777 57.9742 63.8777 58.9742 66.8777 59.4742" stroke="black" stroke-opacity="0.2" stroke-linecap="round"/>
<path d="M65.9284 54.1555C66.6056 54.2008 66.8506 57.7994 66.771 58.9882L62.928 58.3329C63.0871 55.9554 65.4676 54.1246 65.9284 54.1555Z" fill="#FAA21E"/>
<path d="M65.9284 54.1555C66.6056 54.2008 66.8506 57.7994 66.771 58.9882L62.928 58.3329C63.0871 55.9554 65.4676 54.1246 65.9284 54.1555Z" fill="white" fill-opacity="0.6"/>
<path d="M34.0722 54.1129C33.3754 54.1475 33.0553 57.7421 33.1145 58.9321L37.0764 58.3373C36.958 55.9574 34.5464 54.0893 34.0722 54.1129Z" fill="#FAA21E"/>
<path d="M34.0722 54.1129C33.3754 54.1475 33.0553 57.7421 33.1145 58.9321L37.0764 58.3373C36.958 55.9574 34.5464 54.0893 34.0722 54.1129Z" fill="white" fill-opacity="0.6"/>
<path d="M40.8777 54.7548C40.8777 50.48 43.1557 45.9532 44.836 43.9742H55.5235C55.5235 43.9742 59.8777 45.0355 59.8777 54.7548C59.8777 64.4742 56.9194 68.4742 50.8777 68.4742C44.836 68.4742 40.8777 63.4742 40.8777 54.7548Z" fill="#546DDB"/>
<path d="M40.8777 54.7548C40.8777 50.48 43.1557 45.9532 44.836 43.9742H55.5235C55.5235 43.9742 59.8777 45.0355 59.8777 54.7548C59.8777 64.4742 56.9194 68.4742 50.8777 68.4742C44.836 68.4742 40.8777 63.4742 40.8777 54.7548Z" fill="white" fill-opacity="0.4"/>
<path d="M44.4502 43.9742C42.7269 46.0324 39.9998 51 42.4999 55C39.4999 60.5 41.8776 68.4742 50.8776 68.4742C58.8776 68.4742 61.5 60 57.9999 55C61 49.5 55.4118 43.9742 55.4118 43.9742" stroke="#546DDB" stroke-linecap="round" stroke-linejoin="round"/>
<path d="M44.4502 43.9742C42.7269 46.0324 39.9998 51 42.4999 55C39.4999 60.5 41.8776 68.4742 50.8776 68.4742C58.8776 68.4742 61.5 60 57.9999 55C61 49.5 55.4118 43.9742 55.4118 43.9742" stroke="black" stroke-opacity="0.2" stroke-linecap="round" stroke-linejoin="round"/>
<path d="M33.7451 36.7478C29.4251 35.9532 27.3239 37.4966 25.8778 39.4097C27.1137 39.1272 28.4617 38.6047 30.7265 39.6634C33.2178 40.8278 33.2232 41.4067 34.361 42.5148C35.4989 43.6229 37.191 43.545 38.0753 41.6532C39.0701 39.5249 36.7945 37.3086 33.7451 36.7478Z" fill="#546DDB"/>
<path d="M33.7451 36.7478C29.4251 35.9532 27.3239 37.4966 25.8778 39.4097C27.1137 39.1272 28.4617 38.6047 30.7265 39.6634C33.2178 40.8278 33.2232 41.4067 34.361 42.5148C35.4989 43.6229 37.191 43.545 38.0753 41.6532C39.0701 39.5249 36.7945 37.3086 33.7451 36.7478Z" fill="black" fill-opacity="0.2"/>
<path d="M65.2441 37.119C69.4967 36.0197 71.7023 37.41 73.2806 39.2156C72.0278 39.0216 70.646 38.5961 68.4621 39.8129C66.0598 41.1513 66.0955 41.7291 65.0393 42.9152C63.983 44.1013 62.2896 44.1438 61.2732 42.3196C60.1297 40.2673 62.2422 37.895 65.2441 37.119Z" fill="#546DDB"/>
<path d="M65.2441 37.119C69.4967 36.0197 71.7023 37.41 73.2806 39.2156C72.0278 39.0216 70.646 38.5961 68.4621 39.8129C66.0598 41.1513 66.0955 41.7291 65.0393 42.9152C63.983 44.1013 62.2896 44.1438 61.2732 42.3196C60.1297 40.2673 62.2422 37.895 65.2441 37.119Z" fill="black" fill-opacity="0.2"/>
<path d="M44.9998 63.5C43.1371 60.9745 43.833 58.6466 44.4999 56.5C44.6697 59 45.4168 61.569 47 63C48.9588 64.7705 51 66 54 65.5C51 67.5 46.9787 66.1831 44.9998 63.5Z" fill="#FEFEFE" fill-opacity="0.15"/>
<path d="M12.3777 40.4742C15.529 41.7347 16.3777 43.9742 17.3777 46.9742C11.8777 44.9742 9.19148 42.5772 6.87769 39.9742C4.56389 37.3712 1.87769 31.9742 1.37769 29.4742C2.37769 30.9742 4.87769 37.4742 12.3777 40.4742Z" fill="#546DDB"/>
<path d="M12.3777 40.4742C15.529 41.7347 16.3777 43.9742 17.3777 46.9742C11.8777 44.9742 9.19148 42.5772 6.87769 39.9742C4.56389 37.3712 1.87769 31.9742 1.37769 29.4742C2.37769 30.9742 4.87769 37.4742 12.3777 40.4742Z" fill="black" fill-opacity="0.2"/>
<path d="M86.8777 40.9742C83.7263 42.2347 82.8777 44.4742 81.8777 47.4742C87.3777 45.4742 90.0639 43.0772 92.3777 40.4742C94.6915 37.8711 97.8777 32.4742 98.3777 29.9742C97.3777 31.4742 94.3777 37.9742 86.8777 40.9742Z" fill="#546DDB"/>
<path d="M86.8777 40.9742C83.7263 42.2347 82.8777 44.4742 81.8777 47.4742C87.3777 45.4742 90.0639 43.0772 92.3777 40.4742C94.6915 37.8711 97.8777 32.4742 98.3777 29.9742C97.3777 31.4742 94.3777 37.9742 86.8777 40.9742Z" fill="black" fill-opacity="0.2"/>
<path d="M11.2887 0.870385C8.76492 -0.116174 6.03988 -0.221538 2.29921 2.10821C7.04529 2.05962 10.272 5.13414 7.35461 7.99415C4.43719 10.8542 0.845147 9.8137 1.46977 14.7857C2.0944 19.7576 14.0824 24.4438 11.3087 28.8147C9.08965 32.3114 2.68358 27.019 -0.242076 23.9358C-0.115083 25.8038 0.487475 30.3307 1.88177 33.4942C3.62463 37.4486 6.1921 42.089 12.3079 44.116C18.4238 46.143 26.8761 43.9919 30.9617 39.0428C35.0474 34.0938 36.122 29.4223 33.4608 22.1996C31.3319 16.4214 25.2389 9.27357 22.9754 7.29774C24.8025 9.89784 24.3484 13.5033 22.0672 14.5087C19.7861 15.5141 17.2245 13.5744 15.813 11.1356C14.4123 8.71543 16.214 2.79569 11.2887 0.870385Z" fill="#7445B8"/>
<path d="M11.2887 0.870385C8.76492 -0.116174 6.03988 -0.221538 2.29921 2.10821C7.04529 2.05962 10.272 5.13414 7.35461 7.99415C4.43719 10.8542 0.845147 9.8137 1.46977 14.7857C2.0944 19.7576 14.0824 24.4438 11.3087 28.8147C9.08965 32.3114 2.68358 27.019 -0.242076 23.9358C-0.115083 25.8038 0.487475 30.3307 1.88177 33.4942C3.62463 37.4486 6.1921 42.089 12.3079 44.116C18.4238 46.143 26.8761 43.9919 30.9617 39.0428C35.0474 34.0938 36.122 29.4223 33.4608 22.1996C31.3319 16.4214 25.2389 9.27357 22.9754 7.29774C24.8025 9.89784 24.3484 13.5033 22.0672 14.5087C19.7861 15.5141 17.2245 13.5744 15.813 11.1356C14.4123 8.71543 16.214 2.79569 11.2887 0.870385Z" fill="white" fill-opacity="0.2"/>
<path d="M19.0129 19.9414C17.9936 18.9642 16.4754 17.1448 15.0399 15.5628C13.7156 14.1033 11.4345 15.1087 10.4777 17.5736C9.52086 20.0384 15.2008 22.3187 16.4753 25.2106C17.4807 27.4919 17.6664 29.9212 15.5671 32.4216C13.8087 34.516 8.55796 32.82 6.71284 30.8755C6.79293 32.0536 7.44012 35.3121 8.90739 37.4001C10.7344 40 12.6705 42.0591 16.5275 43.3375C20.3846 44.6159 25.7152 43.2592 28.2919 40.138C30.8686 37.0168 32.673 31.9401 30.9948 27.3849C29.6521 23.7408 26.341 19.3322 24.9135 18.0861C25.0357 18.3632 23.9567 20.551 22.8161 21.0537C21.5829 21.5973 19.6391 20.5417 19.0129 19.9414Z" fill="#7445B8"/>
<path d="M19.0129 19.9414C17.9936 18.9642 16.4754 17.1448 15.0399 15.5628C13.7156 14.1033 11.4345 15.1087 10.4777 17.5736C9.52086 20.0384 15.2008 22.3187 16.4753 25.2106C17.4807 27.4919 17.6664 29.9212 15.5671 32.4216C13.8087 34.516 8.55796 32.82 6.71284 30.8755C6.79293 32.0536 7.44012 35.3121 8.90739 37.4001C10.7344 40 12.6705 42.0591 16.5275 43.3375C20.3846 44.6159 25.7152 43.2592 28.2919 40.138C30.8686 37.0168 32.673 31.9401 30.9948 27.3849C29.6521 23.7408 26.341 19.3322 24.9135 18.0861C25.0357 18.3632 23.9567 20.551 22.8161 21.0537C21.5829 21.5973 19.6391 20.5417 19.0129 19.9414Z" fill="white" fill-opacity="0.6"/>
<path d="M31.1777 47.3137C32.2187 46.8549 32.6906 45.6391 32.2318 44.5982C31.773 43.5573 30.5573 43.0854 29.5163 43.5441L19.7876 47.832C18.7467 48.2908 18.2748 49.5065 18.7335 50.5475C19.1923 51.5884 20.4081 52.0603 21.449 51.6015L31.1777 47.3137Z" fill="#546DDB"/>
<path d="M30.222 51.0976L25.6597 53.1084L48.7132 108.505L51.0393 109.147L54.4611 107.639L55.5568 105.489L30.222 51.0976Z" fill="#546DDB"/>
<path d="M25.0002 85C20.6262 81.819 18.5001 77.5 17 70C17.0001 65 24.0098 63.5332 25.0002 67C26 70.5 25.4999 74 28.5 77C31.5414 80.0413 34.7116 80.994 36.2114 81.0197C37.7112 81.0453 37.7283 80.0455 40.745 79.097C43.7616 78.1485 44.2273 80.1567 45.71 81.1822C47.1927 82.2077 45.6159 86.6814 45.5988 87.6813C45.5817 88.6811 43.0649 89.6382 40.5653 89.5954C38.0656 89.5526 30.5002 89 25.0002 85Z" fill="#546DDB"/>
<path d="M25.0002 85C20.6262 81.819 18.5001 77.5 17 70C17.0001 65 24.0098 63.5332 25.0002 67C26 70.5 25.4999 74 28.5 77C31.5414 80.0413 34.7116 80.994 36.2114 81.0197C37.7112 81.0453 37.7283 80.0455 40.745 79.097C43.7616 78.1485 44.2273 80.1567 45.71 81.1822C47.1927 82.2077 45.6159 86.6814 45.5988 87.6813C45.5817 88.6811 43.0649 89.6382 40.5653 89.5954C38.0656 89.5526 30.5002 89 25.0002 85Z" fill="black" fill-opacity="0.2"/>
<path d="M69.0002 88.5C73.7683 85 80.2217 77.8114 82.0001 73.5C80.5414 68.5508 78.7728 67.1138 73.4999 67.4999C70.4998 71.9619 65 79.5 62 82C59 84.5 48.4353 90.0456 48.4353 90.0456L52.5002 96.5C55.0072 95.9567 63.2666 92.7086 69.0002 88.5Z" fill="#546DDB"/>
<path d="M69.0002 88.5C73.7683 85 80.2217 77.8114 82.0001 73.5C80.5414 68.5508 78.7728 67.1138 73.4999 67.4999C70.4998 71.9619 65 79.5 62 82C59 84.5 48.4353 90.0456 48.4353 90.0456L52.5002 96.5C55.0072 95.9567 63.2666 92.7086 69.0002 88.5Z" fill="black" fill-opacity="0.2"/>
<path d="M43.4275 89.1674C44.7552 89.3974 48.5024 89.4768 49.2364 90.1738L52.866 96.3586C52.169 97.0926 49.4871 98.5938 47.6548 99.3021C45.8226 100.01 45.1174 99.1474 43.5057 98.5832L40.5622 93.3721C41.3735 92.8004 42.0998 88.9373 43.4275 89.1674Z" fill="#546DDB"/>
<path d="M43.4275 89.1674C44.7552 89.3974 48.5024 89.4768 49.2364 90.1738L52.866 96.3586C52.169 97.0926 49.4871 98.5938 47.6548 99.3021C45.8226 100.01 45.1174 99.1474 43.5057 98.5832L40.5622 93.3721C41.3735 92.8004 42.0998 88.9373 43.4275 89.1674Z" fill="black" fill-opacity="0.2"/>
<path d="M42.0487 11.433C42.5796 11.0867 43.8399 10.996 44.9339 11.3796C46.0279 11.7631 46.6232 13.5692 46.2908 14.5175C45.9583 15.4659 44.698 15.5565 43.2092 16.2991C41.7203 17.0417 40.5526 15.7005 40.322 14.0223C40.0913 12.3441 41.5178 11.7793 42.0487 11.433Z" fill="#546DDB"/>
<path d="M48.4413 20.0635C47.6798 18.7316 48.7416 18.039 49.605 16.7443C51.3961 16.3074 51.9914 18.1134 51.5966 19.2396C51.2018 20.3657 51.1925 21.5605 49.766 22.1253C48.3395 22.69 49.2029 21.3954 48.4413 20.0635Z" fill="#546DDB"/>
<path d="M53.9166 16.1261C52.458 15.6147 50.2629 14.0703 51.7943 11.2974C53.3257 8.52452 56.729 9.20842 59.3139 11.1795C61.3818 12.7564 61.1837 15.2783 60.2501 16.7492C58.4939 17.7668 57.436 16.4044 56.8268 15.3389C56.0653 14.007 55.3753 16.6375 53.9166 16.1261Z" fill="#546DDB"/>
<path d="M42.1401 20.5167C42.6388 19.0942 43.1697 18.7478 43.8991 19.0035C44.6284 19.2592 44.1297 20.6817 44.6928 21.4116C45.2559 22.1414 45.9852 22.3971 46.1837 22.9992C46.3821 23.6012 44.9878 25.2422 42.7998 24.4751C42.0705 24.2194 41.6414 21.9392 42.1401 20.5167Z" fill="#546DDB"/>
<path d="M37.9858 11.5402C38.6785 11.6072 38.8248 9.95123 38.8114 9.11488C37.001 9.44094 34.0891 11.1636 33.0663 12.0668C32.0434 12.9701 31.8634 14.1003 32.1507 15.0573C32.4379 16.0143 34.0912 16.6752 36.453 15.6461C38.1937 14.8876 35.5854 12.8114 36.1755 11.8663C36.7655 10.9213 37.1199 11.4565 37.9858 11.5402Z" fill="#546DDB"/>
<path d="M68.8581 20.2747C70.3053 19.4688 70.4826 18.3544 70.1863 17.4542C69.9531 17.0776 69.0998 16.287 67.5517 16.1374C65.6166 15.9503 65.2624 19.07 65.8274 19.9818C66.3925 20.8936 67.411 21.0806 68.8581 20.2747Z" fill="#546DDB"/>
</g>
<defs>
<clipPath id="clip0_2333_11014">
<rect width="100" height="100" fill="white"/>
</clipPath>
</defs>
</svg>
