<svg width="100" height="100" viewBox="0 0 100 100" fill="none" xmlns="http://www.w3.org/2000/svg">
<path d="M70 44.8737C65.489 47.4463 64.4663 52.1164 64.1278 54.314L65.489 55.9255C66.5853 55.2118 68.7958 51.8786 71.4197 51.1282C74.8413 50.1497 74.5546 53.8135 80.4999 54.314C86.0306 54.7797 88.5573 52.7162 90.4999 48.3737C91.6183 45.8737 91 42.3737 90.5 38.8737C89.0871 41.9787 86.5841 42.7628 81.9999 43.8737C77.1419 45.051 73.8704 42.6664 70 44.8737Z" fill="#D0333D"/>
<path d="M70 44.8737C65.489 47.4463 64.4663 52.1164 64.1278 54.314L65.489 55.9255C66.5853 55.2118 68.7958 51.8786 71.4197 51.1282C74.8413 50.1497 74.5546 53.8135 80.4999 54.314C86.0306 54.7797 88.5573 52.7162 90.4999 48.3737C91.6183 45.8737 91 42.3737 90.5 38.8737C89.0871 41.9787 86.5841 42.7628 81.9999 43.8737C77.1419 45.051 73.8704 42.6664 70 44.8737Z" fill="black" fill-opacity="0.6"/>
<path d="M8.84689 73.242C9.31493 71.8379 16.8425 67.1965 21.1329 65.0513C24.4482 67.1965 30.2597 71.8379 26.9834 73.242C23.7071 74.6461 18.9878 74.9971 16.4526 74.9971C17.8177 77.3373 20.8989 82.3687 22.303 83.7728C24.0581 85.528 13.5273 89.0382 13.5273 86.6981C13.5273 84.3579 8.26184 74.9971 8.84689 73.242Z" fill="#D0333D"/>
<path d="M8.84689 73.242C9.31493 71.8379 16.8425 67.1965 21.1329 65.0513C24.4482 67.1965 30.2597 71.8379 26.9834 73.242C23.7071 74.6461 18.9878 74.9971 16.4526 74.9971C17.8177 77.3373 20.8989 82.3687 22.303 83.7728C24.0581 85.528 13.5273 89.0382 13.5273 86.6981C13.5273 84.3579 8.26184 74.9971 8.84689 73.242Z" fill="black" fill-opacity="0.6"/>
<path d="M46.29 80.2625C46.758 78.8584 55.4557 62.5161 59.7461 60.3709C63.0614 62.5161 68.8729 67.1575 65.5966 68.5616C62.3203 69.9657 54.9749 79.539 52.6802 81.2941C54.0453 83.6343 57.7116 89.2508 59.1157 90.6549C60.8708 92.41 50.9704 96.0588 50.9704 93.7186C50.9704 91.3784 45.705 82.0177 46.29 80.2625Z" fill="#D0333D"/>
<path d="M46.29 80.2625C46.758 78.8584 55.4557 62.5161 59.7461 60.3709C63.0614 62.5161 68.8729 67.1575 65.5966 68.5616C62.3203 69.9657 54.9749 79.539 52.6802 81.2941C54.0453 83.6343 57.7116 89.2508 59.1157 90.6549C60.8708 92.41 50.9704 96.0588 50.9704 93.7186C50.9704 91.3784 45.705 82.0177 46.29 80.2625Z" fill="black" fill-opacity="0.6"/>
<path d="M22.2537 54.6442C24.5002 52.3737 25.598 52.9198 29.0468 52.9198C29.4779 52.9198 32.4092 53.6096 37.2374 54.6442C43.2727 55.9375 45.286 57.0368 54.1547 52.7525C60.9474 49.4711 68.7611 52.7525 70.5362 58.7878C73.2085 67.8737 67.0874 74.3071 55.0168 77.3248C42.9463 80.3424 30.917 77.8737 24.5002 72.3737C18.4648 67.2006 19.8287 57.0952 22.2537 54.6442Z" fill="#D0333D"/>
<path d="M22.2537 54.6442C24.5002 52.3737 25.598 52.9198 29.0468 52.9198C29.4779 52.9198 32.4092 53.6096 37.2374 54.6442C43.2727 55.9375 45.286 57.0368 54.1547 52.7525C60.9474 49.4711 68.7611 52.7525 70.5362 58.7878C73.2085 67.8737 67.0874 74.3071 55.0168 77.3248C42.9463 80.3424 30.917 77.8737 24.5002 72.3737C18.4648 67.2006 19.8287 57.0952 22.2537 54.6442Z" fill="black" fill-opacity="0.4"/>
<path d="M34.9304 33.5419C35.1336 34.9218 35.8246 38.7272 37.0975 39.9413C38.3705 41.1555 41.8013 41.6754 43.1893 41.8131" stroke="#FAA21E" stroke-width="2.1989" stroke-linecap="round"/>
<path d="M34.9304 33.5419C35.1336 34.9218 35.8246 38.7272 37.0975 39.9413C38.3705 41.1555 41.8013 41.6754 43.1893 41.8131" stroke="black" stroke-opacity="0.4" stroke-width="2.1989" stroke-linecap="round"/>
<path d="M17.2943 25.1035C16.6669 25.7613 17.8408 26.92 18.4877 26.2418C19.1345 25.5636 19.1247 24.3741 18.5746 23.8494C18.0245 23.3247 16.8598 23.1697 16.1009 23.9653C15.3421 24.7609 15.0742 26.0247 16.1744 27.0741C17.2746 28.1235 20.0365 29.5496 24.02 29.9992C28.0036 30.4488 31.2349 29.2954 33.3775 31.3391C35.4708 33.3357 36.8493 36.9181 38.6097 38.5971C40.37 40.2762 43.6186 41.1071 45.7091 43.101C47.7995 45.0948 47.4163 49.276 47.8876 52.7642C48.4532 56.9501 49.7499 59.0986 51.1802 60.4628C52.6105 61.827 53.8708 60.8278 54.289 60.3893C54.7073 59.9508 54.894 58.6873 54.2339 58.0577C53.4383 57.2989 52.6611 57.3172 51.9023 58.1128C51.1434 58.9084 52.3368 60.0467 53.0957 59.2511" stroke="#FAA21E" stroke-width="0.806111" stroke-linecap="round"/>
<path d="M17.2943 25.1035C16.6669 25.7613 17.8408 26.92 18.4877 26.2418C19.1345 25.5636 19.1247 24.3741 18.5746 23.8494C18.0245 23.3247 16.8598 23.1697 16.1009 23.9653C15.3421 24.7609 15.0742 26.0247 16.1744 27.0741C17.2746 28.1235 20.0365 29.5496 24.02 29.9992C28.0036 30.4488 31.2349 29.2954 33.3775 31.3391C35.4708 33.3357 36.8493 36.9181 38.6097 38.5971C40.37 40.2762 43.6186 41.1071 45.7091 43.101C47.7995 45.0948 47.4163 49.276 47.8876 52.7642C48.4532 56.9501 49.7499 59.0986 51.1802 60.4628C52.6105 61.827 53.8708 60.8278 54.289 60.3893C54.7073 59.9508 54.894 58.6873 54.2339 58.0577C53.4383 57.2989 52.6611 57.3172 51.9023 58.1128C51.1434 58.9084 52.3368 60.0467 53.0957 59.2511" stroke="black" stroke-opacity="0.1" stroke-width="0.806111" stroke-linecap="round"/>
<path d="M16.2407 27.4523C17.3409 28.5017 20.1028 29.9278 24.0864 30.3774C28.0699 30.827 31.3012 29.6736 33.4438 31.7173C35.5371 33.7139 36.9157 37.2963 38.676 38.9753C40.4364 40.6544 43.685 41.4854 45.7754 43.4792C47.8658 45.4731 47.4827 49.6542 47.9539 53.1424C48.5195 57.3284 49.8163 59.4768 51.2465 60.841" stroke="#FAA21E" stroke-width="2.41833" stroke-linecap="round"/>
<path d="M16.2407 27.4523C17.3409 28.5017 20.1028 29.9278 24.0864 30.3774C28.0699 30.827 31.3012 29.6736 33.4438 31.7173C35.5371 33.7139 36.9157 37.2963 38.676 38.9753C40.4364 40.6544 43.685 41.4854 45.7754 43.4792C47.8658 45.4731 47.4827 49.6542 47.9539 53.1424C48.5195 57.3284 49.8163 59.4768 51.2465 60.841" stroke="black" stroke-opacity="0.4" stroke-width="2.41833" stroke-linecap="round"/>
<path d="M16.9306 43.3374C17.6447 42.4584 20.4019 35.2147 23.0001 34.3737C25.5984 33.5327 24.6007 39.6428 24.6007 39.6428L19.9629 43.9896C18.5163 46.2124 16.2991 50.9263 17.5156 51.5281C18.741 52.1342 18.1006 53.8683 16.3455 54.4533C15.1658 54.8465 15.0426 53.732 14.9452 53.1476L14.9452 51.3477C15.473 47.594 15.2826 46.3298 16.9306 43.3374Z" fill="#CE4317"/>
<path d="M16.9306 43.3374C17.6447 42.4584 20.4019 35.2147 23.0001 34.3737C25.5984 33.5327 24.6007 39.6428 24.6007 39.6428L19.9629 43.9896C18.5163 46.2124 16.2991 50.9263 17.5156 51.5281C18.741 52.1342 18.1006 53.8683 16.3455 54.4533C15.1658 54.8465 15.0426 53.732 14.9452 53.1476L14.9452 51.3477C15.473 47.594 15.2826 46.3298 16.9306 43.3374Z" fill="white" fill-opacity="0.8"/>
<path d="M34 1.87369C29 0.373687 27.5 3.87369 27.5 3.87369C24.5 4.37369 19 8.97369 19 13.3737C19 17.7737 29.3333 28.707 35.5 30.8737C37.8333 30.5404 43.7 29.5737 46.5 28.3737C49.3 27.1737 52.5 25.8737 54 22.8737C53.6667 23.0404 52.5 23.8737 51 23.3737C49.8616 22.9942 49.5 22.8737 49 21.8737C50.3333 21.5404 53.3 20.6737 54.5 19.8737C55.7 19.0737 56.6667 17.5404 57 16.8737C56.6667 17.0404 55.7 17.3737 54.5 17.3737C53.3 17.3737 51.6667 17.0404 51 16.8737C51.1667 16.8737 51.8 16.6737 53 15.8737C54.2 15.0737 56.1667 12.5404 57 11.3737C56.3333 11.707 54.6 12.4737 53 12.8737C51.4 13.2737 48.3333 12.707 47 12.3737C47.5 12.207 48.7 11.7737 49.5 11.3737C50.3 10.9737 51.8333 9.54036 52.5 8.87369C50.5 9.04036 46 9.07369 44 7.87369C41.5 6.37369 36.9874 4.45494 33.5 3.87369C30.5 3.37369 30 3.87369 30 3.87369C30 2.87369 31.5 1.87369 34 1.87369Z" fill="#D0333D"/>
<path d="M34 1.87369C29 0.373687 27.5 3.87369 27.5 3.87369C24.5 4.37369 19 8.97369 19 13.3737C19 17.7737 29.3333 28.707 35.5 30.8737C37.8333 30.5404 43.7 29.5737 46.5 28.3737C49.3 27.1737 52.5 25.8737 54 22.8737C53.6667 23.0404 52.5 23.8737 51 23.3737C49.8616 22.9942 49.5 22.8737 49 21.8737C50.3333 21.5404 53.3 20.6737 54.5 19.8737C55.7 19.0737 56.6667 17.5404 57 16.8737C56.6667 17.0404 55.7 17.3737 54.5 17.3737C53.3 17.3737 51.6667 17.0404 51 16.8737C51.1667 16.8737 51.8 16.6737 53 15.8737C54.2 15.0737 56.1667 12.5404 57 11.3737C56.3333 11.707 54.6 12.4737 53 12.8737C51.4 13.2737 48.3333 12.707 47 12.3737C47.5 12.207 48.7 11.7737 49.5 11.3737C50.3 10.9737 51.8333 9.54036 52.5 8.87369C50.5 9.04036 46 9.07369 44 7.87369C41.5 6.37369 36.9874 4.45494 33.5 3.87369C30.5 3.37369 30 3.87369 30 3.87369C30 2.87369 31.5 1.87369 34 1.87369Z" fill="black" fill-opacity="0.2"/>
<path d="M35.1743 32.8737C35.1743 31.8391 35.4719 29.6405 35.7593 28.7784H26.9836C26.8399 30.0716 27.3285 32.769 26.9836 33.4587C26.6387 34.1485 23.8622 34.23 23 34.3737L23.5685 38.7242C23.4248 40.4485 22.9832 43.404 23.5685 44.5746C23.9996 45.4368 23.9996 50.3333 23.5685 52.0576C23.2236 53.4371 22.8883 53.3503 22.3032 54.5204C22.8883 56.2756 23.4733 56.8606 25.2285 58.6158C29.9088 56.2756 32.2036 55.6905 36.2989 54.5204L35.7593 52.0576C35.903 50.6207 36.3444 46.9148 38.0995 44.5746C39.8546 42.2344 41.0247 35.2139 41.0247 35.2139C39.7315 34.7828 35.1743 34.167 35.1743 32.8737Z" fill="#CE4317"/>
<path d="M35.1743 32.8737C35.1743 31.8391 35.4719 29.6405 35.7593 28.7784H26.9836C26.8399 30.0716 27.3285 32.769 26.9836 33.4587C26.6387 34.1485 23.8622 34.23 23 34.3737L23.5685 38.7242C23.4248 40.4485 22.9832 43.404 23.5685 44.5746C23.9996 45.4368 23.9996 50.3333 23.5685 52.0576C23.2236 53.4371 22.8883 53.3503 22.3032 54.5204C22.8883 56.2756 23.4733 56.8606 25.2285 58.6158C29.9088 56.2756 32.2036 55.6905 36.2989 54.5204L35.7593 52.0576C35.903 50.6207 36.3444 46.9148 38.0995 44.5746C39.8546 42.2344 41.0247 35.2139 41.0247 35.2139C39.7315 34.7828 35.1743 34.167 35.1743 32.8737Z" fill="white" fill-opacity="0.8"/>
<path d="M20.346 21.7721C19.9927 19.6152 18.7768 17.0811 20.346 12.9418C22.0082 9.14952 25.1192 6.55415 31.5145 6.50919C40.3054 6.44739 41.0086 9.75195 42 15C42.867 19.5893 40.1607 26.9947 39 28.5C37.6145 30.297 32.3186 33.0448 29 32.8737C27.1232 32.7769 22.2185 29.8988 21.5677 27.47C20.9169 25.0412 20.6365 23.545 20.346 21.7721Z" fill="#CE4317"/>
<path d="M20.346 21.7721C19.9927 19.6152 18.7768 17.0811 20.346 12.9418C22.0082 9.14952 25.1192 6.55415 31.5145 6.50919C40.3054 6.44739 41.0086 9.75195 42 15C42.867 19.5893 40.1607 26.9947 39 28.5C37.6145 30.297 32.3186 33.0448 29 32.8737C27.1232 32.7769 22.2185 29.8988 21.5677 27.47C20.9169 25.0412 20.6365 23.545 20.346 21.7721Z" fill="white" fill-opacity="0.6"/>
<path d="M20.3044 20.8896C19.9483 18.7529 18.7641 16.3052 20.2503 12.2202C21.8286 8.47912 24.8141 5.93257 30.988 5.93257C39.4746 5.93257 42.1025 9.63556 43.0961 14.8356C43.9651 19.3828 39.6101 27.0185 38.5 28.5C37.1748 30.2685 31.7051 32.0661 28.5 31.8737C26.6874 31.7649 22.3742 29.3515 21.729 26.9436C21.0838 24.5357 20.5971 22.646 20.3044 20.8896Z" fill="#CE4317"/>
<path d="M20.3044 20.8896C19.9483 18.7529 18.7641 16.3052 20.2503 12.2202C21.8286 8.47912 24.8141 5.93257 30.988 5.93257C39.4746 5.93257 42.1025 9.63556 43.0961 14.8356C43.9651 19.3828 39.6101 27.0185 38.5 28.5C37.1748 30.2685 31.7051 32.0661 28.5 31.8737C26.6874 31.7649 22.3742 29.3515 21.729 26.9436C21.0838 24.5357 20.5971 22.646 20.3044 20.8896Z" fill="white" fill-opacity="0.8"/>
<ellipse cx="23.1" cy="22.2902" rx="1.1" ry="2.4165" fill="#898989"/>
<ellipse cx="23.1" cy="22.2902" rx="1.1" ry="2.4165" fill="black" fill-opacity="0.6"/>
<ellipse cx="33.4499" cy="22.2902" rx="1.4499" ry="2.4165" fill="#898989"/>
<ellipse cx="33.4499" cy="22.2902" rx="1.4499" ry="2.4165" fill="black" fill-opacity="0.6"/>
<path d="M26.8913 9.30934C26.3097 10.6274 25.4347 12.0651 24.5 13.3737C22.5668 16.0802 19 15.8737 20.5 22.3737C17.9999 18.3737 18.411 15.4583 19 13.047C19.5825 10.6622 23.9665 6.89038 27.4665 5.79755C30.2052 5.63645 36.3592 5.60423 39.0657 6.76415C42.4488 8.21405 43.7435 14.6257 43.5 18C43.1011 23.527 40 26.5 38 28C39.5 25 41 21.5072 39.0657 18.8466C36.5165 15.3403 33.7494 16.4301 29.3997 13.047C27.8424 11.8358 27.1304 10.5148 26.8913 9.30934Z" fill="#D0333D"/>
<path d="M26.8913 9.30934C26.3097 10.6274 25.4347 12.0651 24.5 13.3737C22.5668 16.0802 19 15.8737 20.5 22.3737C17.9999 18.3737 18.411 15.4583 19 13.047C19.5825 10.6622 23.9665 6.89038 27.4665 5.79755C30.2052 5.63645 36.3592 5.60423 39.0657 6.76415C42.4488 8.21405 43.7435 14.6257 43.5 18C43.1011 23.527 40 26.5 38 28C39.5 25 41 21.5072 39.0657 18.8466C36.5165 15.3403 33.7494 16.4301 29.3997 13.047C27.8424 11.8358 27.1304 10.5148 26.8913 9.30934Z" fill="black" fill-opacity="0.2"/>
<path d="M29.3239 80.8476C29.3239 78.5074 31.6641 71.4868 34.0043 68.5616C36.3445 65.6363 40.6738 63.7642 43.9501 65.6363C48.0454 67.9765 49.2154 72.6569 45.7051 74.412C42.1948 76.1672 36.9295 79.6775 36.3445 82.0176C35.7594 84.3578 37.647 94.795 39.2697 97.2289C40.4399 98.984 27.5686 99.5691 28.7389 97.8139C30.3616 95.3802 29.3239 83.1877 29.3239 80.8476Z" fill="#D0333D"/>
<path d="M29.3239 80.8476C29.3239 78.5074 31.6641 71.4868 34.0043 68.5616C36.3445 65.6363 40.6738 63.7642 43.9501 65.6363C48.0454 67.9765 49.2154 72.6569 45.7051 74.412C42.1948 76.1672 36.9295 79.6775 36.3445 82.0176C35.7594 84.3578 37.647 94.795 39.2697 97.2289C40.4399 98.984 27.5686 99.5691 28.7389 97.8139C30.3616 95.3802 29.3239 83.1877 29.3239 80.8476Z" fill="black" fill-opacity="0.6"/>
<path d="M56.8212 77.9223C55.3795 76.0789 56.3113 65.8023 58.6515 62.8771C60.9917 59.9519 64.6606 57.9137 67.9369 59.7859C72.0322 62.126 71.957 65.4703 69.692 68.5616C67.3725 71.7274 65.0117 73.2419 64.4267 75.5821C63.8416 77.9223 73.2023 78.5074 74.3725 81.4326C75.3086 83.7728 68.0373 92.7493 69.692 96.0588C70.8621 98.399 61.5014 97.8139 60.9163 96.0588C59.6213 92.1736 66.8102 85.1702 67.3519 84.3578C68.9747 81.9241 58.6514 80.2625 56.8212 77.9223Z" fill="#D0333D"/>
<path d="M56.8212 77.9223C55.3795 76.0789 56.3113 65.8023 58.6515 62.8771C60.9917 59.9519 64.6606 57.9137 67.9369 59.7859C72.0322 62.126 71.957 65.4703 69.692 68.5616C67.3725 71.7274 65.0117 73.2419 64.4267 75.5821C63.8416 77.9223 73.2023 78.5074 74.3725 81.4326C75.3086 83.7728 68.0373 92.7493 69.692 96.0588C70.8621 98.399 61.5014 97.8139 60.9163 96.0588C59.6213 92.1736 66.8102 85.1702 67.3519 84.3578C68.9747 81.9241 58.6514 80.2625 56.8212 77.9223Z" fill="black" fill-opacity="0.6"/>
<path d="M26.353 55.552C28.4893 53.7363 29.2781 47.9464 28.693 45.6062C28.6932 47.9464 27.3192 53.1512 26.353 55.552Z" fill="#CE4317"/>
<path d="M26.353 55.552C28.4893 53.7363 29.2781 47.9464 28.693 45.6062C28.6932 47.9464 27.3192 53.1512 26.353 55.552Z" fill="white" fill-opacity="0.6"/>
<path d="M16.9539 28.3754L50.5 60.5" stroke="#FAA21E" stroke-width="0.806111" stroke-linecap="round"/>
<path d="M16.9539 28.3754L50.5 60.5" stroke="black" stroke-opacity="0.1" stroke-width="0.806111" stroke-linecap="round"/>
<path d="M41.7973 52.7937C43.1268 52.4613 42.8362 51.4417 43.5217 50.7639C43.5217 50.7639 49.5 44.3737 49.4338 43.5586C49.3675 42.7434 43.5217 35.2139 41.0246 35.2139C38.5274 35.2139 38.0994 39.3092 38.0994 39.3092L42.1946 40.8792C43.4404 42.3266 44.1203 42.9211 45.5539 43.5586C44.8354 44.8518 42.1422 48.6947 41.7973 49.0396C40.9547 49.265 39.2694 49.8208 39.2694 50.24C39.2694 50.6592 40.9547 52.1171 41.7973 52.7937Z" fill="#CE4317"/>
<path d="M41.7973 52.7937C43.1268 52.4613 42.8362 51.4417 43.5217 50.7639C43.5217 50.7639 49.5 44.3737 49.4338 43.5586C49.3675 42.7434 43.5217 35.2139 41.0246 35.2139C38.5274 35.2139 38.0994 39.3092 38.0994 39.3092L42.1946 40.8792C43.4404 42.3266 44.1203 42.9211 45.5539 43.5586C44.8354 44.8518 42.1422 48.6947 41.7973 49.0396C40.9547 49.265 39.2694 49.8208 39.2694 50.24C39.2694 50.6592 40.9547 52.1171 41.7973 52.7937Z" fill="white" fill-opacity="0.8"/>
</svg>
