<svg width="100" height="100" viewBox="0 0 100 100" fill="none" xmlns="http://www.w3.org/2000/svg">
<g clip-path="url(#clip0_3538_29796)">
<path d="M20.5001 8.99999C23.0001 5.49999 26.5 7.99999 27 9.49999C28.5 8.49999 29.5689 8.28445 31 8.99999C33 9.99999 33 12 33 13.5L20.5001 32L12.5 30.5C11.5 30 10.0001 29.0396 10.0001 27C10.0001 25.1402 11.1529 24.001 11.8506 23.9844C10.2257 23.8077 8.50008 23.3606 8.5 21C8.49992 18.5 10.6667 17.8333 11.5 18C10.8334 16.8333 9.99992 16 11 14C12.0001 12 13.6667 12.3333 15 12.5C14.3333 11.5 14.588 9.44135 16 8.49999C17.5 7.49999 19.5 7.99999 20.5001 8.99999Z" fill="#546DDB"/>
<path d="M20.5001 8.99999C23.0001 5.49999 26.5 7.99999 27 9.49999C28.5 8.49999 29.5689 8.28445 31 8.99999C33 9.99999 33 12 33 13.5L20.5001 32L12.5 30.5C11.5 30 10.0001 29.0396 10.0001 27C10.0001 25.1402 11.1529 24.001 11.8506 23.9844C10.2257 23.8077 8.50008 23.3606 8.5 21C8.49992 18.5 10.6667 17.8333 11.5 18C10.8334 16.8333 9.99992 16 11 14C12.0001 12 13.6667 12.3333 15 12.5C14.3333 11.5 14.588 9.44135 16 8.49999C17.5 7.49999 19.5 7.99999 20.5001 8.99999Z" fill="white" fill-opacity="0.6"/>
<path d="M80.0277 8.79154C77.5334 5.25981 74.0416 7.78247 73.5427 9.29607C72.0462 8.287 70.5 8.28701 69 9.29607C67.6053 10.2343 67 11.5 67.5 13L80.0277 32L88.0092 30.4864C89.0069 29.9819 90.5034 29.0128 90.5034 26.9547C90.5034 25.078 89.3532 23.9285 88.6571 23.9118C90.2783 23.7334 91.9999 23.2823 92 20.9003C92.0001 18.3776 89.8383 17.7049 89.0069 17.8731C89.672 16.6959 90.5035 15.855 89.5058 13.8369C88.508 11.8187 86.8453 12.1551 85.515 12.3233C86.1801 11.3142 85.9261 9.2369 84.5173 8.28701C83.0208 7.27794 81.0254 7.78247 80.0277 8.79154Z" fill="#546DDB"/>
<path d="M80.0277 8.79154C77.5334 5.25981 74.0416 7.78247 73.5427 9.29607C72.0462 8.287 70.5 8.28701 69 9.29607C67.6053 10.2343 67 11.5 67.5 13L80.0277 32L88.0092 30.4864C89.0069 29.9819 90.5034 29.0128 90.5034 26.9547C90.5034 25.078 89.3532 23.9285 88.6571 23.9118C90.2783 23.7334 91.9999 23.2823 92 20.9003C92.0001 18.3776 89.8383 17.7049 89.0069 17.8731C89.672 16.6959 90.5035 15.855 89.5058 13.8369C88.508 11.8187 86.8453 12.1551 85.515 12.3233C86.1801 11.3142 85.9261 9.2369 84.5173 8.28701C83.0208 7.27794 81.0254 7.78247 80.0277 8.79154Z" fill="white" fill-opacity="0.6"/>
<path d="M9.23168 70.5195C11.7873 66.9417 14.0627 64.8188 15.8763 63.8749C17.6898 62.9311 17.9207 71.0306 16.3873 74.6085C14.8283 77.1485 12.2984 79.7197 12.8095 82.7864C13.3206 85.8531 20.0186 90.7227 20.0186 90.7227L15.7393 94.6786C13.8886 93.3369 8.45186 89.5329 6.16503 83.8086C4.26882 79.0622 6.67609 74.0974 9.23168 70.5195Z" fill="#546DDB"/>
<path d="M9.23168 70.5195C11.7873 66.9417 14.0627 64.8188 15.8763 63.8749C17.6898 62.9311 17.9207 71.0306 16.3873 74.6085C14.8283 77.1485 12.2984 79.7197 12.8095 82.7864C13.3206 85.8531 20.0186 90.7227 20.0186 90.7227L15.7393 94.6786C13.8886 93.3369 8.45186 89.5329 6.16503 83.8086C4.26882 79.0622 6.67609 74.0974 9.23168 70.5195Z" fill="black" fill-opacity="0.2"/>
<path d="M24.8441 92.2446C23.7411 91.8968 20.8528 90.4806 20.0185 90.7227L14.8138 94.0078C15.0559 94.8421 16.5091 97.0436 17.6269 98.3057C18.7447 99.5678 19.6225 99.1877 21.0737 99.3928L25.3716 96.5797C24.9783 95.824 25.947 92.5925 24.8441 92.2446Z" fill="#546DDB"/>
<path d="M24.8441 92.2446C23.7411 91.8968 20.8528 90.4806 20.0185 90.7227L14.8138 94.0078C15.0559 94.8421 16.5091 97.0436 17.6269 98.3057C18.7447 99.5678 19.6225 99.1877 21.0737 99.3928L25.3716 96.5797C24.9783 95.824 25.947 92.5925 24.8441 92.2446Z" fill="black" fill-opacity="0.2"/>
<path d="M18.8333 38.0061C17.7 48.8045 14.4722 91.6684 14 100.001H86.5C85.713 91.5018 81.7556 47.3991 81 37.0005C80.0556 24.0024 69.3611 6.51055 49.5278 7.01048C29.6944 7.51041 20.25 24.508 18.8333 38.0061Z" fill="#546DDB"/>
<path d="M18.8333 38.0061C17.7 48.8045 14.4722 91.6684 14 100.001H86.5C85.713 91.5018 81.7556 47.3991 81 37.0005C80.0556 24.0024 69.3611 6.51055 49.5278 7.01048C29.6944 7.51041 20.25 24.508 18.8333 38.0061Z" fill="white" fill-opacity="0.2"/>
<path d="M0.0557715 28.363C0.524875 26.9063 13.5425 30.1839 19.9927 32.0048L18.82 49C17.6472 48.5954 13.7524 47.5912 9.43784 44.1442C2.99889 39 -0.530608 30.1839 0.0557715 28.363Z" fill="#546DDB"/>
<path d="M0.0557715 28.363C0.524875 26.9063 13.5425 30.1839 19.9927 32.0048L18.82 49C17.6472 48.5954 13.7524 47.5912 9.43784 44.1442C2.99889 39 -0.530608 30.1839 0.0557715 28.363Z" fill="white" fill-opacity="0.2"/>
<path d="M99.9369 28.363C99.4678 26.9063 86.4502 30.1839 80 32.0048L81.1726 49C82.3454 48.5954 86.2403 47.5912 90.5548 44.1442C96.9938 39 100.523 30.1839 99.9369 28.363Z" fill="#546DDB"/>
<path d="M99.9369 28.363C99.4678 26.9063 86.4502 30.1839 80 32.0048L81.1726 49C82.3454 48.5954 86.2403 47.5912 90.5548 44.1442C96.9938 39 100.523 30.1839 99.9369 28.363Z" fill="white" fill-opacity="0.2"/>
<path d="M36.1074 53.9773C37.7997 52.9825 41.671 51.1426 41.4621 55.6225C41.3462 56.3442 40.6507 57.4937 38.7963 56.3181C36.4782 54.8486 37.3179 57.9775 35.4117 58.3077C33.8354 58.5807 33.894 56.3267 32.236 55.8173C30.2888 55.2191 31.4284 57.6473 28.4806 56.9356C25.3195 56.1724 22.843 50.871 22.709 48.3463C24.0388 50.8136 27.3484 54.8382 28.3416 54.6208C29.3354 54.4034 29.779 52.0331 31.8422 51.9096C33.9053 51.7861 34.4151 54.9721 36.1074 53.9773Z" fill="#546DDB"/>
<path d="M36.1074 53.9773C37.7997 52.9825 41.671 51.1426 41.4621 55.6225C41.3462 56.3442 40.6507 57.4937 38.7963 56.3181C36.4782 54.8486 37.3179 57.9775 35.4117 58.3077C33.8354 58.5807 33.894 56.3267 32.236 55.8173C30.2888 55.2191 31.4284 57.6473 28.4806 56.9356C25.3195 56.1724 22.843 50.871 22.709 48.3463C24.0388 50.8136 27.3484 54.8382 28.3416 54.6208C29.3354 54.4034 29.779 52.0331 31.8422 51.9096C33.9053 51.7861 34.4151 54.9721 36.1074 53.9773Z" fill="white" fill-opacity="0.6"/>
<path d="M65 54.0515C63.1094 53.9811 60.0448 51.5822 60.4396 56.0256C60.5795 56.7353 61.2761 57.8277 62.9431 56.5194C64.2008 55.5324 64.6971 58.0932 66.1712 58.2476C67.6453 58.402 67.8196 56.0256 69.0045 55.5324C70.7834 54.792 70.7982 56.9535 73.5 56.0256C76.3973 55.0305 77.4933 49.9097 77.5043 47.3868C76.3818 49.9416 73.9603 53.5 73 53.5C71.5 53.5 71.1132 51.5829 69.1943 51.6136C67.2755 51.6444 66.6684 54.1137 65 54.0515Z" fill="#546DDB"/>
<path d="M65 54.0515C63.1094 53.9811 60.0448 51.5822 60.4396 56.0256C60.5795 56.7353 61.2761 57.8277 62.9431 56.5194C64.2008 55.5324 64.6971 58.0932 66.1712 58.2476C67.6453 58.402 67.8196 56.0256 69.0045 55.5324C70.7834 54.792 70.7982 56.9535 73.5 56.0256C76.3973 55.0305 77.4933 49.9097 77.5043 47.3868C76.3818 49.9416 73.9603 53.5 73 53.5C71.5 53.5 71.1132 51.5829 69.1943 51.6136C67.2755 51.6444 66.6684 54.1137 65 54.0515Z" fill="white" fill-opacity="0.6"/>
<circle cx="31.4998" cy="43.5" r="4.5" fill="#CE4317"/>
<circle cx="68.4998" cy="43.5" r="4.5" fill="#CE4317"/>
<path d="M33 59.5C36.3333 59 44.5 58 50.5 58C56.5 58 64 59 67 59.5" stroke="#546DDB" stroke-linecap="round"/>
<path d="M33 59.5C36.3333 59 44.5 58 50.5 58C56.5 58 64 59 67 59.5" stroke="black" stroke-opacity="0.2" stroke-linecap="round"/>
<path d="M38.9998 55.5C38.9998 52.3444 41.7088 48.4609 43.707 47H56.4164C56.4164 47 60.9998 51 60.9998 55.5C60.9998 60 57.4817 62.9328 50.2971 62.9328C43.1124 62.9328 38.9998 58.0264 38.9998 55.5Z" fill="#546DDB"/>
<path d="M38.9998 55.5C38.9998 52.3444 41.7088 48.4609 43.707 47H56.4164C56.4164 47 60.9998 51 60.9998 55.5C60.9998 60 57.4817 62.9328 50.2971 62.9328C43.1124 62.9328 38.9998 58.0264 38.9998 55.5Z" fill="white" fill-opacity="0.2"/>
<path d="M33.928 36.7788C29.4969 36.0704 27.4147 37.6623 26.0138 39.6118C27.2622 39.3029 28.6158 38.7509 30.9631 39.7665C33.5452 40.8838 33.5726 41.4645 34.7737 42.553C35.9747 43.6416 37.6957 43.5286 38.525 41.6121C39.4579 39.4559 37.0558 37.2788 33.928 36.7788Z" fill="#546DDB"/>
<path d="M33.928 36.7788C29.4969 36.0704 27.4147 37.6623 26.0138 39.6118C27.2622 39.3029 28.6158 38.7509 30.9631 39.7665C33.5452 40.8838 33.5726 41.4645 34.7737 42.553C35.9747 43.6416 37.6957 43.5286 38.525 41.6121C39.4579 39.4559 37.0558 37.2788 33.928 36.7788Z" fill="black" fill-opacity="0.2"/>
<path d="M65.7429 37.0262C70.1135 36.5895 72.0808 38.3004 73.3647 40.3259C72.1562 39.9428 70.8557 39.3112 68.5115 40.18C65.9329 41.1357 65.8799 41.7122 64.6549 42.723C63.4298 43.7338 61.7498 43.5171 61.024 41.559C60.2076 39.356 62.6577 37.3344 65.7429 37.0262Z" fill="#546DDB"/>
<path d="M65.7429 37.0262C70.1135 36.5895 72.0808 38.3004 73.3647 40.3259C72.1562 39.9428 70.8557 39.3112 68.5115 40.18C65.9329 41.1357 65.8799 41.7122 64.6549 42.723C63.4298 43.7338 61.7498 43.5171 61.024 41.559C60.2076 39.356 62.6577 37.3344 65.7429 37.0262Z" fill="black" fill-opacity="0.2"/>
<path d="M41.9996 57.5C40.2226 55.4199 41.9998 51.5 43.7805 50C42.9998 53 43.3449 55.9042 44.9998 57.5C46.6546 59.0958 48.6936 59.9117 52.9998 60.3418C47.6692 61.7103 43.7766 59.5801 41.9996 57.5Z" fill="#FEFEFE" fill-opacity="0.15"/>
<path d="M12.5 40.5C15.6514 41.7605 16.5 44 17.5 47C12 45 9.31379 42.603 7 40C4.68621 37.397 2 32 1.5 29.5C2.5 31 5 37.5 12.5 40.5Z" fill="#546DDB"/>
<path d="M12.5 40.5C15.6514 41.7605 16.5 44 17.5 47C12 45 9.31379 42.603 7 40C4.68621 37.397 2 32 1.5 29.5C2.5 31 5 37.5 12.5 40.5Z" fill="black" fill-opacity="0.2"/>
<path d="M87 41C83.8486 42.2605 83 44.5 82 47.5C87.5 45.5 90.1862 43.103 92.5 40.5C94.8138 37.897 98 32.5 98.5 30C97.5 31.5 94.5 38 87 41Z" fill="#546DDB"/>
<path d="M87 41C83.8486 42.2605 83 44.5 82 47.5C87.5 45.5 90.1862 43.103 92.5 40.5C94.8138 37.897 98 32.5 98.5 30C97.5 31.5 94.5 38 87 41Z" fill="black" fill-opacity="0.2"/>
<path d="M43.5833 47C41.6378 48.4728 39 51.8416 39 55.0228C39 58.9994 43.2392 63 50 63C57.0995 63 61 59.3247 61 55.0228C61 50.7209 55.9583 47 55.9583 47" stroke="#546DDB" stroke-width="0.732747" stroke-linecap="round" stroke-linejoin="round"/>
<path d="M43.5833 47C41.6378 48.4728 39 51.8416 39 55.0228C39 58.9994 43.2392 63 50 63C57.0995 63 61 59.3247 61 55.0228C61 50.7209 55.9583 47 55.9583 47" stroke="black" stroke-opacity="0.2" stroke-width="0.732747" stroke-linecap="round" stroke-linejoin="round"/>
<path d="M28.6539 23.3019C36.7723 15.9199 43.287 12.9792 53.3462 10.6336C48.7073 10.392 44.0684 10.1504 38.4953 12.9611C33.7382 15.3603 29.5881 20.2496 28.6539 23.3019Z" fill="#FEFEFE" fill-opacity="0.15"/>
<path d="M17 64.5L12.5 68M18.5 66.5L15 70.5M20.5 68L15 74M22 70L17 74M23.5 71L19 76.3125M24.5 72.5L19 79.5M26 73.5L22 80M27.5 74.5L23.5 83M29 76L26 82M30.5 77L26.5 85.5M32 78.5L29 85.5M34 79.5L31 86.5M35.5 81L33 86M37 82L33 89.5M38 83L35.5 91M39.5 84L37.5 90M41 85.5L39 92M42.5 86.5L40.5 91.5M44 87L41.5 94M45.5 88L43.5 94.5M47 89L45.5 96M48.5 90L47.5 98M50 91V98.5M51 90L52.5 97M52.5 89.5L54.5 94.5M54 88.5L57 96M56 87.5L58 94.5M57.5 86.5L61 93M59.1875 85.5L61.5 91M61 84.5L64.5 92.5M63 83.5L65.5 91M64.5 82L67.5 88.5M66 81L69 88M67.5 79.5L71 88.5M69 79L73 86M70.5 77.5L75.5 84M72 76L76.5 83M73.5 74.5L77 79.5M75 73.5L80 80M76.5 72L82.5 79M77.5 70.5L82.5 76.3125M79 69L83 74M80.5 67.5L86 72M82 66L86.5 69" stroke="#CE4317" stroke-linecap="round"/>
<path d="M17 64.5L12.5 68M18.5 66.5L15 70.5M20.5 68L15 74M22 70L17 74M23.5 71L19 76.3125M24.5 72.5L19 79.5M26 73.5L22 80M27.5 74.5L23.5 83M29 76L26 82M30.5 77L26.5 85.5M32 78.5L29 85.5M34 79.5L31 86.5M35.5 81L33 86M37 82L33 89.5M38 83L35.5 91M39.5 84L37.5 90M41 85.5L39 92M42.5 86.5L40.5 91.5M44 87L41.5 94M45.5 88L43.5 94.5M47 89L45.5 96M48.5 90L47.5 98M50 91V98.5M51 90L52.5 97M52.5 89.5L54.5 94.5M54 88.5L57 96M56 87.5L58 94.5M57.5 86.5L61 93M59.1875 85.5L61.5 91M61 84.5L64.5 92.5M63 83.5L65.5 91M64.5 82L67.5 88.5M66 81L69 88M67.5 79.5L71 88.5M69 79L73 86M70.5 77.5L75.5 84M72 76L76.5 83M73.5 74.5L77 79.5M75 73.5L80 80M76.5 72L82.5 79M77.5 70.5L82.5 76.3125M79 69L83 74M80.5 67.5L86 72M82 66L86.5 69" stroke="black" stroke-opacity="0.3" stroke-linecap="round"/>
<path d="M50 71.5C39.6 71.9 22.5 65.1667 16.5 61.5L15 64.5C25.7289 75.6544 33.8285 81.9875 50 91.5C66.7489 82.643 73.8804 76.2673 85 64.5L83 62C75.3333 65.3333 60.4 71.1 50 71.5Z" fill="#CE4317"/>
<path d="M50 71.5C39.6 71.9 22.5 65.1667 16.5 61.5L15 64.5C25.7289 75.6544 33.8285 81.9875 50 91.5C66.7489 82.643 73.8804 76.2673 85 64.5L83 62C75.3333 65.3333 60.4 71.1 50 71.5Z" fill="black" fill-opacity="0.3"/>
<path d="M83.7954 100.935C85.0913 101.834 86.8705 101.512 87.7693 100.216C88.6681 98.9205 88.3462 97.1413 87.0503 96.2425L83.7954 100.935ZM87.0503 96.2425L74.8486 87.7797L71.5937 92.4726L83.7954 100.935L87.0503 96.2425Z" fill="#FAA21E"/>
<path d="M83.7954 100.935C85.0913 101.834 86.8705 101.512 87.7693 100.216C88.6681 98.9205 88.3462 97.1413 87.0503 96.2425L83.7954 100.935ZM87.0503 96.2425L74.8486 87.7797L71.5937 92.4726L83.7954 100.935L87.0503 96.2425Z" fill="black" fill-opacity="0.4"/>
<path d="M73.6149 81.7393L73.671 86.9961L70.4471 91.6443L65.4777 93.4717L64.9858 87.9176L59.6115 89.403L59.7062 84.2559L55.3254 85.5615L55.4201 80.4144L51.0393 81.72L50.7271 77.1595L46.7532 77.8785L46.4411 73.3179L42.4671 74.037L41.7481 70.063L38.7677 70.6023L38.2284 67.6219L35.6548 67.5745L30.8294 60.7525L38.9097 62.8816L39.8558 65.2754L42.8363 64.7361L43.3755 67.7166L47.3495 66.9975L48.0685 70.9715L52.4493 69.6658L53.1683 73.6397L57.5491 72.3341L57.8613 76.8946L62.6489 75.0024L62.9611 79.5629L67.7488 77.6707L68.2407 83.2247L73.6149 81.7393Z" fill="#546DDB"/>
<path d="M73.6149 81.7393L73.671 86.9961L70.4471 91.6443L65.4777 93.4717L64.9858 87.9176L59.6115 89.403L59.7062 84.2559L55.3254 85.5615L55.4201 80.4144L51.0393 81.72L50.7271 77.1595L46.7532 77.8785L46.4411 73.3179L42.4671 74.037L41.7481 70.063L38.7677 70.6023L38.2284 67.6219L35.6548 67.5745L30.8294 60.7525L38.9097 62.8816L39.8558 65.2754L42.8363 64.7361L43.3755 67.7166L47.3495 66.9975L48.0685 70.9715L52.4493 69.6658L53.1683 73.6397L57.5491 72.3341L57.8613 76.8946L62.6489 75.0024L62.9611 79.5629L67.7488 77.6707L68.2407 83.2247L73.6149 81.7393Z" fill="white" fill-opacity="0.6"/>
<path d="M71.1736 85.259L72.8651 88.1581L71.2532 90.4823L67.9187 89.952L65.9621 86.5098L62.0525 85.8834L60.6825 82.848L57.5223 82.3938L56.1523 79.3585L52.9921 78.9043L51.4594 76.1036L48.4619 75.4147L46.9291 72.614L43.9317 71.9252L42.2362 69.3591L39.9881 68.8425L38.7165 66.9179L36.6311 66.1666L30.8057 60.708L37.9331 64.2895L39.3675 65.9793L41.6155 66.496L42.8872 68.4205L45.8846 69.1094L47.5801 71.6754L50.7403 72.1296L52.4358 74.6957L55.596 75.1499L57.1288 77.9506L60.4517 78.1701L61.9845 80.9708L65.3074 81.1904L67.2641 84.6326L71.1736 85.259Z" fill="#546DDB"/>
<path d="M71.1736 85.259L72.8651 88.1581L71.2532 90.4823L67.9187 89.952L65.9621 86.5098L62.0525 85.8834L60.6825 82.848L57.5223 82.3938L56.1523 79.3585L52.9921 78.9043L51.4594 76.1036L48.4619 75.4147L46.9291 72.614L43.9317 71.9252L42.2362 69.3591L39.9881 68.8425L38.7165 66.9179L36.6311 66.1666L30.8057 60.708L37.9331 64.2895L39.3675 65.9793L41.6155 66.496L42.8872 68.4205L45.8846 69.1094L47.5801 71.6754L50.7403 72.1296L52.4358 74.6957L55.596 75.1499L57.1288 77.9506L60.4517 78.1701L61.9845 80.9708L65.3074 81.1904L67.2641 84.6326L71.1736 85.259Z" fill="black" fill-opacity="0.2"/>
<path d="M80.072 80.2486L67.0524 99.0204" stroke="#C57A09" stroke-width="2.85562" stroke-linecap="round"/>
<path d="M90.7683 70.5195C88.2127 66.9417 85.9373 64.8188 84.1237 63.8749C82.3102 62.9311 82.0793 71.0306 83.6127 74.6085C85.1717 77.1485 87.7016 79.7197 87.1905 82.7864C86.6794 85.8531 79.9814 90.7227 79.9814 90.7227L84.2607 94.6786C86.1114 93.3369 91.5481 89.5329 93.835 83.8086C95.7312 79.0622 93.3239 74.0974 90.7683 70.5195Z" fill="#546DDB"/>
<path d="M90.7683 70.5195C88.2127 66.9417 85.9373 64.8188 84.1237 63.8749C82.3102 62.9311 82.0793 71.0306 83.6127 74.6085C85.1717 77.1485 87.7016 79.7197 87.1905 82.7864C86.6794 85.8531 79.9814 90.7227 79.9814 90.7227L84.2607 94.6786C86.1114 93.3369 91.5481 89.5329 93.835 83.8086C95.7312 79.0622 93.3239 74.0974 90.7683 70.5195Z" fill="black" fill-opacity="0.2"/>
<path d="M75.1559 92.2446C76.2589 91.8968 79.1472 90.4806 79.9815 90.7227L85.1862 94.0078C84.9441 94.8421 83.4909 97.0436 82.3731 98.3057C81.2553 99.5678 80.3775 99.1877 78.9263 99.3928L74.6284 96.5797C75.0217 95.824 74.053 92.5925 75.1559 92.2446Z" fill="#546DDB"/>
<path d="M75.1559 92.2446C76.2589 91.8968 79.1472 90.4806 79.9815 90.7227L85.1862 94.0078C84.9441 94.8421 83.4909 97.0436 82.3731 98.3057C81.2553 99.5678 80.3775 99.1877 78.9263 99.3928L74.6284 96.5797C75.0217 95.824 74.053 92.5925 75.1559 92.2446Z" fill="black" fill-opacity="0.2"/>
</g>
<defs>
<clipPath id="clip0_3538_29796">
<rect width="100" height="100" fill="white"/>
</clipPath>
</defs>
</svg>
