<svg width="100" height="102" viewBox="0 0 100 102" fill="none" xmlns="http://www.w3.org/2000/svg">
<path d="M16.5001 53.5C17.0001 53 18.5001 54.5 20.0001 55.5V59C18.5001 59 16.1002 59.7 14.5002 58.5C12.5002 57 11.5002 55 12.5002 55C13.5 55 14 56 15.0002 56C16 56 16.5 56 17.0001 55.5C16.6668 55 16.1001 53.9 16.5001 53.5Z" fill="#FAA21E"/>
<path d="M16.5001 53.5C17.0001 53 18.5001 54.5 20.0001 55.5V59C18.5001 59 16.1002 59.7 14.5002 58.5C12.5002 57 11.5002 55 12.5002 55C13.5 55 14 56 15.0002 56C16 56 16.5 56 17.0001 55.5C16.6668 55 16.1001 53.9 16.5001 53.5Z" fill="white" fill-opacity="0.6"/>
<path d="M43.0977 56.894C43.8294 54.3421 47.2748 52.5635 44.9202 49.679L41.9202 50.679C38.909 51.5773 35.1594 52.6653 31.9202 53.179C28.681 53.6928 22.5782 54.1334 18.4202 54.179C18.3678 63.2764 18.985 69.6263 21.11 82.9573C33.6397 77.5597 42.5124 58.9355 43.0977 56.894Z" fill="#1D8CE0"/>
<path d="M43.0977 56.894C43.8294 54.3421 47.2748 52.5635 44.9202 49.679L41.9202 50.679C38.909 51.5773 35.1594 52.6653 31.9202 53.179C28.681 53.6928 22.5782 54.1334 18.4202 54.179C18.3678 63.2764 18.985 69.6263 21.11 82.9573C33.6397 77.5597 42.5124 58.9355 43.0977 56.894Z" fill="black" fill-opacity="0.4"/>
<path d="M35.197 95.9359C37.0417 81.5472 41.2846 52.2163 43.4982 50.0026C47.9255 48.4617 58.9938 48.3424 63.4211 50.0026C65.192 52.659 71.9951 82.2957 75.5 96.5C71.0727 98.2796 66.1881 101.036 53.4596 101.036C45.1585 101.036 37.9641 97.7155 35.197 95.9359Z" fill="#1D8CE0"/>
<path d="M35.197 95.9359C37.0417 81.5472 41.2846 52.2163 43.4982 50.0026C47.9255 48.4617 58.9938 48.3424 63.4211 50.0026C65.192 52.659 71.9951 82.2957 75.5 96.5C71.0727 98.2796 66.1881 101.036 53.4596 101.036C45.1585 101.036 37.9641 97.7155 35.197 95.9359Z" fill="black" fill-opacity="0.2"/>
<path d="M58.0952 74.6074C58.0766 73.9005 60.1972 73.8448 61.9551 73.445L64.4941 75.854C63.4616 76.9421 62.3176 79.1649 60.3458 79.4996C57.8811 79.918 55.7419 79.2668 56.4302 78.5414C57.1184 77.8161 58.1879 78.1417 58.8764 77.4161C59.5645 76.6909 59.9087 76.3282 59.8902 75.6212C59.298 75.5189 58.11 75.1728 58.0952 74.6074Z" fill="#FAA21E"/>
<path d="M58.0952 74.6074C58.0766 73.9005 60.1972 73.8448 61.9551 73.445L64.4941 75.854C63.4616 76.9421 62.3176 79.1649 60.3458 79.4996C57.8811 79.918 55.7419 79.2668 56.4302 78.5414C57.1184 77.8161 58.1879 78.1417 58.8764 77.4161C59.5645 76.6909 59.9087 76.3282 59.8902 75.6212C59.298 75.5189 58.11 75.1728 58.0952 74.6074Z" fill="white" fill-opacity="0.6"/>
<path d="M57.5 49H48.5L50.5 57.5L57.5 49Z" fill="#1D8CE0"/>
<path d="M57.5 49H48.5L50.5 57.5L57.5 49Z" fill="white" fill-opacity="0.6"/>
<path d="M48 49.5C48.508 52.571 49.0613 54.3231 50.5 57.5M57.5 49.5C51.2552 57.4035 47.8964 61.1115 40.5 66.5C50.9075 69.2086 56.4269 69.1273 67.5 66.5" stroke="#1D8CE0" stroke-width="2" stroke-linecap="round" stroke-linejoin="round"/>
<path d="M48 49.5C48.508 52.571 49.0613 54.3231 50.5 57.5M57.5 49.5C51.2552 57.4035 47.8964 61.1115 40.5 66.5C50.9075 69.2086 56.4269 69.1273 67.5 66.5" stroke="black" stroke-opacity="0.4" stroke-width="2" stroke-linecap="round" stroke-linejoin="round"/>
<path d="M35.5 47C37 47 38.5 45.5 37.5 43C35.9 38.6 36.1667 30.5 36.5 27L40.5 26.5C39.5 29.5 43.4999 42.5 42.9999 46C42.4999 49.5 41 51 37.5 51C34.7 51 33.1666 46.8333 33.4999 45C33.4999 45.6667 34.3 47 35.5 47Z" fill="#FAA21E"/>
<path d="M35.5 47C37 47 38.5 45.5 37.5 43C35.9 38.6 36.1667 30.5 36.5 27L40.5 26.5C39.5 29.5 43.4999 42.5 42.9999 46C42.4999 49.5 41 51 37.5 51C34.7 51 33.1666 46.8333 33.4999 45C33.4999 45.6667 34.3 47 35.5 47Z" fill="black" fill-opacity="0.6"/>
<path d="M69.4324 34.5761C69.4324 42.8284 61.6846 50.6251 50.6164 49.5182C41.2084 48.5774 37.3345 42.8284 37.3345 34.5761C37.3345 26.3238 44.5198 19.6339 53.3834 19.6339C62.2471 19.6339 69.4324 26.3238 69.4324 34.5761Z" fill="#FAA21E"/>
<path d="M69.4324 34.5761C69.4324 42.8284 61.6846 50.6251 50.6164 49.5182C41.2084 48.5774 37.3345 42.8284 37.3345 34.5761C37.3345 26.3238 44.5198 19.6339 53.3834 19.6339C62.2471 19.6339 69.4324 26.3238 69.4324 34.5761Z" fill="white" fill-opacity="0.6"/>
<ellipse cx="69.3336" cy="39.0931" rx="3.04408" ry="2.76706" transform="rotate(3.81754 69.3336 39.0931)" fill="#FAA21E"/>
<ellipse cx="69.3336" cy="39.0931" rx="3.04408" ry="2.76706" transform="rotate(3.81754 69.3336 39.0931)" fill="white" fill-opacity="0.6"/>
<path d="M75 45.5C73 49 69.6795 47.4524 70.2001 45.5C72.6001 36.5 73.7999 29.5 70 22L63 29.5C67.2002 33 64.2003 42.4505 64.2003 45C64.2003 48 65.5 52 69.6 52C72.5 52 74 50.5 75 45.5Z" fill="#FAA21E"/>
<path d="M75 45.5C73 49 69.6795 47.4524 70.2001 45.5C72.6001 36.5 73.7999 29.5 70 22L63 29.5C67.2002 33 64.2003 42.4505 64.2003 45C64.2003 48 65.5 52 69.6 52C72.5 52 74 50.5 75 45.5Z" fill="black" fill-opacity="0.6"/>
<ellipse cx="57.2574" cy="37.3432" rx="2.21365" ry="3.32048" fill="#898989"/>
<ellipse cx="41.2083" cy="36.2363" rx="1.66024" ry="3.32048" fill="#898989"/>
<path d="M41.0282 31.0969C38.6694 30.836 37.7029 32.2564 37.3312 33.0737C37.9083 32.9367 38.6858 31.9521 40.0457 32.3554C41.5415 32.799 41.6553 33.0392 42.449 33.481C43.2427 33.9229 44.092 33.8635 44.1808 33.0641C44.2807 32.1647 42.6933 31.281 41.0282 31.0969Z" fill="#FAA21E"/>
<path d="M41.0282 31.0969C38.6694 30.836 37.7029 32.2564 37.3312 33.0737C37.9083 32.9367 38.6858 31.9521 40.0457 32.3554C41.5415 32.799 41.6553 33.0392 42.449 33.481C43.2427 33.9229 44.092 33.8635 44.1808 33.0641C44.2807 32.1647 42.6933 31.281 41.0282 31.0969Z" fill="black" fill-opacity="0.6"/>
<path d="M58.403 31.5972C61.1646 31.7681 62.0426 33.675 62.3065 34.6879C61.671 34.4154 60.923 33.0468 59.2806 33.2388C57.4738 33.45 57.2952 33.7032 56.2954 34.0524C55.2955 34.4016 54.3317 34.164 54.3892 33.228C54.4539 32.1749 56.4536 31.4765 58.403 31.5972Z" fill="#FAA21E"/>
<path d="M58.403 31.5972C61.1646 31.7681 62.0426 33.675 62.3065 34.6879C61.671 34.4154 60.923 33.0468 59.2806 33.2388C57.4738 33.45 57.2952 33.7032 56.2954 34.0524C55.2955 34.4016 54.3317 34.164 54.3892 33.228C54.4539 32.1749 56.4536 31.4765 58.403 31.5972Z" fill="black" fill-opacity="0.6"/>
<path d="M76 64.5C74.8932 60.6261 66.3125 50 63.5061 50C62.5 52 62.5 55 63.5061 57.5C65.0061 60 68.4427 64.1718 68 65.5C67.5573 66.8282 63.7671 72.0641 61 72.6175C61.775 79.7631 63.6493 84.6143 67.641 93.6472C72.7401 87.9644 76.9025 67.6589 76 64.5Z" fill="#1D8CE0"/>
<path d="M76 64.5C74.8932 60.6261 66.3125 50 63.5061 50C62.5 52 62.5 55 63.5061 57.5C65.0061 60 68.4427 64.1718 68 65.5C67.5573 66.8282 63.7671 72.0641 61 72.6175C61.775 79.7631 63.6493 84.6143 67.641 93.6472C72.7401 87.9644 76.9025 67.6589 76 64.5Z" fill="black" fill-opacity="0.4"/>
<circle cx="14.5" cy="30.5" r="6.9" transform="rotate(45 14.5 30.5)" stroke="#1D8CE0" stroke-width="1.2"/>
<circle cx="14.5" cy="30.5" r="6.9" transform="rotate(45 14.5 30.5)" stroke="white" stroke-opacity="0.4" stroke-width="1.2"/>
<path d="M19.3791 35.379C18.8941 35.864 17.9367 36.0131 16.5648 35.5558C15.2309 35.1112 13.6855 34.1403 12.2727 32.7274C10.8598 31.3145 9.88886 29.7691 9.44425 28.4353C8.98695 27.0634 9.13604 26.1059 9.621 25.621C10.106 25.136 11.0634 24.9869 12.4353 25.4442C13.7691 25.8888 15.3145 26.8597 16.7274 28.2726C18.1403 29.6855 19.1112 31.2309 19.5558 32.5647C20.0131 33.9367 19.864 34.8941 19.3791 35.379Z" stroke="#1D8CE0" stroke-width="1.2"/>
<path d="M19.3791 35.379C18.8941 35.864 17.9367 36.0131 16.5648 35.5558C15.2309 35.1112 13.6855 34.1403 12.2727 32.7274C10.8598 31.3145 9.88886 29.7691 9.44425 28.4353C8.98695 27.0634 9.13604 26.1059 9.621 25.621C10.106 25.136 11.0634 24.9869 12.4353 25.4442C13.7691 25.8888 15.3145 26.8597 16.7274 28.2726C18.1403 29.6855 19.1112 31.2309 19.5558 32.5647C20.0131 33.9367 19.864 34.8941 19.3791 35.379Z" stroke="white" stroke-opacity="0.4" stroke-width="1.2"/>
<path d="M16.7273 32.7274C15.3145 34.1403 13.7691 35.1112 12.4352 35.5558C11.0633 36.0131 10.1059 35.864 9.62092 35.379C9.13596 34.8941 8.98687 33.9367 9.44417 32.5647C9.88879 31.2309 10.8597 29.6855 12.2726 28.2726C13.6855 26.8597 15.2309 25.8888 16.5647 25.4442C17.9366 24.9869 18.894 25.136 19.379 25.621C19.864 26.1059 20.0131 27.0634 19.5558 28.4353C19.1111 29.7691 18.1402 31.3145 16.7273 32.7274Z" stroke="#1D8CE0" stroke-width="1.2"/>
<path d="M16.7273 32.7274C15.3145 34.1403 13.7691 35.1112 12.4352 35.5558C11.0633 36.0131 10.1059 35.864 9.62092 35.379C9.13596 34.8941 8.98687 33.9367 9.44417 32.5647C9.88879 31.2309 10.8597 29.6855 12.2726 28.2726C13.6855 26.8597 15.2309 25.8888 16.5647 25.4442C17.9366 24.9869 18.894 25.136 19.379 25.621C19.864 26.1059 20.0131 27.0634 19.5558 28.4353C19.1111 29.7691 18.1402 31.3145 16.7273 32.7274Z" stroke="white" stroke-opacity="0.4" stroke-width="1.2"/>
<circle cx="50.5" cy="67.5" r="6.9" stroke="#FAA21E" stroke-width="1.2"/>
<path d="M57.4 67.5C57.4 68.1858 56.8284 68.9683 55.535 69.615C54.2774 70.2438 52.4981 70.65 50.5 70.65C48.5019 70.65 46.7226 70.2438 45.465 69.615C44.1716 68.9683 43.6 68.1858 43.6 67.5C43.6 66.8142 44.1716 66.0317 45.465 65.385C46.7226 64.7562 48.5019 64.35 50.5 64.35C52.4981 64.35 54.2774 64.7562 55.535 65.385C56.8284 66.0317 57.4 66.8142 57.4 67.5Z" stroke="#FAA21E" stroke-width="1.2"/>
<path d="M53.65 67.5C53.65 69.4981 53.2438 71.2774 52.615 72.535C51.9683 73.8284 51.1858 74.4 50.5 74.4C49.8142 74.4 49.0317 73.8284 48.385 72.535C47.7562 71.2774 47.35 69.4981 47.35 67.5C47.35 65.5019 47.7562 63.7226 48.385 62.465C49.0317 61.1716 49.8142 60.6 50.5 60.6C51.1858 60.6 51.9683 61.1716 52.615 62.465C53.2438 63.7226 53.65 65.5019 53.65 67.5Z" stroke="#FAA21E" stroke-width="1.2"/>
<path d="M43.5001 16.5C38.218 19.8614 36.1667 26.5 36.5 29C38.5 26.6667 43.3 21.6 46.5 20C49.7 18.4 49 20.5 50.5 22.5C51.6667 21.6667 55.1 19.6 57.5 20C59.9 20.4 63.8333 28.8333 65.5 33C67 35.5 70.3 40.2 71.5 33C73 24 68.5522 18.5285 63 15.5C57.5 12.5 49 13 43.5001 16.5Z" fill="#FAA21E"/>
<path d="M43.5001 16.5C38.218 19.8614 36.1667 26.5 36.5 29C38.5 26.6667 43.3 21.6 46.5 20C49.7 18.4 49 20.5 50.5 22.5C51.6667 21.6667 55.1 19.6 57.5 20C59.9 20.4 63.8333 28.8333 65.5 33C67 35.5 70.3 40.2 71.5 33C73 24 68.5522 18.5285 63 15.5C57.5 12.5 49 13 43.5001 16.5Z" fill="black" fill-opacity="0.6"/>
<path d="M54 21C52.8 21 51 22 50.5 22.5C50 22 48.5689 20.6862 47 21C44.5 21.5 43.3333 24 43 26C42.6667 28 42.125 29.5 41 31C40.13 32.16 38.5 34.4 36.5 34C34.5 33.6 34 32.5 33.5 29.5C35.5 32 36.5841 30.9954 37 28.5C37.5 25.5 37.9455 22.3697 41.5 20C44.5 18 47 17.5 48.5 18.5C49.4414 19.1276 49.8333 21.5 50.5 22.5C51 21.5 52.4 19.3 54 18.5C56.5 17.25 61 18.5 63.5 21.5C66 24.5 64.5 32 66 34C66.9895 35.3194 68 34.5 69 34C68 36 67 37.5 64 37C61 36.5 60.2541 29.5697 58.5 26.5C56.5 23 55.5 21 54 21Z" fill="#FAA21E"/>
<path d="M54 21C52.8 21 51 22 50.5 22.5C50 22 48.5689 20.6862 47 21C44.5 21.5 43.3333 24 43 26C42.6667 28 42.125 29.5 41 31C40.13 32.16 38.5 34.4 36.5 34C34.5 33.6 34 32.5 33.5 29.5C35.5 32 36.5841 30.9954 37 28.5C37.5 25.5 37.9455 22.3697 41.5 20C44.5 18 47 17.5 48.5 18.5C49.4414 19.1276 49.8333 21.5 50.5 22.5C51 21.5 52.4 19.3 54 18.5C56.5 17.25 61 18.5 63.5 21.5C66 24.5 64.5 32 66 34C66.9895 35.3194 68 34.5 69 34C68 36 67 37.5 64 37C61 36.5 60.2541 29.5697 58.5 26.5C56.5 23 55.5 21 54 21Z" fill="black" fill-opacity="0.4"/>
<path fill-rule="evenodd" clip-rule="evenodd" d="M45.6081 40.8555C46.6599 39.9102 52.1521 40.2032 52.5981 41.2285C53.0442 42.2537 54.2973 44.7059 55.3542 45.8819C57.2448 47.9856 54.0359 51.8201 52.0121 52.2128C49.9883 52.6056 46.4667 52.9184 44.5761 50.8147C43.1407 49.2176 43.2966 46.5329 43.3618 45.4097C43.3653 45.3494 43.3685 45.2935 43.3712 45.2426C44.4497 43.798 45.1234 42.432 45.6081 40.8555ZM49.0232 42.5399C50.0218 42.5931 51.9923 43.199 51.939 44.1976C51.8858 45.1961 50.8339 46.1414 48.8368 46.0349C46.8396 45.9283 45.8943 44.8765 45.9476 43.8779C46.0008 42.8793 47.026 42.4333 49.0232 42.5399Z" fill="#FAA21E"/>
<path fill-rule="evenodd" clip-rule="evenodd" d="M45.6081 40.8555C46.6599 39.9102 52.1521 40.2032 52.5981 41.2285C53.0442 42.2537 54.2973 44.7059 55.3542 45.8819C57.2448 47.9856 54.0359 51.8201 52.0121 52.2128C49.9883 52.6056 46.4667 52.9184 44.5761 50.8147C43.1407 49.2176 43.2966 46.5329 43.3618 45.4097C43.3653 45.3494 43.3685 45.2935 43.3712 45.2426C44.4497 43.798 45.1234 42.432 45.6081 40.8555ZM49.0232 42.5399C50.0218 42.5931 51.9923 43.199 51.939 44.1976C51.8858 45.1961 50.8339 46.1414 48.8368 46.0349C46.8396 45.9283 45.8943 44.8765 45.9476 43.8779C46.0008 42.8793 47.026 42.4333 49.0232 42.5399Z" fill="black" fill-opacity="0.6"/>
<path d="M54.0442 7.39711L51.7562 6.2728C51.1176 5.95902 50.3649 6.3936 50.3174 7.10349L50.1471 9.64711L49.9768 7.10349C49.9292 6.3936 49.1765 5.95902 48.538 6.2728L46.25 7.39711L48.3676 5.9778C48.9587 5.58169 48.9587 4.71254 48.3676 4.31643L46.25 2.89711L48.538 4.02143C49.1765 4.33521 49.9292 3.90063 49.9768 3.19074L50.1471 0.647114L50.3174 3.19074C50.3649 3.90063 51.1176 4.33521 51.7562 4.02143L54.0442 2.89711L51.9265 4.31643C51.3355 4.71253 51.3355 5.58169 51.9265 5.9778L54.0442 7.39711Z" fill="#FEFEFE"/>
<circle cx="52.7452" cy="6.64712" r="0.5" transform="rotate(120 52.7452 6.64712)" fill="#FEFEFE"/>
<circle cx="47.5489" cy="3.64712" r="0.5" transform="rotate(120 47.5489 3.64712)" fill="#FEFEFE"/>
<circle cx="50.147" cy="8.14722" r="0.5" transform="rotate(-180 50.147 8.14722)" fill="#FEFEFE"/>
<circle cx="50.147" cy="2.14719" r="0.5" transform="rotate(-180 50.147 2.14719)" fill="#FEFEFE"/>
<circle cx="47.549" cy="6.64728" r="0.5" transform="rotate(-120 47.549 6.64728)" fill="#FEFEFE"/>
<circle cx="52.7453" cy="3.64725" r="0.5" transform="rotate(-120 52.7453 3.64725)" fill="#FEFEFE"/>
<path d="M89.0442 31.3971L86.7562 30.2728C86.1176 29.959 85.3649 30.3936 85.3174 31.1035L85.1471 33.6471L84.9768 31.1035C84.9292 30.3936 84.1765 29.959 83.538 30.2728L81.25 31.3971L83.3676 29.9778C83.9587 29.5817 83.9587 28.7125 83.3676 28.3164L81.25 26.8971L83.538 28.0214C84.1765 28.3352 84.9292 27.9006 84.9768 27.1907L85.1471 24.6471L85.3174 27.1907C85.3649 27.9006 86.1176 28.3352 86.7562 28.0214L89.0442 26.8971L86.9265 28.3164C86.3355 28.7125 86.3355 29.5817 86.9265 29.9778L89.0442 31.3971Z" fill="#1D8CE0"/>
<path d="M89.0442 31.3971L86.7562 30.2728C86.1176 29.959 85.3649 30.3936 85.3174 31.1035L85.1471 33.6471L84.9768 31.1035C84.9292 30.3936 84.1765 29.959 83.538 30.2728L81.25 31.3971L83.3676 29.9778C83.9587 29.5817 83.9587 28.7125 83.3676 28.3164L81.25 26.8971L83.538 28.0214C84.1765 28.3352 84.9292 27.9006 84.9768 27.1907L85.1471 24.6471L85.3174 27.1907C85.3649 27.9006 86.1176 28.3352 86.7562 28.0214L89.0442 26.8971L86.9265 28.3164C86.3355 28.7125 86.3355 29.5817 86.9265 29.9778L89.0442 31.3971Z" fill="white" fill-opacity="0.8"/>
<circle cx="87.7452" cy="30.6471" r="0.5" transform="rotate(120 87.7452 30.6471)" fill="#1D8CE0"/>
<circle cx="87.7452" cy="30.6471" r="0.5" transform="rotate(120 87.7452 30.6471)" fill="white" fill-opacity="0.8"/>
<circle cx="82.5489" cy="27.6471" r="0.5" transform="rotate(120 82.5489 27.6471)" fill="#1D8CE0"/>
<circle cx="82.5489" cy="27.6471" r="0.5" transform="rotate(120 82.5489 27.6471)" fill="white" fill-opacity="0.8"/>
<circle cx="85.147" cy="32.1472" r="0.5" transform="rotate(-180 85.147 32.1472)" fill="#1D8CE0"/>
<circle cx="85.147" cy="32.1472" r="0.5" transform="rotate(-180 85.147 32.1472)" fill="white" fill-opacity="0.8"/>
<circle cx="85.147" cy="26.1472" r="0.5" transform="rotate(-180 85.147 26.1472)" fill="#1D8CE0"/>
<circle cx="85.147" cy="26.1472" r="0.5" transform="rotate(-180 85.147 26.1472)" fill="white" fill-opacity="0.8"/>
<circle cx="82.549" cy="30.6473" r="0.5" transform="rotate(-120 82.549 30.6473)" fill="#1D8CE0"/>
<circle cx="82.549" cy="30.6473" r="0.5" transform="rotate(-120 82.549 30.6473)" fill="white" fill-opacity="0.8"/>
<circle cx="87.7453" cy="27.6472" r="0.5" transform="rotate(-120 87.7453 27.6472)" fill="#1D8CE0"/>
<circle cx="87.7453" cy="27.6472" r="0.5" transform="rotate(-120 87.7453 27.6472)" fill="white" fill-opacity="0.8"/>
<path d="M24.0442 70.3971L21.7562 69.2728C21.1176 68.959 20.3649 69.3936 20.3174 70.1035L20.1471 72.6471L19.9768 70.1035C19.9292 69.3936 19.1765 68.959 18.538 69.2728L16.25 70.3971L18.3676 68.9778C18.9587 68.5817 18.9587 67.7125 18.3676 67.3164L16.25 65.8971L18.538 67.0214C19.1765 67.3352 19.9292 66.9006 19.9768 66.1907L20.1471 63.6471L20.3174 66.1907C20.3649 66.9006 21.1176 67.3352 21.7562 67.0214L24.0442 65.8971L21.9265 67.3164C21.3355 67.7125 21.3355 68.5817 21.9265 68.9778L24.0442 70.3971Z" fill="#FEFEFE"/>
<circle cx="22.7452" cy="69.6471" r="0.5" transform="rotate(120 22.7452 69.6471)" fill="#FEFEFE"/>
<circle cx="17.5489" cy="66.6471" r="0.5" transform="rotate(120 17.5489 66.6471)" fill="#FEFEFE"/>
<circle cx="20.147" cy="71.1472" r="0.5" transform="rotate(-180 20.147 71.1472)" fill="#FEFEFE"/>
<circle cx="20.147" cy="65.1472" r="0.5" transform="rotate(-180 20.147 65.1472)" fill="#FEFEFE"/>
<circle cx="17.549" cy="69.6473" r="0.5" transform="rotate(-120 17.549 69.6473)" fill="#FEFEFE"/>
<circle cx="22.7453" cy="66.6472" r="0.5" transform="rotate(-120 22.7453 66.6472)" fill="#FEFEFE"/>
<path d="M95.647 53.1471L93.9994 53.2574C93.2895 53.305 92.855 54.0577 93.1687 54.6962L93.897 56.1782L92.9777 54.8065C92.5816 54.2155 91.7124 54.2155 91.3163 54.8065L90.397 56.1782L91.1252 54.6962C91.439 54.0577 91.0044 53.305 90.2945 53.2574L88.647 53.1471L90.2945 53.0368C91.0044 52.9893 91.439 52.2365 91.1252 51.598L90.397 50.116L91.3163 51.4877C91.7124 52.0787 92.5816 52.0787 92.9777 51.4877L93.897 50.116L93.1687 51.598C92.855 52.2365 93.2895 52.9893 93.9994 53.0368L95.647 53.1471Z" fill="#FEFEFE"/>
<circle cx="94.4803" cy="53.1471" r="0.388889" transform="rotate(90 94.4803 53.1471)" fill="#FEFEFE"/>
<circle cx="89.8138" cy="53.1472" r="0.388889" transform="rotate(90 89.8138 53.1472)" fill="#FEFEFE"/>
<circle cx="93.3135" cy="55.1679" r="0.388889" transform="rotate(150 93.3135 55.1679)" fill="#FEFEFE"/>
<circle cx="90.9802" cy="51.1265" r="0.388889" transform="rotate(150 90.9802 51.1265)" fill="#FEFEFE"/>
<circle cx="90.9805" cy="55.168" r="0.388889" transform="rotate(-150 90.9805 55.168)" fill="#FEFEFE"/>
<circle cx="93.3137" cy="51.1264" r="0.388889" transform="rotate(-150 93.3137 51.1264)" fill="#FEFEFE"/>
<path d="M32 11.5L29.7492 11.6507C29.327 11.679 29.0685 12.1267 29.2551 12.5065L30.25 14.5311L28.9941 12.6572C28.7585 12.3057 28.2415 12.3057 28.0059 12.6572L26.75 14.5311L27.7449 12.5065C27.9315 12.1267 27.673 11.679 27.2508 11.6507L25 11.5L27.2508 11.3493C27.673 11.321 27.9315 10.8733 27.7449 10.4935L26.75 8.46891L28.0059 10.3428C28.2415 10.6943 28.7585 10.6943 28.9941 10.3428L30.25 8.46891L29.2551 10.4935C29.0685 10.8733 29.327 11.321 29.7492 11.3493L32 11.5Z" fill="#1D8CE0"/>
<path d="M32 11.5L29.7492 11.6507C29.327 11.679 29.0685 12.1267 29.2551 12.5065L30.25 14.5311L28.9941 12.6572C28.7585 12.3057 28.2415 12.3057 28.0059 12.6572L26.75 14.5311L27.7449 12.5065C27.9315 12.1267 27.673 11.679 27.2508 11.6507L25 11.5L27.2508 11.3493C27.673 11.321 27.9315 10.8733 27.7449 10.4935L26.75 8.46891L28.0059 10.3428C28.2415 10.6943 28.7585 10.6943 28.9941 10.3428L30.25 8.46891L29.2551 10.4935C29.0685 10.8733 29.327 11.321 29.7492 11.3493L32 11.5Z" fill="white" fill-opacity="0.8"/>
<circle cx="30.8335" cy="11.5" r="0.388889" transform="rotate(90 30.8335 11.5)" fill="#1D8CE0"/>
<circle cx="30.8335" cy="11.5" r="0.388889" transform="rotate(90 30.8335 11.5)" fill="white" fill-opacity="0.8"/>
<circle cx="26.1665" cy="11.5" r="0.388889" transform="rotate(90 26.1665 11.5)" fill="#1D8CE0"/>
<circle cx="26.1665" cy="11.5" r="0.388889" transform="rotate(90 26.1665 11.5)" fill="white" fill-opacity="0.8"/>
<circle cx="29.6665" cy="13.5208" r="0.388889" transform="rotate(150 29.6665 13.5208)" fill="#1D8CE0"/>
<circle cx="29.6665" cy="13.5208" r="0.388889" transform="rotate(150 29.6665 13.5208)" fill="white" fill-opacity="0.8"/>
<circle cx="27.333" cy="9.47935" r="0.388889" transform="rotate(150 27.333 9.47935)" fill="#1D8CE0"/>
<circle cx="27.333" cy="9.47935" r="0.388889" transform="rotate(150 27.333 9.47935)" fill="white" fill-opacity="0.8"/>
<circle cx="27.3335" cy="13.5209" r="0.388889" transform="rotate(-150 27.3335 13.5209)" fill="#1D8CE0"/>
<circle cx="27.3335" cy="13.5209" r="0.388889" transform="rotate(-150 27.3335 13.5209)" fill="white" fill-opacity="0.8"/>
<circle cx="29.6665" cy="9.47932" r="0.388889" transform="rotate(-150 29.6665 9.47932)" fill="#1D8CE0"/>
<circle cx="29.6665" cy="9.47932" r="0.388889" transform="rotate(-150 29.6665 9.47932)" fill="white" fill-opacity="0.8"/>
<path d="M79 78.5L77.3524 78.6103C76.6426 78.6579 76.208 79.4106 76.5218 80.0491L77.25 81.5311L76.3307 80.1594C75.9346 79.5684 75.0654 79.5684 74.6693 80.1594L73.75 81.5311L74.4782 80.0491C74.792 79.4106 74.3574 78.6579 73.6476 78.6103L72 78.5L73.6476 78.3897C74.3574 78.3421 74.792 77.5894 74.4782 76.9509L73.75 75.4689L74.6693 76.8406C75.0654 77.4316 75.9346 77.4316 76.3307 76.8406L77.25 75.4689L76.5218 76.9509C76.208 77.5894 76.6426 78.3421 77.3524 78.3897L79 78.5Z" fill="#FEFEFE"/>
<circle cx="77.8333" cy="78.5" r="0.388889" transform="rotate(90 77.8333 78.5)" fill="#FEFEFE"/>
<circle cx="73.1668" cy="78.5" r="0.388889" transform="rotate(90 73.1668 78.5)" fill="#FEFEFE"/>
<circle cx="76.6665" cy="80.5209" r="0.388889" transform="rotate(150 76.6665 80.5209)" fill="#FEFEFE"/>
<circle cx="74.3333" cy="76.4794" r="0.388889" transform="rotate(150 74.3333 76.4794)" fill="#FEFEFE"/>
<circle cx="74.3335" cy="80.5208" r="0.388889" transform="rotate(-150 74.3335 80.5208)" fill="#FEFEFE"/>
<circle cx="76.6667" cy="76.4793" r="0.388889" transform="rotate(-150 76.6667 76.4793)" fill="#FEFEFE"/>
</svg>
