<svg width="100" height="100" viewBox="0 0 100 100" fill="none" xmlns="http://www.w3.org/2000/svg">
<g clip-path="url(#clip0_2056_12250)">
<path d="M13 66C14.2 65.6 23.8333 69.3333 27 71.5L42.5 80C42 86 40.7 98 39.5 98C38.3 98 37.6667 86 37.5 80C33.6667 86.6667 25.8 99.9 25 99.5C24.2 99.1 29 84.6667 31.5 77.5C24.6667 83.6667 10.9 95.8 10.5 95C10.1 94.2 20 81.3333 25 75L14.5 70C9.16667 73.5 0 80.8 0 80C0 79 11.5 66.5 13 66Z" fill="#D0333D"/>
<path d="M13 66C14.2 65.6 23.8333 69.3333 27 71.5L42.5 80C42 86 40.7 98 39.5 98C38.3 98 37.6667 86 37.5 80C33.6667 86.6667 25.8 99.9 25 99.5C24.2 99.1 29 84.6667 31.5 77.5C24.6667 83.6667 10.9 95.8 10.5 95C10.1 94.2 20 81.3333 25 75L14.5 70C9.16667 73.5 0 80.8 0 80C0 79 11.5 66.5 13 66Z" fill="black" fill-opacity="0.2"/>
<path d="M89.5 61.5C88.6097 61.2973 81.5306 64.9054 79.615 67.0815L69.9555 75.9616C71.1117 80.954 73.6333 90.9053 74.4697 90.7714C75.3061 90.6376 74.1321 80.4707 73.4406 75.404C77.01 80.5855 84.2746 90.8421 84.7783 90.4164C85.2821 89.9906 79.9935 78.3824 77.2862 72.6315C82.8793 77.0578 94.1082 85.7309 94.2793 85.0132C94.4504 84.2955 85.8179 74.5742 81.4802 69.8032L88.5 65C92.6885 67.3499 99.6864 71.895 99.5787 71.2219C99.4441 70.3806 90.6128 61.7534 89.5 61.5Z" fill="#D0333D"/>
<path d="M89.5 61.5C88.6097 61.2973 81.5306 64.9054 79.615 67.0815L69.9555 75.9616C71.1117 80.954 73.6333 90.9053 74.4697 90.7714C75.3061 90.6376 74.1321 80.4707 73.4406 75.404C77.01 80.5855 84.2746 90.8421 84.7783 90.4164C85.2821 89.9906 79.9935 78.3824 77.2862 72.6315C82.8793 77.0578 94.1082 85.7309 94.2793 85.0132C94.4504 84.2955 85.8179 74.5742 81.4802 69.8032L88.5 65C92.6885 67.3499 99.6864 71.895 99.5787 71.2219C99.4441 70.3806 90.6128 61.7534 89.5 61.5Z" fill="black" fill-opacity="0.2"/>
<path d="M70.463 42.7187C65.6813 39.6758 56.5525 38.6057 49.5973 39.6758C41.7727 40.8796 31.7745 44.8921 28.297 49.6739C24.3846 55.0537 18.3237 65.0373 20.4724 77.9294C22.2112 88.3623 42.8567 87.8116 54.3791 85.7541C66.5508 83.5806 81.3305 77.9294 83.5041 68.366C85.6776 58.8026 75.2447 45.7615 70.463 42.7187Z" fill="#D0333D"/>
<path d="M67.7087 42.8912C63.6599 40.3388 55.9301 39.4412 50.0409 40.3388C43.4155 41.3486 34.9496 44.7144 32.0051 48.7253C28.6924 53.238 23.5603 61.6124 25.3797 72.4265C26.8521 81.1776 44.3334 80.7158 54.0898 78.9898C64.396 77.1667 76.9106 72.4265 78.751 64.4046C80.5915 56.3827 71.7576 45.4436 67.7087 42.8912Z" fill="#D0333D"/>
<path d="M67.7087 42.8912C63.6599 40.3388 55.9301 39.4412 50.0409 40.3388C43.4155 41.3486 34.9496 44.7144 32.0051 48.7253C28.6924 53.238 23.5603 61.6124 25.3797 72.4265C26.8521 81.1776 44.3334 80.7158 54.0898 78.9898C64.396 77.1667 76.9106 72.4265 78.751 64.4046C80.5915 56.3827 71.7576 45.4436 67.7087 42.8912Z" fill="white" fill-opacity="0.6"/>
<path d="M37.7656 46.3114C40.0701 46.7542 41.0951 46.2547 41.6775 44.8243C41.99 43.4415 41.3964 38.5015 40.6294 37.3093C39.8623 36.117 38.5555 35.0201 36.0811 35.1914C33.6066 35.3626 31.6748 37.0312 31.9503 40.1688C32.2258 43.3064 34.8849 45.7578 37.7656 46.3114Z" fill="#898989"/>
<path d="M37.7656 46.3114C40.0701 46.7542 41.0951 46.2547 41.6775 44.8243C41.99 43.4415 41.3964 38.5015 40.6294 37.3093C39.8623 36.117 38.5555 35.0201 36.0811 35.1914C33.6066 35.3626 31.6748 37.0312 31.9503 40.1688C32.2258 43.3064 34.8849 45.7578 37.7656 46.3114Z" fill="white" fill-opacity="0.8"/>
<path d="M64.0854 42.4275C62.0747 43.4244 61.0168 43.1783 60.1466 41.9034C59.5352 40.6103 58.9201 35.576 59.344 34.2098C59.768 32.8437 60.7096 31.4411 63.0204 31.0109C65.3311 30.5808 67.4956 31.7644 67.9794 34.9373C68.4632 38.1101 66.5988 41.1813 64.0854 42.4275Z" fill="#898989"/>
<path d="M64.0854 42.4275C62.0747 43.4244 61.0168 43.1783 60.1466 41.9034C59.5352 40.6103 58.9201 35.576 59.344 34.2098C59.768 32.8437 60.7096 31.4411 63.0204 31.0109C65.3311 30.5808 67.4956 31.7644 67.9794 34.9373C68.4632 38.1101 66.5988 41.1813 64.0854 42.4275Z" fill="white" fill-opacity="0.8"/>
<ellipse cx="36.8433" cy="39.8313" rx="3.70509" ry="3.6828" transform="rotate(22.8133 36.8433 39.8313)" fill="#898989"/>
<ellipse cx="36.8433" cy="39.8313" rx="3.70509" ry="3.6828" transform="rotate(22.8133 36.8433 39.8313)" fill="black" fill-opacity="0.6"/>
<ellipse cx="63.7261" cy="35.1382" rx="3.26669" ry="3.43457" transform="rotate(-42.0408 63.7261 35.1382)" fill="#898989"/>
<ellipse cx="63.7261" cy="35.1382" rx="3.26669" ry="3.43457" transform="rotate(-42.0408 63.7261 35.1382)" fill="black" fill-opacity="0.6"/>
<path d="M74.4579 45.1458C74.9134 45.6171 75.6127 46.328 76.1065 46.7943C76.1065 46.7943 79.2841 44.6511 84.3494 44.5962C87.1123 44.5663 89.4386 45.5297 90.3941 46.2448C91.3496 46.9599 92.6893 47.8934 91.983 50.3933C93.1417 48.4429 92.9385 47.5268 91.5052 46.0935C88.1609 42.7492 77.9203 44.0908 74.4579 45.1458Z" fill="#D0333D"/>
<path d="M74.4579 45.1458C74.9134 45.6171 75.6127 46.328 76.1065 46.7943C76.1065 46.7943 79.2841 44.6511 84.3494 44.5962C87.1123 44.5663 89.4386 45.5297 90.3941 46.2448C91.3496 46.9599 92.6893 47.8934 91.983 50.3933C93.1417 48.4429 92.9385 47.5268 91.5052 46.0935C88.1609 42.7492 77.9203 44.0908 74.4579 45.1458Z" fill="white" fill-opacity="0.2"/>
<path d="M8.88567 26.5247C7.5147 30.067 7.20026 34.4234 7.21441 36.1588C7.33918 36.984 7.72894 38.9707 8.28986 40.3161C8.85077 41.6615 10.1502 42.927 11.0249 43.6281C11.8996 44.3292 13.601 44.3131 15.1333 44.2018C17.0486 44.0627 21.4406 41.0938 23.7183 39.4109C25.996 37.728 30.8392 33.6544 33.0034 30.7217C34.8741 28.1866 37.6334 24.0634 38.6359 21.8276C39.7154 19.42 43.2476 12.2358 43.0591 9.54575C43.0125 8.88062 42.2678 7.25881 41.2689 7.7559C41.3329 8.18063 41.2722 8.93035 40.7231 9.898C40.0367 11.1076 37.598 12.2189 34.4563 14.4302C31.3146 16.6415 30.5292 17.1943 29.1851 18.1833C29.1851 18.1833 28.5977 18.7888 27.7482 18.9168C26.8987 19.0449 25.8141 18.9899 24.7797 18.8476C23.4867 18.6697 19.3876 16.6797 18.8846 16.3086L16.6213 14.6383C16.1239 14.9614 15.5119 15.5493 14.7905 16.5268C14.0691 17.5044 10.2566 22.9825 8.88567 26.5247Z" fill="#D0333D"/>
<path d="M8.88567 26.5247C7.5147 30.067 7.20026 34.4234 7.21441 36.1588C7.33918 36.984 7.72894 38.9707 8.28986 40.3161C8.85077 41.6615 10.1502 42.927 11.0249 43.6281C11.8996 44.3292 13.601 44.3131 15.1333 44.2018C17.0486 44.0627 21.4406 41.0938 23.7183 39.4109C25.996 37.728 30.8392 33.6544 33.0034 30.7217C34.8741 28.1866 37.6334 24.0634 38.6359 21.8276C39.7154 19.42 43.2476 12.2358 43.0591 9.54575C43.0125 8.88062 42.2678 7.25881 41.2689 7.7559C41.3329 8.18063 41.2722 8.93035 40.7231 9.898C40.0367 11.1076 37.598 12.2189 34.4563 14.4302C31.3146 16.6415 30.5292 17.1943 29.1851 18.1833C29.1851 18.1833 28.5977 18.7888 27.7482 18.9168C26.8987 19.0449 25.8141 18.9899 24.7797 18.8476C23.4867 18.6697 19.3876 16.6797 18.8846 16.3086L16.6213 14.6383C16.1239 14.9614 15.5119 15.5493 14.7905 16.5268C14.0691 17.5044 10.2566 22.9825 8.88567 26.5247Z" fill="white" fill-opacity="0.4"/>
<path d="M19.8107 11.241C19.023 12.7308 18.8751 14.321 18.9098 15.0369C19.9275 15.9444 23.386 17.452 24.0905 17.7648C24.7951 18.0776 27.1314 17.7067 27.1314 17.7067C28.2882 14.4252 28.2084 12.0341 28.9885 9.85705C29.9057 7.2974 32.8718 2.58001 33.5898 2.25127C34.3079 1.92253 35.2325 1.96187 35.3809 1.76073C35.5664 1.5093 34.8317 1.09656 34.3493 0.870021C33.8669 0.643482 31.9867 0.550517 30.3639 1.1652C28.7411 1.77988 26.2079 3.27611 24.6964 4.62018C23.1849 5.96424 20.7952 9.37861 19.8107 11.241Z" fill="#D0333D"/>
<path d="M24.1717 35.5286C28.8202 31.7869 32.5539 27.1805 35.1845 22.1394C29.8787 27.2834 25.9516 30.0475 21.5997 32.8756C17.2479 35.7038 13.7455 38.4039 10.5162 37.1533C12.5185 44.6704 20.1634 38.7549 24.1717 35.5286Z" fill="#D0333D"/>
<path d="M24.1717 35.5286C28.8202 31.7869 32.5539 27.1805 35.1845 22.1394C29.8787 27.2834 25.9516 30.0475 21.5997 32.8756C17.2479 35.7038 13.7455 38.4039 10.5162 37.1533C12.5185 44.6704 20.1634 38.7549 24.1717 35.5286Z" fill="white" fill-opacity="0.6"/>
<path d="M78.6679 46.6907C81.2558 45.8325 84.3902 45.7605 85.6339 45.8318C86.2211 45.9503 87.6318 46.2997 88.5766 46.7492C89.5215 47.1987 90.383 48.1749 90.8549 48.8267C91.3267 49.4786 91.2552 50.6978 91.1215 51.7925C90.9543 53.1608 88.6711 56.2051 87.3843 57.7788C86.0976 59.3526 83.0064 62.6815 80.8276 64.1298C78.9442 65.3817 75.8909 67.2148 74.2526 67.8548C72.4884 68.544 67.2133 70.8234 65.2913 70.5936C64.816 70.5368 63.6795 69.9457 64.0711 69.247C64.3733 69.3079 64.913 69.2908 65.6261 68.9312C66.5175 68.4816 67.4002 66.7723 69.0962 64.5977C70.7922 62.4232 71.2162 61.8795 71.9726 60.9507C71.9726 60.9507 72.4274 60.5509 72.5491 59.9464C72.6709 59.3418 72.6696 58.5623 72.604 57.8156C72.522 56.8824 71.2396 53.8734 70.9912 53.4997L69.8735 51.8182C70.1226 51.473 70.5656 51.0549 71.2919 50.5721C72.0182 50.0894 76.08 47.5489 78.6679 46.6907Z" fill="#D0333D"/>
<path d="M78.6679 46.6907C81.2558 45.8325 84.3902 45.7605 85.6339 45.8318C86.2211 45.9503 87.6318 46.2997 88.5766 46.7492C89.5215 47.1987 90.383 48.1749 90.8549 48.8267C91.3267 49.4786 91.2552 50.6978 91.1215 51.7925C90.9543 53.1608 88.6711 56.2051 87.3843 57.7788C86.0976 59.3526 83.0064 62.6815 80.8276 64.1298C78.9442 65.3817 75.8909 67.2148 74.2526 67.8548C72.4884 68.544 67.2133 70.8234 65.2913 70.5936C64.816 70.5368 63.6795 69.9457 64.0711 69.247C64.3733 69.3079 64.913 69.2908 65.6261 68.9312C66.5175 68.4816 67.4002 66.7723 69.0962 64.5977C70.7922 62.4232 71.2162 61.8795 71.9726 60.9507C71.9726 60.9507 72.4274 60.5509 72.5491 59.9464C72.6709 59.3418 72.6696 58.5623 72.604 57.8156C72.522 56.8824 71.2396 53.8734 70.9912 53.4997L69.8735 51.8182C70.1226 51.473 70.5656 51.0549 71.2919 50.5721C72.0182 50.0894 76.08 47.5489 78.6679 46.6907Z" fill="white" fill-opacity="0.4"/>
<path d="M67.3254 53.9852C68.4213 53.4729 69.5666 53.4229 70.0787 53.473C70.6934 54.2345 71.6526 56.7672 71.852 57.2834C72.0515 57.7995 71.7033 59.4615 71.7033 59.4615C69.3099 60.1753 67.5983 60.0339 66.01 60.5165C64.1426 61.0839 60.656 63.0444 60.395 63.5476C60.134 64.0508 60.1297 64.7151 59.9802 64.8144C59.7934 64.9386 59.5234 64.3973 59.378 64.0435C59.2325 63.6896 59.2321 62.3384 59.7299 61.1965C60.2278 60.0547 61.3897 58.2912 62.4066 57.2549C63.4234 56.2185 65.9555 54.6255 67.3254 53.9852Z" fill="#D0333D"/>
<path d="M84.585 57.9671C81.7387 61.1681 78.3046 63.6827 74.5978 65.3912C78.4726 61.7683 80.5927 59.0501 82.7736 56.0297C84.9545 53.0092 87.0136 50.5933 86.2307 48.234C91.5496 49.9342 87.0393 55.2069 84.585 57.9671Z" fill="#D0333D"/>
<path d="M84.585 57.9671C81.7387 61.1681 78.3046 63.6827 74.5978 65.3912C78.4726 61.7683 80.5927 59.0501 82.7736 56.0297C84.9545 53.0092 87.0136 50.5933 86.2307 48.234C91.5496 49.9342 87.0393 55.2069 84.585 57.9671Z" fill="white" fill-opacity="0.6"/>
<path d="M20.3295 61.4633C19.735 62.9728 18.7107 63.0328 18.1947 62.7854C16.901 62.1651 8.75575 58.8479 6.38364 53.4091C4.04155 47.0206 4.08615 42.6 6.38364 37C7 43.5 10.2836 45.986 14.265 45.7761L21.0011 58.0743C21.1472 58.7593 20.924 59.9539 20.3295 61.4633Z" fill="#D0333D"/>
<path d="M20.3295 61.4633C19.735 62.9728 18.7107 63.0328 18.1947 62.7854C16.901 62.1651 8.75575 58.8479 6.38364 53.4091C4.04155 47.0206 4.08615 42.6 6.38364 37C7 43.5 10.2836 45.986 14.265 45.7761L21.0011 58.0743C21.1472 58.7593 20.924 59.9539 20.3295 61.4633Z" fill="white" fill-opacity="0.2"/>
<path d="M45 54C46.2786 51.3828 47.1444 50.0658 49 48L53 50L55.5 47C57.5748 48.4155 58.6781 48.8766 60.5 51" stroke="#D0333D" stroke-width="2" stroke-linecap="round" stroke-linejoin="round"/>
<path d="M45 54C46.2786 51.3828 47.1444 50.0658 49 48L53 50L55.5 47C57.5748 48.4155 58.6781 48.8766 60.5 51" stroke="black" stroke-opacity="0.6" stroke-width="2" stroke-linecap="round" stroke-linejoin="round"/>
</g>
<defs>
<clipPath id="clip0_2056_12250">
<rect width="100" height="100" fill="white"/>
</clipPath>
</defs>
</svg>
