<svg width="100" height="100" viewBox="0 0 100 100" fill="none" xmlns="http://www.w3.org/2000/svg">
<g clip-path="url(#clip0_3627_29795)">
<path d="M36.5803 56.0458C31.1471 54.1752 20.6412 50.306 13 35C18.9383 56.0458 29.4892 62.594 34.9259 64.2789C41.4937 66.3143 46.9898 73.8112 50 77C45.8321 71.5791 42.1376 57.959 36.5803 56.0458Z" fill="#898989"/>
<path d="M36.5803 56.0458C31.1471 54.1752 20.6412 50.306 13 35C18.9383 56.0458 29.4892 62.594 34.9259 64.2789C41.4937 66.3143 46.9898 73.8112 50 77C45.8321 71.5791 42.1376 57.959 36.5803 56.0458Z" fill="black" fill-opacity="0.4"/>
<path d="M63.057 56.0458C68.3434 54.1752 78.5653 50.306 86 35C80.2222 56.0458 69.9565 62.594 64.6667 64.2789C58.2764 66.3143 52.9288 73.8112 50 77C54.0553 71.5791 57.6499 57.959 63.057 56.0458Z" fill="#898989"/>
<path d="M63.057 56.0458C68.3434 54.1752 78.5653 50.306 86 35C80.2222 56.0458 69.9565 62.594 64.6667 64.2789C58.2764 66.3143 52.9288 73.8112 50 77C54.0553 71.5791 57.6499 57.959 63.057 56.0458Z" fill="black" fill-opacity="0.4"/>
<path d="M42.127 62L34 63V67L65.4921 66.2857L66 63L57.873 62H42.127Z" fill="#898989"/>
<path d="M42.127 62L34 63V67L65.4921 66.2857L66 63L57.873 62H42.127Z" fill="black" fill-opacity="0.6"/>
<path d="M-35.0349 58.8C-20.0835 69.8156 -12.4614 77.2381 0.0550652 92.295L19.1951 71.56L49.5001 71.56H84.5901L100.54 95.485C113.527 78.7601 121.312 70.0959 135.807 55.61L134.035 81.13L151.58 128.98L169.125 187.995C162.836 204.637 146.63 279.257 140.415 283.695C132.646 289.242 122.5 289.869 113.3 296.455C99.2628 306.505 88.4956 304.247 92.5651 317.19H16.0051C21.1844 301.781 -4.2122 310.897 -11.1099 301.24C-19.0849 290.075 -41.6209 282.105 -49.3899 254.985L-60.5549 167.26L-31.8449 84.32L-35.0349 58.8Z" fill="#D0333D"/>
<path d="M-35.0349 58.8C-20.0835 69.8156 -12.4614 77.2381 0.0550652 92.295L19.1951 71.56L49.5001 71.56H84.5901L100.54 95.485C113.527 78.7601 121.312 70.0959 135.807 55.61L134.035 81.13L151.58 128.98L169.125 187.995C162.836 204.637 146.63 279.257 140.415 283.695C132.646 289.242 122.5 289.869 113.3 296.455C99.2628 306.505 88.4956 304.247 92.5651 317.19H16.0051C21.1844 301.781 -4.2122 310.897 -11.1099 301.24C-19.0849 290.075 -41.6209 282.105 -49.3899 254.985L-60.5549 167.26L-31.8449 84.32L-35.0349 58.8Z" fill="black" fill-opacity="0.6"/>
<path d="M1.65 224.68C3.245 208.73 22.385 152.905 23.98 144.93L12.815 73.155L42.5 63.585H57L86 71.5C82.2783 92.7667 75.339 138.55 76.615 144.93C78.21 152.905 102.135 207.135 110.11 224.68C116.49 238.716 130.845 292.202 137.225 317.19H-30.25C-20.1483 291.67 0.373999 237.44 1.65 224.68Z" fill="#D0333D"/>
<path d="M1.65 224.68C3.245 208.73 22.385 152.905 23.98 144.93L12.815 73.155L42.5 63.585H57L86 71.5C82.2783 92.7667 75.339 138.55 76.615 144.93C78.21 152.905 102.135 207.135 110.11 224.68C116.49 238.716 130.845 292.202 137.225 317.19H-30.25C-20.1483 291.67 0.373999 237.44 1.65 224.68Z" fill="black" fill-opacity="0.4"/>
<path d="M43 63.5L21 70.3797C26.5 96.962 38.1 156.506 40.5 175.646C42.9 194.785 36.5 277.19 33 316H75C71 279.316 63 199.889 63 175.646C63 151.403 74.5 94.8354 81.5 70.3797L57 63.5L50.5 65.5L43 63.5Z" fill="#D0333D"/>
<path d="M43 63.5L21 70.3797C26.5 96.962 38.1 156.506 40.5 175.646C42.9 194.785 36.5 277.19 33 316H75C71 279.316 63 199.889 63 175.646C63 151.403 74.5 94.8354 81.5 70.3797L57 63.5L50.5 65.5L43 63.5Z" fill="black" fill-opacity="0.6"/>
<path d="M0 48.4849L15 58.1844L26.5 62.9833H34.5C34.5 62.9833 38 76 41.5 83.5C45 91 50.5 99.582 50.5 99.582C50.5 99.582 56.0909 91.5 59 83.5C61.9091 75.5 64.5 62.9833 64.5 62.9833L74.5 63.5L83.5714 60.8297L100 48.4849L82.5 67.8161L59 99.582H50.5H42L18 66.8495L0 48.4849Z" fill="#898989"/>
<path d="M0 48.4849L15 58.1844L26.5 62.9833H34.5C34.5 62.9833 38 76 41.5 83.5C45 91 50.5 99.582 50.5 99.582C50.5 99.582 56.0909 91.5 59 83.5C61.9091 75.5 64.5 62.9833 64.5 62.9833L74.5 63.5L83.5714 60.8297L100 48.4849L82.5 67.8161L59 99.582H50.5H42L18 66.8495L0 48.4849Z" fill="black" fill-opacity="0.2"/>
<path d="M83.4465 24.6969C80.8768 26.606 63.6822 36.3972 63.6822 36.3972L65.5269 30.8631L56.3035 24.6969L81.212 17.3231L85.2911 9.70656L81.6014 -0.287056L88.9804 6.3753L90.8251 13.0377L83.4465 24.6969Z" fill="#D0333D"/>
<path d="M83.4465 24.6969C80.8768 26.606 63.6822 36.3972 63.6822 36.3972L65.5269 30.8631L56.3035 24.6969L81.212 17.3231L85.2911 9.70656L81.6014 -0.287056L88.9804 6.3753L90.8251 13.0377L83.4465 24.6969Z" fill="black" fill-opacity="0.4"/>
<path d="M18.8827 26.7909L32.3231 34.5523L39.1742 23.4843L18.8825 16.7974L15.1932 10.1351L18.883 0.141507L9.65973 8.46942L11.504 20.1285L18.8827 26.7909Z" fill="#D0333D"/>
<path d="M18.8827 26.7909L32.3231 34.5523L39.1742 23.4843L18.8825 16.7974L15.1932 10.1351L18.883 0.141507L9.65973 8.46942L11.504 20.1285L18.8827 26.7909Z" fill="black" fill-opacity="0.4"/>
<path d="M38.4337 44.2008L36.0547 45.3903L37.2442 54.9065L36.0547 60.8542L42.047 63.2332L50.329 71.5599L58.7004 63.2332L63.8599 60.8542C63.3147 59.6647 62.2243 56.8098 62.2243 54.9065C62.2243 53.0033 63.3147 47.7694 63.8599 45.3903L61.0347 44.2008C60.6382 49.3554 59.6965 59.6647 59.1018 59.6647C58.507 59.6647 57.7635 55.6996 57.4662 53.717L56.2766 57.2856L55.0871 53.717L53.8976 56.0961L52.7081 52.5275L51.5633 56.0961L50.329 52.5275L49.1842 56.0961L47.95 52.5275L46.8052 56.0961L45.5709 52.5275L44.4261 57.2856L43.1918 53.717C42.7953 55.6996 41.7644 59.6647 40.8128 59.6647C39.8612 59.6647 38.8302 49.3554 38.4337 44.2008Z" fill="#D0333D"/>
<path fill-rule="evenodd" clip-rule="evenodd" d="M37.0325 23.9502C39.6081 22.5785 43.8013 22.2356 48.6307 23.9502C52.3869 23.0929 57.1627 23.0929 59.0944 23.0929C60.2645 23.0929 65.1245 26.3136 66.9812 29.9265C64.3516 33.4326 66.0941 36.186 67.1931 37.9226C67.5855 38.5427 67.8959 39.0332 67.8959 39.382C67.8959 40.2851 66.0966 42.9708 65.1969 44.2008L58.6546 41.8217V51.338L56.2755 53.717L55.086 50.1484L53.8964 52.5275L52.7069 50.1484L51.5174 52.5275L50.3279 50.1484L49.1831 52.5275L47.9488 50.1484L46.804 52.5275L45.5698 50.1484L44.3802 53.717L43.1907 51.338L42.0012 53.717L40.8117 51.338V41.8217C38.8291 42.6148 34.6261 44.2008 33.6745 44.2008C32.7229 44.2008 30.9441 40.9883 30.1737 39.382C30.0637 38.9133 30.3622 38.2805 30.7534 37.4514C31.6173 35.6201 32.9331 32.8311 31.2956 28.7369C32.1328 26.9641 33.5967 26.1371 34.9502 25.3724C35.727 24.9335 36.4676 24.5151 37.0325 23.9502ZM47.9503 44.2009L46.7608 41.8219L49.1399 38.2533H50.3294L52.7084 41.8219L51.5189 44.2009L49.6157 40.6324L47.9503 44.2009ZM38.4342 31.1162L34.8656 33.4953V37.0639C36.4516 37.8569 39.8616 39.4429 40.8132 39.4429C41.7649 39.4429 44.3818 37.8569 45.5713 37.0639L43.1923 34.6848C42.7958 34.2883 41.7649 33.4953 40.8132 33.4953C39.8616 33.4953 38.8307 31.9092 38.4342 31.1162ZM63.4134 33.4953L59.8448 31.1162C59.4483 31.9092 58.4174 33.4953 57.4658 33.4953C56.5142 33.4953 55.4832 34.2883 55.0867 34.6848L52.7077 37.0639C53.8972 37.8569 56.5142 39.4429 57.4658 39.4429C58.4174 39.4429 61.8274 37.8569 63.4134 37.0639V33.4953Z" fill="#D0333D"/>
<path d="M5.32089 54.3173L-0.074975 68.4647L-0.0749772 82.4744L7.68127 105L37.5221 132.103L34.6335 116.216L21.8552 105L21.8552 89.9487L25.7964 80.6631L28.7207 75.2075L30.4574 66.8126L27.0951 73.2999L23.6549 78.5366L18.0882 85.9146L19.0751 73.5487L22.6564 66.5456L29.6927 58.5737L20.7339 63.9032L16.1209 70.4685L12.8516 82.4744L12.135 66.9503L16.67 59.1343L24.6601 50.3496L14.5285 57.0078L8.74287 64.9017L7.17703 80.0659L3.67709 68.2308L7.68127 55.928L15.4525 47.6592L5.32089 54.3173Z" fill="#CE4317"/>
<path d="M94.7566 49.1004L99.901 63.3414L99.6224 77.3625L91.3754 99.7891L60.8311 126.461L64.0516 110.604L77.1233 99.5738L77.4226 84.5098L73.6444 75.1567L70.8124 69.6522L69.2331 61.2241L72.4849 67.7678L75.8399 73.061L81.2906 80.5297L80.5441 68.1387L77.0824 61.0753L70.1658 52.99L79.068 58.46L83.5759 65.1007L86.6245 77.1662L87.6538 61.6402L83.2492 53.749L75.3897 44.8357L85.4447 51.6533L91.1053 59.6415L92.3783 74.8419L96.1328 63.0503L92.3512 50.6765L84.7016 42.2829L94.7566 49.1004Z" fill="#CE4317"/>
</g>
<defs>
<clipPath id="clip0_3627_29795">
<rect width="100" height="100" fill="white"/>
</clipPath>
</defs>
</svg>
