<svg width="100" height="100" viewBox="0 0 100 100" fill="none" xmlns="http://www.w3.org/2000/svg">
<g clip-path="url(#clip0_3578_30638)">
<path d="M92.6533 18.404L26.9586 100.023" stroke="#2FC4A7" stroke-linecap="round"/>
<path d="M92.6533 18.404L26.9586 100.023" stroke="black" stroke-opacity="0.4" stroke-linecap="round"/>
<path d="M96.0122 15.3268C100.001 14.2374 98.2821 10.2324 95.9637 13.1601C93.6453 16.0879 90.7804 23.1648 90.5796 33.0095C90.3787 42.8541 93.9289 50.4971 89.4139 56.1988C85.0029 61.7692 76.5519 65.9492 72.8424 70.6337C69.133 75.3181 67.8335 83.4512 63.4285 89.014C59.0235 94.5768 48.7107 94.583 40.2852 96.5228C30.1747 98.8506 25.2125 102.507 22.1986 106.313C19.1846 110.119 21.9129 112.976 23.0798 113.9C24.2468 114.824 27.3792 114.996 28.7702 113.239C30.4467 111.122 30.2264 109.225 28.1093 107.549C25.9922 105.873 23.4774 109.048 25.5945 110.725" stroke="#2FC4A7" stroke-width="3" stroke-linecap="round"/>
<path d="M96.0122 15.3268C100.001 14.2374 98.2821 10.2324 95.9637 13.1601C93.6453 16.0879 90.7804 23.1648 90.5796 33.0095C90.3787 42.8541 93.9289 50.4971 89.4139 56.1988C85.0029 61.7692 76.5519 65.9492 72.8424 70.6337C69.133 75.3181 67.8335 83.4512 63.4285 89.014C59.0235 94.5768 48.7107 94.583 40.2852 96.5228C30.1747 98.8506 25.2125 102.507 22.1986 106.313C19.1846 110.119 21.9129 112.976 23.0798 113.9C24.2468 114.824 27.3792 114.996 28.7702 113.239C30.4467 111.122 30.2264 109.225 28.1093 107.549C25.9922 105.873 23.4774 109.048 25.5945 110.725" stroke="black" stroke-opacity="0.4" stroke-width="3" stroke-linecap="round"/>
<path d="M14.5 71C12.9174 69.5366 15.5 66 18 68C20.5 70 24 72.5 27.5 76.5C31 80.5 36.5 94 36.5 94C36.5 94 44.5 80.6667 50.5 76C56.5 71.3333 62.5 75 67 70.5C71.5 66 72.5114 65.0333 74 66C75.4886 66.9668 75.0205 67.9786 74.4077 69.1725C86.5 69.1725 91 98.3511 91 100.5H40H1C5 82 8 73.5 14.5 71Z" fill="#898989"/>
<path d="M14.5 71C12.9174 69.5366 15.5 66 18 68C20.5 70 24 72.5 27.5 76.5C31 80.5 36.5 94 36.5 94C36.5 94 44.5 80.6667 50.5 76C56.5 71.3333 62.5 75 67 70.5C71.5 66 72.5114 65.0333 74 66C75.4886 66.9668 75.0205 67.9786 74.4077 69.1725C86.5 69.1725 91 98.3511 91 100.5H40H1C5 82 8 73.5 14.5 71Z" fill="black" fill-opacity="0.6"/>
<path d="M14.5 71C12.9174 69.5366 15.5 66 18 68C20.5 70 24 72.5 27.5 76.5C31 80.5 36.5 94 36.5 94C36.5 94 44.5 80.6667 50.5 76C56.5 71.3333 62.5 75 67 70.5C71.5 66 72.5114 65.0333 74 66C75.4886 66.9668 75.0205 67.9786 74.4077 69.1725C86.5 69.1725 91 98.3511 91 100.5H40H1C5 82 8 73.5 14.5 71Z" stroke="#898989" stroke-linejoin="round"/>
<path d="M20.5 23.5C22.3 15.4 27.2 8.2 33.5 10C35.3 10.2534 40.9 17.8 44.5 25C47.38 30.76 50.3 37.5109 53.9 42.0108C57.5 46.5108 60.8923 51.9108 62 59.1108C63.5 68.861 56.5 68 51 70.5C45.5 73 37.4 91.9 36.5 94C35.6 90.4002 31.0437 72.2262 24.4998 67.5C15.4999 61 10.4066 56.5 11.6 50.1106C12.9625 42.8152 18.7 31.6 20.5 23.5Z" fill="#2FC4A7"/>
<path d="M20.5 23.5C22.3 15.4 27.2 8.2 33.5 10C35.3 10.2534 40.9 17.8 44.5 25C47.38 30.76 50.3 37.5109 53.9 42.0108C57.5 46.5108 60.8923 51.9108 62 59.1108C63.5 68.861 56.5 68 51 70.5C45.5 73 37.4 91.9 36.5 94C35.6 90.4002 31.0437 72.2262 24.4998 67.5C15.4999 61 10.4066 56.5 11.6 50.1106C12.9625 42.8152 18.7 31.6 20.5 23.5Z" fill="black" fill-opacity="0.6"/>
<path fill-rule="evenodd" clip-rule="evenodd" d="M20.1355 37.4042C21.8667 36.3524 22.3902 33.4758 23.0137 30.0496C24.3392 22.7665 26.1166 13 40.9062 13C53.2951 13 55.4795 22.2628 57.3046 30.0017C58.1333 33.5155 58.8879 36.7152 60.49 38.591C62.5702 41.0267 57.8756 42.3662 53.8326 43.5197C51.8364 44.0893 49.9991 44.6135 49.2145 45.202C48.4613 45.7668 48.7047 47.1064 48.9557 48.4879C49.0841 49.1947 49.2145 49.9124 49.2145 50.543L45.5 50.5L44.5153 46.9823H40.9062L41.5481 51.0535H37.3939V46.9823H34.4267L33.7849 51.0535H30.2241L30.866 46.9823H27.8988L26.07 50.543L24 50.5C24.0785 49.9503 24.0655 49.3761 24.0509 48.735C24.0288 47.7614 24.0032 46.6333 24.2896 45.202C24.483 44.2355 23.1344 43.1861 21.7508 42.1095C19.7361 40.5418 17.6469 38.9162 20.1355 37.4042ZM24.7603 37.602C25.3797 39.6331 29.4206 40.0578 31.7016 38.987C31.8912 38.7053 32.1347 38.3755 32.3983 38.0185L32.3984 38.0184C33.429 36.6227 34.7661 34.8119 34.3785 33.8435C33.7701 32.3232 29.2242 30.8627 26.9323 31.4227C24.6403 31.9827 24.141 35.5709 24.7603 37.602ZM49.236 37.7377C48.7171 39.8066 44.4725 40.5066 41.9887 39.5939C40.9122 38.2778 38.6928 35.0902 39.1261 33.8435C39.6677 32.285 44.0644 31.3183 46.5255 31.7205C48.9866 32.1227 49.7549 35.6688 49.236 37.7377ZM36.1587 37.1075L33.7849 41.5583L36.5 42.1518H38.5325L36.1587 37.1075Z" fill="#2FC4A7"/>
<path fill-rule="evenodd" clip-rule="evenodd" d="M20.1355 37.4042C21.8667 36.3524 22.3902 33.4758 23.0137 30.0496C24.3392 22.7665 26.1166 13 40.9062 13C53.2951 13 55.4795 22.2628 57.3046 30.0017C58.1333 33.5155 58.8879 36.7152 60.49 38.591C62.5702 41.0267 57.8756 42.3662 53.8326 43.5197C51.8364 44.0893 49.9991 44.6135 49.2145 45.202C48.4613 45.7668 48.7047 47.1064 48.9557 48.4879C49.0841 49.1947 49.2145 49.9124 49.2145 50.543L45.5 50.5L44.5153 46.9823H40.9062L41.5481 51.0535H37.3939V46.9823H34.4267L33.7849 51.0535H30.2241L30.866 46.9823H27.8988L26.07 50.543L24 50.5C24.0785 49.9503 24.0655 49.3761 24.0509 48.735C24.0288 47.7614 24.0032 46.6333 24.2896 45.202C24.483 44.2355 23.1344 43.1861 21.7508 42.1095C19.7361 40.5418 17.6469 38.9162 20.1355 37.4042ZM24.7603 37.602C25.3797 39.6331 29.4206 40.0578 31.7016 38.987C31.8912 38.7053 32.1347 38.3755 32.3983 38.0185L32.3984 38.0184C33.429 36.6227 34.7661 34.8119 34.3785 33.8435C33.7701 32.3232 29.2242 30.8627 26.9323 31.4227C24.6403 31.9827 24.141 35.5709 24.7603 37.602ZM49.236 37.7377C48.7171 39.8066 44.4725 40.5066 41.9887 39.5939C40.9122 38.2778 38.6928 35.0902 39.1261 33.8435C39.6677 32.285 44.0644 31.3183 46.5255 31.7205C48.9866 32.1227 49.7549 35.6688 49.236 37.7377ZM36.1587 37.1075L33.7849 41.5583L36.5 42.1518H38.5325L36.1587 37.1075Z" fill="black" fill-opacity="0.2"/>
<path fill-rule="evenodd" clip-rule="evenodd" d="M18.1355 37.4042C19.8667 36.3524 20.3902 33.4758 21.0137 30.0496C22.3392 22.7665 24.1166 13 38.9062 13C51.2951 13 53.4795 22.2628 55.3046 30.0017C56.1333 33.5155 56.8879 36.7152 58.49 38.591C60.5702 41.0267 55.8756 42.3662 51.8326 43.5197C49.8364 44.0893 47.9991 44.6135 47.2145 45.202C46.4613 45.7668 46.7047 47.1064 46.9557 48.4879C47.0841 49.1947 47.2145 49.9124 47.2145 50.543L43.0604 51.0535L42.5153 46.9823H38.9062L39.5481 51.0535H35.3939V46.9823H32.4267L31.7849 51.0535H28.2241L28.866 46.9823H25.8988L24.07 50.543L21.1027 49.2731C21.1948 48.6283 21.3555 48.216 21.5489 47.7197C21.7708 47.1503 22.0358 46.4704 22.2896 45.202C22.483 44.2355 21.1344 43.1861 19.7508 42.1095C17.7361 40.5418 15.6469 38.9162 18.1355 37.4042ZM22.7603 37.602C23.3797 39.6331 27.4206 40.0578 29.7016 38.987C29.8912 38.7053 30.1347 38.3754 30.3984 38.0184C31.429 36.6227 32.7661 34.8119 32.3785 33.8435C31.7701 32.3232 27.2242 30.8627 24.9323 31.4227C22.6403 31.9827 22.141 35.5709 22.7603 37.602ZM47.236 37.7377C46.7171 39.8066 42.4725 40.5066 39.9887 39.5939C38.9122 38.2778 36.6928 35.0902 37.1261 33.8435C37.6677 32.285 42.0644 31.3183 44.5255 31.7205C46.9866 32.1227 47.7549 35.6688 47.236 37.7377ZM34.1587 37.1075L31.7849 41.5583L34.1587 40.9649L36.5325 42.1518L34.1587 37.1075Z" fill="#2FC4A7"/>
<path fill-rule="evenodd" clip-rule="evenodd" d="M18.1355 37.4042C19.8667 36.3524 20.3902 33.4758 21.0137 30.0496C22.3392 22.7665 24.1166 13 38.9062 13C51.2951 13 53.4795 22.2628 55.3046 30.0017C56.1333 33.5155 56.8879 36.7152 58.49 38.591C60.5702 41.0267 55.8756 42.3662 51.8326 43.5197C49.8364 44.0893 47.9991 44.6135 47.2145 45.202C46.4613 45.7668 46.7047 47.1064 46.9557 48.4879C47.0841 49.1947 47.2145 49.9124 47.2145 50.543L43.0604 51.0535L42.5153 46.9823H38.9062L39.5481 51.0535H35.3939V46.9823H32.4267L31.7849 51.0535H28.2241L28.866 46.9823H25.8988L24.07 50.543L21.1027 49.2731C21.1948 48.6283 21.3555 48.216 21.5489 47.7197C21.7708 47.1503 22.0358 46.4704 22.2896 45.202C22.483 44.2355 21.1344 43.1861 19.7508 42.1095C17.7361 40.5418 15.6469 38.9162 18.1355 37.4042ZM22.7603 37.602C23.3797 39.6331 27.4206 40.0578 29.7016 38.987C29.8912 38.7053 30.1347 38.3754 30.3984 38.0184C31.429 36.6227 32.7661 34.8119 32.3785 33.8435C31.7701 32.3232 27.2242 30.8627 24.9323 31.4227C22.6403 31.9827 22.141 35.5709 22.7603 37.602ZM47.236 37.7377C46.7171 39.8066 42.4725 40.5066 39.9887 39.5939C38.9122 38.2778 36.6928 35.0902 37.1261 33.8435C37.6677 32.285 42.0644 31.3183 44.5255 31.7205C46.9866 32.1227 47.7549 35.6688 47.236 37.7377ZM34.1587 37.1075L31.7849 41.5583L34.1587 40.9649L36.5325 42.1518L34.1587 37.1075Z" fill="white" fill-opacity="0.4"/>
<path d="M41 4C37.4 4.8 33 5.33333 31 5.5L51 30.5L71.5 59C71.1667 55.8333 71.1 48.4 69.5 44C67.9 39.6 71.8333 30.6667 72.5 26.5L75 34V52L83 61L82.5 70L86.5 60C84.5 57.5 80.5 52 80.5 52C80.5 52 83 39.1667 84.5 34C83.5 26.5 81 11 79 9C76.5 6.5 54.5 0.5 53 0.5C51.5 0.5 45.5 3 41 4Z" fill="#898989"/>
<path d="M41 4C37.4 4.8 33 5.33333 31 5.5L51 30.5L71.5 59C71.1667 55.8333 71.1 48.4 69.5 44C67.9 39.6 71.8333 30.6667 72.5 26.5L75 34V52L83 61L82.5 70L86.5 60C84.5 57.5 80.5 52 80.5 52C80.5 52 83 39.1667 84.5 34C83.5 26.5 81 11 79 9C76.5 6.5 54.5 0.5 53 0.5C51.5 0.5 45.5 3 41 4Z" fill="black" fill-opacity="0.6"/>
<path d="M84.5 61L79.5 57L83 61V64L84.5 61Z" fill="#898989"/>
<path d="M84.5 61L79.5 57L83 61V64L84.5 61Z" fill="black" fill-opacity="0.8"/>
<path d="M72.5 26.5L70.5 18L69 26L60 27.5L66.5 33.5L69 42L72.5 26.5Z" fill="#898989"/>
<path d="M72.5 26.5L70.5 18L69 26L60 27.5L66.5 33.5L69 42L72.5 26.5Z" fill="black" fill-opacity="0.8"/>
<path d="M77.5 52L84.5 34L80.5 52L82 54L77.5 52Z" fill="#898989"/>
<path d="M77.5 52L84.5 34L80.5 52L82 54L77.5 52Z" fill="black" fill-opacity="0.8"/>
<path d="M78.5 32.5L73 28L75 34V47L78.5 32.5Z" fill="#898989"/>
<path d="M78.5 32.5L73 28L75 34V47L78.5 32.5Z" fill="black" fill-opacity="0.8"/>
<path d="M41 4C37.4 4.8 33 5.33333 31 5.5L51 30.5L71.5 59C71.1667 55.8333 71.1 48.4 69.5 44C67.9 39.6 71.8333 30.6667 72.5 26.5L75 34V52L83 61L82.5 70L86.5 60C84.5 57.5 80.5 52 80.5 52C80.5 52 83 39.1667 84.5 34C83.5 26.5 81 11 79 9C76.5 6.5 54.5 0.5 53 0.5C51.5 0.5 45.5 3 41 4Z" stroke="#898989" stroke-linejoin="round"/>
<path fill-rule="evenodd" clip-rule="evenodd" d="M29.5 4.99999C21.4 6.79995 18.8 12.3108 17 19.5108C16.4749 21.6114 15.9937 24.0216 15.5188 26.4C14.7207 30.3979 13.9405 34.3055 13 36.5C12.6443 37.3299 12.2044 38.2137 11.7401 39.1464C10.246 42.1475 8.5 45.655 8.5 49.5C8.5 58 15.1 67.9892 20.5 71C27.5308 74.9202 34 88.5 36.5001 94C36.7775 93.6671 37.3399 92.8631 38.1114 91.7601C41.5119 86.8983 48.9748 76.2284 54.0001 74.5C56.6954 73.573 58.7364 73.441 60.5106 73.3263C63.5415 73.1304 65.7938 72.9848 69.2 69.0109C74.6 62.7109 72.8 54.6108 66.5 47.4108C60.2 40.2108 54.3055 29.9182 49.5 21.5C43.4999 10.9892 37.6 3.20002 29.5 4.99999ZM36.5001 94C36.4175 93.6695 36.3163 93.2353 36.1949 92.7143C34.9938 87.5598 31.8115 73.9032 25.0001 68C15.7495 59.9828 11.946 50.0153 15.5 43.5C18.5002 38 20.0304 32.2408 20.9999 24C21.9999 15.5 27.1999 9.70002 33.4999 11.5C35.2999 11.7534 39.4001 15.3 43.0001 22.5C43.3205 23.1408 43.66 23.8248 44.0152 24.5406C46.8534 30.2595 50.7006 38.0115 53.9001 42.0109C57.5001 46.5108 60.8924 51.9108 62.0001 59.1108C63.0802 66.1313 59.6855 67.2685 55.6024 68.6364C53.4042 69.3728 51.0066 70.176 49.0001 72C43.8084 76.7198 38.082 90.2609 36.6994 93.5303C36.6173 93.7244 36.5506 93.8823 36.5001 94Z" fill="#898989"/>
<path fill-rule="evenodd" clip-rule="evenodd" d="M29.5 4.99999C21.4 6.79995 18.8 12.3108 17 19.5108C16.4749 21.6114 15.9937 24.0216 15.5188 26.4C14.7207 30.3979 13.9405 34.3055 13 36.5C12.6443 37.3299 12.2044 38.2137 11.7401 39.1464C10.246 42.1475 8.5 45.655 8.5 49.5C8.5 58 15.1 67.9892 20.5 71C27.5308 74.9202 34 88.5 36.5001 94C36.7775 93.6671 37.3399 92.8631 38.1114 91.7601C41.5119 86.8983 48.9748 76.2284 54.0001 74.5C56.6954 73.573 58.7364 73.441 60.5106 73.3263C63.5415 73.1304 65.7938 72.9848 69.2 69.0109C74.6 62.7109 72.8 54.6108 66.5 47.4108C60.2 40.2108 54.3055 29.9182 49.5 21.5C43.4999 10.9892 37.6 3.20002 29.5 4.99999ZM36.5001 94C36.4175 93.6695 36.3163 93.2353 36.1949 92.7143C34.9938 87.5598 31.8115 73.9032 25.0001 68C15.7495 59.9828 11.946 50.0153 15.5 43.5C18.5002 38 20.0304 32.2408 20.9999 24C21.9999 15.5 27.1999 9.70002 33.4999 11.5C35.2999 11.7534 39.4001 15.3 43.0001 22.5C43.3205 23.1408 43.66 23.8248 44.0152 24.5406C46.8534 30.2595 50.7006 38.0115 53.9001 42.0109C57.5001 46.5108 60.8924 51.9108 62.0001 59.1108C63.0802 66.1313 59.6855 67.2685 55.6024 68.6364C53.4042 69.3728 51.0066 70.176 49.0001 72C43.8084 76.7198 38.082 90.2609 36.6994 93.5303C36.6173 93.7244 36.5506 93.8823 36.5001 94Z" fill="black" fill-opacity="0.2"/>
</g>
<defs>
<clipPath id="clip0_3578_30638">
<rect width="100" height="100" fill="white"/>
</clipPath>
</defs>
</svg>
