<svg width="100" height="101" viewBox="0 0 100 101" fill="none" xmlns="http://www.w3.org/2000/svg">
<ellipse rx="29.5934" ry="4.03547" transform="matrix(-0.975435 0.220287 0.220287 0.975435 50.1397 31.2692)" fill="#7445B8"/>
<path d="M60.1208 63.196C59.4288 60.7824 56.2413 51.4504 58.8948 48.6L60.8948 49.1C63.834 54.7612 67.3948 61.6 70.3949 64.6C73.3949 67.6 71.8948 77.1 67.8947 83.1L60.1208 84.1C54.7868 77.6614 60.6744 65.1269 60.1208 63.196Z" fill="#7445B8"/>
<path d="M60.1208 63.196C59.4288 60.7824 56.2413 51.4504 58.8948 48.6L60.8948 49.1C63.834 54.7612 67.3948 61.6 70.3949 64.6C73.3949 67.6 71.8948 77.1 67.8947 83.1L60.1208 84.1C54.7868 77.6614 60.6744 65.1269 60.1208 63.196Z" fill="white" fill-opacity="0.8"/>
<path d="M37 25.2833C37.9674 23.8425 42.7443 21.6009 46.9768 20L68.7778 22.1133C69.7855 23.1139 71.7674 25.4029 72.3721 27.8042C72.8968 29.8878 72.3721 32.6067 71.7674 33.8074C72.7752 34.2076 74.0572 36.4914 74.4128 38.61C75.0174 42.2119 73.9845 42.8122 73.5814 44.6132C74.3876 45.8138 76 46.4141 76 50.0161C76 52.6023 74.186 55.0187 72.9767 55.419C73.3798 56.6196 74.2196 61.8345 68.7778 65.4364C62.7196 69.4463 33.7112 71.5841 29.7125 68.6064C25.7137 65.6287 26.8218 61.122 27.0233 60.2215C26.0155 59.5212 24 57.8202 24 54.2183C24 50.6164 25.8139 50.0161 26.4186 49.4157C25.6124 48.2151 24.6046 46.4141 25.2093 43.4125C25.814 40.4109 27.2248 39.4104 28.2326 38.61C27.8295 37.6094 28.745 35.0812 29.7125 32.6799C30.9218 29.6783 35.7907 27.0843 37 25.2833Z" fill="#D0333D"/>
<path d="M37 25.2833C37.9674 23.8425 42.7443 21.6009 46.9768 20L68.7778 22.1133C69.7855 23.1139 71.7674 25.4029 72.3721 27.8042C72.8968 29.8878 72.3721 32.6067 71.7674 33.8074C72.7752 34.2076 74.0572 36.4914 74.4128 38.61C75.0174 42.2119 73.9845 42.8122 73.5814 44.6132C74.3876 45.8138 76 46.4141 76 50.0161C76 52.6023 74.186 55.0187 72.9767 55.419C73.3798 56.6196 74.2196 61.8345 68.7778 65.4364C62.7196 69.4463 33.7112 71.5841 29.7125 68.6064C25.7137 65.6287 26.8218 61.122 27.0233 60.2215C26.0155 59.5212 24 57.8202 24 54.2183C24 50.6164 25.8139 50.0161 26.4186 49.4157C25.6124 48.2151 24.6046 46.4141 25.2093 43.4125C25.814 40.4109 27.2248 39.4104 28.2326 38.61C27.8295 37.6094 28.745 35.0812 29.7125 32.6799C30.9218 29.6783 35.7907 27.0843 37 25.2833Z" fill="black" fill-opacity="0.2"/>
<path d="M69.9761 95.0349C68.1225 80.5773 63.119 51.3242 60.8948 49.1C56.4463 47.5517 46.0655 47.2137 41.6171 48.8818C39.8377 51.5509 32.9055 81.3187 29.3838 95.5909C33.8322 97.379 38.8368 100.159 51.6261 100.159C59.967 100.159 67.1958 96.823 69.9761 95.0349Z" fill="#7445B8"/>
<path d="M69.9761 95.0349C68.1225 80.5773 63.119 51.3242 60.8948 49.1C56.4463 47.5517 46.0655 47.2137 41.6171 48.8818C39.8377 51.5509 32.9055 81.3187 29.3838 95.5909C33.8322 97.379 38.8368 100.159 51.6261 100.159C59.967 100.159 67.1958 96.823 69.9761 95.0349Z" fill="white" fill-opacity="0.4"/>
<path d="M46.4198 60.8771C45.9849 61.1887 44.1035 61.4722 43.2172 61.575L47.85 54.2615L47.2828 53.4701C46.8999 53.3385 46.7245 53.3395 46.5501 53.5959L42.2127 61.8956L57.2533 82.8823C57.9032 83.2151 61.5798 82.1437 62.1235 81.7541C62.5584 81.4424 70.3461 74.7438 74.38 71.1872C74.9099 70.6774 74.9974 70.3773 74.6283 69.8114L60.6369 50.2887C60.403 49.7137 59.7066 49.6973 59.2542 50.0817C55.2479 53.4853 46.8547 60.5654 46.4198 60.8771Z" fill="#2FC4A7"/>
<path d="M46.4198 60.8771C45.9849 61.1887 44.1035 61.4722 43.2172 61.575L47.85 54.2615L47.2828 53.4701C46.8999 53.3385 46.7245 53.3395 46.5501 53.5959L42.2127 61.8956L57.2533 82.8823C57.9032 83.2151 61.5798 82.1437 62.1235 81.7541C62.5584 81.4424 70.3461 74.7438 74.38 71.1872C74.9099 70.6774 74.9974 70.3773 74.6283 69.8114L60.6369 50.2887C60.403 49.7137 59.7066 49.6973 59.2542 50.0817C55.2479 53.4853 46.8547 60.5654 46.4198 60.8771Z" fill="white" fill-opacity="0.95"/>
<path fill-rule="evenodd" clip-rule="evenodd" d="M43.2172 61.575C44.1035 61.4722 45.9849 61.1887 46.4198 60.8771C46.8547 60.5654 55.2479 53.4853 59.2542 50.0817C59.7066 49.6973 60.403 49.7137 60.6369 50.2887L74.6283 69.8114C74.9974 70.3773 74.9098 70.6774 74.38 71.1872C70.3461 74.7438 62.5584 81.4424 62.1235 81.7541C61.5798 82.1437 57.9032 83.2151 57.2533 82.8823L54.1294 78.5234C54.4889 78.5078 54.9239 78.4619 55.3776 78.3785C56.2087 78.2257 57.1614 77.9369 57.8704 77.4287C58.0161 77.3243 58.0496 77.1215 57.9452 76.9758C57.8407 76.8301 57.638 76.7966 57.4923 76.9011C56.8966 77.3279 56.053 77.5943 55.2603 77.7401C54.5836 77.8645 53.9866 77.8935 53.6653 77.8758L50.2975 73.1767C50.6902 73.1519 51.1252 73.1015 51.5587 73.0271C52.4821 72.8686 53.4817 72.5875 54.089 72.1523C54.2347 72.0479 54.2681 71.8451 54.1637 71.6994C54.0593 71.5537 53.8565 71.5202 53.7108 71.6247C53.2308 71.9687 52.3573 72.2314 51.4489 72.3873C50.8561 72.4891 50.284 72.5396 49.8447 72.5449L46.2078 67.4701C47.2728 67.4696 48.791 67.2276 50.0647 66.6433C50.2276 66.5685 50.2991 66.3759 50.2244 66.2129C50.1496 66.05 49.957 65.9785 49.794 66.0532C48.3806 66.7016 46.6365 66.8903 45.7275 66.8L42.2127 61.8956L46.5501 53.5959C46.7244 53.3395 46.8999 53.3385 47.2828 53.4701L47.85 54.2615L43.2172 61.575ZM59.9197 51.6013C59.8664 51.5269 59.7841 51.4785 59.6932 51.468C59.6023 51.4574 59.5111 51.4858 59.4422 51.5461L49.3259 60.3934C49.2001 60.5034 49.1784 60.691 49.2758 60.8268L62.5109 79.2942C62.5642 79.3686 62.6465 79.417 62.7374 79.4276C62.8283 79.4381 62.9195 79.4097 62.9884 79.3494L73.1047 70.5021C73.2304 70.3921 73.2521 70.2045 73.1548 70.0687L59.9197 51.6013ZM62.8302 78.6254L49.975 60.6881L59.6004 52.2701L72.4555 70.2074L62.8302 78.6254ZM47.7944 61.0899C47.69 60.9441 47.4872 60.9107 47.3415 61.0151C47.1958 61.1195 47.1623 61.3223 47.2668 61.468L61.4472 81.2545C61.5516 81.4002 61.7544 81.4336 61.9001 81.3292C62.0458 81.2248 62.0793 81.022 61.9748 80.8763L47.7944 61.0899Z" fill="#7445B8"/>
<path fill-rule="evenodd" clip-rule="evenodd" d="M43.2172 61.575C44.1035 61.4722 45.9849 61.1887 46.4198 60.8771C46.8547 60.5654 55.2479 53.4853 59.2542 50.0817C59.7066 49.6973 60.403 49.7137 60.6369 50.2887L74.6283 69.8114C74.9974 70.3773 74.9098 70.6774 74.38 71.1872C70.3461 74.7438 62.5584 81.4424 62.1235 81.7541C61.5798 82.1437 57.9032 83.2151 57.2533 82.8823L54.1294 78.5234C54.4889 78.5078 54.9239 78.4619 55.3776 78.3785C56.2087 78.2257 57.1614 77.9369 57.8704 77.4287C58.0161 77.3243 58.0496 77.1215 57.9452 76.9758C57.8407 76.8301 57.638 76.7966 57.4923 76.9011C56.8966 77.3279 56.053 77.5943 55.2603 77.7401C54.5836 77.8645 53.9866 77.8935 53.6653 77.8758L50.2975 73.1767C50.6902 73.1519 51.1252 73.1015 51.5587 73.0271C52.4821 72.8686 53.4817 72.5875 54.089 72.1523C54.2347 72.0479 54.2681 71.8451 54.1637 71.6994C54.0593 71.5537 53.8565 71.5202 53.7108 71.6247C53.2308 71.9687 52.3573 72.2314 51.4489 72.3873C50.8561 72.4891 50.284 72.5396 49.8447 72.5449L46.2078 67.4701C47.2728 67.4696 48.791 67.2276 50.0647 66.6433C50.2276 66.5685 50.2991 66.3759 50.2244 66.2129C50.1496 66.05 49.957 65.9785 49.794 66.0532C48.3806 66.7016 46.6365 66.8903 45.7275 66.8L42.2127 61.8956L46.5501 53.5959C46.7244 53.3395 46.8999 53.3385 47.2828 53.4701L47.85 54.2615L43.2172 61.575ZM59.9197 51.6013C59.8664 51.5269 59.7841 51.4785 59.6932 51.468C59.6023 51.4574 59.5111 51.4858 59.4422 51.5461L49.3259 60.3934C49.2001 60.5034 49.1784 60.691 49.2758 60.8268L62.5109 79.2942C62.5642 79.3686 62.6465 79.417 62.7374 79.4276C62.8283 79.4381 62.9195 79.4097 62.9884 79.3494L73.1047 70.5021C73.2304 70.3921 73.2521 70.2045 73.1548 70.0687L59.9197 51.6013ZM62.8302 78.6254L49.975 60.6881L59.6004 52.2701L72.4555 70.2074L62.8302 78.6254ZM47.7944 61.0899C47.69 60.9441 47.4872 60.9107 47.3415 61.0151C47.1958 61.1195 47.1623 61.3223 47.2668 61.468L61.4472 81.2545C61.5516 81.4002 61.7544 81.4336 61.9001 81.3292C62.0458 81.2248 62.0793 81.022 61.9748 80.8763L47.7944 61.0899Z" fill="white" fill-opacity="0.2"/>
<path d="M47.3468 53.7621L43.1209 61.515C43.9702 61.6621 44.6496 61.6813 46.282 60.9818L58.5787 50.673C57.6123 50.8407 55.079 51.1339 53.1242 51.59C51.1694 52.0462 48.4581 53.2281 47.3468 53.7621Z" fill="#898989"/>
<path d="M47.3468 53.7621L43.1209 61.515C43.9702 61.6621 44.6496 61.6813 46.282 60.9818L58.5787 50.673C57.6123 50.8407 55.079 51.1339 53.1242 51.59C51.1694 52.0462 48.4581 53.2281 47.3468 53.7621Z" fill="white" fill-opacity="0.6"/>
<path d="M67.5754 68.2271C68.2248 66.8588 68.3336 65.4956 67.4939 64.2415C67.4023 65.1903 66.7517 65.8053 66.7517 65.8053C66.6566 64.494 66.7482 63.5452 65.5362 62.3196C65.6314 63.6308 65.0735 64.0504 64.5157 64.4698C64.4217 63.912 64.4206 63.1586 63.9543 62.6293C63.5832 63.4112 62.819 64.6434 62.4479 65.4253C61.984 66.4027 62.6025 68.123 64 68.9577C65.3976 69.7924 67.1023 69.2239 67.5754 68.2271Z" fill="#7445B8"/>
<path d="M67.5754 68.2271C68.2248 66.8588 68.3336 65.4956 67.4939 64.2415C67.4023 65.1903 66.7517 65.8053 66.7517 65.8053C66.6566 64.494 66.7482 63.5452 65.5362 62.3196C65.6314 63.6308 65.0735 64.0504 64.5157 64.4698C64.4217 63.912 64.4206 63.1586 63.9543 62.6293C63.5832 63.4112 62.819 64.6434 62.4479 65.4253C61.984 66.4027 62.6025 68.123 64 68.9577C65.3976 69.7924 67.1023 69.2239 67.5754 68.2271Z" fill="white" fill-opacity="0.4"/>
<path d="M67.0394 68.2979C67.6003 67.1162 67.7023 65.9437 66.9986 64.8734C66.9141 65.6896 66.3576 66.224 66.3576 66.224C66.2861 65.0979 66.3706 64.2817 65.3507 63.2392C65.4222 64.3652 64.9458 64.7307 64.4693 65.0962C64.3936 64.6176 64.3979 63.9702 64.006 63.5195C63.6855 64.1947 63.0282 65.2606 62.7077 65.9359C62.3071 66.78 62.8197 68.2529 63.9999 68.9577C65.18 69.6625 66.6308 69.1587 67.0394 68.2979Z" fill="#7445B8"/>
<path d="M67.0394 68.2979C67.6003 67.1162 67.7023 65.9437 66.9986 64.8734C66.9141 65.6896 66.3576 66.224 66.3576 66.224C66.2861 65.0979 66.3706 64.2817 65.3507 63.2392C65.4222 64.3652 64.9458 64.7307 64.4693 65.0962C64.3936 64.6176 64.3979 63.9702 64.006 63.5195C63.6855 64.1947 63.0282 65.2606 62.7077 65.9359C62.3071 66.78 62.8197 68.2529 63.9999 68.9577C65.18 69.6625 66.6308 69.1587 67.0394 68.2979Z" fill="white" fill-opacity="0.8"/>
<path d="M66.1027 68.3068C66.4569 67.5604 66.512 66.8143 66.0427 66.1235C65.9956 66.6427 65.6379 66.9765 65.6379 66.9765C65.5803 66.2579 65.6275 65.7387 64.9523 65.0617C65.0098 65.7803 64.7027 66.0074 64.3956 66.2346C64.3415 65.9286 64.3381 65.516 64.0781 65.2239C63.8757 65.6504 63.4575 66.3217 63.255 66.7482C63.002 67.2813 63.3507 68.2264 64.1271 68.6901C64.9035 69.1538 65.8446 68.8504 66.1027 68.3068Z" fill="#FAA21E"/>
<path d="M66.1027 68.3068C66.4569 67.5604 66.512 66.8143 66.0427 66.1235C65.9956 66.6427 65.6379 66.9765 65.6379 66.9765C65.5803 66.2579 65.6275 65.7387 64.9523 65.0617C65.0098 65.7803 64.7027 66.0074 64.3956 66.2346C64.3415 65.9286 64.3381 65.516 64.0781 65.2239C63.8757 65.6504 63.4575 66.3217 63.255 66.7482C63.002 67.2813 63.3507 68.2264 64.1271 68.6901C64.9035 69.1538 65.8446 68.8504 66.1027 68.3068Z" fill="white" fill-opacity="0.95"/>
<path d="M59.9453 58.3237C61.1589 58.1507 62.6036 58.8737 63.0658 60.666C63.5279 62.4582 62.1804 63.7987 60.9273 63.7581C59.0946 63.6989 57.3541 61.945 56.025 61.67C57.123 61.0489 57.9515 58.6081 59.9453 58.3237Z" fill="#7445B8"/>
<path d="M59.9453 58.3237C61.1589 58.1507 62.6036 58.8737 63.0658 60.666C63.5279 62.4582 62.1804 63.7987 60.9273 63.7581C59.0946 63.6989 57.3541 61.945 56.025 61.67C57.123 61.0489 57.9515 58.6081 59.9453 58.3237Z" fill="white" fill-opacity="0.6"/>
<path d="M58.685 61.4821C58.2838 61.2432 57.8915 60.8397 57.6597 61.2975C57.4278 61.7553 58.0253 62.1942 58.4265 62.4332C58.9339 62.7354 59.639 62.9849 59.8708 62.5277C60.1798 61.9181 59.0862 61.721 58.685 61.4821Z" fill="#FEFEFE"/>
<path d="M60.3948 62.2381C60.2756 62.4259 60.1981 62.7798 60.4005 62.9242C60.603 63.0689 60.9902 63.1542 61.0854 63.0039C61.2045 62.8159 61.3659 62.5223 61.0798 62.3178C60.8773 62.173 60.4791 62.1053 60.3948 62.2381Z" fill="#FEFEFE"/>
<path d="M62.589 60.7473C62.8328 61.6927 62.0497 62.5162 61.6277 62.8097C61.7685 62.4979 61.9978 61.6717 61.7889 60.8614C61.5799 60.051 61.0625 59.3313 60.8299 59.0727C61.3147 59.237 62.3452 59.8018 62.589 60.7473Z" fill="#FEFEFE" fill-opacity="0.15"/>
<path d="M62.589 60.7473C62.8328 61.6927 62.0497 62.5162 61.6277 62.8097C61.7685 62.4979 61.9978 61.6717 61.7889 60.8614C61.5799 60.051 61.0625 59.3313 60.8299 59.0727C61.3147 59.237 62.3452 59.8018 62.589 60.7473Z" fill="#FEFEFE" fill-opacity="0.15"/>
<path d="M62.589 60.7473C62.8328 61.6927 62.0497 62.5162 61.6277 62.8097C61.7685 62.4979 61.9978 61.6717 61.7889 60.8614C61.5799 60.051 61.0625 59.3313 60.8299 59.0727C61.3147 59.237 62.3452 59.8018 62.589 60.7473Z" fill="#FEFEFE" fill-opacity="0.15"/>
<path d="M59.7439 64.7961C58.0438 63.2407 56.0593 63.3213 55.1017 63.6049C55.1884 64.9379 55.4112 67.038 57.2298 68.5137C59.0484 69.9895 60.8642 70.0993 62.6279 69.4092C61.5159 68.2039 61.2091 66.1367 59.7439 64.7961Z" fill="#FAA21E"/>
<path d="M59.7439 64.7961C58.0438 63.2407 56.0593 63.3213 55.1017 63.6049C55.1884 64.9379 55.4112 67.038 57.2298 68.5137C59.0484 69.9895 60.8642 70.0993 62.6279 69.4092C61.5159 68.2039 61.2091 66.1367 59.7439 64.7961Z" fill="white" fill-opacity="0.95"/>
<path fill-rule="evenodd" clip-rule="evenodd" d="M59.3981 67.8041C59.1308 67.59 58.7353 67.1473 58.4883 66.8471C58.7234 66.6718 59.0783 66.4554 59.4966 66.301C59.8912 66.1553 60.3329 66.0682 60.779 66.115C61.0293 66.5413 61.2395 66.9856 61.4447 67.4195C61.4858 67.5063 61.5267 67.5927 61.5676 67.6784C61.3307 67.6966 61.0953 67.7724 60.8871 67.8651C60.5976 67.9939 60.3366 68.166 60.1567 68.3072C59.8871 68.1576 59.6501 68.0059 59.3981 67.8041ZM61.7405 68.0335C61.5267 68.0238 61.2835 68.0881 61.0413 68.1959C60.8459 68.2828 60.6636 68.3924 60.5163 68.4952C61.1768 68.8196 61.884 69.0588 62.4599 69.2134C62.182 68.8661 61.955 68.4625 61.7405 68.0335ZM62.2905 69.5311C61.6884 69.3635 60.9651 69.1108 60.2928 68.7703C60.2712 68.9117 60.2806 69.0974 60.3241 69.2992C60.3656 69.4919 60.4331 69.6747 60.5118 69.8176C61.1089 69.8282 61.7024 69.7258 62.2905 69.5311ZM60.1259 69.7948C59.5392 69.7358 58.9493 69.5638 58.3581 69.2594C58.3358 69.2114 58.3146 69.1583 58.2947 69.1001C58.2211 68.8841 58.1736 68.6199 58.1555 68.3424C58.1265 67.897 58.1747 67.4494 58.2866 67.134C58.5433 67.4409 58.922 67.8599 59.1992 68.0819C59.4587 68.2898 59.7029 68.4477 59.9699 68.5978C59.9144 68.8247 59.933 69.102 59.9873 69.354C60.0193 69.5023 60.0661 69.6537 60.1259 69.7948ZM57.9126 69.0048C57.8593 68.797 57.8259 68.5702 57.811 68.3418C57.7758 67.8022 57.8423 67.2128 58.0322 66.8198C57.6354 66.3288 57.1642 65.7666 56.6844 65.276C56.4502 65.6856 56.3147 66.1992 56.2719 66.7044C56.2474 66.9933 56.2538 67.272 56.2862 67.5203C56.54 67.8702 56.8502 68.2056 57.2299 68.5137C57.4575 68.6984 57.6851 68.8618 57.9126 69.0048ZM55.9129 66.9259C55.915 66.8339 55.92 66.7414 55.9279 66.6487C55.9759 66.0817 56.1331 65.4886 56.4215 65.0146C55.9467 64.5509 55.4845 64.1265 55.1152 63.7998C55.1798 64.6803 55.3254 65.8371 55.9129 66.9259ZM55.3396 63.5438C55.7058 63.8681 56.1595 64.2848 56.6264 64.74C56.8408 64.5009 57.1689 64.2183 57.5752 64.0118C57.7533 63.9212 57.9481 63.8445 58.1562 63.7928C57.0696 63.3615 56.0264 63.3925 55.3396 63.5438ZM58.7596 64.0805C58.3909 64.078 58.0466 64.1818 57.744 64.3356C57.3737 64.5239 57.0749 64.7831 56.8847 64.9957C57.3767 65.495 57.8576 66.0666 58.2593 66.5626C58.5161 66.369 58.9032 66.1316 59.3612 65.9625C59.7172 65.8311 60.1227 65.7386 60.5469 65.7443C60.3197 65.4052 60.0585 65.0839 59.7439 64.7961C59.423 64.5025 59.0919 64.2671 58.7596 64.0805Z" fill="#7445B8"/>
<path fill-rule="evenodd" clip-rule="evenodd" d="M59.3981 67.8041C59.1308 67.59 58.7353 67.1473 58.4883 66.8471C58.7234 66.6718 59.0783 66.4554 59.4966 66.301C59.8912 66.1553 60.3329 66.0682 60.779 66.115C61.0293 66.5413 61.2395 66.9856 61.4447 67.4195C61.4858 67.5063 61.5267 67.5927 61.5676 67.6784C61.3307 67.6966 61.0953 67.7724 60.8871 67.8651C60.5976 67.9939 60.3366 68.166 60.1567 68.3072C59.8871 68.1576 59.6501 68.0059 59.3981 67.8041ZM61.7405 68.0335C61.5267 68.0238 61.2835 68.0881 61.0413 68.1959C60.8459 68.2828 60.6636 68.3924 60.5163 68.4952C61.1768 68.8196 61.884 69.0588 62.4599 69.2134C62.182 68.8661 61.955 68.4625 61.7405 68.0335ZM62.2905 69.5311C61.6884 69.3635 60.9651 69.1108 60.2928 68.7703C60.2712 68.9117 60.2806 69.0974 60.3241 69.2992C60.3656 69.4919 60.4331 69.6747 60.5118 69.8176C61.1089 69.8282 61.7024 69.7258 62.2905 69.5311ZM60.1259 69.7948C59.5392 69.7358 58.9493 69.5638 58.3581 69.2594C58.3358 69.2114 58.3146 69.1583 58.2947 69.1001C58.2211 68.8841 58.1736 68.6199 58.1555 68.3424C58.1265 67.897 58.1747 67.4494 58.2866 67.134C58.5433 67.4409 58.922 67.8599 59.1992 68.0819C59.4587 68.2898 59.7029 68.4477 59.9699 68.5978C59.9144 68.8247 59.933 69.102 59.9873 69.354C60.0193 69.5023 60.0661 69.6537 60.1259 69.7948ZM57.9126 69.0048C57.8593 68.797 57.8259 68.5702 57.811 68.3418C57.7758 67.8022 57.8423 67.2128 58.0322 66.8198C57.6354 66.3288 57.1642 65.7666 56.6844 65.276C56.4502 65.6856 56.3147 66.1992 56.2719 66.7044C56.2474 66.9933 56.2538 67.272 56.2862 67.5203C56.54 67.8702 56.8502 68.2056 57.2299 68.5137C57.4575 68.6984 57.6851 68.8618 57.9126 69.0048ZM55.9129 66.9259C55.915 66.8339 55.92 66.7414 55.9279 66.6487C55.9759 66.0817 56.1331 65.4886 56.4215 65.0146C55.9467 64.5509 55.4845 64.1265 55.1152 63.7998C55.1798 64.6803 55.3254 65.8371 55.9129 66.9259ZM55.3396 63.5438C55.7058 63.8681 56.1595 64.2848 56.6264 64.74C56.8408 64.5009 57.1689 64.2183 57.5752 64.0118C57.7533 63.9212 57.9481 63.8445 58.1562 63.7928C57.0696 63.3615 56.0264 63.3925 55.3396 63.5438ZM58.7596 64.0805C58.3909 64.078 58.0466 64.1818 57.744 64.3356C57.3737 64.5239 57.0749 64.7831 56.8847 64.9957C57.3767 65.495 57.8576 66.0666 58.2593 66.5626C58.5161 66.369 58.9032 66.1316 59.3612 65.9625C59.7172 65.8311 60.1227 65.7386 60.5469 65.7443C60.3197 65.4052 60.0585 65.0839 59.7439 64.7961C59.423 64.5025 59.0919 64.2671 58.7596 64.0805Z" fill="white" fill-opacity="0.6"/>
<ellipse rx="3.05863" ry="3.10804" transform="matrix(-0.997781 0.0665794 0.0665791 0.997781 47.1536 67.4048)" fill="#FAA21E"/>
<ellipse rx="3.05863" ry="3.10804" transform="matrix(-0.997781 0.0665794 0.0665791 0.997781 47.1536 67.4048)" fill="white" fill-opacity="0.8"/>
<ellipse rx="3.05863" ry="2.20407" transform="matrix(-0.832324 0.55429 0.554289 0.832324 67.0936 76.5028)" fill="#FAA21E"/>
<ellipse rx="3.05863" ry="2.20407" transform="matrix(-0.832324 0.55429 0.554289 0.832324 67.0936 76.5028)" fill="white" fill-opacity="0.8"/>
<path d="M29.9647 62.1916C30.9908 58.2805 38.5168 51.135 41.595 48.9C43.395 49.6 44.1082 53.1481 42.7176 55.6722C41.3271 58.1963 39.0625 60.389 39.473 61.73C39.8834 63.0709 44.3298 63.3091 46.895 63.8679C46.2461 70.4221 44.7872 75.1793 40.7385 85.1C36.0114 79.3625 29.128 65.3809 29.9647 62.1916Z" fill="#7445B8"/>
<path d="M29.9647 62.1916C30.9908 58.2805 38.5168 51.135 41.595 48.9C43.395 49.6 44.1082 53.1481 42.7176 55.6722C41.3271 58.1963 39.0625 60.389 39.473 61.73C39.8834 63.0709 44.3298 63.3091 46.895 63.8679C46.2461 70.4221 44.7872 75.1793 40.7385 85.1C36.0114 79.3625 29.128 65.3809 29.9647 62.1916Z" fill="white" fill-opacity="0.8"/>
<path d="M35.5774 33.3815C35.5774 41.6733 43.3623 49.5073 54.4834 48.3951C63.9364 47.4498 67.8289 41.6733 67.8289 33.3815C67.8289 25.0897 60.6091 18.3679 51.7031 18.3679C42.7972 18.3679 35.5774 25.0897 35.5774 33.3815Z" fill="#FAA21E"/>
<path d="M35.5774 33.3815C35.5774 41.6733 43.3623 49.5073 54.4834 48.3951C63.9364 47.4498 67.8289 41.6733 67.8289 33.3815C67.8289 25.0897 60.6091 18.3679 51.7031 18.3679C42.7972 18.3679 35.5774 25.0897 35.5774 33.3815Z" fill="white" fill-opacity="0.8"/>
<ellipse cx="47.5089" cy="41.7409" rx="3.17542" ry="2.64618" fill="#CE4317"/>
<ellipse cx="47.5089" cy="41.7409" rx="3.17542" ry="2.64618" fill="white" fill-opacity="0.8"/>
<path d="M66.3948 40.6C66.0773 41.8764 65.004 43.0111 63.8694 42.7289C62.7348 42.4468 62.0724 41.1833 62.3898 39.9069C62.7073 38.6304 63.8844 37.8245 65.019 38.1066C66.1536 38.3888 66.7122 39.3236 66.3948 40.6Z" fill="#CE4317"/>
<path d="M66.3948 40.6C66.0773 41.8764 65.004 43.0111 63.8694 42.7289C62.7348 42.4468 62.0724 41.1833 62.3898 39.9069C62.7073 38.6304 63.8844 37.8245 65.019 38.1066C66.1536 38.3888 66.7122 39.3236 66.3948 40.6Z" fill="white" fill-opacity="0.8"/>
<ellipse rx="2.22424" ry="3.33636" transform="matrix(-1 0 0 1 47.8107 36.1618)" fill="#2FC4A7"/>
<ellipse rx="2.22424" ry="3.33636" transform="matrix(-1 0 0 1 47.8107 36.1618)" fill="black" fill-opacity="0.4"/>
<ellipse rx="1.66818" ry="3.33636" transform="matrix(-1 0 0 1 63.9361 35.0497)" fill="#2FC4A7"/>
<ellipse rx="1.66818" ry="3.33636" transform="matrix(-1 0 0 1 63.9361 35.0497)" fill="black" fill-opacity="0.4"/>
<path d="M54.9443 28.0385C57.0612 27.5093 57.9433 26.098 58.1197 25.3924C58.6489 25.9216 59.2414 26.9959 61.2951 27.5093C63.4121 28.0385 64.6469 27.3329 64.9998 26.9801C65.1762 27.3329 65.529 29.2029 67.646 29.6263C69.7629 30.0496 67.1167 26.8037 67.1167 25.9216L63.4121 22.7462L56.0028 22.2169L35.3626 28.0385C33.7749 37.0356 35.8918 41.2694 42.2427 42.8572C38.538 39.1525 38.538 33.8601 40.6549 32.2724C41.8762 31.3565 42.9483 29.8027 43.3011 29.097C44.0068 29.6263 45.8414 30.5789 47.535 30.1555C49.2286 29.7321 50.3576 27.8621 50.7104 26.9801C51.4161 27.5093 53.6454 28.3633 54.9443 28.0385Z" fill="#D0333D"/>
<path d="M54.9443 28.0385C57.0612 27.5093 57.9433 26.098 58.1197 25.3924C58.6489 25.9216 59.2414 26.9959 61.2951 27.5093C63.4121 28.0385 64.6469 27.3329 64.9998 26.9801C65.1762 27.3329 65.529 29.2029 67.646 29.6263C69.7629 30.0496 67.1167 26.8037 67.1167 25.9216L63.4121 22.7462L56.0028 22.2169L35.3626 28.0385C33.7749 37.0356 35.8918 41.2694 42.2427 42.8572C38.538 39.1525 38.538 33.8601 40.6549 32.2724C41.8762 31.3565 42.9483 29.8027 43.3011 29.097C44.0068 29.6263 45.8414 30.5789 47.535 30.1555C49.2286 29.7321 50.3576 27.8621 50.7104 26.9801C51.4161 27.5093 53.6454 28.3633 54.9443 28.0385Z" fill="black" fill-opacity="0.2"/>
<path d="M59.1254 18.1918L78.474 24.1353C55.5366 24.759 43.3837 27.1252 21.7656 36.7559L37.7476 22.3659C38.072 17.6959 39.8477 10.7796 38.0361 10.0855C36.2246 9.39142 30.3514 15.8173 28.1293 20.2264C30.2949 13.5317 34.5161 2.39031 41.8639 0.73092C49.2117 -0.928473 56.1342 11.0529 59.1254 18.1918Z" fill="#7445B8"/>
<path d="M59.1254 18.1918L78.474 24.1353C55.5366 24.759 43.3837 27.1252 21.7656 36.7559L37.7476 22.3659C38.072 17.6959 39.8477 10.7796 38.0361 10.0855C36.2246 9.39142 30.3514 15.8173 28.1293 20.2264C30.2949 13.5317 34.5161 2.39031 41.8639 0.73092C49.2117 -0.928473 56.1342 11.0529 59.1254 18.1918Z" fill="white" fill-opacity="0.4"/>
<path d="M57.9401 15.485L59.1254 18.1919C51.7548 18.1241 47.0885 18.9981 37.6746 22.4215L38.1164 19.0479C46.403 15.9798 51.3334 15.039 57.9401 15.485Z" fill="#7445B8"/>
<path d="M57.9401 15.485L59.1254 18.1919C51.7548 18.1241 47.0885 18.9981 37.6746 22.4215L38.1164 19.0479C46.403 15.9798 51.3334 15.039 57.9401 15.485Z" fill="white" fill-opacity="0.8"/>
</svg>
