<svg width="100" height="100" viewBox="0 0 100 100" fill="none" xmlns="http://www.w3.org/2000/svg">
<g clip-path="url(#clip0_2041_10197)">
<path d="M35.7273 2.33333L45.6154 8.55556L49.1469 0L59.035 8.55556L73.1608 2.33333L70.3357 8.55556L86.5804 7L76.6923 14L91.5245 21.7778H80.2238L95.7622 32.6667H85.1678L97.8811 42.7778H89.4056L100 56.7778L86.5804 51.3333L100 67.6667L89.4056 64.5556L97.8811 78.5556L85.1678 72.3333L95.7622 90.2222L85.1678 86.3333L91.5245 102.667L82.3427 97.2222V112L73.1608 102.667L70.3357 117.444L62.5664 105L59.035 119L51.2657 108.889L47.028 117.444L39.965 106.556L35.7273 119L27.958 106.556L23.014 115.111L18.7762 97.2222L11.007 105L13.1259 78.5556L6.06294 86.3333L11.007 64.5556L1.82517 72.3333L11.007 50.5556L0 56.7778L13.1259 35.7778L1.82517 39.6667L16.6573 25.6667L6.06294 24.1111L25.8392 17.1111L15.951 10.8889H30.7832L25.8392 4.66667L39.965 8.55556L35.7273 2.33333Z" fill="#FAA21E"/>
<path d="M35.7273 2.33333L45.6154 8.55556L49.1469 0L59.035 8.55556L73.1608 2.33333L70.3357 8.55556L86.5804 7L76.6923 14L91.5245 21.7778H80.2238L95.7622 32.6667H85.1678L97.8811 42.7778H89.4056L100 56.7778L86.5804 51.3333L100 67.6667L89.4056 64.5556L97.8811 78.5556L85.1678 72.3333L95.7622 90.2222L85.1678 86.3333L91.5245 102.667L82.3427 97.2222V112L73.1608 102.667L70.3357 117.444L62.5664 105L59.035 119L51.2657 108.889L47.028 117.444L39.965 106.556L35.7273 119L27.958 106.556L23.014 115.111L18.7762 97.2222L11.007 105L13.1259 78.5556L6.06294 86.3333L11.007 64.5556L1.82517 72.3333L11.007 50.5556L0 56.7778L13.1259 35.7778L1.82517 39.6667L16.6573 25.6667L6.06294 24.1111L25.8392 17.1111L15.951 10.8889H30.7832L25.8392 4.66667L39.965 8.55556L35.7273 2.33333Z" fill="black" fill-opacity="0.1"/>
<path d="M36.5668 6.19608L45.8733 12.0523L49.197 4L58.5035 12.0523L71.7984 6.19608L69.1395 12.0523L84.4286 11L75.1222 17.1765L89.0819 24.4967H78.4459L93.0703 34.7451H83.0991L95.0646 44.2614H87.0876L97.0588 57.4379L84.4286 52.3137L97.0588 67.6863L87.0876 64.7582L95.0646 77.9346L83.0991 72.0784L93.0703 88.915L83.0991 85.2549L89.0819 100.627L80.4401 95.5033V109.412L71.7984 100.627L69.1395 114.536L61.8272 102.824L58.5035 116L51.1913 106.484L47.2028 114.536L40.5553 104.288L36.5668 116L29.2546 104.288L24.6014 112.34L20.6129 95.5033L13.3007 102.824L15.2949 77.9346L8.64747 85.2549L13.3007 64.7582L4.65899 72.0784L13.3007 51.5817L2 57.4379L15.2949 37.6732L4.65899 41.3333L18.6187 28.1569L8.64747 26.6928L27.2604 20.1046L17.9539 14.2484H31.9136L27.2604 8.39216L40.5553 12.0523L36.5668 6.19608Z" fill="#FAA21E"/>
<path d="M37.6738 10.7907L46.1855 16.1468L49.2254 8.78217L57.7372 16.1468L69.8968 10.7907L67.4648 16.1468L81.4484 15L72.9367 20.8334L85.7043 27.5286H75.9766L89.3521 36.9018H80.2324L91.1761 45.6054H83.8803L93 57.6567L81.4484 52.9701L93 67.0299L83.8803 64.3518L91.1761 76.4031L80.2324 71.047L89.3521 86.4458L80.2324 83.0982L85.7043 97.158L77.8005 92.4714V105.192L69.8968 97.158L67.4648 109.879L60.7771 99.1666L57.7372 111.218L51.0494 102.514L47.4015 109.879L41.3217 100.506L37.6738 111.218L30.986 100.506L26.7302 107.87L23.0823 92.4714L16.3945 99.1666L18.2184 76.4031L12.1386 83.0982L16.3945 64.3518L8.49076 71.047L16.3945 52.3006L6.05884 57.6567L18.2184 39.5798L8.49076 42.9274L21.2583 30.8761L12.1386 29.5371L29.1621 23.5115L20.6504 18.1554H33.4179L29.1621 12.7992L41.3217 16.1468L37.6738 10.7907Z" fill="#FAA21E"/>
<path d="M37.6738 10.7907L46.1855 16.1468L49.2254 8.78217L57.7372 16.1468L69.8968 10.7907L67.4648 16.1468L81.4484 15L72.9367 20.8334L85.7043 27.5286H75.9766L89.3521 36.9018H80.2324L91.1761 45.6054H83.8803L93 57.6567L81.4484 52.9701L93 67.0299L83.8803 64.3518L91.1761 76.4031L80.2324 71.047L89.3521 86.4458L80.2324 83.0982L85.7043 97.158L77.8005 92.4714V105.192L69.8968 97.158L67.4648 109.879L60.7771 99.1666L57.7372 111.218L51.0494 102.514L47.4015 109.879L41.3217 100.506L37.6738 111.218L30.986 100.506L26.7302 107.87L23.0823 92.4714L16.3945 99.1666L18.2184 76.4031L12.1386 83.0982L16.3945 64.3518L8.49076 71.047L16.3945 52.3006L6.05884 57.6567L18.2184 39.5798L8.49076 42.9274L21.2583 30.8761L12.1386 29.5371L29.1621 23.5115L20.6504 18.1554H33.4179L29.1621 12.7992L41.3217 16.1468L37.6738 10.7907Z" fill="white" fill-opacity="0.2"/>
<path d="M38.7273 14.8431L46.4615 19.7582L49.2238 13L56.958 19.7582L68.007 14.8431L65.7972 19.7582L78.5035 18.5L70.7692 24.0588L82.3706 30.2026H73.5315L85.6853 38.8039H77.3986L87.3427 46.7909H80.7133L89 57.8497L78.5035 53.549L89 66.451L80.7133 63.9935L87.3427 75.0523L77.3986 70.1373L85.6853 84.268L77.3986 81.1961L82.3706 94.098L75.1888 89.7974V101.471L68.007 94.098L65.7972 105.771L59.7203 95.9412L56.958 107L50.8811 99.0131L47.5664 105.771L42.042 97.1699L38.7273 107L32.6504 97.1699L28.7832 103.928L25.4685 89.7974L19.3916 95.9412L21.049 75.0523L15.5245 81.1961L19.3916 63.9935L12.2098 70.1373L19.3916 52.9346L10 57.8497L21.049 41.2614L12.2098 44.3333L23.8112 33.2745L15.5245 32.0458L30.993 26.5163L23.2587 21.6013H34.8601L30.993 16.6863L42.042 19.7582L38.7273 14.8431Z" fill="#FAA21E"/>
<path d="M38.7273 14.8431L46.4615 19.7582L49.2238 13L56.958 19.7582L68.007 14.8431L65.7972 19.7582L78.5035 18.5L70.7692 24.0588L82.3706 30.2026H73.5315L85.6853 38.8039H77.3986L87.3427 46.7909H80.7133L89 57.8497L78.5035 53.549L89 66.451L80.7133 63.9935L87.3427 75.0523L77.3986 70.1373L85.6853 84.268L77.3986 81.1961L82.3706 94.098L75.1888 89.7974V101.471L68.007 94.098L65.7972 105.771L59.7203 95.9412L56.958 107L50.8811 99.0131L47.5664 105.771L42.042 97.1699L38.7273 107L32.6504 97.1699L28.7832 103.928L25.4685 89.7974L19.3916 95.9412L21.049 75.0523L15.5245 81.1961L19.3916 63.9935L12.2098 70.1373L19.3916 52.9346L10 57.8497L21.049 41.2614L12.2098 44.3333L23.8112 33.2745L15.5245 32.0458L30.993 26.5163L23.2587 21.6013H34.8601L30.993 16.6863L42.042 19.7582L38.7273 14.8431Z" fill="white" fill-opacity="0.4"/>
<circle cx="50" cy="54" r="25" fill="#1D8CE0"/>
<circle cx="50" cy="54" r="25" fill="white" fill-opacity="0.95"/>
<circle cx="50" cy="54" r="21.7391" fill="#FAA21E"/>
<circle cx="50" cy="54" r="21.7391" fill="black" fill-opacity="0.6"/>
<path d="M50 47.8406V35.5217M50 72.4783V60.1594M56.1594 54H68.4782M31.5217 54H43.8406M54.3554 58.3554L63.0661 67.0661M36.9339 40.9339L45.6446 49.6446M54.3554 49.6446L63.0661 40.9339M36.9339 67.0661L45.6446 58.3554M55.7246 51.7269L67.1739 47.1808M32.826 60.8191L44.2753 56.273M55.7192 56.2866L67.1578 60.8597M32.8422 47.1404L44.2807 51.7135M52.314 48.2918L56.9421 36.8754M43.0579 71.1246L47.686 59.7082M52.3929 59.6756L57.1787 71.0268M42.8213 36.9732L47.6071 48.3244" stroke="#FAA21E" stroke-width="1.8736" stroke-linecap="round"/>
<path d="M50 47.8406V35.5217M50 72.4783V60.1594M56.1594 54H68.4782M31.5217 54H43.8406M54.3554 58.3554L63.0661 67.0661M36.9339 40.9339L45.6446 49.6446M54.3554 49.6446L63.0661 40.9339M36.9339 67.0661L45.6446 58.3554M55.7246 51.7269L67.1739 47.1808M32.826 60.8191L44.2753 56.273M55.7192 56.2866L67.1578 60.8597M32.8422 47.1404L44.2807 51.7135M52.314 48.2918L56.9421 36.8754M43.0579 71.1246L47.686 59.7082M52.3929 59.6756L57.1787 71.0268M42.8213 36.9732L47.6071 48.3244" stroke="black" stroke-opacity="0.4" stroke-width="1.8736" stroke-linecap="round"/>
<circle cx="50" cy="54" r="8.69565" fill="#1D8CE0"/>
<circle cx="50" cy="54" r="8.69565" fill="black" fill-opacity="0.8"/>
<ellipse cx="36.382" cy="44.4968" rx="3.49965" ry="5.83276" transform="rotate(30 36.382 44.4968)" fill="#FEFEFE"/>
</g>
<defs>
<clipPath id="clip0_2041_10197">
<rect width="100" height="100" fill="white"/>
</clipPath>
</defs>
</svg>
