<svg width="100" height="100" viewBox="0 0 100 100" fill="none" xmlns="http://www.w3.org/2000/svg">
<path d="M13.1952 100H13.108C8.60648 100 3 100 3 95C3 90.6576 6 89.5 9 89.5C7 89 4 88.3251 4 83.5C4 79.2365 7.32555 77.5 9.5 77.5C6.15485 76.6958 6.00517e-06 75.5 0 67.5C-5.33767e-06 60.3892 5.6526 57.3834 9.25836 57.3678C7.09365 56.9097 4.66494 55.184 4.66494 51C4.66494 46.8527 7.03937 45.3876 9.33011 45.4687C6.0045 45.2821 1.65412 44.2415 1.65412 39.6874C1.65412 35.0554 6.33754 33.5758 8.67925 33.4149C6.83936 32.6108 3.51356 30.5349 4.66494 26.66C5.66851 23.2825 9.85002 23.2824 11.6899 24.2474C10.3518 21.0308 10.4287 15.2125 15.5 12C20.5001 8.83259 26.0743 10.4157 27.7469 12.6674C26.7434 9.6116 26.2416 2.92096 32.263 0.60496C38.2843 -1.71104 42.1313 3.17829 43.3022 5.91246C43.3022 4.30414 45.142 1.57001 48.8218 2.53501C52.245 3.43275 52.6284 6.41842 51.9918 7.99569C53.2982 5.4464 56.6886 2.06287 61 3.5C65.5 5 66.6708 9.93328 65.5 12.6674C65.5 12.6674 72 6.01876 78.5 10C85 13.9812 81.4376 22.8 81.4376 22.8C85.5 21 90.4697 23.379 92.4768 29.555C94.4839 35.731 90.3024 40.17 87.9607 41.6175C89.4661 41.135 93.4803 41.6175 94.4839 45.4775C95.6129 49.82 92.1423 51.7499 90.4697 51.7499C92.1423 52.0715 97.9035 53.5615 97.5 58C97 63.5 90.4697 62.6867 87.9607 62.365C91.4732 63.8125 97 66.16 97 75C97 83.0813 90.6495 87.1797 88.0674 87.446C91.7993 87.1448 100 87.7653 100 93.5C100 98.8075 91.1387 100 87.459 100H13.1952Z" fill="#1D8CE0"/>
<path d="M13.1952 100H13.108C8.60648 100 3 100 3 95C3 90.6576 6 89.5 9 89.5C7 89 4 88.3251 4 83.5C4 79.2365 7.32555 77.5 9.5 77.5C6.15485 76.6958 6.00517e-06 75.5 0 67.5C-5.33767e-06 60.3892 5.6526 57.3834 9.25836 57.3678C7.09365 56.9097 4.66494 55.184 4.66494 51C4.66494 46.8527 7.03937 45.3876 9.33011 45.4687C6.0045 45.2821 1.65412 44.2415 1.65412 39.6874C1.65412 35.0554 6.33754 33.5758 8.67925 33.4149C6.83936 32.6108 3.51356 30.5349 4.66494 26.66C5.66851 23.2825 9.85002 23.2824 11.6899 24.2474C10.3518 21.0308 10.4287 15.2125 15.5 12C20.5001 8.83259 26.0743 10.4157 27.7469 12.6674C26.7434 9.6116 26.2416 2.92096 32.263 0.60496C38.2843 -1.71104 42.1313 3.17829 43.3022 5.91246C43.3022 4.30414 45.142 1.57001 48.8218 2.53501C52.245 3.43275 52.6284 6.41842 51.9918 7.99569C53.2982 5.4464 56.6886 2.06287 61 3.5C65.5 5 66.6708 9.93328 65.5 12.6674C65.5 12.6674 72 6.01876 78.5 10C85 13.9812 81.4376 22.8 81.4376 22.8C85.5 21 90.4697 23.379 92.4768 29.555C94.4839 35.731 90.3024 40.17 87.9607 41.6175C89.4661 41.135 93.4803 41.6175 94.4839 45.4775C95.6129 49.82 92.1423 51.7499 90.4697 51.7499C92.1423 52.0715 97.9035 53.5615 97.5 58C97 63.5 90.4697 62.6867 87.9607 62.365C91.4732 63.8125 97 66.16 97 75C97 83.0813 90.6495 87.1797 88.0674 87.446C91.7993 87.1448 100 87.7653 100 93.5C100 98.8075 91.1387 100 87.459 100H13.1952Z" fill="white" fill-opacity="0.95"/>
<circle cx="49" cy="39" r="19" fill="#1D8CE0"/>
<circle cx="49" cy="39" r="19" fill="white" fill-opacity="0.6"/>
<circle cx="49" cy="39" r="16.5217" fill="#1D8CE0"/>
<circle cx="49" cy="39" r="16.5217" fill="black" fill-opacity="0.2"/>
<path d="M49.0001 34.3188V24.9565M49.0001 53.0435V43.6812M53.6813 39H63.0436M34.9567 39H44.319M52.3102 42.3101L58.9304 48.9302M39.0699 29.0698L45.6901 35.6899M52.3102 35.6899L58.9304 29.0698M39.0699 48.9302L45.6901 42.3101M53.3509 37.2725L62.0524 33.8174M35.9479 44.1826L44.6494 40.7275M53.3468 40.7378L62.0401 44.2133M35.9602 33.7867L44.6535 37.2622M50.7588 34.6618L54.2761 25.9853M43.7242 52.0147L47.2415 43.3382M50.8187 43.3135L54.456 51.9404M43.5443 26.0596L47.1815 34.6865" stroke="#1D8CE0" stroke-width="1.12416" stroke-linecap="round"/>
<path d="M49.0001 34.3188V24.9565M49.0001 53.0435V43.6812M53.6813 39H63.0436M34.9567 39H44.319M52.3102 42.3101L58.9304 48.9302M39.0699 29.0698L45.6901 35.6899M52.3102 35.6899L58.9304 29.0698M39.0699 48.9302L45.6901 42.3101M53.3509 37.2725L62.0524 33.8174M35.9479 44.1826L44.6494 40.7275M53.3468 40.7378L62.0401 44.2133M35.9602 33.7867L44.6535 37.2622M50.7588 34.6618L54.2761 25.9853M43.7242 52.0147L47.2415 43.3382M50.8187 43.3135L54.456 51.9404M43.5443 26.0596L47.1815 34.6865" stroke="white" stroke-opacity="0.2" stroke-width="1.12416" stroke-linecap="round"/>
<circle cx="49.0003" cy="39" r="6.6087" fill="#1D8CE0"/>
<circle cx="49.0003" cy="39" r="6.6087" fill="black" fill-opacity="0.8"/>
<ellipse cx="38.6502" cy="31.7776" rx="2.65974" ry="4.43289" transform="rotate(30 38.6502 31.7776)" fill="#1D8CE0"/>
<ellipse cx="38.6502" cy="31.7776" rx="2.65974" ry="4.43289" transform="rotate(30 38.6502 31.7776)" fill="white" fill-opacity="0.95"/>
<circle cx="49" cy="77" r="19" fill="#1D8CE0"/>
<circle cx="49" cy="77" r="19" fill="white" fill-opacity="0.6"/>
<circle cx="49" cy="77" r="16.5217" fill="#1D8CE0"/>
<circle cx="49" cy="77" r="16.5217" fill="black" fill-opacity="0.2"/>
<path d="M49.0001 72.3188V62.9565M49.0001 91.0435V81.6812M53.6813 77H63.0436M34.9567 77H44.319M52.3102 80.3101L58.9304 86.9302M39.0699 67.0698L45.6901 73.6899M52.3102 73.6899L58.9304 67.0698M39.0699 86.9302L45.6901 80.3101M53.3509 75.2725L62.0524 71.8174M35.9479 82.1826L44.6494 78.7275M53.3468 78.7378L62.0401 82.2133M35.9602 71.7867L44.6535 75.2622M50.7588 72.6618L54.2761 63.9853M43.7242 90.0147L47.2415 81.3382M50.8187 81.3135L54.456 89.9404M43.5443 64.0596L47.1815 72.6865" stroke="#1D8CE0" stroke-width="1.12416" stroke-linecap="round"/>
<path d="M49.0001 72.3188V62.9565M49.0001 91.0435V81.6812M53.6813 77H63.0436M34.9567 77H44.319M52.3102 80.3101L58.9304 86.9302M39.0699 67.0698L45.6901 73.6899M52.3102 73.6899L58.9304 67.0698M39.0699 86.9302L45.6901 80.3101M53.3509 75.2725L62.0524 71.8174M35.9479 82.1826L44.6494 78.7275M53.3468 78.7378L62.0401 82.2133M35.9602 71.7867L44.6535 75.2622M50.7588 72.6618L54.2761 63.9853M43.7242 90.0147L47.2415 81.3382M50.8187 81.3135L54.456 89.9404M43.5443 64.0596L47.1815 72.6865" stroke="white" stroke-opacity="0.2" stroke-width="1.12416" stroke-linecap="round"/>
<circle cx="49.0003" cy="77" r="6.6087" fill="#1D8CE0"/>
<circle cx="49.0003" cy="77" r="6.6087" fill="black" fill-opacity="0.8"/>
<ellipse cx="38.6502" cy="69.7776" rx="2.65974" ry="4.43289" transform="rotate(30 38.6502 69.7776)" fill="#1D8CE0"/>
<ellipse cx="38.6502" cy="69.7776" rx="2.65974" ry="4.43289" transform="rotate(30 38.6502 69.7776)" fill="white" fill-opacity="0.95"/>
</svg>
