<svg width="100" height="100" viewBox="0 0 100 100" fill="none" xmlns="http://www.w3.org/2000/svg">
<g clip-path="url(#clip0_2322_11050)">
<ellipse cx="48.7414" cy="31.6232" rx="29.4525" ry="4.01625" transform="rotate(8.87723 48.7414 31.6232)" fill="#CE4317"/>
<ellipse cx="48.7414" cy="31.6232" rx="29.4525" ry="4.01625" transform="rotate(8.87723 48.7414 31.6232)" fill="black" fill-opacity="0.5"/>
<path d="M39.5798 64.7334C40.3424 62.0735 43.0818 51.5431 40.5 48.5L38.5001 49C36.0001 52.5 33.0001 58 31.0001 61.5C29.0002 65 27.0001 67.5 24.5001 70.5L34 85.5C39.5341 78.3056 38.9697 66.8613 39.5798 64.7334Z" fill="#FAA21E"/>
<path d="M39.5798 64.7334C40.3424 62.0735 43.0818 51.5431 40.5 48.5L38.5001 49C36.0001 52.5 33.0001 58 31.0001 61.5C29.0002 65 27.0001 67.5 24.5001 70.5L34 85.5C39.5341 78.3056 38.9697 66.8613 39.5798 64.7334Z" fill="white" fill-opacity="0.2"/>
<path d="M30.197 94.9359C32.0417 80.5472 36.2846 51.2163 38.4982 49.0026C42.9255 47.4617 53.9938 47.3424 58.4211 49.0026C60.192 51.659 66.9951 81.2957 70.5 95.5C66.0727 97.2796 61.1881 100.036 48.4596 100.036C40.1585 100.036 32.9641 96.7155 30.197 94.9359Z" fill="#CE4317"/>
<path d="M30.197 94.9359C32.0417 80.5472 36.2846 51.2163 38.4982 49.0026C42.9255 47.4617 53.9938 47.3424 58.4211 49.0026C60.192 51.659 66.9951 81.2957 70.5 95.5C66.0727 97.2796 61.1881 100.036 48.4596 100.036C40.1585 100.036 32.9641 96.7155 30.197 94.9359Z" fill="black" fill-opacity="0.15"/>
<path d="M64.4324 33.5761C64.4324 41.8284 56.6846 49.6251 45.6164 48.5182C36.2084 47.5774 32.3345 41.8284 32.3345 33.5761C32.3345 25.3238 39.5198 18.6339 48.3834 18.6339C57.2471 18.6339 64.4324 25.3238 64.4324 33.5761Z" fill="#FAA21E"/>
<path d="M64.4324 33.5761C64.4324 41.8284 56.6846 49.6251 45.6164 48.5182C36.2084 47.5774 32.3345 41.8284 32.3345 33.5761C32.3345 25.3238 39.5198 18.6339 48.3834 18.6339C57.2471 18.6339 64.4324 25.3238 64.4324 33.5761Z" fill="white" fill-opacity="0.6"/>
<ellipse cx="52.2574" cy="36.3432" rx="2.21365" ry="3.32048" fill="#FAA21E"/>
<ellipse cx="52.2574" cy="36.3432" rx="2.21365" ry="3.32048" fill="black" fill-opacity="0.6"/>
<ellipse cx="36.2083" cy="35.2363" rx="1.66024" ry="3.32048" fill="#FAA21E"/>
<ellipse cx="36.2083" cy="35.2363" rx="1.66024" ry="3.32048" fill="black" fill-opacity="0.6"/>
<ellipse cx="64.3336" cy="38.0931" rx="3.04408" ry="2.76706" transform="rotate(3.81754 64.3336 38.0931)" fill="#FAA21E"/>
<ellipse cx="64.3336" cy="38.0931" rx="3.04408" ry="2.76706" transform="rotate(3.81754 64.3336 38.0931)" fill="white" fill-opacity="0.6"/>
<path d="M38.9448 19.2377L20.1287 26.432C42.9472 25.5191 55.173 27.0569 77.283 35.1759L60.4517 21.9544C59.8176 17.3388 57.5923 10.5896 59.3449 9.77933C61.0974 8.96907 67.3587 14.9576 69.8597 19.1873C67.2621 12.6842 62.3262 1.90288 54.919 0.745957C47.5118 -0.410964 41.4382 11.9489 38.9448 19.2377Z" fill="#CE4317"/>
<path d="M38.9448 19.2377L20.1287 26.432C42.9472 25.5191 55.173 27.0569 77.283 35.1759L60.4517 21.9544C59.8176 17.3388 57.5923 10.5896 59.3449 9.77933C61.0974 8.96907 67.3587 14.9576 69.8597 19.1873C67.2621 12.6842 62.3262 1.90288 54.919 0.745957C47.5118 -0.410964 41.4382 11.9489 38.9448 19.2377Z" fill="black" fill-opacity="0.15"/>
<path d="M39.941 16.4706L38.9448 19.2377C46.2592 18.678 50.9512 19.2342 60.5279 22.0047L59.8638 18.6842C51.4303 16.1913 46.4716 15.5864 39.941 16.4706Z" fill="#FAA21E"/>
<path d="M39.941 16.4706L38.9448 19.2377C46.2592 18.678 50.9512 19.2342 60.5279 22.0047L59.8638 18.6842C51.4303 16.1913 46.4716 15.5864 39.941 16.4706Z" fill="white" fill-opacity="0.2"/>
<path d="M33.9909 29.0101C31.345 30.3369 31.0011 33.3839 31.0001 35C31.5501 34.3463 31.9035 32.1541 33.5514 31.8038C35.364 31.4185 35.602 31.7276 36.6638 31.8616C37.7257 31.9956 38.6041 31.2666 38.3116 29.8901C37.9824 28.3415 35.8587 28.0736 33.9909 29.0101Z" fill="#898989"/>
<path d="M33.9909 29.0101C31.345 30.3369 31.0011 33.3839 31.0001 35C31.5501 34.3463 31.9035 32.1541 33.5514 31.8038C35.364 31.4185 35.602 31.7276 36.6638 31.8616C37.7257 31.9956 38.6041 31.2666 38.3116 29.8901C37.9824 28.3415 35.8587 28.0736 33.9909 29.0101Z" fill="white" fill-opacity="0.95"/>
<path d="M54.4794 29.8497C57.5642 31.3965 57.9989 35.1159 58 37C57.3588 36.2378 56.9131 33.5151 54.9918 33.1068C52.8785 32.6576 52.6011 33.0179 51.3631 33.1741C50.1251 33.3303 49.1009 32.4804 49.4421 30.8756C49.8258 29.0702 52.3018 28.7578 54.4794 29.8497Z" fill="#898989"/>
<path d="M54.4794 29.8497C57.5642 31.3965 57.9989 35.1159 58 37C57.3588 36.2378 56.9131 33.5151 54.9918 33.1068C52.8785 32.6576 52.6011 33.0179 51.3631 33.1741C50.1251 33.3303 49.1009 32.4804 49.4421 30.8756C49.8258 29.0702 52.3018 28.7578 54.4794 29.8497Z" fill="white" fill-opacity="0.95"/>
<path d="M38.4354 41.4273C35.779 41.4273 33.6023 38.8447 32.6799 37C32.9013 44.1944 35.5576 44.8585 35.1149 47.5148C34.5615 50.8353 33.4547 50.2819 33.4547 55.2626C33.4547 60.2433 35.6683 60.2433 35.6683 63.5638C35.6683 66.8843 32.3479 67.4377 31.241 71.3116C30.1342 75.1855 35.6683 79.0594 31.241 83.4867C28.474 86.2537 24.969 82.0109 24.6001 79.0594V79.0594C24.6001 80.1663 24.6001 82.3799 26.2603 84.5935C28.9374 88.1629 38.4354 87.914 42.3093 84.5935C46.1832 81.273 45.6298 79.6128 46.7366 76.8457C47.8434 74.0787 51.1639 73.5252 52.8242 70.2048C54.4844 66.8843 53.3775 64.1172 53.931 61.9036C54.4844 59.6899 57.2514 59.6899 58.3583 56.9229C59.3464 54.4527 57.9466 50.6602 58.5 49C59.0534 47.3398 61.1253 46.408 62.2321 43.641C63.1513 41.3431 63.339 37.9224 63.339 37C62.2322 38.1068 60.5719 39.2137 58.9117 40.3205C57.2515 41.4273 51.7173 43.0875 47.8434 42.5341C44.0085 41.9863 43.4161 40.3205 42.3093 40.3205C41.2025 40.3205 41.7559 41.4273 38.4354 41.4273Z" fill="#898989"/>
<path d="M38.4354 41.4273C35.779 41.4273 33.6023 38.8447 32.6799 37C32.9013 44.1944 35.5576 44.8585 35.1149 47.5148C34.5615 50.8353 33.4547 50.2819 33.4547 55.2626C33.4547 60.2433 35.6683 60.2433 35.6683 63.5638C35.6683 66.8843 32.3479 67.4377 31.241 71.3116C30.1342 75.1855 35.6683 79.0594 31.241 83.4867C28.474 86.2537 24.969 82.0109 24.6001 79.0594V79.0594C24.6001 80.1663 24.6001 82.3799 26.2603 84.5935C28.9374 88.1629 38.4354 87.914 42.3093 84.5935C46.1832 81.273 45.6298 79.6128 46.7366 76.8457C47.8434 74.0787 51.1639 73.5252 52.8242 70.2048C54.4844 66.8843 53.3775 64.1172 53.931 61.9036C54.4844 59.6899 57.2514 59.6899 58.3583 56.9229C59.3464 54.4527 57.9466 50.6602 58.5 49C59.0534 47.3398 61.1253 46.408 62.2321 43.641C63.1513 41.3431 63.339 37.9224 63.339 37C62.2322 38.1068 60.5719 39.2137 58.9117 40.3205C57.2515 41.4273 51.7173 43.0875 47.8434 42.5341C44.0085 41.9863 43.4161 40.3205 42.3093 40.3205C41.2025 40.3205 41.7559 41.4273 38.4354 41.4273Z" fill="white" fill-opacity="0.95"/>
<g clip-path="url(#clip1_2322_11050)">
<path d="M42.2647 53.3843C39.5798 50.9882 36.6936 49.8273 33.6687 50.9005C35.6715 51.7447 36.7371 53.639 36.7371 53.639C33.8822 52.9776 31.8794 52.1333 28.7694 54.074C31.6244 54.7354 32.3065 56.2873 32.9885 57.8393C31.7528 57.6797 30.1336 57.1778 28.8129 57.8856C30.3472 59.2548 32.6945 61.8213 34.2287 63.1905C36.1465 64.902 40.086 64.6451 42.4289 62.0199C44.7718 59.3947 44.2205 55.1298 42.2647 53.3843Z" fill="#CE4317"/>
<path d="M41.8569 56.7932C40.3925 55.4862 38.8111 54.861 37.1422 55.4676C38.2393 55.9227 38.8158 56.9613 38.8158 56.9613C37.2491 56.6111 36.152 56.1559 34.432 57.241C35.9987 57.5911 36.366 58.443 36.7333 59.2948C36.0545 59.2131 35.1666 58.9446 34.4368 59.3413C35.2736 60.0881 36.5516 61.4907 37.3884 62.2375C38.4345 63.1711 40.6023 63.0097 41.9039 61.5512C43.2055 60.0928 42.9237 57.7453 41.8569 56.7932Z" fill="#CE4317"/>
<path d="M41.8569 56.7932C40.3925 55.4862 38.8111 54.861 37.1422 55.4676C38.2393 55.9227 38.8158 56.9613 38.8158 56.9613C37.2491 56.6111 36.152 56.1559 34.432 57.241C35.9987 57.5911 36.366 58.443 36.7333 59.2948C36.0545 59.2131 35.1666 58.9446 34.4368 59.3413C35.2736 60.0881 36.5516 61.4907 37.3884 62.2375C38.4345 63.1711 40.6023 63.0097 41.9039 61.5512C43.2055 60.0928 42.9237 57.7453 41.8569 56.7932Z" fill="white" fill-opacity="0.3"/>
<path d="M45.5839 60.979C45.856 60.5575 45.735 59.9953 45.3136 59.7232C44.8922 59.451 44.33 59.572 44.0578 59.9935L41.6389 63.7392C41.3667 64.1607 41.4878 64.7229 41.9092 64.995C42.3306 65.2672 42.8928 65.1462 43.165 64.7247L45.5839 60.979Z" fill="#CE4317"/>
<path d="M45.5839 60.979C45.856 60.5575 45.735 59.9953 45.3136 59.7232C44.8922 59.451 44.33 59.572 44.0578 59.9935L41.6389 63.7392C41.3667 64.1607 41.4878 64.7229 41.9092 64.995C42.3306 65.2672 42.8928 65.1462 43.165 64.7247L45.5839 60.979Z" fill="black" fill-opacity="0.5"/>
<path d="M46.1061 62.3656L44.5717 64.7417L79.2255 87.1204L80.8249 88.1532L82.3593 85.7772L80.7599 84.7443L46.1061 62.3656Z" fill="#CE4317"/>
<path d="M46.1061 62.3656L44.5717 64.7417L79.2255 87.1204L80.8249 88.1532L82.3593 85.7772L80.7599 84.7443L46.1061 62.3656Z" fill="black" fill-opacity="0.5"/>
<ellipse cx="83.9801" cy="88.481" rx="2.09924" ry="2.10485" transform="rotate(-57.1465 83.9801 88.481)" fill="#CE4317"/>
<ellipse cx="83.9801" cy="88.481" rx="2.09924" ry="2.10485" transform="rotate(-57.1465 83.9801 88.481)" fill="black" fill-opacity="0.5"/>
</g>
<ellipse cx="3.05863" cy="3.10804" rx="3.05863" ry="3.10804" transform="matrix(-1 -8.74228e-08 -4.07087e-07 1 57.1172 65)" fill="#FAA21E"/>
<ellipse cx="3.05863" cy="3.10804" rx="3.05863" ry="3.10804" transform="matrix(-1 -8.74228e-08 -4.07087e-07 1 57.1172 65)" fill="white" fill-opacity="0.6"/>
<path d="M72.2626 62.9573C71.1558 59.0834 61.8266 51.2137 58.5061 49C58.0061 50.5 59.0061 54 58.5061 56.5C60.0061 59 62.4488 61.1718 62.0061 62.5C61.5634 63.8282 56.7671 64.0641 54 64.6175C54.775 71.7631 56.6493 76.6143 60.641 85.6472C65.7401 79.9644 73.1652 66.1162 72.2626 62.9573Z" fill="#FAA21E"/>
<path d="M72.2626 62.9573C71.1558 59.0834 61.8266 51.2137 58.5061 49C58.0061 50.5 59.0061 54 58.5061 56.5C60.0061 59 62.4488 61.1718 62.0061 62.5C61.5634 63.8282 56.7671 64.0641 54 64.6175C54.775 71.7631 56.6493 76.6143 60.641 85.6472C65.7401 79.9644 73.1652 66.1162 72.2626 62.9573Z" fill="white" fill-opacity="0.2"/>
<path d="M48 100L48.2315 90.8167C47.8495 91.093 47.0856 91.6454 46.7683 93.6201C46.6097 94.6074 45.543 94.9425 45.0493 94.8632C44.5557 94.7839 44.1878 93.9217 44.2999 93.2235C44.4586 92.2362 45.6045 91.4075 45.7632 90.4201C46.0358 88.7232 44.8697 87.5757 44.2644 87.1409C44.5994 88.2075 44.5201 88.7012 44.2822 90.1822C44.1235 91.1695 43.3919 92.5712 42.4046 92.4126C41.4172 92.254 41.1615 90.6937 41.2408 90.2C41.4243 89.0584 42.0841 89.1538 42.4661 88.8776C42.0253 88.4692 40.8987 87.9168 39.9185 88.9747C38.6932 90.2971 40.1523 92.592 39.5 93.5001C38.8477 94.4081 37.4857 94.6608 36.5776 94.0085C35.7655 93.425 36.4777 92.0436 36.9742 91.5401C38 90.5001 38.335 89.9443 38 88.8776C37.7319 88.0243 36.5776 86.0001 34 87.5001C37.8513 88.5001 35.1172 91.9575 34 92.0001C31.7679 92.0851 31.2176 88.5803 31.3875 86.0178C31.5106 85.0649 31.5681 84.5764 31.5001 85C31.45 85.3119 31.4115 85.6554 31.3875 86.0178C31.0803 88.3956 30.3644 93.6649 30.1719 94.8632C33.4999 97 41.1905 100.161 48 100Z" fill="#FAA21E"/>
<path d="M48 100L48.2315 90.8167C47.8495 91.093 47.0856 91.6454 46.7683 93.6201C46.6097 94.6074 45.543 94.9425 45.0493 94.8632C44.5557 94.7839 44.1878 93.9217 44.2999 93.2235C44.4586 92.2362 45.6045 91.4075 45.7632 90.4201C46.0358 88.7232 44.8697 87.5757 44.2644 87.1409C44.5994 88.2075 44.5201 88.7012 44.2822 90.1822C44.1235 91.1695 43.3919 92.5712 42.4046 92.4126C41.4172 92.254 41.1615 90.6937 41.2408 90.2C41.4243 89.0584 42.0841 89.1538 42.4661 88.8776C42.0253 88.4692 40.8987 87.9168 39.9185 88.9747C38.6932 90.2971 40.1523 92.592 39.5 93.5001C38.8477 94.4081 37.4857 94.6608 36.5776 94.0085C35.7655 93.425 36.4777 92.0436 36.9742 91.5401C38 90.5001 38.335 89.9443 38 88.8776C37.7319 88.0243 36.5776 86.0001 34 87.5001C37.8513 88.5001 35.1172 91.9575 34 92.0001C31.7679 92.0851 31.2176 88.5803 31.3875 86.0178C31.5106 85.0649 31.5681 84.5764 31.5001 85C31.45 85.3119 31.4115 85.6554 31.3875 86.0178C31.0803 88.3956 30.3644 93.6649 30.1719 94.8632C33.4999 97 41.1905 100.161 48 100Z" fill="white" fill-opacity="0.2"/>
<path d="M53.2804 90.5777L57 99.5001C62.4676 99.0001 66.5 97.5001 70.4999 95.5001C69.7342 92.4133 68.4999 86.5001 68.5763 90.5874C67.9671 92.2045 65.6321 91.0213 65.4504 89.9965C65.1779 88.4592 65.3884 87.8637 66.4652 86.7622C66.1419 86.7914 64.3349 87.4943 63.679 88.5949C63.0624 89.6296 63.5107 90.1721 64.0424 90.6446C64.5741 91.1171 65.1635 93.9086 63.5954 94.0506C63.0119 94.1034 62.0318 93.4298 61.758 92.4133C61.4662 91.3302 62.5042 90.6909 61.3941 89.2295C60.506 88.0603 59.8824 87.8974 58.8798 87.4489C59.2343 87.7639 59.9853 89.0335 60.0227 89.4466C60.0694 89.963 59.7247 91.5561 58.7549 91.6439C57.785 91.7318 57.1598 90.2264 57.0663 89.1936C56.9915 88.3674 57.2338 87.443 57.3642 87.0841C56.7488 87.4869 55.5367 88.4991 55.6115 89.3253C55.705 90.3581 56.2835 91.3471 56.8152 91.8196C57.3468 92.2921 56.9805 93.6454 56.0323 93.973C55.577 94.1303 54.5308 93.5883 54.4373 92.5555C54.3625 91.7292 53.6348 90.8927 53.2804 90.5777Z" fill="#FAA21E"/>
<path d="M53.2804 90.5777L57 99.5001C62.4676 99.0001 66.5 97.5001 70.4999 95.5001C69.7342 92.4133 68.4999 86.5001 68.5763 90.5874C67.9671 92.2045 65.6321 91.0213 65.4504 89.9965C65.1779 88.4592 65.3884 87.8637 66.4652 86.7622C66.1419 86.7914 64.3349 87.4943 63.679 88.5949C63.0624 89.6296 63.5107 90.1721 64.0424 90.6446C64.5741 91.1171 65.1635 93.9086 63.5954 94.0506C63.0119 94.1034 62.0318 93.4298 61.758 92.4133C61.4662 91.3302 62.5042 90.6909 61.3941 89.2295C60.506 88.0603 59.8824 87.8974 58.8798 87.4489C59.2343 87.7639 59.9853 89.0335 60.0227 89.4466C60.0694 89.963 59.7247 91.5561 58.7549 91.6439C57.785 91.7318 57.1598 90.2264 57.0663 89.1936C56.9915 88.3674 57.2338 87.443 57.3642 87.0841C56.7488 87.4869 55.5367 88.4991 55.6115 89.3253C55.705 90.3581 56.2835 91.3471 56.8152 91.8196C57.3468 92.2921 56.9805 93.6454 56.0323 93.973C55.577 94.1303 54.5308 93.5883 54.4373 92.5555C54.3625 91.7292 53.6348 90.8927 53.2804 90.5777Z" fill="white" fill-opacity="0.2"/>
<path d="M57 99.5001C53.3674 99.9679 51.4094 100.064 48 100C48 100 46.7 92.7001 47.5 91.5001C48.3 90.3001 49.5 90.3334 50 90.5001C49.5 90.8334 48.5 91.7001 48.5 92.5001C48.5 93.5001 49.5 95.0001 51 95.0001C52.5 95.0001 53 93.0001 52.5 91.5001C52.1205 90.3616 51.3334 88.5001 51 88.0001C51.3334 88.3334 52.3 88.9001 53.5 90.5001C54.7 92.1001 56.5 98.0001 57 99.5001Z" fill="#FAA21E"/>
<path d="M57 99.5001C53.3674 99.9679 51.4094 100.064 48 100C48 100 46.7 92.7001 47.5 91.5001C48.3 90.3001 49.5 90.3334 50 90.5001C49.5 90.8334 48.5 91.7001 48.5 92.5001C48.5 93.5001 49.5 95.0001 51 95.0001C52.5 95.0001 53 93.0001 52.5 91.5001C52.1205 90.3616 51.3334 88.5001 51 88.0001C51.3334 88.3334 52.3 88.9001 53.5 90.5001C54.7 92.1001 56.5 98.0001 57 99.5001Z" fill="white" fill-opacity="0.2"/>
</g>
<defs>
<clipPath id="clip0_2322_11050">
<rect width="100" height="100" fill="white"/>
</clipPath>
<clipPath id="clip1_2322_11050">
<rect width="50" height="50" fill="white" transform="translate(38.0576 100.938) rotate(-102.147)"/>
</clipPath>
</defs>
</svg>
