<svg width="100" height="100" viewBox="0 0 100 100" fill="none" xmlns="http://www.w3.org/2000/svg">
<g clip-path="url(#clip0_1936_9154)">
<path d="M3.72635 54.3373C14.0535 39.9972 25.9278 37.284 35.5277 37.391C47.5739 37.5253 43.9991 40.5302 40.3556 49.5688C36.7121 58.6074 22.4509 65.2138 14.0324 65.0678C5.61387 64.9217 0.215687 59.2121 3.72635 54.3373Z" fill="#2FC4A7"/>
<path d="M3.72635 54.3373C14.0535 39.9972 25.9278 37.284 35.5277 37.391C47.5739 37.5253 43.9991 40.5302 40.3556 49.5688C36.7121 58.6074 22.4509 65.2138 14.0324 65.0678C5.61387 64.9217 0.215687 59.2121 3.72635 54.3373Z" fill="white" fill-opacity="0.2"/>
<path fill-rule="evenodd" clip-rule="evenodd" d="M4.84784 52.8327C4.47206 53.3194 4.0981 53.8208 3.72615 54.3373C1.88916 56.8881 2.49142 59.6674 4.6893 61.7587C7.32628 56.5106 12.1362 51.1235 17.3832 47.8272C20.0813 46.1323 23.5756 44.5281 26.6375 43.3417C28.17 42.7479 29.6003 42.2564 30.7755 41.9091C31.9039 41.5756 32.8366 41.3629 33.398 41.3374C34.9006 40.9783 36.6908 40.9448 38.3081 41.069C39.9399 41.1942 41.4375 41.4833 42.3348 41.7882L42.0677 42.5742C41.257 42.2987 39.8331 42.0186 38.2446 41.8966C36.8075 41.7863 35.2698 41.8083 33.9588 42.0649L34.363 43.7225C37.3823 43.4662 40.2761 44.0377 41.709 44.5006L41.4538 45.2905C40.0508 44.8372 37.0991 44.2605 34.089 44.5826C32.921 44.7076 31.7525 44.9671 30.666 45.4161C27.0017 46.93 24.3726 49.5605 23.0876 50.8461L23.0759 50.8577L25.0231 53.3269C27.6329 50.592 30.2567 48.5075 31.917 47.6894C33.3745 46.9713 35.1457 46.7698 36.7377 46.7954C38.3351 46.8209 39.7967 47.076 40.6652 47.3072L40.4516 48.1093C39.645 47.8946 38.2506 47.6498 36.7244 47.6253C35.1926 47.6008 33.5725 47.7991 32.2839 48.434C30.6862 49.2213 27.9898 51.365 25.2981 54.2448C23.9127 55.7269 22.8963 57.6871 22.0383 59.7873C21.5268 61.0395 21.0856 62.3023 20.6548 63.5352L20.6548 63.5353C20.5785 63.7535 20.5026 63.9707 20.4267 64.1868C28.3401 62.1121 37.5331 56.5701 40.3554 49.5687C40.9216 48.1642 41.4861 46.9054 41.9905 45.7804C44.7327 39.6656 45.7018 37.5044 35.5275 37.391C27.5464 37.302 17.9932 39.1623 9.06398 48.0326C12.051 45.9797 15.6692 44.262 19.3122 42.9057C25.2972 40.6772 31.4375 39.3918 35.1491 39.2091L35.1899 40.0382C31.5844 40.2157 25.5295 41.4765 19.6018 43.6836C13.6624 45.895 7.93905 49.0243 4.9193 52.8885L4.84784 52.8327ZM19.462 64.424C17.5126 64.871 15.6628 65.096 14.0322 65.0677C12.1606 65.0353 10.4382 64.7278 8.9299 64.2157C9.44456 63.1436 10.298 61.8223 11.3145 60.4805C12.7162 58.6303 14.3801 56.8029 15.7666 55.6284C18.5113 53.3035 20.5458 51.9518 22.3758 51.3105L24.4517 53.9429C23.0879 55.4965 22.0934 57.4574 21.2699 59.4733C20.7567 60.7296 20.296 62.0464 19.8551 63.3063L19.8551 63.3064C19.7226 63.6851 19.5918 64.0587 19.462 64.424ZM8.14944 63.9249C7.07615 63.4879 6.12977 62.9428 5.33761 62.3191C7.88428 57.149 12.6429 51.7855 17.8248 48.5301C20.4614 46.8738 23.9024 45.2917 26.9374 44.1157C28.4533 43.5284 29.8617 43.0447 31.0107 42.7052C31.9297 42.4336 32.657 42.2622 33.1364 42.1959L33.531 43.8145C32.4558 43.962 31.3743 44.2252 30.349 44.6489C26.5243 46.2291 23.7882 48.9693 22.5042 50.2553C22.4313 50.3284 22.363 50.3967 22.2995 50.4599C20.2613 51.1267 18.0818 52.5794 15.2301 54.995C13.784 56.22 12.0791 58.0966 10.6529 59.9793C9.61896 61.344 8.7058 62.7453 8.14944 63.9249Z" fill="#2FC4A7"/>
<path fill-rule="evenodd" clip-rule="evenodd" d="M4.84784 52.8327C4.47206 53.3194 4.0981 53.8208 3.72615 54.3373C1.88916 56.8881 2.49142 59.6674 4.6893 61.7587C7.32628 56.5106 12.1362 51.1235 17.3832 47.8272C20.0813 46.1323 23.5756 44.5281 26.6375 43.3417C28.17 42.7479 29.6003 42.2564 30.7755 41.9091C31.9039 41.5756 32.8366 41.3629 33.398 41.3374C34.9006 40.9783 36.6908 40.9448 38.3081 41.069C39.9399 41.1942 41.4375 41.4833 42.3348 41.7882L42.0677 42.5742C41.257 42.2987 39.8331 42.0186 38.2446 41.8966C36.8075 41.7863 35.2698 41.8083 33.9588 42.0649L34.363 43.7225C37.3823 43.4662 40.2761 44.0377 41.709 44.5006L41.4538 45.2905C40.0508 44.8372 37.0991 44.2605 34.089 44.5826C32.921 44.7076 31.7525 44.9671 30.666 45.4161C27.0017 46.93 24.3726 49.5605 23.0876 50.8461L23.0759 50.8577L25.0231 53.3269C27.6329 50.592 30.2567 48.5075 31.917 47.6894C33.3745 46.9713 35.1457 46.7698 36.7377 46.7954C38.3351 46.8209 39.7967 47.076 40.6652 47.3072L40.4516 48.1093C39.645 47.8946 38.2506 47.6498 36.7244 47.6253C35.1926 47.6008 33.5725 47.7991 32.2839 48.434C30.6862 49.2213 27.9898 51.365 25.2981 54.2448C23.9127 55.7269 22.8963 57.6871 22.0383 59.7873C21.5268 61.0395 21.0856 62.3023 20.6548 63.5352L20.6548 63.5353C20.5785 63.7535 20.5026 63.9707 20.4267 64.1868C28.3401 62.1121 37.5331 56.5701 40.3554 49.5687C40.9216 48.1642 41.4861 46.9054 41.9905 45.7804C44.7327 39.6656 45.7018 37.5044 35.5275 37.391C27.5464 37.302 17.9932 39.1623 9.06398 48.0326C12.051 45.9797 15.6692 44.262 19.3122 42.9057C25.2972 40.6772 31.4375 39.3918 35.1491 39.2091L35.1899 40.0382C31.5844 40.2157 25.5295 41.4765 19.6018 43.6836C13.6624 45.895 7.93905 49.0243 4.9193 52.8885L4.84784 52.8327ZM19.462 64.424C17.5126 64.871 15.6628 65.096 14.0322 65.0677C12.1606 65.0353 10.4382 64.7278 8.9299 64.2157C9.44456 63.1436 10.298 61.8223 11.3145 60.4805C12.7162 58.6303 14.3801 56.8029 15.7666 55.6284C18.5113 53.3035 20.5458 51.9518 22.3758 51.3105L24.4517 53.9429C23.0879 55.4965 22.0934 57.4574 21.2699 59.4733C20.7567 60.7296 20.296 62.0464 19.8551 63.3063L19.8551 63.3064C19.7226 63.6851 19.5918 64.0587 19.462 64.424ZM8.14944 63.9249C7.07615 63.4879 6.12977 62.9428 5.33761 62.3191C7.88428 57.149 12.6429 51.7855 17.8248 48.5301C20.4614 46.8738 23.9024 45.2917 26.9374 44.1157C28.4533 43.5284 29.8617 43.0447 31.0107 42.7052C31.9297 42.4336 32.657 42.2622 33.1364 42.1959L33.531 43.8145C32.4558 43.962 31.3743 44.2252 30.349 44.6489C26.5243 46.2291 23.7882 48.9693 22.5042 50.2553C22.4313 50.3284 22.363 50.3967 22.2995 50.4599C20.2613 51.1267 18.0818 52.5794 15.2301 54.995C13.784 56.22 12.0791 58.0966 10.6529 59.9793C9.61896 61.344 8.7058 62.7453 8.14944 63.9249Z" fill="white" fill-opacity="0.6"/>
<ellipse cx="18.806" cy="27.4351" rx="12.1378" ry="14.5654" transform="rotate(16.6708 18.806 27.4351)" fill="#2FC4A7"/>
<ellipse cx="18.806" cy="27.4351" rx="12.1378" ry="14.5654" transform="rotate(16.6708 18.806 27.4351)" fill="black" fill-opacity="0.6"/>
<path d="M12.7934 39.8738C14.4474 38.3497 18.6336 33.3729 21.5332 29.0836C24.4328 24.7942 26.7053 19.713 27.5 16.9999M10.4999 37.9998C11.5207 35.8747 14.1694 30.0557 16.8054 26.1563C19.4414 22.2569 22.9706 17.1181 24.9153 14.8564M8.43224 34.9998C8.56796 33.2615 9.63022 28.4677 12.7934 23.7884C15.9567 19.1091 20.0488 15.3486 22 13.9998M6.99996 29.9998C7.21319 28.7619 7.82783 24.6763 9.67305 21.9467C11.5183 19.2171 15.9889 15.2738 17.6817 13.9998M15.9999 40.9998C17.8412 39.8135 22.9956 35.4253 25.6317 31.5259C28.2677 27.6265 29.5265 22.9394 29.7657 20.1256M23.5499 38.3197C24.435 37.9329 26.7324 36.3794 28.8412 33.2599C30.9501 30.1404 31.8909 25.0586 32.0977 22.9076M8.43224 22.4998C9.73724 23.952 13.7589 26.2531 17.6817 28.5684C21.6044 30.8836 27.1363 33.0844 29.7657 33.4998M10.429 18.9834C12.4318 19.7108 17.3288 21.6919 20.895 23.7967C24.4612 25.9015 28.9908 29.3594 31 30.9998M13.5 15.9998C15.5 16.4998 19.2705 17.4741 23.5499 19.9998C27.8293 22.5256 30.9768 25.7228 32.0621 27.4998M18 13.9998C19.221 14.0386 23.5036 15.1117 26 16.585C28.4963 18.0584 31.0156 21.7157 32.0621 23.2426M7.28753 26.9998C8.22426 28.6892 11.6837 31.1551 15.2499 33.2599C18.8161 35.3647 24.0539 36.3442 26.8642 36.1845M7.49996 32.4998C8.43224 33.4706 9.64702 35.816 12.5 37.4998C15.3529 39.1837 19.855 39.5977 22 39.4998" stroke="#2FC4A7" stroke-width="1.21378" stroke-linecap="round"/>
<path d="M12.7934 39.8738C14.4474 38.3497 18.6336 33.3729 21.5332 29.0836C24.4328 24.7942 26.7053 19.713 27.5 16.9999M10.4999 37.9998C11.5207 35.8747 14.1694 30.0557 16.8054 26.1563C19.4414 22.2569 22.9706 17.1181 24.9153 14.8564M8.43224 34.9998C8.56796 33.2615 9.63022 28.4677 12.7934 23.7884C15.9567 19.1091 20.0488 15.3486 22 13.9998M6.99996 29.9998C7.21319 28.7619 7.82783 24.6763 9.67305 21.9467C11.5183 19.2171 15.9889 15.2738 17.6817 13.9998M15.9999 40.9998C17.8412 39.8135 22.9956 35.4253 25.6317 31.5259C28.2677 27.6265 29.5265 22.9394 29.7657 20.1256M23.5499 38.3197C24.435 37.9329 26.7324 36.3794 28.8412 33.2599C30.9501 30.1404 31.8909 25.0586 32.0977 22.9076M8.43224 22.4998C9.73724 23.952 13.7589 26.2531 17.6817 28.5684C21.6044 30.8836 27.1363 33.0844 29.7657 33.4998M10.429 18.9834C12.4318 19.7108 17.3288 21.6919 20.895 23.7967C24.4612 25.9015 28.9908 29.3594 31 30.9998M13.5 15.9998C15.5 16.4998 19.2705 17.4741 23.5499 19.9998C27.8293 22.5256 30.9768 25.7228 32.0621 27.4998M18 13.9998C19.221 14.0386 23.5036 15.1117 26 16.585C28.4963 18.0584 31.0156 21.7157 32.0621 23.2426M7.28753 26.9998C8.22426 28.6892 11.6837 31.1551 15.2499 33.2599C18.8161 35.3647 24.0539 36.3442 26.8642 36.1845M7.49996 32.4998C8.43224 33.4706 9.64702 35.816 12.5 37.4998C15.3529 39.1837 19.855 39.5977 22 39.4998" stroke="black" stroke-opacity="0.2" stroke-width="1.21378" stroke-linecap="round"/>
<path d="M93.5 50.9999C77.3208 37.1635 62.649 37.3766 51.4438 40.2414C37.3833 43.8362 42.4248 46.333 49.2685 55.872C56.1122 65.411 74.6888 69.0733 84.5001 66.4999C94.3114 63.9266 99 55.7036 93.5 50.9999Z" fill="#2FC4A7"/>
<path d="M93.5 50.9999C77.3208 37.1635 62.649 37.3766 51.4438 40.2414C37.3833 43.8362 42.4248 46.333 49.2685 55.872C56.1122 65.411 74.6888 69.0733 84.5001 66.4999C94.3114 63.9266 99 55.7036 93.5 50.9999Z" fill="white" fill-opacity="0.2"/>
<path fill-rule="evenodd" clip-rule="evenodd" d="M91.7578 49.5591C92.3365 50.0216 92.9172 50.5017 93.4999 51C96.3779 53.4612 96.4662 56.886 94.4906 59.9608C89.9066 54.5711 82.7397 49.6387 75.658 47.2781C72.0165 46.0643 67.4689 45.1839 63.5468 44.6692C61.5836 44.4115 59.7693 44.2444 58.2949 44.1733C56.879 44.1051 55.7267 44.1222 55.0623 44.2526C53.2012 44.2611 51.0964 44.7328 49.2389 45.3397C47.3648 45.952 45.6946 46.7177 44.7314 47.3306L45.2683 48.1743C46.1385 47.6205 47.7251 46.8863 49.5495 46.2902C51.2 45.751 53.0059 45.3379 54.6136 45.2642V47.3195C51.0066 47.8812 47.7828 49.3758 46.2378 50.3266L46.7619 51.1783C48.2747 50.2473 51.5648 48.73 55.1796 48.248C56.5823 48.061 58.024 48.0313 59.4238 48.2466C64.1445 48.9729 67.9723 51.3012 69.8431 52.4392L69.8601 52.4495L68.2857 55.8952C64.4508 53.439 60.785 51.7481 58.6083 51.2644C56.6976 50.8398 54.5671 51.1095 52.7112 51.5936C50.8488 52.0795 49.211 52.795 48.2605 53.3135L48.7393 54.1914C49.6221 53.7098 51.1843 53.0254 52.9636 52.5613C54.7493 52.0954 56.7021 51.8651 58.3914 52.2405C60.486 52.706 64.2537 54.4455 68.2259 57.0478C70.2702 58.3872 72.0193 60.3913 73.6227 62.6045C74.5788 63.9241 75.4556 65.2762 76.3116 66.5963L76.3119 66.5967C76.4633 66.8302 76.6141 67.0627 76.7645 67.2938C66.9106 67.1239 54.5696 63.261 49.2684 55.872C48.205 54.3898 47.1851 53.0776 46.2736 51.9048C41.3192 45.5306 39.5681 43.2777 51.4437 40.2415C60.7594 37.8597 72.4713 37.3108 85.4533 45.1444C81.3715 43.594 76.6466 42.6163 71.9959 42.0684C64.3551 41.1682 56.8016 41.416 52.4055 42.2614L52.5943 43.2434C56.8648 42.4222 64.3113 42.17 71.8789 43.0615C79.4613 43.9548 87.053 45.9841 91.6901 49.6449L91.7578 49.5591ZM77.9612 67.2961C80.3704 67.2629 82.5996 66.9984 84.5 66.5C86.6813 65.9279 88.6093 65.0765 90.2286 64.0467C89.3202 62.9387 87.9443 61.6359 86.3717 60.3556C84.2032 58.5901 81.7342 56.9262 79.7763 55.9472C75.9005 54.0093 73.1336 53.0079 70.8087 52.7796L69.1303 56.453C71.1699 57.8821 72.8934 59.8934 74.4325 62.0178C75.3917 63.3417 76.3068 64.7515 77.1823 66.1002L77.1823 66.1003C77.4455 66.5057 77.7051 66.9057 77.9612 67.2961ZM91.059 63.4836C92.1905 62.6659 93.1426 61.7578 93.8917 60.8018C89.4357 55.4774 82.3356 50.5581 75.3418 48.2268C71.7832 47.0406 67.3043 46.1709 63.4167 45.6607C61.4749 45.4058 59.6884 45.2417 58.2467 45.1722C57.0936 45.1166 56.1935 45.1235 55.6136 45.1828V47.1898C56.9141 47.0556 58.255 47.055 59.5759 47.2582C64.5033 48.0163 68.4875 50.4426 70.3573 51.5813L70.3578 51.5816C70.4638 51.6462 70.5631 51.7066 70.6553 51.7623C73.2311 51.9611 76.1965 53.0393 80.2235 55.0528C82.2656 56.0738 84.7965 57.7836 87.0031 59.5801C88.6026 60.8823 90.0712 62.2618 91.059 63.4836Z" fill="#2FC4A7"/>
<path fill-rule="evenodd" clip-rule="evenodd" d="M91.7578 49.5591C92.3365 50.0216 92.9172 50.5017 93.4999 51C96.3779 53.4612 96.4662 56.886 94.4906 59.9608C89.9066 54.5711 82.7397 49.6387 75.658 47.2781C72.0165 46.0643 67.4689 45.1839 63.5468 44.6692C61.5836 44.4115 59.7693 44.2444 58.2949 44.1733C56.879 44.1051 55.7267 44.1222 55.0623 44.2526C53.2012 44.2611 51.0964 44.7328 49.2389 45.3397C47.3648 45.952 45.6946 46.7177 44.7314 47.3306L45.2683 48.1743C46.1385 47.6205 47.7251 46.8863 49.5495 46.2902C51.2 45.751 53.0059 45.3379 54.6136 45.2642V47.3195C51.0066 47.8812 47.7828 49.3758 46.2378 50.3266L46.7619 51.1783C48.2747 50.2473 51.5648 48.73 55.1796 48.248C56.5823 48.061 58.024 48.0313 59.4238 48.2466C64.1445 48.9729 67.9723 51.3012 69.8431 52.4392L69.8601 52.4495L68.2857 55.8952C64.4508 53.439 60.785 51.7481 58.6083 51.2644C56.6976 50.8398 54.5671 51.1095 52.7112 51.5936C50.8488 52.0795 49.211 52.795 48.2605 53.3135L48.7393 54.1914C49.6221 53.7098 51.1843 53.0254 52.9636 52.5613C54.7493 52.0954 56.7021 51.8651 58.3914 52.2405C60.486 52.706 64.2537 54.4455 68.2259 57.0478C70.2702 58.3872 72.0193 60.3913 73.6227 62.6045C74.5788 63.9241 75.4556 65.2762 76.3116 66.5963L76.3119 66.5967C76.4633 66.8302 76.6141 67.0627 76.7645 67.2938C66.9106 67.1239 54.5696 63.261 49.2684 55.872C48.205 54.3898 47.1851 53.0776 46.2736 51.9048C41.3192 45.5306 39.5681 43.2777 51.4437 40.2415C60.7594 37.8597 72.4713 37.3108 85.4533 45.1444C81.3715 43.594 76.6466 42.6163 71.9959 42.0684C64.3551 41.1682 56.8016 41.416 52.4055 42.2614L52.5943 43.2434C56.8648 42.4222 64.3113 42.17 71.8789 43.0615C79.4613 43.9548 87.053 45.9841 91.6901 49.6449L91.7578 49.5591ZM77.9612 67.2961C80.3704 67.2629 82.5996 66.9984 84.5 66.5C86.6813 65.9279 88.6093 65.0765 90.2286 64.0467C89.3202 62.9387 87.9443 61.6359 86.3717 60.3556C84.2032 58.5901 81.7342 56.9262 79.7763 55.9472C75.9005 54.0093 73.1336 53.0079 70.8087 52.7796L69.1303 56.453C71.1699 57.8821 72.8934 59.8934 74.4325 62.0178C75.3917 63.3417 76.3068 64.7515 77.1823 66.1002L77.1823 66.1003C77.4455 66.5057 77.7051 66.9057 77.9612 67.2961ZM91.059 63.4836C92.1905 62.6659 93.1426 61.7578 93.8917 60.8018C89.4357 55.4774 82.3356 50.5581 75.3418 48.2268C71.7832 47.0406 67.3043 46.1709 63.4167 45.6607C61.4749 45.4058 59.6884 45.2417 58.2467 45.1722C57.0936 45.1166 56.1935 45.1235 55.6136 45.1828V47.1898C56.9141 47.0556 58.255 47.055 59.5759 47.2582C64.5033 48.0163 68.4875 50.4426 70.3573 51.5813L70.3578 51.5816C70.4638 51.6462 70.5631 51.7066 70.6553 51.7623C73.2311 51.9611 76.1965 53.0393 80.2235 55.0528C82.2656 56.0738 84.7965 57.7836 87.0031 59.5801C88.6026 60.8823 90.0712 62.2618 91.059 63.4836Z" fill="white" fill-opacity="0.6"/>
<path d="M25.8057 68.4352C17.4293 57.5172 13.4178 40.7264 18.2774 29.8583C23.137 18.9903 41.1446 15.0724 50.9874 24.271C60.798 33.4396 60.0618 47.238 65.1247 53.4142C70.1877 59.5904 74.311 62.5209 73.5689 70.0136C72.8267 77.5064 65.3533 82.9342 56.5365 82.8285C44.4682 82.6838 34.182 79.3532 25.8057 68.4352Z" fill="#2FC4A7"/>
<path d="M25.8057 68.4352C17.4293 57.5172 13.4178 40.7264 18.2774 29.8583C23.137 18.9903 41.1446 15.0724 50.9874 24.271C60.798 33.4396 60.0618 47.238 65.1247 53.4142C70.1877 59.5904 74.311 62.5209 73.5689 70.0136C72.8267 77.5064 65.3533 82.9342 56.5365 82.8285C44.4682 82.6838 34.182 79.3532 25.8057 68.4352Z" fill="black" fill-opacity="0.2"/>
<path d="M24.684 36.2046C24.684 38.7144 25.7297 39.9693 26.5663 40.5968L29.0761 34.9497C30.814 37.9171 31.9432 39.0468 34.0957 40.5968C34.0957 40.5968 36.2134 39.3419 36.2134 36.2046" stroke="#7445B8" stroke-width="1.2549" stroke-linecap="round"/>
<path d="M24.684 36.2046C24.684 38.7144 25.7297 39.9693 26.5663 40.5968L29.0761 34.9497C30.814 37.9171 31.9432 39.0468 34.0957 40.5968C34.0957 40.5968 36.2134 39.3419 36.2134 36.2046" stroke="black" stroke-opacity="0.8" stroke-width="1.2549" stroke-linecap="round"/>
<circle cx="53.9155" cy="25.0587" r="15.0588" fill="#2FC4A7"/>
<circle cx="53.9155" cy="25.0587" r="15.0588" fill="black" fill-opacity="0.6"/>
<path d="M48.8196 11.3365C48.715 13.7188 48.9329 19.6731 50.1508 25.0587C51.3686 30.4443 54.5242 36.6447 56.19 39.27M52.4916 10.5061C53.4531 12.8618 55.653 18.7973 56.7602 23.6933C57.8673 28.5892 59.2786 35.0829 59.5625 38.2351M56.4403 10.8998C57.8294 12.3011 60.9396 16.5726 62.2681 22.4477C63.5967 28.3229 63.4296 33.8782 62.9171 36.3528M62.0723 13.1372C62.9611 14.2228 65.7771 18.0518 66.5521 21.479C67.3271 24.9062 66.8115 30.212 66.4568 32.4365M44.5037 13.7646C43.9451 16.0352 43.3966 21.4176 44.5037 26.3136C45.6109 31.2096 49.5269 36.987 51.7586 39.27M40.4115 19.6707C39.9841 20.6251 39.3505 23.5131 40.2362 27.4298C41.1219 31.3466 44.714 35.8522 46.3993 37.6154M67.6377 20.5902C65.2554 20.4857 59.3011 21.3311 53.9155 22.5489C48.5299 23.7667 42.3295 26.687 39.7042 28.3528M68.4681 24.2622C66.1124 25.2238 60.1769 27.4237 55.2809 28.5308C50.3849 29.6379 43.8913 31.0492 40.739 31.3332M68.0744 28.211C66.6731 29.6 62.4016 32.7102 56.5264 34.0388C50.6513 35.3674 45.7235 35.6104 43.2488 35.0979M65.036 34.6877C63.9504 35.5765 60.9224 37.5478 57.4952 38.3228C54.068 39.0978 49.2381 38.5898 47.0135 38.2351M65.3066 15.971C63.036 15.4123 57.5566 15.1673 52.6606 16.2744C47.7646 17.3815 41.6888 21.5262 39.4059 23.7578M59.5625 11.8822C58.6082 11.4548 54.695 11.624 50.7782 12.5097C46.8615 13.3954 43.1219 16.4846 41.3587 18.1699" stroke="#2FC4A7" stroke-width="1.2549" stroke-linecap="round"/>
<path d="M48.8196 11.3365C48.715 13.7188 48.9329 19.6731 50.1508 25.0587C51.3686 30.4443 54.5242 36.6447 56.19 39.27M52.4916 10.5061C53.4531 12.8618 55.653 18.7973 56.7602 23.6933C57.8673 28.5892 59.2786 35.0829 59.5625 38.2351M56.4403 10.8998C57.8294 12.3011 60.9396 16.5726 62.2681 22.4477C63.5967 28.3229 63.4296 33.8782 62.9171 36.3528M62.0723 13.1372C62.9611 14.2228 65.7771 18.0518 66.5521 21.479C67.3271 24.9062 66.8115 30.212 66.4568 32.4365M44.5037 13.7646C43.9451 16.0352 43.3966 21.4176 44.5037 26.3136C45.6109 31.2096 49.5269 36.987 51.7586 39.27M40.4115 19.6707C39.9841 20.6251 39.3505 23.5131 40.2362 27.4298C41.1219 31.3466 44.714 35.8522 46.3993 37.6154M67.6377 20.5902C65.2554 20.4857 59.3011 21.3311 53.9155 22.5489C48.5299 23.7667 42.3295 26.687 39.7042 28.3528M68.4681 24.2622C66.1124 25.2238 60.1769 27.4237 55.2809 28.5308C50.3849 29.6379 43.8913 31.0492 40.739 31.3332M68.0744 28.211C66.6731 29.6 62.4016 32.7102 56.5264 34.0388C50.6513 35.3674 45.7235 35.6104 43.2488 35.0979M65.036 34.6877C63.9504 35.5765 60.9224 37.5478 57.4952 38.3228C54.068 39.0978 49.2381 38.5898 47.0135 38.2351M65.3066 15.971C63.036 15.4123 57.5566 15.1673 52.6606 16.2744C47.7646 17.3815 41.6888 21.5262 39.4059 23.7578M59.5625 11.8822C58.6082 11.4548 54.695 11.624 50.7782 12.5097C46.8615 13.3954 43.1219 16.4846 41.3587 18.1699" stroke="black" stroke-opacity="0.2" stroke-width="1.2549" stroke-linecap="round"/>
<path d="M11.5301 56.3877C12.2592 54.1134 14.9373 49.7544 18.702 47.8591L22.4667 49.7544C17.4471 52.2513 14.8111 56.9563 13.3529 59.2306C11.5301 62.0734 10.6188 59.2306 11.5301 56.3877Z" fill="#2FC4A7"/>
<path d="M11.5301 56.3877C12.2592 54.1134 14.9373 49.7544 18.702 47.8591L22.4667 49.7544C17.4471 52.2513 14.8111 56.9563 13.3529 59.2306C11.5301 62.0734 10.6188 59.2306 11.5301 56.3877Z" fill="black" fill-opacity="0.2"/>
<path d="M37.4338 54.3951C38.1629 52.1208 40.841 47.7618 44.6057 45.8665L48.3704 47.7618C43.3508 50.2587 40.7148 54.9637 39.2566 57.238C37.4338 60.0808 36.5225 57.238 37.4338 54.3951Z" fill="#2FC4A7"/>
<path d="M37.4338 54.3951C38.1629 52.1208 40.841 47.7618 44.6057 45.8665L48.3704 47.7618C43.3508 50.2587 40.7148 54.9637 39.2566 57.238C37.4338 60.0808 36.5225 57.238 37.4338 54.3951Z" fill="black" fill-opacity="0.2"/>
<path d="M37.4338 54.3951C38.1629 52.1208 40.841 47.7618 44.6057 45.8665L48.3704 47.7618C43.3508 50.2587 40.7148 54.9637 39.2566 57.238C37.4338 60.0808 36.5225 57.238 37.4338 54.3951Z" stroke="#2FC4A7" stroke-linecap="round"/>
<path d="M37.4338 54.3951C38.1629 52.1208 40.841 47.7618 44.6057 45.8665L48.3704 47.7618C43.3508 50.2587 40.7148 54.9637 39.2566 57.238C37.4338 60.0808 36.5225 57.238 37.4338 54.3951Z" stroke="black" stroke-opacity="0.4" stroke-linecap="round"/>
<path d="M22.7925 76.8949C22.2851 74.5612 22.4211 69.447 24.7313 65.9216L28.9391 65.6776C25.8438 70.352 25.9174 75.7446 25.7936 78.4434C25.6389 81.8169 23.4268 79.8122 22.7925 76.8949Z" fill="#2FC4A7"/>
<path d="M22.7925 76.8949C22.2851 74.5612 22.4211 69.447 24.7313 65.9216L28.9391 65.6776C25.8438 70.352 25.9174 75.7446 25.7936 78.4434C25.6389 81.8169 23.4268 79.8122 22.7925 76.8949Z" fill="black" fill-opacity="0.2"/>
<path d="M48.1214 70.446C48.1076 68.0578 49.2984 63.0823 52.2877 60.1109L56.455 60.7424C52.4599 64.6756 51.4166 69.9668 50.7374 72.5817C49.8884 75.8502 48.1386 73.4314 48.1214 70.446Z" fill="#2FC4A7"/>
<path d="M48.1214 70.446C48.1076 68.0578 49.2984 63.0823 52.2877 60.1109L56.455 60.7424C52.4599 64.6756 51.4166 69.9668 50.7374 72.5817C49.8884 75.8502 48.1386 73.4314 48.1214 70.446Z" fill="black" fill-opacity="0.2"/>
<path d="M48.1214 70.446C48.1076 68.0578 49.2984 63.0823 52.2877 60.1109L56.455 60.7424C52.4599 64.6756 51.4166 69.9668 50.7374 72.5817C49.8884 75.8502 48.1386 73.4314 48.1214 70.446Z" stroke="#2FC4A7" stroke-linecap="round"/>
<path d="M48.1214 70.446C48.1076 68.0578 49.2984 63.0823 52.2877 60.1109L56.455 60.7424C52.4599 64.6756 51.4166 69.9668 50.7374 72.5817C49.8884 75.8502 48.1386 73.4314 48.1214 70.446Z" stroke="black" stroke-opacity="0.4" stroke-linecap="round"/>
<path d="M43.2813 89.1235C41.9405 87.1471 40.1603 82.3508 40.9898 78.2184L44.8034 76.4234C43.6736 81.9148 45.7521 86.8913 46.6433 89.4417C47.7573 92.6297 44.9573 91.5941 43.2813 89.1235Z" fill="#2FC4A7"/>
<path d="M43.2813 89.1235C41.9405 87.1471 40.1603 82.3508 40.9898 78.2184L44.8034 76.4234C43.6736 81.9148 45.7521 86.8913 46.6433 89.4417C47.7573 92.6297 44.9573 91.5941 43.2813 89.1235Z" fill="black" fill-opacity="0.2"/>
<path d="M66.7421 88.9471C67.5477 86.4689 68.0332 80.9983 66.0951 77.1561L61.8099 76.7601C64.4128 81.8557 63.6783 87.6172 63.4753 90.5058C63.2217 94.1165 65.7352 92.0448 66.7421 88.9471Z" fill="#2FC4A7"/>
<path d="M66.7421 88.9471C67.5477 86.4689 68.0332 80.9983 66.0951 77.1561L61.8099 76.7601C64.4128 81.8557 63.6783 87.6172 63.4753 90.5058C63.2217 94.1165 65.7352 92.0448 66.7421 88.9471Z" fill="black" fill-opacity="0.2"/>
<path d="M44.7134 47.5369L44.2134 44.5369L51.2134 48.0369L44.7134 47.5369Z" fill="#2FC4A7"/>
<path d="M44.7134 47.5369L44.2134 44.5369L51.2134 48.0369L44.7134 47.5369Z" fill="black" fill-opacity="0.2"/>
<path d="M52.7134 61.5369L50.7134 58.5369L58.7134 60.5369L52.7134 61.5369Z" fill="#2FC4A7"/>
<path d="M52.7134 61.5369L50.7134 58.5369L58.7134 60.5369L52.7134 61.5369Z" fill="black" fill-opacity="0.2"/>
</g>
<defs>
<clipPath id="clip0_1936_9154">
<rect width="99.6296" height="99.6296" fill="white"/>
</clipPath>
</defs>
</svg>
