<svg width="100" height="100" viewBox="0 0 100 100" fill="none" xmlns="http://www.w3.org/2000/svg">
<circle cx="82.5908" cy="17.7732" r="11.1106" fill="#D9D9D9"/>
<circle cx="83.3844" cy="18.5667" r="8.72977" fill="#898989"/>
<circle cx="83.3844" cy="18.5667" r="8.72977" fill="black" fill-opacity="0.8"/>
<path d="M93.7014 25.3678C91.0043 17.9507 78.1931 10.2427 62.0105 11.5913C45.8278 12.9398 36.0656 18.4652 27.3 26.5565C16.299 36.7113 4.69702 57.0587 4.69702 67.8471C4.69702 78.6355 20.8796 80.6584 37.0623 83.3555C53.2449 86.0526 78.583 83.5685 86 77.5C93.417 71.4315 82.2387 50.316 88.3072 44.2475C94.3757 38.179 96.3985 32.7848 93.7014 25.3678Z" fill="#2FC4A7"/>
<path d="M93.7014 25.3678C91.0043 17.9507 78.1931 10.2427 62.0105 11.5913C45.8278 12.9398 36.0656 18.4652 27.3 26.5565C16.299 36.7113 4.69702 57.0587 4.69702 67.8471C4.69702 78.6355 20.8796 80.6584 37.0623 83.3555C53.2449 86.0526 78.583 83.5685 86 77.5C93.417 71.4315 82.2387 50.316 88.3072 44.2475C94.3757 38.179 96.3985 32.7848 93.7014 25.3678Z" fill="black" fill-opacity="0.4"/>
<circle cx="49.0678" cy="20.6373" r="12.6978" fill="#D9D9D9"/>
<circle cx="49.8614" cy="21.4309" r="10.317" fill="#898989"/>
<circle cx="49.8614" cy="21.4309" r="10.317" fill="black" fill-opacity="0.8"/>
<path d="M72 30C77 29.2 80 28.4 83 26C85.5237 27.3671 86.7701 27.4414 89 27.6" stroke="#2FC4A7" stroke-width="1.9313" stroke-linecap="round" stroke-linejoin="round"/>
<path d="M72 30C77 29.2 80 28.4 83 26C85.5237 27.3671 86.7701 27.4414 89 27.6" stroke="black" stroke-opacity="0.6" stroke-width="1.9313" stroke-linecap="round" stroke-linejoin="round"/>
<path d="M85.6101 41.9337C88.8466 41.9337 88.3072 43.0574 88.3072 43.9565C87.6329 45.0803 86.2844 48.6764 86.2844 50.6992C86.2844 53.4794 90.3301 67.2801 88.3072 72C86.1623 77.0047 79.7656 80.9772 71 83C62.2344 85.0228 55.3422 83.9211 55.0001 80.5C54.3257 73.7572 58.6392 60.8134 64.0334 52.7221C69.4276 44.6308 80.8903 41.9337 85.6101 41.9337Z" fill="#2FC4A7"/>
<path d="M85.6101 41.9337C88.8466 41.9337 88.3072 43.0574 88.3072 43.9565C87.6329 45.0803 86.2844 48.6764 86.2844 50.6992C86.2844 53.4794 90.3301 67.2801 88.3072 72C86.1623 77.0047 79.7656 80.9772 71 83C62.2344 85.0228 55.3422 83.9211 55.0001 80.5C54.3257 73.7572 58.6392 60.8134 64.0334 52.7221C69.4276 44.6308 80.8903 41.9337 85.6101 41.9337Z" fill="black" fill-opacity="0.2"/>
<path d="M81.5704 79.8651C81.35 77.7038 80.7556 71.815 81.087 68.3928C81.2131 67.09 80.5982 64.1902 83.4117 63.5718C86.3119 62.9344 87.9911 62.9501 89.0093 66.3148C89.3059 67.295 90.1641 71.4899 90.9541 72.1383C91.5127 72.5968 97.1899 73.4903 97.2633 74.2107C97.3463 75.0259 95.2221 77.499 94.1806 77.2336C94.6223 78.1252 96.5728 80.3304 95.9296 81.1229C95.5657 81.5712 91.7902 81.5316 91.1658 80.9273C91.3015 82.269 92.3861 84.8701 91.5731 84.9524C90.9022 85.0203 87.5077 83.4414 86.998 82.4342C86.3606 83.2858 85.6196 86.7443 84.9325 86.3021C84.0736 85.7493 81.7346 81.4761 81.5704 79.8651Z" fill="#2FC4A7"/>
<path d="M81.5704 79.8651C81.35 77.7038 80.7556 71.815 81.087 68.3928C81.2131 67.09 80.5982 64.1902 83.4117 63.5718C86.3119 62.9344 87.9911 62.9501 89.0093 66.3148C89.3059 67.295 90.1641 71.4899 90.9541 72.1383C91.5127 72.5968 97.1899 73.4903 97.2633 74.2107C97.3463 75.0259 95.2221 77.499 94.1806 77.2336C94.6223 78.1252 96.5728 80.3304 95.9296 81.1229C95.5657 81.5712 91.7902 81.5316 91.1658 80.9273C91.3015 82.269 92.3861 84.8701 91.5731 84.9524C90.9022 85.0203 87.5077 83.4414 86.998 82.4342C86.3606 83.2858 85.6196 86.7443 84.9325 86.3021C84.0736 85.7493 81.7346 81.4761 81.5704 79.8651Z" fill="black" fill-opacity="0.4"/>
<path d="M82.6773 77.0422C82.4838 75.1445 81.9072 67.2475 81.4977 65.3843C81.7274 64.4657 81.5692 62.7643 84.0395 62.2214C86.5859 61.6617 87.9174 63.3707 88.1107 65.2684L88.1107 65.2684C88.2018 66.1631 88.8838 72.8593 89.5774 73.4286C90.0679 73.8312 94.7399 74.1877 94.8043 74.8203C94.8772 75.5359 92.7016 76.6348 91.7872 76.4017C92.175 77.1846 94.6261 79.3115 94.0613 80.0074C93.7418 80.401 90.0119 79.0831 89.4636 78.5525C88.9826 79.3093 90.4535 82.7362 89.8502 82.348C89.2469 81.9597 86.8244 80.3339 86.3769 79.4496C85.8173 80.1972 85.3554 82.6098 84.7522 82.2215C83.9981 81.7361 82.8215 78.4567 82.6773 77.0422Z" fill="#2FC4A7"/>
<path d="M82.6773 77.0422C82.4838 75.1445 81.9072 67.2475 81.4977 65.3843C81.7274 64.4657 81.5692 62.7643 84.0395 62.2214C86.5859 61.6617 87.9174 63.3707 88.1107 65.2684L88.1107 65.2684C88.2018 66.1631 88.8838 72.8593 89.5774 73.4286C90.0679 73.8312 94.7399 74.1877 94.8043 74.8203C94.8772 75.5359 92.7016 76.6348 91.7872 76.4017C92.175 77.1846 94.6261 79.3115 94.0613 80.0074C93.7418 80.401 90.0119 79.0831 89.4636 78.5525C88.9826 79.3093 90.4535 82.7362 89.8502 82.348C89.2469 81.9597 86.8244 80.3339 86.3769 79.4496C85.8173 80.1972 85.3554 82.6098 84.7522 82.2215C83.9981 81.7361 82.8215 78.4567 82.6773 77.0422Z" fill="black" fill-opacity="0.2"/>
<path d="M70.5281 84.2138C70.3072 81.8591 69.5935 74.9777 69.9541 72.2303C70.2657 69.857 69.0053 66.9771 72.2818 66.257C75.6592 65.5147 78.183 66.3097 78.4036 68.6644C78.5077 69.7744 79.7534 75.305 80.4921 75.9079C81.1178 76.4187 88.1373 77.7305 88.2109 78.5154C88.2941 79.4034 85.799 81.4704 84.4574 81.6062C84.9558 82.5718 87.4898 85.2451 86.7302 86.1202C86.3005 86.6152 82.2492 86.5737 81.5104 85.9707C80.9754 87.3803 82.7253 89.554 81.9178 89.9958C80.3977 90.8273 76.787 88.2754 76.2115 87.1846C75.4578 88.124 73.9873 91.3497 73.1967 90.8783C72.2085 90.2891 70.6928 85.9688 70.5281 84.2138Z" fill="#2FC4A7"/>
<path d="M70.5281 84.2138C70.3072 81.8591 69.5935 74.9777 69.9541 72.2303C70.2657 69.857 69.0053 66.9771 72.2818 66.257C75.6592 65.5147 78.183 66.3097 78.4036 68.6644C78.5077 69.7744 79.7534 75.305 80.4921 75.9079C81.1178 76.4187 88.1373 77.7305 88.2109 78.5154C88.2941 79.4034 85.799 81.4704 84.4574 81.6062C84.9558 82.5718 87.4898 85.2451 86.7302 86.1202C86.3005 86.6152 82.2492 86.5737 81.5104 85.9707C80.9754 87.3803 82.7253 89.554 81.9178 89.9958C80.3977 90.8273 76.787 88.2754 76.2115 87.1846C75.4578 88.124 73.9873 91.3497 73.1967 90.8783C72.2085 90.2891 70.6928 85.9688 70.5281 84.2138Z" fill="black" fill-opacity="0.4"/>
<path d="M71.4083 81.2884C71.2065 79.1374 70.3502 70.626 69.8868 68.5177C70.1797 67.4711 70.0172 65.5423 73.0104 64.8844C76.0957 64.2064 77.6754 66.124 77.877 68.2751L77.877 68.2751C77.972 69.2892 78.6834 76.8794 79.5117 77.5141C80.0974 77.9628 85.7349 78.2891 85.8021 79.0061C85.8781 79.8173 83.2317 81.1013 82.131 80.8521C82.5863 81.7342 85.5114 84.1076 84.8175 84.9071C84.4249 85.3593 79.9414 83.9258 79.2881 83.3327C78.6943 84.1999 80.4136 88.0655 79.6913 87.6348C78.969 87.2042 76.0701 85.3993 75.5444 84.4029C74.8559 85.2611 74.2575 88.0075 73.5353 87.5769C72.6325 87.0386 71.5588 82.8917 71.4083 81.2884Z" fill="#2FC4A7"/>
<path d="M71.4083 81.2884C71.2065 79.1374 70.3502 70.626 69.8868 68.5177C70.1797 67.4711 70.0172 65.5423 73.0104 64.8844C76.0957 64.2064 77.6754 66.124 77.877 68.2751L77.877 68.2751C77.972 69.2892 78.6834 76.8794 79.5117 77.5141C80.0974 77.9628 85.7349 78.2891 85.8021 79.0061C85.8781 79.8173 83.2317 81.1013 82.131 80.8521C82.5863 81.7342 85.5114 84.1076 84.8175 84.9071C84.4249 85.3593 79.9414 83.9258 79.2881 83.3327C78.6943 84.1999 80.4136 88.0655 79.6913 87.6348C78.969 87.2042 76.0701 85.3993 75.5444 84.4029C74.8559 85.2611 74.2575 88.0075 73.5353 87.5769C72.6325 87.0386 71.5588 82.8917 71.4083 81.2884Z" fill="black" fill-opacity="0.2"/>
<path d="M47 58.5C47 70.6667 33.7986 86.2264 25.3392 86.2264C12.9766 86.2264 2.95471 76.3634 2.95471 64.1967C2.95471 52.03 15.8428 40.3999 28.2054 40.3999C40.568 40.3999 47 46.3333 47 58.5Z" fill="#2FC4A7"/>
<path d="M47 58.5C47 70.6667 33.7986 86.2264 25.3392 86.2264C12.9766 86.2264 2.95471 76.3634 2.95471 64.1967C2.95471 52.03 15.8428 40.3999 28.2054 40.3999C40.568 40.3999 47 46.3333 47 58.5Z" fill="black" fill-opacity="0.6"/>
<path d="M53.7485 86.5051C52.4549 88.0292 33.4809 86.6321 23.9585 85.6795L33.6606 79.9641C39.4099 79.6466 50 79.3219 52 80.5C54 81.6781 55.3655 84.6 53.7485 86.5051Z" fill="#2FC4A7"/>
<path d="M53.7485 86.5051C52.4549 88.0292 33.4809 86.6321 23.9585 85.6795L33.6606 79.9641C39.4099 79.6466 50 79.3219 52 80.5C54 81.6781 55.3655 84.6 53.7485 86.5051Z" fill="black" fill-opacity="0.6"/>
<path d="M44.485 58.0622C44.485 66.2076 35.8925 79.5434 24.2511 85.7616C11.9622 85.7616 2 78.4965 2 66.2076C2 53.9187 11.9622 41.2594 24.2511 41.2594C36.54 41.2594 44.485 45.7733 44.485 58.0622Z" fill="#2FC4A7"/>
<path d="M44.485 58.0622C44.485 66.2076 35.8925 79.5434 24.2511 85.7616C11.9622 85.7616 2 78.4965 2 66.2076C2 53.9187 11.9622 41.2594 24.2511 41.2594C36.54 41.2594 44.485 45.7733 44.485 58.0622Z" fill="black" fill-opacity="0.4"/>
<path d="M52 87C49.9282 87.8407 27 87.5 18.8571 85.0873L28.5 82.0094C34.2797 81.7879 48.5537 81.214 50.5 82.0094C52.1255 82.6736 53.9453 86.2106 52 87Z" fill="#2FC4A7"/>
<path d="M52 87C49.9282 87.8407 27 87.5 18.8571 85.0873L28.5 82.0094C34.2797 81.7879 48.5537 81.214 50.5 82.0094C52.1255 82.6736 53.9453 86.2106 52 87Z" fill="black" fill-opacity="0.4"/>
<circle cx="55" cy="16" r="2" fill="#FEFEFE"/>
<circle cx="88.5" cy="14.5" r="1.5" fill="#FEFEFE"/>
</svg>
