<svg width="100" height="100" viewBox="0 0 100 100" fill="none" xmlns="http://www.w3.org/2000/svg">
<g clip-path="url(#clip0_3456_29756)">
<path d="M54.9515 89.0345L51.4138 87.5161M54.9515 89.0345L58.4891 95.6144M54.9515 89.0345L62.7848 92.8306M54.9515 89.0345L63.2902 90.0468" stroke="#546DDB" stroke-width="2.02151" stroke-linecap="round" stroke-linejoin="round"/>
<path d="M58.9945 62.7152H52.4246C52.4246 64.2336 52.6772 66.6378 52.6772 68.0297C52.6772 70.4592 53.1826 74.5252 53.4353 75.1157C53.1826 75.3687 52.4246 76.1279 52.4246 77.1402C52.4246 78.1525 53.1826 78.9117 53.4353 79.1648C53.4353 80.5988 53.688 83.2139 53.688 85.2385C53.688 87.263 53.9407 89.3719 53.9407 89.7937H55.7095V84.9854C55.7095 83.1633 55.9622 80.6832 55.9622 79.1648C56.3834 78.8274 56.973 77.95 56.973 77.1402C56.973 76.3304 56.1307 75.4531 55.7095 75.1157C55.7095 74.1877 56.316 71.4208 56.7203 69.8012C57.1246 68.1815 58.2364 64.5711 58.9945 62.7152Z" fill="#546DDB"/>
<path d="M42.44 92.4202L38.9023 90.9018M42.44 92.4202L45.9776 99M42.44 92.4202L50.2734 96.2162M42.44 92.4202L50.7787 93.4325" stroke="#546DDB" stroke-width="2.02151" stroke-linecap="round" stroke-linejoin="round"/>
<path d="M42.44 92.4202L38.9023 90.9018M42.44 92.4202L45.9776 99M42.44 92.4202L50.2734 96.2162M42.44 92.4202L50.7787 93.4325" stroke="white" stroke-opacity="0.2" stroke-width="2.02151" stroke-linecap="round" stroke-linejoin="round"/>
<path d="M46.4832 65.3417H39.9133C39.9133 66.8601 40.166 69.2643 40.166 70.6562C40.166 73.0856 40.6714 77.1516 40.9241 77.7421C40.6714 77.9952 39.9133 78.7544 39.9133 79.7667C39.9133 80.779 40.6714 81.5382 40.9241 81.7912C40.9241 83.2253 41.1768 85.8404 41.1768 87.8649C41.1768 89.8895 41.4295 91.9984 41.4295 92.4202H43.1983V87.6119C43.1983 85.7898 43.451 83.3097 43.451 81.7912C43.8721 81.4538 44.4617 80.5765 44.4617 79.7667C44.4617 78.9569 43.6194 78.0795 43.1983 77.7421C43.1983 76.8142 43.8047 74.0473 44.209 72.4276C44.6133 70.808 45.7252 67.1975 46.4832 65.3417Z" fill="#546DDB"/>
<path d="M46.4832 65.3417H39.9133C39.9133 66.8601 40.166 69.2643 40.166 70.6562C40.166 73.0856 40.6714 77.1516 40.9241 77.7421C40.6714 77.9952 39.9133 78.7544 39.9133 79.7667C39.9133 80.779 40.6714 81.5382 40.9241 81.7912C40.9241 83.2253 41.1768 85.8404 41.1768 87.8649C41.1768 89.8895 41.4295 91.9984 41.4295 92.4202H43.1983V87.6119C43.1983 85.7898 43.451 83.3097 43.451 81.7912C43.8721 81.4538 44.4617 80.5765 44.4617 79.7667C44.4617 78.9569 43.6194 78.0795 43.1983 77.7421C43.1983 76.8142 43.8047 74.0473 44.209 72.4276C44.6133 70.808 45.7252 67.1975 46.4832 65.3417Z" fill="white" fill-opacity="0.2"/>
<path d="M40.0894 36.0172C41.6314 34.4371 47.1569 33.7788 49.7269 33.6471L70.1032 35.6221C70.4704 36.873 69.2221 40.6299 70.1032 43C70.9844 45.3701 75.2905 48 75 53C74.7095 58 71.5489 62.5421 68.5 65C65.2369 67.6306 62.2152 70.2021 57 71.7656C51.7848 73.3291 42.2923 72.5556 40.0894 71.7656C38.3271 71.1336 36.418 70.5287 35.6838 69.8045C35.5 70.2021 34.4172 69.9486 32.6549 70.5806C30.8926 71.2126 30.2685 70.3172 30.1767 69.7905C29.7178 70.4489 28.3043 71.9236 26.3217 72.5556C24.3392 73.1876 22.7421 72.2923 22.1914 71.7656C20.9982 73.1481 18.061 75.5972 15.8582 74.3332C13.1046 72.7531 17.7857 58.7303 18.6117 56.5577C19.4378 54.3851 27.6984 49.0525 27.4231 47.8675C27.1477 46.6824 31.5534 42.9298 33.4809 42.3373C35.4084 41.7448 38.1619 37.9922 40.0894 36.0172Z" fill="#546DDB"/>
<path d="M40.0894 36.0172C41.6314 34.4371 47.1569 33.7788 49.7269 33.6471L70.1032 35.6221C70.4704 36.873 69.2221 40.6299 70.1032 43C70.9844 45.3701 75.2905 48 75 53C74.7095 58 71.5489 62.5421 68.5 65C65.2369 67.6306 62.2152 70.2021 57 71.7656C51.7848 73.3291 42.2923 72.5556 40.0894 71.7656C38.3271 71.1336 36.418 70.5287 35.6838 69.8045C35.5 70.2021 34.4172 69.9486 32.6549 70.5806C30.8926 71.2126 30.2685 70.3172 30.1767 69.7905C29.7178 70.4489 28.3043 71.9236 26.3217 72.5556C24.3392 73.1876 22.7421 72.2923 22.1914 71.7656C20.9982 73.1481 18.061 75.5972 15.8582 74.3332C13.1046 72.7531 17.7857 58.7303 18.6117 56.5577C19.4378 54.3851 27.6984 49.0525 27.4231 47.8675C27.1477 46.6824 31.5534 42.9298 33.4809 42.3373C35.4084 41.7448 38.1619 37.9922 40.0894 36.0172Z" fill="white" fill-opacity="0.2"/>
<path fill-rule="evenodd" clip-rule="evenodd" d="M74.9784 53.3083C74.915 54.0839 74.7834 54.8477 74.595 55.5933C74.4996 55.5511 74.4092 55.493 74.3277 55.419L72.0355 53.3372L70.9648 57.2631C70.8737 57.5969 70.6166 57.86 70.2849 57.9585C69.9533 58.0571 69.5942 57.9773 69.3356 57.7474L65.8837 54.679L63.9231 59.3846C63.7726 59.7457 63.4254 59.9859 63.0344 59.9994C62.6434 60.0129 62.2805 59.7971 62.1056 59.4472L59.726 54.6882L56.2071 58.2071C55.9508 58.4634 55.5759 58.5609 55.2272 58.4621C54.8785 58.3632 54.6106 58.0834 54.527 57.7307L53.367 52.8385L49.574 55.4976C49.2686 55.7117 48.8694 55.738 48.5385 55.5659C48.2076 55.3937 48 55.0518 48 54.6787V48.1689C48 47.6167 48.4477 47.1689 49 47.1689C49.5523 47.1689 50 47.6167 50 48.1689V52.7564L53.426 50.3546C53.6974 50.1644 54.0455 50.1209 54.3553 50.2387C54.6652 50.3565 54.8965 50.6202 54.973 50.9428L56.0597 55.5261L59.2929 52.2929C59.5202 52.0656 59.8429 51.9614 60.1602 52.0129C60.4775 52.0644 60.7507 52.2653 60.8944 52.5528L62.9173 56.5985L64.5769 52.6154C64.7012 52.317 64.9621 52.0971 65.2772 52.0251C65.5923 51.9531 65.9228 52.0379 66.1644 52.2526L69.4594 55.1815L70.5352 51.2369C70.6268 50.9012 70.8862 50.6373 71.2202 50.5399C71.5542 50.4426 71.9148 50.5258 72.1723 50.7597L74.9784 53.3083Z" fill="#546DDB"/>
<path d="M41.8901 34.9295C37.6218 27.2349 38.5001 15.0053 44 11.5L68.7804 37.62L56.5557 43.9064C53.6882 42.3697 44.5927 39.8017 41.8901 34.9295Z" fill="#546DDB"/>
<path d="M41.8901 34.9295C37.6218 27.2349 38.5001 15.0053 44 11.5L68.7804 37.62L56.5557 43.9064C53.6882 42.3697 44.5927 39.8017 41.8901 34.9295Z" fill="white" fill-opacity="0.2"/>
<path d="M39.1664 35.3328C41.9612 34.3278 44.2478 34.1268 46.2804 35.3328C48.313 36.5388 51.3619 38.1469 49.3293 50.6089C47.2967 63.0709 39.4998 63.6923 35.9998 67.1976C34.9998 68.1991 34.1959 69.2767 32.4998 69.7014C30.4998 70.2021 30.0845 68.7351 29.9998 68.1991C29.5764 68.8691 27.829 71.3116 25.9996 71.9548C24.1703 72.598 22.508 71.0439 21.9998 70.5079C20.8988 71.9149 16.207 75.5082 15.5 73.2066C13.0388 65.1946 18.4532 59.4535 17.9997 57.1825C17.4999 54.6787 26.4627 49.3446 25.9996 47.6682C25.4463 45.6652 29.9975 42.2867 31.4996 41.1584C33.4997 39.6561 36.343 36.3481 39.1664 35.3328Z" fill="#546DDB"/>
<path d="M39.1664 35.3328C41.9612 34.3278 44.2478 34.1268 46.2804 35.3328C48.313 36.5388 51.3619 38.1469 49.3293 50.6089C47.2967 63.0709 39.4998 63.6923 35.9998 67.1976C34.9998 68.1991 34.1959 69.2767 32.4998 69.7014C30.4998 70.2021 30.0845 68.7351 29.9998 68.1991C29.5764 68.8691 27.829 71.3116 25.9996 71.9548C24.1703 72.598 22.508 71.0439 21.9998 70.5079C20.8988 71.9149 16.207 75.5082 15.5 73.2066C13.0388 65.1946 18.4532 59.4535 17.9997 57.1825C17.4999 54.6787 26.4627 49.3446 25.9996 47.6682C25.4463 45.6652 29.9975 42.2867 31.4996 41.1584C33.4997 39.6561 36.343 36.3481 39.1664 35.3328Z" fill="white" fill-opacity="0.4"/>
<path d="M48.2977 3.24437C47.9031 4.17586 47.9834 6.0606 48.0728 6.88654L41.2753 12.4578C40.5302 12.0126 38.099 9.63547 37.7377 8.20652C37.3765 6.77758 39.1094 4.19102 40.0209 3.07635C39.8142 3.39151 39.4981 4.49201 39.8876 6.37273C40.2771 8.25345 41.7564 9.09162 42.4473 9.27562C42.0665 8.6189 41.4147 6.89047 41.8543 5.23054C42.294 3.57062 44.1895 1.53335 45.0824 0.722205C45.0636 1.02572 44.9162 2.04773 44.4766 3.70765C44.037 5.36758 44.872 6.40437 45.3444 6.71528C45.3819 6.10825 45.6612 4.54139 46.4788 3.13019C47.2963 1.71899 49.2725 0.7274 50.1584 0.408003C49.7026 0.965337 48.6923 2.31288 48.2977 3.24437Z" fill="#546DDB"/>
<path d="M71.3739 13.7681C74.5832 15.3898 74.167 19.4382 73.6321 23.3766C72.1165 27.624 67.7483 36.3503 62.3994 37.277C55.7133 38.4354 52.3571 35.6784 48.6456 34.2287C45.5 33 41.8864 30.5201 40.5 26.5C39.5115 23.6339 38.5969 16.0602 41.5388 10.5C44.4807 4.93984 52.7064 6.41868 59.3925 6.65035C66.0786 6.88203 68.1645 12.1464 71.3739 13.7681Z" fill="#546DDB"/>
<path d="M71.3739 13.7681C74.5832 15.3898 74.167 19.4382 73.6321 23.3766C72.1165 27.624 67.7483 36.3503 62.3994 37.277C55.7133 38.4354 52.3571 35.6784 48.6456 34.2287C45.5 33 41.8864 30.5201 40.5 26.5C39.5115 23.6339 38.5969 16.0602 41.5388 10.5C44.4807 4.93984 52.7064 6.41868 59.3925 6.65035C66.0786 6.88203 68.1645 12.1464 71.3739 13.7681Z" fill="white" fill-opacity="0.4"/>
<path d="M71.3518 13.749C74.5881 15.3679 74.5394 19.0685 74 23L67.558 24.6335C65.4004 22.5521 65.3129 17.6116 61.0001 16.5C55.156 14.9936 40.8779 9.70366 45 7.49999C47.6562 6.07999 55 5.99999 59.2695 6.64379C67.558 7.89364 68.1154 12.1301 71.3518 13.749Z" fill="#546DDB"/>
<path d="M71.3518 13.749C74.5881 15.3679 74.5394 19.0685 74 23L67.558 24.6335C65.4004 22.5521 65.3129 17.6116 61.0001 16.5C55.156 14.9936 40.8779 9.70366 45 7.49999C47.6562 6.07999 55 5.99999 59.2695 6.64379C67.558 7.89364 68.1154 12.1301 71.3518 13.749Z" fill="white" fill-opacity="0.6"/>
<path d="M73.8585 49.7645C70.8368 48.8332 61.2658 39.8869 60.1714 37.3223C59.3319 35.3549 59.8914 31.3017 60.3202 29.2935C69.5536 36.2206 88.6294 49.4872 87.4785 49.8178C86.04 50.2311 76.8801 50.6959 73.8585 49.7645Z" fill="#FAA21E"/>
<path d="M73.8585 49.7645C70.8368 48.8332 61.2658 39.8869 60.1714 37.3223C59.3319 35.3549 59.8914 31.3017 60.3202 29.2935C69.5536 36.2206 88.6294 49.4872 87.4785 49.8178C86.04 50.2311 76.8801 50.6959 73.8585 49.7645Z" fill="white" fill-opacity="0.2"/>
<path d="M70.4238 22.3215C69.0389 22.6714 63.1473 26.9509 60.3746 29.0469C61.3635 31.5219 64.3592 37.3909 68.4312 41.0673C73.5213 45.663 79.5405 47.2326 83.4398 48.0918C86.5592 48.7791 87.1257 51.1315 87.019 52.2217C87.783 51.9623 89.3654 50.672 89.5829 47.5866C89.8548 43.7299 83.6221 35.9838 80.8207 34.1495C78.5796 32.682 75.5551 26.2255 74.3231 23.1807C73.6003 22.7485 71.8087 21.9717 70.4238 22.3215Z" fill="#FAA21E"/>
<path d="M70.4238 22.3215C69.0389 22.6714 63.1473 26.9509 60.3746 29.0469C61.3635 31.5219 64.3592 37.3909 68.4312 41.0673C73.5213 45.663 79.5405 47.2326 83.4398 48.0918C86.5592 48.7791 87.1257 51.1315 87.019 52.2217C87.783 51.9623 89.3654 50.672 89.5829 47.5866C89.8548 43.7299 83.6221 35.9838 80.8207 34.1495C78.5796 32.682 75.5551 26.2255 74.3231 23.1807C73.6003 22.7485 71.8087 21.9717 70.4238 22.3215Z" fill="white" fill-opacity="0.4"/>
<path d="M71.2222 22.2069C72.7898 27.0972 77.3347 34.7312 81.086 37.3722C84.8372 40.0133 86.7609 41.9197 87.9036 45.0702C89.0463 48.2207 88.3613 50.6367 87.0192 52.2218C87.7832 51.9623 89.3657 50.6721 89.5831 47.5867C89.855 43.73 83.6224 35.9838 80.821 34.1495C78.5798 32.6821 75.5554 26.2256 74.3233 23.1807C73.6006 22.7486 72.9873 22.4119 71.2222 22.2069Z" fill="#FAA21E"/>
<path d="M71.2222 22.2069C72.7898 27.0972 77.3347 34.7312 81.086 37.3722C84.8372 40.0133 86.7609 41.9197 87.9036 45.0702C89.0463 48.2207 88.3613 50.6367 87.0192 52.2218C87.7832 51.9623 89.3657 50.6721 89.5831 47.5867C89.855 43.73 83.6224 35.9838 80.821 34.1495C78.5798 32.6821 75.5554 26.2256 74.3233 23.1807C73.6006 22.7486 72.9873 22.4119 71.2222 22.2069Z" fill="white" fill-opacity="0.2"/>
<path d="M61.8175 18.5428C63.3488 19.5779 63.763 21.5371 62.8438 22.901C61.9246 24.2649 59.9554 24.613 58.4241 23.5779C56.8928 22.5428 56.4787 20.5835 57.3978 19.2197C58.317 17.8558 60.2862 17.5076 61.8175 18.5428Z" fill="#898989"/>
<path d="M61.8175 18.5428C63.3488 19.5779 63.763 21.5371 62.8438 22.901C61.9246 24.2649 59.9554 24.613 58.4241 23.5779C56.8928 22.5428 56.4787 20.5835 57.3978 19.2197C58.317 17.8558 60.2862 17.5076 61.8175 18.5428Z" fill="black" fill-opacity="0.6"/>
<path d="M61.8175 18.5428C63.3488 19.5779 63.763 21.5371 62.8438 22.901C61.9246 24.2649 59.9554 24.613 58.4241 23.5779C56.8928 22.5428 56.4787 20.5835 57.3978 19.2197C58.317 17.8558 60.2862 17.5076 61.8175 18.5428Z" stroke="#FEFEFE" stroke-width="1.01076"/>
</g>
<defs>
<clipPath id="clip0_3456_29756">
<rect width="100" height="100" fill="white"/>
</clipPath>
</defs>
</svg>
