<svg width="100" height="100" viewBox="0 0 100 100" fill="none" xmlns="http://www.w3.org/2000/svg">
<g clip-path="url(#clip0_2328_11400)">
<path d="M70.1398 9.11999L66.3398 8.35999L71.6598 22.42L79.2598 31.16L77.3598 22.42L76.5998 14.82C76.2198 14.5667 75.2318 13.984 74.3198 13.68C73.4078 13.376 71.1532 10.5133 70.1398 9.11999Z" fill="#898989"/>
<path d="M70.1398 9.11999L66.3398 8.35999L71.6598 22.42L79.2598 31.16L77.3598 22.42L76.5998 14.82C76.2198 14.5667 75.2318 13.984 74.3198 13.68C73.4078 13.376 71.1532 10.5133 70.1398 9.11999Z" fill="white" fill-opacity="0.2"/>
<path d="M32.0756 6.21384L21.1449 22.0974L22.3908 24.9653L18.08 39.9L16.94 49.02L5 63.08L0 88.5V100H100L98.5 80L93.5 64.5L84.2 50.92L81.92 33.82L74.32 23.18L68.6844 10.5157L63.68 2.28L59.1325 0C55.1179 0.477987 44.4765 1.62516 43.1475 2.38994C41.4863 3.34591 41.6275 4.77987 38.3051 6.21384C35.6472 7.36101 33.0447 6.69182 32.0756 6.21384Z" fill="#898989"/>
<path d="M32.0756 6.21384L21.1449 22.0974L22.3908 24.9653L18.08 39.9L16.94 49.02L5 63.08L0 88.5V100H100L98.5 80L93.5 64.5L84.2 50.92L81.92 33.82L74.32 23.18L68.6844 10.5157L63.68 2.28L59.1325 0C55.1179 0.477987 44.4765 1.62516 43.1475 2.38994C41.4863 3.34591 41.6275 4.77987 38.3051 6.21384C35.6472 7.36101 33.0447 6.69182 32.0756 6.21384Z" fill="white" fill-opacity="0.6"/>
<path d="M30.6201 8.36C30.6201 7.98 32.1401 6.08 32.1401 6.08C33.2801 6.33333 35.7058 7.04476 37.4601 6.46C39.7401 5.7 42.4001 2.66 43.1601 2.28C44.0816 1.81925 54.1801 0.38 59.1201 0L63.6801 2.28L60.2601 3.8C59.5001 3.67333 57.6001 3.42 56.0801 3.42C54.5601 3.42 47.5934 7.22 44.3001 9.12L37.8401 8.36C36.5735 8.86667 33.8121 9.88 32.9001 9.88C31.9881 9.88 30.8735 8.99333 30.6201 8.36Z" fill="#898989"/>
<path d="M39.9032 31.0646C38.7419 30.6777 33.9885 32.0846 31 33.773C31.6452 35.1916 32.5484 38.4932 34.0968 38.8027C35.6452 39.1122 41.3226 39.1896 43 38.0289C43 38.0289 41.0645 31.4515 39.9032 31.0646Z" fill="#898989"/>
<path d="M39.9032 31.0646C38.7419 30.6777 33.9885 32.0846 31 33.773C31.6452 35.1916 32.5484 38.4932 34.0968 38.8027C35.6452 39.1122 41.3226 39.1896 43 38.0289C43 38.0289 41.0645 31.4515 39.9032 31.0646Z" fill="black" fill-opacity="0.4"/>
<path d="M61.0968 31.0646C62.2581 30.6777 67.0115 32.0846 70 33.773C69.3548 35.1916 68.4516 38.4932 66.9032 38.8027C65.3548 39.1122 59.6774 39.1896 58 38.0289C58 38.0289 59.9355 31.4515 61.0968 31.0646Z" fill="#898989"/>
<path d="M61.0968 31.0646C62.2581 30.6777 67.0115 32.0846 70 33.773C69.3548 35.1916 68.4516 38.4932 66.9032 38.8027C65.3548 39.1122 59.6774 39.1896 58 38.0289C58 38.0289 59.9355 31.4515 61.0968 31.0646Z" fill="black" fill-opacity="0.4"/>
<path d="M77.5 36.5L81.92 34.2L84.2 50.92L74.5 49L77.5 36.5Z" fill="#898989"/>
<path d="M77.5 36.5L81.92 34.2L84.2 50.92L74.5 49L77.5 36.5Z" fill="white" fill-opacity="0.2"/>
<path d="M78.12 57L71.28 48.64L84.2 50.92L88 63.08L78.12 57Z" fill="#898989"/>
<path d="M78.12 57L71.28 48.64L84.2 50.92L88 63.08L78.12 57Z" fill="white" fill-opacity="0.6"/>
<path d="M31.7598 54.34L18.8398 37.62L21.1198 49.02L24.9198 60.42L31.7598 63.08L47.5 59L31.7598 54.34Z" fill="#898989"/>
<path d="M31.7598 54.34L18.8398 37.62L21.1198 49.02L24.9198 60.42L31.7598 63.08L47.5 59L31.7598 54.34Z" fill="white" fill-opacity="0.2"/>
<path d="M18.0802 39.52L18.8402 37.24L21.1202 48.64L24.9202 60.42L16.9402 49.02L18.0802 39.52Z" fill="#898989"/>
<path d="M9.5 57.5L16.94 49.02L24.92 60.42L15 78.5L10.5 73L9.5 57.5Z" fill="#898989"/>
<path d="M9.5 57.5L16.94 49.02L24.92 60.42L15 78.5L10.5 73L9.5 57.5Z" fill="white" fill-opacity="0.2"/>
<path d="M4 100.5L10.5 73L15 78.5L20.5 100L4 100.5Z" fill="#898989"/>
<path d="M5 63L9.5 57.5L10 66L0 88.5L5 63Z" fill="#898989"/>
<path d="M93.5 64.5L84.2 51L88 63L98.5 80L93.5 64.5Z" fill="#898989"/>
<path d="M93.5 64.5L84.2 51L88 63L98.5 80L93.5 64.5Z" fill="white" fill-opacity="0.2"/>
<path d="M5 77L10.5 73L8 92L4 100.5H0V88.5L5 77Z" fill="#898989"/>
<path d="M5 77L10.5 73L8 92L4 100.5H0V88.5L5 77Z" fill="white" fill-opacity="0.2"/>
<path d="M95.5 89L88 63L98.5 80L100 100.5H94L95.5 89Z" fill="#898989"/>
<path d="M26.5 18V14.5L21 22L22.5 25L24.5 24C25.1667 22.3333 26.5 18.8 26.5 18Z" fill="#898989"/>
<path d="M25 60.5L32 54.5L47.5 59L25 60.5Z" fill="#898989"/>
<path d="M74.5 49L66 56L65 60L67.5 65L82 75.5L95.5 89L88 63L78 57L74.5 49Z" fill="#898989"/>
<path d="M74.5 49L66 56L65 60L67.5 65L82 75.5L95.5 89L88 63L78 57L74.5 49Z" fill="white" fill-opacity="0.2"/>
<path d="M88 63L78 57L68 65L88 63Z" fill="#898989"/>
<path d="M43 36V30.75L29.175 29.0219L43 36Z" fill="#898989"/>
<path d="M58 36V30.75L71.825 29.0219L58 36Z" fill="#898989"/>
<path d="M58.5 59L66 56L65 60L58.5 59Z" fill="#898989"/>
</g>
<defs>
<clipPath id="clip0_2328_11400">
<rect width="100" height="100" fill="white"/>
</clipPath>
</defs>
</svg>
