<svg width="100" height="100" viewBox="0 0 100 100" fill="none" xmlns="http://www.w3.org/2000/svg">
<g clip-path="url(#clip0_2033_15861)">
<path d="M13.2507 52.1182C13.6594 49.96 17.3615 39.1172 18.0426 37.6784L81.1642 36.5993C81.8453 37.3187 84.2325 44.5874 85.4696 47.8371C87.0994 52.1182 91.0156 58.7064 90.8453 60.1452C91.8669 62.1236 94.5426 66.7393 96.7318 75.6641C98.8125 84.1466 99.4075 96.3103 99.4075 101.886H0.407471C0.407475 96.5344 2.01288 87.0745 4.15342 77.2695C5.50359 71.085 7.68044 65.1722 10.575 61.2155C10.7453 60.1364 12.8421 54.2764 13.2507 52.1182Z" fill="#FAA21E"/>
<path d="M13.2507 52.1182C13.6594 49.96 17.3615 39.1172 18.0426 37.6784L81.1642 36.5993C81.8453 37.3187 84.2325 44.5874 85.4696 47.8371C87.0994 52.1182 91.0156 58.7064 90.8453 60.1452C91.8669 62.1236 94.5426 66.7393 96.7318 75.6641C98.8125 84.1466 99.4075 96.3103 99.4075 101.886H0.407471C0.407475 96.5344 2.01288 87.0745 4.15342 77.2695C5.50359 71.085 7.68044 65.1722 10.575 61.2155C10.7453 60.1364 12.8421 54.2764 13.2507 52.1182Z" fill="black" fill-opacity="0.6"/>
<path d="M11.6923 12.2899C12.7947 16.1634 16.8788 22.7821 17.576 23.1363L33.7058 7.95892C30.3018 5.22492 29.4483 4.14529 25.6704 2.22557C20.6098 -0.345844 17.0482 0.674413 14.5266 2.2256C11.4063 4.14505 10.59 8.41637 11.6923 12.2899Z" fill="#FAA21E"/>
<path d="M11.6923 12.2899C12.7947 16.1634 16.8788 22.7821 17.576 23.1363L33.7058 7.95892C30.3018 5.22492 29.4483 4.14529 25.6704 2.22557C20.6098 -0.345844 17.0482 0.674413 14.5266 2.2256C11.4063 4.14505 10.59 8.41637 11.6923 12.2899Z" fill="black" fill-opacity="0.6"/>
<path d="M86.8169 12.328C85.7295 16.2425 81.534 22.7783 80.8462 23.1363L64.9275 8.20179C66.878 5.71031 69.3022 4.09727 73.0289 2.15724C78.0206 -0.441378 82.5262 0.856927 84.5894 2.15724C87.6673 4.09702 87.9044 8.41354 86.8169 12.328Z" fill="#FAA21E"/>
<path d="M86.8169 12.328C85.7295 16.2425 81.534 22.7783 80.8462 23.1363L64.9275 8.20179C66.878 5.71031 69.3022 4.09727 73.0289 2.15724C78.0206 -0.441378 82.5262 0.856927 84.5894 2.15724C87.6673 4.09702 87.9044 8.41354 86.8169 12.328Z" fill="black" fill-opacity="0.6"/>
<path d="M49.9775 4.40326C40.4144 4.40326 31.4065 5.47559 28.086 8.15642C24.7655 10.8372 16.9889 23.3172 15.6607 27.0703C14.3325 30.8235 11.1411 45.7902 13.0894 52.9154C15.0377 60.0406 23.5763 66.0067 31.8326 70.0136C40.2881 74.1172 58.97 74.1172 67.4255 70.0136C74.4718 66.594 84.1896 61.4143 86.5871 52.9154C88.9847 44.4165 85.5589 30.0728 83.5666 27.0703C80.5781 22.5665 73.8682 10.4083 70.5477 8.15642C66.4642 5.38709 59.5405 4.40326 49.9775 4.40326Z" fill="#FAA21E"/>
<path d="M49.9775 4.40326C40.4144 4.40326 31.4065 5.47559 28.086 8.15642C24.7655 10.8372 16.9889 23.3172 15.6607 27.0703C14.3325 30.8235 11.1411 45.7902 13.0894 52.9154C15.0377 60.0406 23.5763 66.0067 31.8326 70.0136C40.2881 74.1172 58.97 74.1172 67.4255 70.0136C74.4718 66.594 84.1896 61.4143 86.5871 52.9154C88.9847 44.4165 85.5589 30.0728 83.5666 27.0703C80.5781 22.5665 73.8682 10.4083 70.5477 8.15642C66.4642 5.38709 59.5405 4.40326 49.9775 4.40326Z" fill="black" fill-opacity="0.4"/>
<path d="M57.8175 33.1786C53.4464 28.1832 46.1407 28.0208 41.8282 33.256C39.8923 35.6061 36.2679 45.6674 37.8355 53.0908C41.1189 60.6539 57.9859 61.2783 61.5641 53.0908C62.9923 45.043 60.0031 35.6764 57.8175 33.1786Z" fill="#FAA21E"/>
<path d="M57.8175 33.1786C53.4464 28.1832 46.1407 28.0208 41.8282 33.256C39.8923 35.6061 36.2679 45.6674 37.8355 53.0908C41.1189 60.6539 57.9859 61.2783 61.5641 53.0908C62.9923 45.043 60.0031 35.6764 57.8175 33.1786Z" fill="black" fill-opacity="0.1"/>
<path d="M49.9408 39.3717C43.1495 39.3717 42.1793 40.9088 41.2091 45.52C40.8857 47.0571 48.3885 49.3627 49.9408 49.3627C51.8812 49.3627 58.9959 47.0571 58.6725 45.52C57.7023 40.9088 56.7321 39.3717 49.9408 39.3717Z" fill="#898989"/>
<path d="M49.9408 39.3717C43.1495 39.3717 42.1793 40.9088 41.2091 45.52C40.8857 47.0571 48.3885 49.3627 49.9408 49.3627C51.8812 49.3627 58.9959 47.0571 58.6725 45.52C57.7023 40.9088 56.7321 39.3717 49.9408 39.3717Z" fill="black" fill-opacity="0.8"/>
<circle cx="35.579" cy="30.0051" r="3.12218" fill="#141414"/>
<circle cx="63.0543" cy="30.0051" r="3.12218" fill="#141414"/>
<path d="M49.6998 48.7895C49.6998 49.2058 49.6998 50.6628 49.6998 50.6628M49.6998 50.6628C49.6998 50.6628 49.0753 51.2872 47.8265 51.9117C46.5776 52.5361 43.0723 52.4848 43.0723 52.4848M49.6998 50.6628C49.6998 50.6628 50.3242 51.2872 51.5731 51.9117C52.8219 52.5361 56.8099 52.4848 56.8099 52.4848" stroke="black" stroke-linecap="round"/>
<path d="M16.5783 79.1455C18.2128 76.7011 21.3094 73.6132 22.6534 72.3747C21.5806 74.0893 19.0571 78.0174 17.5456 80.0133C16.034 82.0093 13.5768 87.1608 12.5371 89.4871C13.2032 87.0584 14.9438 81.5898 16.5783 79.1455Z" fill="#FAA21E"/>
<path d="M16.5783 79.1455C18.2128 76.7011 21.3094 73.6132 22.6534 72.3747C21.5806 74.0893 19.0571 78.0174 17.5456 80.0133C16.034 82.0093 13.5768 87.1608 12.5371 89.4871C13.2032 87.0584 14.9438 81.5898 16.5783 79.1455Z" fill="black" fill-opacity="0.4"/>
<path d="M29.5937 84.2986C29.6138 81.3582 30.5008 77.0759 30.9418 75.3024C30.9892 77.3243 31.043 81.9928 30.8789 84.4912C30.7147 86.9895 31.4969 92.6432 31.9085 95.1578C31.1285 92.7632 29.5736 87.239 29.5937 84.2986Z" fill="#FAA21E"/>
<path d="M29.5937 84.2986C29.6138 81.3582 30.5008 77.0759 30.9418 75.3024C30.9892 77.3243 31.043 81.9928 30.8789 84.4912C30.7147 86.9895 31.4969 92.6432 31.9085 95.1578C31.1285 92.7632 29.5736 87.239 29.5937 84.2986Z" fill="black" fill-opacity="0.4"/>
<path d="M42.1323 83.6387C42.1297 81.402 42.7642 78.1497 43.0818 76.8031C43.1292 78.3416 43.1972 81.8933 43.09 83.7929C42.9828 85.6925 43.5988 89.998 43.9202 91.9134C43.3253 90.0871 42.1349 85.8754 42.1323 83.6387Z" fill="#FAA21E"/>
<path d="M42.1323 83.6387C42.1297 81.402 42.7642 78.1497 43.0818 76.8031C43.1292 78.3416 43.1972 81.8933 43.09 83.7929C42.9828 85.6925 43.5988 89.998 43.9202 91.9134C43.3253 90.0871 42.1349 85.8754 42.1323 83.6387Z" fill="black" fill-opacity="0.4"/>
<path d="M58.1124 85.8406C57.8465 83.3928 56.3842 79.5706 55.6863 77.9655C55.7923 79.6303 56.1068 83.4909 56.517 85.6148C56.9272 87.7387 56.4092 92.1988 56.0989 94.1633C56.8808 92.409 58.3782 88.2884 58.1124 85.8406Z" fill="#FAA21E"/>
<path d="M58.1124 85.8406C57.8465 83.3928 56.3842 79.5706 55.6863 77.9655C55.7923 79.6303 56.1068 83.4909 56.517 85.6148C56.9272 87.7387 56.4092 92.1988 56.0989 94.1633C56.8808 92.409 58.3782 88.2884 58.1124 85.8406Z" fill="black" fill-opacity="0.4"/>
<path d="M73.7829 83.723C72.0143 81.2105 68.7718 78.0629 67.3717 76.8031C68.5402 78.5673 71.2816 82.6074 72.8986 84.6545C74.5156 86.7016 77.278 92.0217 78.4571 94.426C77.6359 91.9051 75.5515 86.2354 73.7829 83.723Z" fill="#FAA21E"/>
<path d="M73.7829 83.723C72.0143 81.2105 68.7718 78.0629 67.3717 76.8031C68.5402 78.5673 71.2816 82.6074 72.8986 84.6545C74.5156 86.7016 77.278 92.0217 78.4571 94.426C77.6359 91.9051 75.5515 86.2354 73.7829 83.723Z" fill="black" fill-opacity="0.4"/>
<path d="M84.6608 78.5262C83.1322 77.1218 80.1101 75.517 78.7901 74.8902C79.7844 75.8873 82.1317 78.1611 83.567 79.2788C85.0022 80.3965 87.1795 83.5183 88.0888 84.9394C87.583 83.3868 86.1894 79.9305 84.6608 78.5262Z" fill="#FAA21E"/>
<path d="M84.6608 78.5262C83.1322 77.1218 80.1101 75.517 78.7901 74.8902C79.7844 75.8873 82.1317 78.1611 83.567 79.2788C85.0022 80.3965 87.1795 83.5183 88.0888 84.9394C87.583 83.3868 86.1894 79.9305 84.6608 78.5262Z" fill="black" fill-opacity="0.4"/>
</g>
<defs>
<clipPath id="clip0_2033_15861">
<rect width="99.6296" height="99.6296" fill="white"/>
</clipPath>
</defs>
</svg>
