<svg width="100" height="100" viewBox="0 0 100 100" fill="none" xmlns="http://www.w3.org/2000/svg">
<g clip-path="url(#clip0_1955_9168)">
<path d="M14.9444 55.128C17.4351 61.604 20.424 61.1058 20.424 63.5965C20.424 66.0873 13.9481 67.5817 7.97033 74.0577C1.9926 80.5337 5.27158 90.2367 7.47218 92.9874C9.46478 95.478 10.9592 98.3009 11.9555 99.9614C37.195 100.792 87.674 102.353 87.674 99.9615C87.674 96.9726 89.1685 96.9725 92.1574 92.4892C95.1463 88.0058 96.9199 79.2965 92.1574 74.0577C87.1759 68.578 79.2055 67.0836 79.2055 63.0984C79.2055 61.604 81.1631 60.6706 83.6889 56.1243C86.1796 51.641 87.674 43.1725 89.1685 38.6891C90.1267 35.8145 97.637 29.2409 97.637 21.7522C97.637 15.2761 91.6592 6.80767 82.6926 5.31322C75.5192 4.11767 69.2426 7.30575 66.7518 9.29834C64.095 8.63415 57.287 7.30578 49.3166 7.30578C41.3463 7.30578 34.3722 8.13611 32.3796 8.8003C28.7265 7.13981 20.9102 3.94634 15.4426 5.31326C7.47218 7.30586 1.99255 14.778 1.99255 22.2502C1.99255 30.2206 7.97033 34.2058 9.96292 37.6928C11.9555 41.1799 12.4537 48.6521 14.9444 55.128Z" fill="#2FC4A7"/>
<path d="M14.9444 55.128C17.4351 61.604 20.424 61.1058 20.424 63.5965C20.424 66.0873 13.9481 67.5817 7.97033 74.0577C1.9926 80.5337 5.27158 90.2367 7.47218 92.9874C9.46478 95.478 10.9592 98.3009 11.9555 99.9614C37.195 100.792 87.674 102.353 87.674 99.9615C87.674 96.9726 89.1685 96.9725 92.1574 92.4892C95.1463 88.0058 96.9199 79.2965 92.1574 74.0577C87.1759 68.578 79.2055 67.0836 79.2055 63.0984C79.2055 61.604 81.1631 60.6706 83.6889 56.1243C86.1796 51.641 87.674 43.1725 89.1685 38.6891C90.1267 35.8145 97.637 29.2409 97.637 21.7522C97.637 15.2761 91.6592 6.80767 82.6926 5.31322C75.5192 4.11767 69.2426 7.30575 66.7518 9.29834C64.095 8.63415 57.287 7.30578 49.3166 7.30578C41.3463 7.30578 34.3722 8.13611 32.3796 8.8003C28.7265 7.13981 20.9102 3.94634 15.4426 5.31326C7.47218 7.30586 1.99255 14.778 1.99255 22.2502C1.99255 30.2206 7.97033 34.2058 9.96292 37.6928C11.9555 41.1799 12.4537 48.6521 14.9444 55.128Z" stroke="#2FC4A7" stroke-width="0.996296"/>
<path d="M14.9444 55.128C17.4351 61.604 20.424 61.1058 20.424 63.5965C20.424 66.0873 13.9481 67.5817 7.97033 74.0577C1.9926 80.5337 5.27158 90.2367 7.47218 92.9874C9.46478 95.478 10.9592 98.3009 11.9555 99.9614C37.195 100.792 87.674 102.353 87.674 99.9615C87.674 96.9726 89.1685 96.9725 92.1574 92.4892C95.1463 88.0058 96.9199 79.2965 92.1574 74.0577C87.1759 68.578 79.2055 67.0836 79.2055 63.0984C79.2055 61.604 81.1631 60.6706 83.6889 56.1243C86.1796 51.641 87.674 43.1725 89.1685 38.6891C90.1267 35.8145 97.637 29.2409 97.637 21.7522C97.637 15.2761 91.6592 6.80767 82.6926 5.31322C75.5192 4.11767 69.2426 7.30575 66.7518 9.29834C64.095 8.63415 57.287 7.30578 49.3166 7.30578C41.3463 7.30578 34.3722 8.13611 32.3796 8.8003C28.7265 7.13981 20.9102 3.94634 15.4426 5.31326C7.47218 7.30586 1.99255 14.778 1.99255 22.2502C1.99255 30.2206 7.97033 34.2058 9.96292 37.6928C11.9555 41.1799 12.4537 48.6521 14.9444 55.128Z" stroke="white" stroke-opacity="0.4" stroke-width="0.996296"/>
<path d="M15.9408 34.3723C15.0003 34.539 10.808 31.9804 9.10739 29.3908C6.98164 26.1538 6.24983 19.8111 9.46483 15.4427C12.8445 10.8506 16.7625 9.86696 20.9222 10.4612C25.1665 11.0675 27.1897 14.8218 28.2281 15.8025C28.3371 15.8908 28.3945 15.9408 28.3945 15.9408C28.342 15.9042 28.2866 15.8577 28.2281 15.8025C26.9191 14.7422 18.1638 8.16137 11.9556 16.439C4.48335 26.4019 15.9408 34.3723 15.9408 34.3723Z" fill="#2FC4A7"/>
<path d="M15.9408 34.3723C15.0003 34.539 10.808 31.9804 9.10739 29.3908C6.98164 26.1538 6.24983 19.8111 9.46483 15.4427C12.8445 10.8506 16.7625 9.86696 20.9222 10.4612C25.1665 11.0675 27.1897 14.8218 28.2281 15.8025C28.3371 15.8908 28.3945 15.9408 28.3945 15.9408C28.342 15.9042 28.2866 15.8577 28.2281 15.8025C26.9191 14.7422 18.1638 8.16137 11.9556 16.439C4.48335 26.4019 15.9408 34.3723 15.9408 34.3723Z" fill="white" fill-opacity="0.2"/>
<path d="M83.8697 34.4347C84.8858 34.603 89.3333 32.0443 91.099 29.4513C93.3061 26.2101 93.9364 19.8546 90.3688 15.4725C86.6186 10.866 82.3784 9.8752 77.9172 10.4653C73.3654 11.0674 71.2814 14.8272 70.1884 15.8087C70.0733 15.897 70.0129 15.947 70.0129 15.947C70.0684 15.9104 70.1268 15.864 70.1884 15.8087C71.5706 14.7478 80.8283 8.16408 87.7135 16.4677C96.0004 26.462 83.8697 34.4347 83.8697 34.4347Z" fill="#2FC4A7"/>
<path d="M83.8697 34.4347C84.8858 34.603 89.3333 32.0443 91.099 29.4513C93.3061 26.2101 93.9364 19.8546 90.3688 15.4725C86.6186 10.866 82.3784 9.8752 77.9172 10.4653C73.3654 11.0674 71.2814 14.8272 70.1884 15.8087C70.0733 15.897 70.0129 15.947 70.0129 15.947C70.0684 15.9104 70.1268 15.864 70.1884 15.8087C71.5706 14.7478 80.8283 8.16408 87.7135 16.4677C96.0004 26.462 83.8697 34.4347 83.8697 34.4347Z" fill="white" fill-opacity="0.2"/>
<path d="M65.7555 18.6549C65.7555 22.5066 58.6186 24.9075 49.8148 24.9075C41.0109 24.9075 33.874 22.5066 33.874 18.6549C33.874 14.8032 41.0109 10.9594 49.8148 10.9594C58.6186 10.9594 65.7555 14.8032 65.7555 18.6549Z" fill="#FEFEFE" fill-opacity="0.15"/>
<path d="M71.7494 67.0781C72.6203 65.479 61.9362 71.235 49.8309 71.235C37.7257 71.235 27.434 65.3212 27.9124 67.0781C28.9087 70.7369 37.7257 74.7221 49.8309 74.7221C61.9362 74.7221 69.7568 70.7369 71.7494 67.0781Z" fill="#FEFEFE" fill-opacity="0.15"/>
<path d="M84.187 41.9476C84.187 50.0251 80.3744 56.5819 74.177 61.1348C67.9692 65.6953 59.3612 68.2464 49.8148 68.2464C40.2685 68.2464 31.6605 65.6953 25.4527 61.1348C19.2553 56.5819 15.4426 50.0251 15.4426 41.9476C15.4426 25.696 27.8308 9.4649 49.8148 9.4649C71.7989 9.4649 84.187 25.696 84.187 41.9476Z" stroke="#2FC4A7" stroke-width="0.996296"/>
<path d="M84.187 41.9476C84.187 50.0251 80.3744 56.5819 74.177 61.1348C67.9692 65.6953 59.3612 68.2464 49.8148 68.2464C40.2685 68.2464 31.6605 65.6953 25.4527 61.1348C19.2553 56.5819 15.4426 50.0251 15.4426 41.9476C15.4426 25.696 27.8308 9.4649 49.8148 9.4649C71.7989 9.4649 84.187 25.696 84.187 41.9476Z" stroke="white" stroke-opacity="0.2" stroke-width="0.996296"/>
<path d="M46.9579 12.3767C47.0586 13.086 45.5758 13.7477 43.6691 14.0186C41.7624 14.2894 40.1539 14.0667 40.0531 13.3574C39.9524 12.648 41.3975 11.7205 43.3042 11.4497C45.2109 11.1789 46.8571 11.6673 46.9579 12.3767Z" fill="#FEFEFE"/>
<path d="M19.7668 73.0679C20.0867 73.709 18.8891 74.8056 17.1658 75.6654C15.4425 76.5251 13.8461 76.8224 13.5263 76.1813C13.2064 75.5402 14.2842 74.2034 16.0075 73.3437C17.7308 72.4839 19.447 72.4268 19.7668 73.0679Z" fill="#FEFEFE"/>
<path d="M78.613 73.0144C78.9329 73.6555 77.7353 74.7521 76.012 75.6119C74.2887 76.4716 72.6923 76.7689 72.3725 76.1278C72.0526 75.4867 73.1304 74.1499 74.8537 73.2901C76.5769 72.4304 78.2931 72.3733 78.613 73.0144Z" fill="#FEFEFE"/>
<circle cx="32.3797" cy="38.3575" r="5.47963" fill="#2FC4A7"/>
<circle cx="32.3797" cy="38.3575" r="5.47963" fill="black" fill-opacity="0.6"/>
<circle cx="67.25" cy="38.3576" r="5.47963" fill="#2FC4A7"/>
<circle cx="67.25" cy="38.3576" r="5.47963" fill="black" fill-opacity="0.6"/>
<circle cx="32.8778" cy="37.8594" r="4.98148" fill="#2FC4A7"/>
<circle cx="32.8778" cy="37.8594" r="4.98148" fill="black" fill-opacity="0.4"/>
<path d="M35.8667 39.3539C35.8667 40.7295 34.5285 41.8446 32.8778 41.8446C31.2271 41.8446 29.8889 40.7295 29.8889 39.3539C29.8889 37.9783 31.2271 39.3539 32.8778 39.3539C34.5285 39.3539 35.8667 37.9783 35.8667 39.3539Z" fill="#2FC4A7"/>
<path d="M35.8667 39.3539C35.8667 40.7295 34.5285 41.8446 32.8778 41.8446C31.2271 41.8446 29.8889 40.7295 29.8889 39.3539C29.8889 37.9783 31.2271 39.3539 32.8778 39.3539C34.5285 39.3539 35.8667 37.9783 35.8667 39.3539Z" fill="black" fill-opacity="0.2"/>
<circle cx="67.7482" cy="37.8594" r="4.98148" fill="#2FC4A7"/>
<circle cx="67.7482" cy="37.8594" r="4.98148" fill="black" fill-opacity="0.4"/>
<path d="M61.7704 50.3629C61.7704 56.1404 56.4177 59.7779 49.8148 59.7779C43.2119 59.7779 37.8593 56.1404 37.8593 50.3629C37.8593 44.5854 43.2119 38.8557 49.8148 38.8557C56.4177 38.8557 61.7704 44.5854 61.7704 50.3629Z" fill="#2FC4A7"/>
<path d="M61.7704 50.3629C61.7704 56.1404 56.4177 59.7779 49.8148 59.7779C43.2119 59.7779 37.8593 56.1404 37.8593 50.3629C37.8593 44.5854 43.2119 38.8557 49.8148 38.8557C56.4177 38.8557 61.7704 44.5854 61.7704 50.3629Z" fill="black" fill-opacity="0.2"/>
<path d="M61.7704 49.815C61.7704 55.3173 56.6407 58.7816 50.313 58.7816C43.9852 58.7816 38.8556 55.3173 38.8556 49.815C38.8556 44.3126 43.9852 38.8557 50.313 38.8557C56.6407 38.8557 61.7704 44.3126 61.7704 49.815Z" fill="#2FC4A7"/>
<path d="M61.7704 49.815C61.7704 55.3173 56.6407 58.7816 50.313 58.7816C43.9852 58.7816 38.8556 55.3173 38.8556 49.815C38.8556 44.3126 43.9852 38.8557 50.313 38.8557C56.6407 38.8557 61.7704 44.3126 61.7704 49.815Z" fill="white" fill-opacity="0.6"/>
<path d="M70.7371 39.3539C70.7371 40.7295 69.3989 41.8446 67.7482 41.8446C66.0974 41.8446 64.7593 40.7295 64.7593 39.3539C64.7593 37.9783 66.0974 39.3539 67.7482 39.3539C69.3989 39.3539 70.7371 37.9783 70.7371 39.3539Z" fill="#2FC4A7"/>
<path d="M70.7371 39.3539C70.7371 40.7295 69.3989 41.8446 67.7482 41.8446C66.0974 41.8446 64.7593 40.7295 64.7593 39.3539C64.7593 37.9783 66.0974 39.3539 67.7482 39.3539C69.3989 39.3539 70.7371 37.9783 70.7371 39.3539Z" fill="black" fill-opacity="0.2"/>
<path d="M49.8148 47.8224V51.3094" stroke="#2FC4A7" stroke-width="0.996296" stroke-linecap="round" stroke-linejoin="round"/>
<path d="M49.8148 47.8224V51.3094" stroke="black" stroke-opacity="0.2" stroke-width="0.996296" stroke-linecap="round" stroke-linejoin="round"/>
<path d="M49.3166 38.8557C44.8333 38.8557 42.8407 41.3464 42.8407 42.8409C42.8407 44.8335 49.3166 48.3205 49.8148 48.3205C50.3129 48.3205 56.7888 44.8335 56.5398 42.8409C56.2907 40.8483 53.8 38.8557 49.3166 38.8557Z" fill="#2FC4A7"/>
<path d="M49.3166 38.8557C44.8333 38.8557 42.8407 41.3464 42.8407 42.8409C42.8407 44.8335 49.3166 48.3205 49.8148 48.3205C50.3129 48.3205 56.7888 44.8335 56.5398 42.8409C56.2907 40.8483 53.8 38.8557 49.3166 38.8557Z" fill="black" fill-opacity="0.2"/>
<path d="M50.313 38.8557C45.8296 38.8557 43.837 41.3464 43.837 42.8409C43.837 44.8335 50.313 48.3205 50.8111 48.3205C51.3093 48.3205 57.7852 44.8335 57.5361 42.8409C57.287 40.8483 54.7963 38.8557 50.313 38.8557Z" fill="#2FC4A7"/>
<path d="M50.8815 44.253C48.2743 44.253 46.8259 43.5513 46.8259 44.253C46.8259 45.1887 50.5918 46.8261 50.8815 46.8261C51.1712 46.8261 54.9371 45.1887 54.7922 44.253C54.6474 43.3174 53.4887 44.253 50.8815 44.253Z" fill="#2FC4A7"/>
<path d="M50.8815 44.253C48.2743 44.253 46.8259 43.5513 46.8259 44.253C46.8259 45.1887 50.5918 46.8261 50.8815 46.8261C51.1712 46.8261 54.9371 45.1887 54.7922 44.253C54.6474 43.3174 53.4887 44.253 50.8815 44.253Z" fill="white" fill-opacity="0.4"/>
<path d="M50.3129 51.8076L45.8296 54.2983" stroke="#2FC4A7" stroke-width="0.996296" stroke-linecap="round" stroke-linejoin="round"/>
<path d="M50.3129 51.8076L45.8296 54.2983" stroke="black" stroke-opacity="0.2" stroke-width="0.996296" stroke-linecap="round" stroke-linejoin="round"/>
<path d="M54.7963 54.2983L50.313 51.8075" stroke="#2FC4A7" stroke-width="0.996296" stroke-linecap="round" stroke-linejoin="round"/>
<path d="M54.7963 54.2983L50.313 51.8075" stroke="black" stroke-opacity="0.2" stroke-width="0.996296" stroke-linecap="round" stroke-linejoin="round"/>
<path d="M50.3129 47.8224V51.3094M50.3129 51.3094L45.8296 53.8002M50.3129 51.3094L54.7963 53.8002" stroke="#2FC4A7" stroke-width="0.996296" stroke-linecap="round" stroke-linejoin="round"/>
<ellipse cx="46.9948" cy="41.2575" rx="1.99259" ry="0.996296" transform="rotate(-19.4686 46.9948 41.2575)" fill="#FEFEFE"/>
<ellipse cx="32.0504" cy="35.2797" rx="1.99259" ry="0.996296" transform="rotate(-12.5512 32.0504 35.2797)" fill="#FEFEFE"/>
<ellipse cx="66.9208" cy="35.2797" rx="1.99259" ry="0.996296" transform="rotate(-12.5512 66.9208 35.2797)" fill="#FEFEFE"/>
<ellipse cx="12.5179" cy="9.49625" rx="2.39373" ry="1.19687" transform="rotate(-33.721 12.5179 9.49625)" fill="#FEFEFE"/>
<ellipse cx="73.4058" cy="8.98854" rx="2.39373" ry="1.19687" transform="rotate(-22.2569 73.4058 8.98854)" fill="#FEFEFE"/>
<circle cx="16.4389" cy="7.47231" r="0.498148" fill="#FEFEFE"/>
<circle cx="22.9149" cy="73.726" r="0.996296" fill="#FEFEFE"/>
<circle cx="81.6963" cy="73.726" r="0.996296" fill="#FEFEFE"/>
<circle cx="78.2093" cy="7.47231" r="0.498148" fill="#FEFEFE"/>
<circle cx="20.9223" cy="83.689" r="13.45" stroke="#2FC4A7" stroke-width="0.996296"/>
<circle cx="20.9223" cy="83.689" r="13.45" stroke="white" stroke-opacity="0.4" stroke-width="0.996296"/>
<path d="M32.8778 106.604C32.8778 114.52 34.5551 121.653 37.4643 126.788C40.3737 131.924 44.4691 134.998 49.3166 134.998C54.1688 134.998 58.3895 131.919 61.4225 126.781C64.4542 121.645 66.2537 114.514 66.2537 106.604C66.2537 98.6377 65.5045 91.2566 63.0604 85.8817C61.8423 83.2029 60.2121 81.0426 58.0616 79.5504C55.9145 78.0605 53.2148 77.2131 49.8148 77.2131C43.5672 77.2131 39.3605 80.5508 36.6858 85.8983C33.9962 91.2756 32.8778 98.658 32.8778 106.604Z" stroke="#2FC4A7" stroke-width="0.996296"/>
<path d="M32.8778 106.604C32.8778 114.52 34.5551 121.653 37.4643 126.788C40.3737 131.924 44.4691 134.998 49.3166 134.998C54.1688 134.998 58.3895 131.919 61.4225 126.781C64.4542 121.645 66.2537 114.514 66.2537 106.604C66.2537 98.6377 65.5045 91.2566 63.0604 85.8817C61.8423 83.2029 60.2121 81.0426 58.0616 79.5504C55.9145 78.0605 53.2148 77.2131 49.8148 77.2131C43.5672 77.2131 39.3605 80.5508 36.6858 85.8983C33.9962 91.2756 32.8778 98.658 32.8778 106.604Z" stroke="white" stroke-opacity="0.2" stroke-width="0.996296"/>
<path d="M31.8815 87.176C31.8815 90.2023 26.9749 95.6445 20.9223 95.6445C14.8696 95.6445 9.96301 90.2023 9.96301 87.176C9.96301 84.1497 14.8696 88.1723 20.9223 88.1723C26.9749 88.1723 31.8815 84.1497 31.8815 87.176Z" fill="#2FC4A7"/>
<path d="M31.8815 87.176C31.8815 90.2023 26.9749 95.6445 20.9223 95.6445C14.8696 95.6445 9.96301 90.2023 9.96301 87.176C9.96301 84.1497 14.8696 88.1723 20.9223 88.1723C26.9749 88.1723 31.8815 84.1497 31.8815 87.176Z" fill="white" fill-opacity="0.2"/>
<path d="M89.6667 86.8094C89.6667 89.8357 84.7601 95.2779 78.7074 95.2779C72.6548 95.2779 67.7482 89.8357 67.7482 86.8094C67.7482 83.783 72.6548 87.8056 78.7074 87.8056C84.7601 87.8056 89.6667 83.783 89.6667 86.8094Z" fill="#2FC4A7"/>
<path d="M89.6667 86.8094C89.6667 89.8357 84.7601 95.2779 78.7074 95.2779C72.6548 95.2779 67.7482 89.8357 67.7482 86.8094C67.7482 83.783 72.6548 87.8056 78.7074 87.8056C84.7601 87.8056 89.6667 83.783 89.6667 86.8094Z" fill="white" fill-opacity="0.2"/>
<circle cx="78.7074" cy="83.689" r="13.45" stroke="#2FC4A7" stroke-width="0.996296"/>
<circle cx="78.7074" cy="83.689" r="13.45" stroke="white" stroke-opacity="0.4" stroke-width="0.996296"/>
</g>
<defs>
<clipPath id="clip0_1955_9168">
<rect width="99.6296" height="99.6296" fill="white"/>
</clipPath>
</defs>
</svg>
