<svg width="100" height="100" viewBox="0 0 100 100" fill="none" xmlns="http://www.w3.org/2000/svg">
<g clip-path="url(#clip0_2331_10893)">
<ellipse cx="29.5934" cy="4.03547" rx="29.5934" ry="4.03547" transform="matrix(-0.975435 0.220287 0.220287 0.975435 86.222 20.8138)" fill="#1D8CE0"/>
<ellipse cx="29.5934" cy="4.03547" rx="29.5934" ry="4.03547" transform="matrix(-0.975435 0.220287 0.220287 0.975435 86.222 20.8138)" fill="black" fill-opacity="0.2"/>
<path d="M70.5026 37.53C70.0742 36.319 68.539 35.6798 67.825 35.5116L65.6829 36.0162C65.3259 36.8572 64.7189 38.8419 65.1474 40.0529C65.5758 41.2639 66.7539 42.2394 67.2895 42.5758C66.9324 43.2486 66.861 45.1077 67.2895 46.3187C67.7179 47.5298 69.0745 48.6309 69.9671 49.1355C69.9671 49.9765 69.5386 51.389 69.9671 52.6C70.3955 53.811 71.5737 54.8541 72.1092 55.1905C71.9307 55.6951 71.1454 57.6125 71.5737 59.2272C72.002 60.8419 73.1802 62.2547 73.7158 62.7593C73.3588 63.4321 72.1089 65.2823 72.6446 66.796C73.2235 68.432 73.7158 69.1508 74.2513 69.319C73.7158 69.8235 72.6446 70.3281 72.6446 72.3465C72.6446 74.0109 73.8943 75.5422 74.2513 75.8786C73.8943 76.7196 72.6446 77.3924 72.6446 79.4107C72.6446 80.6872 73.7158 82.4382 74.2513 82.9428C74.2513 83.7838 73.1803 84.4566 73.1803 86.4749C73.1803 88.1393 72.6447 89.3343 71.5737 88.4933C72.1092 89.5024 72.966 90.5116 74.2513 90.5116C75.8579 90.5116 78 88.9979 78 86.4749C78 84.4566 77.1075 82.9428 76.3934 82.4382C76.5719 81.7654 77.4645 80.1171 77.4645 78.9061C77.4645 77.6951 77.1075 75.8786 76.3934 75.374C76.7504 74.8694 77.4645 73.9612 77.4645 72.3465C77.4645 70.7318 77.1075 69.1508 76.3934 68.8144C76.7504 68.478 77.4645 67.4015 77.4645 65.7868C77.4645 64.1722 77.1075 62.7593 76.3935 62.2547C76.572 61.4138 76.9284 59.2147 76.5 57.6C76.0716 55.9853 75.3224 55.0223 74.7868 54.6859C75.1439 54.0131 75.6059 52.3126 75 50.6C74.4645 49.0862 73.1802 48.0843 72.6446 47.8109C72.8231 47.0751 73.073 45.3006 72.6446 44.0896C72.2162 42.8786 70.6811 41.9031 69.9671 41.5667C70.3241 40.7257 70.931 38.741 70.5026 37.53Z" fill="#FAA21E"/>
<path d="M70.5026 37.53C70.0742 36.319 68.539 35.6798 67.825 35.5116L65.6829 36.0162C65.3259 36.8572 64.7189 38.8419 65.1474 40.0529C65.5758 41.2639 66.7539 42.2394 67.2895 42.5758C66.9324 43.2486 66.861 45.1077 67.2895 46.3187C67.7179 47.5298 69.0745 48.6309 69.9671 49.1355C69.9671 49.9765 69.5386 51.389 69.9671 52.6C70.3955 53.811 71.5737 54.8541 72.1092 55.1905C71.9307 55.6951 71.1454 57.6125 71.5737 59.2272C72.002 60.8419 73.1802 62.2547 73.7158 62.7593C73.3588 63.4321 72.1089 65.2823 72.6446 66.796C73.2235 68.432 73.7158 69.1508 74.2513 69.319C73.7158 69.8235 72.6446 70.3281 72.6446 72.3465C72.6446 74.0109 73.8943 75.5422 74.2513 75.8786C73.8943 76.7196 72.6446 77.3924 72.6446 79.4107C72.6446 80.6872 73.7158 82.4382 74.2513 82.9428C74.2513 83.7838 73.1803 84.4566 73.1803 86.4749C73.1803 88.1393 72.6447 89.3343 71.5737 88.4933C72.1092 89.5024 72.966 90.5116 74.2513 90.5116C75.8579 90.5116 78 88.9979 78 86.4749C78 84.4566 77.1075 82.9428 76.3934 82.4382C76.5719 81.7654 77.4645 80.1171 77.4645 78.9061C77.4645 77.6951 77.1075 75.8786 76.3934 75.374C76.7504 74.8694 77.4645 73.9612 77.4645 72.3465C77.4645 70.7318 77.1075 69.1508 76.3934 68.8144C76.7504 68.478 77.4645 67.4015 77.4645 65.7868C77.4645 64.1722 77.1075 62.7593 76.3935 62.2547C76.572 61.4138 76.9284 59.2147 76.5 57.6C76.0716 55.9853 75.3224 55.0223 74.7868 54.6859C75.1439 54.0131 75.6059 52.3126 75 50.6C74.4645 49.0862 73.1802 48.0843 72.6446 47.8109C72.8231 47.0751 73.073 45.3006 72.6446 44.0896C72.2162 42.8786 70.6811 41.9031 69.9671 41.5667C70.3241 40.7257 70.931 38.741 70.5026 37.53Z" fill="white" fill-opacity="0.4"/>
<circle cx="76.5" cy="82.0116" r="1.5" fill="#2FC4A7"/>
<circle cx="76.5" cy="82.0116" r="1.5" fill="black" fill-opacity="0.2"/>
<path d="M67.2258 63.196C66.5338 60.7824 63.3194 51.3617 65.9729 48.5113L68.0607 48.9388C70.5923 52.2437 73.0359 57.5214 75.574 61.7446C78.1121 65.9679 79.9058 69.354 83.9998 73.1L72 84.1C66.666 77.6614 67.7795 65.1269 67.2258 63.196Z" fill="#1D8CE0"/>
<path d="M67.2258 63.196C66.5338 60.7824 63.3194 51.3617 65.9729 48.5113L68.0607 48.9388C70.5923 52.2437 73.0359 57.5214 75.574 61.7446C78.1121 65.9679 79.9058 69.354 83.9998 73.1L72 84.1C66.666 77.6614 67.7795 65.1269 67.2258 63.196Z" fill="white" fill-opacity="0.8"/>
<path d="M77.0812 95.0349C75.2276 80.5773 70.3141 51.1061 68.0898 48.8818C63.6414 47.3336 53.1706 47.2137 48.7222 48.8818C46.9428 51.5509 40.0106 81.3187 36.4889 95.5909C40.9373 97.379 45.9419 100.159 58.7312 100.159C67.0721 100.159 74.3009 96.823 77.0812 95.0349Z" fill="#1D8CE0"/>
<path d="M44 41.1C44.8145 39.1046 46.1761 38.7682 47 38.6L49.5 39.6C49.9119 40.441 49.9943 42.389 49.5 43.6C49.0057 44.811 47.6179 45.2636 47 45.6C47.4119 46.2728 47.6123 48.1 47 49.6C46.5057 50.811 45.2986 51.6309 44.2688 52.1355C44.2688 52.9765 44.6123 54.1 44 55.6C43.3877 57.1 42.4149 57.8541 41.7971 58.1905C42.003 58.6951 42.9092 60.6125 42.415 62.2272C41.9208 63.8419 41.1793 64.7502 40.5612 65.2547C40.9732 65.9275 41.7974 68.2823 41.1793 69.796C40.5114 71.432 40.6179 71.4318 40 71.6C40.6179 72.1046 41.1794 73.3281 41.1793 75.3465C41.1793 77.0109 39.7373 78.5422 39.3254 78.8786C39.7374 79.7196 41.1793 80.0816 41.1793 82.1C41.1793 83.3765 39.9433 85.4382 39.3254 85.9428C39.3254 86.7838 40.5612 87.4566 40.5612 89.4749C40.5612 91.1393 41.1792 92.3343 42.415 91.4933C41.7971 92.5024 40.8084 93.5116 39.3254 93.5116C37.4717 93.5116 35 91.9979 35 89.4749C35 87.4566 36.0299 86.1046 36.8537 85.6C36.6478 84.9272 35 83.311 35 82.1C35 80.889 36.0299 78.8786 36.8537 78.374C36.4418 77.8694 35.6179 76.9612 35.6179 75.3465C35.6179 73.7318 36.6761 71.9364 37.5 71.6C37.0881 71.2636 36 69.7147 36 68.1C36 66.4853 36.6761 65.1046 37.5 64.6C37.294 63.759 36.3594 62.3281 36.8537 60.7135C37.3481 59.0988 38.3821 57.9364 39 57.6C38.5881 56.9272 37.8009 55.3126 38.5 53.6C39.1179 52.0862 40.5614 51.0843 41.1793 50.8109C40.9734 50.0751 40.8778 48.6242 41.5 47.1C42.1222 45.5758 43.4449 44.9031 44.2688 44.5667C43.8568 43.7257 43.5057 42.311 44 41.1Z" fill="#FAA21E"/>
<path d="M44 41.1C44.8145 39.1046 46.1761 38.7682 47 38.6L49.5 39.6C49.9119 40.441 49.9943 42.389 49.5 43.6C49.0057 44.811 47.6179 45.2636 47 45.6C47.4119 46.2728 47.6123 48.1 47 49.6C46.5057 50.811 45.2986 51.6309 44.2688 52.1355C44.2688 52.9765 44.6123 54.1 44 55.6C43.3877 57.1 42.4149 57.8541 41.7971 58.1905C42.003 58.6951 42.9092 60.6125 42.415 62.2272C41.9208 63.8419 41.1793 64.7502 40.5612 65.2547C40.9732 65.9275 41.7974 68.2823 41.1793 69.796C40.5114 71.432 40.6179 71.4318 40 71.6C40.6179 72.1046 41.1794 73.3281 41.1793 75.3465C41.1793 77.0109 39.7373 78.5422 39.3254 78.8786C39.7374 79.7196 41.1793 80.0816 41.1793 82.1C41.1793 83.3765 39.9433 85.4382 39.3254 85.9428C39.3254 86.7838 40.5612 87.4566 40.5612 89.4749C40.5612 91.1393 41.1792 92.3343 42.415 91.4933C41.7971 92.5024 40.8084 93.5116 39.3254 93.5116C37.4717 93.5116 35 91.9979 35 89.4749C35 87.4566 36.0299 86.1046 36.8537 85.6C36.6478 84.9272 35 83.311 35 82.1C35 80.889 36.0299 78.8786 36.8537 78.374C36.4418 77.8694 35.6179 76.9612 35.6179 75.3465C35.6179 73.7318 36.6761 71.9364 37.5 71.6C37.0881 71.2636 36 69.7147 36 68.1C36 66.4853 36.6761 65.1046 37.5 64.6C37.294 63.759 36.3594 62.3281 36.8537 60.7135C37.3481 59.0988 38.3821 57.9364 39 57.6C38.5881 56.9272 37.8009 55.3126 38.5 53.6C39.1179 52.0862 40.5614 51.0843 41.1793 50.8109C40.9734 50.0751 40.8778 48.6242 41.5 47.1C42.1222 45.5758 43.4449 44.9031 44.2688 44.5667C43.8568 43.7257 43.5057 42.311 44 41.1Z" fill="white" fill-opacity="0.4"/>
<ellipse cx="3.05863" cy="2.7803" rx="3.05863" ry="2.7803" transform="matrix(-0.997781 0.0665794 0.0665791 0.997781 46.8992 35.2724)" fill="#D0333D"/>
<ellipse cx="3.05863" cy="2.7803" rx="3.05863" ry="2.7803" transform="matrix(-0.997781 0.0665794 0.0665791 0.997781 46.8992 35.2724)" fill="white" fill-opacity="0.9"/>
<circle cx="39.5" cy="86.0116" r="1.5" fill="#2FC4A7"/>
<circle cx="39.5" cy="86.0116" r="1.5" fill="black" fill-opacity="0.4"/>
<g clip-path="url(#clip1_2331_10893)">
<path d="M25.8415 37.065C26.1994 40.2057 24.3591 43.597 19.9629 44.098C15.5666 44.599 12.3682 40.682 12.5334 37.521C12.775 32.8979 17.1452 29.1425 17.8864 25.8765C19.3434 28.892 25.2535 31.9051 25.8415 37.065Z" fill="#1D8CE0"/>
<path d="M25.8415 37.065C26.1994 40.2057 24.3591 43.597 19.9629 44.098C15.5666 44.599 12.3682 40.682 12.5334 37.521C12.775 32.8979 17.1452 29.1425 17.8864 25.8765C19.3434 28.892 25.2535 31.9051 25.8415 37.065Z" fill="white" fill-opacity="0.2"/>
<path d="M18.204 32.6891C18.808 31.7615 19.8132 30.9182 18.7087 30.1593C17.6042 29.4004 16.502 30.7505 15.8978 31.678C15.1336 32.851 14.4877 34.545 15.5908 35.3036C17.0613 36.3148 17.6001 33.6166 18.204 32.6891Z" fill="#1D8CE0"/>
<path d="M18.204 32.6891C18.808 31.7615 19.8132 30.9182 18.7087 30.1593C17.6042 29.4004 16.502 30.7505 15.8978 31.678C15.1336 32.851 14.4877 34.545 15.5908 35.3036C17.0613 36.3148 17.6001 33.6166 18.204 32.6891Z" fill="white" fill-opacity="0.95"/>
<path d="M16.2695 36.7404C15.8177 36.3681 14.9585 36.0391 14.5955 36.4982C14.2319 36.9573 14.0032 37.9068 14.3648 38.2044C14.8171 38.5767 15.5248 39.0955 16.0388 38.4468C16.4025 37.9877 16.5889 37.0037 16.2695 36.7404Z" fill="#1D8CE0"/>
<path d="M16.2695 36.7404C15.8177 36.3681 14.9585 36.0391 14.5955 36.4982C14.2319 36.9573 14.0032 37.9068 14.3648 38.2044C14.8171 38.5767 15.5248 39.0955 16.0388 38.4468C16.4025 37.9877 16.5889 37.0037 16.2695 36.7404Z" fill="white" fill-opacity="0.95"/>
<path d="M19.7897 42.8592C17.4706 43.1235 15.5033 40.8307 14.8096 39.6512C15.5627 40.1248 17.5659 41.0151 19.5537 40.7886C21.5415 40.5621 23.3245 39.5199 23.9675 39.0271C23.5412 40.1944 22.1088 42.595 19.7897 42.8592Z" fill="#FEFEFE" fill-opacity="0.15"/>
<path d="M19.7897 42.8592C17.4706 43.1235 15.5033 40.8307 14.8096 39.6512C15.5627 40.1248 17.5659 41.0151 19.5537 40.7886C21.5415 40.5621 23.3245 39.5199 23.9675 39.0271C23.5412 40.1944 22.1088 42.595 19.7897 42.8592Z" fill="#FEFEFE" fill-opacity="0.15"/>
<path d="M19.7897 42.8592C17.4706 43.1235 15.5033 40.8307 14.8096 39.6512C15.5627 40.1248 17.5659 41.0151 19.5537 40.7886C21.5415 40.5621 23.3245 39.5199 23.9675 39.0271C23.5412 40.1944 22.1088 42.595 19.7897 42.8592Z" fill="#FEFEFE" fill-opacity="0.15"/>
<path d="M22.7562 46.5126C23.2838 46.4525 23.6627 45.9761 23.6026 45.4485V45.4485C23.5424 44.9209 23.066 44.542 22.5385 44.6021L17.8491 45.1365C17.3216 45.1966 16.9426 45.673 17.0028 46.2006V46.2006C17.0629 46.7282 17.5393 47.1071 18.0669 47.047L22.7562 46.5126Z" fill="#1D8CE0"/>
<path d="M21.9718 47.8707L18.9972 48.2096L23.941 91.5926L24.1692 93.5949L27.1437 93.2559L26.9156 91.2536L21.9718 47.8707Z" fill="#1D8CE0"/>
<ellipse cx="26.0185" cy="96.3973" rx="2.22199" ry="2.22793" transform="rotate(-6.50124 26.0185 96.3973)" fill="#1D8CE0"/>
</g>
<ellipse cx="3.05863" cy="3.10804" rx="3.05863" ry="3.10804" transform="matrix(-0.997781 0.0665794 0.0665791 0.997781 24.975 54.3329)" fill="#D0333D"/>
<ellipse cx="3.05863" cy="3.10804" rx="3.05863" ry="3.10804" transform="matrix(-0.997781 0.0665794 0.0665791 0.997781 24.975 54.3329)" fill="white" fill-opacity="0.9"/>
<path d="M47.5 62C49.2 58.9 52.4999 52.5 48.6999 48.9C46.9999 49.6 45 50.6 45 50.6C42.176 51.6549 40.1756 52.501 37.1548 53.1617C34.1341 53.8224 27.3544 54.3949 23.5 54.6C25.431 66.1175 27.5575 72.0649 31.4999 82.6C41.4999 73.6 46.0076 64.7216 47.5 62Z" fill="#1D8CE0"/>
<path d="M47.5 62C49.2 58.9 52.4999 52.5 48.6999 48.9C46.9999 49.6 45 50.6 45 50.6C42.176 51.6549 40.1756 52.501 37.1548 53.1617C34.1341 53.8224 27.3544 54.3949 23.5 54.6C25.431 66.1175 27.5575 72.0649 31.4999 82.6C41.4999 73.6 46.0076 64.7216 47.5 62Z" fill="white" fill-opacity="0.8"/>
<path d="M50.1389 93.8776L45.5225 86.0239M45.5488 93.9339L50.1126 85.9677M43.2406 90.007L52.4208 89.8945" stroke="#FEFEFE" stroke-width="1.05847" stroke-linecap="round"/>
<path d="M66.978 58.6119L62.6584 53.9898M63.8759 59.3462L65.7604 53.2555M61.7161 57.0351L67.9202 55.5665" stroke="#FEFEFE" stroke-width="0.735039" stroke-linecap="round"/>
<circle cx="37" cy="85.5116" r="1.5" fill="#2FC4A7"/>
<circle cx="37" cy="85.5116" r="1.5" fill="black" fill-opacity="0.2"/>
<ellipse cx="1.05847" cy="1.05847" rx="1.05847" ry="1.05847" transform="matrix(1 -8.74228e-08 -8.74228e-08 -1 57 97.2169)" fill="#FEFEFE"/>
<ellipse cx="1.05847" cy="1.05847" rx="1.05847" ry="1.05847" transform="matrix(1 -8.74228e-08 -8.74228e-08 -1 59 53.2169)" fill="#FEFEFE"/>
<ellipse cx="1.05847" cy="1.05847" rx="1.05847" ry="1.05847" transform="matrix(1 -1.01347e-07 -7.54117e-08 -1 67 64.2169)" fill="#FEFEFE"/>
<ellipse cx="1.05847" cy="1.05847" rx="1.05847" ry="1.05847" transform="matrix(1 -9.67402e-08 -7.90028e-08 -1 44 81.2169)" fill="#FEFEFE"/>
<path d="M42.6826 33.3815C42.6826 41.6733 50.4675 49.5073 61.5887 48.3951C71.0417 47.4498 74.9341 41.6733 74.9341 33.3815C74.9341 25.0897 67.7144 18.3679 58.8084 18.3679C49.9024 18.3679 42.6826 25.0897 42.6826 33.3815Z" fill="#D0333D"/>
<path d="M42.6826 33.3815C42.6826 41.6733 50.4675 49.5073 61.5887 48.3951C71.0417 47.4498 74.9341 41.6733 74.9341 33.3815C74.9341 25.0897 67.7144 18.3679 58.8084 18.3679C49.9024 18.3679 42.6826 25.0897 42.6826 33.3815Z" fill="white" fill-opacity="0.9"/>
<path d="M50.909 28.9801C51.6146 29.5093 55.4997 29.6309 58.9997 28.5116C62.4997 27.3924 65.7276 25.2754 65.7276 25.2754C66.2568 25.8047 66.8492 26.8789 68.903 27.3924C71.0199 27.9216 72.2548 27.2159 72.6076 26.8631C72.784 27.2159 74.5 29.1 75 32.1C75.2599 33.6596 76.2246 28.3047 74.9999 25.5116C73.7751 22.7186 71.9998 22.1 71.9998 22.1H63.6106L42.9999 25.0116C38.4999 34.0116 41.9998 42.0116 49.4998 43.0116C45.7951 39.307 46.532 35.2134 47.9998 33.0116C48.9998 31.5116 50.5562 29.6857 50.909 28.9801Z" fill="#FAA21E"/>
<path d="M50.909 28.9801C51.6146 29.5093 55.4997 29.6309 58.9997 28.5116C62.4997 27.3924 65.7276 25.2754 65.7276 25.2754C66.2568 25.8047 66.8492 26.8789 68.903 27.3924C71.0199 27.9216 72.2548 27.2159 72.6076 26.8631C72.784 27.2159 74.5 29.1 75 32.1C75.2599 33.6596 76.2246 28.3047 74.9999 25.5116C73.7751 22.7186 71.9998 22.1 71.9998 22.1H63.6106L42.9999 25.0116C38.4999 34.0116 41.9998 42.0116 49.4998 43.0116C45.7951 39.307 46.532 35.2134 47.9998 33.0116C48.9998 31.5116 50.5562 29.6857 50.909 28.9801Z" fill="white" fill-opacity="0.4"/>
<ellipse cx="54.6139" cy="41.7409" rx="3.17542" ry="2.64618" fill="#D0333D"/>
<ellipse cx="54.6139" cy="41.7409" rx="3.17542" ry="2.64618" fill="white" fill-opacity="0.8"/>
<path d="M73.4611 40.9991C73.0761 42.2568 71.8577 42.9989 70.7398 42.6567C69.6218 42.3145 69.0276 41.0175 69.4126 39.7598C69.7976 38.5021 71.016 37.76 72.134 38.1022C73.2519 38.4444 73.8461 39.7414 73.4611 40.9991Z" fill="#D0333D"/>
<path d="M73.4611 40.9991C73.0761 42.2568 71.8577 42.9989 70.7398 42.6567C69.6218 42.3145 69.0276 41.0175 69.4126 39.7598C69.7976 38.5021 71.016 37.76 72.134 38.1022C73.2519 38.4444 73.8461 39.7414 73.4611 40.9991Z" fill="white" fill-opacity="0.8"/>
<ellipse cx="2.22424" cy="3.33636" rx="2.22424" ry="3.33636" transform="matrix(-1 0 0 1 57.14 32.8254)" fill="#1D8CE0"/>
<ellipse cx="2.22424" cy="3.33636" rx="2.22424" ry="3.33636" transform="matrix(-1 0 0 1 57.14 32.8254)" fill="black" fill-opacity="0.4"/>
<ellipse cx="1.66818" cy="3.33636" rx="1.66818" ry="3.33636" transform="matrix(-1 0 0 1 72.7095 31.7133)" fill="#1D8CE0"/>
<ellipse cx="1.66818" cy="3.33636" rx="1.66818" ry="3.33636" transform="matrix(-1 0 0 1 72.7095 31.7133)" fill="black" fill-opacity="0.4"/>
<path d="M67.2303 18.1918L86.5789 24.1353C63.6415 24.759 51.4886 27.1252 29.8705 36.7559L45.8525 22.3659C46.1769 17.6959 47.9526 10.7796 46.141 10.0855C44.3294 9.39142 38.4562 15.8173 36.2342 20.2264C38.3997 13.5317 42.6209 2.39031 49.9687 0.73092C57.3165 -0.928473 64.239 11.0529 67.2303 18.1918Z" fill="#1D8CE0"/>
<path d="M67.2303 18.1918L86.5789 24.1353C63.6415 24.759 51.4886 27.1252 29.8705 36.7559L45.8525 22.3659C46.1769 17.6959 47.9526 10.7796 46.141 10.0855C44.3294 9.39142 38.4562 15.8173 36.2342 20.2264C38.3997 13.5317 42.6209 2.39031 49.9687 0.73092C57.3165 -0.928473 64.239 11.0529 67.2303 18.1918Z" fill="white" fill-opacity="0.2"/>
<path d="M66.0451 15.485L67.2303 18.1919C59.8598 18.1241 55.1935 18.9981 45.7795 22.4215L46.2214 19.0479C54.508 15.9798 59.4383 15.039 66.0451 15.485Z" fill="#1D8CE0"/>
<path d="M66.0451 15.485L67.2303 18.1919C59.8598 18.1241 55.1935 18.9981 45.7795 22.4215L46.2214 19.0479C54.508 15.9798 59.4383 15.039 66.0451 15.485Z" fill="white" fill-opacity="0.8"/>
</g>
<defs>
<clipPath id="clip0_2331_10893">
<rect width="100" height="100" fill="white"/>
</clipPath>
<clipPath id="clip1_2331_10893">
<rect width="52.9236" height="52.9236" fill="white" transform="translate(-15 67.1733) rotate(-51.5012)"/>
</clipPath>
</defs>
</svg>
