<svg width="100" height="100" viewBox="0 0 100 100" fill="none" xmlns="http://www.w3.org/2000/svg">
<g clip-path="url(#clip0_3627_29773)">
<path d="M6.28591 71.5484C7.22549 65.2258 21.1626 54.1613 23.9031 51L48.5671 68.3871L74.5 50L93.5 68.3871L97.5 100H3C4.39353 85.0588 5.92918 73.9489 6.28591 71.5484Z" fill="#C57A09"/>
<path d="M29.122 139.914L6.01362 84.1825L-0.782959 141.274L-10.2982 176.616L-40.2031 216.036L1.93567 182.053L29.122 139.914Z" fill="#FAA21E"/>
<path d="M29.122 139.914L6.01362 84.1825L-0.782959 141.274L-10.2982 176.616L-40.2031 216.036L1.93567 182.053L29.122 139.914Z" fill="black" fill-opacity="0.4"/>
<path d="M22.449 64.8629C14.8503 63.2605 6.12245 53.1477 0 50.8047L17.3469 51.8089L38.7755 46.7881C40.9134 66.5987 42.6657 77.8667 50 98C55.7039 78.2355 58.8167 67.1389 61.2245 46.7881L84.6939 51.8089H100C92.1769 53.8172 78.5714 63.1558 69.3878 65.867C59.1837 68.8795 56.1224 85.6154 50 98C44.2177 86.6196 36.7347 67.8753 22.449 64.8629Z" fill="#FAA21E"/>
<path d="M65.8159 57.4941C74.0931 50.7494 82.2868 46.5012 80.6513 39.9578C79.3026 34.5621 77.9093 26.4684 82 22.4215C73.9079 25.1194 77.954 35.911 76.6052 37.2599C75.2564 38.6089 73.9397 33.0305 73.9079 31.8642C72.7454 32.8537 72.5867 36.7216 71.2106 38.6089C69.4905 40.968 68.5716 38.3157 69.2201 36.4493C69.8759 34.5621 71.3731 32.8214 72.254 30.5809C73.2736 27.9873 72.1802 25.5655 72.1326 23.816C71.2106 26 70.7535 28.5 68 28.5C66.3159 28.5 64.9497 26.8862 65 25C65.072 22.3021 69.0988 23.1337 69 19.5C68.9383 17.2292 67.1547 16.349 65.8159 15C68 19 66.3536 20.9577 63.5 21C61 21.0371 59.6558 18.7628 60.5 17C61.3442 15.2373 63.0951 15.4991 63 12C62.9239 9.2008 62 8.50001 59 7.00002C60.2313 8.53751 61 12 58 12C53 12 58 3.50002 55.5 6.00003C52 9.50002 48.5 1.00783 55 3.37176e-05C43 -0.499997 47.5 8 44 6.00003C41.3816 4.50382 39.1513 6.33009 40.5 8.50003C41.8487 10.67 42.1693 13.4456 38.5 13.5C36 13.5371 34.5 11 36.5 8.50003C31.5926 9.00003 31.5 15.4101 34 16.5C36.9348 17.7795 35.5524 20.6446 34.5 21.2356C32.3884 22.4215 28.5 22 30 17C28.1928 18.3351 27.0396 19.67 27.5 22C28.4207 26.66 31.7686 25.4217 30.5 29.5C28.8592 34.775 33.6884 36.3351 30.5 37.2599C28.3421 37.8858 26.6505 32.1492 27.5 30.5809C26.6188 30.9829 26 35.6139 26 38C26 39.349 25.3264 37.4647 24.3554 34.5621C23.1678 31.0122 24.3554 29.2778 24.3554 26.4684C24.3554 22.4215 21.6777 21.0726 19 18.3747C22.6582 26.4684 21.1519 33.0938 19.9609 37.2599C16.8759 48.0515 29.2212 55.7959 36.1105 58.8431C42.2101 61.541 50.9804 62.8899 50.9804 62.8899C50.9804 62.8899 57.5387 64.2389 65.8159 57.4941Z" fill="#D0333D"/>
<path d="M65.8159 57.4941C74.0931 50.7494 82.2868 46.5012 80.6513 39.9578C79.3026 34.5621 77.9093 26.4684 82 22.4215C73.9079 25.1194 77.954 35.911 76.6052 37.2599C75.2564 38.6089 73.9397 33.0305 73.9079 31.8642C72.7454 32.8537 72.5867 36.7216 71.2106 38.6089C69.4905 40.968 68.5716 38.3157 69.2201 36.4493C69.8759 34.5621 71.3731 32.8214 72.254 30.5809C73.2736 27.9873 72.1802 25.5655 72.1326 23.816C71.2106 26 70.7535 28.5 68 28.5C66.3159 28.5 64.9497 26.8862 65 25C65.072 22.3021 69.0988 23.1337 69 19.5C68.9383 17.2292 67.1547 16.349 65.8159 15C68 19 66.3536 20.9577 63.5 21C61 21.0371 59.6558 18.7628 60.5 17C61.3442 15.2373 63.0951 15.4991 63 12C62.9239 9.2008 62 8.50001 59 7.00002C60.2313 8.53751 61 12 58 12C53 12 58 3.50002 55.5 6.00003C52 9.50002 48.5 1.00783 55 3.37176e-05C43 -0.499997 47.5 8 44 6.00003C41.3816 4.50382 39.1513 6.33009 40.5 8.50003C41.8487 10.67 42.1693 13.4456 38.5 13.5C36 13.5371 34.5 11 36.5 8.50003C31.5926 9.00003 31.5 15.4101 34 16.5C36.9348 17.7795 35.5524 20.6446 34.5 21.2356C32.3884 22.4215 28.5 22 30 17C28.1928 18.3351 27.0396 19.67 27.5 22C28.4207 26.66 31.7686 25.4217 30.5 29.5C28.8592 34.775 33.6884 36.3351 30.5 37.2599C28.3421 37.8858 26.6505 32.1492 27.5 30.5809C26.6188 30.9829 26 35.6139 26 38C26 39.349 25.3264 37.4647 24.3554 34.5621C23.1678 31.0122 24.3554 29.2778 24.3554 26.4684C24.3554 22.4215 21.6777 21.0726 19 18.3747C22.6582 26.4684 21.1519 33.0938 19.9609 37.2599C16.8759 48.0515 29.2212 55.7959 36.1105 58.8431C42.2101 61.541 50.9804 62.8899 50.9804 62.8899C50.9804 62.8899 57.5387 64.2389 65.8159 57.4941Z" fill="black" fill-opacity="0.2"/>
<path d="M24.1942 55.2687C25.2307 52.9656 26.9926 51.1763 27.7643 49.2364C31.9042 51.2471 42.3803 55.2687 51.1659 55.2687C58.9848 55.2687 66.315 51.6434 69.9382 49.2325C69.7703 50.5605 73.5651 53.051 72.0424 57.3272C70.1116 62.7495 74.1488 60.0849 75.2323 64.875C75.774 67.27 74.169 68.792 72.0424 70.1643C73.2901 67.0539 70.8786 63.3819 66.7259 64.875C61.5351 66.7413 70.746 72.8293 71.9259 77.0119C72.8699 80.358 69.5787 84.6914 68.5418 85.1046C68.8605 84.101 67.7753 78.2475 63.1045 78.3081C56.8083 78.3896 56.9353 85.5229 60.3859 87.8233C63.1045 89.6357 63.1045 92.3247 61.7452 94.6199C60.3859 96.915 59.3645 95.5204 56.3079 97.3385C53.2513 99.1565 52.23 108.213 56.3079 110.932C50.8707 110.932 41.6906 103.463 41.5 97.3385C41.4067 94.3412 44.0741 91.8185 44.0741 89.1826C44.0741 86.464 43.2898 83.7453 38.6368 85.1046C35.3888 86.0535 35.8286 90.7443 37.2775 92.3247C35.1415 91.153 31.8402 86.464 31.8402 82.386C31.8402 78.7875 38.9059 76.0421 39.8993 74.2301C40.8927 72.4181 39.8083 68.7928 37.2775 68.7928C33.9192 68.7929 31.8402 71.5115 33.2945 74.7488C31.7191 73.3622 30.6466 72.4986 30.5739 70.1643C30.4577 66.4291 33.1148 66.1288 33.1995 63.3556C33.2588 61.4168 33.0122 58.7882 30.5739 58.1094C27.7643 57.3272 25.0436 59.2776 24.337 62.2225C24.2811 60.4241 22.9943 57.9347 24.1942 55.2687Z" fill="#D0333D"/>
<path d="M24.1942 55.2687C25.2307 52.9656 26.9926 51.1763 27.7643 49.2364C31.9042 51.2471 42.3803 55.2687 51.1659 55.2687C58.9848 55.2687 66.315 51.6434 69.9382 49.2325C69.7703 50.5605 73.5651 53.051 72.0424 57.3272C70.1116 62.7495 74.1488 60.0849 75.2323 64.875C75.774 67.27 74.169 68.792 72.0424 70.1643C73.2901 67.0539 70.8786 63.3819 66.7259 64.875C61.5351 66.7413 70.746 72.8293 71.9259 77.0119C72.8699 80.358 69.5787 84.6914 68.5418 85.1046C68.8605 84.101 67.7753 78.2475 63.1045 78.3081C56.8083 78.3896 56.9353 85.5229 60.3859 87.8233C63.1045 89.6357 63.1045 92.3247 61.7452 94.6199C60.3859 96.915 59.3645 95.5204 56.3079 97.3385C53.2513 99.1565 52.23 108.213 56.3079 110.932C50.8707 110.932 41.6906 103.463 41.5 97.3385C41.4067 94.3412 44.0741 91.8185 44.0741 89.1826C44.0741 86.464 43.2898 83.7453 38.6368 85.1046C35.3888 86.0535 35.8286 90.7443 37.2775 92.3247C35.1415 91.153 31.8402 86.464 31.8402 82.386C31.8402 78.7875 38.9059 76.0421 39.8993 74.2301C40.8927 72.4181 39.8083 68.7928 37.2775 68.7928C33.9192 68.7929 31.8402 71.5115 33.2945 74.7488C31.7191 73.3622 30.6466 72.4986 30.5739 70.1643C30.4577 66.4291 33.1148 66.1288 33.1995 63.3556C33.2588 61.4168 33.0122 58.7882 30.5739 58.1094C27.7643 57.3272 25.0436 59.2776 24.337 62.2225C24.2811 60.4241 22.9943 57.9347 24.1942 55.2687Z" fill="black" fill-opacity="0.2"/>
<path d="M57.9927 27.206C54.8275 24.3856 53.1502 33.2904 49.6597 33.2904C46.1693 33.2904 45.0502 25.2132 41.3268 27.206C36.6725 29.697 39.2621 38.1292 35.7713 39.3747C32.2806 40.6202 37.1598 47.8929 39.9378 50.3266C42.603 52.6617 46.169 49.1098 49.6597 49.1098C53.1504 49.1098 56.7834 52.6029 59.3813 50.3266C62.159 47.8929 66.3254 40.1859 63.5478 39.3747C59.3813 38.1578 61.3989 30.2412 57.9927 27.206Z" fill="#CE4317"/>
<path d="M57.9927 27.206C54.8275 24.3856 53.1502 33.2904 49.6597 33.2904C46.1693 33.2904 45.0502 25.2132 41.3268 27.206C36.6725 29.697 39.2621 38.1292 35.7713 39.3747C32.2806 40.6202 37.1598 47.8929 39.9378 50.3266C42.603 52.6617 46.169 49.1098 49.6597 49.1098C53.1504 49.1098 56.7834 52.6029 59.3813 50.3266C62.159 47.8929 66.3254 40.1859 63.5478 39.3747C59.3813 38.1578 61.3989 30.2412 57.9927 27.206Z" fill="white" fill-opacity="0.45"/>
<path d="M45.4336 38.8878L37.2777 37.5285C38.1839 39.3409 40.5401 42.9658 42.715 42.9658C44.8899 42.9658 45.4336 40.2471 45.4336 38.8878Z" fill="#D0333D"/>
<path d="M45.4336 38.8878L37.2777 37.5285C38.1839 39.3409 40.5401 42.9658 42.715 42.9658C44.8899 42.9658 45.4336 40.2471 45.4336 38.8878Z" fill="black" fill-opacity="0.2"/>
<path d="M53.5895 38.8878L61.7454 37.5285C60.8392 39.3409 58.483 42.9658 56.3081 42.9658C54.1332 42.9658 53.5895 40.2471 53.5895 38.8878Z" fill="#D0333D"/>
<path d="M53.5895 38.8878L61.7454 37.5285C60.8392 39.3409 58.483 42.9658 56.3081 42.9658C54.1332 42.9658 53.5895 40.2471 53.5895 38.8878Z" fill="black" fill-opacity="0.2"/>
<path d="M47.2784 37.0887C43.9449 34.3379 40.6113 34.3379 37.2777 35.7133C43.9449 35.7133 43.9449 38.4642 45.6116 39.8396C47.2784 41.215 49.3619 38.808 47.2784 37.0887Z" fill="#D0333D"/>
<path d="M47.2784 37.0887C43.9449 34.3379 40.6113 34.3379 37.2777 35.7133C43.9449 35.7133 43.9449 38.4642 45.6116 39.8396C47.2784 41.215 49.3619 38.808 47.2784 37.0887Z" fill="black" fill-opacity="0.4"/>
<path d="M51.7446 37.0887C55.0782 34.3379 58.4118 34.3379 61.7454 35.7133C55.0782 35.7133 55.0782 38.4642 53.4114 39.8396C51.7446 41.215 49.6612 38.808 51.7446 37.0887Z" fill="#D0333D"/>
<path d="M51.7446 37.0887C55.0782 34.3379 58.4118 34.3379 61.7454 35.7133C55.0782 35.7133 55.0782 38.4642 53.4114 39.8396C51.7446 41.215 49.6612 38.808 51.7446 37.0887Z" fill="black" fill-opacity="0.4"/>
<path d="M45.4333 48.403C45.4333 47.3156 47.2458 42.9658 48.152 41.6064H50.8706C51.7768 42.9658 53.5892 47.3156 53.5892 48.403C53.5892 49.7623 52.2299 49.7623 50.8706 51.1217C49.9094 52.0828 50.3821 52.481 49.5113 52.481C48.6405 52.481 49.1132 52.0828 48.152 51.1217C46.7927 49.7623 45.4333 49.7623 45.4333 48.403Z" fill="#CE4317"/>
<path d="M45.4333 48.403C45.4333 47.3156 47.2458 42.9658 48.152 41.6064H50.8706C51.7768 42.9658 53.5892 47.3156 53.5892 48.403C53.5892 49.7623 52.2299 49.7623 50.8706 51.1217C49.9094 52.0828 50.3821 52.481 49.5113 52.481C48.6405 52.481 49.1132 52.0828 48.152 51.1217C46.7927 49.7623 45.4333 49.7623 45.4333 48.403Z" fill="white" fill-opacity="0.3"/>
<path d="M120.726 176.884L170.49 136.003L149.755 183.932L123.49 233.27L98.6079 176.884L88.9314 81.0267L120.726 176.884Z" fill="#FAA21E"/>
<path d="M120.726 176.884L170.49 136.003L149.755 183.932L123.49 233.27L98.6079 176.884L88.9314 81.0267L120.726 176.884Z" fill="black" fill-opacity="0.4"/>
</g>
<defs>
<clipPath id="clip0_3627_29773">
<rect width="100" height="100" fill="white"/>
</clipPath>
</defs>
</svg>
