<svg width="100" height="100" viewBox="0 0 100 100" fill="none" xmlns="http://www.w3.org/2000/svg">
<path d="M38.7935 24.3055C26.7366 14.2066 9.57184 15.8121 3.73639 17.1423C4.558 24.7907 5.89586 43.1369 14.9428 52.7151C23.9897 62.2933 41.7191 62.9988 48.1694 62.4818C49.2412 54.4541 50.8503 34.4043 38.7935 24.3055Z" fill="#2FC4A7"/>
<path d="M38.7935 24.3055C26.7366 14.2066 9.57184 15.8121 3.73639 17.1423C4.558 24.7907 5.89586 43.1369 14.9428 52.7151C23.9897 62.2933 41.7191 62.9988 48.1694 62.4818C49.2412 54.4541 50.8503 34.4043 38.7935 24.3055Z" fill="black" fill-opacity="0.2"/>
<path d="M38.7935 24.3055C26.7366 14.2066 9.57184 15.8121 3.73639 17.1423C4.558 24.7907 5.89586 43.1369 14.9428 52.7151C23.9897 62.2933 41.7191 62.9988 48.1694 62.4818C49.2412 54.4541 50.8503 34.4043 38.7935 24.3055Z" stroke="#2FC4A7" stroke-width="1.04897"/>
<path d="M38.7935 24.3055C26.7366 14.2066 9.57184 15.8121 3.73639 17.1423C4.558 24.7907 5.89586 43.1369 14.9428 52.7151C23.9897 62.2933 41.7191 62.9988 48.1694 62.4818C49.2412 54.4541 50.8503 34.4043 38.7935 24.3055Z" stroke="black" stroke-opacity="0.4" stroke-width="1.04897"/>
<path d="M4 17C8.06526 19.5109 15.5977 24.524 21.8324 29.5899M46.4831 62.1055C44.8716 59.3065 41.5641 54.2119 38.5 49.5M21.8324 29.5899C24.714 31.9312 27.3184 34.2838 29.1752 36.4059C29.8676 37.1973 31.2569 39.0507 32 40M21.8324 29.5899C21.4828 26.0926 20.2588 18.6783 19 17M21.8324 29.5899C18.6855 30.2884 11.0281 31.5806 5.57345 31.161M32 40C31.9796 35.2797 30.8535 23.1959 29.1752 19M32 40C34.5025 43.1966 35.993 45.6447 38.5 49.5M32 40C27.4341 41.3986 15.8533 42.9095 8.72035 41.6507M38.5 49.5C39.9226 44.9545 42.7069 34.6226 40.1893 27.4897M38.5 49.5C34.6778 51.4231 24.3113 54.6783 15.5 53" stroke="#2FC4A7" stroke-width="1.04897"/>
<path d="M4 17C8.06526 19.5109 15.5977 24.524 21.8324 29.5899M46.4831 62.1055C44.8716 59.3065 41.5641 54.2119 38.5 49.5M21.8324 29.5899C24.714 31.9312 27.3184 34.2838 29.1752 36.4059C29.8676 37.1973 31.2569 39.0507 32 40M21.8324 29.5899C21.4828 26.0926 20.2588 18.6783 19 17M21.8324 29.5899C18.6855 30.2884 11.0281 31.5806 5.57345 31.161M32 40C31.9796 35.2797 30.8535 23.1959 29.1752 19M32 40C34.5025 43.1966 35.993 45.6447 38.5 49.5M32 40C27.4341 41.3986 15.8533 42.9095 8.72035 41.6507M38.5 49.5C39.9226 44.9545 42.7069 34.6226 40.1893 27.4897M38.5 49.5C34.6778 51.4231 24.3113 54.6783 15.5 53" stroke="black" stroke-opacity="0.4" stroke-width="1.04897"/>
<path d="M61.7976 24.3743C73.6904 14.4256 90.3217 16.2366 95.9611 17.6363C95.0201 25.271 93.3773 43.5918 84.416 53.0563C75.4546 62.5208 58.2319 63.0128 51.9804 62.4184C51.0906 54.382 49.9049 34.323 61.7976 24.3743Z" fill="#2FC4A7"/>
<path d="M61.7976 24.3743C73.6904 14.4256 90.3217 16.2366 95.9611 17.6363C95.0201 25.271 93.3773 43.5918 84.416 53.0563C75.4546 62.5208 58.2319 63.0128 51.9804 62.4184C51.0906 54.382 49.9049 34.323 61.7976 24.3743Z" fill="black" fill-opacity="0.2"/>
<path d="M61.7976 24.3743C73.6904 14.4256 90.3217 16.2366 95.9611 17.6363C95.0201 25.271 93.3773 43.5918 84.416 53.0563C75.4546 62.5208 58.2319 63.0128 51.9804 62.4184C51.0906 54.382 49.9049 34.323 61.7976 24.3743Z" stroke="#2FC4A7" stroke-width="1.04897"/>
<path d="M61.7976 24.3743C73.6904 14.4256 90.3217 16.2366 95.9611 17.6363C95.0201 25.271 93.3773 43.5918 84.416 53.0563C75.4546 62.5208 58.2319 63.0128 51.9804 62.4184C51.0906 54.382 49.9049 34.323 61.7976 24.3743Z" stroke="black" stroke-opacity="0.4" stroke-width="1.04897"/>
<path d="M43.512 81.5933C34.8795 87.0128 22.5898 86.1513 18.4117 85.4374C19 81.3329 19.9579 71.4874 26.4353 66.3473C32.9127 61.2072 45.6067 60.8285 50.225 61.106C50.9924 65.414 52.1445 76.1738 43.512 81.5933Z" fill="#2FC4A7"/>
<path d="M43.512 81.5933C34.8795 87.0128 22.5898 86.1513 18.4117 85.4374C19 81.3329 19.9579 71.4874 26.4353 66.3473C32.9127 61.2072 45.6067 60.8285 50.225 61.106C50.9924 65.414 52.1445 76.1738 43.512 81.5933Z" fill="black" fill-opacity="0.2"/>
<path d="M43.512 81.5933C34.8795 87.0128 22.5898 86.1513 18.4117 85.4374C19 81.3329 19.9579 71.4874 26.4353 66.3473C32.9127 61.2072 45.6067 60.8285 50.225 61.106C50.9924 65.414 52.1445 76.1738 43.512 81.5933Z" stroke="#2FC4A7" stroke-width="1.04897"/>
<path d="M43.512 81.5933C34.8795 87.0128 22.5898 86.1513 18.4117 85.4374C19 81.3329 19.9579 71.4874 26.4353 66.3473C32.9127 61.2072 45.6067 60.8285 50.225 61.106C50.9924 65.414 52.1445 76.1738 43.512 81.5933Z" stroke="black" stroke-opacity="0.4" stroke-width="1.04897"/>
<path d="M59.9825 81.5564C68.4975 86.8953 80.4052 85.9234 84.4429 85.1723C83.7692 81.0752 82.593 71.2433 76.1768 66.1642C69.7606 61.0851 57.4295 60.821 52.9535 61.14C52.3165 65.4528 51.4674 76.2174 59.9825 81.5564Z" fill="#2FC4A7"/>
<path d="M59.9825 81.5564C68.4975 86.8953 80.4052 85.9234 84.4429 85.1723C83.7692 81.0752 82.593 71.2433 76.1768 66.1642C69.7606 61.0851 57.4295 60.821 52.9535 61.14C52.3165 65.4528 51.4674 76.2174 59.9825 81.5564Z" fill="black" fill-opacity="0.2"/>
<path d="M59.9825 81.5564C68.4975 86.8953 80.4052 85.9234 84.4429 85.1723C83.7692 81.0752 82.593 71.2433 76.1768 66.1642C69.7606 61.0851 57.4295 60.821 52.9535 61.14C52.3165 65.4528 51.4674 76.2174 59.9825 81.5564Z" stroke="#2FC4A7" stroke-width="1.04897"/>
<path d="M59.9825 81.5564C68.4975 86.8953 80.4052 85.9234 84.4429 85.1723C83.7692 81.0752 82.593 71.2433 76.1768 66.1642C69.7606 61.0851 57.4295 60.821 52.9535 61.14C52.3165 65.4528 51.4674 76.2174 59.9825 81.5564Z" stroke="black" stroke-opacity="0.4" stroke-width="1.04897"/>
<path d="M94.9551 17.7236C90.7794 20.3007 83.048 25.4363 76.663 30.6035M51.6151 63.5182C53.242 60.6931 56.3971 55.7615 59.5 51M76.663 30.6035C73.7119 32.9917 71.0485 35.3866 69.1567 37.5387C68.4511 38.3413 67.2556 40.0387 66.5 41M76.663 30.6035C76.9704 27.1009 78.2213 18.6987 79.5001 17M76.663 30.6035C79.937 31.2505 87.8975 32.4174 93.5468 31.9086M66.5 41C66.4467 36.2799 67.4825 24.2228 69.1567 20M66.5 41C63.9556 44.2371 62.0387 47.1042 59.5 51M66.5 41C71.2565 42.3238 83.0728 43.8237 90.4491 42.4485M59.5 51C57.9532 46.4783 55.0975 35.9769 57.5954 28.8037M59.5 51C63.4936 52.8604 74.3899 55.3222 83.5 53.5" stroke="#2FC4A7" stroke-width="1.04897"/>
<path d="M94.9551 17.7236C90.7794 20.3007 83.048 25.4363 76.663 30.6035M51.6151 63.5182C53.242 60.6931 56.3971 55.7615 59.5 51M76.663 30.6035C73.7119 32.9917 71.0485 35.3866 69.1567 37.5387C68.4511 38.3413 67.2556 40.0387 66.5 41M76.663 30.6035C76.9704 27.1009 78.2213 18.6987 79.5001 17M76.663 30.6035C79.937 31.2505 87.8975 32.4174 93.5468 31.9086M66.5 41C66.4467 36.2799 67.4825 24.2228 69.1567 20M66.5 41C63.9556 44.2371 62.0387 47.1042 59.5 51M66.5 41C71.2565 42.3238 83.0728 43.8237 90.4491 42.4485M59.5 51C57.9532 46.4783 55.0975 35.9769 57.5954 28.8037M59.5 51C63.4936 52.8604 74.3899 55.3222 83.5 53.5" stroke="black" stroke-opacity="0.4" stroke-width="1.04897"/>
<path d="M18.5 85C21.3105 83.5986 27.4532 81.707 31.7637 78.8795M48.8061 60.7313C47.6919 62.2935 45.7982 64.8342 43.6798 67.4642M31.7637 78.8795C33.7559 77.5728 35.5564 76.2597 36.8401 75.0753C37.3189 74.6336 37.8191 74.1414 38.3329 73.6116M31.7637 78.8795C31.5219 80.8315 30.8209 84.9697 29.9506 85.9065M31.7637 78.8795C29.588 78.4897 23.7711 77.2658 20 77.5M38.3329 73.6116C38.3188 76.2462 38.0005 82.1009 36.8401 84.4428M38.3329 73.6116C40.063 71.8274 41.9466 69.6159 43.6798 67.4642M38.3329 73.6116C35.1762 72.831 26.9314 71.2974 22 72M43.6798 67.4642C44.6634 70.0012 46.1954 76.0706 44.4548 80.0518M43.6798 67.4642C41.0373 66.3908 34.2294 64.4783 28.1376 65.415" stroke="#2FC4A7" stroke-width="1.04897"/>
<path d="M18.5 85C21.3105 83.5986 27.4532 81.707 31.7637 78.8795M48.8061 60.7313C47.6919 62.2935 45.7982 64.8342 43.6798 67.4642M31.7637 78.8795C33.7559 77.5728 35.5564 76.2597 36.8401 75.0753C37.3189 74.6336 37.8191 74.1414 38.3329 73.6116M31.7637 78.8795C31.5219 80.8315 30.8209 84.9697 29.9506 85.9065M31.7637 78.8795C29.588 78.4897 23.7711 77.2658 20 77.5M38.3329 73.6116C38.3188 76.2462 38.0005 82.1009 36.8401 84.4428M38.3329 73.6116C40.063 71.8274 41.9466 69.6159 43.6798 67.4642M38.3329 73.6116C35.1762 72.831 26.9314 71.2974 22 72M43.6798 67.4642C44.6634 70.0012 46.1954 76.0706 44.4548 80.0518M43.6798 67.4642C41.0373 66.3908 34.2294 64.4783 28.1376 65.415" stroke="black" stroke-opacity="0.4" stroke-width="1.04897"/>
<path d="M84.5 85.4862C81.5611 84.0856 74.5415 81.4294 70.0477 78.6209M52.4191 60.7313C53.5642 62.2667 55.5126 64.7649 57.6964 67.3528M70.0477 78.6209C67.9708 77.3229 66.0963 76.0213 64.7648 74.8515C64.2683 74.4153 63.75 73.9297 63.2182 73.4072M70.0477 78.6209C70.2641 80.5247 70.9218 84.5629 71.8218 85.4862M70.0477 78.6209C72.352 78.2693 78.9457 78.3444 82.9216 78.6209M63.2182 73.4072C63.1807 75.9727 63.4003 81.6774 64.5786 83.9725M63.2182 73.4072C61.4275 71.6478 59.4831 69.4703 57.6964 67.3528M63.2182 73.4072C66.5658 72.6877 75.3085 71.2525 80.5 72M57.6964 67.3528C56.6078 69.8105 54.87 75.7004 56.6281 79.5992M57.6964 67.3528C60.5071 66.3417 68.5884 64.5096 75 65.5" stroke="#2FC4A7" stroke-width="1.04897"/>
<path d="M84.5 85.4862C81.5611 84.0856 74.5415 81.4294 70.0477 78.6209M52.4191 60.7313C53.5642 62.2667 55.5126 64.7649 57.6964 67.3528M70.0477 78.6209C67.9708 77.3229 66.0963 76.0213 64.7648 74.8515C64.2683 74.4153 63.75 73.9297 63.2182 73.4072M70.0477 78.6209C70.2641 80.5247 70.9218 84.5629 71.8218 85.4862M70.0477 78.6209C72.352 78.2693 78.9457 78.3444 82.9216 78.6209M63.2182 73.4072C63.1807 75.9727 63.4003 81.6774 64.5786 83.9725M63.2182 73.4072C61.4275 71.6478 59.4831 69.4703 57.6964 67.3528M63.2182 73.4072C66.5658 72.6877 75.3085 71.2525 80.5 72M57.6964 67.3528C56.6078 69.8105 54.87 75.7004 56.6281 79.5992M57.6964 67.3528C60.5071 66.3417 68.5884 64.5096 75 65.5" stroke="black" stroke-opacity="0.4" stroke-width="1.04897"/>
<path d="M42.5125 52.3395C46.3478 51.2742 47.058 49.1926 46.7083 48.6682H54.0511C54.4007 49.1926 56.5685 50.6612 58.2469 52.3395C60.3448 54.4375 64.5407 56.0109 70.31 54.962C76.0793 53.913 79.7507 49.1926 80.2752 53.3885C80.6069 56.0422 78.7017 57.0599 72.9324 58.1088C64.5407 59.6346 59.8203 56.0109 59.2958 57.0599C58.7713 58.1088 61.9182 65.4516 62.4427 72.2699C63.0882 80.6616 57.1979 98.8437 54.5756 97.9696C53.0021 97.4451 55.6244 80.6616 53.5265 76.9902C52.028 74.3678 49.5054 74.3678 47.7572 76.9902C45.6593 80.1371 47.7573 95.3472 45.6593 95.3472C43.5612 95.3472 37.792 79.0882 38.841 71.7454C39.8899 64.4026 44.0196 55.2244 41.4635 56.0109C34.6452 58.1088 26.2535 56.0109 24.1556 54.962C22.0576 53.913 21.0086 50.2416 24.1556 50.2416C26.9198 50.2416 33.0718 54.962 42.5125 52.3395Z" fill="#2FC4A7"/>
<path d="M42.5125 52.3395C46.3478 51.2742 47.058 49.1926 46.7083 48.6682H54.0511C54.4007 49.1926 56.5685 50.6612 58.2469 52.3395C60.3448 54.4375 64.5407 56.0109 70.31 54.962C76.0793 53.913 79.7507 49.1926 80.2752 53.3885C80.6069 56.0422 78.7017 57.0599 72.9324 58.1088C64.5407 59.6346 59.8203 56.0109 59.2958 57.0599C58.7713 58.1088 61.9182 65.4516 62.4427 72.2699C63.0882 80.6616 57.1979 98.8437 54.5756 97.9696C53.0021 97.4451 55.6244 80.6616 53.5265 76.9902C52.028 74.3678 49.5054 74.3678 47.7572 76.9902C45.6593 80.1371 47.7573 95.3472 45.6593 95.3472C43.5612 95.3472 37.792 79.0882 38.841 71.7454C39.8899 64.4026 44.0196 55.2244 41.4635 56.0109C34.6452 58.1088 26.2535 56.0109 24.1556 54.962C22.0576 53.913 21.0086 50.2416 24.1556 50.2416C26.9198 50.2416 33.0718 54.962 42.5125 52.3395Z" fill="white" fill-opacity="0.6"/>
<path d="M39.5317 26.6398C43.9973 21.6779 47.9234 22.444 50.0214 17.7236C52.6438 21.395 57.3641 22.9685 62.0845 27.1643C66.8048 31.3602 67.8538 42.8114 62.0845 47.6192C55.7907 52.864 46.3499 52.3395 39.5316 47.6192C32.7134 42.8988 34.8114 31.8847 39.5317 26.6398Z" fill="#2FC4A7"/>
<path d="M39.5317 26.6398C43.9973 21.6779 47.9234 22.444 50.0214 17.7236C52.6438 21.395 57.3641 22.9685 62.0845 27.1643C66.8048 31.3602 67.8538 42.8114 62.0845 47.6192C55.7907 52.864 46.3499 52.3395 39.5316 47.6192C32.7134 42.8988 34.8114 31.8847 39.5317 26.6398Z" fill="white" fill-opacity="0.6"/>
<ellipse cx="41" cy="42.5" rx="3" ry="2.5" fill="#2FC4A7"/>
<ellipse cx="41" cy="42.5" rx="3" ry="2.5" fill="white" fill-opacity="0.4"/>
<ellipse cx="60" cy="42.5" rx="3" ry="2.5" fill="#2FC4A7"/>
<ellipse cx="60" cy="42.5" rx="3" ry="2.5" fill="white" fill-opacity="0.4"/>
<circle cx="41.4632" cy="37.654" r="2.09793" fill="#898989"/>
<circle cx="41.4632" cy="37.654" r="2.09793" fill="black" fill-opacity="0.6"/>
<circle cx="59.2959" cy="37.654" r="2.09793" fill="#898989"/>
<circle cx="59.2959" cy="37.654" r="2.09793" fill="black" fill-opacity="0.6"/>
<path d="M45.6594 25.0664C45.8342 23.3181 46.079 18.7726 45.6594 14.5767C45.2398 10.3809 44.4356 7.23396 44.0859 6.185M54.0511 25.0664C54.2259 22.7936 54.7854 17.6187 55.6246 15.1012C56.4637 12.5837 58.4218 9.15707 59.2959 7.75845" stroke="#FAA21E" stroke-width="1.04897" stroke-linecap="round"/>
<path d="M43.6775 2.22231C44.4939 2.68473 44.8935 5.78651 44.481 6.99059C42.9639 5.86167 41.4848 3.99945 41.5281 3.1614C41.5824 2.11384 42.6571 1.64429 43.6775 2.22231Z" fill="#FAA21E"/>
<path d="M60.3162 4.51836C59.4332 4.79941 58.2677 7.90863 58.3473 9.25245C60.057 8.45155 61.9181 6.88367 62.0911 6.00712C62.3074 4.91142 61.42 4.16705 60.3162 4.51836Z" fill="#FAA21E"/>
</svg>
