<svg width="100" height="100" viewBox="0 0 100 100" fill="none" xmlns="http://www.w3.org/2000/svg">
<g clip-path="url(#clip0_3439_29685)">
<path d="M47.9677 41.2155C44.0998 47.9149 39.3886 52.4361 37.4449 51.3139C35.5013 50.1918 37.0612 43.8511 40.9291 37.1517C44.797 30.4523 47.0563 29.8778 49 31C50.9437 32.1222 51.8356 34.5161 47.9677 41.2155Z" fill="#7445B8"/>
<path d="M47.9677 41.2155C44.0998 47.9149 39.3886 52.4361 37.4449 51.3139C35.5013 50.1918 37.0612 43.8511 40.9291 37.1517C44.797 30.4523 47.0563 29.8778 49 31C50.9437 32.1222 51.8356 34.5161 47.9677 41.2155Z" fill="white" fill-opacity="0.4"/>
<path d="M51 31.5C49.7027 30.1182 48.9465 29.7113 47.5 30L46 31.5C46.3333 31.8333 47.2 32.6 48 33C48.8 33.4 51 34 51.5 34L51 31.5Z" fill="#7445B8"/>
<path d="M62.1812 57.1408C60.171 52.3485 53.3666 40.3492 50.2157 34.9485C48.9094 36.7272 45.6699 41.022 43.1624 43.9721C40.028 47.6596 35.8449 55.4825 35.4953 56.861C34.189 58.6397 31.5926 62.9999 31.6578 66.2117C31.6538 69.1179 27.8736 73.0651 27 75.5C25.8098 78.8169 27 80.1972 27 82C27 82.8073 26.8019 83.9977 26.5142 85.2388C25.2972 85.827 24.0617 86.3766 23.5 87.5C22.8593 88.7815 22.6614 90.2824 22.4776 91.7045C21.2104 92.2889 19.7962 92.9384 19 94C17.9761 95.3652 18 96.5 15 98C17.4999 98.5 20.5243 97.0347 21.5 95.5C22.1166 94.5301 22.2897 93.1585 22.4776 91.7045C23.6359 91.1703 24.6714 90.6904 25 90C25.4679 89.0169 26.089 87.0725 26.5142 85.2388C27.4638 84.7797 28.4021 84.2971 29 83.5C30.5 81.5 29.9805 81.4972 30.7719 78.3766C31.6459 74.9304 33.0403 72.3228 36.0853 70.4329C39.0509 68.5924 44.4856 71.1336 45.2123 70.576C46.7775 70.1853 51.6439 71.2304 53.0343 71.5289C53.8592 71.7061 59.1271 69.9718 60.4253 69.8456C61.5556 69.7249 61.2953 69.3056 62.7751 67.8065C64.2549 66.3073 65.1284 67.199 65.3851 66.1867C65.7347 64.8082 64.6939 63.1311 62.1812 57.1408Z" fill="#2FC4A7"/>
<path d="M62.1812 57.1408C60.171 52.3485 53.3666 40.3492 50.2157 34.9485C48.9094 36.7272 45.6699 41.022 43.1624 43.9721C40.028 47.6596 35.8449 55.4825 35.4953 56.861C34.189 58.6397 31.5926 62.9999 31.6578 66.2117C31.6538 69.1179 27.8736 73.0651 27 75.5C25.8098 78.8169 27 80.1972 27 82C27 82.8073 26.8019 83.9977 26.5142 85.2388C25.2972 85.827 24.0617 86.3766 23.5 87.5C22.8593 88.7815 22.6614 90.2824 22.4776 91.7045C21.2104 92.2889 19.7962 92.9384 19 94C17.9761 95.3652 18 96.5 15 98C17.4999 98.5 20.5243 97.0347 21.5 95.5C22.1166 94.5301 22.2897 93.1585 22.4776 91.7045C23.6359 91.1703 24.6714 90.6904 25 90C25.4679 89.0169 26.089 87.0725 26.5142 85.2388C27.4638 84.7797 28.4021 84.2971 29 83.5C30.5 81.5 29.9805 81.4972 30.7719 78.3766C31.6459 74.9304 33.0403 72.3228 36.0853 70.4329C39.0509 68.5924 44.4856 71.1336 45.2123 70.576C46.7775 70.1853 51.6439 71.2304 53.0343 71.5289C53.8592 71.7061 59.1271 69.9718 60.4253 69.8456C61.5556 69.7249 61.2953 69.3056 62.7751 67.8065C64.2549 66.3073 65.1284 67.199 65.3851 66.1867C65.7347 64.8082 64.6939 63.1311 62.1812 57.1408Z" fill="white" fill-opacity="0.4"/>
<path d="M45.7947 69.2458C47.5918 69.0487 51.5176 70.7057 53.2559 71.5587C50.1 70.8825 48.3773 70.6312 45.4624 70.6242C43.9095 71.0181 40.7336 69.9798 40.1789 69.8617C38.0987 69.4188 34.4343 70.9794 32.5602 74.0619C30.9091 76.7776 31.0363 77.6176 30.5283 79.1415C30.4863 77.8042 30.4579 75.6412 31.5443 73.5539C32.9023 70.9448 35.5888 69.2468 37.5715 68.582C39.5542 67.9173 43.5484 69.4922 45.7947 69.2458Z" fill="#7445B8"/>
<path d="M45.7947 69.2458C47.5918 69.0487 51.5176 70.7057 53.2559 71.5587C50.1 70.8825 48.3773 70.6312 45.4624 70.6242C43.9095 71.0181 40.7336 69.9798 40.1789 69.8617C38.0987 69.4188 34.4343 70.9794 32.5602 74.0619C30.9091 76.7776 31.0363 77.6176 30.5283 79.1415C30.4863 77.8042 30.4579 75.6412 31.5443 73.5539C32.9023 70.9448 35.5888 69.2468 37.5715 68.582C39.5542 67.9173 43.5484 69.4922 45.7947 69.2458Z" fill="white" fill-opacity="0.2"/>
<path d="M72.8107 34.4432C66.428 33.0241 54.7718 32.3304 49.7415 32.1609C49.347 34.8566 48.0525 43.7474 49.2114 48.2814C50.66 53.9488 53.3869 60.4544 56.4347 63.3946C58.2668 65.162 63.8799 66.0481 69.5933 64.535C74.3599 63.2726 81.2921 60.7152 84.768 58.926C86.1616 58.5716 89.5619 57.6828 92.0138 56.9628C95.0787 56.0627 96.3281 55.2018 97.2943 53.9301C98.2605 52.6583 98.244 50.8518 95.2629 45.6344C92.2818 40.4169 80.7891 36.217 72.8107 34.4432Z" fill="#2FC4A7"/>
<path d="M72.8107 34.4432C66.428 33.0241 54.7718 32.3304 49.7415 32.1609C49.347 34.8566 48.0525 43.7474 49.2114 48.2814C50.66 53.9488 53.3869 60.4544 56.4347 63.3946C58.2668 65.162 63.8799 66.0481 69.5933 64.535C74.3599 63.2726 81.2921 60.7152 84.768 58.926C86.1616 58.5716 89.5619 57.6828 92.0138 56.9628C95.0787 56.0627 96.3281 55.2018 97.2943 53.9301C98.2605 52.6583 98.244 50.8518 95.2629 45.6344C92.2818 40.4169 80.7891 36.217 72.8107 34.4432Z" fill="white" fill-opacity="0.2"/>
<path d="M72.9685 33.9462C66.5944 32.3399 54.9213 31.3172 49.8815 31.0066C49.4399 33.7097 48.8276 40.2651 49.9115 44.8621C51.2665 50.6084 56.1029 58.8951 57.9092 60.7255C59.7154 62.5559 64.0416 64.5416 69.227 64.1532C74.1453 63.7849 81.0203 60.6329 84.5354 58.9282C85.9385 58.6102 89.3624 57.81 91.8327 57.1532C94.9206 56.3323 96.1878 55.5003 97.1782 54.2468C98.1686 52.9932 98.1831 51.1739 95.2841 45.8381C92.3852 40.5022 80.9362 35.954 72.9685 33.9462Z" fill="#2FC4A7"/>
<path d="M72.9685 33.9462C66.5944 32.3399 54.9213 31.3172 49.8815 31.0066C49.4399 33.7097 48.8276 40.2651 49.9115 44.8621C51.2665 50.6084 56.1029 58.8951 57.9092 60.7255C59.7154 62.5559 64.0416 64.5416 69.227 64.1532C74.1453 63.7849 81.0203 60.6329 84.5354 58.9282C85.9385 58.6102 89.3624 57.81 91.8327 57.1532C94.9206 56.3323 96.1878 55.5003 97.1782 54.2468C98.1686 52.9932 98.1831 51.1739 95.2841 45.8381C92.3852 40.5022 80.9362 35.954 72.9685 33.9462Z" fill="white" fill-opacity="0.6"/>
<path d="M93.0086 43.0759C97.0722 46.6316 97.9628 50.9734 97.9861 52.5706C95.8094 47.3251 92.215 44.5666 87.8633 41.5715C82.4236 37.8276 70.4033 35.9171 64.2654 35.0382C58.8992 34.2698 54.4158 34.5591 49.5 33.5L49.9176 31C56.1138 31.2326 65.8162 32.4329 71.8932 33.7421C79.6181 35.4063 88.2801 38.9383 93.0086 43.0759Z" fill="#7445B8"/>
<path d="M93.0086 43.0759C97.0722 46.6316 97.9628 50.9734 97.9861 52.5706C95.8094 47.3251 92.215 44.5666 87.8633 41.5715C82.4236 37.8276 70.4033 35.9171 64.2654 35.0382C58.8992 34.2698 54.4158 34.5591 49.5 33.5L49.9176 31C56.1138 31.2326 65.8162 32.4329 71.8932 33.7421C79.6181 35.4063 88.2801 38.9383 93.0086 43.0759Z" fill="white" fill-opacity="0.2"/>
<path d="M18.8453 33.9583C24.1282 33.1455 38.3173 32.6037 44.7516 32.4344C43.905 34.4663 41.9069 39.4443 40.6878 43.1017C39.1639 47.6734 34.5922 55.2929 33.5763 56.3088C32.7297 58.3407 30.3253 62.8108 27.4807 64.4362C24.9409 65.9601 23.9249 69.5159 21.8931 73.5796C19.8612 77.6434 17.0318 77.4841 15 78.5L14.9073 78.5463C14.2384 78.8807 13.4768 79.2614 12.7207 79.6753C12.2592 81.7412 11.8333 83.8925 11.2258 84.5C10.7735 84.9522 9.69156 85.6891 8.54049 86.5468C8.52671 88.2409 8.49555 90.0089 8 91C7.22897 92.5421 6.01593 94.4522 5 97.5C3.98401 93.9442 4.18728 91.6255 5.00002 90C5.56371 88.8726 7.10576 87.6158 8.54049 86.5468C8.55451 84.8222 8.55051 83.1742 8.99999 82.5C9.67051 81.4942 11.1845 80.5162 12.7207 79.6753C13.0309 78.2865 13.3572 76.9363 13.7656 76.1195C14.7815 74.0876 15.0215 73.8477 17.3214 71.5478C19.8612 69.0079 21.3851 66.4681 21.3851 62.9123C21.3851 59.4493 16.2122 56.1972 16.3054 55.2929C15.7975 53.769 12.2417 50.2132 11.2258 49.1973C10.6231 48.5946 9.28037 43.2462 8.68596 42.0857C8.17799 41.0698 8.68601 41.0698 9.19397 39.0379C9.70194 37.0061 8.44787 36.7362 9.19397 35.9901C10.2099 34.9742 12.2418 34.9742 18.8453 33.9583Z" fill="#2FC4A7"/>
<path d="M18.8453 33.9583C24.1282 33.1455 38.3173 32.6037 44.7516 32.4344C43.905 34.4663 41.9069 39.4443 40.6878 43.1017C39.1639 47.6734 34.5922 55.2929 33.5763 56.3088C32.7297 58.3407 30.3253 62.8108 27.4807 64.4362C24.9409 65.9601 23.9249 69.5159 21.8931 73.5796C19.8612 77.6434 17.0318 77.4841 15 78.5L14.9073 78.5463C14.2384 78.8807 13.4768 79.2614 12.7207 79.6753C12.2592 81.7412 11.8333 83.8925 11.2258 84.5C10.7735 84.9522 9.69156 85.6891 8.54049 86.5468C8.52671 88.2409 8.49555 90.0089 8 91C7.22897 92.5421 6.01593 94.4522 5 97.5C3.98401 93.9442 4.18728 91.6255 5.00002 90C5.56371 88.8726 7.10576 87.6158 8.54049 86.5468C8.55451 84.8222 8.55051 83.1742 8.99999 82.5C9.67051 81.4942 11.1845 80.5162 12.7207 79.6753C13.0309 78.2865 13.3572 76.9363 13.7656 76.1195C14.7815 74.0876 15.0215 73.8477 17.3214 71.5478C19.8612 69.0079 21.3851 66.4681 21.3851 62.9123C21.3851 59.4493 16.2122 56.1972 16.3054 55.2929C15.7975 53.769 12.2417 50.2132 11.2258 49.1973C10.6231 48.5946 9.28037 43.2462 8.68596 42.0857C8.17799 41.0698 8.68601 41.0698 9.19397 39.0379C9.70194 37.0061 8.44787 36.7362 9.19397 35.9901C10.2099 34.9742 12.2418 34.9742 18.8453 33.9583Z" fill="white" fill-opacity="0.4"/>
<path d="M17.3214 54.2512C16.5087 52.6257 12.919 50.1874 11.2258 49.1715C13.5416 51.4811 14.7033 52.8046 16.3055 55.2671C16.8135 56.791 19.4549 58.9245 19.8613 59.3308C21.3851 61.3627 22.0219 64.2294 20.3692 67.4583C18.9132 70.3029 17.2227 71.6913 16.3055 72.5379C17.4907 71.8607 20.166 69.9981 21.3851 67.9662C22.909 65.4264 22.909 62.8866 22.4011 60.8547C21.8931 58.8229 18.3374 56.283 17.3214 54.2512Z" fill="#7445B8"/>
<path d="M17.3214 54.2512C16.5087 52.6257 12.919 50.1874 11.2258 49.1715C13.5416 51.4811 14.7033 52.8046 16.3055 55.2671C16.8135 56.791 19.4549 58.9245 19.8613 59.3308C21.3851 61.3627 22.0219 64.2294 20.3692 67.4583C18.9132 70.3029 17.2227 71.6913 16.3055 72.5379C17.4907 71.8607 20.166 69.9981 21.3851 67.9662C22.909 65.4264 22.909 62.8866 22.4011 60.8547C21.8931 58.8229 18.3374 56.283 17.3214 54.2512Z" fill="white" fill-opacity="0.2"/>
<path d="M33.0685 12.6237C37.9449 17.0938 45.2596 26.3388 48.3074 30.4025C46.2756 32.2651 38.5544 38.9106 34.0843 40.5361C28.4967 42.568 19.8613 43.5839 17.3215 42.568C14.9166 41.606 11.7338 38.022 9.70196 32.4344C8.00678 27.7727 6.14624 20.5819 5.63823 16.6875C5.13029 15.3329 3.91121 12.0142 3.09846 9.57594C2.08253 6.52814 2.08253 5.00424 2.5905 3.48034C3.09846 1.95645 4.62236 0.940513 10.718 0.432547C16.8135 -0.0754191 26.9729 7.0361 33.0685 12.6237Z" fill="#2FC4A7"/>
<path d="M33.0685 12.6237C37.9449 17.0938 45.2596 26.3388 48.3074 30.4025C46.2756 32.2651 38.5544 38.9106 34.0843 40.5361C28.4967 42.568 19.8613 43.5839 17.3215 42.568C14.9166 41.606 11.7338 38.022 9.70196 32.4344C8.00678 27.7727 6.14624 20.5819 5.63823 16.6875C5.13029 15.3329 3.91121 12.0142 3.09846 9.57594C2.08253 6.52814 2.08253 5.00424 2.5905 3.48034C3.09846 1.95645 4.62236 0.940513 10.718 0.432547C16.8135 -0.0754191 26.9729 7.0361 33.0685 12.6237Z" fill="white" fill-opacity="0.2"/>
<path d="M33.0685 12.6237C37.9449 17.0938 45.2596 26.3388 48.3074 30.4025C46.2756 32.2651 41.0943 36.3965 36.6242 38.022C31.0365 40.0539 21.3852 40.5619 18.8453 40.0539C16.3055 39.5459 12.2417 37.0061 9.70196 32.4344C7.29303 28.0982 6.14624 20.5819 5.63823 16.6875C5.13029 15.3329 3.91121 12.0142 3.09846 9.57594C2.08253 6.52814 2.08253 5.00424 2.5905 3.48034C3.09846 1.95645 4.62236 0.940513 10.718 0.432547C16.8135 -0.0754191 26.9729 7.0361 33.0685 12.6237Z" fill="#2FC4A7"/>
<path d="M33.0685 12.6237C37.9449 17.0938 45.2596 26.3388 48.3074 30.4025C46.2756 32.2651 41.0943 36.3965 36.6242 38.022C31.0365 40.0539 21.3852 40.5619 18.8453 40.0539C16.3055 39.5459 12.2417 37.0061 9.70196 32.4344C7.29303 28.0982 6.14624 20.5819 5.63823 16.6875C5.13029 15.3329 3.91121 12.0142 3.09846 9.57594C2.08253 6.52814 2.08253 5.00424 2.5905 3.48034C3.09846 1.95645 4.62236 0.940513 10.718 0.432547C16.8135 -0.0754191 26.9729 7.0361 33.0685 12.6237Z" fill="white" fill-opacity="0.6"/>
<path d="M14.2736 0.886711C9.3971 -0.332407 5.46883 1.05603 4.11426 1.90264C9.70188 0.886707 13.9688 2.41061 18.8453 4.44247C24.9409 6.9823 33.0649 16.0452 37.132 20.7254C40.6878 24.8172 42.9442 28.4442 46.5 32L48.3073 30.3768C44.7515 25.2971 38.4799 18.0096 34.0843 13.6139C28.4966 8.02629 20.3692 2.41061 14.2736 0.886711Z" fill="#7445B8"/>
<path d="M14.2736 0.886711C9.3971 -0.332407 5.46883 1.05603 4.11426 1.90264C9.70188 0.886707 13.9688 2.41061 18.8453 4.44247C24.9409 6.9823 33.0649 16.0452 37.132 20.7254C40.6878 24.8172 42.9442 28.4442 46.5 32L48.3073 30.3768C44.7515 25.2971 38.4799 18.0096 34.0843 13.6139C28.4966 8.02629 20.3692 2.41061 14.2736 0.886711Z" fill="white" fill-opacity="0.2"/>
<path d="M27.3584 12C24.3991 12 22 14.3991 22 17.3584C22 19.3418 23.0776 21.0735 24.6792 22C24.1434 20.6314 24.7297 18.5878 26.4444 16.4444C28.1591 14.3011 30.4528 13.9648 32 14.6792C31.0735 13.0776 29.3418 12 27.3584 12Z" fill="#FAA21E"/>
<path d="M27.3584 12C24.3991 12 22 14.3991 22 17.3584C22 19.3418 23.0776 21.0735 24.6792 22C24.1434 20.6314 24.7297 18.5878 26.4444 16.4444C28.1591 14.3011 30.4528 13.9648 32 14.6792C31.0735 13.0776 29.3418 12 27.3584 12Z" fill="white" fill-opacity="0.4"/>
<path d="M27.3584 12C24.3991 12 22 14.3991 22 17.3584C22 19.3418 23.0776 21.0735 24.6792 22C24.1434 20.6314 23.5004 17.3584 25.2151 15.2151C26.9298 13.0717 30.4528 13.9648 32 14.6792C31.0735 13.0776 29.3418 12 27.3584 12Z" fill="#7445B8"/>
<path d="M27.3584 12C24.3991 12 22 14.3991 22 17.3584C22 19.3418 23.0776 21.0735 24.6792 22C24.1434 20.6314 23.5004 17.3584 25.2151 15.2151C26.9298 13.0717 30.4528 13.9648 32 14.6792C31.0735 13.0776 29.3418 12 27.3584 12Z" fill="white" fill-opacity="0.2"/>
<path d="M74.3636 46.321C77.0577 45.0964 78.249 41.9197 77.0244 39.2255C76.2036 37.4199 74.5061 36.2894 72.6646 36.1087C73.7187 37.1328 74.2566 38.9063 73.5825 41.5671C72.9084 44.2279 70.7335 45.8128 69.0294 45.8026C70.5356 46.8773 72.558 47.1417 74.3636 46.321Z" fill="#FAA21E"/>
<path d="M74.3636 46.321C77.0577 45.0964 78.249 41.9197 77.0244 39.2255C76.2036 37.4199 74.5061 36.2894 72.6646 36.1087C73.7187 37.1328 74.2566 38.9063 73.5825 41.5671C72.9084 44.2279 70.7335 45.8128 69.0294 45.8026C70.5356 46.8773 72.558 47.1417 74.3636 46.321Z" fill="white" fill-opacity="0.4"/>
<path d="M74.3636 46.321C77.0577 45.0964 78.249 41.9197 77.0244 39.2255C76.2036 37.4199 74.5061 36.2894 72.6646 36.1087C73.7187 37.1328 75.6585 39.8464 74.9844 42.5072C74.3103 45.168 70.7335 45.8128 69.0294 45.8026C70.5356 46.8773 72.558 47.1417 74.3636 46.321Z" fill="#7445B8"/>
<path d="M74.3636 46.321C77.0577 45.0964 78.249 41.9197 77.0244 39.2255C76.2036 37.4199 74.5061 36.2894 72.6646 36.1087C73.7187 37.1328 75.6585 39.8464 74.9844 42.5072C74.3103 45.168 70.7335 45.8128 69.0294 45.8026C70.5356 46.8773 72.558 47.1417 74.3636 46.321Z" fill="white" fill-opacity="0.2"/>
<circle cx="25" cy="49" r="4" fill="#FEFEFE"/>
<circle cx="25" cy="49" r="4" stroke="#FAA21E" stroke-width="2"/>
<circle cx="25" cy="49" r="4" stroke="white" stroke-opacity="0.4" stroke-width="2"/>
<circle cx="46.3347" cy="61.2071" r="4" fill="#FEFEFE"/>
<circle cx="46.3347" cy="61.2071" r="4" stroke="#FAA21E" stroke-width="2"/>
<circle cx="46.3347" cy="61.2071" r="4" stroke="white" stroke-opacity="0.4" stroke-width="2"/>
<path d="M30 48.8226C30 46.1591 27.8409 44 25.1774 44C23.3924 44 21.8338 44.9698 21 46.4113C22.2317 45.929 25.1774 45.3503 27.1064 46.8936C29.0355 48.4368 28.2317 51.6075 27.5887 53C29.0302 52.1662 30 50.6076 30 48.8226Z" fill="#7445B8"/>
<path d="M30 48.8226C30 46.1591 27.8409 44 25.1774 44C23.3924 44 21.8338 44.9698 21 46.4113C22.2317 45.929 25.1774 45.3503 27.1064 46.8936C29.0355 48.4368 28.2317 51.6075 27.5887 53C29.0302 52.1662 30 50.6076 30 48.8226Z" fill="white" fill-opacity="0.4"/>
<path d="M49.7741 57.4101C47.8908 55.5267 44.8373 55.5267 42.9539 57.4101C41.6917 58.6723 41.2754 60.4601 41.7051 62.069C42.235 60.857 43.9088 58.3649 46.364 58.0921C48.8193 57.8193 50.493 60.6297 51.0229 62.069C51.4526 60.4601 51.0363 58.6723 49.7741 57.4101Z" fill="#7445B8"/>
<path d="M49.7741 57.4101C47.8908 55.5267 44.8373 55.5267 42.9539 57.4101C41.6917 58.6723 41.2754 60.4601 41.7051 62.069C42.235 60.857 43.9088 58.3649 46.364 58.0921C48.8193 57.8193 50.493 60.6297 51.0229 62.069C51.4526 60.4601 51.0363 58.6723 49.7741 57.4101Z" fill="white" fill-opacity="0.4"/>
<path d="M49.004 25.8216C49.2991 26.681 49.1933 28.2385 49.1035 28.9098C49.7417 27.9702 51.0583 25.7888 51.2199 24.5804C51.4219 23.07 51.4892 22.5665 50.6843 20.9214C50.0403 19.6053 48.6264 18.4254 48 18C48.2234 18.884 48.6434 20.8535 48.5357 21.659C48.401 22.666 48.6352 24.7473 49.004 25.8216Z" fill="#FAA21E"/>
<path d="M49.004 25.8216C49.2991 26.681 49.1933 28.2385 49.1035 28.9098C49.7417 27.9702 51.0583 25.7888 51.2199 24.5804C51.4219 23.07 51.4892 22.5665 50.6843 20.9214C50.0403 19.6053 48.6264 18.4254 48 18C48.2234 18.884 48.6434 20.8535 48.5357 21.659C48.401 22.666 48.6352 24.7473 49.004 25.8216Z" fill="white" fill-opacity="0.2"/>
<path d="M50.8833 27.0979C50.3728 27.8496 50.1105 29.0445 50.0431 29.548C50.2334 29.4026 50.8288 29.038 51.6883 28.743C52.7626 28.3741 54.4077 27.5692 55.5493 26.6969C56.4626 25.999 57.6315 23.9004 58.1019 22.9383C57.173 23.4974 55.1003 24.6894 54.2408 24.9844C53.1665 25.3532 51.5214 26.1582 50.8833 27.0979Z" fill="#FAA21E"/>
<path d="M50.8833 27.0979C50.3728 27.8496 50.1105 29.0445 50.0431 29.548C50.2334 29.4026 50.8288 29.038 51.6883 28.743C52.7626 28.3741 54.4077 27.5692 55.5493 26.6969C56.4626 25.999 57.6315 23.9004 58.1019 22.9383C57.173 23.4974 55.1003 24.6894 54.2408 24.9844C53.1665 25.3532 51.5214 26.1582 50.8833 27.0979Z" fill="white" fill-opacity="0.2"/>
</g>
<defs>
<clipPath id="clip0_3439_29685">
<rect width="100" height="100" fill="white"/>
</clipPath>
</defs>
</svg>
