<svg width="100" height="100" viewBox="0 0 100 100" fill="none" xmlns="http://www.w3.org/2000/svg">
<g clip-path="url(#clip0_2327_11288)">
<path d="M91.7996 41.1912C89.6317 38.3006 75.1296 36.99 71.69 38.6077C68.2504 40.2254 69.1159 54.1496 69.4725 55.9586C69.7578 57.4058 74.1843 95.7481 76.3618 114.738C75.7588 114.857 74.7286 116.94 74.005 117.082C73.1005 117.261 72.3872 113.643 71.3044 112.916C70.2216 112.19 68.5909 113.451 68.043 115.439C67.4951 117.426 70.3741 122.496 71.6352 124.127C72.8963 125.758 93.6868 126.357 95.3175 125.096C95.6703 124.823 100.645 120.216 100.401 117.517C100.157 114.817 99.9024 106.988 99.5352 103.592C96.9264 79.4592 93.1697 43.0182 91.7996 41.1912Z" fill="#D0333D"/>
<path d="M59.1385 25.174C46.0328 25.174 23.5663 36.4074 9.52452 41.088C5.78005 49.513 19.4233 90.3557 19.4233 96.9085C19.4233 103.461 8.45244 137.6 10.8624 139.472C14.8433 142.565 46.8353 146.667 52.0536 141.64C52.0536 141.64 52.5857 116.913 56.3303 116.913C60.0749 116.913 57.7821 139.582 58.8836 140.316C67.3086 145.933 95.6472 144.061 95.6472 138.444L87.76 96.9085C87.76 89.4196 89.6322 76.6604 89.6322 39.8054C80.6692 35.4713 69.623 25.174 59.1385 25.174Z" fill="#898989"/>
<path d="M59.1385 25.174C46.0328 25.174 23.5663 36.4074 9.52452 41.088C5.78005 49.513 19.4233 90.3557 19.4233 96.9085C19.4233 103.461 8.45244 137.6 10.8624 139.472C14.8433 142.565 46.8353 146.667 52.0536 141.64C52.0536 141.64 52.5857 116.913 56.3303 116.913C60.0749 116.913 57.7821 139.582 58.8836 140.316C67.3086 145.933 95.6472 144.061 95.6472 138.444L87.76 96.9085C87.76 89.4196 89.6322 76.6604 89.6322 39.8054C80.6692 35.4713 69.623 25.174 59.1385 25.174Z" fill="white" fill-opacity="0.8"/>
<path d="M24.2477 98.1911C17.6948 91.6382 16.348 109.63 14.4758 110.566C14.4757 113.374 7.54509 135.941 9.41718 138.749C10.346 140.143 18.1714 142.051 20.9798 142.363C20.9799 134.702 26.4943 100.438 24.2477 98.1911Z" fill="#898989"/>
<path d="M24.2477 98.1911C17.6948 91.6382 16.348 109.63 14.4758 110.566C14.4757 113.374 7.54509 135.941 9.41718 138.749C10.346 140.143 18.1714 142.051 20.9798 142.363C20.9799 134.702 26.4943 100.438 24.2477 98.1911Z" fill="white" fill-opacity="0.2"/>
<path d="M15.822 49.513L7.5 41.5L29.8638 29.8546H73.8613L89.7752 40.1519V46.7047C85.7187 45.4565 74.0485 42.773 63.564 42.0241C53.0795 41.2752 25.1832 42.9602 15.822 49.513Z" fill="#898989"/>
<path d="M15.822 49.513L7.5 41.5L29.8638 29.8546H73.8613L89.7752 40.1519V46.7047C85.7187 45.4565 74.0485 42.773 63.564 42.0241C53.0795 41.2752 25.1832 42.9602 15.822 49.513Z" fill="white" fill-opacity="0.4"/>
<path d="M82.8175 3.4198C80.9534 0.859823 30.6506 1.36995 28.5226 4.33359C26.3946 7.29723 35.7358 47.6408 40.4165 53.2575C42.5439 55.8104 74.5751 55.6073 76.9249 53.2575C78.7971 51.3853 84.6816 5.97978 82.8175 3.4198Z" fill="#898989"/>
<path d="M82.8175 3.4198C80.9534 0.859823 30.6506 1.36995 28.5226 4.33359C26.3946 7.29723 35.7358 47.6408 40.4165 53.2575C42.5439 55.8104 74.5751 55.6073 76.9249 53.2575C78.7971 51.3853 84.6816 5.97978 82.8175 3.4198Z" fill="white" fill-opacity="0.2"/>
<path d="M19.5667 11.1322C20.5029 9.26001 27.9921 0.834961 29.8644 0.834961C34.5449 18.6212 42.4082 54.0064 40.1615 53.2575C37.9148 52.5086 23.3113 38.2796 22.3753 37.3435C21.4392 36.4074 18.6306 13.0045 19.5667 11.1322Z" fill="#898989"/>
<path d="M19.5667 11.1322C20.5029 9.26001 27.9921 0.834961 29.8644 0.834961C34.5449 18.6212 42.4082 54.0064 40.1615 53.2575C37.9148 52.5086 23.3113 38.2796 22.3753 37.3435C21.4392 36.4074 18.6306 13.0045 19.5667 11.1322Z" fill="white" fill-opacity="0.6"/>
<circle cx="46.0521" cy="28.9375" r="4.69957" fill="#898989"/>
<circle cx="46.0521" cy="28.9375" r="4.69957" fill="white" fill-opacity="0.8"/>
<ellipse cx="74.8328" cy="28.9375" rx="3.52468" ry="4.69957" fill="#898989"/>
<ellipse cx="74.8328" cy="28.9375" rx="3.52468" ry="4.69957" fill="white" fill-opacity="0.8"/>
<path d="M57.2664 37.3435L56.3303 20.5437C60.5428 19.4937 61.947 35.2435 61.947 35.2435L57.2664 37.3435Z" fill="#898989"/>
<path d="M57.2664 37.3435L56.3303 20.5437C60.5428 19.4937 61.947 35.2435 61.947 35.2435L57.2664 37.3435Z" fill="white" fill-opacity="0.6"/>
<path d="M57.2664 37.3435C58.4473 35.8601 60.0334 35.0315 61.0108 33.599H69.4359C69.4359 34.5351 66.6275 36.4074 65.6914 37.3435H57.2664Z" fill="#898989"/>
<path d="M57.2664 37.3435C58.4473 35.8601 60.0334 35.0315 61.0108 33.599H69.4359C69.4359 34.5351 66.6275 36.4074 65.6914 37.3435H57.2664Z" fill="white" fill-opacity="0.4"/>
<path d="M82.322 0.967903C79.7943 -0.206974 31.8679 -0.433342 29.4618 0.967905C27.0557 2.36915 31.7361 14.8767 34.5445 22.3656C35.7854 25.6749 54.9227 19.2663 57.2725 21.6161C59.6223 23.9659 59.179 33.365 60.3539 34.5399C61.5288 35.7148 67.8465 35.7148 69.0214 34.5399C70.1963 33.365 67.6162 23.0213 69.0214 21.6161C70.4266 20.2109 81.9966 25.633 82.3217 21.6161C82.9396 13.9814 84.8497 2.14278 82.322 0.967903Z" fill="#898989"/>
<path d="M82.322 0.967903C79.7943 -0.206974 31.8679 -0.433342 29.4618 0.967905C27.0557 2.36915 31.7361 14.8767 34.5445 22.3656C35.7854 25.6749 54.9227 19.2663 57.2725 21.6161C59.6223 23.9659 59.179 33.365 60.3539 34.5399C61.5288 35.7148 67.8465 35.7148 69.0214 34.5399C70.1963 33.365 67.6162 23.0213 69.0214 21.6161C70.4266 20.2109 81.9966 25.633 82.3217 21.6161C82.9396 13.9814 84.8497 2.14278 82.322 0.967903Z" fill="white" fill-opacity="0.95"/>
<path d="M48.8417 40.1519C46.9619 40.1519 37.6273 34.4682 32.9277 31.7268C34.8 40.1519 39.4768 52.3176 40.4167 53.2575C43.225 56.0658 73.942 55.7148 76.9252 53.2575C77.9512 52.4124 79.7336 40.1519 80.6697 31.7268C78.7115 34.4682 75.0568 40.1519 74.1169 40.1519H48.8417Z" fill="#898989"/>
<path d="M48.8417 40.1519C46.9619 40.1519 37.6273 34.4682 32.9277 31.7268C34.8 40.1519 39.4768 52.3176 40.4167 53.2575C43.225 56.0658 73.942 55.7148 76.9252 53.2575C77.9512 52.4124 79.7336 40.1519 80.6697 31.7268C78.7115 34.4682 75.0568 40.1519 74.1169 40.1519H48.8417Z" fill="white" fill-opacity="0.4"/>
<path d="M48.8417 40.1519L32.9277 31.7268C34.8 38.5917 38.9189 53.2575 40.4167 53.2575C41.9145 53.2575 46.9695 44.5204 48.8417 40.1519Z" fill="#898989"/>
<path d="M48.8417 40.1519L32.9277 31.7268C34.8 38.5917 38.9189 53.2575 40.4167 53.2575C41.9145 53.2575 46.9695 44.5204 48.8417 40.1519Z" fill="white" fill-opacity="0.6"/>
<path d="M80.6695 31.7268L74.1167 40.1519C74.7408 44.2084 76.1762 53.2575 76.925 53.2575C77.6739 53.2575 79.7334 39.2157 80.6695 31.7268Z" fill="#898989"/>
<path d="M80.6695 31.7268L74.1167 40.1519C74.7408 44.2084 76.1762 53.2575 76.925 53.2575C77.6739 53.2575 79.7334 39.2157 80.6695 31.7268Z" fill="white" fill-opacity="0.6"/>
<path d="M20 47.5C18.5022 45.2533 13.0138 41.088 8.5883 41.088C4.16284 41.088 2.9716 56.0659 2.9716 57.9381C2.9716 59.4359 -0.148793 98.5031 -1.70899 117.85C-2.33307 117.85 -3.76844 119.722 -4.51734 119.722C-5.45345 119.722 -5.45345 115.977 -6.38957 115.041C-7.32569 114.105 -9.19792 115.041 -10.134 116.913C-11.0702 118.786 -9.19784 124.402 -8.26173 126.275C-7.32561 128.147 13.2689 132.827 15.1411 131.891C15.5461 131.689 21.4071 128.076 21.6939 125.338C21.9807 122.601 25.1833 108.488 25.1833 100.999C25.1833 73.8521 21.2863 49.4294 20 47.5Z" fill="#1D8CE0"/>
<path d="M51.5226 64.2992H44.0337V81.1493C44.9698 85.8299 47.7782 95.1911 59.9477 95.1911C70.4322 95.1911 73.6774 85.8299 73.9894 81.1493V64.2992H67.4366V81.1493C67.1246 83.3336 65.1899 87.7021 59.9477 87.7021C54.7054 87.7021 52.1467 83.3336 51.5226 81.1493V64.2992Z" fill="#1D8CE0"/>
<path d="M51.5226 64.2992H44.0337V81.1493C44.9698 85.8299 47.7782 95.1911 59.9477 95.1911C70.4322 95.1911 73.6774 85.8299 73.9894 81.1493V64.2992H67.4366V81.1493C67.1246 83.3336 65.1899 87.7021 59.9477 87.7021C54.7054 87.7021 52.1467 83.3336 51.5226 81.1493V64.2992Z" fill="black" fill-opacity="0.2"/>
<path d="M67.4364 81.1493C67.1244 83.3336 65.1898 87.7021 59.9475 87.7021V95.1911C70.432 95.1911 73.6772 85.8299 73.9893 81.1493V64.2992H67.4364V81.1493Z" fill="#D0333D"/>
<path d="M67.4364 81.1493C67.1244 83.3336 65.1898 87.7021 59.9475 87.7021V95.1911C70.432 95.1911 73.6772 85.8299 73.9893 81.1493V64.2992H67.4364V81.1493Z" fill="black" fill-opacity="0.2"/>
<path d="M8.33342 41.088C12.0779 41.088 19.0022 44.7533 20.5 47C21.5656 48.5984 24.8083 74.1614 25.1835 96.3189C25.4675 113.091 22.2457 124.935 21.439 125.338L3.65283 121.594C4.40173 120.845 10.2056 57.9381 8.33342 41.088Z" fill="#1D8CE0"/>
<path d="M8.33342 41.088C12.0779 41.088 19.0022 44.7533 20.5 47C21.5656 48.5984 24.8083 74.1614 25.1835 96.3189C25.4675 113.091 22.2457 124.935 21.439 125.338L3.65283 121.594C4.40173 120.845 10.2056 57.9381 8.33342 41.088Z" fill="white" fill-opacity="0.2"/>
</g>
<defs>
<clipPath id="clip0_2327_11288">
<rect width="100" height="100" fill="white"/>
</clipPath>
</defs>
</svg>
