<svg width="100" height="100" viewBox="0 0 100 100" fill="none" xmlns="http://www.w3.org/2000/svg">
<path d="M17.0516 51.759C25.7825 49.655 33.1397 50.2838 36.4531 44.8663C39.81 41.1628 47.3217 34.4469 52.2073 35.5965C61.8634 37.8685 65.2714 30.399 66.9753 25.3725C68.6015 20.5754 72.5247 17.6436 76.6314 16.2845C80.7381 14.9253 87.1216 18.9835 90.4205 20.4057C93.0596 21.5434 87.2959 27.0594 85.1514 29.9165C88.8771 28.7805 92.5139 25.2592 93.3807 25.7894C94.4642 26.452 91.2959 30.1717 91.7167 31.9179C92.1375 33.6641 94.9188 34.4719 95.8572 36.8324C96.7956 39.1929 94.3383 41.2632 95.3251 43.0577C96.3118 44.8523 98.9964 46.792 97.3324 52.9205C95.6684 59.0491 88.4563 56.7224 88.8771 58.4686C89.2979 60.2148 92.2098 66.1644 90.7877 69.4633C89.3656 72.7621 87.1502 72.0027 88.0402 74.9291C88.9302 77.8556 87.6532 79.4566 85.2443 80.9609C82.8354 82.4652 83.6287 86.5236 82.3517 88.1246C81.0747 89.7257 78.811 89.5322 76.5472 89.3387C74.2835 89.1452 76.6778 94.4805 71.536 94.611C66.3942 94.7416 65.6493 90.1173 63.9515 89.9722C62.2537 89.8271 62.5777 92.7052 59.5062 95.293C56.4346 97.8808 56.9184 92.2214 52.86 93.0147C48.8017 93.8079 50.1609 97.9146 48.4631 97.7695C46.7653 97.6243 47.2007 92.5309 44.2259 93.9868C41.2511 95.4428 37.5314 92.2745 35.2676 92.081C33.0039 91.8875 31.0642 94.572 28.8488 93.8126C26.6334 93.0531 27.2139 86.2619 25.0469 84.9365C22.8799 83.6112 21.4095 87.476 18.5798 87.2341C15.7501 86.9922 17.656 78.034 14.212 78.3097C10.768 78.5854 12.0595 70.1447 10.4101 69.4336C8.76065 68.7226 6.77263 71.9731 6.30345 70.7928C5.83426 69.6126 8.32064 53.8631 17.0516 51.759Z" fill="#1D8CE0"/>
<path d="M17.0516 51.759C25.7825 49.655 33.1397 50.2838 36.4531 44.8663C39.81 41.1628 47.3217 34.4469 52.2073 35.5965C61.8634 37.8685 65.2714 30.399 66.9753 25.3725C68.6015 20.5754 72.5247 17.6436 76.6314 16.2845C80.7381 14.9253 87.1216 18.9835 90.4205 20.4057C93.0596 21.5434 87.2959 27.0594 85.1514 29.9165C88.8771 28.7805 92.5139 25.2592 93.3807 25.7894C94.4642 26.452 91.2959 30.1717 91.7167 31.9179C92.1375 33.6641 94.9188 34.4719 95.8572 36.8324C96.7956 39.1929 94.3383 41.2632 95.3251 43.0577C96.3118 44.8523 98.9964 46.792 97.3324 52.9205C95.6684 59.0491 88.4563 56.7224 88.8771 58.4686C89.2979 60.2148 92.2098 66.1644 90.7877 69.4633C89.3656 72.7621 87.1502 72.0027 88.0402 74.9291C88.9302 77.8556 87.6532 79.4566 85.2443 80.9609C82.8354 82.4652 83.6287 86.5236 82.3517 88.1246C81.0747 89.7257 78.811 89.5322 76.5472 89.3387C74.2835 89.1452 76.6778 94.4805 71.536 94.611C66.3942 94.7416 65.6493 90.1173 63.9515 89.9722C62.2537 89.8271 62.5777 92.7052 59.5062 95.293C56.4346 97.8808 56.9184 92.2214 52.86 93.0147C48.8017 93.8079 50.1609 97.9146 48.4631 97.7695C46.7653 97.6243 47.2007 92.5309 44.2259 93.9868C41.2511 95.4428 37.5314 92.2745 35.2676 92.081C33.0039 91.8875 31.0642 94.572 28.8488 93.8126C26.6334 93.0531 27.2139 86.2619 25.0469 84.9365C22.8799 83.6112 21.4095 87.476 18.5798 87.2341C15.7501 86.9922 17.656 78.034 14.212 78.3097C10.768 78.5854 12.0595 70.1447 10.4101 69.4336C8.76065 68.7226 6.77263 71.9731 6.30345 70.7928C5.83426 69.6126 8.32064 53.8631 17.0516 51.759Z" fill="white" fill-opacity="0.6"/>
<path d="M17.0516 51.759C25.7825 49.655 33.1397 50.2838 36.4531 44.8663C39.81 41.1628 47.3217 34.4469 52.2073 35.5965C61.8634 37.8685 65.2714 30.399 66.9753 25.3725C68.6015 20.5754 72.5247 17.6436 76.6314 16.2845C80.7381 14.9253 87.1216 18.9835 90.4205 20.4057C93.0596 21.5434 87.2959 27.0594 85.1514 29.9165C88.8771 28.7805 92.5139 25.2592 93.3807 25.7894C94.4642 26.452 91.2959 30.1717 91.7167 31.9179C92.1375 33.6641 94.9188 34.4719 95.8572 36.8324C96.7956 39.1929 94.3383 41.2632 95.3251 43.0577C96.3118 44.8523 98.9964 46.792 97.3324 52.9205C95.6684 59.0491 88.4563 56.7224 88.8771 58.4686C89.2979 60.2148 92.2098 66.1644 90.7877 69.4633C89.3656 72.7621 87.1502 72.0027 88.0402 74.9291C88.9302 77.8556 87.6532 79.4566 85.2443 80.9609C82.8354 82.4652 83.6287 86.5236 82.3517 88.1246C81.0747 89.7257 78.811 89.5322 76.5472 89.3387C74.2835 89.1452 76.6778 94.4805 71.536 94.611C66.3942 94.7416 65.6493 90.1173 63.9515 89.9722C62.2537 89.8271 62.5777 92.7052 59.5062 95.293C56.4346 97.8808 56.9184 92.2214 52.86 93.0147C48.8017 93.8079 50.1609 97.9146 48.4631 97.7695C46.7653 97.6243 47.2007 92.5309 44.2259 93.9868C41.2511 95.4428 37.5314 92.2745 35.2676 92.081C33.0039 91.8875 31.0642 94.572 28.8488 93.8126C26.6334 93.0531 27.2139 86.2619 25.0469 84.9365C22.8799 83.6112 21.4095 87.476 18.5798 87.2341C15.7501 86.9922 17.656 78.034 14.212 78.3097C10.768 78.5854 12.0595 70.1447 10.4101 69.4336C8.76065 68.7226 6.77263 71.9731 6.30345 70.7928C5.83426 69.6126 8.32064 53.8631 17.0516 51.759Z" stroke="#FEFEFE" stroke-width="1.136"/>
<path d="M40.2791 45.2525C39.7111 47.3352 37.4391 51.8413 32.8951 53.2045C27.2151 54.9085 18.1271 56.0445 15.2871 58.8845C13.3938 60.7779 9.94789 65.7005 11.3111 70.2445M43.1192 45.2525C42.5512 48.0925 40.7336 54.7949 38.0072 58.8845C34.5992 63.9965 27.7832 63.4285 25.5112 70.2445C23.6936 75.6973 24.3752 81.9832 24.9432 84.4446M45.3912 45.2525C46.1486 49.2285 47.2088 58.0893 45.3912 61.7245C43.1192 66.2685 39.1433 70.8125 39.7112 77.6285C40.1655 83.0814 43.6872 90.5032 45.3912 93.5326M48.7992 42.9805C51.8286 44.6845 58.6824 49.5693 61.8632 55.4765C65.8392 62.8605 67.5432 69.6765 71.5192 74.2205C74.7 77.8557 81.1753 80.2792 84.0153 81.0366M50.5032 41.2765C54.8579 42.4125 64.2488 45.9341 66.9752 50.9325C70.3832 57.1805 72.0872 58.8845 77.1992 62.2925C81.2889 65.0189 87.0446 65.3219 90.8313 65.1325M51.6392 39.0045C58.4552 41.2765 70.6237 44.5277 77.1992 42.9805C86.8553 40.7085 87.9913 39.0045 94.8073 42.4125M51.6392 36.7325C56.1832 37.8685 64.4104 37.2264 68.5 34.5C73.612 31.092 75.4953 19.6925 90.8313 21.3965" stroke="#FEFEFE" stroke-width="1.136"/>
<path d="M38.7493 17.9521C33.9044 18.7453 35.7482 24.6765 33.9698 25.3387L23.8177 11C24.879 12.1771 34.8268 14.2953 41.8097 11.9648C50.5383 9.05165 46.3041 6.13015 56.5642 2.30984C63.0818 -0.11697 74.3789 3.6134 75.2479 9.26198C72.6409 6.65494 69.4163 5.37796 64.8198 7.08945C59.0742 9.22882 63.9887 13.01 62.6473 13.1725C61.3059 13.3351 57.6414 15.5781 56.961 17.516C56.2807 19.4539 55.2607 21.4281 50.4811 21.4281C45.5716 21.4281 43.4236 17.1868 38.7493 17.9521Z" fill="#1D8CE0"/>
<path d="M38.7493 17.9521C33.9044 18.7453 35.7482 24.6765 33.9698 25.3387L23.8177 11C24.879 12.1771 34.8268 14.2953 41.8097 11.9648C50.5383 9.05165 46.3041 6.13015 56.5642 2.30984C63.0818 -0.11697 74.3789 3.6134 75.2479 9.26198C72.6409 6.65494 69.4163 5.37796 64.8198 7.08945C59.0742 9.22882 63.9887 13.01 62.6473 13.1725C61.3059 13.3351 57.6414 15.5781 56.961 17.516C56.2807 19.4539 55.2607 21.4281 50.4811 21.4281C45.5716 21.4281 43.4236 17.1868 38.7493 17.9521Z" fill="white" fill-opacity="0.4"/>
<path d="M38.7493 17.9521C33.9044 18.7453 35.7482 24.6765 33.9698 25.3387L23.8177 11C24.879 12.1771 34.8268 14.2953 41.8097 11.9648C50.5383 9.05165 46.3041 6.13015 56.5642 2.30984C63.0818 -0.11697 74.3789 3.6134 75.2479 9.26198C72.6409 6.65494 69.4163 5.37796 64.8198 7.08945C59.0742 9.22882 63.9887 13.01 62.6473 13.1725C61.3059 13.3351 57.6414 15.5781 56.961 17.516C56.2807 19.4539 55.2607 21.4281 50.4811 21.4281C45.5716 21.4281 43.4236 17.1868 38.7493 17.9521Z" stroke="#FEFEFE" stroke-width="0.869013"/>
<path d="M32 14.5C36.5 15 46.5 14.5 49.5 12.5C52.8541 10.2639 54.568 6.82202 59.5 6.00001C62.5 5.5 65 6.50001 66 7.00001M35 17C35.8333 16.3333 41.2 15.7 44 16.5C47.5 17.5 49.5 17.5 52 16C54.5 14.5 57 10 62.5 12.5" stroke="#FEFEFE"/>
<path d="M19.7412 6.95323C15.7438 5.69943 14.1741 3.00773 13.5001 2C12.3682 1.90325 10.277 2.39893 8.99999 3.99999C7.72299 5.60105 7.71136 7.63517 8.45623 12.2594C9.2011 16.8837 16.6259 30.0599 22.6577 32.8558C28.6895 35.6516 34.6246 39.5794 35.6597 40.808C36.4878 41.7909 36.5013 44.3004 36.4046 45.4323C39.4229 45.6903 45.9317 46.0186 47.8201 45.2679C49.7085 44.5172 51.8607 38.0123 52.7007 34.8537C52.3073 35.0101 50.9739 35.0481 48.7876 33.9491C46.0546 32.5754 45.8757 27.9995 39.7133 20.0618C33.551 12.1242 24.7378 8.52048 19.7412 6.95323Z" fill="#1D8CE0"/>
<path d="M19.7412 6.95323C15.7438 5.69943 14.1741 3.00773 13.5001 2C12.3682 1.90325 10.277 2.39893 8.99999 3.99999C7.72299 5.60105 7.71136 7.63517 8.45623 12.2594C9.2011 16.8837 16.6259 30.0599 22.6577 32.8558C28.6895 35.6516 34.6246 39.5794 35.6597 40.808C36.4878 41.7909 36.5013 44.3004 36.4046 45.4323C39.4229 45.6903 45.9317 46.0186 47.8201 45.2679C49.7085 44.5172 51.8607 38.0123 52.7007 34.8537C52.3073 35.0101 50.9739 35.0481 48.7876 33.9491C46.0546 32.5754 45.8757 27.9995 39.7133 20.0618C33.551 12.1242 24.7378 8.52048 19.7412 6.95323Z" fill="white" fill-opacity="0.2"/>
<path fill-rule="evenodd" clip-rule="evenodd" d="M22.6788 7.97476L22.4788 8.15281C22.5191 8.19807 22.562 8.24314 22.6073 8.28785L22.6027 8.29193C23.0261 8.7675 23.4674 9.72635 23.5066 10.8338C23.5456 11.9321 23.1891 13.1696 22.0291 14.2216L21.992 14.255C20.8532 15.2689 19.8677 15.6711 19.0618 15.6974C18.2608 15.7234 17.6093 15.3791 17.1283 14.8389L16.8545 15.0827C17.2619 15.5403 17.4524 16.3008 17.2339 17.2298C17.0159 18.1569 16.3907 19.2423 15.1839 20.3168C14.3075 21.0972 13.3563 21.4093 12.4642 21.4349C12.534 21.5536 12.6045 21.6723 12.6756 21.7911C13.5508 21.727 14.4688 21.4033 15.3207 20.6835C15.7143 21.192 16.0957 22.0956 16.1282 23.1258C16.1551 23.9777 15.9435 24.9124 15.3032 25.7786C15.3784 25.8819 15.4538 25.9848 15.5295 26.0871C16.2755 25.1252 16.5249 24.0718 16.4947 23.1142C16.4728 22.4229 16.3052 21.7793 16.0732 21.2537C16.5938 21.5678 17.2388 21.8144 17.942 21.9105C19.0828 22.0663 20.3831 21.827 21.5577 20.8344C21.9514 21.3429 22.3328 22.2465 22.3653 23.2767C22.4002 24.3821 22.0335 25.6266 20.85 26.6804C19.7361 27.6722 18.5015 27.9076 17.4207 27.7599C17.1717 27.7259 16.9312 27.6715 16.7026 27.6015C16.8332 27.7622 16.9643 27.9209 17.0959 28.0775C17.1865 28.0952 17.2783 28.1105 17.3711 28.1232C18.5118 28.2791 19.8122 28.0397 20.9868 27.0471C21.3804 27.5557 21.7618 28.4592 21.7943 29.4894C21.8192 30.2756 21.6409 31.1322 21.11 31.9404C21.2109 32.0121 21.3117 32.0815 21.4122 32.1484C21.9904 31.2712 22.1879 30.336 22.1608 29.4778C22.139 28.7865 21.9714 28.1429 21.7393 27.6173C22.2599 27.9314 22.905 28.178 23.6081 28.2741C24.7489 28.43 26.0492 28.1906 27.2238 27.198C27.6175 27.7066 27.9989 28.6101 28.0314 29.6403C28.0663 30.7457 27.6996 31.9903 26.5162 33.044C26.0066 33.4978 25.4717 33.7932 24.9378 33.9661C25.0859 34.0415 25.2335 34.1173 25.3806 34.1935C25.8146 34.0141 26.2454 33.7564 26.6604 33.4044L26.6571 33.4073C26.9994 33.7918 27.3533 34.4919 27.4971 35.331C27.632 35.4061 27.7661 35.4813 27.8993 35.5565C27.8384 35.0171 27.6934 34.5176 27.5066 34.0945C28.0272 34.4087 28.6723 34.6552 29.3754 34.7513C30.5162 34.9072 31.8165 34.6678 32.9911 33.6753C33.3848 34.1838 33.7662 35.0874 33.7987 36.1175C33.8251 36.9513 33.6229 37.8643 33.0141 38.7148C33.117 38.7853 33.2176 38.8548 33.3159 38.9232C33.972 38.0042 34.1938 37.0121 34.1652 36.106C34.1433 35.4146 33.9757 34.771 33.7437 34.2454C34.2643 34.5595 34.9093 34.8061 35.6125 34.9022C36.7532 35.0581 38.0536 34.8187 39.2282 33.8262C39.6219 34.3347 40.0033 35.2383 40.0358 36.2684C40.0707 37.3738 39.704 38.6184 38.5205 39.6722C37.5933 40.4978 36.5824 40.7992 35.6462 40.7919C35.6508 40.7973 35.6554 40.8027 35.6599 40.808C35.7445 40.9084 35.8206 41.0247 35.8889 41.1538C36.8009 41.112 37.7653 40.7926 38.6573 40.0389C39.0509 40.5474 39.4323 41.451 39.4648 42.4811C39.4963 43.4778 39.2013 44.5875 38.2756 45.5686C38.4282 45.578 38.5838 45.5873 38.7419 45.5963C39.5846 44.5938 39.8632 43.4785 39.8313 42.4696C39.8095 41.7782 39.6418 41.1347 39.4098 40.609C39.9304 40.9232 40.5755 41.1697 41.2786 41.2658C42.4222 41.4221 43.7261 41.1811 44.9029 40.1825L44.9062 40.1857L44.9016 40.1898C45.3273 40.6679 45.7709 41.6344 45.8062 42.7491C45.8362 43.6996 45.5692 44.753 44.7414 45.6995C44.9093 45.6927 45.0738 45.6847 45.2344 45.6754C45.9594 44.723 46.2025 43.6835 46.1726 42.7375C46.1495 42.0061 45.9632 41.3281 45.7101 40.7867C46.2156 41.0774 46.8297 41.3036 47.4961 41.3946C48.5446 41.5379 49.7281 41.3472 50.8248 40.5446C50.9184 40.3108 51.0104 40.0744 51.1004 39.8367C51.0597 39.8753 51.0179 39.9137 50.975 39.9519C49.8611 40.9437 48.6265 41.1791 47.5457 41.0314C46.5441 40.8945 45.6806 40.4293 45.175 39.9358C46.3113 38.8367 46.6755 37.5536 46.6393 36.4077C46.6162 35.6763 46.4299 34.9983 46.1768 34.4569C46.6823 34.7476 47.2965 34.9738 47.9628 35.0649C48.7765 35.1761 49.6714 35.0861 50.544 34.6652C50.3785 34.6152 50.2042 34.5569 50.0213 34.4894C49.3357 34.7429 48.6475 34.7884 48.0124 34.7016C46.9968 34.5628 46.1231 34.0864 45.6207 33.5853C46.1862 33.0387 46.5607 32.4465 46.7898 31.8483C46.709 31.7126 46.6283 31.5715 46.5469 31.425C46.3366 32.1282 45.9198 32.8345 45.2047 33.4712C44.1274 34.4304 42.9377 34.6819 41.8835 34.5641C40.911 34.4555 40.0569 34.0327 39.5198 33.5616C40.6539 32.4586 41.0133 31.1719 40.9726 30.0253C40.9469 29.3011 40.7616 28.63 40.5107 28.0933C41.0162 28.384 41.6304 28.6102 42.2967 28.7012C43.1276 28.8148 44.0431 28.7186 44.9331 28.2745C44.878 28.1673 44.8219 28.0588 44.7646 27.9487C43.9462 28.3559 43.1081 28.4421 42.3463 28.338C41.3307 28.1992 40.457 27.7228 39.9546 27.2217C41.092 26.1222 41.4565 24.8386 41.4203 23.6923C41.3985 23.001 41.2308 22.3574 40.9988 21.8318C41.0176 21.8431 41.0366 21.8544 41.0558 21.8655C40.8398 21.5622 40.6149 21.2532 40.3805 20.9387L40.3524 20.9637C40.3616 20.9551 40.3708 20.9465 40.3799 20.9379C40.307 20.84 40.2331 20.7415 40.1583 20.6425C40.1099 20.6891 40.0599 20.7354 40.0083 20.7813C38.8944 21.7731 37.6599 22.0084 36.579 21.8607C35.5634 21.7219 34.6897 21.2456 34.1873 20.7445C35.3247 19.645 35.6892 18.3613 35.653 17.215C35.6312 16.5237 35.4635 15.8801 35.2315 15.3545C35.247 15.3639 35.2626 15.3731 35.2783 15.3824C34.9339 15.082 34.5866 14.7909 34.2371 14.5087C33.1511 15.4238 31.9599 15.6402 30.9129 15.4971C29.8973 15.3583 29.0236 14.882 28.5212 14.3809C29.4427 13.4901 29.8569 12.4784 29.9616 11.5168C29.8451 11.4462 29.7286 11.3764 29.6123 11.3075C29.5442 12.2938 29.1323 13.3521 28.1052 14.2668C27.0279 15.2259 25.8381 15.4774 24.7839 15.3597C23.8114 15.251 22.9574 14.8283 22.4203 14.3571C23.5544 13.2541 23.9137 11.9675 23.873 10.8208C23.8474 10.0966 23.6621 9.42557 23.4112 8.88881C23.9166 9.17955 24.5308 9.40572 25.1971 9.49678C25.5421 9.54392 25.9017 9.55491 26.268 9.51985C26.011 9.39631 25.7562 9.27674 25.5037 9.16101C25.4172 9.15432 25.3315 9.14509 25.2468 9.13351C24.2597 8.99863 23.4068 8.54491 22.8984 8.0595C22.8248 8.03091 22.7516 8.00266 22.6788 7.97476ZM52.147 34.935C52.2614 35.215 52.3567 35.5302 52.4181 35.8688C52.4901 35.6206 52.557 35.3833 52.6184 35.1596C52.5901 35.0713 52.5599 34.9852 52.5279 34.9015C52.4266 34.9207 52.2995 34.9335 52.147 34.935ZM22.7318 23.2651C22.7099 22.5738 22.5423 21.9302 22.3103 21.4046C22.8308 21.7187 23.4759 21.9653 24.1791 22.0613C25.3198 22.2172 26.6202 21.9778 27.7948 20.9853C28.1885 21.4938 28.5698 22.3974 28.6024 23.4276C28.6373 24.5329 28.2706 25.7775 27.0871 26.8313C25.9732 27.8231 24.7386 28.0585 23.6578 27.9108C22.6421 27.772 21.7685 27.2956 21.2661 26.7945C22.4034 25.6951 22.768 24.4114 22.7318 23.2651ZM28.9688 23.416C28.9457 22.6845 28.7594 22.0065 28.5063 21.4651C29.0407 21.7725 29.6971 22.0081 30.4093 22.0876C31.5241 22.2122 32.7791 21.9545 33.9153 20.9909L33.9395 21.0151L33.9349 21.0192C34.3586 21.495 34.8 22.4545 34.8389 23.5626C34.8775 24.6615 34.5201 25.8997 33.358 26.9518L33.3242 26.9822C32.2103 27.974 30.9757 28.2094 29.8949 28.0617C28.8792 27.9229 28.0056 27.4465 27.5031 26.9454C28.6405 25.846 29.0051 24.5623 28.9688 23.416ZM19.0737 16.0638C19.9663 16.0348 20.9941 15.6044 22.1292 14.6224C22.5227 15.131 22.9037 16.0342 22.9363 17.064C22.9712 18.1693 22.6045 19.4139 21.421 20.4677C20.3071 21.4595 19.0725 21.6949 17.9917 21.5472C16.977 21.4085 16.1041 20.9329 15.6014 20.4324C16.7404 19.3694 17.3631 18.2817 17.5908 17.3137C17.7313 16.7163 17.7214 16.1612 17.5861 15.6897C18.0123 15.9405 18.5108 16.0821 19.0737 16.0638ZM23.3027 17.0524C23.2796 16.3209 23.0933 15.6429 22.8402 15.1015C23.3745 15.4089 24.031 15.6445 24.7432 15.724C25.858 15.8485 27.1129 15.5909 28.2492 14.6273L28.2734 14.6515L28.2688 14.6555C28.6922 15.1311 29.1335 16.09 29.1728 17.1974C29.2117 18.2957 28.8552 19.5332 27.6952 20.5852L27.6581 20.6186C26.5442 21.6104 25.3096 21.8458 24.2287 21.6981C23.2131 21.5593 22.3394 21.0829 21.837 20.5818C22.9744 19.4823 23.3389 18.1987 23.3027 17.0524ZM29.5392 17.1844C29.5135 16.4602 29.3282 15.7892 29.0773 15.2524C29.5828 15.5432 30.1969 15.7693 30.8633 15.8604C32.004 16.0163 33.3044 15.7769 34.479 14.7844C34.8726 15.2929 35.254 16.1965 35.2865 17.2266C35.3215 18.332 34.9548 19.5766 33.7713 20.6304C32.694 21.5895 31.5042 21.841 30.45 21.7233C29.4775 21.6146 28.6235 21.1919 28.0864 20.7208C29.2205 19.6177 29.5798 18.3311 29.5392 17.1844ZM40.1526 21.1416L40.1493 21.1446C40.575 21.6227 41.0186 22.5892 41.0538 23.7039C41.0888 24.8092 40.7221 26.0538 39.5386 27.1076C38.4257 28.0985 37.1924 28.3343 36.1123 28.1875C35.1116 28.0515 34.2484 27.5876 33.7418 27.0947C34.8838 25.99 35.2457 24.6996 35.2053 23.5497C35.1799 22.8249 34.9945 22.1532 34.7434 21.616C35.2489 21.9068 35.863 22.1329 36.5294 22.224C37.6725 22.3802 38.976 22.1395 40.1526 21.1416ZM29.8452 28.425C30.9884 28.5812 32.2919 28.3404 33.4685 27.3425L33.4651 27.3455C33.8909 27.8236 34.3345 28.7901 34.3697 29.9048C34.4046 31.0102 34.0379 32.2548 32.8544 33.3086C31.7405 34.3004 30.5059 34.5357 29.4251 34.388C28.3365 34.2393 27.411 33.7027 26.9309 33.1635L26.8602 33.2265C28.0542 32.1121 28.4348 30.7989 28.3979 29.6287C28.376 28.9374 28.2084 28.2938 27.9764 27.7682C28.497 28.0823 29.142 28.3289 29.8452 28.425ZM40.4023 36.2568C40.4385 37.4031 40.0739 38.6868 38.9366 39.7863C39.439 40.2874 40.3126 40.7638 41.3283 40.9025C42.4091 41.0503 43.6437 40.8149 44.7576 39.8231C45.9411 38.7693 46.3078 37.5247 46.2729 36.4193C46.2377 35.3046 45.794 34.3381 45.3683 33.86L45.3729 33.8559L45.3487 33.8318C44.2125 34.7953 42.9576 35.053 41.8428 34.9285C41.1305 34.8489 40.4741 34.6133 39.9397 34.306C40.1929 34.8474 40.3792 35.5254 40.4023 36.2568ZM36.0629 28.5508C37.2052 28.7061 38.5072 28.4649 39.6826 27.4682L39.7068 27.4923L39.7022 27.4964C40.1256 27.972 40.5669 28.9308 40.6062 30.0382C40.6451 31.1366 40.2886 32.3741 39.1287 33.4261L39.0915 33.4595C37.9776 34.4513 36.743 34.6866 35.6622 34.5389C34.6465 34.4001 33.7729 33.9238 33.2704 33.4227C34.4078 32.3232 34.7724 31.0395 34.7361 29.8932C34.713 29.1618 34.5267 28.4838 34.2736 27.9424C34.7799 28.2336 35.3953 28.46 36.0629 28.5508Z" fill="#FEFEFE"/>
<path d="M16.9915 14.0124C15.0339 15.4806 11.1025 16.0681 10.1754 15.7988C12.0135 16.526 15.8555 17.6417 18.1628 15.7988C20.3995 14.0124 20.3994 9.46843 19.8314 7.7644C19.4815 9.63473 19.2635 12.3084 16.9915 14.0124Z" fill="#1D8CE0"/>
<path d="M16.9915 14.0124C15.0339 15.4806 11.1025 16.0681 10.1754 15.7988C12.0135 16.526 15.8555 17.6417 18.1628 15.7988C20.3995 14.0124 20.3994 9.46843 19.8314 7.7644C19.4815 9.63473 19.2635 12.3084 16.9915 14.0124Z" fill="white" fill-opacity="0.8"/>
<circle cx="14.4062" cy="9.34757" r="2.272" transform="rotate(4.88564 14.4062 9.34757)" fill="#1D8CE0"/>
<circle cx="14.4062" cy="9.34757" r="2.272" transform="rotate(4.88564 14.4062 9.34757)" fill="black" fill-opacity="0.8"/>
<circle cx="14.4062" cy="9.34757" r="2.272" transform="rotate(4.88564 14.4062 9.34757)" stroke="#FEFEFE" stroke-width="1.136"/>
<path d="M12.5001 31C17.5771 28.8847 19.5 21.5 21 21C22.5 20.5 23.5 22.5 23 24.5C22.5 26.5 21.2345 33.8827 16 36.5C12 38.5 12 45.5 14.5 49C17.7788 53.5903 12.5255 57.5 14.5255 59.5C16.1255 61.1 18 68.5 14.5255 74.5C14.5255 69 12.5001 65.5 9.50004 62C6.48744 58.4854 2.00012 52 2.50012 45.5C2.9232 40 6.5 33.5 12.5001 31Z" fill="#1D8CE0"/>
<path d="M12.5001 31C17.5771 28.8847 19.5 21.5 21 21C22.5 20.5 23.5 22.5 23 24.5C22.5 26.5 21.2345 33.8827 16 36.5C12 38.5 12 45.5 14.5 49C17.7788 53.5903 12.5255 57.5 14.5255 59.5C16.1255 61.1 18 68.5 14.5255 74.5C14.5255 69 12.5001 65.5 9.50004 62C6.48744 58.4854 2.00012 52 2.50012 45.5C2.9232 40 6.5 33.5 12.5001 31Z" fill="white" fill-opacity="0.4"/>
<path d="M12.5001 31C17.5771 28.8847 19.5 21.5 21 21C22.5 20.5 23.5 22.5 23 24.5C22.5 26.5 21.2345 33.8827 16 36.5C12 38.5 12 45.5 14.5 49C17.7788 53.5903 12.5255 57.5 14.5255 59.5C16.1255 61.1 18 68.5 14.5255 74.5C14.5255 69 12.5001 65.5 9.50004 62C6.48744 58.4854 2.00012 52 2.50012 45.5C2.9232 40 6.5 33.5 12.5001 31Z" stroke="#FEFEFE"/>
<path d="M21.5001 21C20.5001 23.6667 17.6001 30.3 16.0001 31.5C14.0001 33 9.0001 35.5 7.0001 39.5C5.0001 43.5 6.00002 47.5 8.00008 50.5C11 54.9998 15.5 58.5 16.5 65.5M22.5001 21.5C21.6668 24.3333 19.3828 31.7449 17.5001 33C15.6174 34.2551 12.2 36 11 38C9.50002 40.5 8.50008 43 10.0001 47C11.5001 51 15.5 53 15 55" stroke="#FEFEFE"/>
</svg>
