<svg width="100" height="100" viewBox="0 0 100 100" fill="none" xmlns="http://www.w3.org/2000/svg">
<path d="M24.9898 89.4882C19.3706 84.4758 28.7361 68.9373 24.99 60.9175C40.911 59.5808 73.4857 56.5066 71.9873 60.9175C70.1142 66.4311 79.0185 82.3868 75.3739 87.8542C71.7674 93.2644 63.8285 96 50.7171 96C37.6057 96 30.609 94.5006 24.9898 89.4882Z" fill="#D0333D"/>
<path d="M24.9898 89.4882C19.3706 84.4758 28.7361 68.9373 24.99 60.9175C40.911 59.5808 73.4857 56.5066 71.9873 60.9175C70.1142 66.4311 79.0185 82.3868 75.3739 87.8542C71.7674 93.2644 63.8285 96 50.7171 96C37.6057 96 30.609 94.5006 24.9898 89.4882Z" fill="white" fill-opacity="0.9"/>
<path d="M77.503 28.9591C72.951 17.1809 69.6995 7.85652 46.9394 6.875C22.2284 6.875 21.578 23.5608 18.3266 30.9221C14.7295 39.0663 12.8767 47.5114 6.3738 51.4375C-0.129105 55.3636 6.13327 63.357 18.9769 66.2567C38.5402 70.6735 55.8677 71.7142 76.2025 67.2382C91.8094 63.8029 100.003 52.2239 92.1447 50C86.9424 48.5277 82.0551 40.7373 77.503 28.9591Z" fill="#FAA21E"/>
<path d="M77.503 28.9591C72.951 17.1809 69.6995 7.85652 46.9394 6.875C22.2284 6.875 21.578 23.5608 18.3266 30.9221C14.7295 39.0663 12.8767 47.5114 6.3738 51.4375C-0.129105 55.3636 6.13327 63.357 18.9769 66.2567C38.5402 70.6735 55.8677 71.7142 76.2025 67.2382C91.8094 63.8029 100.003 52.2239 92.1447 50C86.9424 48.5277 82.0551 40.7373 77.503 28.9591Z" fill="white" fill-opacity="0.6"/>
<path d="M81.1239 27.4792C76.0382 15.9209 69.1447 4 49.4989 4C30.8114 4 21.7072 16.4583 15.9572 30.8333C12.7239 38.9167 13.1029 47.1564 6.54581 51.0777C-0.0112624 54.999 6.57492 59.3253 19.6601 61.8613C39.3862 65.6843 55.2016 66.6072 76.1059 63.3318C88.6192 61.3711 100.367 52.3185 92.4435 50.0974C87.1978 48.6269 86.3947 39.4583 81.1239 27.4792Z" fill="#D0333D"/>
<path d="M62.4365 14.4048C62.4365 18.1853 57.9118 21.25 53.9422 21.25C49.9727 21.25 48.0615 17.5008 48.0615 13.7202C48.0615 9.93972 51.2795 6.875 55.249 6.875C59.2186 6.875 62.4365 10.6242 62.4365 14.4048Z" fill="#D0333D"/>
<path d="M62.4365 14.4048C62.4365 18.1853 57.9118 21.25 53.9422 21.25C49.9727 21.25 48.0615 17.5008 48.0615 13.7202C48.0615 9.93972 51.2795 6.875 55.249 6.875C59.2186 6.875 62.4365 10.6242 62.4365 14.4048Z" fill="white" fill-opacity="0.9"/>
<path d="M65.7604 44.5549C68.0283 45.6489 69.4136 48.4294 68.2103 50.9241C67.0069 53.4188 62.6391 54.4677 60.3711 53.3738C58.1032 52.2798 57.6981 49.4993 58.9014 47.0046C60.1048 44.5099 63.4925 43.461 65.7604 44.5549Z" fill="#D0333D"/>
<path d="M65.7604 44.5549C68.0283 45.6489 69.4136 48.4294 68.2103 50.9241C67.0069 53.4188 62.6391 54.4677 60.3711 53.3738C58.1032 52.2798 57.6981 49.4993 58.9014 47.0046C60.1048 44.5099 63.4925 43.461 65.7604 44.5549Z" fill="white" fill-opacity="0.9"/>
<path d="M23.5598 57.6505C21.4191 57.7577 19.5666 55.5036 19.4638 53.4499C19.361 51.3963 21.4344 50.3012 23.5751 50.1941C25.7157 50.0869 27.5344 51.6648 27.6372 53.7185C27.74 55.7722 25.7005 57.5433 23.5598 57.6505Z" fill="#D0333D"/>
<path d="M23.5598 57.6505C21.4191 57.7577 19.5666 55.5036 19.4638 53.4499C19.361 51.3963 21.4344 50.3012 23.5751 50.1941C25.7157 50.0869 27.5344 51.6648 27.6372 53.7185C27.74 55.7722 25.7005 57.5433 23.5598 57.6505Z" fill="white" fill-opacity="0.9"/>
<path d="M79.3772 59.8959C78.561 60.3983 76.8346 60.3357 75.7738 58.6123C75.7041 56.6709 76.5456 56.2093 77.3365 55.6662C78.1274 55.123 80.571 54.6598 81.3858 55.8462C82.5499 57.5413 80.6013 59.1425 79.3772 59.8959Z" fill="#D0333D"/>
<path d="M79.3772 59.8959C78.561 60.3983 76.8346 60.3357 75.7738 58.6123C75.7041 56.6709 76.5456 56.2093 77.3365 55.6662C78.1274 55.123 80.571 54.6598 81.3858 55.8462C82.5499 57.5413 80.6013 59.1425 79.3772 59.8959Z" fill="white" fill-opacity="0.9"/>
<path d="M17.7886 26.5282C18.3949 24.6646 21.2636 18.9274 23.6007 17.0844C25.9378 15.2413 27.9854 16.4161 29.661 18.5408C31.3365 20.6655 29.7357 25.2355 27.3986 27.0786C25.0614 28.9216 19.4641 28.6528 17.7886 26.5282Z" fill="#D0333D"/>
<path d="M17.7886 26.5282C18.3949 24.6646 21.2636 18.9274 23.6007 17.0844C25.9378 15.2413 27.9854 16.4161 29.661 18.5408C31.3365 20.6655 29.7357 25.2355 27.3986 27.0786C25.0614 28.9216 19.4641 28.6528 17.7886 26.5282Z" fill="white" fill-opacity="0.9"/>
<path d="M73.1721 35.4543C71.2665 33.327 70.2856 28.9814 71.7204 26.8314C73.1553 24.6815 76.7771 24.9091 78.7316 26.2135C80.6861 27.5179 81.4291 31.5989 79.9943 33.7488C78.5594 35.8987 75.1266 36.7588 73.1721 35.4543Z" fill="#D0333D"/>
<path d="M73.1721 35.4543C71.2665 33.327 70.2856 28.9814 71.7204 26.8314C73.1553 24.6815 76.7771 24.9091 78.7316 26.2135C80.6861 27.5179 81.4291 31.5989 79.9943 33.7488C78.5594 35.8987 75.1266 36.7588 73.1721 35.4543Z" fill="white" fill-opacity="0.9"/>
<path d="M49.0198 43.2379C49.0198 47.5839 43.7698 51.1071 38.5198 49.6763C33.2698 47.5302 31.7698 45.4378 31.7698 41.0917C31.7698 36.7456 34.7698 31.7917 41.5198 31.7917C46.0761 31.7917 49.0198 38.8918 49.0198 43.2379Z" fill="#D0333D"/>
<path d="M49.0198 43.2379C49.0198 47.5839 43.7698 51.1071 38.5198 49.6763C33.2698 47.5302 31.7698 45.4378 31.7698 41.0917C31.7698 36.7456 34.7698 31.7917 41.5198 31.7917C46.0761 31.7917 49.0198 38.8918 49.0198 43.2379Z" fill="white" fill-opacity="0.9"/>
<circle cx="37.9989" cy="84.0208" r="4.3125" fill="#D0333D"/>
<circle cx="37.9989" cy="84.0208" r="4.3125" fill="white" fill-opacity="0.8"/>
<circle cx="61.9573" cy="84.0208" r="4.3125" fill="#D0333D"/>
<circle cx="61.9573" cy="84.0208" r="4.3125" fill="white" fill-opacity="0.8"/>
<circle cx="40.8739" cy="80.1875" r="2.39583" fill="#898989"/>
<circle cx="40.8739" cy="80.1875" r="2.39583" fill="black" fill-opacity="0.6"/>
<circle cx="59.0824" cy="80.1875" r="2.39583" fill="#898989"/>
<circle cx="59.0824" cy="80.1875" r="2.39583" fill="black" fill-opacity="0.6"/>
<path d="M49.0198 85.4583H51.4156" stroke="#D0333D" stroke-width="0.958333" stroke-linecap="round"/>
<path d="M49.0198 85.4583H51.4156" stroke="black" stroke-opacity="0.2" stroke-width="0.958333" stroke-linecap="round"/>
</svg>
