<svg width="100" height="100" viewBox="0 0 100 100" fill="none" xmlns="http://www.w3.org/2000/svg">
<path d="M80.358 45.6909C81.6068 30.6803 74.0227 18.7027 70.0745 14.5903L37.6204 45.6263C39.5001 50.7925 42.8962 57.6437 41.2919 66.3572C39.8764 74.0457 33.6235 76.3739 29.4519 78.1498C27.5766 77.8428 25.9751 73.7368 22.3124 72.3595C18.1265 70.7855 11.7827 72.6205 10.3253 73.1077C11.0821 75.5423 14.3219 81.5384 16.8335 82.4829C19.3451 83.4273 23.9514 83.2482 24.946 83.1444C24.3175 83.5452 19.2335 85.2487 17.5081 88.9478C15.7827 92.6468 19.1673 96.8181 19.5925 99.2873C22.4206 97.484 26.8963 97.0169 29.4131 92.2299C31.0909 89.0385 31.5047 84.9736 31.5147 83.4644C34.6023 84.1476 46.8667 86.0574 57.3742 80.7659C71.2251 73.7906 78.797 64.4543 80.358 45.6909Z" fill="#7445B8"/>
<path d="M80.358 45.6909C81.6068 30.6803 74.0227 18.7027 70.0745 14.5903L37.6204 45.6263C39.5001 50.7925 42.8962 57.6437 41.2919 66.3572C39.8764 74.0457 33.6235 76.3739 29.4519 78.1498C27.5766 77.8428 25.9751 73.7368 22.3124 72.3595C18.1265 70.7855 11.7827 72.6205 10.3253 73.1077C11.0821 75.5423 14.3219 81.5384 16.8335 82.4829C19.3451 83.4273 23.9514 83.2482 24.946 83.1444C24.3175 83.5452 19.2335 85.2487 17.5081 88.9478C15.7827 92.6468 19.1673 96.8181 19.5925 99.2873C22.4206 97.484 26.8963 97.0169 29.4131 92.2299C31.0909 89.0385 31.5047 84.9736 31.5147 83.4644C34.6023 84.1476 46.8667 86.0574 57.3742 80.7659C71.2251 73.7906 78.797 64.4543 80.358 45.6909Z" fill="white" fill-opacity="0.8"/>
<path d="M63.0992 58.5517C65.1466 51.8027 64.7338 45.3105 64.1111 39.3429L37.6202 45.6263C39.4999 50.7925 42.6754 55.5309 41.2917 66.3572C39.7392 75.5681 29.4516 78.1498 29.4516 78.1498C28.7772 80.1327 29.3046 80.8972 30.8613 82.0244C30.8613 82.0244 41.8019 80.8827 48.4528 77.1724C55.1036 73.4621 60.1068 68.4155 63.0992 58.5517Z" fill="#7445B8"/>
<path d="M63.0992 58.5517C65.1466 51.8027 64.7338 45.3105 64.1111 39.3429L37.6202 45.6263C39.4999 50.7925 42.6754 55.5309 41.2917 66.3572C39.7392 75.5681 29.4516 78.1498 29.4516 78.1498C28.7772 80.1327 29.3046 80.8972 30.8613 82.0244C30.8613 82.0244 41.8019 80.8827 48.4528 77.1724C55.1036 73.4621 60.1068 68.4155 63.0992 58.5517Z" fill="white" fill-opacity="0.6"/>
<circle cx="31.0502" cy="22.9688" r="7.61182" transform="rotate(-170.957 31.0502 22.9688)" fill="#7445B8"/>
<circle cx="31.0502" cy="22.9688" r="7.61182" transform="rotate(-170.957 31.0502 22.9688)" fill="white" fill-opacity="0.95"/>
<circle cx="30.599" cy="22.3464" r="5.98072" transform="rotate(-170.957 30.599 22.3464)" fill="#898989"/>
<circle cx="30.599" cy="22.3464" r="5.98072" transform="rotate(-170.957 30.599 22.3464)" fill="black" fill-opacity="0.8"/>
<circle cx="28.2611" cy="19.318" r="1.02764" transform="rotate(-170.957 28.2611 19.318)" fill="#FEFEFE"/>
<path d="M87.8092 38.9075C85.9159 36.8649 79.8714 36.1888 76.8781 36.1278L73.4047 40.4107C77.1335 43.9419 84.9813 51.5237 88.527 51.1537C92.9592 50.6912 89.3704 40.5919 87.8092 38.9075Z" fill="#7445B8"/>
<path d="M87.8092 38.9075C85.9159 36.8649 79.8714 36.1888 76.8781 36.1278L73.4047 40.4107C77.1335 43.9419 84.9813 51.5237 88.527 51.1537C92.9592 50.6912 89.3704 40.5919 87.8092 38.9075Z" fill="white" fill-opacity="0.6"/>
<path fill-rule="evenodd" clip-rule="evenodd" d="M77.5227 36.1488C77.2955 36.1389 77.0799 36.1319 76.8782 36.1278L76.3859 36.7349C78.8446 38.1126 83.3588 40.3703 84.7237 41.0528C85.3348 41.3584 86.2018 41.863 87.1105 42.3918L87.1106 42.3919C87.4174 42.5705 87.729 42.7518 88.0371 42.9292C88.7711 43.3518 89.4794 43.7484 90.0792 44.0506C89.9794 43.6847 89.8704 43.3229 89.7549 42.9703C89.6087 42.8458 89.425 42.7 89.2063 42.5359C88.749 42.1929 88.1794 41.8003 87.5764 41.4059C86.367 40.6149 85.0518 39.8349 84.2765 39.4472C84.0341 39.326 83.7494 39.1818 83.4358 39.0229L83.4357 39.0229L83.4357 39.0229C82.7026 38.6515 81.8113 38.2 80.9325 37.7752C79.6609 37.1604 78.4854 36.6367 77.8788 36.4851C77.7034 36.4412 77.573 36.3096 77.5227 36.1488ZM89.1051 41.2305C88.6479 40.1511 88.1734 39.3004 87.8093 38.9075C86.5034 37.4986 83.2227 36.7399 80.3305 36.3847C80.6702 36.5407 81.0201 36.7068 81.3677 36.8748C82.2552 37.3039 83.1631 37.7638 83.8989 38.1365L83.899 38.1366L83.8991 38.1366C84.2094 38.2938 84.4891 38.4355 84.7237 38.5528C85.5483 38.9651 86.8998 39.7685 88.1238 40.5691C88.4633 40.7911 88.7951 41.0144 89.1051 41.2305ZM90.3772 45.295C89.5894 44.958 88.5467 44.3765 87.5381 43.7958C87.2138 43.6091 86.8915 43.4215 86.5784 43.2393C85.68 42.7165 84.8567 42.2373 84.2765 41.9472L84.2604 41.9392C82.8795 41.2487 78.2136 38.9158 75.7472 37.5225L75.2178 38.1752C75.9678 38.7048 76.9174 39.3423 77.9596 40.018C79.8495 41.2433 82.008 42.5715 83.7482 43.5659C84.9655 44.2615 86.6422 44.958 88.1865 45.572C88.4736 45.6862 88.757 45.7979 89.0312 45.9059L89.0312 45.9059C89.4867 46.0854 89.9171 46.255 90.2984 46.4099C90.3946 46.449 90.4886 46.4876 90.5801 46.5256C90.531 46.1225 90.462 45.7098 90.3772 45.295ZM90.6627 47.6479C90.4512 47.5545 90.2027 47.4505 89.9218 47.3363C89.5446 47.183 89.1238 47.0172 88.6729 46.8396L88.6729 46.8395L88.672 46.8392C88.3972 46.7309 88.1111 46.6182 87.817 46.5013C86.279 45.8897 84.5391 45.1696 83.252 44.4341C81.4922 43.4285 79.3174 42.0901 77.4156 40.857C76.3569 40.1706 75.3714 39.5096 74.5866 38.9535L74.4074 39.1744C76.1279 40.7542 79.4464 43.3633 82.7774 45.584C86.0209 47.7463 88.3844 48.4673 90.0705 48.9817C90.2335 49.0314 90.3901 49.0792 90.5406 49.1261C90.6362 48.6799 90.6731 48.1804 90.6627 47.6479ZM90.1983 50.0745C90.1127 50.0482 90.0241 50.0212 89.9327 49.9933C88.2527 49.4805 85.609 48.6735 82.2227 46.416C78.9012 44.2016 75.5674 41.5891 73.7764 39.9524L73.4048 40.4107C73.5386 40.5373 73.6776 40.6693 73.8216 40.8058C77.6912 44.4757 85.1086 51.5104 88.5271 51.1537C89.324 51.0706 89.8616 50.6759 90.1983 50.0745Z" fill="#7445B8"/>
<path fill-rule="evenodd" clip-rule="evenodd" d="M77.5227 36.1488C77.2955 36.1389 77.0799 36.1319 76.8782 36.1278L76.3859 36.7349C78.8446 38.1126 83.3588 40.3703 84.7237 41.0528C85.3348 41.3584 86.2018 41.863 87.1105 42.3918L87.1106 42.3919C87.4174 42.5705 87.729 42.7518 88.0371 42.9292C88.7711 43.3518 89.4794 43.7484 90.0792 44.0506C89.9794 43.6847 89.8704 43.3229 89.7549 42.9703C89.6087 42.8458 89.425 42.7 89.2063 42.5359C88.749 42.1929 88.1794 41.8003 87.5764 41.4059C86.367 40.6149 85.0518 39.8349 84.2765 39.4472C84.0341 39.326 83.7494 39.1818 83.4358 39.0229L83.4357 39.0229L83.4357 39.0229C82.7026 38.6515 81.8113 38.2 80.9325 37.7752C79.6609 37.1604 78.4854 36.6367 77.8788 36.4851C77.7034 36.4412 77.573 36.3096 77.5227 36.1488ZM89.1051 41.2305C88.6479 40.1511 88.1734 39.3004 87.8093 38.9075C86.5034 37.4986 83.2227 36.7399 80.3305 36.3847C80.6702 36.5407 81.0201 36.7068 81.3677 36.8748C82.2552 37.3039 83.1631 37.7638 83.8989 38.1365L83.899 38.1366L83.8991 38.1366C84.2094 38.2938 84.4891 38.4355 84.7237 38.5528C85.5483 38.9651 86.8998 39.7685 88.1238 40.5691C88.4633 40.7911 88.7951 41.0144 89.1051 41.2305ZM90.3772 45.295C89.5894 44.958 88.5467 44.3765 87.5381 43.7958C87.2138 43.6091 86.8915 43.4215 86.5784 43.2393C85.68 42.7165 84.8567 42.2373 84.2765 41.9472L84.2604 41.9392C82.8795 41.2487 78.2136 38.9158 75.7472 37.5225L75.2178 38.1752C75.9678 38.7048 76.9174 39.3423 77.9596 40.018C79.8495 41.2433 82.008 42.5715 83.7482 43.5659C84.9655 44.2615 86.6422 44.958 88.1865 45.572C88.4736 45.6862 88.757 45.7979 89.0312 45.9059L89.0312 45.9059C89.4867 46.0854 89.9171 46.255 90.2984 46.4099C90.3946 46.449 90.4886 46.4876 90.5801 46.5256C90.531 46.1225 90.462 45.7098 90.3772 45.295ZM90.6627 47.6479C90.4512 47.5545 90.2027 47.4505 89.9218 47.3363C89.5446 47.183 89.1238 47.0172 88.6729 46.8396L88.6729 46.8395L88.672 46.8392C88.3972 46.7309 88.1111 46.6182 87.817 46.5013C86.279 45.8897 84.5391 45.1696 83.252 44.4341C81.4922 43.4285 79.3174 42.0901 77.4156 40.857C76.3569 40.1706 75.3714 39.5096 74.5866 38.9535L74.4074 39.1744C76.1279 40.7542 79.4464 43.3633 82.7774 45.584C86.0209 47.7463 88.3844 48.4673 90.0705 48.9817C90.2335 49.0314 90.3901 49.0792 90.5406 49.1261C90.6362 48.6799 90.6731 48.1804 90.6627 47.6479ZM90.1983 50.0745C90.1127 50.0482 90.0241 50.0212 89.9327 49.9933C88.2527 49.4805 85.609 48.6735 82.2227 46.416C78.9012 44.2016 75.5674 41.5891 73.7764 39.9524L73.4048 40.4107C73.5386 40.5373 73.6776 40.6693 73.8216 40.8058C77.6912 44.4757 85.1086 51.5104 88.5271 51.1537C89.324 51.0706 89.8616 50.6759 90.1983 50.0745Z" fill="white" fill-opacity="0.4"/>
<path d="M24.5058 37.572C25.9753 35.7847 30.6667 35.1932 32.99 35.1398L35.6859 38.8873C32.7918 41.9771 26.7006 48.6112 23.9486 48.2875C20.5085 47.8828 23.294 39.0459 24.5058 37.572Z" fill="#7445B8"/>
<path d="M24.5058 37.572C25.9753 35.7847 30.6667 35.1932 32.99 35.1398L35.6859 38.8873C32.7918 41.9771 26.7006 48.6112 23.9486 48.2875C20.5085 47.8828 23.294 39.0459 24.5058 37.572Z" fill="white" fill-opacity="0.6"/>
<path fill-rule="evenodd" clip-rule="evenodd" d="M32.6035 35.1528C32.7383 35.1469 32.8674 35.1426 32.9899 35.1398L33.3276 35.6092C31.4334 36.8086 27.8981 38.8021 26.8287 39.4049C26.3504 39.6745 25.6719 40.1197 24.9654 40.5832C24.7281 40.739 24.4876 40.8968 24.2504 41.0507C23.7171 41.3969 23.2065 41.7195 22.7681 41.9729C22.8242 41.7457 22.8839 41.5206 22.9463 41.2992C23.0679 41.1699 23.2572 40.9936 23.5114 40.7787C23.864 40.4806 24.3041 40.1386 24.7709 39.7944C25.708 39.1033 26.7243 38.4241 27.3198 38.0885C27.5089 37.9819 27.7305 37.8553 27.9744 37.716L27.9745 37.716C28.5431 37.3913 29.2327 36.9975 29.9136 36.6263C30.9051 36.086 31.8028 35.6366 32.2549 35.5092C32.4324 35.4592 32.5604 35.3194 32.6035 35.1528ZM23.5551 39.4595C23.8927 38.5841 24.2377 37.898 24.5057 37.572C25.4868 36.3787 27.9042 35.7184 30.094 35.3955C29.8759 35.5098 29.6544 35.6288 29.4351 35.7483C28.7451 36.1243 28.0382 36.528 27.4667 36.8544L27.4667 36.8544L27.4665 36.8545C27.2262 36.9918 27.0098 37.1153 26.8287 37.2174C26.1823 37.5818 25.1288 38.288 24.1774 38.9896C23.9643 39.1467 23.7549 39.3046 23.5551 39.4595ZM22.4972 43.2471C23.1299 42.9529 23.9832 42.4163 24.7948 41.8895C25.0487 41.7248 25.3002 41.5598 25.5441 41.3998L25.5441 41.3997C26.2399 40.9432 26.8734 40.5276 27.3198 40.276L27.336 40.2669L27.336 40.2669C28.4024 39.6658 31.9853 37.6462 33.9123 36.422L34.2313 36.8655C33.6458 37.3329 32.895 37.9017 32.0668 38.5071C30.6013 39.5782 28.9278 40.7391 27.5796 41.6076C26.6438 42.2104 25.351 42.8163 24.1519 43.3538C23.9301 43.4532 23.7107 43.5507 23.498 43.6451L23.4979 43.6451C23.1437 43.8025 22.8082 43.9515 22.5117 44.0874C22.4619 44.1102 22.4127 44.1329 22.3642 44.1554C22.3983 43.8569 22.4433 43.5529 22.4972 43.2471ZM22.2899 45.301C22.4648 45.2124 22.6788 45.1108 22.9283 44.9965C23.2205 44.8626 23.5457 44.7181 23.895 44.563C24.1087 44.4681 24.3313 44.3692 24.5609 44.2663C25.7542 43.7314 27.1131 43.0976 28.1212 42.4483C29.4895 41.5668 31.1794 40.3943 32.6569 39.3144C33.46 38.7274 34.2109 38.1601 34.816 37.6782L34.8558 37.7335C33.5391 39.1053 30.9384 41.415 28.3261 43.3782C25.826 45.2572 24.0281 45.8753 22.7209 46.3246C22.6009 46.3658 22.4851 46.4057 22.3732 46.4449C22.3124 46.0951 22.2866 45.7097 22.2899 45.301ZM22.6832 47.4048C22.7483 47.3823 22.8157 47.3591 22.8855 47.3351L22.8855 47.3351C24.1857 46.8878 26.279 46.1677 28.927 44.1776C31.4799 42.2589 34.0438 39.9979 35.4491 38.5582L35.6858 38.8873C35.582 38.9981 35.474 39.1135 35.3623 39.233C32.3589 42.4442 26.6018 48.5996 23.9485 48.2874C23.3545 48.2176 22.9461 47.8962 22.6832 47.4048Z" fill="#7445B8"/>
<path fill-rule="evenodd" clip-rule="evenodd" d="M32.6035 35.1528C32.7383 35.1469 32.8674 35.1426 32.9899 35.1398L33.3276 35.6092C31.4334 36.8086 27.8981 38.8021 26.8287 39.4049C26.3504 39.6745 25.6719 40.1197 24.9654 40.5832C24.7281 40.739 24.4876 40.8968 24.2504 41.0507C23.7171 41.3969 23.2065 41.7195 22.7681 41.9729C22.8242 41.7457 22.8839 41.5206 22.9463 41.2992C23.0679 41.1699 23.2572 40.9936 23.5114 40.7787C23.864 40.4806 24.3041 40.1386 24.7709 39.7944C25.708 39.1033 26.7243 38.4241 27.3198 38.0885C27.5089 37.9819 27.7305 37.8553 27.9744 37.716L27.9745 37.716C28.5431 37.3913 29.2327 36.9975 29.9136 36.6263C30.9051 36.086 31.8028 35.6366 32.2549 35.5092C32.4324 35.4592 32.5604 35.3194 32.6035 35.1528ZM23.5551 39.4595C23.8927 38.5841 24.2377 37.898 24.5057 37.572C25.4868 36.3787 27.9042 35.7184 30.094 35.3955C29.8759 35.5098 29.6544 35.6288 29.4351 35.7483C28.7451 36.1243 28.0382 36.528 27.4667 36.8544L27.4667 36.8544L27.4665 36.8545C27.2262 36.9918 27.0098 37.1153 26.8287 37.2174C26.1823 37.5818 25.1288 38.288 24.1774 38.9896C23.9643 39.1467 23.7549 39.3046 23.5551 39.4595ZM22.4972 43.2471C23.1299 42.9529 23.9832 42.4163 24.7948 41.8895C25.0487 41.7248 25.3002 41.5598 25.5441 41.3998L25.5441 41.3997C26.2399 40.9432 26.8734 40.5276 27.3198 40.276L27.336 40.2669L27.336 40.2669C28.4024 39.6658 31.9853 37.6462 33.9123 36.422L34.2313 36.8655C33.6458 37.3329 32.895 37.9017 32.0668 38.5071C30.6013 39.5782 28.9278 40.7391 27.5796 41.6076C26.6438 42.2104 25.351 42.8163 24.1519 43.3538C23.9301 43.4532 23.7107 43.5507 23.498 43.6451L23.4979 43.6451C23.1437 43.8025 22.8082 43.9515 22.5117 44.0874C22.4619 44.1102 22.4127 44.1329 22.3642 44.1554C22.3983 43.8569 22.4433 43.5529 22.4972 43.2471ZM22.2899 45.301C22.4648 45.2124 22.6788 45.1108 22.9283 44.9965C23.2205 44.8626 23.5457 44.7181 23.895 44.563C24.1087 44.4681 24.3313 44.3692 24.5609 44.2663C25.7542 43.7314 27.1131 43.0976 28.1212 42.4483C29.4895 41.5668 31.1794 40.3943 32.6569 39.3144C33.46 38.7274 34.2109 38.1601 34.816 37.6782L34.8558 37.7335C33.5391 39.1053 30.9384 41.415 28.3261 43.3782C25.826 45.2572 24.0281 45.8753 22.7209 46.3246C22.6009 46.3658 22.4851 46.4057 22.3732 46.4449C22.3124 46.0951 22.2866 45.7097 22.2899 45.301ZM22.6832 47.4048C22.7483 47.3823 22.8157 47.3591 22.8855 47.3351L22.8855 47.3351C24.1857 46.8878 26.279 46.1677 28.927 44.1776C31.4799 42.2589 34.0438 39.9979 35.4491 38.5582L35.6858 38.8873C35.582 38.9981 35.474 39.1135 35.3623 39.233C32.3589 42.4442 26.6018 48.5996 23.9485 48.2874C23.3545 48.2176 22.9461 47.8962 22.6832 47.4048Z" fill="white" fill-opacity="0.4"/>
<path d="M31.9999 37C29.2323 29.7481 31.6053 10.5239 51 8.5C73.8756 6.11284 78.7135 25.8848 78 33.5C77.2865 41.1152 68 48.5 53.6096 48.9849C40.108 49.4399 34.7675 44.2519 31.9999 37Z" fill="#7445B8"/>
<path d="M31.9999 37C29.2323 29.7481 31.6053 10.5239 51 8.5C73.8756 6.11284 78.7135 25.8848 78 33.5C77.2865 41.1152 68 48.5 53.6096 48.9849C40.108 49.4399 34.7675 44.2519 31.9999 37Z" fill="white" fill-opacity="0.4"/>
<path d="M28.2344 37.0542C25.4668 29.8023 28.9131 9.83675 48.3077 7.81285C71.1834 5.42569 77.5 24.5 76.9698 31.9685C76.4281 39.5978 65.9903 47.1902 52.5113 48.0941C39.0324 48.998 31.002 44.3061 28.2344 37.0542Z" fill="#7445B8"/>
<path d="M28.2344 37.0542C25.4668 29.8023 28.9131 9.83675 48.3077 7.81285C71.1834 5.42569 77.5 24.5 76.9698 31.9685C76.4281 39.5978 65.9903 47.1902 52.5113 48.0941C39.0324 48.998 31.002 44.3061 28.2344 37.0542Z" fill="white" fill-opacity="0.6"/>
<circle cx="62.4063" cy="27.6848" r="8.69923" transform="rotate(-170.957 62.4063 27.6848)" fill="#7445B8"/>
<circle cx="62.4063" cy="27.6848" r="8.69923" transform="rotate(-170.957 62.4063 27.6848)" fill="white" fill-opacity="0.95"/>
<circle cx="61.9548" cy="27.0625" r="7.06812" transform="rotate(-170.957 61.9548 27.0625)" fill="#898989"/>
<circle cx="61.9548" cy="27.0625" r="7.06812" transform="rotate(-170.957 61.9548 27.0625)" fill="black" fill-opacity="0.8"/>
<circle cx="59.2811" cy="23.4365" r="1.37019" transform="rotate(-170.957 59.2811 23.4365)" fill="#FEFEFE"/>
<path d="M35.5 35L33.6139 31.3199L36.5115 30.1829L38.9954 29.8987L40.707 30.2228L44.5 32L48 34.5L45 38L44.5 32L41.5 35.5L40.707 30.2228L38.5 34.5L36.5115 30.1829L35.5 35Z" fill="#FEFEFE"/>
<path d="M31.7953 33.1636C33.1834 32.0133 35.4623 29.7646 38.498 29.9506C43.0991 30.2324 47.6541 34.1898 50.217 36.2684" stroke="#7445B8" stroke-linecap="round"/>
<path d="M31.7953 33.1636C33.1834 32.0133 35.4623 29.7646 38.498 29.9506C43.0991 30.2324 47.6541 34.1898 50.217 36.2684" stroke="black" stroke-opacity="0.2" stroke-linecap="round"/>
<path d="M40 4.00002L45.6333 11.611C46.0268 10.5645 47.8343 8.61636 49.7976 8.16013C52.7425 7.47578 59.2463 7.17412 66.2301 11.4725C73.9124 16.2007 77.1319 24.4109 79.6098 33.7039C79.7237 33.1893 79.6089 28.8779 79.2768 25.6952C78.8616 21.7168 77.6378 14.8065 73.0366 9.25406C68.4355 3.70162 62.2296 1.10036 58 0.5C53.9178 -0.0794363 48.6334 1.00001 45.6334 2.50001C43.8092 3.41217 40.3488 4.13119 40 4.00002Z" fill="#7445B8"/>
<path d="M40 4.00002L45.6333 11.611C46.0268 10.5645 47.8343 8.61636 49.7976 8.16013C52.7425 7.47578 59.2463 7.17412 66.2301 11.4725C73.9124 16.2007 77.1319 24.4109 79.6098 33.7039C79.7237 33.1893 79.6089 28.8779 79.2768 25.6952C78.8616 21.7168 77.6378 14.8065 73.0366 9.25406C68.4355 3.70162 62.2296 1.10036 58 0.5C53.9178 -0.0794363 48.6334 1.00001 45.6334 2.50001C43.8092 3.41217 40.3488 4.13119 40 4.00002Z" fill="white" fill-opacity="0.2"/>
</svg>
