<svg width="100" height="101" viewBox="0 0 100 101" fill="none" xmlns="http://www.w3.org/2000/svg">
<ellipse cx="47.7414" cy="31.6232" rx="29.4525" ry="4.01625" transform="rotate(8.87723 47.7414 31.6232)" fill="#FAA21E"/>
<ellipse cx="47.7414" cy="31.6232" rx="29.4525" ry="4.01625" transform="rotate(8.87723 47.7414 31.6232)" fill="black" fill-opacity="0.6"/>
<path d="M37.6776 55.7149C38.4092 53.1631 41.8546 51.3844 39.5 48.5L36.5 49.5C33.4888 50.3983 29.7393 51.4862 26.5001 52C23.2609 52.5138 17.158 52.9543 13.0001 53C12.9476 62.0974 13.5649 68.4472 15.6899 81.7783C28.2195 76.3806 37.0922 57.7564 37.6776 55.7149Z" fill="#FAA21E"/>
<path d="M37.6776 55.7149C38.4092 53.1631 41.8546 51.3844 39.5 48.5L36.5 49.5C33.4888 50.3983 29.7393 51.4862 26.5001 52C23.2609 52.5138 17.158 52.9543 13.0001 53C12.9476 62.0974 13.5649 68.4472 15.6899 81.7783C28.2195 76.3806 37.0922 57.7564 37.6776 55.7149Z" fill="black" fill-opacity="0.4"/>
<path d="M29.197 94.9359C31.0417 80.5472 35.2846 51.2163 37.4982 49.0026C41.9255 47.4617 52.9938 47.3424 57.4211 49.0026C59.192 51.659 66.0912 81.285 69.5962 95.4893C65.1689 97.2689 60.1881 100.036 47.4596 100.036C39.1585 100.036 31.9641 96.7155 29.197 94.9359Z" fill="#FAA21E"/>
<path d="M29.197 94.9359C31.0417 80.5472 35.2846 51.2163 37.4982 49.0026C41.9255 47.4617 52.9938 47.3424 57.4211 49.0026C59.192 51.659 66.0912 81.285 69.5962 95.4893C65.1689 97.2689 60.1881 100.036 47.4596 100.036C39.1585 100.036 31.9641 96.7155 29.197 94.9359Z" fill="black" fill-opacity="0.1"/>
<path d="M33.0901 68.9464L33.3478 66.6615C40.4731 68.7235 52.5001 69.5 63.0087 67.5017L63.4342 70.336C53.5002 72.5 39.5 71.5 33.0901 68.9464Z" fill="#FAA21E"/>
<path d="M33.0901 68.9464L33.3478 66.6615C40.4731 68.7235 52.5001 69.5 63.0087 67.5017L63.4342 70.336C53.5002 72.5 39.5 71.5 33.0901 68.9464Z" fill="black" fill-opacity="0.4"/>
<path d="M57.5002 57.5C56.3967 54.7413 55.5002 53 57.5002 49L61 50.5C64 52 69.5976 53.3241 74.5 54.5C79.4024 55.6759 81 55.5 87.5001 56C87.5001 65 86 77 83 87C67.5 77.5 58.5002 60 57.5002 57.5Z" fill="#FAA21E"/>
<path d="M57.5002 57.5C56.3967 54.7413 55.5002 53 57.5002 49L61 50.5C64 52 69.5976 53.3241 74.5 54.5C79.4024 55.6759 81 55.5 87.5001 56C87.5001 65 86 77 83 87C67.5 77.5 58.5002 60 57.5002 57.5Z" fill="black" fill-opacity="0.4"/>
<path d="M63.4324 33.5761C63.4324 41.8284 55.6846 49.6251 44.6164 48.5182C35.2084 47.5774 31.3345 41.8284 31.3345 33.5761C31.3345 25.3238 38.5198 18.6339 47.3834 18.6339C56.2471 18.6339 63.4324 25.3238 63.4324 33.5761Z" fill="#FAA21E"/>
<path d="M63.4324 33.5761C63.4324 41.8284 55.6846 49.6251 44.6164 48.5182C35.2084 47.5774 31.3345 41.8284 31.3345 33.5761C31.3345 25.3238 38.5198 18.6339 47.3834 18.6339C56.2471 18.6339 63.4324 25.3238 63.4324 33.5761Z" fill="white" fill-opacity="0.6"/>
<ellipse cx="62.3336" cy="38.0931" rx="3.04408" ry="2.76706" transform="rotate(3.81754 62.3336 38.0931)" fill="#FAA21E"/>
<ellipse cx="62.3336" cy="38.0931" rx="3.04408" ry="2.76706" transform="rotate(3.81754 62.3336 38.0931)" fill="white" fill-opacity="0.6"/>
<path d="M37 27C39.5 27 42.6667 25.3333 44 24.5C46 26.5 50.5265 27.1212 53.5 29.5C56 31.5 59.8333 34.6667 63 36C64 33.5 63.8881 30.5522 63.5 29L63.5 29C63 27 62.8333 26.3333 62.5 25.5L35 22C33.0122 24.1874 32.3333 26.101 32 29C33 28 34.5 27 37 27Z" fill="#898989"/>
<path d="M37 27C39.5 27 42.6667 25.3333 44 24.5C46 26.5 50.5265 27.1212 53.5 29.5C56 31.5 59.8333 34.6667 63 36C64 33.5 63.8881 30.5522 63.5 29L63.5 29C63 27 62.8333 26.3333 62.5 25.5L35 22C33.0122 24.1874 32.3333 26.101 32 29C33 28 34.5 27 37 27Z" fill="white" fill-opacity="0.8"/>
<ellipse cx="51.2574" cy="36.3432" rx="2.21365" ry="3.32048" fill="#898989"/>
<ellipse cx="51.2574" cy="36.3432" rx="2.21365" ry="3.32048" fill="black" fill-opacity="0.6"/>
<ellipse cx="35.2083" cy="35.2363" rx="1.66024" ry="3.32048" fill="#898989"/>
<ellipse cx="35.2083" cy="35.2363" rx="1.66024" ry="3.32048" fill="black" fill-opacity="0.6"/>
<path d="M37.9909 41.0101C33.9999 43.8616 35.0001 52 34.0001 55C36.0001 53 35.5656 47.9018 36.5 46.5C37.4999 45 39.6019 43.7276 40.6638 43.8616C41.7256 43.9956 42.6041 43.2666 42.3115 41.8901C41.9824 40.3415 39.6909 39.7955 37.9909 41.0101Z" fill="#898989"/>
<path d="M37.9909 41.0101C33.9999 43.8616 35.0001 52 34.0001 55C36.0001 53 35.5656 47.9018 36.5 46.5C37.4999 45 39.6019 43.7276 40.6638 43.8616C41.7256 43.9956 42.6041 43.2666 42.3115 41.8901C41.9824 40.3415 39.6909 39.7955 37.9909 41.0101Z" fill="white" fill-opacity="0.8"/>
<path d="M47.5 42.5C51.2916 46.0791 49.9998 54 51.4998 57.5C48.4998 54.5 49 49.5 47.5 47.5C46.2037 45.7716 45.2455 44.4256 43.9999 44.5C42.7543 44.5744 41.5588 43.7469 42.0048 42.168C42.5064 40.3917 45.7286 40.8279 47.5 42.5Z" fill="#898989"/>
<path d="M47.5 42.5C51.2916 46.0791 49.9998 54 51.4998 57.5C48.4998 54.5 49 49.5 47.5 47.5C46.2037 45.7716 45.2455 44.4256 43.9999 44.5C42.7543 44.5744 41.5588 43.7469 42.0048 42.168C42.5064 40.3917 45.7286 40.8279 47.5 42.5Z" fill="white" fill-opacity="0.8"/>
<path d="M45.8736 50.5C46.3885 47.5 45.3586 43 42.269 43C39.6942 43 39.1793 45.1875 38.6644 47C38.1494 48.8125 39.1793 59 38.6644 63.5C37.9206 70 36.0897 74.9277 33 77C38.6644 74.5 40.7241 69.5 41.754 65.5C43.0991 60.2756 45.3586 53.5 45.8736 50.5Z" fill="#898989"/>
<path d="M45.8736 50.5C46.3885 47.5 45.3586 43 42.269 43C39.6942 43 39.1793 45.1875 38.6644 47C38.1494 48.8125 39.1793 59 38.6644 63.5C37.9206 70 36.0897 74.9277 33 77C38.6644 74.5 40.7241 69.5 41.754 65.5C43.0991 60.2756 45.3586 53.5 45.8736 50.5Z" fill="white" fill-opacity="0.8"/>
<path d="M37.9448 19.2377L19.1287 26.432C41.9472 25.5191 54.173 27.0569 76.283 35.1759L59.4517 21.9544C58.8176 17.3388 56.5923 10.5896 58.3449 9.77933C60.0974 8.96907 66.3587 14.9576 68.8597 19.1873C66.2621 12.6842 61.3262 1.90288 53.919 0.745957C46.5118 -0.410964 40.4382 11.9489 37.9448 19.2377Z" fill="#FAA21E"/>
<path d="M37.9448 19.2377L19.1287 26.432C41.9472 25.5191 54.173 27.0569 76.283 35.1759L59.4517 21.9544C58.8176 17.3388 56.5923 10.5896 58.3449 9.77933C60.0974 8.96907 66.3587 14.9576 68.8597 19.1873C66.2621 12.6842 61.3262 1.90288 53.919 0.745957C46.5118 -0.410964 40.4382 11.9489 37.9448 19.2377Z" fill="black" fill-opacity="0.4"/>
<path d="M37.8373 30.3969C36.7305 29.4706 33.9634 29.4706 32.8564 30.3969C32.303 30.86 32.3031 31.3231 32.8566 31.7862C33.41 32.2492 33.6175 31.3231 35.0702 31.3231C36.5229 31.3231 37.2838 32.2493 37.8372 31.7862C38.3906 31.3231 38.3907 30.86 37.8373 30.3969Z" fill="#898989"/>
<path d="M37.8373 30.3969C36.7305 29.4706 33.9634 29.4706 32.8564 30.3969C32.303 30.86 32.3031 31.3231 32.8566 31.7862C33.41 32.2492 33.6175 31.3231 35.0702 31.3231C36.5229 31.3231 37.2838 32.2493 37.8372 31.7862C38.3906 31.3231 38.3907 30.86 37.8373 30.3969Z" fill="white" fill-opacity="0.8"/>
<path d="M53.987 31.5037C52.7221 30.5775 49.7177 30.5775 48.4527 31.5037C47.8202 31.9668 47.7413 32.5711 48.3738 33.0342C49.0063 33.4973 49.5597 32.6105 51.2199 32.6105C52.8801 32.6105 53.4334 33.4974 54.0658 33.0342C54.6983 32.5711 54.6194 31.9668 53.987 31.5037Z" fill="#898989"/>
<path d="M53.987 31.5037C52.7221 30.5775 49.7177 30.5775 48.4527 31.5037C47.8202 31.9668 47.7413 32.5711 48.3738 33.0342C49.0063 33.4973 49.5597 32.6105 51.2199 32.6105C52.8801 32.6105 53.4334 33.4974 54.0658 33.0342C54.6983 32.5711 54.6194 31.9668 53.987 31.5037Z" fill="white" fill-opacity="0.8"/>
<path d="M38.941 16.4706L37.9448 19.2377C45.2592 18.678 49.9512 19.2342 59.5279 22.0047L58.8638 18.6843C50.4303 16.1913 45.4716 15.5864 38.941 16.4706Z" fill="#FAA21E"/>
<path d="M38.941 16.4706L37.9448 19.2377C45.2592 18.678 49.9512 19.2342 59.5279 22.0047L58.8638 18.6843C50.4303 16.1913 45.4716 15.5864 38.941 16.4706Z" fill="black" fill-opacity="0.1"/>
</svg>
