<svg width="100" height="100" viewBox="0 0 100 100" fill="none" xmlns="http://www.w3.org/2000/svg">
<g clip-path="url(#clip0_1955_9169)">
<path d="M12.0218 57.5C12.439 55.4835 16.2195 45.3526 16.9149 44.0083L85.7674 43C86.4629 43.6722 89.1435 50.3881 90.1638 53.5C91.8032 58.5 91.9568 61.6515 93 63.5C94.0432 65.3485 95.2645 70.1612 97.5 78.5C99.6247 86.4256 99.9999 98.7906 99.9999 104H-0.000107558C-0.000102867 99 -0.185789 89.1612 2 80C3.31226 74.5 4.04411 68.697 6.99989 65C7.17376 63.9917 11.6045 59.5165 12.0218 57.5Z" fill="#898989"/>
<path d="M12.0218 57.5C12.439 55.4835 16.2195 45.3526 16.9149 44.0083L85.7674 43C86.4629 43.6722 89.1435 50.3881 90.1638 53.5C91.8032 58.5 91.9568 61.6515 93 63.5C94.0432 65.3485 95.2645 70.1612 97.5 78.5C99.6247 86.4256 99.9999 98.7906 99.9999 104H-0.000107558C-0.000102867 99 -0.185789 89.1612 2 80C3.31226 74.5 4.04411 68.697 6.99989 65C7.17376 63.9917 11.6045 59.5165 12.0218 57.5Z" fill="black" fill-opacity="0.4"/>
<path d="M11 108C11.2992 104.891 17.2841 96.5821 21.3239 91.618C25.3636 86.6538 33.892 83.1236 38.3807 81.9101C42.8693 80.6966 57.233 80.6966 63.0682 81.9101C68.9034 83.1236 76.5341 87.3709 80.125 91.0113C83.7159 94.6516 90 104.787 90 108H11Z" fill="#898989"/>
<path d="M11 108C11.2992 104.891 17.2841 96.5821 21.3239 91.618C25.3636 86.6538 33.892 83.1236 38.3807 81.9101C42.8693 80.6966 57.233 80.6966 63.0682 81.9101C68.9034 83.1236 76.5341 87.3709 80.125 91.0113C83.7159 94.6516 90 104.787 90 108H11Z" fill="white" fill-opacity="0.6"/>
<path d="M12.2766 47C11.2074 52.3642 5.99988 66 5.99988 66C5.99988 66 28.5156 70.4282 35.9999 71C43.4842 71.5718 60.0178 72.0989 66.9999 71C73.982 69.9011 94.9999 68.4567 94.9999 68.4567C94.9999 68.4567 89.7923 51.8278 88.7232 47H12.2766Z" fill="#898989"/>
<path d="M12.2766 47C11.2074 52.3642 5.99988 66 5.99988 66C5.99988 66 28.5156 70.4282 35.9999 71C43.4842 71.5718 60.0178 72.0989 66.9999 71C73.982 69.9011 94.9999 68.4567 94.9999 68.4567C94.9999 68.4567 89.7923 51.8278 88.7232 47H12.2766Z" fill="white" fill-opacity="0.6"/>
<path d="M90.8262 18.7279C88.2399 22.6073 80.94 23.327 80.1405 23.6695L70.4822 11.5091C71.1385 7.57153 70.9837 4.6599 75.076 2.32147C79.6698 -0.303558 86.2324 0.352451 90.1699 4.29017C94.3296 8.45006 93.4512 14.7903 90.8262 18.7279Z" fill="#898989"/>
<path d="M90.8262 18.7279C88.2399 22.6073 80.94 23.327 80.1405 23.6695L70.4822 11.5091C71.1385 7.57153 70.9837 4.6599 75.076 2.32147C79.6698 -0.303558 86.2324 0.352451 90.1699 4.29017C94.3296 8.45006 93.4512 14.7903 90.8262 18.7279Z" fill="black" fill-opacity="0.4"/>
<path d="M90.8262 18.7279C88.2399 22.6073 80.94 23.327 80.1405 23.6695L70.4822 11.5091C71.1385 7.57153 70.9837 4.6599 75.076 2.32147C79.6698 -0.303558 86.2324 0.352451 90.1699 4.29017C94.3296 8.45006 93.4512 14.7903 90.8262 18.7279Z" stroke="#898989" stroke-width="0.498148"/>
<path d="M11.7569 19.6164C14.6799 23.2352 20.849 23.2916 21.6701 23.5576L31.1129 10.5259C30.0866 6.66851 29.9585 3.75617 25.6997 1.81216C20.9189 -0.37011 14.5139 0.89756 11.0124 5.18549C7.31335 9.71537 8.79015 15.9433 11.7569 19.6164Z" fill="#898989"/>
<path d="M11.7569 19.6164C14.6799 23.2352 20.849 23.2916 21.6701 23.5576L31.1129 10.5259C30.0866 6.66851 29.9585 3.75617 25.6997 1.81216C20.9189 -0.37011 14.5139 0.89756 11.0124 5.18549C7.31335 9.71537 8.79015 15.9433 11.7569 19.6164Z" fill="black" fill-opacity="0.4"/>
<path d="M11.7569 19.6164C14.6799 23.2352 20.849 23.2916 21.6701 23.5576L31.1129 10.5259C30.0866 6.66851 29.9585 3.75617 25.6997 1.81216C20.9189 -0.37011 14.5139 0.89756 11.0124 5.18549C7.31335 9.71537 8.79015 15.9433 11.7569 19.6164Z" stroke="#898989" stroke-width="0.498148"/>
<path d="M49.9928 5.78893C39.9424 5.78893 31.6176 8.3671 27.0238 11.3437C22.43 14.3203 16.8349 23.5575 14.555 29.4143C12.275 35.2711 9.87176 47.2996 11.9193 54.1071C13.9669 60.9146 21.0035 66.6147 29.6805 70.443C38.5669 74.3636 61.3878 74.3636 70.2742 70.443C77.6795 67.1758 86.6426 62.2271 89.1623 54.1071C91.682 45.9871 87.2613 32.7296 85.9878 29.4143C83.0642 21.8034 78.3717 15.8636 74.2743 12.3515C69.6805 8.41395 60.0432 5.78893 49.9928 5.78893Z" fill="#898989"/>
<path d="M49.9928 5.78893C39.9424 5.78893 31.6176 8.3671 27.0238 11.3437C22.43 14.3203 16.8349 23.5575 14.555 29.4143C12.275 35.2711 9.87176 47.2996 11.9193 54.1071C13.9669 60.9146 21.0035 66.6147 29.6805 70.443C38.5669 74.3636 61.3878 74.3636 70.2742 70.443C77.6795 67.1758 86.6426 62.2271 89.1623 54.1071C91.682 45.9871 87.2613 32.7296 85.9878 29.4143C83.0642 21.8034 78.3717 15.8636 74.2743 12.3515C69.6805 8.41395 60.0432 5.78893 49.9928 5.78893Z" fill="white" fill-opacity="0.95"/>
<path d="M37.6184 31.0487C35.0943 30.2073 31.7288 33.5728 30.0461 36.0969C28.5251 38.3783 24.9979 41.1452 25.8392 44.5106C26.9806 49.0763 34.2529 47.8761 36.777 46.1934C38.8772 44.7933 41.8253 39.599 41.8253 36.9383C41.8253 33.5728 40.1425 31.8901 37.6184 31.0487Z" fill="#898989"/>
<path d="M37.6184 31.0487C35.0943 30.2073 31.7288 33.5728 30.0461 36.0969C28.5251 38.3783 24.9979 41.1452 25.8392 44.5106C26.9806 49.0763 34.2529 47.8761 36.777 46.1934C38.8772 44.7933 41.8253 39.599 41.8253 36.9383C41.8253 33.5728 40.1425 31.8901 37.6184 31.0487Z" fill="black" fill-opacity="0.6"/>
<path d="M62.6359 31.5069C65.103 30.7172 68.3925 33.8758 70.0373 36.2448C71.5239 38.3859 74.9715 40.9827 74.1491 44.1413C73.0335 48.4263 65.9254 47.2999 63.4583 45.7206C61.4055 44.4065 58.524 39.5315 58.524 37.0344C58.524 33.8758 60.1688 32.2965 62.6359 31.5069Z" fill="#898989"/>
<path d="M62.6359 31.5069C65.103 30.7172 68.3925 33.8758 70.0373 36.2448C71.5239 38.3859 74.9715 40.9827 74.1491 44.1413C73.0335 48.4263 65.9254 47.2999 63.4583 45.7206C61.4055 44.4065 58.524 39.5315 58.524 37.0344C58.524 33.8758 60.1688 32.2965 62.6359 31.5069Z" fill="black" fill-opacity="0.6"/>
<path d="M56.3367 46.6622C55.4954 46.3818 53.3078 45.8209 51.2885 45.8209L45.3989 46.6622C46.8012 46.9427 49.7741 47.6719 50.4471 48.345C51.1202 49.0181 51.2885 50.3082 51.2885 50.8691C51.2885 50.3082 51.4568 49.0181 52.1299 48.345C52.803 47.6719 55.2149 46.9427 56.3367 46.6622Z" fill="#898989"/>
<path d="M56.3367 46.6622C55.4954 46.3818 53.3078 45.8209 51.2885 45.8209L45.3989 46.6622C46.8012 46.9427 49.7741 47.6719 50.4471 48.345C51.1202 49.0181 51.2885 50.3082 51.2885 50.8691C51.2885 50.3082 51.4568 49.0181 52.1299 48.345C52.803 47.6719 55.2149 46.9427 56.3367 46.6622Z" fill="black" fill-opacity="0.4"/>
<path d="M56.3367 46.6622C55.4954 46.3818 53.3078 45.8209 51.2885 45.8209L45.3989 46.6622C46.8012 46.9427 49.7741 47.6719 50.4471 48.345C51.1202 49.0181 51.2885 50.3082 51.2885 50.8691C51.2885 50.3082 51.4568 49.0181 52.1299 48.345C52.803 47.6719 55.2149 46.9427 56.3367 46.6622Z" stroke="#898989" stroke-width="1.27733" stroke-linejoin="round"/>
<path d="M56.3367 46.6622C55.4954 46.3818 53.3078 45.8209 51.2885 45.8209L45.3989 46.6622C46.8012 46.9427 49.7741 47.6719 50.4471 48.345C51.1202 49.0181 51.2885 50.3082 51.2885 50.8691C51.2885 50.3082 51.4568 49.0181 52.1299 48.345C52.803 47.6719 55.2149 46.9427 56.3367 46.6622Z" stroke="black" stroke-opacity="0.4" stroke-width="1.27733" stroke-linejoin="round"/>
<path d="M42.1177 56.1191C43.2395 56.1191 44.0192 55.9508 46.0385 55.2777C48.0578 54.6046 50.2453 52.7536 51.0867 51.0709C51.9281 52.7536 53.6108 54.4364 55.2936 55.2777C56.9763 56.1191 58.6591 56.1191 58.6591 56.1191" stroke="#898989" stroke-linecap="round" stroke-linejoin="round"/>
<path d="M42.1177 56.1191C43.2395 56.1191 44.0192 55.9508 46.0385 55.2777C48.0578 54.6046 50.2453 52.7536 51.0867 51.0709C51.9281 52.7536 53.6108 54.4364 55.2936 55.2777C56.9763 56.1191 58.6591 56.1191 58.6591 56.1191" stroke="black" stroke-opacity="0.4" stroke-linecap="round" stroke-linejoin="round"/>
<circle cx="37.4904" cy="35.9651" r="1.68274" fill="#FEFEFE"/>
<circle cx="62.8319" cy="35.691" r="1.68274" fill="#FEFEFE"/>
<path d="M-0.0925785 95.9505C-1.23178 102.477 -4.60038 114.386 -4.97179 122.556C-5.34318 130.727 1.11007 134.847 9.51009 136.091C19.4727 137.567 28.6657 136.245 31.2298 126.313C34.063 115.338 29.0652 109.737 31.8011 96.3828C34.0631 85.3424 33.0821 70.619 20.8001 66.9008C11.9683 64.2271 6.66913 67.3377 3.02825 74.3906C-0.61263 81.4435 1.3307 87.797 -0.0925785 95.9505Z" fill="#898989"/>
<path d="M-0.0925785 95.9505C-1.23178 102.477 -4.60038 114.386 -4.97179 122.556C-5.34318 130.727 1.11007 134.847 9.51009 136.091C19.4727 137.567 28.6657 136.245 31.2298 126.313C34.063 115.338 29.0652 109.737 31.8011 96.3828C34.0631 85.3424 33.0821 70.619 20.8001 66.9008C11.9683 64.2271 6.66913 67.3377 3.02825 74.3906C-0.61263 81.4435 1.3307 87.797 -0.0925785 95.9505Z" fill="black" fill-opacity="0.6"/>
<path d="M14.718 78.5614C11.9174 78.2708 9.35831 82.4734 8.42885 84.611C9.37048 89.1768 13.1005 87.3298 15.9011 87.6203C18.7016 87.9109 24.1881 89.5972 24.6468 85.1767C25.1054 80.7562 17.5185 78.852 14.718 78.5614Z" fill="#898989"/>
<path d="M14.718 78.5614C11.9174 78.2708 9.35831 82.4734 8.42885 84.611C9.37048 89.1768 13.1005 87.3298 15.9011 87.6203C18.7016 87.9109 24.1881 89.5972 24.6468 85.1767C25.1054 80.7562 17.5185 78.852 14.718 78.5614Z" fill="black" fill-opacity="0.2"/>
<path d="M21.9292 74.6817C21.0368 75.7543 19.9036 76.0894 18.7281 75.7446C17.5525 75.3999 17.4544 74.1761 17.8525 72.8187C18.2505 71.4614 18.9252 71.1316 20.1696 70.8292C21.414 70.5269 22.8217 73.609 21.9292 74.6817Z" fill="#898989"/>
<path d="M21.9292 74.6817C21.0368 75.7543 19.9036 76.0894 18.7281 75.7446C17.5525 75.3999 17.4544 74.1761 17.8525 72.8187C18.2505 71.4614 18.9252 71.1316 20.1696 70.8292C21.414 70.5269 22.8217 73.609 21.9292 74.6817Z" fill="black" fill-opacity="0.2"/>
<path d="M10.5309 71.8953C11.4546 70.8495 12.5972 70.548 13.7621 70.9272C14.9269 71.3065 14.9889 72.5327 14.5509 73.8777C14.113 75.2227 13.4289 75.5325 12.1761 75.798C10.9233 76.0634 9.6072 72.9411 10.5309 71.8953Z" fill="#898989"/>
<path d="M10.5309 71.8953C11.4546 70.8495 12.5972 70.548 13.7621 70.9272C14.9269 71.3065 14.9889 72.5327 14.5509 73.8777C14.113 75.2227 13.4289 75.5325 12.1761 75.798C10.9233 76.0634 9.6072 72.9411 10.5309 71.8953Z" fill="black" fill-opacity="0.2"/>
<path d="M25.5959 79.2778C24.232 78.6579 24.3142 77.266 24.606 75.967C24.8978 74.668 25.9876 74.4243 27.2029 74.6973C28.4182 74.9704 28.7212 75.6561 29.0071 76.9557C28.8225 78.7347 26.9599 79.8978 25.5959 79.2778Z" fill="#898989"/>
<path d="M25.5959 79.2778C24.232 78.6579 24.3142 77.266 24.606 75.967C24.8978 74.668 25.9876 74.4243 27.2029 74.6973C28.4182 74.9704 28.7212 75.6561 29.0071 76.9557C28.8225 78.7347 26.9599 79.8978 25.5959 79.2778Z" fill="black" fill-opacity="0.2"/>
<path d="M8.72842 76.5642C9.09581 78.0947 8.10137 78.7779 7.04884 79.2271C5.99631 79.6764 4.99575 78.3312 4.47834 77.119C3.96093 75.9069 4.45644 75.7929 5.17511 74.8375C6.49212 74.0339 8.36103 75.0337 8.72842 76.5642Z" fill="#898989"/>
<path d="M8.72842 76.5642C9.09581 78.0947 8.10137 78.7779 7.04884 79.2271C5.99631 79.6764 4.99575 78.3312 4.47834 77.119C3.96093 75.9069 4.45644 75.7929 5.17511 74.8375C6.49212 74.0339 8.36103 75.0337 8.72842 76.5642Z" fill="black" fill-opacity="0.2"/>
</g>
<defs>
<clipPath id="clip0_1955_9169">
<rect width="99.6296" height="99.6296" fill="white"/>
</clipPath>
</defs>
</svg>
