<svg width="100" height="100" viewBox="0 0 100 100" fill="none" xmlns="http://www.w3.org/2000/svg">
<g clip-path="url(#clip0_2033_15877)">
<path d="M2.01381 84.2482C3.5 76 5.50009 65 9 60C9.36847 53.7056 10.4873 50.2572 12 44.1875L85.5 45C86.1993 45.6351 88.233 49.9321 89 53C90 57 90.1531 59.8676 90.5 62C91.5489 63.7465 94.7524 72.6214 97 80.5C99.1363 87.9882 99.9999 101.392 99.9999 106.314H0.00390625C0.00391097 101.59 0.430233 93.0369 2.01381 84.2482Z" fill="#898989"/>
<path d="M2.01381 84.2482C3.5 76 5.50009 65 9 60C9.36847 53.7056 10.4873 50.2572 12 44.1875L85.5 45C86.1993 45.6351 88.233 49.9321 89 53C90 57 90.1531 59.8676 90.5 62C91.5489 63.7465 94.7524 72.6214 97 80.5C99.1363 87.9882 99.9999 101.392 99.9999 106.314H0.00390625C0.00391097 101.59 0.430233 93.0369 2.01381 84.2482Z" fill="white" fill-opacity="0.8"/>
<path d="M18.5883 71.9661C17.9905 73.2077 16.9676 77.6592 17.6591 85.532C18.3506 93.4048 18.7011 102.761 18.7899 106.456M81.9504 72.2712C82.55 75.9956 83.9012 84.2195 84.5093 87.3201C85.2694 91.1959 84.3402 104.762 83.1735 106.821" stroke="#898989" stroke-width="0.996296" stroke-linecap="round"/>
<path d="M18.5883 71.9661C17.9905 73.2077 16.9676 77.6592 17.6591 85.532C18.3506 93.4048 18.7011 102.761 18.7899 106.456M81.9504 72.2712C82.55 75.9956 83.9012 84.2195 84.5093 87.3201C85.2694 91.1959 84.3402 104.762 83.1735 106.821" stroke="white" stroke-opacity="0.2" stroke-width="0.996296" stroke-linecap="round"/>
<path d="M10.6345 13.169C11.4255 17.0182 14.9778 23.7779 15.6466 24.1794L33 10.793C29.8154 7.8584 29.0486 6.74024 25.4244 4.56457C20.5698 1.65032 15.9577 0.757442 13.3109 2.05317C10.0357 3.65651 9.84348 9.31982 10.6345 13.169Z" fill="#898989"/>
<path d="M10.6345 13.169C11.4255 17.0182 14.9778 23.7779 15.6466 24.1794L33 10.793C29.8154 7.8584 29.0486 6.74024 25.4244 4.56457C20.5698 1.65032 15.9577 0.757442 13.3109 2.05317C10.0357 3.65651 9.84348 9.31982 10.6345 13.169Z" fill="white" fill-opacity="0.4"/>
<path d="M89.0126 13.5176C88.4699 17.3132 85.3992 23.9133 84.8145 24.3254L68.6345 12.06C70.1244 9.50526 72.1453 7.72301 75.3134 5.48993C79.5571 2.49878 84.0877 1.70023 86.1123 2.69337C89.1327 4.17492 89.5554 9.72194 89.0126 13.5176Z" fill="#898989"/>
<path d="M89.0126 13.5176C88.4699 17.3132 85.3992 23.9133 84.8145 24.3254L68.6345 12.06C70.1244 9.50526 72.1453 7.72301 75.3134 5.48993C79.5571 2.49878 84.0877 1.70023 86.1123 2.69337C89.1327 4.17492 89.5554 9.72194 89.0126 13.5176Z" fill="white" fill-opacity="0.4"/>
<path d="M49.7343 3.06799C39.6948 3.06799 30.2382 4.05046 26.7523 6.50664C23.2664 8.96281 15.1024 20.3969 13.708 23.8356C12.3137 27.2742 8.96333 40.9868 11.0087 47.5149C13.054 54.0429 24.3324 59.5091 33 63.1802C41.8767 66.9399 56.6233 66.9399 65.5 63.1802C72.8972 60.0472 85.6506 55.3016 88.1676 47.5149C90.6846 39.7281 87.0881 26.5865 84.9966 23.8356C81.8593 19.7092 74.8151 8.56983 71.3292 6.50664C67.0423 3.96938 59.7737 3.06799 49.7343 3.06799Z" fill="#FEFEFE"/>
<path d="M57.5629 28.634C52.9741 23.3898 45.3045 23.2193 40.7772 28.7152C38.7448 31.1824 34.9399 41.7449 36.5856 49.5381C40.0325 57.4779 57.7397 58.1335 61.4962 49.5381C62.9955 41.0894 59.8574 31.2563 57.5629 28.634Z" fill="#898989"/>
<path d="M57.5629 28.634C52.9741 23.3898 45.3045 23.2193 40.7772 28.7152C38.7448 31.1824 34.9399 41.7449 36.5856 49.5381C40.0325 57.4779 57.7397 58.1335 61.4962 49.5381C62.9955 41.0894 59.8574 31.2563 57.5629 28.634Z" fill="white" fill-opacity="0.6"/>
<circle cx="34.619" cy="26.0119" r="3.27771" fill="#141414"/>
<circle cx="63.4628" cy="26.0119" r="3.27771" fill="#141414"/>
<path d="M49.0407 43.7116C49.0407 44.1486 49.0407 45.6782 49.0407 45.6782M49.0407 45.6782C49.0407 45.6782 48.3852 46.3337 47.0741 46.9893C45.763 47.6448 43.1409 47.6448 43.1409 47.6448M49.0407 45.6782C49.0407 45.6782 49.6963 46.3337 51.0074 46.9893C52.3185 47.6448 54.9406 47.6448 54.9406 47.6448" stroke="black" stroke-linecap="round"/>
<path d="M56.2518 37.8116C56.2518 42.4004 53.0233 44.367 49.0408 44.367C45.0583 44.367 41.8298 42.4004 41.8298 37.8116C41.8298 34.5532 45.0583 31.9117 49.0408 31.9117C53.0233 31.9117 56.2518 34.5532 56.2518 37.8116Z" fill="#898989"/>
<path d="M56.2518 37.8116C56.2518 42.4004 53.0233 44.367 49.0408 44.367C45.0583 44.367 41.8298 42.4004 41.8298 37.8116C41.8298 34.5532 45.0583 31.9117 49.0408 31.9117C53.0233 31.9117 56.2518 34.5532 56.2518 37.8116Z" fill="black" fill-opacity="0.8"/>
</g>
<defs>
<clipPath id="clip0_2033_15877">
<rect width="99.6296" height="99.6296" fill="white"/>
</clipPath>
</defs>
</svg>
