<svg width="101" height="101" viewBox="0 0 101 101" fill="none" xmlns="http://www.w3.org/2000/svg">
<path d="M74.3597 37.3551L94.8765 59.3084L82.9769 49.2547L93.2538 64.1864L80.2725 51.9591L91.6312 70.8903L78.1089 53.0409L90.5494 77.9218L75.9551 55.7453L86.8009 85.6241L74.3598 59.3084L81.8952 90.3623L72.622 64.1864L75.9551 96.853L71.0774 69.8085L69.4547 95.7712L64.3634 56.8989L74.3597 37.3551Z" fill="#898989"/>
<path d="M74.3597 37.3551L94.8765 59.3084L82.9769 49.2547L93.2538 64.1864L80.2725 51.9591L91.6312 70.8903L78.1089 53.0409L90.5494 77.9218L75.9551 55.7453L86.8009 85.6241L74.3598 59.3084L81.8952 90.3623L72.622 64.1864L75.9551 96.853L71.0774 69.8085L69.4547 95.7712L64.3634 56.8989L74.3597 37.3551Z" fill="white" fill-opacity="0.2"/>
<path d="M64.268 30.2906L73.3304 29.2401L59.4796 28.0915L68.2952 25.8545L48.506 28.8776C51.4795 33.2582 62.415 43.9137 63.7968 50.5578C65.1787 57.202 67.2968 58.3911 65.1878 64.1169L62.9017 96.7231L66.1296 81L66.1296 101L70.8361 72.9576L71.1821 99.2339L72.6998 70.2446L78.3123 94.8431L75.8341 67.345L85.1958 89.2659L77.4134 63.5471L91.6067 84.3915L78.2316 59.0432L93.9485 77.8017L78.1628 54.2703L94.8517 70.2446L77.7639 48.9692L91.9115 59.0828L77.0116 44.8924L90.5491 51.9591L74.4723 40.3208L86.5667 45.2836L71.3482 36.0717L81.9831 38.1196L67.8646 32.7088L77.893 33.3284L64.268 30.2906Z" fill="#898989"/>
<path d="M64.268 30.2906L73.3304 29.2401L59.4796 28.0915L68.2952 25.8545L48.506 28.8776C51.4795 33.2582 62.415 43.9137 63.7968 50.5578C65.1787 57.202 67.2968 58.3911 65.1878 64.1169L62.9017 96.7231L66.1296 81L66.1296 101L70.8361 72.9576L71.1821 99.2339L72.6998 70.2446L78.3123 94.8431L75.8341 67.345L85.1958 89.2659L77.4134 63.5471L91.6067 84.3915L78.2316 59.0432L93.9485 77.8017L78.1628 54.2703L94.8517 70.2446L77.7639 48.9692L91.9115 59.0828L77.0116 44.8924L90.5491 51.9591L74.4723 40.3208L86.5667 45.2836L71.3482 36.0717L81.9831 38.1196L67.8646 32.7088L77.893 33.3284L64.268 30.2906Z" fill="black" fill-opacity="0.2"/>
<path d="M14.5554 58.8944C14.5554 56.4719 14.2187 51.8288 13.5457 50.8194L47.8644 17.5101C54.93 23.5664 59.0014 28.6979 63.0051 38.7069C67.0428 48.8006 67.0427 76.0537 66.0333 85.138C65.0239 94.2224 50.8925 98.2599 39.7894 98.2599C28.6864 98.2599 11.5272 96.2411 9.50849 84.1287C7.48975 72.0162 14.5554 61.9225 14.5554 58.8944Z" fill="#898989"/>
<path d="M14.5554 58.8944C14.5554 56.4719 14.2187 51.8288 13.5457 50.8194L47.8644 17.5101C54.93 23.5664 59.0014 28.6979 63.0051 38.7069C67.0428 48.8006 67.0427 76.0537 66.0333 85.138C65.0239 94.2224 50.8925 98.2599 39.7894 98.2599C28.6864 98.2599 11.5272 96.2411 9.50849 84.1287C7.48975 72.0162 14.5554 61.9225 14.5554 58.8944Z" fill="white" fill-opacity="0.2"/>
<path d="M30.9554 8.26985L39.08 1.26145L24.8922 9.23644L32.0146 1.21156L14.7417 17.2399C20.4447 19.6355 44.3637 24.9186 49.9761 30.6109C55.5886 36.3031 60.2564 51.8808 61.8887 58.9581L70.7804 86.2746L65.9119 61.0053L75.877 79.2448L67.9733 54.9635L81.983 72.2222L68.0303 46.8887L86.0845 63.1665L68.0731 40.8326L89.1838 53.0945L68.1159 34.7766L91.2524 46.0433L64.1284 27.6826L90.3001 37.9614L60.1338 21.598L86.334 27.8394L57.1413 16.5299L76.3047 18.684L53.1325 12.464L70.2842 13.5945L47.0906 10.4026L62.2451 8.4908L41.5464 9.35403L53.1895 4.38927L36.0021 8.30549L46.1383 2.32068L30.9554 8.26985Z" fill="#898989"/>
<path d="M30.9554 8.26985L39.08 1.26145L24.8922 9.23644L32.0146 1.21156L14.7417 17.2399C20.4447 19.6355 44.3637 24.9186 49.9761 30.6109C55.5886 36.3031 60.2564 51.8808 61.8887 58.9581L70.7804 86.2746L65.9119 61.0053L75.877 79.2448L67.9733 54.9635L81.983 72.2222L68.0303 46.8887L86.0845 63.1665L68.0731 40.8326L89.1838 53.0945L68.1159 34.7766L91.2524 46.0433L64.1284 27.6826L90.3001 37.9614L60.1338 21.598L86.334 27.8394L57.1413 16.5299L76.3047 18.684L53.1325 12.464L70.2842 13.5945L47.0906 10.4026L62.2451 8.4908L41.5464 9.35403L53.1895 4.38927L36.0021 8.30549L46.1383 2.32068L30.9554 8.26985Z" fill="white" fill-opacity="0.2"/>
<path d="M42.326 7.28385L52.1461 2.96036L36.2454 6.43347L45.4047 0.844679L24.1969 11.1155C28.949 15.0754 44.6594 23.4296 48.36 30.5152C52.0606 37.6009 54.8204 38.2233 54.3098 45.4684L62.3043 83.3708L60.2596 57.368L69.0616 90.1849L63.5049 53.5818L72.4009 83.3708L65.6685 49.2547L78.9733 75.9122L67.2911 45.4684L84.8848 67.1883L68.9138 42.2231L90.4942 59.4275L67.2911 35.1915L90.986 51.1186L65.6685 29.7826L89.5516 42.2051L63.5049 23.8865L82.6412 30.5152L61.3414 19.5057L78.3741 23.8865L57.0142 15.1786L72.1808 16.6533L52.1358 11.4204L64.7222 10.0809L47.1413 8.79505L58.5853 6.03909L42.326 7.28385Z" fill="#898989"/>
<path d="M6.58585 38.4754C6.58585 35.4914 9.72661 22.557 14.5554 17.5101C20.5277 11.2682 23.5262 12.813 34.1852 13.6087C47.509 14.6034 52.0752 24.7227 54.9303 34.6694C57.7854 44.6161 51.3158 49.4168 45.6056 52.4008C39.8954 55.3848 29.4266 57.3741 17.0545 54.3901C4.68245 51.4061 6.58585 41.4594 6.58585 38.4754Z" fill="#898989"/>
<path d="M6.58585 38.4754C6.58585 35.4914 9.72661 22.557 14.5554 17.5101C20.5277 11.2682 23.5262 12.813 34.1852 13.6087C47.509 14.6034 52.0752 24.7227 54.9303 34.6694C57.7854 44.6161 51.3158 49.4168 45.6056 52.4008C39.8954 55.3848 29.4266 57.3741 17.0545 54.3901C4.68245 51.4061 6.58585 41.4594 6.58585 38.4754Z" fill="white" fill-opacity="0.4"/>
<circle cx="33.7332" cy="32.6507" r="3.02811" fill="#141414"/>
<path d="M28.1465 11.5006L34.557 5.44263L23.3386 12.366L28.9478 5.44263C19.332 11.5006 16.1741 13.9787 12.1201 20.5875C13.8866 18.6797 14.9837 16.2123 16.8927 15.5392C19.7562 14.5296 21.84 14.5441 22.389 16.3227C23.6705 14.4773 29.0864 14.7464 32.1531 15.8277C35.0166 16.8374 41.1208 19.1452 39.8009 21.5972C42.6645 20.5875 44.5735 23.6165 43.619 25.6358C45.528 25.6358 47.3891 27.7664 46.2224 29.6745C48.2192 29.6745 49.2583 31.5496 48.3915 33.7131C50.3412 33.7131 51.1267 36.3094 50.3006 37.7518C52.3287 38.3287 53.0889 41.8824 52.1343 43.9017L53.7686 44.9276L69.0137 66.0223L56.4731 42.764L72.219 58.2334L57.5548 37.7518L74.6229 49.5792L56.4731 32.4871L77.0269 41.7904L54.59 27.9436L75.4242 34.867L52.1343 23.292L72.219 27.9436L49.4415 18.9649L64.2058 20.1548L46.2224 15.5392L59.3979 15.8277L40.9676 13.2314L52.9873 11.5006L36.5603 12.366L45.7755 8.0389L32.1531 11.5006L40.1662 6.30805L28.1465 11.5006Z" fill="#898989"/>
<path d="M28.1465 11.5006L34.557 5.44263L23.3386 12.366L28.9478 5.44263C19.332 11.5006 16.1741 13.9787 12.1201 20.5875C13.8866 18.6797 14.9837 16.2123 16.8927 15.5392C19.7562 14.5296 21.84 14.5441 22.389 16.3227C23.6705 14.4773 29.0864 14.7464 32.1531 15.8277C35.0166 16.8374 41.1208 19.1452 39.8009 21.5972C42.6645 20.5875 44.5735 23.6165 43.619 25.6358C45.528 25.6358 47.3891 27.7664 46.2224 29.6745C48.2192 29.6745 49.2583 31.5496 48.3915 33.7131C50.3412 33.7131 51.1267 36.3094 50.3006 37.7518C52.3287 38.3287 53.0889 41.8824 52.1343 43.9017L53.7686 44.9276L69.0137 66.0223L56.4731 42.764L72.219 58.2334L57.5548 37.7518L74.6229 49.5792L56.4731 32.4871L77.0269 41.7904L54.59 27.9436L75.4242 34.867L52.1343 23.292L72.219 27.9436L49.4415 18.9649L64.2058 20.1548L46.2224 15.5392L59.3979 15.8277L40.9676 13.2314L52.9873 11.5006L36.5603 12.366L45.7755 8.0389L32.1531 11.5006L40.1662 6.30805L28.1465 11.5006Z" fill="white" fill-opacity="0.4"/>
<ellipse cx="10.9602" cy="32.6494" rx="2.01874" ry="2.71631" transform="rotate(10.0429 10.9602 32.6494)" fill="#141414"/>
<path d="M27.2409 36.2342C23.2096 32.1906 17.6407 31.7503 13.1096 35.2248C10.0817 37.5467 7.79303 43.8458 11.0908 47.3373C14.2469 50.6788 19.1032 52.9395 25.1015 49.7956C31.5481 46.4166 32.1331 41.1413 27.2409 36.2342Z" fill="#D0333D"/>
<path d="M27.2409 36.2342C23.2096 32.1906 17.6407 31.7503 13.1096 35.2248C10.0817 37.5467 7.79303 43.8458 11.0908 47.3373C14.2469 50.6788 19.1032 52.9395 25.1015 49.7956C31.5481 46.4166 32.1331 41.1413 27.2409 36.2342Z" fill="white" fill-opacity="0.8"/>
<path d="M22.115 61.6667C20.95 59.3333 18.6201 57 15.125 57L11.6296 62.8333C13.4937 63.7667 15.1247 66.3333 16.2898 71C17.4548 67.5 16.523 65.1667 17.4551 65.1667C18.3871 65.1667 19.0082 68.2778 19.7849 69.8333C20.95 67.5 19.7849 64 20.95 64C21.882 64 21.7267 66.3333 22.115 67.5C22.5034 66.7222 23.0471 63.5333 22.115 61.6667Z" fill="#898989"/>
<path d="M19.3215 56.5514C14.572 54.631 11.553 56.3093 10.5 59.5C9.44694 62.6908 11.1725 65.2749 13.9021 66.249C17.0354 66.5396 22.2358 64.4579 22.4322 62.3405C22.6285 60.223 21.9184 57.6014 19.3215 56.5514Z" fill="#898989"/>
<path d="M26.6296 77.8C26.8686 75.0154 27.1296 72.3 29.6296 70.5L33.2296 69L37.6296 72.3C36.0369 75.2797 35.4196 76.9607 35.4296 80C33.9783 77.8851 33.57 76.6862 34.3296 74.5C32.1246 76.5455 31.3122 77.7483 29.9296 80C29.4543 77.3626 29.6913 75.9185 31.0296 73.4C29.0237 74.7382 28.0836 75.7267 26.6296 77.8Z" fill="#898989"/>
<path d="M29.7054 67.713C31.9983 64.1729 34.5184 62.376 40.9999 59C42.9106 58.2133 48.2485 57.2239 50.9999 61C53.7513 64.7761 51.8508 67.713 49.555 68.2396C46.1157 68.6329 40.9348 71.1598 39.4278 73.3396C37.9983 75.4074 35.5855 78.3601 31 76C28.0326 74.4727 27.4126 71.2531 29.7054 67.713Z" fill="#898989"/>
<path d="M18.235 56.7069C13.7971 55.2275 11.5273 55.8663 10.5179 58.8944C9.5085 61.9225 11.1695 63.7725 13.7971 64.7006C16.8122 64.9802 21.019 63.343 21.2054 61.3329C21.3919 59.3227 20.3762 57.4207 18.235 56.7069Z" fill="#898989"/>
<path d="M18.235 56.7069C13.7971 55.2275 11.5273 55.8663 10.5179 58.8944C9.5085 61.9225 11.1695 63.7725 13.7971 64.7006C16.8122 64.9802 21.019 63.343 21.2054 61.3329C21.3919 59.3227 20.3762 57.4207 18.235 56.7069Z" fill="white" fill-opacity="0.2"/>
<path d="M31.7148 66.9693C33.7336 63.9412 37.7709 60.9131 42.8179 57.885C44.5002 57.2121 48.4704 56.6737 50.8929 59.9037C53.3154 63.1337 50.5 66.5 48.8741 66.9693C45.846 67.3058 41.4046 69.3918 39.7896 71.0068C37.7709 73.0255 35.7521 76.0537 31.7148 74.0349C29.1021 72.7285 29.6961 69.9974 31.7148 66.9693Z" fill="#898989"/>
<path d="M31.7148 66.9693C33.7336 63.9412 37.7709 60.9131 42.8179 57.885C44.5002 57.2121 48.4704 56.6737 50.8929 59.9037C53.3154 63.1337 50.5 66.5 48.8741 66.9693C45.846 67.3058 41.4046 69.3918 39.7896 71.0068C37.7709 73.0255 35.7521 76.0537 31.7148 74.0349C29.1021 72.7285 29.6961 69.9974 31.7148 66.9693Z" fill="white" fill-opacity="0.2"/>
<path d="M14.8632 48.2746C14.7332 47.4737 12.7137 47.0069 10.3037 45.2062C11.5078 46.7194 12.7132 48.0756 13.3157 48.5258C13.9182 48.9759 14.9932 49.0754 14.8632 48.2746Z" fill="#D0333D"/>
<path d="M14.8632 48.2746C14.7332 47.4737 12.7137 47.0069 10.3037 45.2062C11.5078 46.7194 12.7132 48.0756 13.3157 48.5258C13.9182 48.9759 14.9932 49.0754 14.8632 48.2746Z" fill="white" fill-opacity="0.6"/>
<path d="M26.6405 45.8149C23.7189 47.3851 18.474 47.6885 18.6473 48.7563C19.3364 49.7404 20.8839 49.4892 21.8289 48.7878C22.5849 48.2267 24.8372 47.7515 26.6405 45.8149Z" fill="#D0333D"/>
<path d="M26.6405 45.8149C23.7189 47.3851 18.474 47.6885 18.6473 48.7563C19.3364 49.7404 20.8839 49.4892 21.8289 48.7878C22.5849 48.2267 24.8372 47.7515 26.6405 45.8149Z" fill="white" fill-opacity="0.6"/>
</svg>
