<svg width="101" height="100" viewBox="0 0 101 100" fill="none" xmlns="http://www.w3.org/2000/svg">
<path d="M13 77C18.7133 83.5888 25.7655 88.3765 42.2909 88.3765L40 80.5C31.0007 80.5 22.1634 80.4646 16.785 73C11.9079 66.231 13.6132 53.3996 17.7604 41.8082C22.152 29.5337 22.4794 22.006 19.7567 15.9087C16.785 9.25399 11.8899 7.1193 4.41847 5.51827C10.2889 8.18665 14.1094 10.855 16.785 17.2748C19.2251 23.1296 18.9057 30.6319 15.092 38.6061C9.22158 50.8807 6.65266 69.68 13 77Z" fill="#FAA21E"/>
<path d="M13 77C18.7133 83.5888 25.7655 88.3765 42.2909 88.3765L40 80.5C31.0007 80.5 22.1634 80.4646 16.785 73C11.9079 66.231 13.6132 53.3996 17.7604 41.8082C22.152 29.5337 22.4794 22.006 19.7567 15.9087C16.785 9.25399 11.8899 7.1193 4.41847 5.51827C10.2889 8.18665 14.1094 10.855 16.785 17.2748C19.2251 23.1296 18.9057 30.6319 15.092 38.6061C9.22158 50.8807 6.65266 69.68 13 77Z" fill="white" fill-opacity="0.6"/>
<path d="M80.6822 20.893C81.853 15.6863 87.2269 9.03618 82.5473 7.6391C75.9618 5.67304 66.3649 12.5235 63.6001 21.2353C60.8353 29.9471 64.8372 37.9513 70.9119 39.4822L79.381 33.9172C80.4582 32.5506 79.1922 27.5192 80.6822 20.893Z" fill="#FAA21E"/>
<path d="M79.6296 19.5C80.8801 15.2972 84.5307 11.0656 82.1626 10.5292C78.8299 9.77439 72.8228 16.258 70.2944 23.3854C67.7659 30.5129 68.9847 36.2868 72.0924 36.7623L77.3366 31.4157C78.0817 30.2214 78.0383 24.8485 79.6296 19.5Z" fill="#FAA21E"/>
<path d="M79.6296 19.5C80.8801 15.2972 84.5307 11.0656 82.1626 10.5292C78.8299 9.77439 72.8228 16.258 70.2944 23.3854C67.7659 30.5129 68.9847 36.2868 72.0924 36.7623L77.3366 31.4157C78.0817 30.2214 78.0383 24.8485 79.6296 19.5Z" fill="white" fill-opacity="0.6"/>
<path d="M36.7699 40.4656C29.5087 50.1251 26.3459 63.9812 27.1636 76.2509C29.0174 86.7554 36.3702 92.6319 46.3759 95.4632C56.6505 98.3706 77.3847 101.408 89.6036 87.9918C101.823 74.576 87.1383 54.6164 93.8731 45.2977C97.3654 40.4656 88.0025 20.215 70.3913 20.215C52.7801 20.215 44.7751 29.8163 36.7699 40.4656Z" fill="#FAA21E"/>
<path d="M36.7699 40.4656C29.5087 50.1251 26.3459 63.9812 27.1636 76.2509C29.0174 86.7554 36.3702 92.6319 46.3759 95.4632C56.6505 98.3706 77.3847 101.408 89.6036 87.9918C101.823 74.576 87.1383 54.6164 93.8731 45.2977C97.3654 40.4656 88.0025 20.215 70.3913 20.215C52.7801 20.215 44.7751 29.8163 36.7699 40.4656Z" fill="white" fill-opacity="0.2"/>
<path d="M80.2031 70.636L96.9655 66.046L98.252 70.7444C98.4541 71.4823 98.0197 72.2442 97.2819 72.4463L83.1916 76.3046C82.4537 76.5067 81.6918 76.0723 81.4897 75.3345L80.2031 70.636Z" fill="#FAA21E"/>
<path d="M80.2031 70.636L96.9655 66.046L98.252 70.7444C98.4541 71.4823 98.0197 72.2442 97.2819 72.4463L83.1916 76.3046C82.4537 76.5067 81.6918 76.0723 81.4897 75.3345L80.2031 70.636Z" fill="white" fill-opacity="0.95"/>
<path d="M96.9655 66.046L80.2032 70.636L89.8733 61.8615C90.7115 61.632 92.58 62.0146 94.066 62.6955C95.7143 63.4509 96.6901 65.0402 96.9655 66.046Z" fill="#FAA21E"/>
<path d="M96.9655 66.046L80.2032 70.636L89.8733 61.8615C90.7115 61.632 92.58 62.0146 94.066 62.6955C95.7143 63.4509 96.6901 65.0402 96.9655 66.046Z" fill="white" fill-opacity="0.6"/>
<circle cx="83.3462" cy="73.5594" r="0.868972" transform="rotate(-15.314 83.3462 73.5594)" fill="#FAA21E"/>
<circle cx="83.3462" cy="73.5594" r="0.868972" transform="rotate(-15.314 83.3462 73.5594)" fill="white" fill-opacity="0.4"/>
<circle cx="85.2021" cy="69.8077" r="0.521383" transform="rotate(-15.314 85.2021 69.8077)" fill="#FAA21E"/>
<circle cx="85.2021" cy="69.8077" r="0.521383" transform="rotate(-15.314 85.2021 69.8077)" fill="white" fill-opacity="0.4"/>
<circle cx="97.1232" cy="71.2283" r="0.521383" transform="rotate(-15.314 97.1232 71.2283)" fill="#FAA21E"/>
<circle cx="97.1232" cy="71.2283" r="0.521383" transform="rotate(-15.314 97.1232 71.2283)" fill="white" fill-opacity="0.4"/>
<circle cx="89.8037" cy="68.1873" r="0.868972" transform="rotate(-15.314 89.8037 68.1873)" fill="#FAA21E"/>
<circle cx="89.8037" cy="68.1873" r="0.868972" transform="rotate(-15.314 89.8037 68.1873)" fill="white" fill-opacity="0.4"/>
<circle cx="92.8569" cy="72.757" r="0.868972" transform="rotate(-15.314 92.8569 72.757)" fill="#FAA21E"/>
<circle cx="92.8569" cy="72.757" r="0.868972" transform="rotate(-15.314 92.8569 72.757)" fill="white" fill-opacity="0.4"/>
<circle cx="88.3129" cy="71.2984" r="1.39035" transform="rotate(-15.314 88.3129 71.2984)" fill="#FAA21E"/>
<circle cx="88.3129" cy="71.2984" r="1.39035" transform="rotate(-15.314 88.3129 71.2984)" fill="white" fill-opacity="0.4"/>
<circle cx="94.8344" cy="68.7919" r="1.04277" transform="rotate(-15.314 94.8344 68.7919)" fill="#FAA21E"/>
<circle cx="94.8344" cy="68.7919" r="1.04277" transform="rotate(-15.314 94.8344 68.7919)" fill="white" fill-opacity="0.4"/>
<path d="M67.5899 13.0826C63.0577 5.16449 56.4633 1.19147 47.8945 3.70688C35.8358 7.24674 31.3795 21.4413 34.8867 30.3912C38.394 39.341 53.8292 41.4835 65.2576 37.0052C66.3205 34.76 67.5899 33.2694 69.527 31.6684C69.9824 29.7682 71.2157 19.4171 67.5899 13.0826Z" fill="#FAA21E"/>
<path d="M67.5899 13.0826C63.0577 5.16449 56.4633 1.19147 47.8945 3.70688C35.8358 7.24674 31.3795 21.4413 34.8867 30.3912C38.394 39.341 53.8292 41.4835 65.2576 37.0052C66.3205 34.76 67.5899 33.2694 69.527 31.6684C69.9824 29.7682 71.2157 19.4171 67.5899 13.0826Z" fill="white" fill-opacity="0.2"/>
<path d="M66.2097 17.7183C62.0503 10.4737 55.9912 6.84285 48.1105 9.15394C37.0202 12.4063 34.977 22.3198 38.193 30.5099C41.409 38.7 54.9495 39.0327 65.7913 35.9378C66.3085 34.9094 67.2299 33.8285 68.4597 32.7357C68.8802 30.9957 69.5371 23.514 66.2097 17.7183Z" fill="#FAA21E"/>
<path d="M66.2097 17.7183C62.0503 10.4737 55.9912 6.84285 48.1105 9.15394C37.0202 12.4063 34.977 22.3198 38.193 30.5099C41.409 38.7 54.9495 39.0327 65.7913 35.9378C66.3085 34.9094 67.2299 33.8285 68.4597 32.7357C68.8802 30.9957 69.5371 23.514 66.2097 17.7183Z" fill="white" fill-opacity="0.8"/>
<ellipse cx="71.6619" cy="49.8133" rx="8.00513" ry="7.47146" fill="#FAA21E"/>
<circle cx="74.8639" cy="41.8082" r="3.73573" fill="#141414"/>
<ellipse cx="94.77" cy="43.2069" rx="2.26826" ry="2.39085" transform="rotate(0.766374 94.77 43.2069)" fill="#FAA21E"/>
<ellipse cx="94.77" cy="43.2069" rx="2.26826" ry="2.39085" transform="rotate(0.766374 94.77 43.2069)" fill="white" fill-opacity="0.8"/>
<path d="M91.1414 67.3387C89.7177 63.5 87.5001 63 81.5001 60L76 67.3387C82.5 69.5 84.7822 74.7707 89.5 73C90.6679 72.5616 92.3719 70.6564 91.1414 67.3387Z" fill="#FAA21E"/>
<path d="M91.1414 67.3387C89.7177 63.5 87.5001 63 81.5001 60L76 67.3387C82.5 69.5 84.7822 74.7707 89.5 73C90.6679 72.5616 92.3719 70.6564 91.1414 67.3387Z" fill="black" fill-opacity="0.1"/>
<path d="M88.8562 66.9745C87.2465 63.4555 83.003 62.2626 80.7375 59.5069L76.0215 67.3686C81.9075 67.4506 85.5054 72.1584 87.6963 71.4395C88.709 71.1071 90.2023 69.9174 88.8562 66.9745Z" fill="#FAA21E"/>
<path d="M88.8562 66.9745C87.2465 63.4555 83.003 62.2626 80.7375 59.5069L76.0215 67.3686C81.9075 67.4506 85.5054 72.1584 87.6963 71.4395C88.709 71.1071 90.2023 69.9174 88.8562 66.9745Z" fill="white" fill-opacity="0.2"/>
<path d="M81.2676 64.7562L80.7339 56.7511L73.2624 67.9583L81.2676 64.7562Z" fill="#FAA21E"/>
<path d="M81.2676 64.7562L80.7339 56.7511L73.2624 67.9583L81.2676 64.7562Z" fill="white" fill-opacity="0.2"/>
</svg>
