<svg width="100" height="100" viewBox="0 0 100 100" fill="none" xmlns="http://www.w3.org/2000/svg">
<g clip-path="url(#clip0_3394_29584)">
<path d="M17.5 77C19.9 70.2 28.1667 60.9567 31 57.9567H69C74.5 62.9567 79.0679 68.5546 82 74C85.5 80.5 88 91.5 88 99.9567H13C13.1667 94.7901 15.1 83.8 17.5 77Z" fill="#CE4317"/>
<path d="M17.5 77C19.9 70.2 28.1667 60.9567 31 57.9567H69C74.5 62.9567 79.0679 68.5546 82 74C85.5 80.5 88 91.5 88 99.9567H13C13.1667 94.7901 15.1 83.8 17.5 77Z" fill="black" fill-opacity="0.3"/>
<path d="M25.7573 83.4507C25.3336 84.3183 24.723 89.9379 23.0819 95.1267C21.4417 100.313 20.7456 106.66 22.69 109.875M74.7453 84.5969C75.4238 87.0988 76.9441 92.6221 77.5976 94.7003C78.4146 97.2982 78.3499 106.542 77.5046 107.988" stroke="#CE4317" stroke-width="1.0414" stroke-linecap="round"/>
<path d="M25.7573 83.4507C25.3336 84.3183 24.723 89.9379 23.0819 95.1267C21.4417 100.313 20.7456 106.66 22.69 109.875M74.7453 84.5969C75.4238 87.0988 76.9441 92.6221 77.5976 94.7003C78.4146 97.2982 78.3499 106.542 77.5046 107.988" stroke="black" stroke-opacity="0.7" stroke-width="1.0414" stroke-linecap="round"/>
<path d="M12.2674 2.37915C17.1866 1.10084 28.7154 8.10966 33.5915 11.0398L17.2158 38.5798C16.4589 37.7856 14.5437 35.9549 12.9375 34.9851C11.3313 34.0153 12.4129 28.5709 13.1545 25.9699C10.8091 18.6389 7.34816 3.65746 12.2674 2.37915Z" fill="#CE4317"/>
<path d="M12.2674 2.37915C17.1866 1.10084 28.7154 8.10966 33.5915 11.0398L17.2158 38.5798C16.4589 37.7856 14.5437 35.9549 12.9375 34.9851C11.3313 34.0153 12.4129 28.5709 13.1545 25.9699C10.8091 18.6389 7.34816 3.65746 12.2674 2.37915Z" fill="white" fill-opacity="0.15"/>
<path d="M88.2393 1.29785C84.5729 -1.11824 70.9438 6.60419 65.318 10.6395L83.8117 40.1826C85.0029 39.0474 87.6888 36.2604 88.9024 34.1946C90.1161 32.1287 87.2263 27.2677 85.6297 25.0954C88.0272 18.1696 91.9057 3.71393 88.2393 1.29785Z" fill="#CE4317"/>
<path d="M88.2393 1.29785C84.5729 -1.11824 70.9438 6.60419 65.318 10.6395L83.8117 40.1826C85.0029 39.0474 87.6888 36.2604 88.9024 34.1946C90.1161 32.1287 87.2263 27.2677 85.6297 25.0954C88.0272 18.1696 91.9057 3.71393 88.2393 1.29785Z" fill="white" fill-opacity="0.15"/>
<path d="M13.6614 5.49C18.5948 4.35048 24.2274 11.8549 31.1089 16.0942L17.2413 38.7479C16.4799 38.0306 14.6313 35.7753 13.51 34.0024C12.5279 32.4495 12.9402 29.3644 13.678 27.0229C11.3062 20.4125 8.72791 6.62951 13.6614 5.49Z" fill="#CE4317"/>
<path d="M13.6614 5.49C18.5948 4.35048 24.2274 11.8549 31.1089 16.0942L17.2413 38.7479C16.4799 38.0306 14.6313 35.7753 13.51 34.0024C12.5279 32.4495 12.9402 29.3644 13.678 27.0229C11.3062 20.4125 8.72791 6.62951 13.6614 5.49Z" fill="white" fill-opacity="0.8"/>
<path d="M87.5435 4.64937C83.8582 2.46359 72.4934 14.2059 66.8577 17.8276L84.0764 40.3565C85.269 39.3367 87.5264 35.6325 88.0138 33.4677C88.6654 30.5736 86.8953 27.7977 85.2877 25.8366C87.6765 19.6029 89.5284 5.82664 87.5435 4.64937Z" fill="#CE4317"/>
<path d="M87.5435 4.64937C83.8582 2.46359 72.4934 14.2059 66.8577 17.8276L84.0764 40.3565C85.269 39.3367 87.5264 35.6325 88.0138 33.4677C88.6654 30.5736 86.8953 27.7977 85.2877 25.8366C87.6765 19.6029 89.5284 5.82664 87.5435 4.64937Z" fill="white" fill-opacity="0.8"/>
<path d="M37.8287 63.9567C39.8433 63.9567 46.055 66.4011 48.909 67.9567C51.7629 67.0678 57.9745 63.9567 59.9891 63.9567C62.0036 63.9567 62.0036 75.9567 59.9891 75.9567C57.9745 75.9567 51.7629 73.0678 48.909 71.9567C45.7192 73.0678 39.0375 75.9567 37.8288 75.9567C36.3179 75.9567 35.8141 63.9567 37.8287 63.9567Z" fill="#1D8CE0"/>
<ellipse cx="43" cy="69.9567" rx="3.5" ry="2" fill="#1D8CE0"/>
<ellipse cx="43" cy="69.9567" rx="3.5" ry="2" fill="black" fill-opacity="0.2"/>
<ellipse cx="55" cy="69.9567" rx="3.5" ry="2" fill="#1D8CE0"/>
<ellipse cx="55" cy="69.9567" rx="3.5" ry="2" fill="black" fill-opacity="0.2"/>
<ellipse cx="49" cy="69.9567" rx="3.5" ry="4" fill="#546DDB"/>
<ellipse cx="49" cy="69.9567" rx="3.5" ry="4" fill="white" fill-opacity="0.95"/>
<ellipse cx="49" cy="69.9567" rx="2.625" ry="3" fill="#1D8CE0"/>
<path d="M69.3308 12.8796C65.5492 9.38884 56.2405 7.35257 47.8045 7.35257C38.7868 6.61044 30.3507 11.716 27.1508 14.9159C23.951 18.1157 23.0783 23.6427 19.0058 29.1698C14.9332 34.6968 11.3557 49.3259 17.2602 56.8049C21.6236 62.3319 28.4112 62.8167 33.5504 62.3319C35.5866 64.1742 41.6373 65.5899 49.5496 65.8227C57.462 66.0554 65.1611 63.6894 66.7125 62.3319C69.9124 62.6228 78.1156 63.0301 83.0027 56.514C89.1115 48.3689 83.8754 33.8241 81.5484 30.6242C79.8548 28.2952 73.1124 16.3703 69.3308 12.8796Z" fill="#CE4317"/>
<path d="M69.3308 12.8796C65.5492 9.38884 56.2405 7.35257 47.8045 7.35257C38.7868 6.61044 30.3507 11.716 27.1508 14.9159C23.951 18.1157 23.0783 23.6427 19.0058 29.1698C14.9332 34.6968 11.3557 49.3259 17.2602 56.8049C21.6236 62.3319 28.4112 62.8167 33.5504 62.3319C35.5866 64.1742 41.6373 65.5899 49.5496 65.8227C57.462 66.0554 65.1611 63.6894 66.7125 62.3319C69.9124 62.6228 78.1156 63.0301 83.0027 56.514C89.1115 48.3689 83.8754 33.8241 81.5484 30.6242C79.8548 28.2952 73.1124 16.3703 69.3308 12.8796Z" fill="white" fill-opacity="0.15"/>
<path d="M56.8222 39.7358C56.8222 37.8966 52.7535 37.7627 48.6823 37.5C45.4835 37.5 40.532 38.2645 40.532 39.7358C40.532 41.5751 33.8413 43.677 33.5505 48.1437C33.3178 51.717 35.296 55.3504 38.4958 56.2231C38.7867 56.8049 38.6123 56.4971 39.0776 57.9685C39.6592 59.8077 42.5755 62.041 48.6823 62.041C54.7891 62.041 57.6952 60.4176 58.5676 58.8411C59.44 57.2647 58.9217 56.6622 59.4403 56.514C61.4766 55.9322 64.3856 52.0848 64.3856 48.1437C64.3856 44.2025 56.8222 41.5751 56.8222 39.7358Z" fill="#CE4317"/>
<path d="M56.8222 39.7358C56.8222 37.8966 52.7535 37.7627 48.6823 37.5C45.4835 37.5 40.532 38.2645 40.532 39.7358C40.532 41.5751 33.8413 43.677 33.5505 48.1437C33.3178 51.717 35.296 55.3504 38.4958 56.2231C38.7867 56.8049 38.6123 56.4971 39.0776 57.9685C39.6592 59.8077 42.5755 62.041 48.6823 62.041C54.7891 62.041 57.6952 60.4176 58.5676 58.8411C59.44 57.2647 58.9217 56.6622 59.4403 56.514C61.4766 55.9322 64.3856 52.0848 64.3856 48.1437C64.3856 44.2025 56.8222 41.5751 56.8222 39.7358Z" fill="white" fill-opacity="0.8"/>
<path d="M80.6756 43.1328C78.3484 37.3148 72.5305 34.4059 69.6215 37.0239C67.5853 37.9515 69.6215 44.2963 71.6578 46.9144C73.6941 49.5325 77.4757 50.1143 76.603 53.8959C75.9049 56.9212 71.2699 59.326 69.0397 59.7138C71.4639 59.6169 76.0212 58.0848 78.3484 56.2231C81.2573 53.8959 83.0027 48.9507 80.6756 43.1328Z" fill="#CE4317"/>
<path d="M80.6756 43.1328C78.3484 37.3148 72.5305 34.4059 69.6215 37.0239C67.5853 37.9515 69.6215 44.2963 71.6578 46.9144C73.6941 49.5325 77.4757 50.1143 76.603 53.8959C75.9049 56.9212 71.2699 59.326 69.0397 59.7138C71.4639 59.6169 76.0212 58.0848 78.3484 56.2231C81.2573 53.8959 83.0027 48.9507 80.6756 43.1328Z" fill="white" fill-opacity="0.6"/>
<path d="M20.4679 43.3464C22.5147 37.9097 27.6319 35.1913 30.1905 37.6378C31.9815 38.5046 30.1905 44.4338 28.3995 46.8803C26.6085 49.3268 23.7651 49.1985 24.5327 52.7323C25.1467 55.5595 28.7406 58.4787 30.7022 58.8412C28.5701 58.7505 24.5433 56.7993 22.4964 55.0595C19.9378 52.8848 18.421 48.7832 20.4679 43.3464Z" fill="#CE4317"/>
<path d="M20.4679 43.3464C22.5147 37.9097 27.6319 35.1913 30.1905 37.6378C31.9815 38.5046 30.1905 44.4338 28.3995 46.8803C26.6085 49.3268 23.7651 49.1985 24.5327 52.7323C25.1467 55.5595 28.7406 58.4787 30.7022 58.8412C28.5701 58.7505 24.5433 56.7993 22.4964 55.0595C19.9378 52.8848 18.421 48.7832 20.4679 43.3464Z" fill="white" fill-opacity="0.6"/>
<ellipse cx="36.4594" cy="38.4784" rx="3.78165" ry="3.49075" fill="#898989"/>
<ellipse cx="36.4594" cy="38.4784" rx="3.78165" ry="3.49075" fill="black" fill-opacity="0.8"/>
<ellipse cx="60.8944" cy="38.4784" rx="3.78165" ry="3.49075" fill="#898989"/>
<ellipse cx="60.8944" cy="38.4784" rx="3.78165" ry="3.49075" fill="black" fill-opacity="0.8"/>
<path d="M48.3863 53.605V55.0595M48.3863 55.0595C46.0592 55.3504 44.8622 55.8088 41.6624 55.5179M48.3863 55.0595C50.7135 55.6413 52.7164 55.8088 55.6254 55.5179" stroke="#CE4317" stroke-width="1.13449" stroke-linecap="round"/>
<path d="M48.3863 53.605V55.0595M48.3863 55.0595C46.0592 55.3504 44.8622 55.8088 41.6624 55.5179M48.3863 55.0595C50.7135 55.6413 52.7164 55.8088 55.6254 55.5179" stroke="black" stroke-opacity="0.5" stroke-width="1.13449" stroke-linecap="round"/>
<path d="M51.8788 44.8224C50.4877 43.9564 44.9231 43.9564 44.3666 44.8224C43.5319 45.2537 42.419 48.8633 42.9755 50.0179C43.5319 51.1725 47.4271 53.4816 48.54 53.4816C49.6529 53.4816 53.5482 51.4611 53.8264 49.7293C54.1046 47.9974 53.27 45.6883 51.8788 44.8224Z" fill="#CE4317"/>
<path d="M51.8788 44.8224C50.4877 43.9564 44.9231 43.9564 44.3666 44.8224C43.5319 45.2537 42.419 48.8633 42.9755 50.0179C43.5319 51.1725 47.4271 53.4816 48.54 53.4816C49.6529 53.4816 53.5482 51.4611 53.8264 49.7293C54.1046 47.9974 53.27 45.6883 51.8788 44.8224Z" fill="black" fill-opacity="0.5"/>
<ellipse cx="38.8437" cy="30.2338" rx="3.49075" ry="2.61806" transform="rotate(13.3041 38.8437 30.2338)" fill="#CE4317"/>
<ellipse cx="38.8437" cy="30.2338" rx="3.49075" ry="2.61806" transform="rotate(13.3041 38.8437 30.2338)" fill="white" fill-opacity="0.6"/>
<ellipse cx="3.77251" cy="2.61806" rx="3.77251" ry="2.61806" transform="matrix(-0.965926 0.258819 0.258819 0.965926 60.4224 26.8827)" fill="#CE4317"/>
<ellipse cx="3.77251" cy="2.61806" rx="3.77251" ry="2.61806" transform="matrix(-0.965926 0.258819 0.258819 0.965926 60.4224 26.8827)" fill="white" fill-opacity="0.6"/>
<circle cx="35.2622" cy="36.6096" r="1.16358" fill="#FEFEFE"/>
<circle cx="59.6975" cy="36.6096" r="1.16358" fill="#FEFEFE"/>
<path d="M37 49.4567C34.8333 48.9567 29 47.8567 23 47.4567C17 47.0567 9.16667 48.6234 6 49.4567M39 51.9567C34.8333 51.7901 25.5 51.7567 21.5 52.9567C17.5 54.1567 13.5 56.7901 12 57.9567M39 47.4567C37 46.1234 32 43.2567 28 42.4567C24 41.6567 19.3333 41.1234 17.5 40.9567M57.5 47.4567C59.3333 46.6234 63.8 44.8567 67 44.4567C70.2 44.0567 74.3333 44.2901 76 44.4567M60.5 49.4567C63.8333 49.1234 71.6 48.6567 76 49.4567C80.4 50.2567 86.1667 52.1234 88.5 52.9567M59 52.9567C62 52.4567 67.7344 51.9488 71 52.9567C76 54.5 77 55.5 82 58.5" stroke="#FEFEFE" stroke-width="0.4" stroke-linecap="round" stroke-linejoin="round"/>
</g>
<defs>
<clipPath id="clip0_3394_29584">
<rect width="100" height="100" fill="white"/>
</clipPath>
</defs>
</svg>
