<svg width="106" height="102" viewBox="0 0 106 102" fill="none" xmlns="http://www.w3.org/2000/svg">
<path fill-rule="evenodd" clip-rule="evenodd" d="M49.7629 74.7136C48.0514 74.8881 45.7671 74.9219 43.5764 73.904C41.7017 73.0328 39.5496 72.6724 37.3917 72.3109C35.2929 71.9594 33.1887 71.607 31.3285 70.7829C27.5146 69.0932 20.8836 62.0137 19.762 59.017C18.8646 56.6196 18.6334 54.327 18.6299 53.4804C18.6264 52.6338 19.3047 51.1673 20.5109 50.6494C21.1208 50.3876 21.6659 49.9635 22.1326 49.6003C22.5623 49.266 22.9257 48.9833 23.2122 48.9263C23.0901 48.3292 23.6502 45.9246 26.8674 41.0826C30.8888 35.0301 36.6386 28.7188 40.2198 26.7361C44.773 24.2152 52.6953 21.3757 60.5306 22.3601C68.3659 23.3446 73.9789 26.8864 77.8574 30.3546C83.9816 35.8309 87.2714 42.3789 88.1423 47.8826C89.0132 53.3864 89.395 58.9873 86.8127 65.8552C84.2303 72.7231 77.8548 77.6337 74.1421 79.3884C70.4294 81.143 65.2759 81.659 60.8973 80.1569C57.3944 78.9552 53.0704 75.8946 51.3462 74.5145C51.3084 74.5194 51.2698 74.5245 51.2305 74.5297C50.2545 72.6372 49.3618 70.1251 48.6533 67.6478C47.8726 64.9181 47.3323 62.2897 47.1504 60.6687C46.924 58.6502 47.0498 55.5197 47.5194 52.2695C47.989 49.0193 48.7913 45.7266 49.8787 43.3695C52.0563 38.649 56.5499 34.8148 60.0649 33.3845C63.7742 31.8751 68.8041 32.1083 71.8772 33.5376C75.5368 35.2396 78.3422 37.8281 80.6331 41.2443C82.9012 44.6263 83.6927 47.9594 83.8538 51.0232C84.0122 54.0351 83.2733 58.2651 81.0043 61.68C79.1884 64.4132 74.509 66.5537 69.8561 63.8487C65.0589 61.0599 62.6456 56.1274 62.4464 52.1834C62.245 48.1963 63.4664 45.0066 66.3845 42.8037C69.2882 40.6116 72.3538 40.4839 75.4407 42.0164C78.4927 43.5316 79.7583 46.1521 80.1218 48.6048C80.308 49.8611 80.2378 51.6861 79.7574 53.3001C79.2699 54.9378 78.4248 56.1627 77.2122 56.5593C75.8993 56.9887 74.4249 56.7354 73.1024 56.0484C71.7767 55.3597 70.6943 54.2803 70.17 53.2041C69.1048 51.0173 69.741 48.7089 70.539 47.5078C70.9629 46.8698 71.6268 46.3607 72.3726 46.0534C73.1214 45.7449 73.899 45.6615 74.5305 45.8069C75.8769 46.117 77.158 47.3238 77.5344 48.7553C77.9349 50.2785 77.5868 51.5432 76.8563 52.1745C76.1392 52.7941 74.9617 52.8692 74.0306 51.9235C73.5984 51.4844 73.5316 51.0791 73.5713 50.7188C73.6114 50.3553 73.7569 50.0332 73.9018 49.7124C73.9224 49.6668 73.943 49.6213 73.9633 49.5756C74.0844 49.3029 74.1756 49.2197 74.2155 49.1948L74.2162 49.1944C74.2311 49.185 74.2963 49.1441 74.5211 49.1962C74.8159 49.2645 74.8629 49.3476 74.8792 49.3763L74.8794 49.3767C74.9229 49.4535 74.9698 49.6275 74.9578 50.0542C74.9469 50.4392 75.2502 50.7602 75.6352 50.771C76.0202 50.7819 76.3411 50.4786 76.352 50.0936C76.3652 49.6286 76.3372 49.1199 76.0929 48.6889C75.8211 48.2095 75.3664 47.9604 74.8361 47.8374C74.3655 47.7283 73.8954 47.7512 73.4785 48.0106C73.0883 48.2534 72.8529 48.6392 72.6884 49.0097C72.6741 49.042 72.6573 49.0786 72.6386 49.1193C72.4975 49.4268 72.2514 49.9627 72.1849 50.5659C72.1036 51.3039 72.2835 52.137 73.0367 52.902C74.4764 54.3644 76.4872 54.3368 77.7682 53.2299C79.0357 52.1346 79.3675 50.2416 78.8833 48.4006C78.3751 46.4678 76.695 44.8741 74.8435 44.4477C73.876 44.2249 72.8011 44.3683 71.8412 44.7638C70.8783 45.1606 69.9773 45.8329 69.3773 46.7359C68.3791 48.2382 67.5817 51.0756 68.9161 53.8149C69.5917 55.2018 70.9121 56.4824 72.4594 57.2862C74.0098 58.0916 75.8785 58.463 77.6458 57.885C79.5136 57.2741 80.5603 55.4919 81.0942 53.6981C81.6353 51.8805 81.7163 49.8495 81.5015 48.4003C81.0891 45.6175 79.6207 42.5344 76.0609 40.7671C72.536 39.0172 68.9002 39.1569 65.5442 41.6904C62.1807 44.2295 60.834 47.9095 61.0534 52.2538C61.275 56.6411 63.9265 62.015 69.1551 65.0546C74.5277 68.178 79.9962 65.7177 82.1661 62.4519C84.6324 58.74 85.4175 54.1987 85.2467 50.95C85.075 47.6845 84.2252 44.0964 81.7915 40.4674C79.3808 36.8726 76.3896 34.098 72.4654 32.2729C69.0381 30.6789 63.6046 30.4383 59.5392 32.0926C55.7101 33.6507 50.9441 37.7302 48.6121 42.7852C47.4447 45.3158 46.6175 48.7576 46.1389 52.0701C45.6604 55.3825 45.5196 58.6427 45.7643 60.8242C45.9575 62.5467 46.5182 65.2551 47.3122 68.0313C47.9768 70.3552 48.8166 72.7682 49.7629 74.7136Z" fill="#546DDB"/>
<path fill-rule="evenodd" clip-rule="evenodd" d="M49.7629 74.7136C48.0514 74.8881 45.7671 74.9219 43.5764 73.904C41.7017 73.0328 39.5496 72.6724 37.3917 72.3109C35.2929 71.9594 33.1887 71.607 31.3285 70.7829C27.5146 69.0932 20.8836 62.0137 19.762 59.017C18.8646 56.6196 18.6334 54.327 18.6299 53.4804C18.6264 52.6338 19.3047 51.1673 20.5109 50.6494C21.1208 50.3876 21.6659 49.9635 22.1326 49.6003C22.5623 49.266 22.9257 48.9833 23.2122 48.9263C23.0901 48.3292 23.6502 45.9246 26.8674 41.0826C30.8888 35.0301 36.6386 28.7188 40.2198 26.7361C44.773 24.2152 52.6953 21.3757 60.5306 22.3601C68.3659 23.3446 73.9789 26.8864 77.8574 30.3546C83.9816 35.8309 87.2714 42.3789 88.1423 47.8826C89.0132 53.3864 89.395 58.9873 86.8127 65.8552C84.2303 72.7231 77.8548 77.6337 74.1421 79.3884C70.4294 81.143 65.2759 81.659 60.8973 80.1569C57.3944 78.9552 53.0704 75.8946 51.3462 74.5145C51.3084 74.5194 51.2698 74.5245 51.2305 74.5297C50.2545 72.6372 49.3618 70.1251 48.6533 67.6478C47.8726 64.9181 47.3323 62.2897 47.1504 60.6687C46.924 58.6502 47.0498 55.5197 47.5194 52.2695C47.989 49.0193 48.7913 45.7266 49.8787 43.3695C52.0563 38.649 56.5499 34.8148 60.0649 33.3845C63.7742 31.8751 68.8041 32.1083 71.8772 33.5376C75.5368 35.2396 78.3422 37.8281 80.6331 41.2443C82.9012 44.6263 83.6927 47.9594 83.8538 51.0232C84.0122 54.0351 83.2733 58.2651 81.0043 61.68C79.1884 64.4132 74.509 66.5537 69.8561 63.8487C65.0589 61.0599 62.6456 56.1274 62.4464 52.1834C62.245 48.1963 63.4664 45.0066 66.3845 42.8037C69.2882 40.6116 72.3538 40.4839 75.4407 42.0164C78.4927 43.5316 79.7583 46.1521 80.1218 48.6048C80.308 49.8611 80.2378 51.6861 79.7574 53.3001C79.2699 54.9378 78.4248 56.1627 77.2122 56.5593C75.8993 56.9887 74.4249 56.7354 73.1024 56.0484C71.7767 55.3597 70.6943 54.2803 70.17 53.2041C69.1048 51.0173 69.741 48.7089 70.539 47.5078C70.9629 46.8698 71.6268 46.3607 72.3726 46.0534C73.1214 45.7449 73.899 45.6615 74.5305 45.8069C75.8769 46.117 77.158 47.3238 77.5344 48.7553C77.9349 50.2785 77.5868 51.5432 76.8563 52.1745C76.1392 52.7941 74.9617 52.8692 74.0306 51.9235C73.5984 51.4844 73.5316 51.0791 73.5713 50.7188C73.6114 50.3553 73.7569 50.0332 73.9018 49.7124C73.9224 49.6668 73.943 49.6213 73.9633 49.5756C74.0844 49.3029 74.1756 49.2197 74.2155 49.1948L74.2162 49.1944C74.2311 49.185 74.2963 49.1441 74.5211 49.1962C74.8159 49.2645 74.8629 49.3476 74.8792 49.3763L74.8794 49.3767C74.9229 49.4535 74.9698 49.6275 74.9578 50.0542C74.9469 50.4392 75.2502 50.7602 75.6352 50.771C76.0202 50.7819 76.3411 50.4786 76.352 50.0936C76.3652 49.6286 76.3372 49.1199 76.0929 48.6889C75.8211 48.2095 75.3664 47.9604 74.8361 47.8374C74.3655 47.7283 73.8954 47.7512 73.4785 48.0106C73.0883 48.2534 72.8529 48.6392 72.6884 49.0097C72.6741 49.042 72.6573 49.0786 72.6386 49.1193C72.4975 49.4268 72.2514 49.9627 72.1849 50.5659C72.1036 51.3039 72.2835 52.137 73.0367 52.902C74.4764 54.3644 76.4872 54.3368 77.7682 53.2299C79.0357 52.1346 79.3675 50.2416 78.8833 48.4006C78.3751 46.4678 76.695 44.8741 74.8435 44.4477C73.876 44.2249 72.8011 44.3683 71.8412 44.7638C70.8783 45.1606 69.9773 45.8329 69.3773 46.7359C68.3791 48.2382 67.5817 51.0756 68.9161 53.8149C69.5917 55.2018 70.9121 56.4824 72.4594 57.2862C74.0098 58.0916 75.8785 58.463 77.6458 57.885C79.5136 57.2741 80.5603 55.4919 81.0942 53.6981C81.6353 51.8805 81.7163 49.8495 81.5015 48.4003C81.0891 45.6175 79.6207 42.5344 76.0609 40.7671C72.536 39.0172 68.9002 39.1569 65.5442 41.6904C62.1807 44.2295 60.834 47.9095 61.0534 52.2538C61.275 56.6411 63.9265 62.015 69.1551 65.0546C74.5277 68.178 79.9962 65.7177 82.1661 62.4519C84.6324 58.74 85.4175 54.1987 85.2467 50.95C85.075 47.6845 84.2252 44.0964 81.7915 40.4674C79.3808 36.8726 76.3896 34.098 72.4654 32.2729C69.0381 30.6789 63.6046 30.4383 59.5392 32.0926C55.7101 33.6507 50.9441 37.7302 48.6121 42.7852C47.4447 45.3158 46.6175 48.7576 46.1389 52.0701C45.6604 55.3825 45.5196 58.6427 45.7643 60.8242C45.9575 62.5467 46.5182 65.2551 47.3122 68.0313C47.9768 70.3552 48.8166 72.7682 49.7629 74.7136Z" fill="white" fill-opacity="0.2"/>
<path d="M75.5835 76.1396C78.2891 74.588 81.7666 71.8746 83.5014 68.0034C80.6048 71.1027 76.2097 73.498 73.646 74.0149C70.7455 74.5997 66.6832 74.4126 62.6171 71.7109C58.5509 69.0092 55.0166 62.111 54.2743 55.2826C53.6856 49.8676 53.4867 46.3862 61.4007 35.7355C55.6036 39.4196 53.2339 43.7063 52.325 45.6143C49.9256 50.6513 49.6389 59.7386 50.9995 63.9919C52.8025 69.6282 54.4965 73.8512 60.1104 76.7439C65.7242 79.6366 71.5252 78.467 75.5835 76.1396Z" fill="#546DDB"/>
<path d="M75.5835 76.1396C78.2891 74.588 81.7666 71.8746 83.5014 68.0034C80.6048 71.1027 76.2097 73.498 73.646 74.0149C70.7455 74.5997 66.6832 74.4126 62.6171 71.7109C58.5509 69.0092 55.0166 62.111 54.2743 55.2826C53.6856 49.8676 53.4867 46.3862 61.4007 35.7355C55.6036 39.4196 53.2339 43.7063 52.325 45.6143C49.9256 50.6513 49.6389 59.7386 50.9995 63.9919C52.8025 69.6282 54.4965 73.8512 60.1104 76.7439C65.7242 79.6366 71.5252 78.467 75.5835 76.1396Z" fill="white" fill-opacity="0.6"/>
<path d="M79.0735 61.9304C80.4041 60.7879 82.0474 58.361 82.4653 56.6405C81.1146 58.6574 79.3279 60.2975 77.9228 61.1351C76.7677 61.8237 73.9255 62.1894 71.6241 60.5989C68.4957 58.4367 66.2315 54.9059 66.1132 51.0645C66.0163 47.9199 65.8647 45.3998 68.3754 42.8814C66.4653 44.1243 65.8303 44.5632 64.7068 47.1425C63.4311 50.0715 63.9787 53.2114 64.8942 56.3007C65.8097 59.39 68.4929 62.1677 71.5029 63.3778C74.8036 64.7048 77.2262 63.5164 79.0735 61.9304Z" fill="#546DDB"/>
<path d="M79.0735 61.9304C80.4041 60.7879 82.0474 58.361 82.4653 56.6405C81.1146 58.6574 79.3279 60.2975 77.9228 61.1351C76.7677 61.8237 73.9255 62.1894 71.6241 60.5989C68.4957 58.4367 66.2315 54.9059 66.1132 51.0645C66.0163 47.9199 65.8647 45.3998 68.3754 42.8814C66.4653 44.1243 65.8303 44.5632 64.7068 47.1425C63.4311 50.0715 63.9787 53.2114 64.8942 56.3007C65.8097 59.39 68.4929 62.1677 71.5029 63.3778C74.8036 64.7048 77.2262 63.5164 79.0735 61.9304Z" fill="white" fill-opacity="0.6"/>
<path d="M59.0617 24.1335C64.3231 24.2801 67.3811 25.4746 72.4141 27.9813C65.0615 26.4453 60.6133 26.8391 55.7791 27.8137C50.1358 28.9515 44.8311 32.2619 40.8985 36.3475C35.9829 41.4546 34.5323 47.1893 33.3901 58.9901C32.8014 53.5751 31.6707 52.5517 32.4037 46.6123C33.1368 40.673 36.6971 32.9123 41.4677 29.1899C44.9452 26.4765 52.4849 23.9503 59.0617 24.1335Z" fill="#546DDB"/>
<path d="M59.0617 24.1335C64.3231 24.2801 67.3811 25.4746 72.4141 27.9813C65.0615 26.4453 60.6133 26.8391 55.7791 27.8137C50.1358 28.9515 44.8311 32.2619 40.8985 36.3475C35.9829 41.4546 34.5323 47.1893 33.3901 58.9901C32.8014 53.5751 31.6707 52.5517 32.4037 46.6123C33.1368 40.673 36.6971 32.9123 41.4677 29.1899C44.9452 26.4765 52.4849 23.9503 59.0617 24.1335Z" fill="white" fill-opacity="0.6"/>
<path d="M50.177 32.4646C54.7726 30.0332 57.5254 29.7262 63.1317 29.3497C56.0288 31.651 53.8543 33.0724 50.1992 36.2201C45.9323 39.8948 43.5366 45.6362 42.509 49.8382C41.2468 54.9999 41.8526 62.4863 46.9062 72.7609C46.0466 71.3813 41.4795 64.7144 39.7758 60.721C38.0721 56.7276 37.4238 49.8961 39.5575 44.667C41.1577 40.7451 44.4325 35.5039 50.177 32.4646Z" fill="#546DDB"/>
<path d="M50.177 32.4646C54.7726 30.0332 57.5254 29.7262 63.1317 29.3497C56.0288 31.651 53.8543 33.0724 50.1992 36.2201C45.9323 39.8948 43.5366 45.6362 42.509 49.8382C41.2468 54.9999 41.8526 62.4863 46.9062 72.7609C46.0466 71.3813 41.4795 64.7144 39.7758 60.721C38.0721 56.7276 37.4238 49.8961 39.5575 44.667C41.1577 40.7451 44.4325 35.5039 50.177 32.4646Z" fill="white" fill-opacity="0.6"/>
<path d="M33.7785 50.0791C33.7785 44.3058 33.137 31.4763 22.8734 30.1933C12.6098 28.9103 6.96647 38.5981 5.68352 45.0129C4.40056 51.4276 4.91204 60.9842 4.91204 66.7575C4.91204 72.5308 4.5735 84.7189 14.8371 89.8507C25.1008 94.9825 43.0622 95.624 54.6088 93.0581C66.1554 90.4922 102.72 91.1337 96.3048 87.2848C85.7383 83.4359 81.6655 81.2306 74.8331 79.5871C62.0036 84.0775 51.3687 75.5929 45.9667 70.6064C37.6274 62.9086 33.7785 55.3689 33.7785 50.0791Z" fill="#FAA21E"/>
<path d="M33.7785 50.0791C33.7785 44.3058 33.137 31.4763 22.8734 30.1933C12.6098 28.9103 6.96647 38.5981 5.68352 45.0129C4.40056 51.4276 4.91204 60.9842 4.91204 66.7575C4.91204 72.5308 4.5735 84.7189 14.8371 89.8507C25.1008 94.9825 43.0622 95.624 54.6088 93.0581C66.1554 90.4922 102.72 91.1337 96.3048 87.2848C85.7383 83.4359 81.6655 81.2306 74.8331 79.5871C62.0036 84.0775 51.3687 75.5929 45.9667 70.6064C37.6274 62.9086 33.7785 55.3689 33.7785 50.0791Z" fill="black" fill-opacity="0.1"/>
<path d="M12.8402 19.8828C12.6264 21.1658 12.1987 24.2449 12.1987 26.2976C12.1987 28.3504 13.054 31.8571 13.4817 33.3539M28.2357 33.3539C29.5186 32.4986 31.6358 29.3756 32.0846 27.5806C32.726 25.0147 33.1537 22.0211 33.3675 20.5243" stroke="#FAA21E" stroke-width="1.86149"/>
<path d="M12.8402 19.8828C12.6264 21.1658 12.1987 24.2449 12.1987 26.2976C12.1987 28.3504 13.054 31.8571 13.4817 33.3539M28.2357 33.3539C29.5186 32.4986 31.6358 29.3756 32.0846 27.5806C32.726 25.0147 33.1537 22.0211 33.3675 20.5243" stroke="black" stroke-opacity="0.1" stroke-width="1.86149"/>
<circle cx="13.2513" cy="14.7977" r="7.05626" fill="#FAA21E"/>
<circle cx="13.2513" cy="14.7977" r="7.05626" fill="white" fill-opacity="0.95"/>
<circle cx="33.7783" cy="17.3637" r="7.05626" fill="#FAA21E"/>
<circle cx="33.7783" cy="17.3637" r="7.05626" fill="white" fill-opacity="0.95"/>
<ellipse cx="32.1526" cy="19.5076" rx="3.48957" ry="2.32638" transform="rotate(42.2501 32.1526 19.5076)" fill="#FAA21E"/>
<ellipse cx="32.1526" cy="19.5076" rx="3.48957" ry="2.32638" transform="rotate(42.2501 32.1526 19.5076)" fill="black" fill-opacity="0.8"/>
<ellipse cx="11.6252" cy="16.9417" rx="3.48957" ry="2.32638" transform="rotate(42.2501 11.6252 16.9417)" fill="#FAA21E"/>
<ellipse cx="11.6252" cy="16.9417" rx="3.48957" ry="2.32638" transform="rotate(42.2501 11.6252 16.9417)" fill="black" fill-opacity="0.8"/>
<path d="M17.7831 38.045C19.2005 37.3253 20.0134 37.3732 21.5061 38.4977" stroke="#FAA21E" stroke-width="1.86149" stroke-linecap="round"/>
<path d="M17.7831 38.045C19.2005 37.3253 20.0134 37.3732 21.5061 38.4977" stroke="black" stroke-opacity="0.8" stroke-width="1.86149" stroke-linecap="round"/>
</svg>
