<svg width="100" height="100" viewBox="0 0 100 100" fill="none" xmlns="http://www.w3.org/2000/svg">
<g clip-path="url(#clip0_2272_10855)">
<path d="M18.8333 38.0061C17.7 48.8045 14.4722 91.6684 14 100.001H86.5C85.713 91.5018 81.7556 47.3991 81 37.0005C80.0556 24.0024 69.3611 6.51055 49.5278 7.01048C29.6944 7.51041 20.25 24.508 18.8333 38.0061Z" fill="#546DDB"/>
<path d="M18.8333 38.0061C17.7 48.8045 14.4722 91.6684 14 100.001H86.5C85.713 91.5018 81.7556 47.3991 81 37.0005C80.0556 24.0024 69.3611 6.51055 49.5278 7.01048C29.6944 7.51041 20.25 24.508 18.8333 38.0061Z" fill="white" fill-opacity="0.4"/>
<path d="M0.0557715 28.363C0.524875 26.9063 13.5425 30.1839 19.9927 32.0048L18.82 49C17.6472 48.5954 13.7524 47.5912 9.43784 44.1442C2.99889 39 -0.530608 30.1839 0.0557715 28.363Z" fill="#546DDB"/>
<path d="M0.0557715 28.363C0.524875 26.9063 13.5425 30.1839 19.9927 32.0048L18.82 49C17.6472 48.5954 13.7524 47.5912 9.43784 44.1442C2.99889 39 -0.530608 30.1839 0.0557715 28.363Z" fill="white" fill-opacity="0.4"/>
<path d="M99.9369 28.363C99.4678 26.9063 86.4502 30.1839 80 32.0048L81.1726 49C82.3454 48.5954 86.2403 47.5912 90.5548 44.1442C96.9938 39 100.523 30.1839 99.9369 28.363Z" fill="#546DDB"/>
<path d="M99.9369 28.363C99.4678 26.9063 86.4502 30.1839 80 32.0048L81.1726 49C82.3454 48.5954 86.2403 47.5912 90.5548 44.1442C96.9938 39 100.523 30.1839 99.9369 28.363Z" fill="white" fill-opacity="0.4"/>
<circle cx="31.5" cy="43.5" r="4.5" fill="#CE4317"/>
<circle cx="31.5" cy="43.5" r="4.5" fill="white" fill-opacity="0.15"/>
<circle cx="68.5" cy="43.5" r="4.5" fill="#CE4317"/>
<circle cx="68.5" cy="43.5" r="4.5" fill="white" fill-opacity="0.15"/>
<path d="M33 59.5C36.3333 59 44.5 58 50.5 58C56.5 58 64 59 67 59.5" stroke="#546DDB" stroke-linecap="round"/>
<path d="M33 59.5C36.3333 59 44.5 58 50.5 58C56.5 58 64 59 67 59.5" stroke="black" stroke-opacity="0.2" stroke-linecap="round"/>
<path d="M66.0507 54.1813C66.7279 54.2266 66.9729 57.8253 66.8933 59.014L63.0503 58.3588C63.2095 55.9812 65.5899 54.1504 66.0507 54.1813Z" fill="#FAA21E"/>
<path d="M66.0507 54.1813C66.7279 54.2266 66.9729 57.8253 66.8933 59.014L63.0503 58.3588C63.2095 55.9812 65.5899 54.1504 66.0507 54.1813Z" fill="white" fill-opacity="0.6"/>
<path d="M41 55C41 51.3359 43.2781 45.6963 44.9583 44H55.6458C55.6458 44 59.5 47.1691 59.5 55.5C59.5 63.8309 56.5417 62.5 50.5 62.5C44.4583 62.5 41 62.4737 41 55Z" fill="#546DDB"/>
<path d="M41 55C41 51.3359 43.2781 45.6963 44.9583 44H55.6458C55.6458 44 59.5 47.1691 59.5 55.5C59.5 63.8309 56.5417 62.5 50.5 62.5C44.4583 62.5 41 62.4737 41 55Z" fill="white" fill-opacity="0.4"/>
<path d="M44.5726 44C42.8493 45.7642 41 53.1893 41 57C41 61.7633 45 62.5 50.5 62.5C56 62.5 60 62.153 60 57C60 51.847 56 44 56 44" stroke="#546DDB" stroke-linecap="round" stroke-linejoin="round"/>
<path d="M44.5726 44C42.8493 45.7642 41 53.1893 41 57C41 61.7633 45 62.5 50.5 62.5C56 62.5 60 62.153 60 57C60 51.847 56 44 56 44" stroke="black" stroke-opacity="0.2" stroke-linecap="round" stroke-linejoin="round"/>
<path d="M31.839 36.5532C27.4911 37.6627 26.2122 39.9506 25.7007 42.2961C26.7237 41.5169 27.7468 40.4727 30.3045 40.4727C33.1179 40.4727 33.3736 40.9948 34.9082 41.5169C36.4428 42.0389 37.9774 41.2518 37.9774 39.1636C37.9774 36.8142 34.9082 35.77 31.839 36.5532Z" fill="#546DDB"/>
<path d="M31.839 36.5532C27.4911 37.6627 26.2122 39.9506 25.7007 42.2961C26.7237 41.5169 27.7468 40.4727 30.3045 40.4727C33.1179 40.4727 33.3736 40.9948 34.9082 41.5169C36.4428 42.0389 37.9774 41.2518 37.9774 39.1636C37.9774 36.8142 34.9082 35.77 31.839 36.5532Z" fill="black" fill-opacity="0.2"/>
<path d="M67.6963 36.8552C71.9463 37.9647 73.1963 40.2526 73.6963 42.5981C72.6963 41.8188 71.6963 40.7747 69.1963 40.7747C66.4463 40.7747 66.1963 41.2967 64.6963 41.8188C63.1963 42.3409 61.6963 41.5538 61.6963 39.4655C61.6963 37.1162 64.6963 36.072 67.6963 36.8552Z" fill="#546DDB"/>
<path d="M67.6963 36.8552C71.9463 37.9647 73.1963 40.2526 73.6963 42.5981C72.6963 41.8188 71.6963 40.7747 69.1963 40.7747C66.4463 40.7747 66.1963 41.2967 64.6963 41.8188C63.1963 42.3409 61.6963 41.5538 61.6963 39.4655C61.6963 37.1162 64.6963 36.072 67.6963 36.8552Z" fill="black" fill-opacity="0.2"/>
<path d="M44.0001 58.5C42.2653 56.187 44 51 45 48.5C45 51.5 44.3846 56.2254 46.0001 58C47.6156 59.7746 49.7963 59.5218 54.0001 60C48.7963 61.5218 45.5001 60.5 44.0001 58.5Z" fill="#FEFEFE" fill-opacity="0.15"/>
<path d="M12.5 40.5C15.6514 41.7605 16.5 44 17.5 47C12 45 9.31379 42.603 7 40C4.68621 37.397 2 32 1.5 29.5C2.5 31 5 37.5 12.5 40.5Z" fill="#546DDB"/>
<path d="M12.5 40.5C15.6514 41.7605 16.5 44 17.5 47C12 45 9.31379 42.603 7 40C4.68621 37.397 2 32 1.5 29.5C2.5 31 5 37.5 12.5 40.5Z" fill="black" fill-opacity="0.2"/>
<path d="M87 41C83.8486 42.2605 83 44.5 82 47.5C87.5 45.5 90.1862 43.103 92.5 40.5C94.8138 37.897 98 32.5 98.5 30C97.5 31.5 94.5 38 87 41Z" fill="#546DDB"/>
<path d="M87 41C83.8486 42.2605 83 44.5 82 47.5C87.5 45.5 90.1862 43.103 92.5 40.5C94.8138 37.897 98 32.5 98.5 30C97.5 31.5 94.5 38 87 41Z" fill="black" fill-opacity="0.2"/>
<path d="M62.236 88.221C58.1953 87.1403 53.298 85.3706 51.451 83.8824C51.1829 83.935 50.7912 84.1969 51.3692 84.8237C52.0916 85.6073 57.2314 88.2698 62.3075 89.2941C66.8933 90.2194 72.3433 90.4175 75.8147 88.3143L74.74 87.2741C71.6098 89.5239 65.8186 89.1792 62.236 88.221Z" fill="#546DDB"/>
<path d="M62.236 88.221C58.1953 87.1403 53.298 85.3706 51.451 83.8824C51.1829 83.935 50.7912 84.1969 51.3692 84.8237C52.0916 85.6073 57.2314 88.2698 62.3075 89.2941C66.8933 90.2194 72.3433 90.4175 75.8147 88.3143L74.74 87.2741C71.6098 89.5239 65.8186 89.1792 62.236 88.221Z" fill="white" fill-opacity="0.2"/>
<path d="M41.3645 72.959C39.2453 70.0802 37.4383 67.8818 37.5741 67.5482C38.1402 68.4034 37.3377 67.0591 40.781 71.2623C43.0743 74.0616 51.5309 79.68 55.7762 81.0421C59.8383 82.3454 72.6244 82.5001 74.8376 81.8359L74.9108 83.3341C72.8957 83.7924 59.9614 83.3101 55.3256 82.0653C50.6897 80.8204 44.0135 76.5575 41.3645 72.959Z" fill="#546DDB"/>
<path d="M41.3645 72.959C39.2453 70.0802 37.4383 67.8818 37.5741 67.5482C38.1402 68.4034 37.3377 67.0591 40.781 71.2623C43.0743 74.0616 51.5309 79.68 55.7762 81.0421C59.8383 82.3454 72.6244 82.5001 74.8376 81.8359L74.9108 83.3341C72.8957 83.7924 59.9614 83.3101 55.3256 82.0653C50.6897 80.8204 44.0135 76.5575 41.3645 72.959Z" fill="white" fill-opacity="0.2"/>
<path d="M27.5229 86.7297C31.2817 82.738 33.7314 71.8142 36.0247 64.4071C37.3737 63.9472 38.6368 64.1189 39.7283 65.5537C37.6066 71.6977 34.1018 81.776 35.157 82.6215C36.6071 83.7834 46.1623 80.8009 51.4613 80.9782C52.6235 81.0171 55.6248 83.4738 53.1997 84.7523C45.535 84.3537 35.2805 86.0374 30.6103 90.044C25.9401 94.0505 16.2772 103.212 16.2772 103.212C15.5547 103.006 14.3401 102.154 13.6498 101.247C12.8312 100.171 12.0985 98.4628 12.4572 98.1899C12.4572 98.1899 23.7641 90.7215 27.5229 86.7297Z" fill="#546DDB"/>
<path d="M34.418 66.7617C34.5897 65.4986 39.4705 67.4485 39.3847 68.0801C39.213 69.3432 34.2543 67.9656 34.418 66.7617Z" fill="#546DDB"/>
<path d="M34.418 66.7617C34.5897 65.4986 39.4705 67.4485 39.3847 68.0801C39.213 69.3432 34.2543 67.9656 34.418 66.7617Z" fill="white" fill-opacity="0.6"/>
<path d="M50.5128 80.2365C51.7008 79.7742 52.3619 84.9884 51.7679 85.2196C50.5799 85.6818 49.3805 80.6771 50.5128 80.2365Z" fill="#546DDB"/>
<path d="M50.5128 80.2365C51.7008 79.7742 52.3619 84.9884 51.7679 85.2196C50.5799 85.6818 49.3805 80.6771 50.5128 80.2365Z" fill="white" fill-opacity="0.6"/>
<path d="M9.23168 70.5195C11.7873 66.9417 14.0627 64.8188 15.8763 63.8749C17.6898 62.9311 17.9207 71.0306 16.3873 74.6085C14.8283 77.1485 12.2984 79.7197 12.8095 82.7864C13.3206 85.8531 20.0186 90.7227 20.0186 90.7227L15.7393 94.6786C13.8886 93.3369 8.45186 89.5329 6.16503 83.8086C4.26882 79.0622 6.67609 74.0974 9.23168 70.5195Z" fill="#546DDB"/>
<path d="M9.23168 70.5195C11.7873 66.9417 14.0627 64.8188 15.8763 63.8749C17.6898 62.9311 17.9207 71.0306 16.3873 74.6085C14.8283 77.1485 12.2984 79.7197 12.8095 82.7864C13.3206 85.8531 20.0186 90.7227 20.0186 90.7227L15.7393 94.6786C13.8886 93.3369 8.45186 89.5329 6.16503 83.8086C4.26882 79.0622 6.67609 74.0974 9.23168 70.5195Z" fill="black" fill-opacity="0.2"/>
<path d="M24.8441 92.2446C23.7411 91.8968 20.8528 90.4806 20.0185 90.7227L14.8138 94.0078C15.0559 94.8421 16.5091 97.0436 17.6269 98.3057C18.7447 99.5678 19.6225 99.1877 21.0737 99.3928L25.3716 96.5797C24.9783 95.824 25.947 92.5925 24.8441 92.2446Z" fill="#546DDB"/>
<path d="M24.8441 92.2446C23.7411 91.8968 20.8528 90.4806 20.0185 90.7227L14.8138 94.0078C15.0559 94.8421 16.5091 97.0436 17.6269 98.3057C18.7447 99.5678 19.6225 99.1877 21.0737 99.3928L25.3716 96.5797C24.9783 95.824 25.947 92.5925 24.8441 92.2446Z" fill="black" fill-opacity="0.2"/>
<path fill-rule="evenodd" clip-rule="evenodd" d="M74.5539 86.3716C74.431 86.0974 73.8876 85.2477 72.9346 84.8847C72.6858 84.7899 72.4722 84.7173 72.2865 84.6541C71.5831 84.4148 71.2809 84.3121 70.9892 83.6613C70.416 82.3826 72.5942 80.1686 74.2135 80.1034C76.967 79.9925 77.2636 81.0263 77.5549 82.0413L77.5603 82.0604L77.4327 85.0811L74.5539 86.3716ZM73.9014 82.7128C73.6978 82.2585 73.1644 82.0553 72.7102 82.259C72.2559 82.4626 72.0527 82.996 72.2564 83.4502C72.46 83.9045 72.9934 84.1077 73.4476 83.904C73.9019 83.7004 74.1051 83.167 73.9014 82.7128Z" fill="#546DDB"/>
<path fill-rule="evenodd" clip-rule="evenodd" d="M74.5539 86.3716C74.431 86.0974 73.8876 85.2477 72.9346 84.8847C72.6858 84.7899 72.4722 84.7173 72.2865 84.6541C71.5831 84.4148 71.2809 84.3121 70.9892 83.6613C70.416 82.3826 72.5942 80.1686 74.2135 80.1034C76.967 79.9925 77.2636 81.0263 77.5549 82.0413L77.5603 82.0604L77.4327 85.0811L74.5539 86.3716ZM73.9014 82.7128C73.6978 82.2585 73.1644 82.0553 72.7102 82.259C72.2559 82.4626 72.0527 82.996 72.2564 83.4502C72.46 83.9045 72.9934 84.1077 73.4476 83.904C73.9019 83.7004 74.1051 83.167 73.9014 82.7128Z" fill="black" fill-opacity="0.2"/>
<path d="M76.1357 81.5784L77.6833 83.2392L78.1113 85.0864L76.1271 87.8148L74.0607 87.6792L73.0318 84.4932L73.5505 82.968L76.1357 81.5784Z" fill="#898989"/>
<path d="M76.1357 81.5784L77.6833 83.2392L78.1113 85.0864L76.1271 87.8148L74.0607 87.6792L73.0318 84.4932L73.5505 82.968L76.1357 81.5784Z" fill="white" fill-opacity="0.4"/>
<path fill-rule="evenodd" clip-rule="evenodd" d="M75.4333 89.4348C77.674 88.9242 79.5459 87.5911 79.4466 85.1661C79.3473 82.7411 77.3871 80.7933 76.5448 80.4724C76.5448 80.4724 77.7448 82.4717 77.0641 84.2586C76.3835 86.0454 73.9584 86.1447 72.9515 86.1022C71.9447 86.0597 69.9309 85.9746 69.6615 87.5771C69.5284 88.3683 70.2872 89.0004 71.4087 89.3541C71.379 89.304 71.3521 89.2513 71.3276 89.1967C71.124 88.7425 71.4619 88.2061 71.8527 88.0309C72.2935 87.8333 72.8688 87.9603 73.0725 88.4146C73.2621 88.8376 73.1855 89.3424 72.7035 89.6187C73.5871 89.7151 74.551 89.666 75.4333 89.4348Z" fill="#546DDB"/>
<path d="M94.5261 70.8649C92.0484 65.5955 86.8455 63.8583 83.0348 64.1729C81.3753 66.9353 81.8331 70.3866 83.289 73.8753C87.5658 71.7316 87.1413 74.2297 87.5299 75.4248C88.0157 76.9187 86.0503 79.8956 84.8374 80.8013C83.6246 81.7069 83.0312 80.9123 80.0122 81.9289C76.9931 82.9455 77.7756 84.8367 77.1562 86.537C76.5367 88.2373 80.4198 90.9076 81.0132 91.7023C81.6066 92.497 84.2213 91.7822 86.2427 90.2728C88.2641 88.7634 98.7853 79.9229 94.5261 70.8649Z" fill="#546DDB"/>
<path d="M94.5261 70.8649C92.0484 65.5955 86.8455 63.8583 83.0348 64.1729C81.3753 66.9353 81.8331 70.3866 83.289 73.8753C87.5658 71.7316 87.1413 74.2297 87.5299 75.4248C88.0157 76.9187 86.0503 79.8956 84.8374 80.8013C83.6246 81.7069 83.0312 80.9123 80.0122 81.9289C76.9931 82.9455 77.7756 84.8367 77.1562 86.537C76.5367 88.2373 80.4198 90.9076 81.0132 91.7023C81.6066 92.497 84.2213 91.7822 86.2427 90.2728C88.2641 88.7634 98.7853 79.9229 94.5261 70.8649Z" fill="black" fill-opacity="0.2"/>
<path d="M58 10.5572C57.4589 10.1604 55.9497 8.25507 53 8.87754C50.0503 9.50001 51.7935 12.0216 52 13C52.2065 13.9785 54.139 15.3605 55.6979 16.2452C57.2568 17.1299 58.8277 15.9041 59.3938 14.2516C59.9599 12.5991 58.5411 10.954 58 10.5572Z" fill="#546DDB"/>
<path d="M58 10.5572C57.4589 10.1604 55.9497 8.25507 53 8.87754C50.0503 9.50001 51.7935 12.0216 52 13C52.2065 13.9785 54.139 15.3605 55.6979 16.2452C57.2568 17.1299 58.8277 15.9041 59.3938 14.2516C59.9599 12.5991 58.5411 10.954 58 10.5572Z" fill="white" fill-opacity="0.2"/>
<path d="M50 17.5C50 16.041 48.5 17.5 47.5 16.0726C45.5419 15.4638 45.381 17.2087 45.6262 18.3706C45.8714 19.5326 45.9798 19.2988 47.5 20C49.0202 20.7012 50 19 50 17.5Z" fill="#546DDB"/>
<path d="M50 17.5C50 16.041 48.5 17.5 47.5 16.0726C45.5419 15.4638 45.381 17.2087 45.6262 18.3706C45.8714 19.5326 45.9798 19.2988 47.5 20C49.0202 20.7012 50 19 50 17.5Z" fill="white" fill-opacity="0.2"/>
<path d="M45.1504 10.5572C44.8407 9.08953 44.2995 8.69272 43.4237 8.87754C42.548 9.06236 42.8577 10.53 42.0851 11.2041C41.3126 11.8781 40.4368 12.0629 40.1021 12.6446C39.7674 13.2262 41.0562 14.9983 43.6836 14.4438C44.5594 14.259 45.4601 12.0249 45.1504 10.5572Z" fill="#546DDB"/>
<path d="M45.1504 10.5572C44.8407 9.08953 44.2995 8.69272 43.4237 8.87754C42.548 9.06236 42.8577 10.53 42.0851 11.2041C41.3126 11.8781 40.4368 12.0629 40.1021 12.6446C39.7674 13.2262 41.0562 14.9983 43.6836 14.4438C44.5594 14.259 45.4601 12.0249 45.1504 10.5572Z" fill="white" fill-opacity="0.2"/>
<path d="M62.5001 12C61.7001 12 61.8335 10.3333 62.0001 9.50001C64.0001 10 67.0002 12 68 13C68.9999 14 69 15.1453 68.5001 16.0726C68.0002 17 66.0002 17.5 63.5002 16.2452C61.6577 15.3204 65.0001 13.5 64.5001 12.5C64.0001 11.5 63.5001 12 62.5001 12Z" fill="#546DDB"/>
<path d="M62.5001 12C61.7001 12 61.8335 10.3333 62.0001 9.50001C64.0001 10 67.0002 12 68 13C68.9999 14 69 15.1453 68.5001 16.0726C68.0002 17 66.0002 17.5 63.5002 16.2452C61.6577 15.3204 65.0001 13.5 64.5001 12.5C64.0001 11.5 63.5001 12 62.5001 12Z" fill="white" fill-opacity="0.2"/>
<path d="M34.0002 15.5C32.5002 14.5562 32.5002 13.4269 33.0002 12.5572C33.3335 12.2039 34.4471 11.4972 36.2349 11.4972C38.4697 11.4972 38.3079 14.6446 37.5002 15.5C36.6924 16.3554 35.5002 16.4438 34.0002 15.5Z" fill="#546DDB"/>
<path d="M34.0002 15.5C32.5002 14.5562 32.5002 13.4269 33.0002 12.5572C33.3335 12.2039 34.4471 11.4972 36.2349 11.4972C38.4697 11.4972 38.3079 14.6446 37.5002 15.5C36.6924 16.3554 35.5002 16.4438 34.0002 15.5Z" fill="white" fill-opacity="0.2"/>
<path d="M50.2581 2.32243e-08C44.7581 7.75655e-09 42 3.5 42 6.5C42 10.02 48.5 8.5 50.2581 13.5C52.5 8.5 58.073 9.97191 59 7.5C60.5 3.5 55.7581 3.8692e-08 50.2581 2.32243e-08Z" fill="#546DDB"/>
<path d="M50.2581 2.32243e-08C44.7581 7.75655e-09 42 3.5 42 6.5C42 10.02 48.5 8.5 50.2581 13.5C52.5 8.5 58.073 9.97191 59 7.5C60.5 3.5 55.7581 3.8692e-08 50.2581 2.32243e-08Z" fill="black" fill-opacity="0.2"/>
</g>
<defs>
<clipPath id="clip0_2272_10855">
<rect width="100" height="100" fill="white"/>
</clipPath>
</defs>
</svg>
