<svg width="111" height="111" viewBox="0 0 111 111" fill="none" xmlns="http://www.w3.org/2000/svg">
<path d="M56.2632 89.3445C57.7767 94.989 57.949 96.6007 54.6609 103.718L56.7594 105.407C63.1485 104.041 67.5398 99.4113 72.687 100.53C78.5732 101.81 86.0582 98.071 90.5326 91.5015C86.79 93.3711 85.9229 93.6902 83.8695 93.4613C89.0272 90.0863 93.0437 87.6236 96.8347 77.8596C93.4113 80.5963 91.677 81.2345 89.3045 80.1385C95.3294 76.4444 97.5214 71.6994 98.163 64.079C94.7847 68.276 90.997 68.6853 90.997 68.6853C96.1096 63.8501 97.7085 58.8311 100.175 53.4929C97.0253 55.6366 94.8554 56.8238 92.6446 55.7719C97.5897 54.4674 98.9373 49.4062 103.418 44.9152C100.38 45.4478 99.6299 45.3245 96.7094 45.4147C102.186 42.9069 105.61 40.1702 109.536 34.7869C106.068 36.0634 104.014 35.8345 101.961 35.6056L101.961 35.6056C104.255 30.8876 107.028 29.3101 110.771 27.4405C104.292 25.8867 100.504 26.296 96.4873 28.7588C96.1231 26.4314 96.078 24.9711 98.9534 23.4206C93.1123 23.6011 89.0958 26.0638 85.9914 29.6676C86.0834 27.9108 86.1301 24.6938 87.5453 23.1884C83.6657 25.3545 77.5039 29.3452 74.7186 33.8161C74.3544 31.489 74.9024 30.3029 75.9981 27.931L75.9985 27.93C70.2132 32.6611 69.1439 35.1858 65.6347 42.5744C64.7067 39.3835 63.7649 38.8318 64.5417 35.5921C59.7936 42.7548 59.929 47.1357 60.4737 55.3041C58.6942 54.482 57.4628 52.4738 57.0986 50.1464C55.5448 56.6256 56.3636 64.201 59.4644 69.9518C57.0919 68.8557 56.7728 67.9886 54.9483 65.7063C53.9876 72.4596 60.0993 81.0407 59.9155 84.5544C56.9048 81.7241 55.9925 80.5829 54.1229 76.8404C55.2156 83.8226 54.9416 84.4157 56.2632 89.3445Z" fill="#898989"/>
<path d="M56.2632 89.3445C57.7767 94.989 57.949 96.6007 54.6609 103.718L56.7594 105.407C63.1485 104.041 67.5398 99.4113 72.687 100.53C78.5732 101.81 86.0582 98.071 90.5326 91.5015C86.79 93.3711 85.9229 93.6902 83.8695 93.4613C89.0272 90.0863 93.0437 87.6236 96.8347 77.8596C93.4113 80.5963 91.677 81.2345 89.3045 80.1385C95.3294 76.4444 97.5214 71.6994 98.163 64.079C94.7847 68.276 90.997 68.6853 90.997 68.6853C96.1096 63.8501 97.7085 58.8311 100.175 53.4929C97.0253 55.6366 94.8554 56.8238 92.6446 55.7719C97.5897 54.4674 98.9373 49.4062 103.418 44.9152C100.38 45.4478 99.6299 45.3245 96.7094 45.4147C102.186 42.9069 105.61 40.1702 109.536 34.7869C106.068 36.0634 104.014 35.8345 101.961 35.6056L101.961 35.6056C104.255 30.8876 107.028 29.3101 110.771 27.4405C104.292 25.8867 100.504 26.296 96.4873 28.7588C96.1231 26.4314 96.078 24.9711 98.9534 23.4206C93.1123 23.6011 89.0958 26.0638 85.9914 29.6676C86.0834 27.9108 86.1301 24.6938 87.5453 23.1884C83.6657 25.3545 77.5039 29.3452 74.7186 33.8161C74.3544 31.489 74.9024 30.3029 75.9981 27.931L75.9985 27.93C70.2132 32.6611 69.1439 35.1858 65.6347 42.5744C64.7067 39.3835 63.7649 38.8318 64.5417 35.5921C59.7936 42.7548 59.929 47.1357 60.4737 55.3041C58.6942 54.482 57.4628 52.4738 57.0986 50.1464C55.5448 56.6256 56.3636 64.201 59.4644 69.9518C57.0919 68.8557 56.7728 67.9886 54.9483 65.7063C53.9876 72.4596 60.0993 81.0407 59.9155 84.5544C56.9048 81.7241 55.9925 80.5829 54.1229 76.8404C55.2156 83.8226 54.9416 84.4157 56.2632 89.3445Z" fill="white" fill-opacity="0.95"/>
<path d="M59.8227 94.1026C59.8207 98.5256 56.0309 100.753 53.7938 104.037L57.0785 106.274C59.0322 104.979 65.8049 98.3165 69.3128 98.4867C73.3242 98.6814 80.9694 96.9739 83.9467 90.923C81.4218 93.0046 80.8357 93.3932 79.4383 93.5041C82.9104 89.9792 85.6158 87.3702 88.0983 78.7934C85.7985 81.5411 84.6262 82.3183 83.0038 81.763C87.062 77.8495 88.506 73.6305 88.8692 67.274C86.614 71.2154 84.0444 72.1034 84.0444 72.1034C87.4719 67.385 88.5103 63.0271 90.1348 58.2807C88.0156 60.5012 86.5527 61.7929 85.0405 61.2504C88.3879 59.458 89.2551 55.1022 92.2564 50.7586C90.1974 51.6388 89.6868 51.6466 87.7034 52.1461C91.4005 49.2874 93.7004 46.5396 96.3166 41.5435C93.9722 43.0977 92.5749 43.2086 91.1777 43.3195L91.1776 43.3195C92.6913 39.1078 94.5605 37.4075 97.0854 35.3259C92.6684 34.9924 90.0988 35.8804 87.3934 38.4894C87.1238 36.6296 87.0791 35.436 89.018 33.743C85.0511 34.7419 82.3457 37.3509 80.2709 40.7648C80.3166 39.3076 80.3177 36.6567 81.2648 35.2134C78.6496 37.5587 74.5012 41.7358 72.6515 45.816C72.3818 43.9565 72.7428 42.9018 73.4646 40.7928L73.4649 40.792C69.5794 45.5228 68.877 47.7535 66.5633 54.337C65.9023 51.8496 65.2572 51.5334 65.754 48.7576C62.5964 55.3359 62.7303 58.9167 63.1784 65.5508C61.9615 65.1343 61.1057 63.6631 60.836 61.8033C59.8421 67.3547 60.4708 73.4614 62.6325 77.7363C61.0101 77.181 60.785 76.5148 59.5236 74.9047C58.9353 80.595 63.1697 86.7575 63.0784 89.6721C61.0058 87.7844 60.3751 86.9793 59.0691 84.1757C59.8782 89.755 59.8246 90.1302 59.8227 94.1026Z" fill="#898989"/>
<path d="M59.8227 94.1026C59.8207 98.5256 56.0309 100.753 53.7938 104.037L57.0785 106.274C59.0322 104.979 65.8049 98.3165 69.3128 98.4867C73.3242 98.6814 80.9694 96.9739 83.9467 90.923C81.4218 93.0046 80.8357 93.3932 79.4383 93.5041C82.9104 89.9792 85.6158 87.3702 88.0983 78.7934C85.7985 81.5411 84.6262 82.3183 83.0038 81.763C87.062 77.8495 88.506 73.6305 88.8692 67.274C86.614 71.2154 84.0444 72.1034 84.0444 72.1034C87.4719 67.385 88.5103 63.0271 90.1348 58.2807C88.0156 60.5012 86.5527 61.7929 85.0405 61.2504C88.3879 59.458 89.2551 55.1022 92.2564 50.7586C90.1974 51.6388 89.6868 51.6466 87.7034 52.1461C91.4005 49.2874 93.7004 46.5396 96.3166 41.5435C93.9722 43.0977 92.5749 43.2086 91.1777 43.3195L91.1776 43.3195C92.6913 39.1078 94.5605 37.4075 97.0854 35.3259C92.6684 34.9924 90.0988 35.8804 87.3934 38.4894C87.1238 36.6296 87.0791 35.436 89.018 33.743C85.0511 34.7419 82.3457 37.3509 80.2709 40.7648C80.3166 39.3076 80.3177 36.6567 81.2648 35.2134C78.6496 37.5587 74.5012 41.7358 72.6515 45.816C72.3818 43.9565 72.7428 42.9018 73.4646 40.7928L73.4649 40.792C69.5794 45.5228 68.877 47.7535 66.5633 54.337C65.9023 51.8496 65.2572 51.5334 65.754 48.7576C62.5964 55.3359 62.7303 58.9167 63.1784 65.5508C61.9615 65.1343 61.1057 63.6631 60.836 61.8033C59.8421 67.3547 60.4708 73.4614 62.6325 77.7363C61.0101 77.181 60.785 76.5148 59.5236 74.9047C58.9353 80.595 63.1697 86.7575 63.0784 89.6721C61.0058 87.7844 60.3751 86.9793 59.0691 84.1757C59.8782 89.755 59.8246 90.1302 59.8227 94.1026Z" fill="black" fill-opacity="0.4"/>
<path d="M63.426 94.0929C63.3202 96.9889 59.1721 100.023 58.1296 102.442L59.2708 101.53C60.1439 100.447 66.7611 96.2139 68.2695 95.9046C69.9945 95.551 73.3314 93.5163 74.7587 89.1977C73.6206 90.8633 73.3587 91.188 72.7536 91.4282C74.3343 88.704 75.5627 86.6715 76.8365 80.7585C75.7797 82.8333 75.2558 83.4826 74.5695 83.3136C76.4121 80.2648 77.1348 77.3295 77.4421 73.1243C76.3763 75.9752 75.2473 76.8647 75.2473 76.8647C76.837 73.3645 77.3882 70.3869 78.2012 67.0846C77.2348 68.7925 76.5734 69.8136 75.9342 69.6398C77.42 68.0649 77.8973 65.1091 79.2944 61.9055C78.3857 62.7286 78.1654 62.795 77.2984 63.3598C78.9603 61.0449 80.0171 58.9701 81.2637 55.3854C80.216 56.684 79.6109 56.9242 79.0058 57.1644L79.0057 57.1644C79.7583 54.2255 80.6046 52.8881 81.7426 51.2225C79.846 51.5339 78.7171 52.4234 77.4887 54.4559C77.4165 53.2707 77.4256 52.4946 78.3017 51.1536C76.5677 52.2834 75.3393 54.3159 74.3637 56.7998C74.418 55.8403 74.4813 54.1047 74.9239 53.0461C73.7407 54.8952 71.8529 58.1275 70.9586 61.0206C70.8864 59.8355 71.0671 59.1017 71.4284 57.6344L71.4285 57.6338C69.6409 61.1971 69.2852 62.7418 68.1314 67.3295C67.9054 65.7802 67.6348 65.6506 67.9148 63.7737C66.3973 68.4592 66.3701 70.7875 66.4059 75.0771C65.8911 74.9503 65.557 74.0898 65.4848 72.9045C64.9246 76.6582 65.0508 80.5809 65.8815 83.1204C65.1951 82.9514 65.1138 82.5423 64.6082 81.6394C64.2195 85.4354 65.8991 88.9622 65.7906 90.8813C64.9417 89.894 64.6889 89.4426 64.1923 87.7636C64.4088 91.3194 63.5211 91.4919 63.426 94.0929Z" fill="#898989"/>
<path d="M63.426 94.0929C63.3202 96.9889 59.1721 100.023 58.1296 102.442L59.2708 101.53C60.1439 100.447 66.7611 96.2139 68.2695 95.9046C69.9945 95.551 73.3314 93.5163 74.7587 89.1977C73.6206 90.8633 73.3587 91.188 72.7536 91.4282C74.3343 88.704 75.5627 86.6715 76.8365 80.7585C75.7797 82.8333 75.2558 83.4826 74.5695 83.3136C76.4121 80.2648 77.1348 77.3295 77.4421 73.1243C76.3763 75.9752 75.2473 76.8647 75.2473 76.8647C76.837 73.3645 77.3882 70.3869 78.2012 67.0846C77.2348 68.7925 76.5734 69.8136 75.9342 69.6398C77.42 68.0649 77.8973 65.1091 79.2944 61.9055C78.3857 62.7286 78.1654 62.795 77.2984 63.3598C78.9603 61.0449 80.0171 58.9701 81.2637 55.3854C80.216 56.684 79.6109 56.9242 79.0058 57.1644L79.0057 57.1644C79.7583 54.2255 80.6046 52.8881 81.7426 51.2225C79.846 51.5339 78.7171 52.4234 77.4887 54.4559C77.4165 53.2707 77.4256 52.4946 78.3017 51.1536C76.5677 52.2834 75.3393 54.3159 74.3637 56.7998C74.418 55.8403 74.4813 54.1047 74.9239 53.0461C73.7407 54.8952 71.8529 58.1275 70.9586 61.0206C70.8864 59.8355 71.0671 59.1017 71.4284 57.6344L71.4285 57.6338C69.6409 61.1971 69.2852 62.7418 68.1314 67.3295C67.9054 65.7802 67.6348 65.6506 67.9148 63.7737C66.3973 68.4592 66.3701 70.7875 66.4059 75.0771C65.8911 74.9503 65.557 74.0898 65.4848 72.9045C64.9246 76.6582 65.0508 80.5809 65.8815 83.1204C65.1951 82.9514 65.1138 82.5423 64.6082 81.6394C64.2195 85.4354 65.8991 88.9622 65.7906 90.8813C64.9417 89.894 64.6889 89.4426 64.1923 87.7636C64.4088 91.3194 63.5211 91.4919 63.426 94.0929Z" fill="white" fill-opacity="0.95"/>
<path d="M19.9141 94.2474C23.6711 89.9538 20.4508 76.5364 24.7444 70.6327C26.7221 67.9135 31.0775 67.0905 32.7949 67.9492C34.9417 69.0226 37.6252 71.7061 36.0151 75.9997C34.405 80.2933 32.2582 88.8804 31.7215 92.1006C31.1848 95.3208 30.0815 104.445 25.2812 104.445C19.9141 104.445 17.7674 105.518 15.6206 102.298C13.4738 99.0777 17.6789 96.8019 19.9141 94.2474Z" fill="#898989"/>
<path d="M19.9141 94.2474C23.6711 89.9538 20.4508 76.5364 24.7444 70.6327C26.7221 67.9135 31.0775 67.0905 32.7949 67.9492C34.9417 69.0226 37.6252 71.7061 36.0151 75.9997C34.405 80.2933 32.2582 88.8804 31.7215 92.1006C31.1848 95.3208 30.0815 104.445 25.2812 104.445C19.9141 104.445 17.7674 105.518 15.6206 102.298C13.4738 99.0777 17.6789 96.8019 19.9141 94.2474Z" fill="black" fill-opacity="0.4"/>
<path d="M21.4681 70.8441C20.6094 63.9743 23.3532 54.3991 25.5 51C31.4036 49.3899 46.1413 48.489 47.0001 54.5C47.9968 61.4771 52.0598 66.0138 61.1836 73.5275C69.4071 80.2998 69.7708 95.5321 63.3304 100.899C56.89 106.266 50.4497 106.803 40.7891 102.509C31.1286 98.2156 22.5415 79.4312 21.4681 70.8441Z" fill="#898989"/>
<path d="M21.4681 70.8441C20.6094 63.9743 23.3532 54.3991 25.5 51C31.4036 49.3899 46.1413 48.489 47.0001 54.5C47.9968 61.4771 52.0598 66.0138 61.1836 73.5275C69.4071 80.2998 69.7708 95.5321 63.3304 100.899C56.89 106.266 50.4497 106.803 40.7891 102.509C31.1286 98.2156 22.5415 79.4312 21.4681 70.8441Z" fill="black" fill-opacity="0.4"/>
<path d="M40.7888 84.2615C44.5457 77.2844 52.5961 77.8211 57.4264 84.2615C58.4998 86.0504 60.6467 90.4871 60.6467 93.922C60.6467 98.2156 61.1833 102.807 57.4264 105.5C54.5001 107.597 45.2569 107 41.5 107C37.7431 107 33 107.22 33 104C33 100.125 36.5 96.5 40.7888 96.5C39.5365 94.711 37.7833 89.8431 40.7888 84.2615Z" fill="#898989"/>
<path d="M40.7888 84.2615C44.5457 77.2844 52.5961 77.8211 57.4264 84.2615C58.4998 86.0504 60.6467 90.4871 60.6467 93.922C60.6467 98.2156 61.1833 102.807 57.4264 105.5C54.5001 107.597 45.2569 107 41.5 107C37.7431 107 33 107.22 33 104C33 100.125 36.5 96.5 40.7888 96.5C39.5365 94.711 37.7833 89.8431 40.7888 84.2615Z" fill="black" fill-opacity="0.4"/>
<path d="M40.7888 84.2615C44.5457 77.2844 52.5961 77.8211 57.4264 84.2615C58.4998 86.0504 60.6467 90.4871 60.6467 93.922C60.6467 98.2156 61.1833 102.807 57.4264 105.5C54.5001 107.597 45.2569 107 41.5 107C37.7431 107 33 107.22 33 104C33 100.125 36.5 96.5 40.7888 96.5C39.5365 94.711 37.7833 89.8431 40.7888 84.2615Z" stroke="#898989" stroke-width="1.07339" stroke-linecap="round"/>
<path d="M40.7888 84.2615C44.5457 77.2844 52.5961 77.8211 57.4264 84.2615C58.4998 86.0504 60.6467 90.4871 60.6467 93.922C60.6467 98.2156 61.1833 102.807 57.4264 105.5C54.5001 107.597 45.2569 107 41.5 107C37.7431 107 33 107.22 33 104C33 100.125 36.5 96.5 40.7888 96.5C39.5365 94.711 37.7833 89.8431 40.7888 84.2615Z" stroke="black" stroke-opacity="0.2" stroke-width="1.07339" stroke-linecap="round"/>
<path d="M24.8865 96.6235C28.6435 92.33 25.4232 78.9125 29.7169 73.0089C31.6945 70.2896 36.0499 69.4667 37.7673 70.3254C39.9141 71.3988 42.5976 74.0823 40.9875 78.3758C39.3774 82.6694 37.2306 91.2566 36.6939 94.4768C36.1572 97.6969 35.0539 106.821 30.2536 106.821C24.8865 106.821 22.7398 107.894 20.593 104.674C18.4462 101.454 22.6513 99.178 24.8865 96.6235Z" fill="#898989"/>
<path d="M24.8865 96.6235C28.6435 92.33 25.4232 78.9125 29.7169 73.0089C31.6945 70.2896 36.0499 69.4667 37.7673 70.3254C39.9141 71.3988 42.5976 74.0823 40.9875 78.3758C39.3774 82.6694 37.2306 91.2566 36.6939 94.4768C36.1572 97.6969 35.0539 106.821 30.2536 106.821C24.8865 106.821 22.7398 107.894 20.593 104.674C18.4462 101.454 22.6513 99.178 24.8865 96.6235Z" fill="black" fill-opacity="0.4"/>
<path d="M24.8865 96.6235C28.6435 92.33 25.4232 78.9125 29.7169 73.0089C31.6945 70.2896 36.0499 69.4667 37.7673 70.3254C39.9141 71.3988 42.5976 74.0823 40.9875 78.3758C39.3774 82.6694 37.2306 91.2566 36.6939 94.4768C36.1572 97.6969 35.0539 106.821 30.2536 106.821C24.8865 106.821 22.7398 107.894 20.593 104.674C18.4462 101.454 22.6513 99.178 24.8865 96.6235Z" stroke="#898989" stroke-width="1.07339" stroke-linecap="round"/>
<path d="M24.8865 96.6235C28.6435 92.33 25.4232 78.9125 29.7169 73.0089C31.6945 70.2896 36.0499 69.4667 37.7673 70.3254C39.9141 71.3988 42.5976 74.0823 40.9875 78.3758C39.3774 82.6694 37.2306 91.2566 36.6939 94.4768C36.1572 97.6969 35.0539 106.821 30.2536 106.821C24.8865 106.821 22.7398 107.894 20.593 104.674C18.4462 101.454 22.6513 99.178 24.8865 96.6235Z" stroke="black" stroke-opacity="0.2" stroke-width="1.07339" stroke-linecap="round"/>
<path d="M23 78C24 80.5 25 81.5 27.0001 83.5" stroke="#898989" stroke-linecap="square"/>
<path d="M23 78C24 80.5 25 81.5 27.0001 83.5" stroke="black" stroke-opacity="0.2" stroke-linecap="square"/>
<path d="M36.8947 66C34.638 66.8423 28.0002 69.5 31.0916 74.8445C34.4767 79.2668 41.5656 76.7905 43.5 73C45.0475 69.9676 39.4739 66.8423 36.8947 66Z" fill="#898989"/>
<path d="M36.8947 66C34.638 66.8423 28.0002 69.5 31.0916 74.8445C34.4767 79.2668 41.5656 76.7905 43.5 73C45.0475 69.9676 39.4739 66.8423 36.8947 66Z" fill="black" fill-opacity="0.4"/>
<path d="M61.5864 80.0224C58.7845 81.4978 52.7741 87.4472 51.1479 99.442C52.5979 110.532 60.7966 104.521 64.684 96.0774C67.7938 89.3222 63.9147 82.5594 61.5864 80.0224Z" fill="#898989"/>
<path d="M61.5864 80.0224C58.7845 81.4978 52.7741 87.4472 51.1479 99.442C52.5979 110.532 60.7966 104.521 64.684 96.0774C67.7938 89.3222 63.9147 82.5594 61.5864 80.0224Z" fill="black" fill-opacity="0.4"/>
<path d="M60.9251 15.1926C57.4157 14.1397 53.0534 20.2019 53.0531 26.6424L58.7782 33.083C66.6498 29.5049 68.081 17.3394 60.9251 15.1926Z" fill="#898989"/>
<path d="M60.9251 15.1926C57.4157 14.1397 53.0534 20.2019 53.0531 26.6424L58.7782 33.083C66.6498 29.5049 68.081 17.3394 60.9251 15.1926Z" fill="black" fill-opacity="0.2"/>
<path d="M61.3156 17.8512C59.1716 17.1217 58.3223 22.373 58.4034 26.5648L60.238 29.468C64.9717 27.2386 65.6871 19.3388 61.3156 17.8512Z" fill="#898989"/>
<path d="M61.3156 17.8512C59.1716 17.1217 58.3223 22.373 58.4034 26.5648L60.238 29.468C64.9717 27.2386 65.6871 19.3388 61.3156 17.8512Z" fill="white" fill-opacity="0.2"/>
<path d="M63.2936 30.5103C62.671 24.343 55.2008 15.4348 39.0152 15.4348C24.6485 15.4348 14.7367 24.212 14.7367 30.5103C14.7367 36.8086 14.2252 48.259 18.1215 52.6422C22.4152 57.4725 29.9288 61.2294 46.5664 60.6927C51.9334 60.6927 59.4472 54.789 61.366 51.3034C63.1519 48.0593 63.9161 36.6776 63.2936 30.5103Z" fill="#898989"/>
<path d="M63.2936 30.5103C62.671 24.343 55.2008 15.4348 39.0152 15.4348C24.6485 15.4348 14.7367 24.212 14.7367 30.5103C14.7367 36.8086 14.2252 48.259 18.1215 52.6422C22.4152 57.4725 29.9288 61.2294 46.5664 60.6927C51.9334 60.6927 59.4472 54.789 61.366 51.3034C63.1519 48.0593 63.9161 36.6776 63.2936 30.5103Z" fill="black" fill-opacity="0.2"/>
<path d="M14.5072 16.5484C20.2693 12.6962 26.0915 18.8617 28.2905 26.0243L23.0024 35.7119C13.0267 34.4198 7.28188 21.3788 14.5072 16.5484Z" fill="#898989"/>
<path d="M14.5072 16.5484C20.2693 12.6962 26.0915 18.8617 28.2905 26.0243L23.0024 35.7119C13.0267 34.4198 7.28188 21.3788 14.5072 16.5484Z" fill="black" fill-opacity="0.2"/>
<path d="M15.4175 18.6743C19.543 16.9256 21.6289 20.5996 21.4381 25.544C21.2473 30.4884 20.0478 32.8889 20.0478 32.8889C13.9986 29.6262 9.58622 21.1462 15.4175 18.6743Z" fill="#898989"/>
<path d="M15.4175 18.6743C19.543 16.9256 21.6289 20.5996 21.4381 25.544C21.2473 30.4884 20.0478 32.8889 20.0478 32.8889C13.9986 29.6262 9.58622 21.1462 15.4175 18.6743Z" fill="white" fill-opacity="0.2"/>
<path d="M55.1262 48.4262C54.9614 47.0771 52.984 45.1284 48.6996 45.1284C44.8967 45.1284 42.273 47.0484 42.2729 48.4262C42.2729 49.8039 42.6617 52.3236 42.9913 52.9232C43.3209 53.5228 46.4209 55.1716 48.6996 55.1716C50.9782 55.1716 53.8079 53.5228 54.4671 52.9232C55.1262 52.3236 55.291 49.7753 55.1262 48.4262Z" fill="#898989"/>
<path d="M55.1262 48.4262C54.9614 47.0771 52.984 45.1284 48.6996 45.1284C44.8967 45.1284 42.273 47.0484 42.2729 48.4262C42.2729 49.8039 42.6617 52.3236 42.9913 52.9232C43.3209 53.5228 46.4209 55.1716 48.6996 55.1716C50.9782 55.1716 53.8079 53.5228 54.4671 52.9232C55.1262 52.3236 55.291 49.7753 55.1262 48.4262Z" fill="black" fill-opacity="0.4"/>
<path d="M47 35.5C46.0665 32.7844 45.5 18.3473 42 18.5C37.736 18.6861 40.4562 32.2844 41.5 35.5C42.5439 38.7156 45.6765 44.5184 49 44C52.3235 43.4817 47.9335 38.2156 47 35.5Z" fill="#898989"/>
<path d="M47 35.5C46.0665 32.7844 45.5 18.3473 42 18.5C37.736 18.6861 40.4562 32.2844 41.5 35.5C42.5439 38.7156 45.6765 44.5184 49 44C52.3235 43.4817 47.9335 38.2156 47 35.5Z" fill="white" fill-opacity="0.95"/>
<circle cx="29.8695" cy="41.8695" r="2.86949" fill="#141414"/>
<circle cx="55.8031" cy="41.5575" r="2.86949" fill="#141414"/>
</svg>
