<svg width="100" height="100" viewBox="0 0 100 100" fill="none" xmlns="http://www.w3.org/2000/svg">
<g clip-path="url(#clip0_2049_12081)">
<path d="M48 6.99999C49.1429 6.70525 51.2497 5.75029 52 4.99999C53 3.99999 52.4286 1.81033 50.7143 1.81033C49.5436 1.81033 49.1224 2.2399 49.0242 2.54899C49.0146 2.59869 49.0065 2.64729 49 2.69457C49 2.65143 49.0073 2.60198 49.0242 2.54899C49.2238 1.51403 50.0917 -1.52588e-05 52 -1.52588e-05C54.188 -1.52588e-05 55.5 2.2315 55.5 3.99998C55.5 5.41477 55 6.49998 53.5 7.99999L48 6.99999Z" fill="#546DDB"/>
<path d="M48 6.99999C49.1429 6.70525 51.2497 5.75029 52 4.99999C53 3.99999 52.4286 1.81033 50.7143 1.81033C49.5436 1.81033 49.1224 2.2399 49.0242 2.54899C49.0146 2.59869 49.0065 2.64729 49 2.69457C49 2.65143 49.0073 2.60198 49.0242 2.54899C49.2238 1.51403 50.0917 -1.52588e-05 52 -1.52588e-05C54.188 -1.52588e-05 55.5 2.2315 55.5 3.99998C55.5 5.41477 55 6.49998 53.5 7.99999L48 6.99999Z" fill="black" fill-opacity="0.2"/>
<path d="M18.8333 38.0055C17.7 48.804 14.4722 91.6679 14 100H86.5C85.713 91.5012 81.7556 47.3985 81 37C80.0556 24.0018 69.3611 6.51 49.5278 7.00993C29.6944 7.50986 20.25 24.5074 18.8333 38.0055Z" fill="#546DDB"/>
<path d="M18.8333 38.0055C17.7 48.804 14.4722 91.6679 14 100H86.5C85.713 91.5012 81.7556 47.3985 81 37C80.0556 24.0018 69.3611 6.51 49.5278 7.00993C29.6944 7.50986 20.25 24.5074 18.8333 38.0055Z" fill="white" fill-opacity="0.2"/>
<path d="M0.0557715 28.363C0.524875 26.9063 13.5425 30.1839 19.9927 32.0048L18.82 49C17.6472 48.5954 13.7524 47.5912 9.43784 44.1442C2.99889 39 -0.530608 30.1839 0.0557715 28.363Z" fill="#546DDB"/>
<path d="M0.0557715 28.363C0.524875 26.9063 13.5425 30.1839 19.9927 32.0048L18.82 49C17.6472 48.5954 13.7524 47.5912 9.43784 44.1442C2.99889 39 -0.530608 30.1839 0.0557715 28.363Z" fill="white" fill-opacity="0.2"/>
<path d="M99.9369 28.363C99.4678 26.9063 86.4502 30.1839 80 32.0048L81.1726 49C82.3454 48.5954 86.2403 47.5912 90.5548 44.1442C96.9938 39 100.523 30.1839 99.9369 28.363Z" fill="#546DDB"/>
<path d="M99.9369 28.363C99.4678 26.9063 86.4502 30.1839 80 32.0048L81.1726 49C82.3454 48.5954 86.2403 47.5912 90.5548 44.1442C96.9938 39 100.523 30.1839 99.9369 28.363Z" fill="white" fill-opacity="0.2"/>
<circle cx="30.5" cy="43.5" r="4.5" fill="#CE4317"/>
<circle cx="30.5" cy="43.5" r="4.5" fill="white" fill-opacity="0.15"/>
<circle cx="69.5" cy="43.5" r="4.5" fill="#CE4317"/>
<circle cx="69.5" cy="43.5" r="4.5" fill="white" fill-opacity="0.15"/>
<path d="M33 60.5C36.3333 60 44.5 59 50.5 59C56.5 59 64 60 67 60.5" stroke="#546DDB" stroke-linecap="round"/>
<path d="M33 60.5C36.3333 60 44.5 59 50.5 59C56.5 59 64 60 67 60.5" stroke="black" stroke-opacity="0.2" stroke-linecap="round"/>
<path d="M64.6758 56.3623C65.0501 56.8192 64.6515 58.7697 64.4585 59.6697L59.2006 58.9541C59.4258 57.904 59.4319 55.6732 59.9606 55.41C60.6215 55.081 64.2079 55.7912 64.6758 56.3623Z" fill="#FAA21E"/>
<path d="M64.6758 56.3623C65.0501 56.8192 64.6515 58.7697 64.4585 59.6697L59.2006 58.9541C59.4258 57.904 59.4319 55.6732 59.9606 55.41C60.6215 55.081 64.2079 55.7912 64.6758 56.3623Z" fill="white" fill-opacity="0.4"/>
<path d="M38 55.2807C38 51.0059 42.2449 45.9791 44.3673 44H55C55 44 62 49.5 62 55.2807C62 61.0613 57.7449 66 50 66C42.6246 66 38 60.6241 38 55.2807Z" fill="#546DDB"/>
<path d="M38 55.2807C38 51.0059 42.2449 45.9791 44.3673 44H55C55 44 62 49.5 62 55.2807C62 61.0613 57.7449 66 50 66C42.6246 66 38 60.6241 38 55.2807Z" fill="white" fill-opacity="0.2"/>
<path d="M43 44.5C40.8776 46.4791 38 51.0059 38 55.2807C38 60.6241 46 68.5 50.5 68.5C56 68.5 62 61.0613 62 55.2807C62 49.5 56.5 44.5 56.5 44.5" stroke="#546DDB" stroke-linecap="round" stroke-linejoin="round"/>
<path d="M43 44.5C40.8776 46.4791 38 51.0059 38 55.2807C38 60.6241 46 68.5 50.5 68.5C56 68.5 62 61.0613 62 55.2807C62 49.5 56.5 44.5 56.5 44.5" stroke="black" stroke-opacity="0.2" stroke-linecap="round" stroke-linejoin="round"/>
<path d="M32.0761 36.5016C27.6874 36.6831 25.9799 38.6533 24.9931 40.839C26.1358 40.29 27.3348 39.482 29.7778 40.0131C32.465 40.5972 32.5984 41.1604 33.9533 41.9892C35.3082 42.818 36.9411 42.3675 37.3847 40.3268C37.8837 38.0311 35.1739 36.3736 32.0761 36.5016Z" fill="#546DDB"/>
<path d="M32.0761 36.5016C27.6874 36.6831 25.9799 38.6533 24.9931 40.839C26.1358 40.29 27.3348 39.482 29.7778 40.0131C32.465 40.5972 32.5984 41.1604 33.9533 41.9892C35.3082 42.818 36.9411 42.3675 37.3847 40.3268C37.8837 38.0311 35.1739 36.3736 32.0761 36.5016Z" fill="black" fill-opacity="0.2"/>
<path d="M68.1244 36.7236C72.5131 36.903 74.2215 38.8724 75.2093 41.0577C74.0663 40.5092 72.867 39.7018 70.4243 40.234C67.7373 40.8193 67.6042 41.3827 66.2497 42.2121C64.8952 43.0415 63.262 42.5917 62.8175 40.5513C62.3174 38.2557 65.0264 36.597 68.1244 36.7236Z" fill="#546DDB"/>
<path d="M68.1244 36.7236C72.5131 36.903 74.2215 38.8724 75.2093 41.0577C74.0663 40.5092 72.867 39.7018 70.4243 40.234C67.7373 40.8193 67.6042 41.3827 66.2497 42.2121C64.8952 43.0415 63.262 42.5917 62.8175 40.5513C62.3174 38.2557 65.0264 36.597 68.1244 36.7236Z" fill="black" fill-opacity="0.2"/>
<path d="M42.803 61.2441C39.9999 57.5 39.8509 54.5703 40.5 53C41 56.5 42.9758 58.8887 45.3125 61.2441C48.2257 64.1806 50.4999 65.3116 54.4999 64.5C53.4505 65.6429 51.7425 66.4407 50.4999 66.5C49.2573 66.5593 45.5 64.8464 42.803 61.2441Z" fill="#FEFEFE" fill-opacity="0.15"/>
<path d="M12.5 40.5C15.6514 41.7605 16.5 44 17.5 47C12 45 9.31379 42.603 7 40C4.68621 37.397 2 32 1.5 29.5C2.5 31 5 37.5 12.5 40.5Z" fill="#546DDB"/>
<path d="M12.5 40.5C15.6514 41.7605 16.5 44 17.5 47C12 45 9.31379 42.603 7 40C4.68621 37.397 2 32 1.5 29.5C2.5 31 5 37.5 12.5 40.5Z" fill="black" fill-opacity="0.2"/>
<path d="M87 41C83.8486 42.2605 83 44.5 82 47.5C87.5 45.5 90.1862 43.103 92.5 40.5C94.8138 37.897 98 32.5 98.5 30C97.5 31.5 94.5 38 87 41Z" fill="#546DDB"/>
<path d="M87 41C83.8486 42.2605 83 44.5 82 47.5C87.5 45.5 90.1862 43.103 92.5 40.5C94.8138 37.897 98 32.5 98.5 30C97.5 31.5 94.5 38 87 41Z" fill="black" fill-opacity="0.2"/>
<path d="M2.50012 77.5C5.19089 70.8217 11 68.5 17 68C19 70.5 19 74.5 16.5001 78.9999C12.0001 77.4999 10.2261 79.7554 9.99991 81C9.71718 82.5556 12.0471 85.2238 13.3623 85.9449C14.6776 86.6661 15.1584 85.7892 18.2697 86.3547C21.381 86.9201 20.8579 88.9142 21.6924 90.5122C22.5269 92.1102 19.0482 95.3349 18.5674 96.2117C18.0866 97.0886 15.4137 96.7635 13.2216 95.5616C11.0295 94.3597 -1.26903 86.8548 2.50012 77.5Z" fill="#546DDB"/>
<path d="M2.50012 77.5C5.19089 70.8217 11 68.5 17 68C19 70.5 19 74.5 16.5001 78.9999C12.0001 77.4999 10.2261 79.7554 9.99991 81C9.71718 82.5556 12.0471 85.2238 13.3623 85.9449C14.6776 86.6661 15.1584 85.7892 18.2697 86.3547C21.381 86.9201 20.8579 88.9142 21.6924 90.5122C22.5269 92.1102 19.0482 95.3349 18.5674 96.2117C18.0866 97.0886 15.4137 96.7635 13.2216 95.5616C11.0295 94.3597 -1.26903 86.8548 2.50012 77.5Z" fill="black" fill-opacity="0.2"/>
<path d="M58.8621 10.8243C58.4363 10.4001 57.159 9.97581 55.8818 9.97581C54.6045 9.97581 53.3272 11.2485 53.3272 12.097C53.3272 12.9455 54.6045 13.3697 55.8818 14.3773C57.1591 15.3849 58.8621 14.6425 59.7136 13.3697C60.5651 12.097 59.2878 11.2485 58.8621 10.8243Z" fill="#546DDB"/>
<path d="M49.0696 15.9152C50.3469 15.0667 49.4954 14.2182 49.0696 12.9455C47.3666 12.097 46.0894 13.3697 46.0894 14.3773C46.0894 15.3849 45.6636 16.3394 46.9409 17.1879C48.2181 18.0364 47.7924 16.7637 49.0696 15.9152Z" fill="#546DDB"/>
<path d="M44.8121 11.2485C46.5151 11.2485 50.5 9.50613 49.4954 7.00612C48.2181 7.00612 45.905 6.90704 43.5 7.50612C41.2201 8.07405 39.703 8.70925 39 9.00612C38.5 9.50613 38.6812 11.0788 39.703 10.4001C40.9803 9.55157 43.1091 11.2485 44.8121 11.2485Z" fill="#546DDB"/>
<path d="M55.456 18.0364C55.456 16.7637 55.0302 16.3395 54.1787 16.3395C53.3272 16.3395 53.3272 17.6122 52.4757 18.0364C51.6242 18.4607 50.7727 18.4607 50.3469 18.8849C49.9212 19.3092 50.7727 21.0061 53.3272 21.0061C54.1787 21.0061 55.456 19.3092 55.456 18.0364Z" fill="#546DDB"/>
<path d="M39.703 15.0061C38.906 15.0061 38.5 15.9152 38 16.3395C38 17.6728 38.5 19.5061 39.703 19.5061C40.906 19.5061 42.5 18.5061 42.5 17.5061C42.5 16.5061 40.5 15.0061 39.703 15.0061Z" fill="#546DDB"/>
<path d="M88.8992 72.5C86.3992 69.1667 85.3991 68 83.3991 68C81.3992 68 81.5237 76.2059 83.8992 80C86.3992 81.5 88.8992 86 88.8992 88.5C88.8992 91 87.5 97 87.5 97L93 98.5C94 96.5 96.5 93 95.8992 87C95.401 82.0249 91.3991 75.8333 88.8992 72.5Z" fill="#546DDB"/>
<path d="M88.8992 72.5C86.3992 69.1667 85.3991 68 83.3991 68C81.3992 68 81.5237 76.2059 83.8992 80C86.3992 81.5 88.8992 86 88.8992 88.5C88.8992 91 87.5 97 87.5 97L93 98.5C94 96.5 96.5 93 95.8992 87C95.401 82.0249 91.3991 75.8333 88.8992 72.5Z" fill="black" fill-opacity="0.2"/>
<path d="M84 100.5C84.8 99.7 86.6667 97.1667 87.5 97L93.5001 97.5C93.6667 98.3333 93.4001 100.9 93.0001 102.5C92.6001 104.1 91.6667 104.167 90.5001 105L85.5 104.5C85.5 103.667 83.2 101.3 84 100.5Z" fill="#546DDB"/>
<path d="M84 100.5C84.8 99.7 86.6667 97.1667 87.5 97L93.5001 97.5C93.6667 98.3333 93.4001 100.9 93.0001 102.5C92.6001 104.1 91.6667 104.167 90.5001 105L85.5 104.5C85.5 103.667 83.2 101.3 84 100.5Z" fill="black" fill-opacity="0.2"/>
<path d="M7.00923 71.6064C13.0033 76.2768 29.4605 79.8513 38.5 82L41 77C34.4834 74.4663 21.6373 68.7525 19.1197 61.2864C14.4046 67.4466 5.98609 63.4415 0.725817 56.0558C1.09398 58.9706 2.10689 67.7868 7.00923 71.6064Z" fill="#546DDB"/>
<path d="M7.00923 71.6064C13.0033 76.2768 29.4605 79.8513 38.5 82L41 77C34.4834 74.4663 21.6373 68.7525 19.1197 61.2864C14.4046 67.4466 5.98609 63.4415 0.725817 56.0558C1.09398 58.9706 2.10689 67.7868 7.00923 71.6064Z" fill="white" fill-opacity="0.8"/>
<path d="M5.85805 71.5452C13.2058 77.6873 33.219 81.4636 38 83L39 81C33.3896 79.7737 5.58236 74.8609 6.97696 62.2629C5.86461 61.7116 2.60367 58.5407 0.644176 56.0833C1.31794 58.9173 0.469657 67.0411 5.85805 71.5452Z" fill="#546DDB"/>
<path d="M5.85805 71.5452C13.2058 77.6873 33.219 81.4636 38 83L39 81C33.3896 79.7737 5.58236 74.8609 6.97696 62.2629C5.86461 61.7116 2.60367 58.5407 0.644176 56.0833C1.31794 58.9173 0.469657 67.0411 5.85805 71.5452Z" fill="white" fill-opacity="0.2"/>
<path d="M47.1357 79.123C47.823 77.7364 47.2561 76.0552 45.8695 75.3679C44.4829 74.6807 42.8017 75.2476 42.1144 76.6342L38.1258 84.6813C37.4385 86.0679 38.0055 87.7491 39.3921 88.4364C40.7786 89.1236 42.4599 88.5567 43.1471 87.1701L47.1357 79.123Z" fill="#546DDB"/>
<path d="M47 81.5L44.9998 86L99.7764 114.402L101.948 113.415L103.591 110.102L103.06 107.776L47 81.5Z" fill="#546DDB"/>
</g>
<defs>
<clipPath id="clip0_2049_12081">
<rect width="100" height="100" fill="white"/>
</clipPath>
</defs>
</svg>
