<svg width="101" height="101" viewBox="0 0 101 101" fill="none" xmlns="http://www.w3.org/2000/svg">
<path d="M62.6041 2.27431C51.2901 0.349465 50.7416 5.44069 44.4096 6.82289C38.0777 8.20507 36.1775 5.02136 27.921 7.96003C19.3631 11.006 20.6036 18.9805 15.4126 24.4486C10.2216 29.9167 6.97294 29.1186 5.74659 35.2514C4.60965 40.9372 10.912 46.7946 8.02086 52.8772C5.12972 58.9597 9.0319 65.0279 11.4324 68.2286C16.5496 75.0514 15.981 80.7371 16.5496 80.7372C17.1181 80.7372 18.8058 66.5253 25.6467 75.0514C28.4896 78.5947 39.4861 75.0255 44.9781 75.62C57.1119 76.9335 57.4326 83.0005 62.0353 83.0114C66.6379 83.0224 63.0841 76.9425 69.9953 73.9143C76.9065 70.8861 79.0399 78.4199 85.3467 77.8943C92.1695 77.3257 100.13 74.4829 100.13 64.2486C100.13 54.6292 91.5882 52.1033 91.6012 46.6229C91.6143 41.1425 97.0329 37.1894 95.5812 27.86C94.1296 18.5306 85.9155 18.7629 79.6612 14.7829C73.814 11.0619 74.011 4.21499 62.6041 2.27431Z" fill="#1D8CE0"/>
<path d="M62.6041 2.27431C51.2901 0.349465 50.7416 5.44069 44.4096 6.82289C38.0777 8.20507 36.1775 5.02136 27.921 7.96003C19.3631 11.006 20.6036 18.9805 15.4126 24.4486C10.2216 29.9167 6.97294 29.1186 5.74659 35.2514C4.60965 40.9372 10.912 46.7946 8.02086 52.8772C5.12972 58.9597 9.0319 65.0279 11.4324 68.2286C16.5496 75.0514 15.981 80.7371 16.5496 80.7372C17.1181 80.7372 18.8058 66.5253 25.6467 75.0514C28.4896 78.5947 39.4861 75.0255 44.9781 75.62C57.1119 76.9335 57.4326 83.0005 62.0353 83.0114C66.6379 83.0224 63.0841 76.9425 69.9953 73.9143C76.9065 70.8861 79.0399 78.4199 85.3467 77.8943C92.1695 77.3257 100.13 74.4829 100.13 64.2486C100.13 54.6292 91.5882 52.1033 91.6012 46.6229C91.6143 41.1425 97.0329 37.1894 95.5812 27.86C94.1296 18.5306 85.9155 18.7629 79.6612 14.7829C73.814 11.0619 74.011 4.21499 62.6041 2.27431Z" fill="white" fill-opacity="0.2"/>
<path d="M33.4077 12.1543C34.1155 13.2147 32.5196 13.9448 30.7303 15.1391C28.9411 16.3333 27.636 17.5394 26.9283 16.479C26.2205 15.4186 27.0972 13.5908 28.8865 12.3966C30.6757 11.2024 32.6999 11.0939 33.4077 12.1543Z" fill="#FEFEFE"/>
<path d="M61.4375 7.67343C61.5057 8.94652 59.743 8.42477 57.8051 8.52859C55.8672 8.63241 54.4878 9.32249 54.4196 8.0494C54.3514 6.77631 55.8672 5.6601 57.8051 5.55628C59.743 5.45246 61.3693 6.40034 61.4375 7.67343Z" fill="#FEFEFE"/>
<circle cx="37.5868" cy="11.94" r="1.70571" fill="#FEFEFE"/>
<circle cx="11.3354" cy="58.7364" r="1.70571" fill="#FEFEFE"/>
<path d="M13.3832 32.8543C14.3786 33.4145 13.4957 34.4743 12.6698 35.9421C11.8438 37.4099 11.3875 38.7298 10.392 38.1696C9.39658 37.6095 9.25918 35.9655 10.0852 34.4977C10.9111 33.0299 12.3877 32.2941 13.3832 32.8543Z" fill="#FEFEFE"/>
<circle cx="64.3096" cy="92.1086" r="4.54857" fill="#1D8CE0"/>
<circle cx="64.3096" cy="92.1086" r="4.54857" fill="white" fill-opacity="0.2"/>
<path d="M67.7188 91.1601C68.2432 91.9762 67.8831 94.2813 66.2754 95.3144C64.6677 96.3476 62.4213 95.7176 61.8969 94.9015C61.3724 94.0854 63.3728 94.3326 64.9805 93.2995C66.5881 92.2663 67.1943 90.344 67.7188 91.1601Z" fill="#1D8CE0"/>
<path d="M67.7188 91.1601C68.2432 91.9762 67.8831 94.2813 66.2754 95.3144C64.6677 96.3476 62.4213 95.7176 61.8969 94.9015C61.3724 94.0854 63.3728 94.3326 64.9805 93.2995C66.5881 92.2663 67.1943 90.344 67.7188 91.1601Z" fill="white" fill-opacity="0.2"/>
<ellipse cx="62.8556" cy="90.4079" rx="1.83158" ry="1.05244" transform="rotate(-42.2862 62.8556 90.4079)" fill="#FEFEFE"/>
<circle cx="82.504" cy="3.41143" r="3.41143" fill="#1D8CE0"/>
<circle cx="82.504" cy="3.41143" r="3.41143" fill="white" fill-opacity="0.2"/>
<path d="M84.9337 2.51645C85.3515 3.16647 85.1361 4.95657 83.9437 5.72283C82.7514 6.48908 81.0336 5.94133 80.6159 5.29131C80.1981 4.64129 81.72 4.88413 82.9123 4.11787C84.1047 3.35162 84.516 1.86643 84.9337 2.51645Z" fill="#1D8CE0"/>
<path d="M84.9337 2.51645C85.3515 3.16647 85.1361 4.95657 83.9437 5.72283C82.7514 6.48908 81.0336 5.94133 80.6159 5.29131C80.1981 4.64129 81.72 4.88413 82.9123 4.11787C84.1047 3.35162 84.516 1.86643 84.9337 2.51645Z" fill="white" fill-opacity="0.2"/>
<circle cx="5.17821" cy="19.3314" r="4.54857" fill="#1D8CE0"/>
<circle cx="5.17821" cy="19.3314" r="4.54857" fill="white" fill-opacity="0.2"/>
<path d="M8.61495 18.4787C9.10548 19.242 8.75005 21.41 7.22344 22.3911C5.69683 23.3722 3.57715 22.7948 3.08661 22.0315C2.59607 21.2682 4.48566 21.4875 6.01227 20.5064C7.53888 19.5253 8.12441 17.7154 8.61495 18.4787Z" fill="#1D8CE0"/>
<path d="M8.61495 18.4787C9.10548 19.242 8.75005 21.41 7.22344 22.3911C5.69683 23.3722 3.57715 22.7948 3.08661 22.0315C2.59607 21.2682 4.48566 21.4875 6.01227 20.5064C7.53888 19.5253 8.12441 17.7154 8.61495 18.4787Z" fill="white" fill-opacity="0.2"/>
<ellipse cx="3.79383" cy="17.9089" rx="1.70571" ry="1.13714" transform="rotate(-42.2862 3.79383 17.9089)" fill="#FEFEFE"/>
<ellipse cx="81.2853" cy="2.46177" rx="1.13599" ry="0.757326" transform="rotate(-42.2862 81.2853 2.46177)" fill="#FEFEFE"/>
<circle cx="41.96" cy="39.96" r="7.96" fill="#1D8CE0"/>
<circle cx="41.96" cy="39.96" r="7.96" fill="white" fill-opacity="0.95"/>
<circle cx="62.96" cy="45.96" r="7.96" fill="#1D8CE0"/>
<circle cx="62.96" cy="45.96" r="7.96" fill="white" fill-opacity="0.95"/>
<circle cx="38.4114" cy="41.4114" r="3.41143" fill="#1D8CE0"/>
<circle cx="38.4114" cy="41.4114" r="3.41143" fill="black" fill-opacity="0.8"/>
<circle cx="66.4114" cy="44.4114" r="3.41143" fill="#1D8CE0"/>
<circle cx="66.4114" cy="44.4114" r="3.41143" fill="black" fill-opacity="0.8"/>
<path d="M17.6869 92.1086C17.1183 89.2657 17.1182 84.1486 16.5496 84.1486C15.9811 84.1486 15.9811 89.8341 15.9811 92.1085V92.1086C15.9811 94.3828 14.8441 97.7943 15.4126 98.9314C15.9812 100.069 17.6869 100.637 18.8241 98.9314C19.9612 97.2257 18.2555 94.9514 17.6869 92.1086Z" fill="#1D8CE0"/>
<path d="M17.6869 92.1086C17.1183 89.2657 17.1182 84.1486 16.5496 84.1486C15.9811 84.1486 15.9811 89.8341 15.9811 92.1085V92.1086C15.9811 94.3828 14.8441 97.7943 15.4126 98.9314C15.9812 100.069 17.6869 100.637 18.8241 98.9314C19.9612 97.2257 18.2555 94.9514 17.6869 92.1086Z" fill="white" fill-opacity="0.2"/>
<ellipse cx="16.6352" cy="98.4508" rx="0.948898" ry="0.653151" transform="rotate(-130.209 16.6352 98.4508)" fill="#FEFEFE"/>
<path d="M94.5 65.5C96.1 61.5 91.1667 56.6667 89 54.5C89.5 58.5 89 61.5 87.5 64C85.4 67.5 79.6667 68 76.5 68.5C79 70 81 72 84.5 72C87.5 72 92.5 70.5 94.5 65.5Z" fill="#FEFEFE" fill-opacity="0.15"/>
<path d="M91 26.9999C89.7061 23.5776 84.5 21 81.0001 20.5C84.5 23.5 85.5 26.5 86.5 29C87.5 31.5 88 37 88 42C91.5 36 92.2939 30.4223 91 26.9999Z" fill="#FEFEFE" fill-opacity="0.15"/>
<path d="M59 72.5C56.5 72.5 53.5 70 49.5 72C55.5 73 58.1796 78.1068 61.5 77C63 76.5 63.5 73 65.5 71.5C63.5 71 61.5 72.5 59 72.5Z" fill="#FEFEFE" fill-opacity="0.15"/>
</svg>
