<svg width="100" height="100" viewBox="0 0 100 100" fill="none" xmlns="http://www.w3.org/2000/svg">
<g clip-path="url(#clip0_2049_12111)">
<path d="M18.8333 38.0061C17.7 48.8045 14.4722 91.6684 14 100.001H86.5C85.713 91.5018 81.7556 47.3991 81 37.0005C80.0556 24.0024 69.3611 6.51055 49.5278 7.01048C29.6944 7.51041 20.25 24.508 18.8333 38.0061Z" fill="#546DDB"/>
<path d="M18.8333 38.0061C17.7 48.8045 14.4722 91.6684 14 100.001H86.5C85.713 91.5018 81.7556 47.3991 81 37.0005C80.0556 24.0024 69.3611 6.51055 49.5278 7.01048C29.6944 7.51041 20.25 24.508 18.8333 38.0061Z" fill="white" fill-opacity="0.2"/>
<path d="M52 5C50.9063 5 50.3486 6.31988 50.9998 7C48.9848 6.95591 47.8694 7.02092 46.0001 7.3C45.0001 5.5 45 4 46.5788 2.06791C48.1575 0.135819 51.138 -0.652559 53.7432 0.707663C56.3485 2.06789 57.0001 4.11016 57 6.14867C56.9998 8.18901 55.8834 10.2725 53.0921 10.9095C50.859 11.4192 48.7189 9.67545 48.5328 8.18904C49.1842 8.86916 50.0788 9.23832 51.7894 8.86916C53.5 8.5 53.9539 5 52 5Z" fill="#546DDB"/>
<path d="M52 5C50.9063 5 50.3486 6.31988 50.9998 7C48.9848 6.95591 47.8694 7.02092 46.0001 7.3C45.0001 5.5 45 4 46.5788 2.06791C48.1575 0.135819 51.138 -0.652559 53.7432 0.707663C56.3485 2.06789 57.0001 4.11016 57 6.14867C56.9998 8.18901 55.8834 10.2725 53.0921 10.9095C50.859 11.4192 48.7189 9.67545 48.5328 8.18904C49.1842 8.86916 50.0788 9.23832 51.7894 8.86916C53.5 8.5 53.9539 5 52 5Z" fill="black" fill-opacity="0.2"/>
<path d="M0.0557715 28.363C0.524875 26.9063 13.5425 30.1839 19.9927 32.0048L18.82 49C17.6472 48.5954 13.7524 47.5912 9.43784 44.1442C2.99889 39 -0.530608 30.1839 0.0557715 28.363Z" fill="#546DDB"/>
<path d="M0.0557715 28.363C0.524875 26.9063 13.5425 30.1839 19.9927 32.0048L18.82 49C17.6472 48.5954 13.7524 47.5912 9.43784 44.1442C2.99889 39 -0.530608 30.1839 0.0557715 28.363Z" fill="white" fill-opacity="0.2"/>
<path d="M99.9369 28.363C99.4678 26.9063 86.4502 30.1839 80 32.0048L81.1726 49C82.3454 48.5954 86.2403 47.5912 90.5548 44.1442C96.9938 39 100.523 30.1839 99.9369 28.363Z" fill="#546DDB"/>
<path d="M99.9369 28.363C99.4678 26.9063 86.4502 30.1839 80 32.0048L81.1726 49C82.3454 48.5954 86.2403 47.5912 90.5548 44.1442C96.9938 39 100.523 30.1839 99.9369 28.363Z" fill="white" fill-opacity="0.2"/>
<circle cx="30.5" cy="43.5" r="4.5" fill="#CE4317"/>
<circle cx="30.5" cy="43.5" r="4.5" fill="white" fill-opacity="0.15"/>
<circle cx="69.5" cy="43.5" r="4.5" fill="#CE4317"/>
<circle cx="69.5" cy="43.5" r="4.5" fill="white" fill-opacity="0.15"/>
<path d="M33 59.5C36.3333 59 44.5 58 50.5 58C56.5 58 64 59 67 59.5" stroke="#546DDB" stroke-linecap="round"/>
<path d="M33 59.5C36.3333 59 44.5 58 50.5 58C56.5 58 64 59 67 59.5" stroke="black" stroke-opacity="0.2" stroke-linecap="round"/>
<path d="M34.1945 54.1387C33.4977 54.1733 33.1776 57.7679 33.2368 58.9579L37.1987 58.3632C37.0803 55.9833 34.6687 54.1151 34.1945 54.1387Z" fill="#FAA21E"/>
<path d="M34.1945 54.1387C33.4977 54.1733 33.1776 57.7679 33.2368 58.9579L37.1987 58.3632C37.0803 55.9833 34.6687 54.1151 34.1945 54.1387Z" fill="white" fill-opacity="0.6"/>
<path d="M41 54.7806C41 50.5059 43.2781 45.979 44.9583 44H55.6458C55.6458 44 60 45.0613 60 54.7806C60 64.5 57.0417 68.5 51 68.5C44.9583 68.5 41 63.5 41 54.7806Z" fill="#546DDB"/>
<path d="M41 54.7806C41 50.5059 43.2781 45.979 44.9583 44H55.6458C55.6458 44 60 45.0613 60 54.7806C60 64.5 57.0417 68.5 51 68.5C44.9583 68.5 41 63.5 41 54.7806Z" fill="white" fill-opacity="0.2"/>
<path d="M44.5726 44C42.8493 46.0582 41 50.7661 41 55.2119C41 60.7691 42 68.5 51 68.5C59 68.5 60 61.2238 60 55.2119C60 49.2 55.5342 44 55.5342 44" stroke="#546DDB" stroke-linecap="round" stroke-linejoin="round"/>
<path d="M44.5726 44C42.8493 46.0582 41 50.7661 41 55.2119C41 60.7691 42 68.5 51 68.5C59 68.5 60 61.2238 60 55.2119C60 49.2 55.5342 44 55.5342 44" stroke="black" stroke-opacity="0.2" stroke-linecap="round" stroke-linejoin="round"/>
<path d="M33.8674 36.7736C29.5475 35.9791 27.4462 37.5224 26.0001 39.4355C27.236 39.153 28.584 38.6306 30.8489 39.6892C33.3401 40.8536 33.3456 41.4325 34.4834 42.5406C35.6212 43.6487 37.3133 43.5708 38.1976 41.679C39.1924 39.5507 36.9168 37.3344 33.8674 36.7736Z" fill="#546DDB"/>
<path d="M33.8674 36.7736C29.5475 35.9791 27.4462 37.5224 26.0001 39.4355C27.236 39.153 28.584 38.6306 30.8489 39.6892C33.3401 40.8536 33.3456 41.4325 34.4834 42.5406C35.6212 43.6487 37.3133 43.5708 38.1976 41.679C39.1924 39.5507 36.9168 37.3344 33.8674 36.7736Z" fill="black" fill-opacity="0.2"/>
<path d="M65.3664 37.1448C69.6191 36.0456 71.8246 37.4358 73.4029 39.2414C72.1501 39.0474 70.7683 38.6219 68.5844 39.8387C66.1821 41.1772 66.2178 41.7549 65.1616 42.941C64.1053 44.1272 62.4119 44.1696 61.3955 42.3454C60.2521 40.2931 62.3646 37.9208 65.3664 37.1448Z" fill="#546DDB"/>
<path d="M65.3664 37.1448C69.6191 36.0456 71.8246 37.4358 73.4029 39.2414C72.1501 39.0474 70.7683 38.6219 68.5844 39.8387C66.1821 41.1772 66.2178 41.7549 65.1616 42.941C64.1053 44.1272 62.4119 44.1696 61.3955 42.3454C60.2521 40.2931 62.3646 37.9208 65.3664 37.1448Z" fill="black" fill-opacity="0.2"/>
<path d="M44.5002 62.5C42.5995 59.3683 42.5 55.6618 43.1806 53C43.7116 55.6618 44.8845 60.2254 46.5 62C48.4987 64.1955 50.1731 65.8655 53.0001 64.9782C50 68.5 46.5194 65.8271 44.5002 62.5Z" fill="#FEFEFE" fill-opacity="0.15"/>
<path d="M12.5 40.5C15.6514 41.7605 16.5 44 17.5 47C12 45 9.31379 42.603 7 40C4.68621 37.397 2 32 1.5 29.5C2.5 31 5 37.5 12.5 40.5Z" fill="#546DDB"/>
<path d="M12.5 40.5C15.6514 41.7605 16.5 44 17.5 47C12 45 9.31379 42.603 7 40C4.68621 37.397 2 32 1.5 29.5C2.5 31 5 37.5 12.5 40.5Z" fill="black" fill-opacity="0.2"/>
<path d="M87 41C83.8486 42.2605 83 44.5 82 47.5C87.5 45.5 90.1862 43.103 92.5 40.5C94.8138 37.897 98 32.5 98.5 30C97.5 31.5 94.5 38 87 41Z" fill="#546DDB"/>
<path d="M87 41C83.8486 42.2605 83 44.5 82 47.5C87.5 45.5 90.1862 43.103 92.5 40.5C94.8138 37.897 98 32.5 98.5 30C97.5 31.5 94.5 38 87 41Z" fill="black" fill-opacity="0.2"/>
<path d="M90.5 77.5C90.5 72.6637 86.0233 71.4303 85.5 69.5C84.9766 67.5697 87.1868 75.6876 84.1465 78.9731C83.3529 81.7785 79.6639 85.369 77.251 86.0232C74.8382 86.6774 68.6811 86.897 68.6811 86.897L68.6726 92.5979C70.8646 93.0397 76.3663 93.65 82 91.5C86.6714 89.7173 90.5 82.3363 90.5 77.5Z" fill="#546DDB"/>
<path d="M90.5 77.5C90.5 72.6637 86.0233 71.4303 85.5 69.5C84.9766 67.5697 87.1868 75.6876 84.1465 78.9731C83.3529 81.7785 79.6639 85.369 77.251 86.0232C74.8382 86.6774 68.6811 86.897 68.6811 86.897L68.6726 92.5979C70.8646 93.0397 76.3663 93.65 82 91.5C86.6714 89.7173 90.5 82.3363 90.5 77.5Z" fill="black" fill-opacity="0.2"/>
<path d="M79.8651 70.1576L80.5867 65.1449L75.9993 68.5778L79.8651 70.1576Z" fill="#546DDB"/>
<path d="M79.8651 70.1576L80.5867 65.1449L75.9993 68.5778L79.8651 70.1576Z" fill="white" fill-opacity="0.6"/>
<path d="M79.8651 70.1576L80.5867 65.1449L75.9993 68.5778L79.8651 70.1576Z" stroke="#546DDB" stroke-width="1.68989"/>
<path d="M79.8651 70.1576L80.5867 65.1449L75.9993 68.5778L79.8651 70.1576Z" stroke="white" stroke-opacity="0.6" stroke-width="1.68989"/>
<path d="M81.4303 79.5568L84.6138 83.8977L78.9099 83.3539L81.4303 79.5568Z" fill="#546DDB"/>
<path d="M81.4303 79.5568L84.6138 83.8977L78.9099 83.3539L81.4303 79.5568Z" fill="white" fill-opacity="0.6"/>
<path d="M81.4303 79.5568L84.6138 83.8977L78.9099 83.3539L81.4303 79.5568Z" stroke="#546DDB" stroke-width="1.68989"/>
<path d="M81.4303 79.5568L84.6138 83.8977L78.9099 83.3539L81.4303 79.5568Z" stroke="white" stroke-opacity="0.6" stroke-width="1.68989"/>
<path d="M55.2787 76.976L54.9763 70.8223L50.5019 76.4604L55.2787 76.976Z" fill="#546DDB"/>
<path d="M55.2787 76.976L54.9763 70.8223L50.5019 76.4604L55.2787 76.976Z" fill="white" fill-opacity="0.6"/>
<path d="M55.2787 76.976L54.9763 70.8223L50.5019 76.4604L55.2787 76.976Z" stroke="#546DDB" stroke-width="1.68989"/>
<path d="M55.2787 76.976L54.9763 70.8223L50.5019 76.4604L55.2787 76.976Z" stroke="white" stroke-opacity="0.6" stroke-width="1.68989"/>
<path d="M56.3271 83.743L59.4441 89.2424L53.653 86.366L56.3271 83.743Z" fill="#546DDB"/>
<path d="M56.3271 83.743L59.4441 89.2424L53.653 86.366L56.3271 83.743Z" fill="white" fill-opacity="0.6"/>
<path d="M56.3271 83.743L59.4441 89.2424L53.653 86.366L56.3271 83.743Z" stroke="#546DDB" stroke-width="1.68989"/>
<path d="M56.3271 83.743L59.4441 89.2424L53.653 86.366L56.3271 83.743Z" stroke="white" stroke-opacity="0.6" stroke-width="1.68989"/>
<path d="M78.6518 83.93C83.4183 82.8929 93.3058 77.8592 92.1082 72.355C90.9106 66.8509 79.6348 66.4219 75.059 67.4175C70.4831 68.4131 47.2584 77.3095 36.218 81.6333C23.825 84.3297 -0.80108 90.4565 -0.162361 93.3921C0.476359 96.3276 25.2888 91.057 37.6151 88.0548C49.7052 87.0256 74.8386 84.7597 78.6518 83.93Z" fill="#546DDB"/>
<path d="M69.3065 72.3689L69.0041 66.2153L64.9169 71.2509L69.3065 72.3689Z" fill="#546DDB"/>
<path d="M69.3065 72.3689L69.0041 66.2153L64.9169 71.2509L69.3065 72.3689Z" fill="white" fill-opacity="0.6"/>
<path d="M69.3065 72.3689L69.0041 66.2153L64.9169 71.2509L69.3065 72.3689Z" stroke="#546DDB" stroke-width="1.68989"/>
<path d="M69.3065 72.3689L69.0041 66.2153L64.9169 71.2509L69.3065 72.3689Z" stroke="white" stroke-opacity="0.6" stroke-width="1.68989"/>
<path d="M88.4136 74.4311L92.1572 72.58L87.7676 71.462L88.4136 74.4311Z" fill="#546DDB"/>
<path d="M88.4136 74.4311L92.1572 72.58L87.7676 71.462L88.4136 74.4311Z" fill="white" fill-opacity="0.6"/>
<path d="M88.4136 74.4311L92.1572 72.58L87.7676 71.462L88.4136 74.4311Z" stroke="#546DDB" stroke-width="1.43242"/>
<path d="M88.4136 74.4311L92.1572 72.58L87.7676 71.462L88.4136 74.4311Z" stroke="white" stroke-opacity="0.6" stroke-width="1.43242"/>
<path d="M76.8198 78.1538L81.27 74.9488L75.8634 74.0886L76.8198 78.1538Z" fill="#546DDB"/>
<path d="M76.8198 78.1538L81.27 74.9488L75.8634 74.0886L76.8198 78.1538Z" fill="white" fill-opacity="0.6"/>
<path d="M76.8198 78.1538L81.27 74.9488L75.8634 74.0886L76.8198 78.1538Z" stroke="#546DDB" stroke-width="1.68989"/>
<path d="M76.8198 78.1538L81.27 74.9488L75.8634 74.0886L76.8198 78.1538Z" stroke="white" stroke-opacity="0.6" stroke-width="1.68989"/>
<path d="M60.9167 81.4504L65.3159 78.8559L59.6794 77.827L60.9167 81.4504Z" fill="#546DDB"/>
<path d="M60.9167 81.4504L65.3159 78.8559L59.6794 77.827L60.9167 81.4504Z" fill="white" fill-opacity="0.6"/>
<path d="M60.9167 81.4504L65.3159 78.8559L59.6794 77.827L60.9167 81.4504Z" stroke="#546DDB" stroke-width="1.68989"/>
<path d="M60.9167 81.4504L65.3159 78.8559L59.6794 77.827L60.9167 81.4504Z" stroke="white" stroke-opacity="0.6" stroke-width="1.68989"/>
<path d="M44.7253 84.125L48.469 82.2737L44.4352 81.9267L44.7253 84.125Z" fill="#546DDB"/>
<path d="M44.7253 84.125L48.469 82.2737L44.4352 81.9267L44.7253 84.125Z" fill="white" fill-opacity="0.6"/>
<path d="M44.7253 84.125L48.469 82.2737L44.4352 81.9267L44.7253 84.125Z" stroke="#546DDB" stroke-width="1.68989"/>
<path d="M44.7253 84.125L48.469 82.2737L44.4352 81.9267L44.7253 84.125Z" stroke="white" stroke-opacity="0.6" stroke-width="1.68989"/>
<path d="M71.4599 82.2661L75.8425 86.6417L68.9214 84.8916L71.4599 82.2661Z" fill="#546DDB"/>
<path d="M71.4599 82.2661L75.8425 86.6417L68.9214 84.8916L71.4599 82.2661Z" fill="white" fill-opacity="0.6"/>
<path d="M71.4599 82.2661L75.8425 86.6417L68.9214 84.8916L71.4599 82.2661Z" stroke="#546DDB" stroke-width="1.68989"/>
<path d="M71.4599 82.2661L75.8425 86.6417L68.9214 84.8916L71.4599 82.2661Z" stroke="white" stroke-opacity="0.6" stroke-width="1.68989"/>
<path d="M5.40195 72.6989C9.5 68.5 15 68.5 18.5 70C19.1503 73.1348 19.4999 76 16.616 80C13.284 76.624 11.2676 78.2099 10.5021 79.2169C9.54527 80.4757 10.4135 83.9099 11.2593 85.1487C12.1051 86.3875 12.9309 85.8236 15.4484 87.7373C17.9659 89.651 16.5961 91.1917 16.616 92.9944C16.636 94.797 12.0738 96.0956 11.2479 96.6595C10.422 97.2234 8.18651 95.7226 6.77683 93.6579C5.36716 91.5933 -1.64241 79.9166 5.40195 72.6989Z" fill="#546DDB"/>
<path d="M5.40195 72.6989C9.5 68.5 15 68.5 18.5 70C19.1503 73.1348 19.4999 76 16.616 80C13.284 76.624 11.2676 78.2099 10.5021 79.2169C9.54527 80.4757 10.4135 83.9099 11.2593 85.1487C12.1051 86.3875 12.9309 85.8236 15.4484 87.7373C17.9659 89.651 16.5961 91.1917 16.616 92.9944C16.636 94.797 12.0738 96.0956 11.2479 96.6595C10.422 97.2234 8.18651 95.7226 6.77683 93.6579C5.36716 91.5933 -1.64241 79.9166 5.40195 72.6989Z" fill="black" fill-opacity="0.2"/>
<path d="M57.8983 11.5011C57.3572 11.1043 55.9402 10.8923 54.6265 11.1695C53.3129 11.4467 52.3088 13.1916 52.5153 14.1701C52.7218 15.1485 54.1387 15.3605 55.6977 16.2452C57.2566 17.1299 58.8275 15.9041 59.3936 14.2516C59.9596 12.5991 58.4395 11.8979 57.8983 11.5011Z" fill="#546DDB"/>
<path d="M49.0655 19.4972C50.1727 18.2415 49.0904 17.4479 48.3428 16.0726C46.3847 15.4638 45.3807 17.2087 45.6259 18.3706C45.8711 19.5326 45.6655 20.7257 47.1857 21.4269C48.7059 22.1282 47.9583 20.7529 49.0655 19.4972Z" fill="#546DDB"/>
<path d="M43.5508 15.0398C45.3024 14.6702 48.0785 13.3406 46.8387 10.4258C45.5989 7.5109 41.6044 7.86513 38.3077 9.58285C35.6703 10.957 35.4391 13.4928 36.2347 15.0507C38.0479 16.2357 39.4977 14.9781 40.3834 13.9735C41.4907 12.7179 41.7992 15.4095 43.5508 15.0398Z" fill="#546DDB"/>
<path d="M56.1502 20.5572C55.8405 19.0895 55.2993 18.6927 54.4235 18.8775C53.5477 19.0624 53.8575 20.53 53.0849 21.2041C52.3123 21.8781 51.4365 22.0629 51.1019 22.6446C50.7672 23.2262 52.056 24.9983 54.6834 24.4438C55.5592 24.259 56.4599 22.0249 56.1502 20.5572Z" fill="#546DDB"/>
<path d="M62.4999 12C61.6999 12 61.8332 10.3333 61.9999 9.5C63.9999 10 66.9999 12 67.9998 13C68.9997 14 68.9998 15.1453 68.4999 16.0726C68 17 66 17.5 63.5 16.2452C61.6575 15.3204 64.9999 13.5 64.4999 12.5C63.9999 11.5 63.4999 12 62.4999 12Z" fill="#546DDB"/>
<path d="M34 23.5C32.5 22.5562 32.5 21.4269 33 20.5572C33.3333 20.2039 34.4469 19.4972 36.2347 19.4972C38.4695 19.4972 38.3077 22.6446 37.4999 23.5C36.6922 24.3554 35.5 24.4438 34 23.5Z" fill="#546DDB"/>
<path d="M65.3874 84.4348C66.3688 84.9976 69.3024 86.1363 69.6813 86.897L70.7688 92.8188C70.0081 93.1977 67.4611 93.612 65.8122 93.6446C64.1632 93.6773 63.8547 92.7939 62.7451 91.8859L61.9193 86.9293C62.7236 86.7113 64.4059 83.872 65.3874 84.4348Z" fill="#546DDB"/>
<path d="M65.3874 84.4348C66.3688 84.9976 69.3024 86.1363 69.6813 86.897L70.7688 92.8188C70.0081 93.1977 67.4611 93.612 65.8122 93.6446C64.1632 93.6773 63.8547 92.7939 62.7451 91.8859L61.9193 86.9293C62.7236 86.7113 64.4059 83.872 65.3874 84.4348Z" fill="black" fill-opacity="0.2"/>
</g>
<defs>
<clipPath id="clip0_2049_12111">
<rect width="100" height="100" fill="white"/>
</clipPath>
</defs>
</svg>
