<svg width="100" height="100" viewBox="0 0 100 100" fill="none" xmlns="http://www.w3.org/2000/svg">
<g clip-path="url(#clip0_3627_29750)">
<path d="M12.2949 159.794C14.2798 143.915 13.9671 137.495 20.2346 110.889L17.1009 82.3818C9.26592 107.088 1.11662 148.053 -3.58448 151.854L-34.6119 163.764C-32.5225 165.664 -33.3583 175.504 -34.6119 183.106C-35.8656 190.708 -29.9109 205.912 -29.9107 217.314C-29.9107 224.174 -29.9107 229.657 -29.9107 238.316L-29.9107 261.025C-25.2095 249.622 -12.673 228.717 -7.9717 213.514C-3.2704 198.31 9.16089 171.197 12.2949 159.794Z" fill="#898989"/>
<path d="M12.2949 159.794C14.2798 143.915 13.9671 137.495 20.2346 110.889L17.1009 82.3818C9.26592 107.088 1.11662 148.053 -3.58448 151.854L-34.6119 163.764C-32.5225 165.664 -33.3583 175.504 -34.6119 183.106C-35.8656 190.708 -29.9109 205.912 -29.9107 217.314C-29.9107 224.174 -29.9107 229.657 -29.9107 238.316L-29.9107 261.025C-25.2095 249.622 -12.673 228.717 -7.9717 213.514C-3.2704 198.31 9.16089 171.197 12.2949 159.794Z" fill="black" fill-opacity="0.4"/>
<path d="M106.677 167.749C102.707 155.839 100.722 143.93 92.7832 116.141L96.7526 86.3668C106.677 112.171 118.586 149.884 124.541 153.854L168.209 175.688C165.563 177.673 160.667 183.628 162.255 191.568C163.843 199.508 156.3 215.387 156.3 227.296C156.3 234.46 156.3 240.188 156.3 249.231L156.3 272.95C150.345 261.04 132.481 233.251 126.526 217.372C120.571 201.492 110.646 179.658 106.677 167.749Z" fill="#898989"/>
<path d="M106.677 167.749C102.707 155.839 100.722 143.93 92.7832 116.141L96.7526 86.3668C106.677 112.171 118.586 149.884 124.541 153.854L168.209 175.688C165.563 177.673 160.667 183.628 162.255 191.568C163.843 199.508 156.3 215.387 156.3 227.296C156.3 234.46 156.3 240.188 156.3 249.231L156.3 272.95C150.345 261.04 132.481 233.251 126.526 217.372C120.571 201.492 110.646 179.658 106.677 167.749Z" fill="black" fill-opacity="0.4"/>
<path d="M30.5 170.5L16 81L56.5 74L97.722 84.3819L81.8426 173.704C81.8426 173.704 89.7823 195.538 87.7974 201.492C85.8125 207.447 56.0386 274.935 56.0386 284.859C56.0386 294.784 84.2245 353.935 93.7522 360.286C105.662 368.226 151.315 384.106 151.315 384.106L179.104 380.136L200.938 388.075L212.848 386.09L228.727 396.015L212.848 392.045L200.938 396.015L179.104 392.045L151.315 398C151.315 398 121.541 390.06 115.586 390.06C109.632 390.06 97.722 398 89.7823 398C81.8426 398 73.9029 392.045 61.9933 390.06C50.0838 388.075 36.1893 398 28.2496 398C20.3099 398 14.8368 390.06 6.41544 390.06C-5.49411 390.06 -17.4037 398 -29.3132 398C-33.9668 398 -53.1323 393.606 -53.1323 393.606L-74.9665 398L-92.8308 393.606L-108.71 398L-92.8308 385.548L-74.9665 390.06L-53.1323 382.121H-25.3434C-25.3434 382.121 2.44559 366.241 6.41544 352.347C9.59132 341.231 12.3702 290.814 10.3853 276.92C8.40038 263.025 28.2496 193.553 28.2496 193.553L30.5 170.5Z" fill="#898989"/>
<path d="M30.5 170.5L16 81L56.5 74L97.722 84.3819L81.8426 173.704C81.8426 173.704 89.7823 195.538 87.7974 201.492C85.8125 207.447 56.0386 274.935 56.0386 284.859C56.0386 294.784 84.2245 353.935 93.7522 360.286C105.662 368.226 151.315 384.106 151.315 384.106L179.104 380.136L200.938 388.075L212.848 386.09L228.727 396.015L212.848 392.045L200.938 396.015L179.104 392.045L151.315 398C151.315 398 121.541 390.06 115.586 390.06C109.632 390.06 97.722 398 89.7823 398C81.8426 398 73.9029 392.045 61.9933 390.06C50.0838 388.075 36.1893 398 28.2496 398C20.3099 398 14.8368 390.06 6.41544 390.06C-5.49411 390.06 -17.4037 398 -29.3132 398C-33.9668 398 -53.1323 393.606 -53.1323 393.606L-74.9665 398L-92.8308 393.606L-108.71 398L-92.8308 385.548L-74.9665 390.06L-53.1323 382.121H-25.3434C-25.3434 382.121 2.44559 366.241 6.41544 352.347C9.59132 341.231 12.3702 290.814 10.3853 276.92C8.40038 263.025 28.2496 193.553 28.2496 193.553L30.5 170.5Z" fill="black" fill-opacity="0.2"/>
<path d="M0.460449 42.6983C19.9443 56.2341 24.2795 60.5629 36.1891 76.4423L63.9781 78.4271L91.767 36.7438C91.767 34.7589 89.0129 29.8709 79.8575 26.8191C54.6048 18.4013 30.2343 42.6983 0.460449 42.6983Z" fill="#898989"/>
<path d="M0.460449 42.6983C19.9443 56.2341 24.2795 60.5629 36.1891 76.4423L63.9781 78.4271L91.767 36.7438C91.767 34.7589 89.0129 29.8709 79.8575 26.8191C54.6048 18.4013 30.2343 42.6983 0.460449 42.6983Z" fill="black" fill-opacity="0.4"/>
<path d="M43.5 108C41.5151 100.06 40.1591 82.3969 36.1892 76.4421H65.9631C63.9782 82.3969 60.4849 97.5905 58.5 109.5C57.0942 117.935 51.5 128.696 51.5 154.5C47.5302 126.711 46.6379 120.552 43.5 108Z" fill="#898989"/>
<path d="M43.5 108C41.5151 100.06 40.1591 82.3969 36.1892 76.4421H65.9631C63.9782 82.3969 60.4849 97.5905 58.5 109.5C57.0942 117.935 51.5 128.696 51.5 154.5C47.5302 126.711 46.6379 120.552 43.5 108Z" fill="black" fill-opacity="0.4"/>
<path d="M93.4621 17.4675C97.0911 14.7669 91.0957 3.30006 61.0265 7.38514C85.2783 7.47048 94.0689 16.7327 85.7976 19.0538C83.0602 19.6203 81.3942 21.1836 90.0596 24.2641C100.891 28.1148 61.8714 30.5331 68.9685 35.766C78.5326 42.8178 64.9728 47.1243 59.2638 43.4319C53.5548 39.7395 29.6428 35.5497 23.7572 41.0325C17.8717 46.5153 36.2926 50.0106 31.5123 55.329C26.732 60.6473 3.44212 48.2832 1.77974 55.329C0.117363 62.3747 19.578 64.4396 17.01 68.6265C14.442 72.8135 6.60452 71.9986 5.39552 77.1227C3.74458 84.1201 26.5 97.5 40.5 92C26.5 93.5 8.72725 82.3801 10.5182 77.281C11.672 73.996 21.663 76.193 23.7162 71.5033C25.5804 67.2454 16.4237 65.0924 19.0244 60.2894C21.6252 55.4864 40.1991 65.0457 42.7021 59.6537C45.2051 54.2617 28.0088 50.2111 30.5118 44.8191C33.0148 39.4271 52.1467 44.9049 60.0456 48.1441C67.9444 51.3833 79.7933 47.7125 78.9727 39.3529C78.152 30.9933 101.113 29.0575 100.045 24.2642C98.9774 19.4708 88.9257 20.8433 93.4621 17.4675Z" fill="#2FC4A7" fill-opacity="0.6"/>
<path d="M42.5514 4.65846L46.676 14.45L48.3468 3.95738L45.2738 2.85906L42.5514 4.65846Z" stroke="#FAA21E" stroke-width="2.91885"/>
<path d="M42.5514 4.65846L46.676 14.45L48.3468 3.95738L45.2738 2.85906L42.5514 4.65846Z" stroke="black" stroke-opacity="0.4" stroke-width="2.91885"/>
<path d="M55.964 91.2266C48.4801 85.358 46.4072 82.2218 45.5996 75.5456L62.2902 73.5265C63.0978 80.2028 61.8326 83.7428 55.964 91.2266Z" fill="#FAA21E"/>
<path d="M55.964 91.2266C48.4801 85.358 46.4072 82.2218 45.5996 75.5456L62.2902 73.5265C63.0978 80.2028 61.8326 83.7428 55.964 91.2266Z" fill="black" fill-opacity="0.4"/>
<path d="M32.8122 39.8359C32.193 34.7175 30.4099 26.3098 29.0904 23.069L52.4179 20.2471C51.8626 25.8786 50.6606 33.3888 51.3737 39.284C52.1814 45.9602 56.5668 61.8807 58.1443 67.2542C53.6111 68.1117 44.467 69.6506 41.4537 69.2732C38.4404 68.8958 33.0592 65.9878 30.6317 63.8084C32.4794 58.6389 33.4314 44.9543 32.8122 39.8359Z" fill="#2FC4A7"/>
<path d="M32.8122 39.8359C32.193 34.7175 30.4099 26.3098 29.0904 23.069L52.4179 20.2471C51.8626 25.8786 50.6606 33.3888 51.3737 39.284C52.1814 45.9602 56.5668 61.8807 58.1443 67.2542C53.6111 68.1117 44.467 69.6506 41.4537 69.2732C38.4404 68.8958 33.0592 65.9878 30.6317 63.8084C32.4794 58.6389 33.4314 44.9543 32.8122 39.8359Z" fill="white" fill-opacity="0.2"/>
<path d="M65.3228 19.6033L51.3927 19.4437C50.6163 23.2471 49.5338 33.2084 51.4149 42.6256C53.296 52.0428 54.2002 62.6508 57.1423 66.9721L66.2874 64.5755L74.027 58.5588C71.2677 53.6374 67.0821 43.1463 66.1931 35.7977C65.3855 29.1215 64.8609 20.8957 65.3228 19.6033Z" fill="#2FC4A7"/>
<path d="M35.7597 74.1957C34.4664 73.5054 27.2942 64.2122 28.8383 62.977C30.3824 61.7419 47.4843 67 57 64.5C65.5483 62.2541 73.7777 56.4924 75.5719 57.3237C77.3661 58.155 71.901 68.977 71.406 69.8836C70.911 70.7902 64.8271 74.5228 58.5 76.5C50.5 79 37.053 74.886 35.7597 74.1957Z" fill="#C57A09"/>
<path d="M50.5 20.5C43.5 20.5 27.6576 25.2181 26.9365 24.257C27.5556 21.7091 32.4818 16.1671 38.3314 15.4595L46.6767 14.45L54.3862 13.5174C58.0422 13.0751 68.2059 16.7648 67.513 18.7033C66.8202 20.6419 56.9447 20.5 50.5 20.5Z" fill="#C57A09"/>
<path d="M91.4611 15.2326C95.0902 12.532 85.5384 0.121812 59.5259 7.38513C82.537 6.2677 92.068 14.4978 83.7966 16.8189C81.0593 17.3854 79.3933 18.9487 88.0587 22.0293C98.8904 25.88 59.8704 28.2983 66.9675 33.5311C76.5316 40.583 62.9718 44.8894 57.2628 41.197C51.5538 37.5046 27.6418 33.3148 21.7563 38.7976C15.8708 44.2804 34.2916 47.7757 29.5113 53.0941C24.731 58.4125 2.15969 45.5954 0.497317 52.6411C-1.16506 59.6869 17.5771 62.2047 15.0091 66.3916C12.4411 70.5786 4.60358 69.7637 3.39458 74.8879C1.74364 81.8852 22.212 101 40.7011 92C23 95.5 6.7263 80.1453 8.51723 75.0462C9.67102 71.7611 19.662 73.9581 21.7153 69.2684C23.5795 65.0106 14.4227 62.8575 17.0235 58.0545C19.6242 53.2516 38.1981 62.8109 40.7011 57.4189C43.2042 52.0269 26.0078 47.9762 28.5108 42.5842C31.0139 37.1922 50.1458 42.67 58.0446 45.9092C65.9435 49.1484 77.7924 45.4776 76.9717 37.118C76.1511 28.7584 99.1193 26.8578 98.0514 22.0644C96.9835 17.2711 86.9248 18.6085 91.4611 15.2326Z" fill="#FEFEFE" fill-opacity="0.4"/>
<path d="M58.0232 54.608C70.2966 54.8808 85.8487 45.325 91.7669 36.7437C89.782 44.6834 86.2091 57.3869 83.8272 60.5627C77.1696 69.4396 71.9177 74.4572 67.9478 84.3818C63.978 94.3065 60.0081 108.201 60.0081 108.201C61.993 94.3065 61.993 88.3517 63.978 82.3969C65.9629 76.4421 65.9629 72.7944 65.9629 66.5175C65.9629 60.5627 60.0081 56.5929 58.0232 54.608Z" fill="#898989"/>
<path d="M58.0232 54.608C70.2966 54.8808 85.8487 45.325 91.7669 36.7437C89.782 44.6834 86.2091 57.3869 83.8272 60.5627C77.1696 69.4396 71.9177 74.4572 67.9478 84.3818C63.978 94.3065 60.0081 108.201 60.0081 108.201C61.993 94.3065 61.993 88.3517 63.978 82.3969C65.9629 76.4421 65.9629 72.7944 65.9629 66.5175C65.9629 60.5627 60.0081 56.5929 58.0232 54.608Z" fill="black" fill-opacity="0.2"/>
</g>
<defs>
<clipPath id="clip0_3627_29750">
<rect width="100" height="100" fill="white"/>
</clipPath>
</defs>
</svg>
