<svg width="100" height="100" viewBox="0 0 100 100" fill="none" xmlns="http://www.w3.org/2000/svg">
<g clip-path="url(#clip0_2049_12080)">
<path d="M18.8333 38.0055C17.7 48.804 14.4722 91.6679 14 100H86.5C85.713 91.5012 81.7556 47.3985 81 37C80.0556 24.0018 69.3611 6.51 49.5278 7.00993C29.6944 7.50986 20.25 24.5074 18.8333 38.0055Z" fill="#546DDB"/>
<path d="M18.8333 38.0055C17.7 48.804 14.4722 91.6679 14 100H86.5C85.713 91.5012 81.7556 47.3985 81 37C80.0556 24.0018 69.3611 6.51 49.5278 7.00993C29.6944 7.50986 20.25 24.5074 18.8333 38.0055Z" fill="white" fill-opacity="0.2"/>
<path d="M81.4843 90.9456C80.1214 90.1342 77.5757 89.7789 75.5217 87.3958C75.5217 87.3958 76.298 89.0183 77.1498 89.5254C78.0016 90.0325 80.2114 90.768 81.2336 91.3765C82.5113 92.1372 83.006 93.1645 82.7861 94.6215C82.6856 95.2869 81.806 96.3059 80.7803 98.0687C79.7546 99.8315 79.3792 100.969 78.7745 101.516C77.5964 102.555 76.5838 102.297 75.2162 101.718C74.296 101.329 72.9799 99.6484 71.6338 99.0053C70.2877 98.3621 69.0029 98.5993 69.0029 98.5993C71.2079 98.7517 73.9007 101.515 74.9654 102.149C76.669 103.163 77.3457 102.986 78.5408 102.41C79.7359 101.835 80.6292 100.299 81.6321 98.5758C82.635 96.8522 83.3977 95.16 83.3829 94.0884C83.3631 92.6443 83.1879 91.9598 81.4843 90.9456Z" fill="#546DDB"/>
<path d="M81.4843 90.9456C80.1214 90.1342 77.5757 89.7789 75.5217 87.3958C75.5217 87.3958 76.298 89.0183 77.1498 89.5254C78.0016 90.0325 80.2114 90.768 81.2336 91.3765C82.5113 92.1372 83.006 93.1645 82.7861 94.6215C82.6856 95.2869 81.806 96.3059 80.7803 98.0687C79.7546 99.8315 79.3792 100.969 78.7745 101.516C77.5964 102.555 76.5838 102.297 75.2162 101.718C74.296 101.329 72.9799 99.6484 71.6338 99.0053C70.2877 98.3621 69.0029 98.5993 69.0029 98.5993C71.2079 98.7517 73.9007 101.515 74.9654 102.149C76.669 103.163 77.3457 102.986 78.5408 102.41C79.7359 101.835 80.6292 100.299 81.6321 98.5758C82.635 96.8522 83.3977 95.16 83.3829 94.0884C83.3631 92.6443 83.1879 91.9598 81.4843 90.9456Z" fill="white" fill-opacity="0.6"/>
<path d="M81.4843 90.9456C80.1214 90.1342 77.5757 89.7789 75.5217 87.3958C75.5217 87.3958 76.298 89.0183 77.1498 89.5254C78.0016 90.0325 80.2114 90.768 81.2336 91.3765C82.5113 92.1372 83.006 93.1645 82.7861 94.6215C82.6856 95.2869 81.806 96.3059 80.7803 98.0687C79.7546 99.8315 79.3792 100.969 78.7745 101.516C77.5964 102.555 76.5838 102.297 75.2162 101.718C74.296 101.329 72.9799 99.6484 71.6338 99.0053C70.2877 98.3621 69.0029 98.5993 69.0029 98.5993C71.2079 98.7517 73.9007 101.515 74.9654 102.149C76.669 103.163 77.3457 102.986 78.5408 102.41C79.7359 101.835 80.6292 100.299 81.6321 98.5758C82.635 96.8522 83.3977 95.16 83.3829 94.0884C83.3631 92.6443 83.1879 91.9598 81.4843 90.9456Z" stroke="#546DDB" stroke-width="1.99259" stroke-linejoin="round"/>
<path d="M81.4843 90.9456C80.1214 90.1342 77.5757 89.7789 75.5217 87.3958C75.5217 87.3958 76.298 89.0183 77.1498 89.5254C78.0016 90.0325 80.2114 90.768 81.2336 91.3765C82.5113 92.1372 83.006 93.1645 82.7861 94.6215C82.6856 95.2869 81.806 96.3059 80.7803 98.0687C79.7546 99.8315 79.3792 100.969 78.7745 101.516C77.5964 102.555 76.5838 102.297 75.2162 101.718C74.296 101.329 72.9799 99.6484 71.6338 99.0053C70.2877 98.3621 69.0029 98.5993 69.0029 98.5993C71.2079 98.7517 73.9007 101.515 74.9654 102.149C76.669 103.163 77.3457 102.986 78.5408 102.41C79.7359 101.835 80.6292 100.299 81.6321 98.5758C82.635 96.8522 83.3977 95.16 83.3829 94.0884C83.3631 92.6443 83.1879 91.9598 81.4843 90.9456Z" stroke="white" stroke-opacity="0.6" stroke-width="1.99259" stroke-linejoin="round"/>
<path d="M56.6795 84.3004L82.2334 99.514L82.7349 98.6522L57.181 83.4386L52.6713 81.3339L56.6795 84.3004Z" fill="#546DDB"/>
<path d="M56.6795 84.3004L82.2334 99.514L82.7349 98.6522L57.181 83.4386L52.6713 81.3339L56.6795 84.3004Z" fill="white" fill-opacity="0.6"/>
<path d="M56.6795 84.3004L82.2334 99.514L82.7349 98.6522L57.181 83.4386L52.6713 81.3339L56.6795 84.3004Z" stroke="#546DDB" stroke-width="1.99259" stroke-linejoin="round"/>
<path d="M56.6795 84.3004L82.2334 99.514L82.7349 98.6522L57.181 83.4386L52.6713 81.3339L56.6795 84.3004Z" stroke="white" stroke-opacity="0.6" stroke-width="1.99259" stroke-linejoin="round"/>
<path d="M94.1166 104.877C93.5473 104.538 83.9012 98.2152 83.3997 99.077L82.8983 99.9388C82.3968 100.801 92.7111 106.361 93.1137 106.601C93.9188 107.08 94.572 106.889 94.8227 106.458C95.0735 106.027 94.9217 105.356 94.1166 104.877Z" fill="#546DDB" stroke="#546DDB" stroke-width="1.99259"/>
<path d="M0.0557715 28.363C0.524875 26.9063 13.5425 30.1839 19.9927 32.0048L18.82 49C17.6472 48.5954 13.7524 47.5912 9.43784 44.1442C2.99889 39 -0.530608 30.1839 0.0557715 28.363Z" fill="#546DDB"/>
<path d="M0.0557715 28.363C0.524875 26.9063 13.5425 30.1839 19.9927 32.0048L18.82 49C17.6472 48.5954 13.7524 47.5912 9.43784 44.1442C2.99889 39 -0.530608 30.1839 0.0557715 28.363Z" fill="white" fill-opacity="0.2"/>
<path d="M99.9369 28.363C99.4678 26.9063 86.4502 30.1839 80 32.0048L81.1726 49C82.3454 48.5954 86.2403 47.5912 90.5548 44.1442C96.9938 39 100.523 30.1839 99.9369 28.363Z" fill="#546DDB"/>
<path d="M99.9369 28.363C99.4678 26.9063 86.4502 30.1839 80 32.0048L81.1726 49C82.3454 48.5954 86.2403 47.5912 90.5548 44.1442C96.9938 39 100.523 30.1839 99.9369 28.363Z" fill="white" fill-opacity="0.2"/>
<circle cx="30.5" cy="43.5" r="4.5" fill="#CE4317"/>
<circle cx="30.5" cy="43.5" r="4.5" fill="white" fill-opacity="0.15"/>
<circle cx="69.5" cy="43.5" r="4.5" fill="#CE4317"/>
<circle cx="69.5" cy="43.5" r="4.5" fill="white" fill-opacity="0.15"/>
<path d="M33 60.5C36.3333 60 44.5 59 50.5 59C56.5 59 64 60 67 60.5" stroke="#546DDB" stroke-linecap="round"/>
<path d="M33 60.5C36.3333 60 44.5 59 50.5 59C56.5 59 64 60 67 60.5" stroke="black" stroke-opacity="0.2" stroke-linecap="round"/>
<path d="M37 64.5714C36.52 64.1143 36.5 61.6429 36.5 60.5L42 60C42 61.3333 42.48 64.0429 42 64.5C41.4 65.0714 37.6 65.1429 37 64.5714Z" fill="#FAA21E"/>
<path d="M37 64.5714C36.52 64.1143 36.5 61.6429 36.5 60.5L42 60C42 61.3333 42.48 64.0429 42 64.5C41.4 65.0714 37.6 65.1429 37 64.5714Z" fill="white" fill-opacity="0.4"/>
<path d="M38 55.2807C38 51.0059 42.2449 45.9791 44.3673 44H55C55 44 62 49.5 62 55.2807C62 61.0613 57.7449 66 50 66C42.6246 66 38 60.6241 38 55.2807Z" fill="#546DDB"/>
<path d="M38 55.2807C38 51.0059 42.2449 45.9791 44.3673 44H55C55 44 62 49.5 62 55.2807C62 61.0613 57.7449 66 50 66C42.6246 66 38 60.6241 38 55.2807Z" fill="white" fill-opacity="0.2"/>
<path d="M43 44.5C40.8776 46.4791 38 51.0059 38 55.2807C38 60.6241 42.6246 66 50 66C57.7449 66 62 61.0613 62 55.2807C62 49.5 56.5 44.5 56.5 44.5" stroke="#546DDB" stroke-linecap="round" stroke-linejoin="round"/>
<path d="M43 44.5C40.8776 46.4791 38 51.0059 38 55.2807C38 60.6241 42.6246 66 50 66C57.7449 66 62 61.0613 62 55.2807C62 49.5 56.5 44.5 56.5 44.5" stroke="black" stroke-opacity="0.2" stroke-linecap="round" stroke-linejoin="round"/>
<path d="M28.9223 35.4989C24.9959 37.4678 24.2489 39.9656 24.2475 42.3637C25.0636 41.3936 25.8247 40.1644 28.27 39.6446C30.9599 39.0728 31.313 39.5315 32.8888 39.7303C34.4646 39.9291 35.7681 38.8474 35.334 36.8047C34.8455 34.5067 31.694 34.1091 28.9223 35.4989Z" fill="#546DDB"/>
<path d="M28.9223 35.4989C24.9959 37.4678 24.2489 39.9656 24.2475 42.3637C25.0636 41.3936 25.8247 40.1644 28.27 39.6446C30.9599 39.0728 31.313 39.5315 32.8888 39.7303C34.4646 39.9291 35.7681 38.8474 35.334 36.8047C34.8455 34.5067 31.694 34.1091 28.9223 35.4989Z" fill="black" fill-opacity="0.2"/>
<path d="M71.063 35.4989C74.9894 37.4678 75.7365 39.9656 75.7379 42.3637C74.9217 41.3936 74.1607 40.1644 71.7153 39.6446C69.0254 39.0728 68.6723 39.5315 67.0966 39.7303C65.5208 39.9291 64.2172 38.8474 64.6514 36.8047C65.1399 34.5067 68.2914 34.1091 71.063 35.4989Z" fill="#546DDB"/>
<path d="M71.063 35.4989C74.9894 37.4678 75.7365 39.9656 75.7379 42.3637C74.9217 41.3936 74.1607 40.1644 71.7153 39.6446C69.0254 39.0728 68.6723 39.5315 67.0966 39.7303C65.5208 39.9291 64.2172 38.8474 64.6514 36.8047C65.1399 34.5067 68.2914 34.1091 71.063 35.4989Z" fill="black" fill-opacity="0.2"/>
<path d="M42.5001 60C40.5001 57.6 40.3333 54.3333 41 53C41.3333 53.8333 43.1001 57.5 45.5 59.5C47.6455 61.2879 50 62.5 54 62.5C50 64 45.0001 63 42.5001 60Z" fill="#FEFEFE" fill-opacity="0.15"/>
<path d="M12.5 40.5C15.6514 41.7605 16.5 44 17.5 47C12 45 9.31379 42.603 7 40C4.68621 37.397 2 32 1.5 29.5C2.5 31 5 37.5 12.5 40.5Z" fill="#546DDB"/>
<path d="M12.5 40.5C15.6514 41.7605 16.5 44 17.5 47C12 45 9.31379 42.603 7 40C4.68621 37.397 2 32 1.5 29.5C2.5 31 5 37.5 12.5 40.5Z" fill="black" fill-opacity="0.2"/>
<path d="M87 41C83.8486 42.2605 83 44.5 82 47.5C87.5 45.5 90.1862 43.103 92.5 40.5C94.8138 37.897 98 32.5 98.5 30C97.5 31.5 94.5 38 87 41Z" fill="#546DDB"/>
<path d="M87 41C83.8486 42.2605 83 44.5 82 47.5C87.5 45.5 90.1862 43.103 92.5 40.5C94.8138 37.897 98 32.5 98.5 30C97.5 31.5 94.5 38 87 41Z" fill="black" fill-opacity="0.2"/>
<path d="M34.6164 91.0784C36.3145 90.2228 38.313 87.8775 42.0453 87.3354C42.0453 87.3354 39.9049 87.0755 38.8436 87.6102C37.7824 88.1449 35.6157 89.9057 34.3422 90.5474C32.7503 91.3495 31.393 91.1882 30.0614 90.0276C29.4533 89.4975 28.9894 87.9519 27.8675 85.7797C26.7456 83.6074 25.8367 82.4951 25.6735 81.5317C25.3814 79.6714 26.2942 78.8136 27.7604 77.8036C28.7468 77.1241 31.2932 76.8753 32.8103 75.9284C34.3274 74.9815 34.915 73.5296 34.915 73.5296C33.3409 75.661 28.8127 76.6042 27.4861 77.2726C25.3636 78.3421 25.1072 79.1404 24.9197 80.7196C24.7322 82.2988 25.7092 84.1904 26.8062 86.3144C27.9032 88.4383 29.123 90.2992 30.216 90.9743C31.689 91.8842 32.4939 92.1478 34.6164 91.0784Z" fill="#546DDB"/>
<path d="M34.6164 91.0784C36.3145 90.2228 38.313 87.8775 42.0453 87.3354C42.0453 87.3354 39.9049 87.0755 38.8436 87.6102C37.7824 88.1449 35.6157 89.9057 34.3422 90.5474C32.7503 91.3495 31.393 91.1882 30.0614 90.0276C29.4533 89.4975 28.9894 87.9519 27.8675 85.7797C26.7456 83.6074 25.8367 82.4951 25.6735 81.5317C25.3814 79.6714 26.2942 78.8136 27.7604 77.8036C28.7468 77.1241 31.2932 76.8753 32.8103 75.9284C34.3274 74.9815 34.915 73.5296 34.915 73.5296C33.3409 75.661 28.8127 76.6042 27.4861 77.2726C25.3636 78.3421 25.1072 79.1404 24.9197 80.7196C24.7322 82.2988 25.7092 84.1904 26.8062 86.3144C27.9032 88.4383 29.123 90.2992 30.216 90.9743C31.689 91.8842 32.4939 92.1478 34.6164 91.0784Z" fill="white" fill-opacity="0.6"/>
<path d="M34.6164 91.0784C36.3145 90.2228 38.313 87.8775 42.0453 87.3354C42.0453 87.3354 39.9049 87.0755 38.8436 87.6102C37.7824 88.1449 35.6157 89.9057 34.3422 90.5474C32.7503 91.3495 31.393 91.1882 30.0614 90.0276C29.4533 89.4975 28.9894 87.9519 27.8675 85.7797C26.7456 83.6074 25.8367 82.4951 25.6735 81.5317C25.3814 79.6714 26.2942 78.8136 27.7604 77.8036C28.7468 77.1241 31.2932 76.8753 32.8103 75.9284C34.3274 74.9815 34.915 73.5296 34.915 73.5296C33.3409 75.661 28.8127 76.6042 27.4861 77.2726C25.3636 78.3421 25.1072 79.1404 24.9197 80.7196C24.7322 82.2988 25.7092 84.1904 26.8062 86.3144C27.9032 88.4383 29.123 90.2992 30.216 90.9743C31.689 91.8842 32.4939 92.1478 34.6164 91.0784Z" stroke="#546DDB" stroke-width="1.99259" stroke-linejoin="round"/>
<path d="M34.6164 91.0784C36.3145 90.2228 38.313 87.8775 42.0453 87.3354C42.0453 87.3354 39.9049 87.0755 38.8436 87.6102C37.7824 88.1449 35.6157 89.9057 34.3422 90.5474C32.7503 91.3495 31.393 91.1882 30.0614 90.0276C29.4533 89.4975 28.9894 87.9519 27.8675 85.7797C26.7456 83.6074 25.8367 82.4951 25.6735 81.5317C25.3814 79.6714 26.2942 78.8136 27.7604 77.8036C28.7468 77.1241 31.2932 76.8753 32.8103 75.9284C34.3274 74.9815 34.915 73.5296 34.915 73.5296C33.3409 75.661 28.8127 76.6042 27.4861 77.2726C25.3636 78.3421 25.1072 79.1404 24.9197 80.7196C24.7322 82.2988 25.7092 84.1904 26.8062 86.3144C27.9032 88.4383 29.123 90.2992 30.216 90.9743C31.689 91.8842 32.4939 92.1478 34.6164 91.0784Z" stroke="white" stroke-opacity="0.6" stroke-width="1.99259" stroke-linejoin="round"/>
<path d="M57.3085 70.2768L25.4705 86.3182L26.019 87.3802L57.857 71.3387L62.8891 68.1342L57.3085 70.2768Z" fill="#546DDB"/>
<path d="M57.3085 70.2768L25.4705 86.3182L26.019 87.3802L57.857 71.3387L62.8891 68.1342L57.3085 70.2768Z" fill="white" fill-opacity="0.6"/>
<path d="M57.3085 70.2768L25.4705 86.3182L26.019 87.3802L57.857 71.3387L62.8891 68.1342L57.3085 70.2768Z" stroke="#546DDB" stroke-width="1.99259" stroke-linejoin="round"/>
<path d="M57.3085 70.2768L25.4705 86.3182L26.019 87.3802L57.857 71.3387L62.8891 68.1342L57.3085 70.2768Z" stroke="white" stroke-opacity="0.6" stroke-width="1.99259" stroke-linejoin="round"/>
<path d="M12.3955 94.8801C13.1047 94.5228 25.7096 88.8411 25.1611 87.7791L24.6126 86.7171C24.0641 85.6551 11.8 92.5035 11.2985 92.7562C10.2954 93.2616 10.0681 94.0453 10.3424 94.5763C10.6166 95.1072 11.3924 95.3855 12.3955 94.8801Z" fill="#546DDB" stroke="#546DDB" stroke-width="1.99259"/>
<path d="M2.50012 77.5C5.19089 70.8217 11 68.5 17 68C19 70.5 19 74.5 16.5001 78.9999C12.0001 77.4999 10.2261 79.7554 9.99991 81C9.71718 82.5556 12.0471 85.2238 13.3623 85.9449C14.6776 86.6661 15.1584 85.7892 18.2697 86.3547C21.381 86.9201 20.8579 88.9142 21.6924 90.5122C22.5269 92.1102 19.0482 95.3349 18.5674 96.2117C18.0866 97.0886 15.4137 96.7635 13.2216 95.5616C11.0295 94.3597 -1.26903 86.8548 2.50012 77.5Z" fill="#546DDB"/>
<path d="M2.50012 77.5C5.19089 70.8217 11 68.5 17 68C19 70.5 19 74.5 16.5001 78.9999C12.0001 77.4999 10.2261 79.7554 9.99991 81C9.71718 82.5556 12.0471 85.2238 13.3623 85.9449C14.6776 86.6661 15.1584 85.7892 18.2697 86.3547C21.381 86.9201 20.8579 88.9142 21.6924 90.5122C22.5269 92.1102 19.0482 95.3349 18.5674 96.2117C18.0866 97.0886 15.4137 96.7635 13.2216 95.5616C11.0295 94.3597 -1.26903 86.8548 2.50012 77.5Z" fill="black" fill-opacity="0.2"/>
<path d="M40 11.5C40.5 11 42 10.5 43.5 10.5C44.9999 10.5 46.5 12 46.5 13C46.5 14 45 14.5 43.5 15.6875C41.9999 16.875 40 16 39 14.5C38 13 39.5 12 40 11.5Z" fill="#546DDB"/>
<path d="M51.5 17.5C50 16.5 51 15.5 51.5 14C53.5 13 55 14.5 55 15.6875C55 16.875 55.5 18 54 19C52.5 20 53 18.5 51.5 17.5Z" fill="#546DDB"/>
<path d="M56.5 12C54.5 12 51.5 9.5 51 7C52.5 7 54 7 58 7.99999C61.2 8.79998 63.6667 9.99999 64.5 10.5C64.3333 11 63.7 11.8 62.5 11C61 9.99999 58.5 12 56.5 12Z" fill="#546DDB"/>
<path d="M44 20C44 18.5 44.5 18 45.5 18C46.5 18 46.5 19.5 47.5 20C48.5 20.5 49.5 20.5 50 21C50.5 21.5 49.5 23.5 46.5 23.5C45.5 23.5 44 21.5 44 20Z" fill="#546DDB"/>
<path d="M88.8992 72.5C86.3992 69.1667 85.3991 68 83.3991 68C81.3992 68 81.5237 76.2059 83.8992 80C86.3992 81.5 88.8992 86 88.8992 88.5C88.8992 91 87.5 97 87.5 97L93 98.5C94 96.5 96.5 93 95.8992 87C95.401 82.0249 91.3991 75.8333 88.8992 72.5Z" fill="#546DDB"/>
<path d="M88.8992 72.5C86.3992 69.1667 85.3991 68 83.3991 68C81.3992 68 81.5237 76.2059 83.8992 80C86.3992 81.5 88.8992 86 88.8992 88.5C88.8992 91 87.5 97 87.5 97L93 98.5C94 96.5 96.5 93 95.8992 87C95.401 82.0249 91.3991 75.8333 88.8992 72.5Z" fill="black" fill-opacity="0.2"/>
<path d="M84 100.5C84.8 99.7 86.6667 97.1667 87.5 97L93.5001 97.5C93.6667 98.3333 93.4001 100.9 93.0001 102.5C92.6001 104.1 91.6667 104.167 90.5001 105L85.5 104.5C85.5 103.667 83.2 101.3 84 100.5Z" fill="#546DDB"/>
<path d="M84 100.5C84.8 99.7 86.6667 97.1667 87.5 97L93.5001 97.5C93.6667 98.3333 93.4001 100.9 93.0001 102.5C92.6001 104.1 91.6667 104.167 90.5001 105L85.5 104.5C85.5 103.667 83.2 101.3 84 100.5Z" fill="black" fill-opacity="0.2"/>
</g>
<defs>
<clipPath id="clip0_2049_12080">
<rect width="100" height="100" fill="white"/>
</clipPath>
</defs>
</svg>
