<svg width="100" height="100" viewBox="0 0 100 100" fill="none" xmlns="http://www.w3.org/2000/svg">
<g clip-path="url(#clip0_2351_11204)">
<path d="M44.3827 126.258C52.0303 134.632 57.7516 136.908 59.738 135.094L85 101.5L90.5 89.5L100.001 75.4636L67.5 89.5L36.9728 110.166C34.9865 111.98 37.2685 118.468 44.3827 126.258Z" fill="#C57A09"/>
<path fill-rule="evenodd" clip-rule="evenodd" d="M71.9012 87.4737L69.4999 88.5L36.9727 110.166C34.9863 111.98 37.2684 118.468 44.3826 126.258C52.0302 134.632 57.7515 136.908 59.7379 135.094L79.9999 114.5L89.9999 90L98.6108 77.4843L84.7252 86.4043V101.654H83.2446V98.3165L72.4886 88.0351L71.9012 87.4737ZM97.0607 76.7203L73.8635 86.6349L83.7226 85.2887L97.0607 76.7203ZM83.2446 86.8483V96.2683L74.6215 88.0258L83.2446 86.8483Z" fill="#FAA21E"/>
<path fill-rule="evenodd" clip-rule="evenodd" d="M71.9012 87.4737L69.4999 88.5L36.9727 110.166C34.9863 111.98 37.2684 118.468 44.3826 126.258C52.0302 134.632 57.7515 136.908 59.7379 135.094L79.9999 114.5L89.9999 90L98.6108 77.4843L84.7252 86.4043V101.654H83.2446V98.3165L72.4886 88.0351L71.9012 87.4737ZM97.0607 76.7203L73.8635 86.6349L83.7226 85.2887L97.0607 76.7203ZM83.2446 86.8483V96.2683L74.6215 88.0258L83.2446 86.8483Z" fill="black" fill-opacity="0.4"/>
<path d="M44.3829 126.258C52.0306 134.632 57.7519 136.908 59.7382 135.094L82 109.5L90.5 89.5L100.001 75.4636L90 84L86 92L70 106L44.3829 118C42.3965 119.814 37.2688 118.468 44.3829 126.258Z" fill="#FAA21E"/>
<path d="M44.3829 126.258C52.0306 134.632 57.7519 136.908 59.7382 135.094L82 109.5L90.5 89.5L100.001 75.4636L90 84L86 92L70 106L44.3829 118C42.3965 119.814 37.2688 118.468 44.3829 126.258Z" fill="black" fill-opacity="0.6"/>
<path d="M28.8352 52.4856C27.444 56.81 25.7388 58.5919 24.713 58.2619L17.8153 54.988L12.9976 52.6393L8.11914 47.7494L0.113266 43.2456L10.1276 41.5457L18.1372 43.1689L24.3355 42.7574L28.8542 45.3893C29.88 45.7193 30.1293 48.4629 28.8352 52.4856Z" fill="#FAA21E"/>
<path d="M28.8352 52.4856C27.444 56.81 25.7388 58.5919 24.713 58.2619L17.8153 54.988L12.9976 52.6393L8.11914 47.7494L0.113266 43.2456L10.1276 41.5457L18.1372 43.1689L24.3355 42.7574L28.8542 45.3893C29.88 45.7193 30.1293 48.4629 28.8352 52.4856Z" fill="black" fill-opacity="0.1"/>
<path d="M28.8351 52.4855C27.444 56.8099 25.7388 58.5918 24.713 58.2618L12.9975 52.6392L8.11907 47.7494L0.113216 43.2455L8.79029 43.9189L13.3235 47.572L19.0314 47.7087L23.9445 52.3268C24.9703 52.6568 26.0753 52.4076 28.8351 52.4855Z" fill="#FAA21E"/>
<path d="M28.8351 52.4855C27.444 56.8099 25.7388 58.5918 24.713 58.2618L12.9975 52.6392L8.11907 47.7494L0.113216 43.2455L8.79029 43.9189L13.3235 47.572L19.0314 47.7087L23.9445 52.3268C24.9703 52.6568 26.0753 52.4076 28.8351 52.4855Z" fill="black" fill-opacity="0.6"/>
<path d="M48.713 22.3129C52.0052 23.1465 53.8108 22.7726 54.0085 21.9917L54.336 15.6626L55.4999 12L54.6696 5.5L54.0086 -4.65894e-08L49.4999 6.5L46.9999 10.5L46.4999 15L44.2084 19.5103C44.0106 20.2913 45.6504 21.5375 48.713 22.3129Z" fill="#FAA21E"/>
<path d="M48.713 22.3129C52.0052 23.1465 53.8108 22.7726 54.0085 21.9917L54.336 15.6626L55.4999 12L54.6696 5.5L54.0086 -4.65894e-08L49.4999 6.5L46.9999 10.5L46.4999 15L44.2084 19.5103C44.0106 20.2913 45.6504 21.5375 48.713 22.3129Z" fill="black" fill-opacity="0.1"/>
<path d="M48.7126 22.3131C52.0049 23.1467 54.8023 23.094 55 22.3131L54.5 15.5L55.5 12L54.0081 -2.33133e-06L51.2343 6.21254L51.7513 10.5343L49.574 14.2057L50.5518 19.1509C50.3541 19.9318 49.7579 20.5332 48.7126 22.3131Z" fill="#FAA21E"/>
<path d="M48.7126 22.3131C52.0049 23.1467 54.8023 23.094 55 22.3131L54.5 15.5L55.5 12L54.0081 -2.33133e-06L51.2343 6.21254L51.7513 10.5343L49.574 14.2057L50.5518 19.1509C50.3541 19.9318 49.7579 20.5332 48.7126 22.3131Z" fill="black" fill-opacity="0.6"/>
<path d="M33.8092 25.0807C37.0772 24.1565 38.4539 22.93 38.2347 22.1548L37 16.5L34.3459 13.2521L30.8225 9.47697L25.5001 2.00001L26.134 10.8123L27.1334 16.8397L28 21.5L29.5 24.5C29.7192 25.2752 30.7693 25.9404 33.8092 25.0807Z" fill="#FAA21E"/>
<path d="M33.8092 25.0807C37.0772 24.1565 38.4539 22.93 38.2347 22.1548L37 16.5L34.3459 13.2521L30.8225 9.47697L25.5001 2.00001L26.134 10.8123L27.1334 16.8397L28 21.5L29.5 24.5C29.7192 25.2752 30.7693 25.9404 33.8092 25.0807Z" fill="black" fill-opacity="0.1"/>
<path d="M33.8089 25.081C37.0769 24.1568 38.2194 22.7752 38.0001 22L37.0001 16.5L34.3456 13.2524L30.8222 9.47727L25.5001 2L27.9425 9.87673L30.5511 13.3609L30.5012 17.6291L33.8206 21.4229C34.0398 22.1981 33.8242 23.017 33.8089 25.081Z" fill="#FAA21E"/>
<path d="M33.8089 25.081C37.0769 24.1568 38.2194 22.7752 38.0001 22L37.0001 16.5L34.3456 13.2524L30.8222 9.47727L25.5001 2L27.9425 9.87673L30.5511 13.3609L30.5012 17.6291L33.8206 21.4229C34.0398 22.1981 33.8242 23.017 33.8089 25.081Z" fill="black" fill-opacity="0.6"/>
<path d="M26.5119 33.2474C28.7015 30.6514 27.9196 28.1212 27.3038 27.6018L23.5787 26.0609L17.7432 23.7811L12.6465 19.3909L5.51297 18.7889L10.2195 25.4986L14.4234 29.9321L16.6196 34.0241L22.4911 37.2888C23.1069 37.8082 24.4751 35.6623 26.5119 33.2474Z" fill="#FAA21E"/>
<path d="M26.5119 33.2474C28.7015 30.6514 27.9196 28.1212 27.3038 27.6018L23.5787 26.0609L17.7432 23.7811L12.6465 19.3909L5.51297 18.7889L10.2195 25.4986L14.4234 29.9321L16.6196 34.0241L22.4911 37.2888C23.1069 37.8082 24.4751 35.6623 26.5119 33.2474Z" fill="black" fill-opacity="0.1"/>
<path d="M24.5696 33.0205C26.7592 30.4244 27.3603 27.6885 26.7445 27.1691L17.7431 23.7811L12.6465 19.3909L5.51292 18.7889L11.1937 23.7106L15.3063 25.136L17.6556 28.6998L22.5303 29.9834C23.1461 30.5028 23.4262 31.302 24.5696 33.0205Z" fill="#FAA21E"/>
<path d="M24.5696 33.0205C26.7592 30.4244 27.3603 27.6885 26.7445 27.1691L17.7431 23.7811L12.6465 19.3909L5.51292 18.7889L11.1937 23.7106L15.3063 25.136L17.6556 28.6998L22.5303 29.9834C23.1461 30.5028 23.4262 31.302 24.5696 33.0205Z" fill="black" fill-opacity="0.6"/>
<path d="M9 102.281C12.7374 76.1057 18.3141 32.7467 22.5 29.2808C25.5309 25.9868 32.1552 20.2292 38.5 19.5C45 18.5 50.1 19.5 56.5 21.5C62 23.2187 69.5 29.257 72 33.7808C77.6447 53.5401 76.5837 82.1483 79 102.281H9Z" fill="#FAA21E"/>
<path d="M9 102.281C12.7374 76.1057 18.3141 32.7467 22.5 29.2808C25.5309 25.9868 32.1552 20.2292 38.5 19.5C45 18.5 50.1 19.5 56.5 21.5C62 23.2187 69.5 29.257 72 33.7808C77.6447 53.5401 76.5837 82.1483 79 102.281H9Z" fill="white" fill-opacity="0.6"/>
<path fill-rule="evenodd" clip-rule="evenodd" d="M46.4978 102.281H79C78.472 97.8816 78.1101 93.0778 77.8079 88.0501L75.209 96.7127L75.1147 97.0272L74.8183 97.1684L64.3182 102.168L63.6816 100.832L72.4279 96.6668L50.952 90.403L46.6932 101.76L46.4978 102.281ZM77.6735 85.7359C77.5404 83.3698 77.4167 80.9614 77.2918 78.5287C77.241 77.5387 77.1899 76.5447 77.138 75.5479L54.0813 88.3572L77.4183 85.7642L77.6735 85.7359ZM77.0256 73.4201C76.7823 68.8844 76.5095 64.309 76.1402 59.8079L65.4192 67.402L77.0256 73.4201ZM75.9728 57.85C75.3879 51.2828 74.5743 44.9113 73.3207 39.095L72.6544 38.3177L67.5289 48.2757L75.9728 57.85ZM72.607 36.039C72.4137 35.2744 72.2116 34.5214 72 33.7808C71.2455 32.4154 70.1527 31.0405 68.8631 29.7276L69.168 30.7068L55.5999 34.9328L60.7493 43.9441L72.0894 36.384L72.607 36.039ZM68.4995 29.3643C65.5572 26.4757 61.7083 23.9259 58.5 22.5C56.5297 21.6243 53.6967 20.6528 50.5886 19.9631L54.9796 33.5753L68.4995 29.3643ZM48.9245 19.6271C48.0808 19.4739 47.225 19.3451 46.3682 19.2477L42.2926 24.7681L40.4374 31.8831L48.2422 40.8386L53.6701 34.3388L48.9245 19.6271ZM44.6399 19.096C42.4965 18.9656 40.3923 19.0633 38.5 19.5C37.6109 19.6022 36.7163 19.8031 35.8269 20.0822L41.4175 23.4606L44.6399 19.096ZM34.0534 20.7403C29.2541 22.7868 24.8223 26.757 22.5 29.2808C22.4447 29.3266 22.3891 29.3794 22.3332 29.439L29.6865 31.2081L34.0993 20.7681L34.0534 20.7403ZM21.5103 30.7639C20.6624 32.5577 19.7718 35.6811 18.8618 39.7206L26.6244 38.4525L29.1022 32.5904L21.5103 30.7639ZM18.685 40.5158C18.3612 41.9905 18.0352 43.5772 17.708 45.2574L17.8914 45.3716L28.5151 51.9894L33.0119 45.1374L26.926 39.9035L18.8018 41.2306L18.685 40.5158ZM17.0968 48.4943C15.8867 55.0893 14.6691 62.798 13.4965 70.6949L29.758 68.7451L19.0694 61.1022L18.8102 60.9168L18.7667 60.6011L17.0968 48.4943ZM13.2719 72.213C12.7772 75.5698 12.2912 78.9497 11.8179 82.2822L24.0472 78.858L30.1749 70.1863L13.2719 72.213ZM11.6218 83.6656C11.2072 86.5941 10.8029 89.4782 10.4116 92.2691C9.91852 95.7865 9.44616 99.1561 9 102.281H45.7279L45.4706 102.017L24.2772 80.3312L13.4341 83.3672L29.2551 98.8437L28.2197 99.9021L11.6218 83.6656ZM74.002 95.5836L54.2638 89.8266L76.4693 87.3594L74.002 95.5836ZM41.2703 77.3115L49.6717 89.6002L45.7157 100.15L26.0108 79.9867L41.2703 77.3115ZM40.4664 75.9493L26.1409 78.4607L32.3455 69.6802L32.7704 69.079L32.1716 68.6508L20.7205 60.4626L28.5147 54.1343L40.4664 75.9493ZM27.4649 53.0795L20.0538 59.0968L18.4492 47.4634L27.4649 53.0795ZM41.6962 75.1125L30.7034 55.0477L48.431 65.7205L41.6962 75.1125ZM43.1149 75.6748L49.8414 66.2944L63.7725 68.2159L74.7566 73.9114L43.1149 75.6748ZM74.9 58.872L63.8111 66.7266L51.2899 64.9996L57.9669 59.5745L58.018 59.533L58.061 59.483L66.6461 49.5131L74.9 58.872ZM32.8558 54.6153L49.4366 64.5977L55.8253 59.4069L32.8558 54.6153ZM66.0213 47.9697L58.8316 56.3191L61.1609 45.4491L70.5353 39.1995L66.0213 47.9697ZM54.3856 35.7919L59.2846 44.3651L45.7466 45.5718L48.7809 42.4993L48.8026 42.4773L48.8224 42.4536L54.3856 35.7919ZM34.346 45.8031L43.4677 47.1867L55.0042 57.7231L29.9528 52.4973L34.346 45.8031ZM59.5658 45.8265L57.0465 57.5832L45.5425 47.0765L59.5658 45.8265ZM43.5391 45.7L34.3089 44.3L28.4294 39.2435L39.4608 33.0161L47.2448 41.9477L43.5391 45.7ZM38.9852 31.5843L28.6747 37.4048L35.3796 21.5418L40.7565 24.7911L38.9852 31.5843ZM50.7303 88.5252L74.3222 75.4185L42.9644 77.1661L50.7303 88.5252Z" fill="#FAA21E"/>
<path fill-rule="evenodd" clip-rule="evenodd" d="M46.4978 102.281H79C78.472 97.8816 78.1101 93.0778 77.8079 88.0501L75.209 96.7127L75.1147 97.0272L74.8183 97.1684L64.3182 102.168L63.6816 100.832L72.4279 96.6668L50.952 90.403L46.6932 101.76L46.4978 102.281ZM77.6735 85.7359C77.5404 83.3698 77.4167 80.9614 77.2918 78.5287C77.241 77.5387 77.1899 76.5447 77.138 75.5479L54.0813 88.3572L77.4183 85.7642L77.6735 85.7359ZM77.0256 73.4201C76.7823 68.8844 76.5095 64.309 76.1402 59.8079L65.4192 67.402L77.0256 73.4201ZM75.9728 57.85C75.3879 51.2828 74.5743 44.9113 73.3207 39.095L72.6544 38.3177L67.5289 48.2757L75.9728 57.85ZM72.607 36.039C72.4137 35.2744 72.2116 34.5214 72 33.7808C71.2455 32.4154 70.1527 31.0405 68.8631 29.7276L69.168 30.7068L55.5999 34.9328L60.7493 43.9441L72.0894 36.384L72.607 36.039ZM68.4995 29.3643C65.5572 26.4757 61.7083 23.9259 58.5 22.5C56.5297 21.6243 53.6967 20.6528 50.5886 19.9631L54.9796 33.5753L68.4995 29.3643ZM48.9245 19.6271C48.0808 19.4739 47.225 19.3451 46.3682 19.2477L42.2926 24.7681L40.4374 31.8831L48.2422 40.8386L53.6701 34.3388L48.9245 19.6271ZM44.6399 19.096C42.4965 18.9656 40.3923 19.0633 38.5 19.5C37.6109 19.6022 36.7163 19.8031 35.8269 20.0822L41.4175 23.4606L44.6399 19.096ZM34.0534 20.7403C29.2541 22.7868 24.8223 26.757 22.5 29.2808C22.4447 29.3266 22.3891 29.3794 22.3332 29.439L29.6865 31.2081L34.0993 20.7681L34.0534 20.7403ZM21.5103 30.7639C20.6624 32.5577 19.7718 35.6811 18.8618 39.7206L26.6244 38.4525L29.1022 32.5904L21.5103 30.7639ZM18.685 40.5158C18.3612 41.9905 18.0352 43.5772 17.708 45.2574L17.8914 45.3716L28.5151 51.9894L33.0119 45.1374L26.926 39.9035L18.8018 41.2306L18.685 40.5158ZM17.0968 48.4943C15.8867 55.0893 14.6691 62.798 13.4965 70.6949L29.758 68.7451L19.0694 61.1022L18.8102 60.9168L18.7667 60.6011L17.0968 48.4943ZM13.2719 72.213C12.7772 75.5698 12.2912 78.9497 11.8179 82.2822L24.0472 78.858L30.1749 70.1863L13.2719 72.213ZM11.6218 83.6656C11.2072 86.5941 10.8029 89.4782 10.4116 92.2691C9.91852 95.7865 9.44616 99.1561 9 102.281H45.7279L45.4706 102.017L24.2772 80.3312L13.4341 83.3672L29.2551 98.8437L28.2197 99.9021L11.6218 83.6656ZM74.002 95.5836L54.2638 89.8266L76.4693 87.3594L74.002 95.5836ZM41.2703 77.3115L49.6717 89.6002L45.7157 100.15L26.0108 79.9867L41.2703 77.3115ZM40.4664 75.9493L26.1409 78.4607L32.3455 69.6802L32.7704 69.079L32.1716 68.6508L20.7205 60.4626L28.5147 54.1343L40.4664 75.9493ZM27.4649 53.0795L20.0538 59.0968L18.4492 47.4634L27.4649 53.0795ZM41.6962 75.1125L30.7034 55.0477L48.431 65.7205L41.6962 75.1125ZM43.1149 75.6748L49.8414 66.2944L63.7725 68.2159L74.7566 73.9114L43.1149 75.6748ZM74.9 58.872L63.8111 66.7266L51.2899 64.9996L57.9669 59.5745L58.018 59.533L58.061 59.483L66.6461 49.5131L74.9 58.872ZM32.8558 54.6153L49.4366 64.5977L55.8253 59.4069L32.8558 54.6153ZM66.0213 47.9697L58.8316 56.3191L61.1609 45.4491L70.5353 39.1995L66.0213 47.9697ZM54.3856 35.7919L59.2846 44.3651L45.7466 45.5718L48.7809 42.4993L48.8026 42.4773L48.8224 42.4536L54.3856 35.7919ZM34.346 45.8031L43.4677 47.1867L55.0042 57.7231L29.9528 52.4973L34.346 45.8031ZM59.5658 45.8265L57.0465 57.5832L45.5425 47.0765L59.5658 45.8265ZM43.5391 45.7L34.3089 44.3L28.4294 39.2435L39.4608 33.0161L47.2448 41.9477L43.5391 45.7ZM38.9852 31.5843L28.6747 37.4048L35.3796 21.5418L40.7565 24.7911L38.9852 31.5843ZM50.7303 88.5252L74.3222 75.4185L42.9644 77.1661L50.7303 88.5252Z" fill="white" fill-opacity="0.4"/>
<path d="M54.0002 43L45.0002 40L48.0001 51L54.0002 43Z" fill="#898989"/>
<path d="M54.0002 43L45.0002 40L48.0001 51L54.0002 43Z" fill="black" fill-opacity="0.6"/>
<path d="M74.0001 50.5L67.0001 48L70.0001 57L74.0001 50.5Z" fill="#898989"/>
<path d="M74.0001 50.5L67.0001 48L70.0001 57L74.0001 50.5Z" fill="black" fill-opacity="0.6"/>
<path d="M54 43L46.5 45.5L48 51L54 43Z" fill="#898989"/>
<path d="M54 43L46.5 45.5L48 51L54 43Z" fill="black" fill-opacity="0.2"/>
<path d="M74 50.5L68.5 52.5L70 57L74 50.5Z" fill="#898989"/>
<path d="M74 50.5L68.5 52.5L70 57L74 50.5Z" fill="black" fill-opacity="0.2"/>
<path d="M16.3826 114.258C24.0303 122.632 29.7516 124.908 31.738 123.094L44 108.5L52.5 98.1663L58.5 82L72.0012 63.4636L47.5 70L31 82L16.5002 87.5L8.9728 98.1663C6.98642 99.9804 9.26851 106.468 16.3826 114.258Z" fill="#FAA21E"/>
<path d="M16.3826 114.258C24.0303 122.632 29.7516 124.908 31.738 123.094L44 108.5L52.5 98.1663L58.5 82L72.0012 63.4636L47.5 70L31 82L16.5002 87.5L8.9728 98.1663C6.98642 99.9804 9.26851 106.468 16.3826 114.258Z" fill="black" fill-opacity="0.1"/>
<path fill-rule="evenodd" clip-rule="evenodd" d="M14.9988 89.4921L15.7614 100.551L17.2385 100.449L16.3489 87.5486L16.3827 87.5L16.4907 87.4593L22.2448 90.9187L22.2448 103.654V104.178L22.7393 104.352L26.1655 105.558L26.6735 105.737L27 105.309L34.4701 95.513L38.8907 101.92L39.1847 102.347L39.6858 102.217L51.7267 99.0948L31.738 123.094C29.7516 124.908 24.0303 122.632 16.3827 114.258C9.26856 106.468 6.98647 99.9804 8.97284 98.1663L14.9988 89.4921ZM18.2581 86.7943L22.8252 89.5401L28.3195 83.0086L18.2581 86.7943ZM31.2643 81.8078L41.2296 74.5603L34.0598 93.3307L24.2584 90.1364L31.2643 81.8078ZM44.5693 72.1314L46.8975 70.4382L46.9543 70.5002L54.0658 78.2582L44.5693 72.1314ZM49.9291 69.352L63.1337 69.8564L70.221 63.9385L49.9291 69.352ZM70.2961 65.8047L63.8643 71.1752L63.8575 71.1808L60.2675 74.1069L64.4523 73.8279L70.2961 65.8047ZM63.3163 75.3875L58.7914 75.6892L59.1759 81.0721L63.3163 75.3875ZM58.1604 82.9152L46.6191 87.1897L54.4106 92.384L54.5994 92.5099L58.1604 82.9152ZM54.1266 93.7839L44.4638 99.4483L52.8141 97.2834L52.8198 97.305L54.1266 93.7839ZM23.7254 103.13V91.5199L33.2788 94.6334L26.1492 103.983L23.7254 103.13ZM50.9348 93.9388L35.8513 94.9078L39.7188 100.514L50.9348 93.9388ZM45.0073 87.8946L51.7678 92.4016L37.1202 93.3427L45.0073 87.8946ZM42.6515 74.9872L44.2062 86.6485L36.0434 92.287L42.6515 74.9872ZM45.6113 85.9841L43.9457 73.4911L56.8551 81.8198L45.6113 85.9841ZM57.2923 75.4829L57.6102 79.9338L50.6161 72.3038L57.2923 75.4829ZM57.8953 74.1302L51.0635 70.877L61.4023 71.2719L57.8953 74.1302Z" fill="#C57A09"/>
<path d="M16.3829 114.258C24.0306 122.632 29.7519 124.908 31.7382 123.094L52.5003 98.1663L58.5003 82L72.0015 63.4636L53 74L46.5 87L32.5001 90.5L16.3829 106C14.3965 107.814 9.26879 106.468 16.3829 114.258Z" fill="#FAA21E"/>
<path d="M16.3829 114.258C24.0306 122.632 29.7519 124.908 31.7382 123.094L52.5003 98.1663L58.5003 82L72.0015 63.4636L53 74L46.5 87L32.5001 90.5L16.3829 106C14.3965 107.814 9.26879 106.468 16.3829 114.258Z" fill="black" fill-opacity="0.6"/>
<path d="M59.0167 29.6094C60.7552 32.5268 62.2963 33.5392 62.9883 33.1268L67.4649 29.5852L70.5812 27.0664L73.3157 22.6859L78.3935 18.0625L70.8124 18.5028L65.249 21.0282L60.6642 21.7674L57.8132 24.4425C57.1211 24.8549 57.3995 26.8956 59.0167 29.6094Z" fill="#FAA21E"/>
<path d="M59.0167 29.6094C60.7552 32.5268 62.2963 33.5392 62.9883 33.1268L67.4649 29.5852L70.5812 27.0664L73.3157 22.6859L78.3935 18.0625L70.8124 18.5028L65.249 21.0282L60.6642 21.7674L57.8132 24.4425C57.1211 24.8549 57.3995 26.8956 59.0167 29.6094Z" fill="black" fill-opacity="0.1"/>
<path d="M59.0164 29.6093C60.755 32.5267 62.296 33.5391 62.9881 33.1267L70.5809 27.0663L73.3155 22.6858L78.3932 18.0623L72.1843 20.0076L69.494 23.4291L65.3583 24.4856L62.5529 28.6738C61.8609 29.0862 61.0141 29.0898 59.0164 29.6093Z" fill="#FAA21E"/>
<path d="M59.0164 29.6093C60.755 32.5267 62.296 33.5391 62.9881 33.1267L70.5809 27.0663L73.3155 22.6858L78.3932 18.0623L72.1843 20.0076L69.494 23.4291L65.3583 24.4856L62.5529 28.6738C61.8609 29.0862 61.0141 29.0898 59.0164 29.6093Z" fill="black" fill-opacity="0.6"/>
</g>
<defs>
<clipPath id="clip0_2351_11204">
<rect width="100" height="100" fill="white"/>
</clipPath>
</defs>
</svg>
