<svg width="100" height="100" viewBox="0 0 100 100" fill="none" xmlns="http://www.w3.org/2000/svg">
<path d="M37.9844 23.7622C39.9888 26.507 40.9121 29.2517 40.7291 31.9965L35.98 34.7412C35.797 31.9965 35.2396 28.7028 33.0438 25.958C30.848 23.2132 27.3629 22.6643 25.3585 19.3706C23.3541 16.0769 23.7118 10.5873 26.4565 10.5873C29.2013 10.5873 28.9642 15.8959 30.2991 17.7237C32.3035 20.4685 35.614 20.5163 37.9844 23.7622Z" fill="#D0333D"/>
<path d="M37.9844 23.7622C39.9888 26.507 40.9121 29.2517 40.7291 31.9965L35.98 34.7412C35.797 31.9965 35.2396 28.7028 33.0438 25.958C30.848 23.2132 27.3629 22.6643 25.3585 19.3706C23.3541 16.0769 23.7118 10.5873 26.4565 10.5873C29.2013 10.5873 28.9642 15.8959 30.2991 17.7237C32.3035 20.4685 35.614 20.5163 37.9844 23.7622Z" fill="white" fill-opacity="0.4"/>
<path d="M54.0128 21.0379C54.994 24.2919 54.9551 27.1875 53.8725 29.7164L48.482 30.7315C49.2193 28.0813 49.7854 24.7891 48.6237 21.4716C47.462 18.1541 44.3561 16.4808 43.5569 12.7088C42.7578 8.93684 44.9152 3.87635 47.5048 4.78631C50.0943 5.69627 48.1107 10.626 48.7641 12.793C49.7452 16.0471 52.8526 17.1897 54.0128 21.0379Z" fill="#D0333D"/>
<path d="M54.0128 21.0379C54.994 24.2919 54.9551 27.1875 53.8725 29.7164L48.482 30.7315C49.2193 28.0813 49.7854 24.7891 48.6237 21.4716C47.462 18.1541 44.3561 16.4808 43.5569 12.7088C42.7578 8.93684 44.9152 3.87635 47.5048 4.78631C50.0943 5.69627 48.1107 10.626 48.7641 12.793C49.7452 16.0471 52.8526 17.1897 54.0128 21.0379Z" fill="white" fill-opacity="0.4"/>
<path d="M32.3098 64.0966C26.4581 65.447 13.1671 58.6951 13.1671 58.6951C13.1671 58.6951 9.14335 76.8399 3.29174 79.9908M40.5985 62.4346C35.6471 58.068 18.6534 47.073 18.6534 47.073C18.6534 47.073 20.0511 72.1989 16 73.9994M39.5001 67.904C37.6599 70.6601 24.6576 73.9994 24.6576 73.9994C24.6576 73.9994 28.2585 84.3523 24.6576 87.9534M50.5001 69.3635C49.7201 73.0761 41.7625 80.7513 41.7625 80.7513C41.7625 80.7513 47.6915 85.4686 48.0001 89.2551M59.3173 67.904C60.6456 71.9013 71.5001 73.9994 71.5001 73.9994C71.5001 73.9994 67.5001 83.4521 68.5001 87.2551M63.5001 65.2551C65.9662 68.2004 77.7727 67.904 77.7727 67.904C77.7727 67.904 80.0233 83.0019 84.0745 83.4521M62.0001 61.7551C65.1792 62.7151 82 51.5 82 51.5C82 51.5 91.6212 70.823 96.0102 69.3635M59.3173 58.6951C61.5508 60.5953 76.0001 43.5 76.0001 43.5C76.0001 43.5 79.5732 67 84.0745 67" stroke="#D0333D" stroke-width="2.19581" stroke-linecap="round" stroke-linejoin="round"/>
<path d="M32.3098 64.0966C26.4581 65.447 13.1671 58.6951 13.1671 58.6951C13.1671 58.6951 9.14335 76.8399 3.29174 79.9908M40.5985 62.4346C35.6471 58.068 18.6534 47.073 18.6534 47.073C18.6534 47.073 20.0511 72.1989 16 73.9994M39.5001 67.904C37.6599 70.6601 24.6576 73.9994 24.6576 73.9994C24.6576 73.9994 28.2585 84.3523 24.6576 87.9534M50.5001 69.3635C49.7201 73.0761 41.7625 80.7513 41.7625 80.7513C41.7625 80.7513 47.6915 85.4686 48.0001 89.2551M59.3173 67.904C60.6456 71.9013 71.5001 73.9994 71.5001 73.9994C71.5001 73.9994 67.5001 83.4521 68.5001 87.2551M63.5001 65.2551C65.9662 68.2004 77.7727 67.904 77.7727 67.904C77.7727 67.904 80.0233 83.0019 84.0745 83.4521M62.0001 61.7551C65.1792 62.7151 82 51.5 82 51.5C82 51.5 91.6212 70.823 96.0102 69.3635M59.3173 58.6951C61.5508 60.5953 76.0001 43.5 76.0001 43.5C76.0001 43.5 79.5732 67 84.0745 67" stroke="white" stroke-opacity="0.4" stroke-width="2.19581" stroke-linecap="round" stroke-linejoin="round"/>
<path d="M49.8614 24L46.9901 28.5253L42.9703 26.2626L40.6733 30.2222L34.9307 26.2626L36.0792 33.0505L31.4851 31.3535L32.6337 36.4444L25.7426 34.1818L29.1881 39.8384H25.7426L27.4653 43.798H22.8713L25.7426 47.7576L20 49.4545L25.7426 52.2828L21.7228 53.9798L26.3168 56.8081L21.1485 60.202L28.0396 61.3333L22.8713 67.5556L31.4851 65.8586L29.1881 71.5152L34.9307 68.6869L32.6337 76.6061L38.9505 71.5152V76.6061L42.9703 72.6465L43.5446 76.6061L46.9901 73.2121L48.7129 80L51.5842 73.2121L54.4554 77.7374L55.604 73.2121L59.6238 77.7374V71.5152L63.0693 74.3434V69.8182L67.6634 73.2121L66.5149 67.5556L71.1089 69.8182L69.3861 64.1616L74.5545 65.2929L71.6832 60.7677L75.1287 60.202L72.8317 56.8081L78 55.6768L73.4059 51.7172L76.8515 49.4545L72.8317 47.7576L76.8515 43.798L71.1089 43.2323L73.4059 39.8384H69.3861L71.1089 36.4444L67.6634 37.0101L69.3861 32.4848L64.7921 34.1818L66.5149 29.0909L61.3465 31.3535V27.9596L57.3267 30.2222V25.1313L52.7327 28.5253L49.8614 24Z" fill="#D0333D"/>
<path d="M49.8614 24L46.9901 28.5253L42.9703 26.2626L40.6733 30.2222L34.9307 26.2626L36.0792 33.0505L31.4851 31.3535L32.6337 36.4444L25.7426 34.1818L29.1881 39.8384H25.7426L27.4653 43.798H22.8713L25.7426 47.7576L20 49.4545L25.7426 52.2828L21.7228 53.9798L26.3168 56.8081L21.1485 60.202L28.0396 61.3333L22.8713 67.5556L31.4851 65.8586L29.1881 71.5152L34.9307 68.6869L32.6337 76.6061L38.9505 71.5152V76.6061L42.9703 72.6465L43.5446 76.6061L46.9901 73.2121L48.7129 80L51.5842 73.2121L54.4554 77.7374L55.604 73.2121L59.6238 77.7374V71.5152L63.0693 74.3434V69.8182L67.6634 73.2121L66.5149 67.5556L71.1089 69.8182L69.3861 64.1616L74.5545 65.2929L71.6832 60.7677L75.1287 60.202L72.8317 56.8081L78 55.6768L73.4059 51.7172L76.8515 49.4545L72.8317 47.7576L76.8515 43.798L71.1089 43.2323L73.4059 39.8384H69.3861L71.1089 36.4444L67.6634 37.0101L69.3861 32.4848L64.7921 34.1818L66.5149 29.0909L61.3465 31.3535V27.9596L57.3267 30.2222V25.1313L52.7327 28.5253L49.8614 24Z" fill="white" fill-opacity="0.8"/>
<path d="M51.524 29.2551L49.2305 32.8915L46.0196 31.0733L44.1849 34.2551L39.5979 31.0733L40.5153 36.5279L36.8457 35.1642L37.7631 39.2551L32.2588 37.4369L35.011 41.9824H32.2588L33.6349 45.1642H29.9653L32.2588 48.346L27.6719 49.7097L30.9468 52.1462L27 54.1017L31.4401 55.6188L28.5892 58.346L33.4135 58.9906L29.9653 64.2551L36.8457 62.8915L35.011 67.4369L39.5979 65.1642L37.7631 71.5279L42.8088 67.4369V71.5279L46.0196 68.346L46.4783 71.5279L49.2305 68.8006L50.6066 74.2551L52.9 68.8006L55.1935 72.4369L56.1109 68.8006L59.3218 72.4369V67.4369L62.0739 69.7097V66.0733L65.7435 68.8006L64.8261 64.2551L68.4957 66.0733L67.1196 61.5279L71.2478 62.4369L68.9544 58.8006L71.7065 58.346L69.8717 55.6188L74 54.7097L70.3304 51.5279L73.0826 49.7097L69.8717 48.346L73.0826 45.1642L68.4957 44.7097L70.3304 41.9824H67.1196L68.4957 39.2551L65.7435 39.7097L67.1196 36.0733L63.45 37.4369L64.8261 33.346L60.6979 35.1642V32.4369L57.487 34.2551V30.1642L53.8174 32.8915L51.524 29.2551Z" fill="#D0333D"/>
<path d="M51.524 29.2551L49.2305 32.8915L46.0196 31.0733L44.1849 34.2551L39.5979 31.0733L40.5153 36.5279L36.8457 35.1642L37.7631 39.2551L32.2588 37.4369L35.011 41.9824H32.2588L33.6349 45.1642H29.9653L32.2588 48.346L27.6719 49.7097L30.9468 52.1462L27 54.1017L31.4401 55.6188L28.5892 58.346L33.4135 58.9906L29.9653 64.2551L36.8457 62.8915L35.011 67.4369L39.5979 65.1642L37.7631 71.5279L42.8088 67.4369V71.5279L46.0196 68.346L46.4783 71.5279L49.2305 68.8006L50.6066 74.2551L52.9 68.8006L55.1935 72.4369L56.1109 68.8006L59.3218 72.4369V67.4369L62.0739 69.7097V66.0733L65.7435 68.8006L64.8261 64.2551L68.4957 66.0733L67.1196 61.5279L71.2478 62.4369L68.9544 58.8006L71.7065 58.346L69.8717 55.6188L74 54.7097L70.3304 51.5279L73.0826 49.7097L69.8717 48.346L73.0826 45.1642L68.4957 44.7097L70.3304 41.9824H67.1196L68.4957 39.2551L65.7435 39.7097L67.1196 36.0733L63.45 37.4369L64.8261 33.346L60.6979 35.1642V32.4369L57.487 34.2551V30.1642L53.8174 32.8915L51.524 29.2551Z" fill="white" fill-opacity="0.6"/>
<ellipse cx="63.6428" cy="48.2688" rx="5.35162" ry="5.94624" transform="rotate(-15 63.6428 48.2688)" fill="#898989"/>
<ellipse cx="63.6428" cy="48.2688" rx="5.35162" ry="5.94624" transform="rotate(-15 63.6428 48.2688)" fill="white" fill-opacity="0.95"/>
<ellipse cx="64.7915" cy="47.9611" rx="4.16237" ry="4.757" transform="rotate(-15 64.7915 47.9611)" fill="#898989"/>
<ellipse cx="64.7915" cy="47.9611" rx="4.16237" ry="4.757" transform="rotate(-15 64.7915 47.9611)" fill="black" fill-opacity="0.8"/>
<circle cx="40.4505" cy="53.3032" r="6.48492" fill="#898989"/>
<circle cx="40.4505" cy="53.3032" r="6.48492" fill="white" fill-opacity="0.95"/>
<circle cx="41.4309" cy="53.1851" r="5.269" fill="#898989"/>
<circle cx="41.4309" cy="53.1851" r="5.269" fill="black" fill-opacity="0.8"/>
<path d="M53.7283 59.4441C55.8018 58.2646 57.5709 57.7973 59.2178 58.3462" stroke="#898989" stroke-width="1.0979" stroke-linecap="round"/>
<path d="M53.7283 59.4441C55.8018 58.2646 57.5709 57.7973 59.2178 58.3462" stroke="black" stroke-opacity="0.6" stroke-width="1.0979" stroke-linecap="round"/>
<circle cx="15.874" cy="74.874" r="2.74476" transform="rotate(2.76603 15.874 74.874)" fill="#D0333D"/>
<circle cx="15.874" cy="74.874" r="2.74476" transform="rotate(2.76603 15.874 74.874)" fill="white" fill-opacity="0.6"/>
<circle cx="23.874" cy="88.874" r="2.74476" transform="rotate(2.76603 23.874 88.874)" fill="#D0333D"/>
<circle cx="23.874" cy="88.874" r="2.74476" transform="rotate(2.76603 23.874 88.874)" fill="white" fill-opacity="0.6"/>
<circle cx="47.874" cy="91.874" r="2.74476" transform="rotate(2.76603 47.874 91.874)" fill="#D0333D"/>
<circle cx="47.874" cy="91.874" r="2.74476" transform="rotate(2.76603 47.874 91.874)" fill="white" fill-opacity="0.6"/>
<circle cx="68.874" cy="88.1291" r="2.74476" transform="rotate(2.76603 68.874 88.1291)" fill="#D0333D"/>
<circle cx="68.874" cy="88.1291" r="2.74476" transform="rotate(2.76603 68.874 88.1291)" fill="white" fill-opacity="0.6"/>
<circle cx="83.874" cy="83.874" r="2.74476" transform="rotate(2.76603 83.874 83.874)" fill="#D0333D"/>
<circle cx="83.874" cy="83.874" r="2.74476" transform="rotate(2.76603 83.874 83.874)" fill="white" fill-opacity="0.6"/>
<circle cx="84.874" cy="67.874" r="2.74476" transform="rotate(2.76603 84.874 67.874)" fill="#D0333D"/>
<circle cx="84.874" cy="67.874" r="2.74476" transform="rotate(2.76603 84.874 67.874)" fill="white" fill-opacity="0.6"/>
<circle cx="97.2383" cy="69.6977" r="2.74476" transform="rotate(2.76603 97.2383 69.6977)" fill="#D0333D"/>
<circle cx="97.2383" cy="69.6977" r="2.74476" transform="rotate(2.76603 97.2383 69.6977)" fill="white" fill-opacity="0.6"/>
<circle cx="2.874" cy="79.573" r="2.74476" transform="rotate(2.76603 2.874 79.573)" fill="#D0333D"/>
<circle cx="2.874" cy="79.573" r="2.74476" transform="rotate(2.76603 2.874 79.573)" fill="white" fill-opacity="0.6"/>
<circle cx="39.5" cy="51.5" r="1.5" fill="#FEFEFE"/>
<ellipse cx="63" cy="46.25" rx="1" ry="1.25" fill="#FEFEFE"/>
</svg>
