<svg width="100" height="100" viewBox="0 0 100 100" fill="none" xmlns="http://www.w3.org/2000/svg">
<g clip-path="url(#clip0_3442_29752)">
<path d="M49.6139 13.4482C55.5812 7.48094 65.5267 9.47003 65.5267 16.4319C65.5267 23.3938 51.1057 22.3992 52.1002 31.3502M82.9313 25.3828C83.5944 26.5432 71.9912 20.7831 68.5104 26.8747C64.8163 33.3393 70.0022 40.7984 68.5104 40.3011M19.7774 19.9128C19.7776 8.5 34.5002 5.5 35 15C35.4203 22.989 30.5002 33.5 40 36M7 45C4.5 40.3011 5.15447 35.1499 9.5 33C13.9571 30.7949 20.0109 35.0627 22 46.5C23.5913 55.6499 21.8342 57.8261 22 56.5M7.34553 75.6077C4.85914 72.4583 1.07982 65.6622 5.85366 63.6731C11.821 61.1867 13.3128 70.1376 17.291 70.1376M93.3741 48.2575C93.3741 45.6054 91.9817 38.312 88.4014 38.312C83.9259 38.312 81.4395 42.2902 78.9531 48.2575M93.3741 75.6077C93.8714 73.287 93.9709 68.1485 90.3905 66.1594C86.8101 64.1703 82.5998 69.3088 80.9422 72.1267" stroke="#898989" stroke-width="4"/>
<path d="M49.6139 13.4482C55.5812 7.48094 65.5267 9.47003 65.5267 16.4319C65.5267 23.3938 51.1057 22.3992 52.1002 31.3502M82.9313 25.3828C83.5944 26.5432 71.9912 20.7831 68.5104 26.8747C64.8163 33.3393 70.0022 40.7984 68.5104 40.3011M19.7774 19.9128C19.7776 8.5 34.5002 5.5 35 15C35.4203 22.989 30.5002 33.5 40 36M7 45C4.5 40.3011 5.15447 35.1499 9.5 33C13.9571 30.7949 20.0109 35.0627 22 46.5C23.5913 55.6499 21.8342 57.8261 22 56.5M7.34553 75.6077C4.85914 72.4583 1.07982 65.6622 5.85366 63.6731C11.821 61.1867 13.3128 70.1376 17.291 70.1376M93.3741 48.2575C93.3741 45.6054 91.9817 38.312 88.4014 38.312C83.9259 38.312 81.4395 42.2902 78.9531 48.2575M93.3741 75.6077C93.8714 73.287 93.9709 68.1485 90.3905 66.1594C86.8101 64.1703 82.5998 69.3088 80.9422 72.1267" stroke="white" stroke-opacity="0.6" stroke-width="4"/>
<path d="M86.9095 65.6621C86.9095 84.8868 75.5 94.62 52.5 96C24 97.71 13.3127 84.8868 13.3127 65.6621C13.3127 46.4375 29.7879 30.8529 50.1111 30.8529C70.4343 30.8529 86.9095 46.4375 86.9095 65.6621Z" fill="#898989"/>
<path d="M86.9095 65.6621C86.9095 84.8868 75.5 94.62 52.5 96C24 97.71 13.3127 84.8868 13.3127 65.6621C13.3127 46.4375 29.7879 30.8529 50.1111 30.8529C70.4343 30.8529 86.9095 46.4375 86.9095 65.6621Z" fill="white" fill-opacity="0.2"/>
<path d="M86.9095 61.4292C86.9095 79.4146 72.7059 87.2274 51.6029 88.412C30.5 89.5966 13.3127 79.4146 13.3127 61.4292C13.3127 43.4438 29.7879 28.8638 50.1111 28.8638C70.4343 28.8638 86.9095 43.4438 86.9095 61.4292Z" fill="#898989"/>
<path d="M86.9095 61.4292C86.9095 79.4146 72.7059 87.2274 51.6029 88.412C30.5 89.5966 13.3127 79.4146 13.3127 61.4292C13.3127 43.4438 29.7879 28.8638 50.1111 28.8638C70.4343 28.8638 86.9095 43.4438 86.9095 61.4292Z" fill="white" fill-opacity="0.6"/>
<ellipse cx="50.111" cy="56.7112" rx="19.891" ry="19.891" fill="#2FC4A7"/>
<ellipse cx="50.111" cy="56.7112" rx="19.891" ry="19.891" fill="white" fill-opacity="0.95"/>
<ellipse cx="50.1125" cy="56.711" rx="17.2965" ry="17.2965" fill="#D0333D"/>
<path d="M50.1112 51.8104V42.0091M50.1112 71.4132V61.6118M55.0119 56.7111H64.8133M35.4092 56.7111H45.2105M53.5765 60.1764L60.5072 67.107M39.7153 46.3152L46.6459 53.2458M53.5765 53.2458L60.5072 46.3152M39.7153 67.107L46.6459 60.1764M54.666 54.9026L63.7755 51.2855M36.4469 62.1367L45.5565 58.5196M54.6617 58.5304L63.7627 62.1689M36.4598 51.2533L45.5608 54.8919M51.9524 52.1695L55.6346 43.0861M44.5878 70.3362L48.2701 61.2528M52.0151 61.2269L55.8229 70.2583M44.3995 43.1639L48.2073 52.1954" stroke="#D0333D" stroke-width="1.13947" stroke-linecap="round"/>
<path d="M50.1112 51.8104V42.0091M50.1112 71.4132V61.6118M55.0119 56.7111H64.8133M35.4092 56.7111H45.2105M53.5765 60.1764L60.5072 67.107M39.7153 46.3152L46.6459 53.2458M53.5765 53.2458L60.5072 46.3152M39.7153 67.107L46.6459 60.1764M54.666 54.9026L63.7755 51.2855M36.4469 62.1367L45.5565 58.5196M54.6617 58.5304L63.7627 62.1689M36.4598 51.2533L45.5608 54.8919M51.9524 52.1695L55.6346 43.0861M44.5878 70.3362L48.2701 61.2528M52.0151 61.2269L55.8229 70.2583M44.3995 43.1639L48.2073 52.1954" stroke="white" stroke-opacity="0.4" stroke-width="1.13947" stroke-linecap="round"/>
<circle cx="50.111" cy="56.7111" r="6.91861" fill="#D0333D"/>
<circle cx="50.111" cy="56.7111" r="6.91861" fill="black" fill-opacity="0.8"/>
<ellipse cx="39.2761" cy="49.15" rx="2.78447" ry="4.64078" transform="rotate(30 39.2761 49.15)" fill="#FEFEFE"/>
<ellipse cx="49.1165" cy="12.951" rx="8.95096" ry="8.95096" fill="#2FC4A7"/>
<ellipse cx="49.1165" cy="12.951" rx="8.95096" ry="8.95096" fill="white" fill-opacity="0.95"/>
<ellipse cx="49.1172" cy="12.9509" rx="7.78344" ry="7.78344" fill="#D0333D"/>
<path d="M49.1167 10.7456V6.33501M49.1167 19.5669V15.1562M51.322 12.9509H55.7326M42.5007 12.9509H46.9113M50.676 14.5103L53.7948 17.6291M44.4385 8.27277L47.5573 11.3915M50.676 11.3915L53.7948 8.27277M44.4385 17.6291L47.5573 14.5103M51.1663 12.1371L55.2656 10.5094M42.9677 15.3925L47.067 13.7648M51.1644 13.7696L55.2598 15.407M42.9735 10.4949L47.0689 12.1323M49.9452 10.9072L51.6022 6.81967M46.6311 19.0822L48.2881 14.9947M49.9734 14.983L51.6869 19.0472M46.5464 6.8547L48.2599 10.9189" stroke="#D0333D" stroke-width="0.512764" stroke-linecap="round"/>
<path d="M49.1167 10.7456V6.33501M49.1167 19.5669V15.1562M51.322 12.9509H55.7326M42.5007 12.9509H46.9113M50.676 14.5103L53.7948 17.6291M44.4385 8.27277L47.5573 11.3915M50.676 11.3915L53.7948 8.27277M44.4385 17.6291L47.5573 14.5103M51.1663 12.1371L55.2656 10.5094M42.9677 15.3925L47.067 13.7648M51.1644 13.7696L55.2598 15.407M42.9735 10.4949L47.0689 12.1323M49.9452 10.9072L51.6022 6.81967M46.6311 19.0822L48.2881 14.9947M49.9734 14.983L51.6869 19.0472M46.5464 6.8547L48.2599 10.9189" stroke="white" stroke-opacity="0.4" stroke-width="0.512764" stroke-linecap="round"/>
<ellipse cx="49.1163" cy="12.9509" rx="3.11338" ry="3.11338" fill="#D0333D"/>
<ellipse cx="49.1163" cy="12.9509" rx="3.11338" ry="3.11338" fill="black" fill-opacity="0.8"/>
<ellipse cx="44.2409" cy="9.5484" rx="1.25301" ry="2.08835" transform="rotate(30 44.2409 9.5484)" fill="#FEFEFE"/>
<circle cx="20.308" cy="19.9462" r="9.94551" transform="rotate(-37.8968 20.308 19.9462)" fill="#2FC4A7"/>
<circle cx="20.308" cy="19.9462" r="9.94551" transform="rotate(-37.8968 20.308 19.9462)" fill="white" fill-opacity="0.95"/>
<circle cx="20.3083" cy="19.9457" r="8.64827" transform="rotate(-37.8968 20.3083 19.9457)" fill="#D0333D"/>
<path d="M18.8027 18.0126L15.7925 14.1453M24.8231 25.747L21.8129 21.8798M22.2414 18.4411L26.1087 15.4309M14.507 24.4615L18.3742 21.4513M22.7394 20.2492L27.6024 20.8552M13.0132 19.0372L17.8763 19.6432M20.6108 17.5146L21.2168 12.6516M19.3988 27.2408L20.0048 22.3777M21.5495 17.8337L24.0329 13.6089M16.5828 26.2835L19.0661 22.0586M22.662 19.2664L27.3703 17.907M13.2453 21.9854L17.9537 20.6259M19.6394 17.5888L18.3026 12.8739M22.3131 27.0184L20.9762 22.3036M22.4459 21.1432L26.7221 23.5372M13.8936 16.3552L18.1698 18.7492" stroke="#D0333D" stroke-width="0.568813" stroke-linecap="round"/>
<path d="M18.8027 18.0126L15.7925 14.1453M24.8231 25.747L21.8129 21.8798M22.2414 18.4411L26.1087 15.4309M14.507 24.4615L18.3742 21.4513M22.7394 20.2492L27.6024 20.8552M13.0132 19.0372L17.8763 19.6432M20.6108 17.5146L21.2168 12.6516M19.3988 27.2408L20.0048 22.3777M21.5495 17.8337L24.0329 13.6089M16.5828 26.2835L19.0661 22.0586M22.662 19.2664L27.3703 17.907M13.2453 21.9854L17.9537 20.6259M19.6394 17.5888L18.3026 12.8739M22.3131 27.0184L20.9762 22.3036M22.4459 21.1432L26.7221 23.5372M13.8936 16.3552L18.1698 18.7492" stroke="white" stroke-opacity="0.4" stroke-width="0.568813" stroke-linecap="round"/>
<circle cx="20.308" cy="19.9462" r="3.45931" transform="rotate(-37.8968 20.308 19.9462)" fill="#D0333D"/>
<circle cx="20.308" cy="19.9462" r="3.45931" transform="rotate(-37.8968 20.308 19.9462)" fill="black" fill-opacity="0.8"/>
<ellipse cx="13.7108" cy="20.2905" rx="1.39223" ry="2.32039" transform="rotate(-7.89683 13.7108 20.2905)" fill="#FEFEFE"/>
<circle cx="92.8768" cy="48.7548" r="6.96186" transform="rotate(90 92.8768 48.7548)" fill="#2FC4A7"/>
<circle cx="92.8768" cy="48.7548" r="6.96186" transform="rotate(90 92.8768 48.7548)" fill="white" fill-opacity="0.95"/>
<circle cx="92.8769" cy="48.7553" r="6.05379" transform="rotate(90 92.8769 48.7553)" fill="#D0333D"/>
<path d="M94.592 48.7549L98.0225 48.7549M87.731 48.7549L91.1615 48.7549M92.8767 50.4701L92.8767 53.9006M92.8767 43.6092L92.8767 47.0396M91.6639 49.9677L89.2382 52.3935M96.5153 45.1163L94.0896 47.542M94.0896 49.9677L96.5153 52.3935M89.2382 45.1163L91.6639 47.542M93.5097 50.3491L94.7757 53.5374M90.9778 43.9724L92.2438 47.1607M92.24 50.3476L90.9665 53.5329M94.787 43.9769L93.5135 47.1622M94.4663 49.3993L97.6455 50.6881M88.108 46.8217L91.2872 48.1105M91.2962 49.4212L88.1352 50.754M97.6183 46.7558L94.4572 48.0885" stroke="#D0333D" stroke-width="0.472196" stroke-linecap="round"/>
<path d="M94.592 48.7549L98.0225 48.7549M87.731 48.7549L91.1615 48.7549M92.8767 50.4701L92.8767 53.9006M92.8767 43.6092L92.8767 47.0396M91.6639 49.9677L89.2382 52.3935M96.5153 45.1163L94.0896 47.542M94.0896 49.9677L96.5153 52.3935M89.2382 45.1163L91.6639 47.542M93.5097 50.3491L94.7757 53.5374M90.9778 43.9724L92.2438 47.1607M92.24 50.3476L90.9665 53.5329M94.787 43.9769L93.5135 47.1622M94.4663 49.3993L97.6455 50.6881M88.108 46.8217L91.2872 48.1105M91.2962 49.4212L88.1352 50.754M97.6183 46.7558L94.4572 48.0885" stroke="white" stroke-opacity="0.4" stroke-width="0.472196" stroke-linecap="round"/>
<circle cx="92.8768" cy="48.7547" r="2.42151" transform="rotate(90 92.8768 48.7547)" fill="#D0333D"/>
<circle cx="92.8768" cy="48.7547" r="2.42151" transform="rotate(90 92.8768 48.7547)" fill="black" fill-opacity="0.8"/>
<ellipse cx="95.523" cy="44.9626" rx="0.974563" ry="1.62427" transform="rotate(120 95.523 44.9626)" fill="#FEFEFE"/>
<circle cx="82.7961" cy="25.7449" r="9.94551" transform="rotate(33.6196 82.7961 25.7449)" fill="#2FC4A7"/>
<circle cx="82.7961" cy="25.7449" r="9.94551" transform="rotate(33.6196 82.7961 25.7449)" fill="white" fill-opacity="0.95"/>
<circle cx="82.7969" cy="25.7453" r="8.64827" transform="rotate(33.6196 82.7969 25.7453)" fill="#D0333D"/>
<path d="M84.1529 23.7045L86.8663 19.6235M78.7261 31.8664L81.4395 27.7855M84.8367 27.1017L88.9177 29.8151M76.6748 21.6749L80.7557 24.3883M83.2797 28.1471L84.2467 32.9515M81.3457 18.5385L82.3127 23.3428M85.1984 25.2615L90.0027 24.2945M75.5897 27.1955L80.3941 26.2285M85.1933 26.2529L89.9876 27.2687M75.6049 24.2212L80.3991 25.2371M84.1872 27.7622L86.9693 31.7967M78.6231 19.6933L81.4052 23.7278M84.8201 24.3637L88.8679 21.6011M76.7245 29.8889L80.7723 27.1263M82.3388 28.1522L81.424 32.9668M84.1684 18.5232L83.2536 23.3377" stroke="#D0333D" stroke-width="0.598224" stroke-linecap="round"/>
<path d="M84.1529 23.7045L86.8663 19.6235M78.7261 31.8664L81.4395 27.7855M84.8367 27.1017L88.9177 29.8151M76.6748 21.6749L80.7557 24.3883M83.2797 28.1471L84.2467 32.9515M81.3457 18.5385L82.3127 23.3428M85.1984 25.2615L90.0027 24.2945M75.5897 27.1955L80.3941 26.2285M85.1933 26.2529L89.9876 27.2687M75.6049 24.2212L80.3991 25.2371M84.1872 27.7622L86.9693 31.7967M78.6231 19.6933L81.4052 23.7278M84.8201 24.3637L88.8679 21.6011M76.7245 29.8889L80.7723 27.1263M82.3388 28.1522L81.424 32.9668M84.1684 18.5232L83.2536 23.3377" stroke="white" stroke-opacity="0.4" stroke-width="0.598224" stroke-linecap="round"/>
<circle cx="82.7959" cy="25.7448" r="3.45931" transform="rotate(33.6196 82.7959 25.7448)" fill="#D0333D"/>
<circle cx="82.7959" cy="25.7448" r="3.45931" transform="rotate(33.6196 82.7959 25.7448)" fill="black" fill-opacity="0.8"/>
<ellipse cx="80.378" cy="19.5972" rx="1.39223" ry="2.32039" transform="rotate(63.6196 80.378 19.5972)" fill="#FEFEFE"/>
<circle cx="7.00985" cy="45.4356" r="6.96186" transform="rotate(-32.4403 7.00985 45.4356)" fill="#2FC4A7"/>
<circle cx="7.00985" cy="45.4356" r="6.96186" transform="rotate(-32.4403 7.00985 45.4356)" fill="white" fill-opacity="0.95"/>
<circle cx="7.01028" cy="45.4352" r="6.05379" transform="rotate(-32.4403 7.01028 45.4352)" fill="#D0333D"/>
<path d="M6.0899 43.988L4.24972 41.0928M9.77025 49.7783L7.93007 46.8831M8.45756 44.5155L11.3527 42.6753M2.66725 48.1958L5.56241 46.3556M8.68418 45.8085L12.0326 46.5545M1.9874 44.3166L5.33579 45.0626M7.38298 43.7614L8.12896 40.413M5.89101 50.4581L6.63699 47.1097M8.01584 44.0462L10.0275 41.2675M3.99243 49.6036L6.00413 46.8249M8.69568 45.1186L12.0671 44.4847M1.95289 46.3864L5.32429 45.7525M6.70115 43.7484L6.08344 40.3739M7.93653 50.4972L7.31883 47.1228M8.42017 46.412L11.2406 48.3648M2.7794 42.5063L5.59979 44.4591" stroke="#D0333D" stroke-width="0.472196" stroke-linecap="round"/>
<path d="M6.0899 43.988L4.24972 41.0928M9.77025 49.7783L7.93007 46.8831M8.45756 44.5155L11.3527 42.6753M2.66725 48.1958L5.56241 46.3556M8.68418 45.8085L12.0326 46.5545M1.9874 44.3166L5.33579 45.0626M7.38298 43.7614L8.12896 40.413M5.89101 50.4581L6.63699 47.1097M8.01584 44.0462L10.0275 41.2675M3.99243 49.6036L6.00413 46.8249M8.69568 45.1186L12.0671 44.4847M1.95289 46.3864L5.32429 45.7525M6.70115 43.7484L6.08344 40.3739M7.93653 50.4972L7.31883 47.1228M8.42017 46.412L11.2406 48.3648M2.7794 42.5063L5.59979 44.4591" stroke="white" stroke-opacity="0.4" stroke-width="0.472196" stroke-linecap="round"/>
<circle cx="7.00983" cy="45.4357" r="2.42151" transform="rotate(-32.4403 7.00983 45.4357)" fill="#D0333D"/>
<circle cx="7.00983" cy="45.4357" r="2.42151" transform="rotate(-32.4403 7.00983 45.4357)" fill="black" fill-opacity="0.8"/>
<ellipse cx="2.38976" cy="45.2364" rx="0.974563" ry="1.62427" transform="rotate(-2.44028 2.38976 45.2364)" fill="#FEFEFE"/>
<circle cx="92.8768" cy="48.7548" r="6.96186" transform="rotate(90 92.8768 48.7548)" fill="#2FC4A7"/>
<circle cx="92.8768" cy="48.7548" r="6.96186" transform="rotate(90 92.8768 48.7548)" fill="white" fill-opacity="0.95"/>
<circle cx="92.8769" cy="48.7553" r="6.05379" transform="rotate(90 92.8769 48.7553)" fill="#D0333D"/>
<path d="M94.592 48.7549L98.0225 48.7549M87.731 48.7549L91.1615 48.7549M92.8767 50.4701L92.8767 53.9006M92.8767 43.6092L92.8767 47.0396M91.6639 49.9677L89.2382 52.3935M96.5153 45.1163L94.0896 47.542M94.0896 49.9677L96.5153 52.3935M89.2382 45.1163L91.6639 47.542M93.5097 50.3491L94.7757 53.5374M90.9778 43.9724L92.2438 47.1607M92.24 50.3476L90.9665 53.5329M94.787 43.9769L93.5135 47.1622M94.4663 49.3993L97.6455 50.6881M88.108 46.8217L91.2872 48.1105M91.2962 49.4212L88.1352 50.754M97.6183 46.7558L94.4572 48.0885" stroke="#D0333D" stroke-width="0.472196" stroke-linecap="round"/>
<path d="M94.592 48.7549L98.0225 48.7549M87.731 48.7549L91.1615 48.7549M92.8767 50.4701L92.8767 53.9006M92.8767 43.6092L92.8767 47.0396M91.6639 49.9677L89.2382 52.3935M96.5153 45.1163L94.0896 47.542M94.0896 49.9677L96.5153 52.3935M89.2382 45.1163L91.6639 47.542M93.5097 50.3491L94.7757 53.5374M90.9778 43.9724L92.2438 47.1607M92.24 50.3476L90.9665 53.5329M94.787 43.9769L93.5135 47.1622M94.4663 49.3993L97.6455 50.6881M88.108 46.8217L91.2872 48.1105M91.2962 49.4212L88.1352 50.754M97.6183 46.7558L94.4572 48.0885" stroke="white" stroke-opacity="0.4" stroke-width="0.472196" stroke-linecap="round"/>
<circle cx="92.8768" cy="48.7547" r="2.42151" transform="rotate(90 92.8768 48.7547)" fill="#D0333D"/>
<circle cx="92.8768" cy="48.7547" r="2.42151" transform="rotate(90 92.8768 48.7547)" fill="black" fill-opacity="0.8"/>
<ellipse cx="95.523" cy="44.9626" rx="0.974563" ry="1.62427" transform="rotate(120 95.523 44.9626)" fill="#FEFEFE"/>
<ellipse cx="93.9851" cy="75.8792" rx="5.86318" ry="5.96084" transform="rotate(149.829 93.9851 75.8792)" fill="#2FC4A7"/>
<ellipse cx="93.9851" cy="75.8792" rx="5.86318" ry="5.96084" transform="rotate(149.829 93.9851 75.8792)" fill="white" fill-opacity="0.95"/>
<ellipse cx="93.985" cy="75.8795" rx="5.09841" ry="5.18334" transform="rotate(149.829 93.985 75.8795)" fill="#D0333D"/>
<path d="M94.723 77.1489L96.1992 79.6882M91.7706 72.0703L93.2468 74.6096M92.7361 76.6053L90.2384 78.0573M97.7315 73.7012L95.2338 75.1532M92.5799 75.4948L89.7699 74.726M98.1999 77.0325L95.3899 76.2637M93.6238 77.2904L92.9015 80.1127M95.0684 71.6458L94.3461 74.4681M93.0966 77.0226L91.32 79.3092M96.6499 72.4493L94.8732 74.7359M92.5513 76.0821L89.6841 76.4877M98.2858 75.2708L95.4185 75.6765M94.1998 77.3287L94.6295 80.2275M93.3404 71.5311L93.7701 74.4299M92.8196 74.9914L90.489 73.2156M97.4808 78.5429L95.1502 76.7671" stroke="#D0333D" stroke-width="0.462165" stroke-linecap="round"/>
<path d="M94.723 77.1489L96.1992 79.6882M91.7706 72.0703L93.2468 74.6096M92.7361 76.6053L90.2384 78.0573M97.7315 73.7012L95.2338 75.1532M92.5799 75.4948L89.7699 74.726M98.1999 77.0325L95.3899 76.2637M93.6238 77.2904L92.9015 80.1127M95.0684 71.6458L94.3461 74.4681M93.0966 77.0226L91.32 79.3092M96.6499 72.4493L94.8732 74.7359M92.5513 76.0821L89.6841 76.4877M98.2858 75.2708L95.4185 75.6765M94.1998 77.3287L94.6295 80.2275M93.3404 71.5311L93.7701 74.4299M92.8196 74.9914L90.489 73.2156M97.4808 78.5429L95.1502 76.7671" stroke="white" stroke-opacity="0.4" stroke-width="0.462165" stroke-linecap="round"/>
<ellipse cx="93.9852" cy="75.8792" rx="2.03937" ry="2.07334" transform="rotate(149.829 93.9852 75.8792)" fill="#D0333D"/>
<ellipse cx="93.9852" cy="75.8792" rx="2.03937" ry="2.07334" transform="rotate(149.829 93.9852 75.8792)" fill="black" fill-opacity="0.8"/>
<ellipse cx="0.824203" cy="1.38506" rx="0.824203" ry="1.38506" transform="matrix(-0.999991 -0.0041923 -0.0101145 -0.999949 98.7231 77.6215)" fill="#FEFEFE"/>
<ellipse cx="7.34532" cy="76.5865" rx="5.78383" ry="5.73269" transform="rotate(-32.4403 7.34532 76.5865)" fill="#2FC4A7"/>
<ellipse cx="7.34532" cy="76.5865" rx="5.78383" ry="5.73269" transform="rotate(-32.4403 7.34532 76.5865)" fill="white" fill-opacity="0.95"/>
<ellipse cx="7.34562" cy="76.5862" rx="5.02942" ry="4.98495" transform="rotate(-32.4403 7.34562 76.5862)" fill="#D0333D"/>
<path d="M6.58778 75.3944L5.0725 73.0104M9.61835 80.1624L8.10306 77.7784M8.54805 75.822L10.9533 74.2932M3.73752 78.8796L6.14279 77.3508M8.73154 76.8888L11.5038 77.4935M3.18705 75.6794L5.9593 76.2841M7.66008 75.2031L8.28939 72.4363M6.40145 80.7366L7.03076 77.9698M8.18357 75.4361L9.85986 73.1354M4.83098 80.0374L6.50727 77.7368M8.74337 76.3192L11.5393 75.7846M3.15157 77.3883L5.94747 76.8537M7.0951 75.1946L6.59445 72.4109M8.0964 80.762L7.59574 77.9783M8.51076 77.3878L10.8415 78.9906M3.84938 74.1822L6.18008 75.785" stroke="#D0333D" stroke-width="0.472196" stroke-linecap="round"/>
<path d="M6.58778 75.3944L5.0725 73.0104M9.61835 80.1624L8.10306 77.7784M8.54805 75.822L10.9533 74.2932M3.73752 78.8796L6.14279 77.3508M8.73154 76.8888L11.5038 77.4935M3.18705 75.6794L5.9593 76.2841M7.66008 75.2031L8.28939 72.4363M6.40145 80.7366L7.03076 77.9698M8.18357 75.4361L9.85986 73.1354M4.83098 80.0374L6.50727 77.7368M8.74337 76.3192L11.5393 75.7846M3.15157 77.3883L5.94747 76.8537M7.0951 75.1946L6.59445 72.4109M8.0964 80.762L7.59574 77.9783M8.51076 77.3878L10.8415 78.9906M3.84938 74.1822L6.18008 75.785" stroke="white" stroke-opacity="0.4" stroke-width="0.472196" stroke-linecap="round"/>
<ellipse cx="7.34557" cy="76.5865" rx="2.01177" ry="1.99398" transform="rotate(-32.4403 7.34557 76.5865)" fill="#D0333D"/>
<ellipse cx="7.34557" cy="76.5865" rx="2.01177" ry="1.99398" transform="rotate(-32.4403 7.34557 76.5865)" fill="black" fill-opacity="0.8"/>
<ellipse cx="0.807873" cy="1.34049" rx="0.807873" ry="1.34049" transform="matrix(0.998922 -0.0464113 0.038727 0.99925 2.65869 75.1354)" fill="#FEFEFE"/>
</g>
<defs>
<clipPath id="clip0_3442_29752">
<rect width="100" height="100" fill="white"/>
</clipPath>
</defs>
</svg>
