<svg width="100" height="100" viewBox="0 0 100 100" fill="none" xmlns="http://www.w3.org/2000/svg">
<g clip-path="url(#clip0_2316_10932)">
<path d="M31.5 62.5C29.2464 61.3732 24.378 52.8475 22.5 50.5L24.5 50C26.378 51.878 31.7464 57.8732 34 59C36.2536 60.1268 41.5 62.5 45.5088 62C48 60.2871 50.8732 56.2536 52 54C53.1268 51.7464 56.0305 42.378 56.5 40.5L58.5 41C58.2652 42.878 58.0121 49.4448 56.5 54.5C55.4013 56.5468 53.7043 60.5915 53 62C57.6951 61.061 65.2464 58.6268 67.5 57.5C69.7536 56.3732 73.6791 52.7618 75.0876 51.3533L78 53C76.122 54.878 72.1268 59.3732 71 60.5C69.5915 61.9085 60.0636 65.0152 57.5 67.5C55.2385 69.692 55.4477 87.1182 56.9599 90.1424C58.2197 92.662 59.5915 92.5915 61 94C62.1268 95.1268 64.0305 99.0173 64.5 100.426H61C61 100.426 59.2534 95.9085 56.4364 94.5C53.6193 93.0915 48.3879 91.6545 48.3879 91.6545C49.5 95.5 49.5 97.5 49.0967 100.426H45.5088C46 97 46 95.5 43.8515 91.6545C41.4701 92.2993 39.5 93.5 37.5 94.5C36.5 96 35.1135 98.1337 34.5 100C34 100 32.5 99.5 32 99.5C32.6818 97.7293 34 95 35 93.5C35.8499 92.6951 36.1476 91.4948 37.5 90.1424C39.0121 87.1182 39.1727 70.503 38 67.5C36.5915 64.683 34.317 63.9085 31.5 62.5Z" fill="#FAA21E"/>
<path d="M31.5 62.5C29.2464 61.3732 24.378 52.8475 22.5 50.5L24.5 50C26.378 51.878 31.7464 57.8732 34 59C36.2536 60.1268 41.5 62.5 45.5088 62C48 60.2871 50.8732 56.2536 52 54C53.1268 51.7464 56.0305 42.378 56.5 40.5L58.5 41C58.2652 42.878 58.0121 49.4448 56.5 54.5C55.4013 56.5468 53.7043 60.5915 53 62C57.6951 61.061 65.2464 58.6268 67.5 57.5C69.7536 56.3732 73.6791 52.7618 75.0876 51.3533L78 53C76.122 54.878 72.1268 59.3732 71 60.5C69.5915 61.9085 60.0636 65.0152 57.5 67.5C55.2385 69.692 55.4477 87.1182 56.9599 90.1424C58.2197 92.662 59.5915 92.5915 61 94C62.1268 95.1268 64.0305 99.0173 64.5 100.426H61C61 100.426 59.2534 95.9085 56.4364 94.5C53.6193 93.0915 48.3879 91.6545 48.3879 91.6545C49.5 95.5 49.5 97.5 49.0967 100.426H45.5088C46 97 46 95.5 43.8515 91.6545C41.4701 92.2993 39.5 93.5 37.5 94.5C36.5 96 35.1135 98.1337 34.5 100C34 100 32.5 99.5 32 99.5C32.6818 97.7293 34 95 35 93.5C35.8499 92.6951 36.1476 91.4948 37.5 90.1424C39.0121 87.1182 39.1727 70.503 38 67.5C36.5915 64.683 34.317 63.9085 31.5 62.5Z" fill="black" fill-opacity="0.6"/>
<path d="M96.9053 38.7224C102.265 40.1797 99.5855 48.9233 96.9052 48.9233C99.5856 50.3806 99.0494 53.5866 96.9053 54.7524C94.2252 56.2097 93.7785 54.7524 92.8851 53.2952C92.8851 56.2097 91.009 62.0388 83.5046 62.0388C76.0002 62.0388 74.1241 56.2097 74.1241 53.2952C70.9973 53.2952 64.5 53.5867 64.5 48.9234C64.5 44.2601 61.7334 45.084 59.5 46.0555C56.9567 47.5596 56.7033 50.6721 51.343 51.8379C45.9827 53.0037 41.9625 50.3806 40.6224 48.9234C40.6224 50.3806 39.5504 53.2952 35.2622 53.2952C29.9019 53.2952 31.242 54.7524 27.2217 59.1243C24.0056 62.6217 19.628 61.5531 17.8413 60.5816C17.3946 60.0958 15.9652 59.7072 13.8211 62.0388C11.1409 64.9534 4.44061 60.5816 5.78067 57.667C7.12074 54.7524 4.4406 53.2952 1.76046 51.8379C-0.919678 50.3806 -0.919678 40.1797 4.4406 37.2651C9.80087 34.3506 9.80087 37.2651 12.481 34.3506C14.6251 32.0189 14.2678 29.493 13.8211 28.5215C12.9277 25.1212 12.481 17.1547 17.8413 12.4914C21.8613 8.99411 27.2216 6.66232 31.2418 8.1196C35.262 9.57688 36.6021 11.0342 39.2822 11.0342C41.4263 11.0342 43.3026 9.57688 43.3026 8.1196C43.3026 6.66233 43.8386 3.45634 45.9827 2.29052C48.1268 1.1247 50.4496 3.74781 51.343 5.20509C53.1297 4.23357 61.591 2.03364 67.4236 5.20505C75.4639 9.57684 74.124 18.3205 74.1241 19.7779C76.8041 18.3205 83.5045 18.3205 88.8647 22.6924C95.2971 27.9386 93.0051 37.6621 96.9053 38.7224Z" fill="#2FC4A7"/>
<path d="M96.9053 38.7224C102.265 40.1797 99.5855 48.9233 96.9052 48.9233C99.5856 50.3806 99.0494 53.5866 96.9053 54.7524C94.2252 56.2097 93.7785 54.7524 92.8851 53.2952C92.8851 56.2097 91.009 62.0388 83.5046 62.0388C76.0002 62.0388 74.1241 56.2097 74.1241 53.2952C70.9973 53.2952 64.5 53.5867 64.5 48.9234C64.5 44.2601 61.7334 45.084 59.5 46.0555C56.9567 47.5596 56.7033 50.6721 51.343 51.8379C45.9827 53.0037 41.9625 50.3806 40.6224 48.9234C40.6224 50.3806 39.5504 53.2952 35.2622 53.2952C29.9019 53.2952 31.242 54.7524 27.2217 59.1243C24.0056 62.6217 19.628 61.5531 17.8413 60.5816C17.3946 60.0958 15.9652 59.7072 13.8211 62.0388C11.1409 64.9534 4.44061 60.5816 5.78067 57.667C7.12074 54.7524 4.4406 53.2952 1.76046 51.8379C-0.919678 50.3806 -0.919678 40.1797 4.4406 37.2651C9.80087 34.3506 9.80087 37.2651 12.481 34.3506C14.6251 32.0189 14.2678 29.493 13.8211 28.5215C12.9277 25.1212 12.481 17.1547 17.8413 12.4914C21.8613 8.99411 27.2216 6.66232 31.2418 8.1196C35.262 9.57688 36.6021 11.0342 39.2822 11.0342C41.4263 11.0342 43.3026 9.57688 43.3026 8.1196C43.3026 6.66233 43.8386 3.45634 45.9827 2.29052C48.1268 1.1247 50.4496 3.74781 51.343 5.20509C53.1297 4.23357 61.591 2.03364 67.4236 5.20505C75.4639 9.57684 74.124 18.3205 74.1241 19.7779C76.8041 18.3205 83.5045 18.3205 88.8647 22.6924C95.2971 27.9386 93.0051 37.6621 96.9053 38.7224Z" fill="black" fill-opacity="0.4"/>
<path d="M5.72333 30.7024C1.00644 31.9207 3.36476 39.231 5.72342 39.231C3.36471 40.4494 3.83652 43.1298 5.72333 44.1045C8.08185 45.3229 8.47494 44.1045 9.26111 42.8861C9.26111 45.3229 10.9121 50.1964 17.5159 50.1964C24.1198 50.1964 25.7708 45.3229 25.7708 42.8861C28.5224 42.8861 34.0256 41.9114 34.0256 38.0126C34.0256 34.1138 37.9564 34.7636 39.9219 35.5759C39.9219 37.2004 41.1011 40.693 45.8182 41.6677C50.5352 42.6424 54.073 40.4494 55.2523 39.231C55.2523 40.4494 56.1957 42.8861 59.9693 42.8861C64.6863 42.8861 63.5071 44.1045 67.0449 47.7596C69.8751 50.6838 73.7273 49.7903 75.2997 48.978C75.6928 48.5719 76.9506 48.247 78.8375 50.1964C81.196 52.6332 87.0923 48.978 85.913 46.5413C84.7337 44.1045 87.0923 42.8861 89.4508 41.6677C91.8093 40.4494 91.8093 31.9207 87.0923 29.484C82.3752 27.0472 82.3752 29.484 80.0167 27.0472C78.1299 25.0978 78.4444 22.9859 78.8375 22.1737C79.6236 19.3308 80.0167 12.6703 75.2997 8.77152C71.762 5.84753 67.045 3.898 63.5072 5.11638C59.9694 6.33476 58.7902 7.55314 56.4317 7.55314C54.5448 7.55314 54 7.21837 54 5.99999C54 4.78162 54 1 50.5352 0.242889C48.4605 -0.210477 46.6043 1.46128 45.8182 2.67966C44.2458 1.86741 36.7999 0.0281215 31.6672 2.67962C24.5918 6.33473 25.7709 13.645 25.7708 14.8634C23.4124 13.645 17.5161 13.645 12.799 17.3002C7.13859 21.6863 9.15548 29.8159 5.72333 30.7024Z" fill="#2FC4A7"/>
<path d="M5.72333 30.7024C1.00644 31.9207 3.36476 39.231 5.72342 39.231C3.36471 40.4494 3.83652 43.1298 5.72333 44.1045C8.08185 45.3229 8.47494 44.1045 9.26111 42.8861C9.26111 45.3229 10.9121 50.1964 17.5159 50.1964C24.1198 50.1964 25.7708 45.3229 25.7708 42.8861C28.5224 42.8861 34.0256 41.9114 34.0256 38.0126C34.0256 34.1138 37.9564 34.7636 39.9219 35.5759C39.9219 37.2004 41.1011 40.693 45.8182 41.6677C50.5352 42.6424 54.073 40.4494 55.2523 39.231C55.2523 40.4494 56.1957 42.8861 59.9693 42.8861C64.6863 42.8861 63.5071 44.1045 67.0449 47.7596C69.8751 50.6838 73.7273 49.7903 75.2997 48.978C75.6928 48.5719 76.9506 48.247 78.8375 50.1964C81.196 52.6332 87.0923 48.978 85.913 46.5413C84.7337 44.1045 87.0923 42.8861 89.4508 41.6677C91.8093 40.4494 91.8093 31.9207 87.0923 29.484C82.3752 27.0472 82.3752 29.484 80.0167 27.0472C78.1299 25.0978 78.4444 22.9859 78.8375 22.1737C79.6236 19.3308 80.0167 12.6703 75.2997 8.77152C71.762 5.84753 67.045 3.898 63.5072 5.11638C59.9694 6.33476 58.7902 7.55314 56.4317 7.55314C54.5448 7.55314 54 7.21837 54 5.99999C54 4.78162 54 1 50.5352 0.242889C48.4605 -0.210477 46.6043 1.46128 45.8182 2.67966C44.2458 1.86741 36.7999 0.0281215 31.6672 2.67962C24.5918 6.33473 25.7709 13.645 25.7708 14.8634C23.4124 13.645 17.5161 13.645 12.799 17.3002C7.13859 21.6863 9.15548 29.8159 5.72333 30.7024Z" fill="black" fill-opacity="0.2"/>
<ellipse cx="42" cy="73" rx="1.5" ry="3" fill="#191003"/>
<ellipse cx="52" cy="73" rx="1.5" ry="3" fill="#191003"/>
<path d="M40.5 78C42.9583 78 46.4347 76.5 47.212 75C49 76.5 49 77.25 47.9894 79.5C46.6938 79.75 44.1025 81 40.993 81C38.4288 81 30.1095 79.5 27 77.25L27.5 76C30.6095 78.25 38.0417 78 40.5 78Z" fill="#FAA21E"/>
<path d="M40.5 78C42.9583 78 46.4347 76.5 47.212 75C49 76.5 49 77.25 47.9894 79.5C46.6938 79.75 44.1025 81 40.993 81C38.4288 81 30.1095 79.5 27 77.25L27.5 76C30.6095 78.25 38.0417 78 40.5 78Z" fill="black" fill-opacity="0.4"/>
<path d="M33.5 74.5L36 80H34.5L33 75L33.5 74.5Z" fill="#FAA21E"/>
<path d="M33.5 74.5L36 80H34.5L33 75L33.5 74.5Z" fill="black" fill-opacity="0.4"/>
<path d="M34 72C33.5634 70.4629 31.5542 69.8492 30.8237 69.6938C30.6767 70.3847 29.7397 71.9185 30.089 73.1482C30.4383 74.3779 32.6683 75.3818 33.4478 75.3069C34 74.5 34.4366 73.5371 34 72Z" fill="#2FC4A7"/>
<path d="M34 72C33.5634 70.4629 31.5542 69.8492 30.8237 69.6938C30.6767 70.3847 29.7397 71.9185 30.089 73.1482C30.4383 74.3779 32.6683 75.3818 33.4478 75.3069C34 74.5 34.4366 73.5371 34 72Z" fill="black" fill-opacity="0.2"/>
</g>
<defs>
<clipPath id="clip0_2316_10932">
<rect width="100" height="100" fill="white"/>
</clipPath>
</defs>
</svg>
