<svg width="100" height="100" viewBox="0 0 100 100" fill="none" xmlns="http://www.w3.org/2000/svg">
<path d="M79.9441 60.6013C79.9441 56.9065 72.0965 55.5847 70.4441 58.8895C70.444 63.6013 69.0295 72.3667 71.2499 74.5871C73.4703 76.8074 81.629 77.4272 84.4691 74.5871C86.9476 72.1086 79.9441 64.8132 79.9441 60.6013Z" fill="#2FC4A7"/>
<path d="M9.91429 50.5262C13.88 53.17 18.727 54.3818 20.6548 54.6572V59.6143C18.1762 58.5127 12.0488 56.2982 9.0881 53.831C4.13096 49.7 2.47857 45.5691 0 39.7857C3.30476 44.7429 5.94858 47.8824 9.91429 50.5262Z" fill="#2FC4A7"/>
<path d="M9.91429 50.5262C13.88 53.17 18.727 54.3818 20.6548 54.6572V59.6143C18.1762 58.5127 12.0488 56.2982 9.0881 53.831C4.13096 49.7 2.47857 45.5691 0 39.7857C3.30476 44.7429 5.94858 47.8824 9.91429 50.5262Z" fill="white" fill-opacity="0.4"/>
<ellipse cx="45.4749" cy="61.281" rx="33.6512" ry="10.7405" transform="rotate(3.91727 45.4749 61.281)" fill="#FAA21E"/>
<ellipse cx="45.4749" cy="61.281" rx="33.6512" ry="10.7405" transform="rotate(3.91727 45.4749 61.281)" fill="white" fill-opacity="0.6"/>
<path d="M58.9999 65C58.9999 61.3052 49.6522 61.1952 47.9999 64.5C46.6229 69.1818 45.2795 78.2796 47.5 80.5C49.7204 82.7203 59.3989 83.9354 62.239 81.0953C64.7175 78.6169 59.0001 71 58.9999 65Z" fill="#2FC4A7"/>
<path d="M58.9999 65C58.9999 61.3052 49.6522 61.1952 47.9999 64.5C46.6229 69.1818 45.2795 78.2796 47.5 80.5C49.7204 82.7203 59.3989 83.9354 62.239 81.0953C64.7175 78.6169 59.0001 71 58.9999 65Z" fill="white" fill-opacity="0.4"/>
<path d="M22.1728 55.6514C22.1728 51.6785 13.5959 52.1162 11.7831 55.6514C10.2725 60.6595 8.56398 70.0683 11 72.4435C13.436 74.8186 22.3842 76.0381 25.5 73C28.2191 70.3487 22.1728 60 22.1728 55.6514Z" fill="#2FC4A7"/>
<path d="M22.1728 55.6514C22.1728 51.6785 13.5959 52.1162 11.7831 55.6514C10.2725 60.6595 8.56398 70.0683 11 72.4435C13.436 74.8186 22.3842 76.0381 25.5 73C28.2191 70.3487 22.1728 60 22.1728 55.6514Z" fill="white" fill-opacity="0.4"/>
<path d="M46.3058 67.7695C31.5918 66.9487 14.5696 59.2884 9.08789 56.279C11.6845 53.8168 13.3654 50.0659 15.1466 47.2508C17.7432 43.147 22.0709 11.9586 51.499 15.2416C78.3306 18.2349 76.5995 50.5338 78.3306 54.6375C79.7154 57.9205 81.2157 60.9299 81.7927 62.0242C73.1374 64.4865 61.0199 68.5902 46.3058 67.7695Z" fill="#2FC4A7"/>
<path d="M46.3058 67.7695C31.5918 66.9487 14.5696 59.2884 9.08789 56.279C11.6845 53.8168 13.3654 50.0659 15.1466 47.2508C17.7432 43.147 22.0709 11.9586 51.499 15.2416C78.3306 18.2349 76.5995 50.5338 78.3306 54.6375C79.7154 57.9205 81.2157 60.9299 81.7927 62.0242C73.1374 64.4865 61.0199 68.5902 46.3058 67.7695Z" fill="black" fill-opacity="0.4"/>
<path fill-rule="evenodd" clip-rule="evenodd" d="M47.5073 24.6096L45.544 20.0287L48.6701 15.0271C49.5863 15.0626 50.529 15.1334 51.499 15.2416C52.7361 15.3796 53.9125 15.5799 55.0313 15.8369L53.027 21.8498L47.5073 24.6096ZM56.6339 16.2545L54.6194 22.2978L58.0257 27.0665L62.736 23.702L62.0938 18.5645C60.4607 17.6266 58.6479 16.8438 56.6339 16.2545ZM63.903 19.7157L64.4108 23.7781L68.4202 29.3912L67.0756 30.3516L63.4248 25.2406L58.5683 28.7096L56.2539 38.7387L60.9394 44.2052L61.1168 44.4121L61.1362 44.684L61.9624 56.2507L61.9951 56.708L61.6243 56.9777L52.5362 63.5872L51.898 64.0514L51.4051 63.4352L45.241 55.7301L35.9427 61.1542L35.1573 61.6123L34.7763 60.7867L30.1559 50.776L19.328 55.4166L18.4553 55.7906L18.2055 54.8745L15.7623 45.9162C15.5412 46.4933 15.3392 46.9465 15.1466 47.2508C14.6523 48.032 14.1657 48.8852 13.6652 49.763C12.362 52.0484 10.9639 54.5 9.08789 56.279C14.5696 59.2884 31.5918 66.9487 46.3058 67.7695C59.5485 68.5081 70.6879 65.258 79.0931 62.8056C80.027 62.5331 80.9272 62.2705 81.7927 62.0242C81.2157 60.9299 79.7154 57.9205 78.3306 54.6375C78.0239 53.9104 77.8259 52.2983 77.5584 50.1208C76.6026 42.3397 74.7602 27.3399 63.903 19.7157ZM16.4506 43.9628L21.4459 34.6857L21.0536 32.3314C18.991 36.3736 17.6651 40.3352 16.6987 43.2228C16.6133 43.4781 16.5306 43.725 16.4506 43.9628ZM22.3371 29.9817C25.2864 24.9418 29.4981 20.0762 35.7066 17.3191L36.3236 22.2552L31.653 30.0395L22.9511 33.6653L22.3371 29.9817ZM37.2917 16.6782L37.8736 21.3332L44.0714 19.2673L46.7357 15.0043C43.1842 15.0609 40.0546 15.6674 37.2917 16.6782ZM33.1409 30.7713L37.73 23.1229L44.1546 20.9813L46.2049 25.7654L43.1244 34.2368L35.96 37.819L33.1409 30.7713ZM44.6993 34.741L47.757 26.3322L53.4406 23.4904L56.9448 28.3962L54.6269 38.4403L49.021 41.944L44.6993 34.741ZM49.4526 43.6228L55.1902 40.0368L59.5075 45.0736L60.2816 55.9111L52.2024 61.7868L46.3523 54.4741L49.4526 43.6228ZM47.8526 43.2082L44.7375 54.1109L35.8955 59.2687L31.4792 49.7L36.1551 39.5689L43.4735 35.9097L47.8526 43.2082ZM34.6272 38.9362L29.9521 49.0656L19.5498 53.5238L17.4079 45.6701L22.8958 35.4784L31.7658 31.7826L34.6272 38.9362Z" fill="#2FC4A7"/>
<path fill-rule="evenodd" clip-rule="evenodd" d="M47.5073 24.6096L45.544 20.0287L48.6701 15.0271C49.5863 15.0626 50.529 15.1334 51.499 15.2416C52.7361 15.3796 53.9125 15.5799 55.0313 15.8369L53.027 21.8498L47.5073 24.6096ZM56.6339 16.2545L54.6194 22.2978L58.0257 27.0665L62.736 23.702L62.0938 18.5645C60.4607 17.6266 58.6479 16.8438 56.6339 16.2545ZM63.903 19.7157L64.4108 23.7781L68.4202 29.3912L67.0756 30.3516L63.4248 25.2406L58.5683 28.7096L56.2539 38.7387L60.9394 44.2052L61.1168 44.4121L61.1362 44.684L61.9624 56.2507L61.9951 56.708L61.6243 56.9777L52.5362 63.5872L51.898 64.0514L51.4051 63.4352L45.241 55.7301L35.9427 61.1542L35.1573 61.6123L34.7763 60.7867L30.1559 50.776L19.328 55.4166L18.4553 55.7906L18.2055 54.8745L15.7623 45.9162C15.5412 46.4933 15.3392 46.9465 15.1466 47.2508C14.6523 48.032 14.1657 48.8852 13.6652 49.763C12.362 52.0484 10.9639 54.5 9.08789 56.279C14.5696 59.2884 31.5918 66.9487 46.3058 67.7695C59.5485 68.5081 70.6879 65.258 79.0931 62.8056C80.027 62.5331 80.9272 62.2705 81.7927 62.0242C81.2157 60.9299 79.7154 57.9205 78.3306 54.6375C78.0239 53.9104 77.8259 52.2983 77.5584 50.1208C76.6026 42.3397 74.7602 27.3399 63.903 19.7157ZM16.4506 43.9628L21.4459 34.6857L21.0536 32.3314C18.991 36.3736 17.6651 40.3352 16.6987 43.2228C16.6133 43.4781 16.5306 43.725 16.4506 43.9628ZM22.3371 29.9817C25.2864 24.9418 29.4981 20.0762 35.7066 17.3191L36.3236 22.2552L31.653 30.0395L22.9511 33.6653L22.3371 29.9817ZM37.2917 16.6782L37.8736 21.3332L44.0714 19.2673L46.7357 15.0043C43.1842 15.0609 40.0546 15.6674 37.2917 16.6782ZM33.1409 30.7713L37.73 23.1229L44.1546 20.9813L46.2049 25.7654L43.1244 34.2368L35.96 37.819L33.1409 30.7713ZM44.6993 34.741L47.757 26.3322L53.4406 23.4904L56.9448 28.3962L54.6269 38.4403L49.021 41.944L44.6993 34.741ZM49.4526 43.6228L55.1902 40.0368L59.5075 45.0736L60.2816 55.9111L52.2024 61.7868L46.3523 54.4741L49.4526 43.6228ZM47.8526 43.2082L44.7375 54.1109L35.8955 59.2687L31.4792 49.7L36.1551 39.5689L43.4735 35.9097L47.8526 43.2082ZM34.6272 38.9362L29.9521 49.0656L19.5498 53.5238L17.4079 45.6701L22.8958 35.4784L31.7658 31.7826L34.6272 38.9362Z" fill="black" fill-opacity="0.2"/>
<path d="M98.9691 45.8031C98.9691 58.5793 89.1151 64.3548 75.7866 64.3548C62.458 64.3548 52.7024 58.5793 52.7024 45.8031C52.7024 33.0269 59.0964 20.5667 75.7866 20.5667C92.4767 20.5667 98.9691 33.0269 98.9691 45.8031Z" fill="#2FC4A7"/>
<path d="M98.9691 45.8031C98.9691 58.5793 89.1151 64.3548 75.7866 64.3548C62.458 64.3548 52.7024 58.5793 52.7024 45.8031C52.7024 33.0269 59.0964 20.5667 75.7866 20.5667C92.4767 20.5667 98.9691 33.0269 98.9691 45.8031Z" fill="white" fill-opacity="0.4"/>
<ellipse cx="65.0953" cy="52.7881" rx="4.95715" ry="4.13096" fill="#2FC4A7"/>
<ellipse cx="65.0953" cy="52.7881" rx="4.95715" ry="4.13096" fill="white" fill-opacity="0.2"/>
<ellipse cx="94.012" cy="52.7881" rx="3.30476" ry="4.13096" fill="#2FC4A7"/>
<ellipse cx="94.012" cy="52.7881" rx="3.30476" ry="4.13096" fill="white" fill-opacity="0.2"/>
<circle cx="67.5741" cy="47.0048" r="3.30476" fill="#141414"/>
<ellipse cx="93.1859" cy="47.0048" rx="2.47857" ry="3.30476" fill="#141414"/>
<path d="M81.6191 51.9619H84.9239" stroke="#2FC4A7" stroke-width="1.65238" stroke-linecap="round"/>
<path d="M81.6191 51.9619H84.9239" stroke="black" stroke-opacity="0.4" stroke-width="1.65238" stroke-linecap="round"/>
<path d="M82.4455 32.1333C73.3573 32.1333 64.765 32.1333 56.5031 30.481C55.5325 32.1404 55.1313 33.0371 54.5203 34.6119C63.443 36.2643 73.3573 37.0905 82.4455 37.0905C87.7331 37.0905 94.563 35.9889 97.317 35.4381C96.7525 33.5092 96.3052 32.4243 95.1687 30.481C93.2409 31.0318 87.7331 32.1333 82.4455 32.1333Z" fill="#546DDB"/>
<path d="M82.4455 32.1333C73.3573 32.1333 64.765 32.1333 56.5031 30.481C55.5325 32.1404 55.1313 33.0371 54.5203 34.6119C63.443 36.2643 73.3573 37.0905 82.4455 37.0905C87.7331 37.0905 94.563 35.9889 97.317 35.4381C96.7525 33.5092 96.3052 32.4243 95.1687 30.481C93.2409 31.0318 87.7331 32.1333 82.4455 32.1333Z" fill="black" fill-opacity="0.2"/>
<rect x="75.74" y="31.5057" width="13.2191" height="6.60953" rx="1.65238" transform="rotate(-1.70878 75.74 31.5057)" fill="#D9D9D9"/>
</svg>
