<svg width="100" height="100" viewBox="0 0 100 100" fill="none" xmlns="http://www.w3.org/2000/svg">
<g clip-path="url(#clip0_2337_11177)">
<path d="M2.12823 108.781C4.30408 103.994 12.6448 97.3575 16.2712 94.6377H83.7224C87.7115 97.1762 94.384 103.124 97.8653 108.781C102.217 115.852 -0.591576 114.764 2.12823 108.781Z" fill="#898989"/>
<path d="M2.12823 108.781C4.30408 103.994 12.6448 97.3575 16.2712 94.6377H83.7224C87.7115 97.1762 94.384 103.124 97.8653 108.781C102.217 115.852 -0.591576 114.764 2.12823 108.781Z" fill="black" fill-opacity="0.6"/>
<path d="M49.4526 58.1922C21.6018 56.8867 8.47417 62.3626 5.39172 65.2638C5.39172 68.1649 15.8358 101.492 51.0845 102.797C86.3333 104.103 94.2388 69.2528 94.6015 65.2638C91.1564 63.4505 77.3035 59.4978 49.4526 58.1922Z" fill="#D0333D"/>
<path d="M49.4526 58.1922C21.6018 56.8867 8.47417 62.3626 5.39172 65.2638C5.39172 68.1649 15.8358 101.492 51.0845 102.797C86.3333 104.103 94.2388 69.2528 94.6015 65.2638C91.1564 63.4505 77.3035 59.4978 49.4526 58.1922Z" fill="black" fill-opacity="0.4"/>
<path d="M63.5958 81.0387H36.3977L35.3098 96.8136L39.1175 114.764H61.42L64.6838 99.5334L63.5958 81.0387Z" fill="#898989"/>
<path d="M21.9029 51.649C24.8959 54.5372 27.0908 62.6239 27.2903 64.3568L28.4873 73.0212C25.8934 70.9033 20.107 65.3965 17.7126 60.3134C15.3182 55.2303 14.919 46.2578 15.318 43.5623C17.7126 49.3385 18.9099 48.7609 21.9029 51.649Z" fill="#898989"/>
<path d="M21.9029 51.649C24.8959 54.5372 27.0908 62.6239 27.2903 64.3568L28.4873 73.0212C25.8934 70.9033 20.107 65.3965 17.7126 60.3134C15.3182 55.2303 14.919 46.2578 15.318 43.5623C17.7126 49.3385 18.9099 48.7609 21.9029 51.649Z" fill="white" fill-opacity="0.6"/>
<path d="M77.8345 51.649C74.8415 54.5372 72.6467 62.6239 72.4471 64.3568L71.2501 73.0212C73.8441 70.9033 79.6305 65.3965 82.0249 60.3134C84.4193 55.2303 84.8185 46.2578 84.4194 43.5623C82.0249 49.3385 80.8276 48.7609 77.8345 51.649Z" fill="#898989"/>
<path d="M77.8345 51.649C74.8415 54.5372 72.6467 62.6239 72.4471 64.3568L71.2501 73.0212C73.8441 70.9033 79.6305 65.3965 82.0249 60.3134C84.4193 55.2303 84.8185 46.2578 84.4194 43.5623C82.0249 49.3385 80.8276 48.7609 77.8345 51.649Z" fill="white" fill-opacity="0.6"/>
<path d="M24.6859 63.0432C24.6859 61.9028 20.8847 54.9657 17.5587 52.1148C18.0339 54.4906 18.9841 58.2917 20.8847 61.1426C22.7706 63.9714 24.5275 66.3692 25.161 66.8443C25.0026 66.0524 24.6859 64.1835 24.6859 63.0432Z" fill="#898989"/>
<path d="M24.6859 63.0432C24.6859 61.9028 20.8847 54.9657 17.5587 52.1148C18.0339 54.4906 18.9841 58.2917 20.8847 61.1426C22.7706 63.9714 24.5275 66.3692 25.161 66.8443C25.0026 66.0524 24.6859 64.1835 24.6859 63.0432Z" fill="white" fill-opacity="0.4"/>
<path d="M75.5264 62.6906C75.5264 61.5871 79.3276 54.8737 82.6536 52.1148C82.1784 54.4139 81.2281 58.0925 79.3276 60.8514C77.4416 63.589 75.6848 65.9094 75.0512 66.3692C75.2096 65.6028 75.5264 63.7942 75.5264 62.6906Z" fill="#898989"/>
<path d="M75.5264 62.6906C75.5264 61.5871 79.3276 54.8737 82.6536 52.1148C82.1784 54.4139 81.2281 58.0925 79.3276 60.8514C77.4416 63.589 75.6848 65.9094 75.0512 66.3692C75.2096 65.6028 75.5264 63.7942 75.5264 62.6906Z" fill="white" fill-opacity="0.4"/>
<path d="M19.516 40.7114C19.8961 47.1734 23.6339 62.0929 25.6929 68.7449C25.6929 63.8034 27.5934 54.649 28.0686 50.6895C42.1645 49.5808 69.3111 48.5038 70.8316 51.1646C72.3521 53.8254 73.8408 64.7854 74.1576 69.6952C80.8096 48.7889 81.2848 25.5068 80.3345 20.7553C79.4505 16.3353 74.1576 10.7773 67.9807 6.50101C60.8952 1.59566 52.301 -3.47703 39.472 3.175C49.9252 1.27442 54.5816 5.74078 52.301 10.3022C49.4501 16.0039 28.5437 17.4293 22.3668 19.8051C16.19 22.1808 19.0408 32.634 19.516 40.7114Z" fill="#546DDB"/>
<path d="M19.516 40.7114C19.8961 47.1734 23.6339 62.0929 25.6929 68.7449C25.6929 63.8034 27.5934 54.649 28.0686 50.6895C42.1645 49.5808 69.3111 48.5038 70.8316 51.1646C72.3521 53.8254 73.8408 64.7854 74.1576 69.6952C80.8096 48.7889 81.2848 25.5068 80.3345 20.7553C79.4505 16.3353 74.1576 10.7773 67.9807 6.50101C60.8952 1.59566 52.301 -3.47703 39.472 3.175C49.9252 1.27442 54.5816 5.74078 52.301 10.3022C49.4501 16.0039 28.5437 17.4293 22.3668 19.8051C16.19 22.1808 19.0408 32.634 19.516 40.7114Z" fill="black" fill-opacity="0.2"/>
<path d="M49.4527 46.7691C46.5708 40.9916 42.1004 38.1118 37.2414 33.1091C33.5712 40.2706 32.8602 44.0465 27.7386 50.6894C25.3628 58.7669 25.1728 76.4423 26.3131 78.723C27.7385 81.5738 43.4183 90.1264 50.5455 90.1264C57.6726 90.1264 71.4518 80.6235 73.3524 78.723C75.253 76.8224 74.3027 59.7172 71.4518 50.6894C66.8904 45.7479 62.5493 36.9102 60.332 33.1091C55.3241 38.0947 52.1919 40.9728 49.4527 46.7691Z" fill="#898989"/>
<path d="M49.4527 46.7691C46.5708 40.9916 42.1004 38.1118 37.2414 33.1091C33.5712 40.2706 32.8602 44.0465 27.7386 50.6894C25.3628 58.7669 25.1728 76.4423 26.3131 78.723C27.7385 81.5738 43.4183 90.1264 50.5455 90.1264C57.6726 90.1264 71.4518 80.6235 73.3524 78.723C75.253 76.8224 74.3027 59.7172 71.4518 50.6894C66.8904 45.7479 62.5493 36.9102 60.332 33.1091C55.3241 38.0947 52.1919 40.9728 49.4527 46.7691Z" fill="white" fill-opacity="0.6"/>
<path d="M37.99 59.1904C34.5689 57.9591 30.8628 59.7034 29.4374 60.7294C29.4374 63.1235 30.1976 68.1169 33.2385 68.9377C36.2795 69.7586 40.8408 68.5957 42.7414 67.9117C42.583 65.5176 41.411 60.4216 37.99 59.1904Z" fill="#1D8CE0"/>
<path d="M37.99 59.1904C34.5689 57.9591 30.8628 59.7034 29.4374 60.7294C29.4374 63.1235 30.1976 68.1169 33.2385 68.9377C36.2795 69.7586 40.8408 68.5957 42.7414 67.9117C42.583 65.5176 41.411 60.4216 37.99 59.1904Z" fill="white" fill-opacity="0.95"/>
<path d="M61.7472 59.1904C65.1682 57.9591 68.8744 59.7034 70.2998 60.7294C70.2998 63.1235 69.5396 68.1169 66.4986 68.9377C63.4577 69.7586 58.8963 68.5957 56.9958 67.9117C57.1541 65.5176 58.3262 60.4216 61.7472 59.1904Z" fill="#1D8CE0"/>
<path d="M61.7472 59.1904C65.1682 57.9591 68.8744 59.7034 70.2998 60.7294C70.2998 63.1235 69.5396 68.1169 66.4986 68.9377C63.4577 69.7586 58.8963 68.5957 56.9958 67.9117C57.1541 65.5176 58.3262 60.4216 61.7472 59.1904Z" fill="white" fill-opacity="0.95"/>
<path d="M43.9752 80.741C43.3669 79.4374 42.7078 78.5684 42.4543 78.2968H47.0169L44.7356 84C44.7356 83.4569 44.5836 82.0446 43.9752 80.741Z" fill="#FEFEFE"/>
<path d="M55.7621 80.741C56.3704 79.4374 57.0295 78.5684 57.283 78.2968H52.7204L55.0017 84C55.0017 83.4569 55.1538 82.0446 55.7621 80.741Z" fill="#FEFEFE"/>
<path d="M36.0894 77.2975C37.6563 77.5065 40.7941 77.8532 44.1668 78.0651C45.9077 78.1744 47.7111 78.2478 49.3934 78.2478C54.3349 78.2478 61.5888 77.6143 63.6477 77.2975" stroke="#898989" stroke-width="0.950289" stroke-linecap="round"/>
<path d="M48.9185 66.2316L48.4434 69.5576M50.6409 66.2316L51.2942 69.5576" stroke="#898989" stroke-width="0.950289" stroke-linecap="round"/>
<circle cx="36.0896" cy="63.5183" r="4.75145" fill="#D0333D"/>
<circle cx="63.6479" cy="63.5183" r="4.75145" fill="#D0333D"/>
<ellipse cx="36.5" cy="63.5" rx="1.5" ry="4.5" fill="#D0333D"/>
<ellipse cx="36.5" cy="63.5" rx="1.5" ry="4.5" fill="black" fill-opacity="0.6"/>
<ellipse cx="63.5" cy="63.5" rx="1.5" ry="4.5" fill="#D0333D"/>
<ellipse cx="63.5" cy="63.5" rx="1.5" ry="4.5" fill="black" fill-opacity="0.6"/>
<path d="M67.9476 74.5976C64.9365 95.8998 60.1718 106.301 49.9968 124.012C55.9804 121.449 70.341 113.141 79.9147 100.403C89.4885 87.6649 93.6951 71.6693 94.6017 65.2638C94.2391 65.9959 91.8819 68.5581 88.0742 70.7543C84.3338 72.9116 73.9311 74.7806 67.9476 74.5976Z" fill="#898989"/>
<path d="M67.9476 74.5976C64.9365 95.8998 60.1718 106.301 49.9968 124.012C55.9804 121.449 70.341 113.141 79.9147 100.403C89.4885 87.6649 93.6951 71.6693 94.6017 65.2638C94.2391 65.9959 91.8819 68.5581 88.0742 70.7543C84.3338 72.9116 73.9311 74.7806 67.9476 74.5976Z" fill="black" fill-opacity="0.4"/>
<path d="M32.0461 74.5976C35.0571 95.8998 39.8218 106.301 49.9968 124.012C44.0132 121.449 29.6527 113.141 20.0789 100.403C10.5052 87.6649 6.29855 71.6693 5.39195 65.2638C5.75459 65.9959 8.11176 68.5581 11.9195 70.7543C15.6599 72.9116 26.0625 74.7806 32.0461 74.5976Z" fill="#898989"/>
<path d="M32.0461 74.5976C35.0571 95.8998 39.8218 106.301 49.9968 124.012C44.0132 121.449 29.6527 113.141 20.0789 100.403C10.5052 87.6649 6.29855 71.6693 5.39195 65.2638C5.75459 65.9959 8.11176 68.5581 11.9195 70.7543C15.6599 72.9116 26.0625 74.7806 32.0461 74.5976Z" fill="black" fill-opacity="0.4"/>
<ellipse cx="39.4433" cy="55.2442" rx="2.71981" ry="2.17585" transform="rotate(30 39.4433 55.2442)" fill="#546DDB"/>
<ellipse cx="39.4433" cy="55.2442" rx="2.71981" ry="2.17585" transform="rotate(30 39.4433 55.2442)" fill="white" fill-opacity="0.4"/>
<ellipse cx="59.4433" cy="55.2443" rx="2.71981" ry="2.17585" transform="rotate(-30 59.4433 55.2443)" fill="#546DDB"/>
<ellipse cx="59.4433" cy="55.2443" rx="2.71981" ry="2.17585" transform="rotate(-30 59.4433 55.2443)" fill="white" fill-opacity="0.4"/>
</g>
<defs>
<clipPath id="clip0_2337_11177">
<rect width="100" height="100" fill="white"/>
</clipPath>
</defs>
</svg>
