<svg width="100" height="100" viewBox="0 0 100 100" fill="none" xmlns="http://www.w3.org/2000/svg">
<g clip-path="url(#clip0_2269_10815)">
<path d="M2.1996 53.5197C-0.855461 69.5004 0.16296 100 0.16296 100H99.9585C99.9585 100 100.468 70.5004 97.9218 54.2944C95.3761 38.0884 80.6103 13.3917 50.0607 14.0114C19.5111 14.6312 5.25467 37.539 2.1996 53.5197Z" fill="#2FC4A7"/>
<circle cx="51.9305" cy="71.9304" r="11.6778" transform="rotate(12.5123 51.9305 71.9304)" fill="#2FC4A7"/>
<circle cx="51.9305" cy="71.9304" r="11.6778" transform="rotate(12.5123 51.9305 71.9304)" fill="white" fill-opacity="0.95"/>
<circle cx="51.9305" cy="71.9304" r="10.1546" transform="rotate(12.5123 51.9305 71.9304)" fill="#2FC4A7"/>
<circle cx="51.9305" cy="71.9304" r="10.1546" transform="rotate(12.5123 51.9305 71.9304)" fill="black" fill-opacity="0.4"/>
<path d="M52.554 69.1217L53.8007 63.5041M50.0607 80.3568L51.3073 74.7392M54.7395 72.5538L60.3571 73.8004M43.5043 70.0605L49.1219 71.3071M53.476 74.3573L56.5667 79.2111M47.2946 64.6498L50.3853 69.5036M54.3575 70.3851L59.2113 67.2944M44.65 76.5665L49.5038 73.4758M54.7712 71.4732L60.4524 70.5588M43.409 73.3021L49.0901 72.3877M54.3073 73.5519L59.0607 76.7949M44.8006 67.066L49.554 70.309M53.5636 69.5616L56.8294 64.8239M47.032 79.037L50.2978 74.2993M52.4475 74.7608L53.4812 80.4214M50.3801 63.4395L51.4138 69.1001" stroke="#2FC4A7" stroke-width="0.951281" stroke-linecap="round"/>
<path d="M52.554 69.1217L53.8007 63.5041M50.0607 80.3568L51.3073 74.7392M54.7395 72.5538L60.3571 73.8004M43.5043 70.0605L49.1219 71.3071M53.476 74.3573L56.5667 79.2111M47.2946 64.6498L50.3853 69.5036M54.3575 70.3851L59.2113 67.2944M44.65 76.5665L49.5038 73.4758M54.7712 71.4732L60.4524 70.5588M43.409 73.3021L49.0901 72.3877M54.3073 73.5519L59.0607 76.7949M44.8006 67.066L49.554 70.309M53.5636 69.5616L56.8294 64.8239M47.032 79.037L50.2978 74.2993M52.4475 74.7608L53.4812 80.4214M50.3801 63.4395L51.4138 69.1001" stroke="black" stroke-opacity="0.2" stroke-width="0.951281" stroke-linecap="round"/>
<circle cx="51.9303" cy="71.9304" r="4.06183" transform="rotate(12.5123 51.9303 71.9304)" fill="#2FC4A7"/>
<circle cx="51.9303" cy="71.9304" r="4.06183" transform="rotate(12.5123 51.9303 71.9304)" fill="black" fill-opacity="0.8"/>
<ellipse cx="46.6823" cy="66.2186" rx="1.63472" ry="2.72454" transform="rotate(42.5123 46.6823 66.2186)" fill="#FEFEFE"/>
<circle cx="40.6863" cy="48.6863" r="13.988" transform="rotate(12.5123 40.6863 48.6863)" fill="#2FC4A7"/>
<circle cx="40.6863" cy="48.6863" r="13.988" transform="rotate(12.5123 40.6863 48.6863)" fill="white" fill-opacity="0.95"/>
<circle cx="40.6871" cy="48.6863" r="12.1635" transform="rotate(12.5123 40.6871 48.6863)" fill="#2FC4A7"/>
<circle cx="40.6871" cy="48.6863" r="12.1635" transform="rotate(12.5123 40.6871 48.6863)" fill="black" fill-opacity="0.4"/>
<path d="M41.4331 45.3218L42.9264 38.5929M38.4466 58.7797L39.9398 52.0507M44.0509 49.4329L50.7799 50.9262M30.5931 46.4464L37.322 47.9396M42.5376 51.5933L46.2397 57.4073M35.1332 39.9653L38.8354 45.7793M43.5935 46.8352L49.4075 43.133M31.9655 54.2395L37.7795 50.5374M44.089 48.1386L50.894 47.0432M30.4789 50.3293L37.284 49.2339M43.5333 50.6286L49.2271 54.5131M32.1459 42.8595L37.8396 46.744M42.6424 45.8488L46.5543 40.1738M34.8187 57.1988L38.7305 51.5238M41.3056 52.0765L42.5437 58.857M38.8292 38.5155L40.0674 45.296" stroke="#2FC4A7" stroke-width="1.13947" stroke-linecap="round"/>
<path d="M41.4331 45.3218L42.9264 38.5929M38.4466 58.7797L39.9398 52.0507M44.0509 49.4329L50.7799 50.9262M30.5931 46.4464L37.322 47.9396M42.5376 51.5933L46.2397 57.4073M35.1332 39.9653L38.8354 45.7793M43.5935 46.8352L49.4075 43.133M31.9655 54.2395L37.7795 50.5374M44.089 48.1386L50.894 47.0432M30.4789 50.3293L37.284 49.2339M43.5333 50.6286L49.2271 54.5131M32.1459 42.8595L37.8396 46.744M42.6424 45.8488L46.5543 40.1738M34.8187 57.1988L38.7305 51.5238M41.3056 52.0765L42.5437 58.857M38.8292 38.5155L40.0674 45.296" stroke="black" stroke-opacity="0.2" stroke-width="1.13947" stroke-linecap="round"/>
<circle cx="40.6862" cy="48.6862" r="4.86539" transform="rotate(12.5123 40.6862 48.6862)" fill="#2FC4A7"/>
<circle cx="40.6862" cy="48.6862" r="4.86539" transform="rotate(12.5123 40.6862 48.6862)" fill="black" fill-opacity="0.8"/>
<ellipse cx="34.3999" cy="41.8445" rx="1.95813" ry="3.26354" transform="rotate(42.5123 34.3999 41.8445)" fill="#FEFEFE"/>
<path d="M40.5475 29C33.1494 29 25.1679 21.8874 28.9881 16.4483C34.0741 9.2069 46.5584 17.8966 42.8594 19.8276C37.4672 22.6425 34.999 9.68966 41.9346 6.7931C48.8703 3.89655 57.6555 13.1897 53.4941 15C47.9455 17.4138 49.795 3.89655 56.2683 3.89655C62.7415 3.89655 61.3544 7.75862 68.7524 7.75862C74.301 7.75862 77.0752 3.89655 78 1" stroke="#2FC4A7" stroke-width="2" stroke-linecap="round"/>
<path d="M40.5475 29C33.1494 29 25.1679 21.8874 28.9881 16.4483C34.0741 9.2069 46.5584 17.8966 42.8594 19.8276C37.4672 22.6425 34.999 9.68966 41.9346 6.7931C48.8703 3.89655 57.6555 13.1897 53.4941 15C47.9455 17.4138 49.795 3.89655 56.2683 3.89655C62.7415 3.89655 61.3544 7.75862 68.7524 7.75862C74.301 7.75862 77.0752 3.89655 78 1" stroke="white" stroke-opacity="0.6" stroke-width="2" stroke-linecap="round"/>
<circle cx="29.929" cy="69.929" r="10" transform="rotate(12.5123 29.929 69.929)" fill="#2FC4A7"/>
<circle cx="29.929" cy="69.929" r="10" transform="rotate(12.5123 29.929 69.929)" fill="white" fill-opacity="0.95"/>
<circle cx="29.929" cy="69.929" r="8.69565" transform="rotate(12.5123 29.929 69.929)" fill="#2FC4A7"/>
<circle cx="29.929" cy="69.929" r="8.69565" transform="rotate(12.5123 29.929 69.929)" fill="black" fill-opacity="0.4"/>
<path d="M30.4627 67.5238L31.5302 62.7132M28.3276 77.1448L29.3951 72.3343M32.3341 70.4628L37.1446 71.5303M22.7131 68.3277L27.5236 69.3952M31.2522 72.0072L33.8989 76.1636M25.9589 63.6944L28.6056 67.8508M32.0071 68.6057L36.1635 65.959M23.6943 73.899L27.8507 71.2523M32.3614 69.5375L37.2263 68.7544M22.6315 71.1036L27.4964 70.3205M31.9641 71.3175L36.0346 74.0946M23.8232 65.7634L27.8937 68.5405M31.3272 67.9005L34.1238 63.8434M25.734 76.0146L28.5306 71.9575M30.3715 72.3527L31.2566 77.2001M28.6011 62.6579L29.4863 67.5053" stroke="#2FC4A7" stroke-width="0.856153" stroke-linecap="round"/>
<path d="M30.4627 67.5238L31.5302 62.7132M28.3276 77.1448L29.3951 72.3343M32.3341 70.4628L37.1446 71.5303M22.7131 68.3277L27.5236 69.3952M31.2522 72.0072L33.8989 76.1636M25.9589 63.6944L28.6056 67.8508M32.0071 68.6057L36.1635 65.959M23.6943 73.899L27.8507 71.2523M32.3614 69.5375L37.2263 68.7544M22.6315 71.1036L27.4964 70.3205M31.9641 71.3175L36.0346 74.0946M23.8232 65.7634L27.8937 68.5405M31.3272 67.9005L34.1238 63.8434M25.734 76.0146L28.5306 71.9575M30.3715 72.3527L31.2566 77.2001M28.6011 62.6579L29.4863 67.5053" stroke="black" stroke-opacity="0.2" stroke-width="0.856153" stroke-linecap="round"/>
<circle cx="29.9292" cy="69.929" r="3.47826" transform="rotate(12.5123 29.9292 69.929)" fill="#2FC4A7"/>
<circle cx="29.9292" cy="69.929" r="3.47826" transform="rotate(12.5123 29.9292 69.929)" fill="black" fill-opacity="0.8"/>
<ellipse cx="25.4345" cy="65.0378" rx="1.39986" ry="2.3331" transform="rotate(42.5123 25.4345 65.0378)" fill="#FEFEFE"/>
<circle cx="72.929" cy="71.929" r="10" transform="rotate(12.5123 72.929 71.929)" fill="#2FC4A7"/>
<circle cx="72.929" cy="71.929" r="10" transform="rotate(12.5123 72.929 71.929)" fill="white" fill-opacity="0.95"/>
<circle cx="72.929" cy="71.929" r="8.69565" transform="rotate(12.5123 72.929 71.929)" fill="#2FC4A7"/>
<circle cx="72.929" cy="71.929" r="8.69565" transform="rotate(12.5123 72.929 71.929)" fill="black" fill-opacity="0.4"/>
<path d="M73.4627 69.5238L74.5302 64.7132M71.3276 79.1448L72.3951 74.3343M75.3341 72.4628L80.1446 73.5303M65.7131 70.3277L70.5236 71.3952M74.2522 74.0072L76.8989 78.1636M68.9589 65.6944L71.6056 69.8508M75.0071 70.6057L79.1635 67.959M66.6943 75.899L70.8507 73.2523M75.3614 71.5375L80.2263 70.7544M65.6315 73.1036L70.4964 72.3205M74.9641 73.3175L79.0346 76.0946M66.8232 67.7634L70.8937 70.5405M74.3272 69.9005L77.1238 65.8434M68.734 78.0146L71.5306 73.9575M73.3715 74.3527L74.2566 79.2001M71.6011 64.6579L72.4863 69.5053" stroke="#2FC4A7" stroke-width="0.856153" stroke-linecap="round"/>
<path d="M73.4627 69.5238L74.5302 64.7132M71.3276 79.1448L72.3951 74.3343M75.3341 72.4628L80.1446 73.5303M65.7131 70.3277L70.5236 71.3952M74.2522 74.0072L76.8989 78.1636M68.9589 65.6944L71.6056 69.8508M75.0071 70.6057L79.1635 67.959M66.6943 75.899L70.8507 73.2523M75.3614 71.5375L80.2263 70.7544M65.6315 73.1036L70.4964 72.3205M74.9641 73.3175L79.0346 76.0946M66.8232 67.7634L70.8937 70.5405M74.3272 69.9005L77.1238 65.8434M68.734 78.0146L71.5306 73.9575M73.3715 74.3527L74.2566 79.2001M71.6011 64.6579L72.4863 69.5053" stroke="black" stroke-opacity="0.2" stroke-width="0.856153" stroke-linecap="round"/>
<circle cx="72.9292" cy="71.929" r="3.47826" transform="rotate(12.5123 72.9292 71.929)" fill="#2FC4A7"/>
<circle cx="72.9292" cy="71.929" r="3.47826" transform="rotate(12.5123 72.9292 71.929)" fill="black" fill-opacity="0.8"/>
<ellipse cx="68.4345" cy="67.0378" rx="1.39986" ry="2.3331" transform="rotate(42.5123 68.4345 67.0378)" fill="#FEFEFE"/>
<circle cx="63.929" cy="53.929" r="10" transform="rotate(12.5123 63.929 53.929)" fill="#2FC4A7"/>
<circle cx="63.929" cy="53.929" r="10" transform="rotate(12.5123 63.929 53.929)" fill="white" fill-opacity="0.95"/>
<circle cx="63.929" cy="53.929" r="8.69565" transform="rotate(12.5123 63.929 53.929)" fill="#2FC4A7"/>
<circle cx="63.929" cy="53.929" r="8.69565" transform="rotate(12.5123 63.929 53.929)" fill="black" fill-opacity="0.4"/>
<path d="M64.4627 51.5238L65.5302 46.7132M62.3276 61.1448L63.3951 56.3343M66.3341 54.4628L71.1446 55.5303M56.7131 52.3277L61.5236 53.3952M65.2522 56.0072L67.8989 60.1636M59.9589 47.6944L62.6056 51.8508M66.0071 52.6057L70.1635 49.959M57.6943 57.899L61.8507 55.2523M66.3614 53.5375L71.2263 52.7544M56.6315 55.1036L61.4964 54.3205M65.9641 55.3175L70.0346 58.0946M57.8232 49.7634L61.8937 52.5405M65.3272 51.9005L68.1238 47.8434M59.734 60.0146L62.5306 55.9575M64.3715 56.3527L65.2566 61.2001M62.6011 46.6579L63.4863 51.5053" stroke="#2FC4A7" stroke-width="0.856153" stroke-linecap="round"/>
<path d="M64.4627 51.5238L65.5302 46.7132M62.3276 61.1448L63.3951 56.3343M66.3341 54.4628L71.1446 55.5303M56.7131 52.3277L61.5236 53.3952M65.2522 56.0072L67.8989 60.1636M59.9589 47.6944L62.6056 51.8508M66.0071 52.6057L70.1635 49.959M57.6943 57.899L61.8507 55.2523M66.3614 53.5375L71.2263 52.7544M56.6315 55.1036L61.4964 54.3205M65.9641 55.3175L70.0346 58.0946M57.8232 49.7634L61.8937 52.5405M65.3272 51.9005L68.1238 47.8434M59.734 60.0146L62.5306 55.9575M64.3715 56.3527L65.2566 61.2001M62.6011 46.6579L63.4863 51.5053" stroke="black" stroke-opacity="0.2" stroke-width="0.856153" stroke-linecap="round"/>
<circle cx="63.9292" cy="53.929" r="3.47826" transform="rotate(12.5123 63.9292 53.929)" fill="#2FC4A7"/>
<circle cx="63.9292" cy="53.929" r="3.47826" transform="rotate(12.5123 63.9292 53.929)" fill="black" fill-opacity="0.8"/>
<ellipse cx="59.4345" cy="49.0378" rx="1.39986" ry="2.3331" transform="rotate(42.5123 59.4345 49.0378)" fill="#FEFEFE"/>
</g>
<defs>
<clipPath id="clip0_2269_10815">
<rect width="100" height="100" fill="white"/>
</clipPath>
</defs>
</svg>
