<svg width="100" height="100" viewBox="0 0 100 100" fill="none" xmlns="http://www.w3.org/2000/svg">
<g clip-path="url(#clip0_2351_11266)">
<path d="M30 74.5C35.2526 65.7458 28.7171 63.0219 31 61.5C34.8046 59.7879 48.8483 60 56.5 60C64.8281 60 65.0516 62.8126 73 75C80.5 86.5 84.8804 100.537 84.4999 111L13.5 112C13.1196 105.722 25.4999 82 30 74.5Z" fill="#898989"/>
<path d="M23.6074 79.4242L35.4826 69.0463L29.9266 75.6026L35.8041 74.8682L29.2408 84.4308L36.5441 81.8001L33.7196 93.4729L42.8905 85.8586L44.5177 98.6934L50.1705 87.4252L55.5322 98.3658L57.0322 87.8818L64.5602 95.7849L61.9256 85.9565L66.3774 87.1185L62.317 79.1865L67.3344 80.4294L61.5033 72.7691L73.0414 84.9215L63.8667 80.4584L74.1262 93.478L63.9674 87.8239L68.2022 102.607L58.2875 91.2119L56.7919 105.7L50.2209 91.108L42.0613 107.793L41.2438 89.2986L30.0815 98.7283L34.5527 83.6155L23.9793 88.9289L33.3206 76.0881L23.6074 79.4242Z" fill="#898989"/>
<path d="M23.6074 79.4242L35.4826 69.0463L29.9266 75.6026L35.8041 74.8682L29.2408 84.4308L36.5441 81.8001L33.7196 93.4729L42.8905 85.8586L44.5177 98.6934L50.1705 87.4252L55.5322 98.3658L57.0322 87.8818L64.5602 95.7849L61.9256 85.9565L66.3774 87.1185L62.317 79.1865L67.3344 80.4294L61.5033 72.7691L73.0414 84.9215L63.8667 80.4584L74.1262 93.478L63.9674 87.8239L68.2022 102.607L58.2875 91.2119L56.7919 105.7L50.2209 91.108L42.0613 107.793L41.2438 89.2986L30.0815 98.7283L34.5527 83.6155L23.9793 88.9289L33.3206 76.0881L23.6074 79.4242Z" fill="white" fill-opacity="0.4"/>
<path d="M26 73.5C22.9883 67.0278 19.7091 61 14.1853 61L9.2752 69.375C10.2981 75.2868 13 90.5 12 96.5C11.0072 102.457 15.5 110.5 16.5 115.5L30.0001 122C37.9789 120.029 26.4592 114.816 30.0001 102.5C31.8413 96.0956 28.8809 79.6912 26 73.5Z" fill="#898989"/>
<path d="M26 73.5C22.9883 67.0278 19.7091 61 14.1853 61L9.2752 69.375C10.2981 75.2868 13 90.5 12 96.5C11.0072 102.457 15.5 110.5 16.5 115.5L30.0001 122C37.9789 120.029 26.4592 114.816 30.0001 102.5C31.8413 96.0956 28.8809 79.6912 26 73.5Z" fill="white" fill-opacity="0.2"/>
<path d="M1.84132 75.82C-2.1188 70.1511 8.96955 63.065 12.9297 63.065C15.3057 62.5489 20.0579 65.1908 20.8499 68.0252C21.6419 70.8597 19.2659 80.0716 14.5138 81.4888C9.7616 82.9061 5.80145 81.4888 1.84132 75.82Z" fill="#898989"/>
<path d="M1.84132 75.82C-2.1188 70.1511 8.96955 63.065 12.9297 63.065C15.3057 62.5489 20.0579 65.1908 20.8499 68.0252C21.6419 70.8597 19.2659 80.0716 14.5138 81.4888C9.7616 82.9061 5.80145 81.4888 1.84132 75.82Z" fill="black" fill-opacity="0.2"/>
<path d="M1.84132 73.82C-2.1188 68.1511 8.96955 61.065 12.9297 61.065C15.3057 60.5489 20.0579 63.1908 20.8499 66.0252C21.6419 68.8597 19.2659 78.0716 14.5138 79.4888C9.7616 80.9061 5.80145 79.4888 1.84132 73.82Z" fill="#898989"/>
<path d="M1.84132 73.82C-2.1188 68.1511 8.96955 61.065 12.9297 61.065C15.3057 60.5489 20.0579 63.1908 20.8499 66.0252C21.6419 68.8597 19.2659 78.0716 14.5138 79.4888C9.7616 80.9061 5.80145 79.4888 1.84132 73.82Z" fill="white" fill-opacity="0.2"/>
<path d="M13.336 77C13.9399 77 14.4647 78.2851 13.336 79.25C12.2074 80.2149 10.7356 84.3125 11.0738 86C9.96838 83.1875 9.57588 79.1477 10.5724 78.125C11.5688 77.1023 12.7322 77 13.336 77Z" fill="#D0333D"/>
<path d="M13.336 77C13.9399 77 14.4647 78.2851 13.336 79.25C12.2074 80.2149 10.7356 84.3125 11.0738 86C9.96838 83.1875 9.57588 79.1477 10.5724 78.125C11.5688 77.1023 12.7322 77 13.336 77Z" fill="black" fill-opacity="0.4"/>
<path d="M8.53 75C9.09689 75 9.35087 76.1 8.11558 77.2C6.88029 78.3 5.72233 84.35 6.03988 86C5.00206 83.25 4.58548 77.1 5.52097 76.1C6.45646 75.1 7.96311 75 8.53 75Z" fill="#D0333D"/>
<path d="M8.53 75C9.09689 75 9.35087 76.1 8.11558 77.2C6.88029 78.3 5.72233 84.35 6.03988 86C5.00206 83.25 4.58548 77.1 5.52097 76.1C6.45646 75.1 7.96311 75 8.53 75Z" fill="black" fill-opacity="0.4"/>
<path d="M4.21264 73C4.9287 73 5.55104 74.1423 4.21264 75C2.87425 75.8577 0.534173 80.5 0.935274 82C-0.375626 79.5 -0.24625 74.9091 0.935393 74C2.11704 73.0909 3.49659 73 4.21264 73Z" fill="#D0333D"/>
<path d="M4.21264 73C4.9287 73 5.55104 74.1423 4.21264 75C2.87425 75.8577 0.534173 80.5 0.935274 82C-0.375626 79.5 -0.24625 74.9091 0.935393 74C2.11704 73.0909 3.49659 73 4.21264 73Z" fill="black" fill-opacity="0.4"/>
<path d="M73.5411 25.1934C68.0287 25.1934 67.4162 23.9685 64.9663 24.5809L77.8284 47.8553C79.6659 39.2805 96.2029 22.7435 93.7529 20.2936C92.7845 19.3252 79.0534 25.1934 73.5411 25.1934Z" fill="#898989"/>
<path d="M73.5411 25.1934C68.0287 25.1934 67.4162 23.9685 64.9663 24.5809L77.8284 47.8553C79.6659 39.2805 96.2029 22.7435 93.7529 20.2936C92.7845 19.3252 79.0534 25.1934 73.5411 25.1934Z" fill="white" fill-opacity="0.4"/>
<path d="M75.3784 33.7682C70.3201 33.7682 66.6019 28.5846 64.3538 29.0316L76.6034 46.6303C79.0533 36.8306 91.3029 26.4184 90.078 25.1934C89.2751 24.3905 80.4368 33.7682 75.3784 33.7682Z" fill="#898989"/>
<path d="M75.3784 33.7682C70.3201 33.7682 66.6019 28.5846 64.3538 29.0316L76.6034 46.6303C79.0533 36.8306 91.3029 26.4184 90.078 25.1934C89.2751 24.3905 80.4368 33.7682 75.3784 33.7682Z" fill="white" fill-opacity="0.8"/>
<path d="M47.2042 12.9438C49.0546 16.7408 51.1089 18.0094 52.1041 19.6811L34.4742 24.0607C39.943 17.7765 40.5641 0.799225 42.6593 0.799223C44.7544 0.799221 44.8757 8.166 47.2042 12.9438Z" fill="#898989"/>
<path d="M47.2042 12.9438C49.0546 16.7408 51.1089 18.0094 52.1041 19.6811L34.4742 24.0607C39.943 17.7765 40.5641 0.799225 42.6593 0.799223C44.7544 0.799221 44.8757 8.166 47.2042 12.9438Z" fill="white" fill-opacity="0.4"/>
<path d="M78.4406 44.1804C82.0788 45.6154 84.3486 46.17 88.8528 46.6303C87.0646 48.2999 80.7114 48.7298 79.0532 49.0802C76.9738 49.5196 91.8347 50.1277 93.7528 50.3052C95.8443 50.4987 83.2817 55.4208 78.2083 55.8958C81.649 56.4675 88.6645 57.7952 90.6904 57.655C93.3312 57.4721 77.2345 62.1058 73 62C69.8741 61.9219 79.7757 63.5958 84.5656 63.7798C79.7309 66.3887 66.1967 69.5353 63.741 68.0671C61.4406 66.6918 72.7474 52.1027 78.4406 44.1804Z" fill="#898989"/>
<path d="M78.4406 44.1804C82.0788 45.6154 84.3486 46.17 88.8528 46.6303C87.0646 48.2999 80.7114 48.7298 79.0532 49.0802C76.9738 49.5196 91.8347 50.1277 93.7528 50.3052C95.8443 50.4987 83.2817 55.4208 78.2083 55.8958C81.649 56.4675 88.6645 57.7952 90.6904 57.655C93.3312 57.4721 77.2345 62.1058 73 62C69.8741 61.9219 79.7757 63.5958 84.5656 63.7798C79.7309 66.3887 66.1967 69.5353 63.741 68.0671C61.4406 66.6918 72.7474 52.1027 78.4406 44.1804Z" fill="white" fill-opacity="0.4"/>
<path d="M85.5 47C82.0796 46.5336 81.1331 45.7965 78.441 44.1804C73.1328 51.5301 60.9293 66.882 63.1287 68.0671C65.4583 69.3224 75.562 66.195 80 64C75.1551 64.333 68.9479 61.2856 72 61.5C75.9713 61.7789 88.0022 57.9782 85.5 58C82.1554 58.0292 75.5 55.8175 76.6035 55.8175C79.2506 55.8175 91.8013 50.6369 90 51C87.4848 51.5071 76.1244 49.4895 78.441 49.0802C80.0928 48.7884 83.6372 48.2173 85.5 47Z" fill="#898989"/>
<path d="M85.5 47C82.0796 46.5336 81.1331 45.7965 78.441 44.1804C73.1328 51.5301 60.9293 66.882 63.1287 68.0671C65.4583 69.3224 75.562 66.195 80 64C75.1551 64.333 68.9479 61.2856 72 61.5C75.9713 61.7789 88.0022 57.9782 85.5 58C82.1554 58.0292 75.5 55.8175 76.6035 55.8175C79.2506 55.8175 91.8013 50.6369 90 51C87.4848 51.5071 76.1244 49.4895 78.441 49.0802C80.0928 48.7884 83.6372 48.2173 85.5 47Z" fill="white" fill-opacity="0.2"/>
<path d="M37.0025 27.9222L28.1999 24.3096C28.894 26.1794 32.7443 30.2899 33.5159 31.566C34.4804 33.1611 23.7666 25.6426 22.4831 24.6545C21.1268 23.6103 27.9589 35.7122 30.5431 38.0141C28.2534 36.7933 21.425 33.3318 20.0342 32.2611C18.4219 31.0199 26.0544 42.5667 29.5905 45.2327C27.5451 44.1197 23.0639 41.7556 20.4892 40.5212C21.7314 42.3647 25.8345 44.0477 29.7904 45.3769C29.9327 45.4746 30.0672 45.5557 30.1929 45.6186C30.9521 45.9986 30.7358 45.8612 29.9551 45.4321C33.5439 46.6304 36.9769 47.5347 38 48C40.1652 48.9848 36.0339 37.4079 37.0025 27.9222Z" fill="#898989"/>
<path d="M37.0025 27.9222L28.1999 24.3096C28.894 26.1794 32.7443 30.2899 33.5159 31.566C34.4804 33.1611 23.7666 25.6426 22.4831 24.6545C21.1268 23.6103 27.9589 35.7122 30.5431 38.0141C28.2534 36.7933 21.425 33.3318 20.0342 32.2611C18.4219 31.0199 26.0544 42.5667 29.5905 45.2327C27.5451 44.1197 23.0639 41.7556 20.4892 40.5212C21.7314 42.3647 25.8345 44.0477 29.7904 45.3769C29.9327 45.4746 30.0672 45.5557 30.1929 45.6186C30.9521 45.9986 30.7358 45.8612 29.9551 45.4321C33.5439 46.6304 36.9769 47.5347 38 48C40.1652 48.9848 36.0339 37.4079 37.0025 27.9222Z" fill="white" fill-opacity="0.4"/>
<path d="M30.1968 25.8476L37.3907 28.2208C36.5771 37.0894 39.0487 50.4442 37 49.5C34.9513 48.5558 25.2582 45.7831 22.9732 42.4416C26.6783 44.2389 33.489 47.5303 31.0917 46.3178C28.0951 44.8021 20.6982 32.7777 22.441 34.1194C24.1838 35.4611 33.1737 40.0081 31.4309 38.6664C29.6881 37.3248 23.1094 25.139 24.034 26.642C24.9586 28.1451 35.2555 33.6983 34.3309 32.1953C33.5912 30.9928 31.2666 27.4625 30.1968 25.8476Z" fill="#898989"/>
<path d="M30.1968 25.8476L37.3907 28.2208C36.5771 37.0894 39.0487 50.4442 37 49.5C34.9513 48.5558 25.2582 45.7831 22.9732 42.4416C26.6783 44.2389 33.489 47.5303 31.0917 46.3178C28.0951 44.8021 20.6982 32.7777 22.441 34.1194C24.1838 35.4611 33.1737 40.0081 31.4309 38.6664C29.6881 37.3248 23.1094 25.139 24.034 26.642C24.9586 28.1451 35.2555 33.6983 34.3309 32.1953C33.5912 30.9928 31.2666 27.4625 30.1968 25.8476Z" fill="white" fill-opacity="0.2"/>
<path d="M79.0532 47.2428C77.0189 66.2297 69.5 73 35.5 65C25.0535 63.4523 37.9779 57.4979 34.3421 49.6927C32.4356 45.5998 22.264 45.562 23.3175 40.5055C26.3799 25.8059 33.1171 16.4145 51.4916 18.4561C68.0286 20.2936 81.0875 28.2558 79.0532 47.2428Z" fill="#898989"/>
<path d="M79.0532 47.2428C77.0189 66.2297 69.5 73 35.5 65C25.0535 63.4523 37.9779 57.4979 34.3421 49.6927C32.4356 45.5998 22.264 45.562 23.3175 40.5055C26.3799 25.8059 33.1171 16.4145 51.4916 18.4561C68.0286 20.2936 81.0875 28.2558 79.0532 47.2428Z" fill="white" fill-opacity="0.2"/>
<ellipse cx="31.8923" cy="31.3182" rx="4.28737" ry="4.89985" transform="rotate(19.3673 31.8923 31.3182)" fill="#D9D9D9"/>
<path d="M22 53L27.2159 60.0551L21.732 59.9866L22 53Z" fill="#898989"/>
<path d="M22 53L27.2159 60.0551L21.732 59.9866L22 53Z" fill="white" fill-opacity="0.6"/>
<path d="M24.8098 65.303C19.6771 64.1042 20.8 60.5353 22.0759 58.1515L56.5239 51C54.3368 53.7811 49.9625 60.1777 47.7753 61.1313C45.0413 62.3232 32.4649 67.0908 24.8098 65.303Z" fill="#898989"/>
<path d="M24.8098 65.303C19.6771 64.1042 20.8 60.5353 22.0759 58.1515L56.5239 51C54.3368 53.7811 49.9625 60.1777 47.7753 61.1313C45.0413 62.3232 32.4649 67.0908 24.8098 65.303Z" fill="white" fill-opacity="0.2"/>
<path d="M16 49L14.5 40L18.5272 42.9489L16 49Z" fill="#898989"/>
<path d="M16 49L14.5 40L18.5272 42.9489L16 49Z" fill="white" fill-opacity="0.6"/>
<path d="M14 40.5C20 42.5 24 48 30.5 50C28 54.5 23 56.5 22.0122 58.4043C19.2128 66.8734 33.6494 63.0247 40.4887 59.6142C47.7674 55.9846 57.1797 52.5 55.5 52.5C53.8203 52.5 47.8064 52.7007 41.6476 50.2809C35.8357 47.9975 28.2102 41.2069 22.0514 39.3921C15.8925 37.5773 12.6243 37.7487 14 40.5Z" fill="#D0333D"/>
<path d="M14 40.5C20 42.5 24 48 30.5 50C28 54.5 23 56.5 22.0122 58.4043C19.2128 66.8734 33.6494 63.0247 40.4887 59.6142C47.7674 55.9846 57.1797 52.5 55.5 52.5C53.8203 52.5 47.8064 52.7007 41.6476 50.2809C35.8357 47.9975 28.2102 41.2069 22.0514 39.3921C15.8925 37.5773 12.6243 37.7487 14 40.5Z" fill="black" fill-opacity="0.6"/>
<ellipse cx="61.266" cy="40.6338" rx="5.51233" ry="6.12482" transform="rotate(19.8701 61.266 40.6338)" fill="#898989"/>
<ellipse cx="61.266" cy="40.6338" rx="5.51233" ry="6.12482" transform="rotate(19.8701 61.266 40.6338)" fill="white" fill-opacity="0.95"/>
<ellipse cx="31.8923" cy="31.3182" rx="4.28737" ry="4.89985" transform="rotate(19.3673 31.8923 31.3182)" fill="#898989"/>
<ellipse cx="31.8923" cy="31.3182" rx="4.28737" ry="4.89985" transform="rotate(19.3673 31.8923 31.3182)" fill="white" fill-opacity="0.95"/>
<ellipse cx="31.5031" cy="30.6555" rx="3.87436" ry="4.42784" transform="rotate(19.3673 31.5031 30.6555)" fill="#D0333D"/>
<ellipse cx="31.5031" cy="30.6555" rx="3.87436" ry="4.42784" transform="rotate(19.3673 31.5031 30.6555)" fill="black" fill-opacity="0.2"/>
<ellipse cx="60.5662" cy="39.8984" rx="4.98132" ry="5.5348" transform="rotate(19.8701 60.5662 39.8984)" fill="#D0333D"/>
<ellipse cx="60.5662" cy="39.8984" rx="4.98132" ry="5.5348" transform="rotate(19.8701 60.5662 39.8984)" fill="black" fill-opacity="0.2"/>
<ellipse cx="30.7498" cy="29.9315" rx="2.07936" ry="2.37642" transform="rotate(19.3673 30.7498 29.9315)" fill="#FAA21E"/>
<ellipse cx="30.7498" cy="29.9315" rx="2.07936" ry="2.37642" transform="rotate(19.3673 30.7498 29.9315)" fill="white" fill-opacity="0.6"/>
<ellipse cx="59.52" cy="38.9342" rx="2.67347" ry="2.97052" transform="rotate(19.8701 59.52 38.9342)" fill="#FAA21E"/>
<ellipse cx="59.52" cy="38.9342" rx="2.67347" ry="2.97052" transform="rotate(19.8701 59.52 38.9342)" fill="white" fill-opacity="0.6"/>
<path d="M22.9999 52.5L21.6763 41.0718L27 44L22.9999 52.5Z" fill="#898989"/>
<path d="M22.9999 52.5L21.6763 41.0718L27 44L22.9999 52.5Z" fill="white" fill-opacity="0.95"/>
<path d="M28.8675 57L33.5 62.55C32.5 63 30.7656 63.35 29.4999 63.35L28.8675 57Z" fill="#898989"/>
<path d="M28.8675 57L33.5 62.55C32.5 63 30.7656 63.35 29.4999 63.35L28.8675 57Z" fill="white" fill-opacity="0.95"/>
<path d="M17.8698 30.0933C13.5429 30.0933 10.325 34.3752 14 40.5C14.0001 37.5264 16.7441 37.8247 17.8698 37.8247C21.2469 37.8247 38.9299 53.0701 47.7006 52.098C53.8919 51.4118 52.766 51.0001 53.329 50.9086L42.6349 40.2036C41.983 41.0203 43.6756 34.2702 36.4437 35.4458C29.1266 36.6352 25.9606 30.0933 17.8698 30.0933Z" fill="#898989"/>
<path d="M17.8282 31.3182C13.5378 31.3182 11 35 13.9998 40.5C13.9998 39.0653 16.4998 39.0653 16.4998 39.0653C19.9998 39.0653 23.1342 43.0551 26.4998 46C30.4998 49.5 37.2694 53.5 45.7332 53.5C50.198 53.5 55.9416 53.0917 56.4998 53L45.7332 39.0653C43.5008 36.0857 42.3846 35.4897 36.2456 36.6816C29.0232 38.0838 25.8508 31.3182 17.8282 31.3182Z" fill="#898989"/>
<path d="M17.8282 31.3182C13.5378 31.3182 11 35 13.9998 40.5C13.9998 39.0653 16.4998 39.0653 16.4998 39.0653C19.9998 39.0653 23.1342 43.0551 26.4998 46C30.4998 49.5 37.2694 53.5 45.7332 53.5C50.198 53.5 55.9416 53.0917 56.4998 53L45.7332 39.0653C43.5008 36.0857 42.3846 35.4897 36.2456 36.6816C29.0232 38.0838 25.8508 31.3182 17.8282 31.3182Z" fill="white" fill-opacity="0.2"/>
<path d="M21.4314 30.8841C20.8698 30.1992 14.6918 29.5144 14.1301 30.8841C14.1301 31.5689 16.3767 34.9931 16.9383 34.9931C17.5 34.9931 21.9931 31.5689 21.4314 30.8841Z" fill="#898989"/>
<path d="M21.4314 30.8841C20.8698 30.1992 14.6918 29.5144 14.1301 30.8841C14.1301 31.5689 16.3767 34.9931 16.9383 34.9931C17.5 34.9931 21.9931 31.5689 21.4314 30.8841Z" fill="black" fill-opacity="0.4"/>
<ellipse cx="40" cy="25.5" rx="2" ry="2.5" transform="rotate(6.62547 40 25.5)" fill="#898989"/>
<ellipse cx="40" cy="25.5" rx="2" ry="2.5" transform="rotate(6.62547 40 25.5)" fill="white" fill-opacity="0.4"/>
<ellipse cx="58.5514" cy="31.4249" rx="2.22149" ry="2.77686" transform="rotate(54.2705 58.5514 31.4249)" fill="#898989"/>
<ellipse cx="58.5514" cy="31.4249" rx="2.22149" ry="2.77686" transform="rotate(54.2705 58.5514 31.4249)" fill="white" fill-opacity="0.4"/>
<path d="M98.5238 80.3819C96.5556 73.0091 93.2751 66.6897 87.3704 66.6897L82.1217 75.6423C83.2152 81.9617 84.746 96.0752 82.1217 101.973C79.4974 107.872 72.2804 113.91 69 116.192L72.4444 138.31C80.9735 136.204 94.7387 124.092 98.5238 110.926C100.492 104.08 100.492 87.7546 98.5238 80.3819Z" fill="#898989"/>
<path d="M98.5238 80.3819C96.5556 73.0091 93.2751 66.6897 87.3704 66.6897L82.1217 75.6423C83.2152 81.9617 84.746 96.0752 82.1217 101.973C79.4974 107.872 72.2804 113.91 69 116.192L72.4444 138.31C80.9735 136.204 94.7387 124.092 98.5238 110.926C100.492 104.08 100.492 87.7546 98.5238 80.3819Z" fill="white" fill-opacity="0.2"/>
<path d="M74.7052 80.8923C70.8631 75.1029 81.621 67.8661 85.4631 67.8661C87.7684 67.339 92.3789 70.0371 93.1474 72.9318C93.9158 75.8265 91.6105 85.2344 87 86.6817C82.3895 88.1291 78.5473 86.6817 74.7052 80.8923Z" fill="#898989"/>
<path d="M74.7052 80.8923C70.8631 75.1029 81.621 67.8661 85.4631 67.8661C87.7684 67.339 92.3789 70.0371 93.1474 72.9318C93.9158 75.8265 91.6105 85.2344 87 86.6817C82.3895 88.1291 78.5473 86.6817 74.7052 80.8923Z" fill="black" fill-opacity="0.2"/>
<path d="M74.7052 78.8923C70.8631 73.1029 81.621 65.8661 85.4631 65.8661C87.7684 65.339 92.3789 68.0371 93.1474 70.9318C93.9158 73.8265 91.6105 83.2344 87 84.6817C82.3895 86.1291 78.5473 84.6817 74.7052 78.8923Z" fill="#898989"/>
<path d="M74.7052 78.8923C70.8631 73.1029 81.621 65.8661 85.4631 65.8661C87.7684 65.339 92.3789 68.0371 93.1474 70.9318C93.9158 73.8265 91.6105 83.2344 87 84.6817C82.3895 86.1291 78.5473 84.6817 74.7052 78.8923Z" fill="white" fill-opacity="0.2"/>
<path d="M87.285 81.3077C87.9352 81.3077 88.5004 82.6916 87.285 83.7308C86.0695 84.7699 84.4845 89.1827 84.8488 91C83.6583 87.9711 83.2356 83.6206 84.3087 82.5192C85.3818 81.4179 86.6347 81.3077 87.285 81.3077Z" fill="#D0333D"/>
<path d="M87.285 81.3077C87.9352 81.3077 88.5004 82.6916 87.285 83.7308C86.0695 84.7699 84.4845 89.1827 84.8488 91C83.6583 87.9711 83.2356 83.6206 84.3087 82.5192C85.3818 81.4179 86.6347 81.3077 87.285 81.3077Z" fill="black" fill-opacity="0.4"/>
<path d="M82.1093 79.1538C82.7198 79.1538 82.9933 80.3385 81.663 81.5231C80.3327 82.7077 79.0857 89.2231 79.4277 91C78.31 88.0385 77.8614 81.4153 78.8688 80.3385C79.8763 79.2616 81.4988 79.1538 82.1093 79.1538Z" fill="#D0333D"/>
<path d="M82.1093 79.1538C82.7198 79.1538 82.9933 80.3385 81.663 81.5231C80.3327 82.7077 79.0857 89.2231 79.4277 91C78.31 88.0385 77.8614 81.4153 78.8688 80.3385C79.8763 79.2616 81.4988 79.1538 82.1093 79.1538Z" fill="black" fill-opacity="0.4"/>
<path d="M77.4597 77C78.2308 77 78.901 78.2302 77.4597 79.1538C76.0183 80.0775 73.4983 85.0769 73.9302 86.6923C72.5185 84 72.6578 79.0559 73.9303 78.0769C75.2029 77.0979 76.6886 77 77.4597 77Z" fill="#D0333D"/>
<path d="M77.4597 77C78.2308 77 78.901 78.2302 77.4597 79.1538C76.0183 80.0775 73.4983 85.0769 73.9302 86.6923C72.5185 84 72.6578 79.0559 73.9303 78.0769C75.2029 77.0979 76.6886 77 77.4597 77Z" fill="black" fill-opacity="0.4"/>
</g>
<defs>
<clipPath id="clip0_2351_11266">
<rect width="100" height="100" fill="white"/>
</clipPath>
</defs>
</svg>
