<svg width="100" height="100" viewBox="0 0 100 100" fill="none" xmlns="http://www.w3.org/2000/svg">
<g clip-path="url(#clip0_2336_11147)">
<path d="M21.7667 69.2116C26.5503 71.9104 35.2558 72.0646 41.5961 70.5038C43.4982 70.0356 45.8152 72.4084 45.6014 75.3324C45.4324 77.644 43.3198 80.9907 40.7943 81.4689C38.2689 81.947 27.7629 80.8721 23.5438 78.9676C18.722 76.7909 15.6211 74.9159 14.2682 73.55C12.8718 75.6166 14.4342 75.8262 13.0913 77.1617C12.0296 78.2176 8.71181 77.4502 7.68962 74.3997C6.66742 71.3492 8.94903 65.6909 12.0925 65.276C15.2359 64.8611 16.983 66.5128 21.7667 69.2116Z" fill="#898989"/>
<path d="M21.7667 69.2116C26.5503 71.9104 35.2558 72.0646 41.5961 70.5038C43.4982 70.0356 45.8152 72.4084 45.6014 75.3324C45.4324 77.644 43.3198 80.9907 40.7943 81.4689C38.2689 81.947 27.7629 80.8721 23.5438 78.9676C18.722 76.7909 15.6211 74.9159 14.2682 73.55C12.8718 75.6166 14.4342 75.8262 13.0913 77.1617C12.0296 78.2176 8.71181 77.4502 7.68962 74.3997C6.66742 71.3492 8.94903 65.6909 12.0925 65.276C15.2359 64.8611 16.983 66.5128 21.7667 69.2116Z" fill="white" fill-opacity="0.4"/>
<path d="M26.5 100.083C27.2125 92.6843 29.6601 72.8151 36.0724 68.7046C45.0972 67.0605 62.4507 66.0489 66.4406 71.3102C71.4279 77.8868 75.925 94.3285 74.5 100.083C73.075 105.838 55.7532 106.66 48.6284 106.66C41.5036 106.66 25.7875 107.482 26.5 100.083Z" fill="#7445B8"/>
<path d="M26.5 100.083C27.2125 92.6843 29.6601 72.8151 36.0724 68.7046C45.0972 67.0605 62.4507 66.0489 66.4406 71.3102C71.4279 77.8868 75.925 94.3285 74.5 100.083C73.075 105.838 55.7532 106.66 48.6284 106.66C41.5036 106.66 25.7875 107.482 26.5 100.083Z" fill="black" fill-opacity="0.2"/>
<path d="M33.6498 54.1687L33.4632 51.1494L36.6689 50.7521L37.0662 53.9578L33.6498 54.1687Z" fill="#FAA21E"/>
<path d="M33.6498 54.1687L33.4632 51.1494L36.6689 50.7521L37.0662 53.9578L33.6498 54.1687Z" fill="white" fill-opacity="0.4"/>
<path d="M32.1085 77.6311C37.5598 79.9363 47.0995 79.1679 53.9136 76.8627C55.9578 76.1711 58.6835 78.3995 58.6835 81.4731C58.6835 83.903 56.6392 87.6204 53.9136 88.3888C51.188 89.1572 39.604 89.1572 34.8342 87.6204C29.3829 85.864 26.3562 83.7138 24.7662 82.4331C23.4034 84.7383 24.613 85.3151 23.2502 86.852C22.1728 88.0669 18.4804 87.6204 17.1176 84.5467C15.7547 81.4731 17.799 75.3258 21.206 74.5574C24.613 73.789 26.6573 75.3258 32.1085 77.6311Z" fill="#898989"/>
<path d="M32.1085 77.6311C37.5598 79.9363 47.0995 79.1679 53.9136 76.8627C55.9578 76.1711 58.6835 78.3995 58.6835 81.4731C58.6835 83.903 56.6392 87.6204 53.9136 88.3888C51.188 89.1572 39.604 89.1572 34.8342 87.6204C29.3829 85.864 26.3562 83.7138 24.7662 82.4331C23.4034 84.7383 24.613 85.3151 23.2502 86.852C22.1728 88.0669 18.4804 87.6204 17.1176 84.5467C15.7547 81.4731 17.799 75.3258 21.206 74.5574C24.613 73.789 26.6573 75.3258 32.1085 77.6311Z" fill="white" fill-opacity="0.8"/>
<path d="M81 23.5C83.6357 28.9039 86.0362 31.0321 92 34C85.4701 36.3008 79.9509 34.5511 76.5 28.5C72.2632 21.0709 73.2899 10.6839 78.0651 6.52301C77.5879 13.5628 78.6717 18.7263 81 23.5Z" fill="#898989"/>
<path d="M66.4999 6.49999C85.5 12.5 90 23.5 86.5 34.5C77 45.5 72.9999 30 59.5 25.5C42.5 19.8333 21.6275 31.5 27 16C30.6703 5.41112 53.3452 2.70544 66.4999 6.49999Z" fill="#D0333D"/>
<path d="M66.4999 6.49999C85.5 12.5 90 23.5 86.5 34.5C77 45.5 72.9999 30 59.5 25.5C42.5 19.8333 21.6275 31.5 27 16C30.6703 5.41112 53.3452 2.70544 66.4999 6.49999Z" fill="black" fill-opacity="0.2"/>
<path d="M23.6214 37.0755C23.6214 41.5355 21.0309 45.5 26.0001 45.5C27.5082 45.5 29.0195 44.4313 30.0752 42.7284C29.5501 43.1523 28 44.5 26.0001 44C23.5748 43.3936 25.0001 41.1816 25.0001 37.0755C25.0001 33 21.6061 30.5 25.5 29C20.5302 29 23.6214 32.6155 23.6214 37.0755Z" fill="#898989"/>
<path d="M57.5 42.5C57.2039 47.6272 54.6893 51.6514 60.0498 51.961C61.6766 52.0549 64.7481 51.3918 66 49.5C65.4055 49.9546 63 51 60.1494 50.2366C57.54 49.5377 59.2274 47.7204 59.5 43C59.7705 38.3148 55.8494 35.4819 60.1495 34C54.7883 33.6904 57.7961 37.3728 57.5 42.5Z" fill="#898989"/>
<path d="M37.5 46C37.5 45.2 39.1667 43 40 42C39.5 43.1667 39 45.1056 39 46C39 47 41 47.5 42.5 47C42 48 40.8 48 40 48C39 48 37.5 47 37.5 46Z" fill="#898989"/>
<path d="M42.0353 65.5359L42.5327 62.2442L46.2599 63.7978L44.9554 67.0895L42.0353 65.5359Z" fill="#FAA21E"/>
<path d="M42.0353 65.5359L42.5327 62.2442L46.2599 63.7978L44.9554 67.0895L42.0353 65.5359Z" fill="white" fill-opacity="0.4"/>
<path fill-rule="evenodd" clip-rule="evenodd" d="M48.0223 0.0500669C43.5019 0.284134 39.7229 1.1616 36.7437 2.15954L36.0631 6.64417L36.0233 6.90645L35.8357 7.09403C35.6763 7.25339 35.4836 7.49267 35.2414 7.80877C35.1821 7.88623 35.12 7.96806 35.0556 8.05282L35.0554 8.05305L35.0554 8.05309C34.8703 8.2969 34.6667 8.56502 34.4579 8.8235C34.0887 9.28052 33.6339 9.79944 33.1067 10.1897L34.2812 12.4477L37.3643 14.7601C37.7211 15.0277 37.7934 15.5338 37.5258 15.8906C37.2582 16.2474 36.752 16.3197 36.3952 16.0521L34.7247 14.7992L35.2566 18.5221C35.3196 18.9636 35.0128 19.3727 34.5713 19.4357C34.1298 19.4988 33.7208 19.192 33.6577 18.7505L32.8696 13.2339L31.6538 10.8963C31.39 11.0017 31.1329 11.1058 30.8814 11.2077L30.8809 11.2078C30.5187 11.3545 30.1681 11.4965 29.8259 11.6309C29.4571 11.7757 29.1145 11.9049 28.8289 11.9987C28.6404 12.0606 28.4078 12.1318 28.1897 12.1616C28.1811 12.1723 28.1713 12.185 28.1604 12.1997C28.053 12.346 27.9249 12.5842 27.7897 12.8987C27.5231 13.5186 27.2932 14.2815 27.165 14.7944C27.0569 15.2271 26.6184 15.4902 26.1857 15.382C25.753 15.2738 25.49 14.8354 25.5981 14.4027C25.7391 13.8388 25.9938 12.9866 26.3059 12.2607C26.4601 11.9022 26.6449 11.5347 26.8588 11.2435C26.9658 11.0979 27.1011 10.942 27.269 10.8164C27.4369 10.6908 27.685 10.5608 27.9967 10.5608C27.9854 10.5608 27.9877 10.5602 28.0073 10.5557L28.0073 10.5557C28.0442 10.5471 28.142 10.5243 28.3249 10.4643C28.5652 10.3853 28.873 10.2699 29.2354 10.1276C29.5293 10.0121 29.8747 9.87247 30.2411 9.72432L30.2413 9.72423C30.7286 9.52719 31.2529 9.31516 31.7423 9.12528C32.1638 8.96176 32.651 8.48999 33.2015 7.80853C33.3938 7.57056 33.5752 7.33167 33.7561 7.0934L33.7561 7.09334C33.8238 7.0043 33.8913 6.91534 33.9593 6.82654C34.1361 6.59585 34.3205 6.36024 34.5039 6.15413L35.0155 2.78293C33.0095 3.55925 31.469 4.34328 30.4192 4.90806C21.2162 9.31516 17.4987 21.8667 19.1135 31.5573C20.432 39.4699 19.3589 43.8392 18.4961 47.3527C18.3129 48.0984 18.1393 48.8057 17.9999 49.5C16.9998 54.484 18.8471 61.7698 24.5 65C30.1528 68.2302 48.2045 73.7062 58.5 71.5C68.0464 69.4543 70.9596 63.1021 73.2557 58.0955L73.2558 58.0954L73.2559 58.0951C73.679 57.1726 74.0811 56.2958 74.5 55.5C77.461 55.5 81 54 85.3329 48.516C88.6297 44.3432 90.944 39.2249 91.8532 34.0493C86.6451 36.0922 80.4957 32.6296 77 26.5C73.6553 20.6352 74.1949 11.1461 78.1829 6.95354C74.8577 4.83516 70.8307 3.07502 65.7816 1.84375C64.8106 2.00554 63.1297 2.37448 61.4851 2.78821C60.5807 3.01573 59.6999 3.25365 58.9691 3.47323C58.8734 3.502 58.7811 3.53019 58.6925 3.55774L61.6109 5.89241C61.9591 6.17102 62.0156 6.67921 61.737 7.02748C61.4584 7.37574 60.9502 7.43221 60.6019 7.1536L56.8934 4.18679C56.721 4.21982 56.5456 4.23784 56.3809 4.24847C56.0103 4.27241 55.5812 4.26418 55.127 4.23444C54.2167 4.17483 53.1425 4.0244 52.1105 3.82937C51.1581 3.64938 50.2202 3.42734 49.4614 3.19446C49.5601 3.45583 49.6693 3.73285 49.7851 4.01426C50.0413 4.63703 50.3237 5.26731 50.5876 5.78501C50.8698 6.33891 51.0803 6.66064 51.1792 6.75953C51.2931 6.87339 51.5948 7.07195 52.1162 7.37942C52.2342 7.449 52.3602 7.52245 52.4918 7.59913L52.492 7.59926C52.89 7.83113 53.3385 8.09249 53.7672 8.36531C54.3368 8.72774 54.9264 9.14399 55.381 9.59859C55.6997 9.91727 56.0263 10.3279 56.1763 10.8157C56.6655 11.0321 57.3187 11.2745 57.9804 11.4302C58.8734 11.6403 59.5656 11.6396 59.9377 11.4536C60.6652 11.0898 61.8144 10.7359 62.8967 10.4468C63.9991 10.1524 65.1062 9.90632 65.7933 9.7689L66.1213 9.7033L66.3997 9.88885L68.8223 11.504C69.1934 11.7514 69.2937 12.2527 69.0463 12.6238C68.7989 12.9949 68.2975 13.0952 67.9264 12.8478L65.7841 11.4196C65.1267 11.5576 64.2169 11.7659 63.3135 12.0072C62.7499 12.1577 62.208 12.3162 61.7383 12.4732L62.5455 13.2805L64.1001 14.8351C64.1419 14.8769 64.3125 14.9921 64.6843 15.1495C65.0263 15.2944 65.455 15.4413 65.9218 15.5816C66.8538 15.8619 67.8779 16.0984 68.5328 16.2293C68.9701 16.3168 69.2537 16.7422 69.1662 17.1796C69.0788 17.6169 68.6533 17.9005 68.216 17.8131C67.5249 17.6749 66.4494 17.4268 65.4567 17.1283C64.9612 16.9793 64.4713 16.8133 64.0545 16.6368C63.6676 16.4729 63.2392 16.2583 62.958 15.9771L61.4035 14.4226L60.0861 13.1052C59.2783 13.3013 58.3625 13.1793 57.6105 13.0023C57.2558 12.9189 56.9063 12.8154 56.577 12.7035C56.7105 13.0507 56.8823 13.4295 57.0843 13.8336C57.3282 14.3215 57.5982 14.8126 57.8638 15.2931L57.9108 15.3782L57.9109 15.3785C58.1568 15.8232 58.4001 16.2633 58.5985 16.6601C58.8956 17.2543 58.8796 17.9641 58.78 18.5817C58.6764 19.2248 58.4578 19.9096 58.2061 20.5477C58.1622 20.6591 58.1189 20.886 58.0936 21.2513C58.0695 21.5989 58.0656 21.9942 58.0623 22.4087L58.062 22.4499V22.45C58.0589 22.8386 58.0557 23.2494 58.0306 23.6008C58.0175 23.7841 57.9972 23.9709 57.9629 24.1436C57.9309 24.3045 57.8755 24.514 57.7611 24.7047C57.5316 25.0871 57.0356 25.2111 56.6531 24.9817C56.2789 24.7571 56.1521 24.2773 56.3619 23.8985C56.3647 23.8893 56.3711 23.8673 56.3788 23.8287C56.3948 23.7481 56.4089 23.6351 56.4196 23.4857C56.441 23.1862 56.4439 22.8196 56.4472 22.4048L56.4472 22.396C56.4504 21.9913 56.4542 21.5454 56.4823 21.1396L56.4868 21.0784C55.9027 21.1005 55.2411 21.1431 54.6215 21.2151C54.1182 21.2736 53.6642 21.349 53.3101 21.4416C52.9583 21.5335 52.8218 21.6141 52.798 21.6281C52.7947 21.6301 52.7936 21.6307 52.7943 21.63C52.479 21.9454 51.9676 21.9454 51.6523 21.63C51.3369 21.3146 51.3369 20.8033 51.6523 20.4879C51.9814 20.1588 52.4911 19.9863 52.9017 19.8789C53.3587 19.7595 53.8957 19.6734 54.4352 19.6108C55.2757 19.5131 56.1747 19.4665 56.8899 19.4505C57.0267 19.0503 57.1303 18.6674 57.1855 18.3247C57.2677 17.8145 57.222 17.5186 57.1539 17.3824C56.971 17.0166 56.743 16.604 56.4909 16.1481L56.4501 16.0743C56.1857 15.5959 55.9005 15.0775 55.6397 14.5559C55.1373 13.551 54.646 12.3869 54.646 11.3683C54.646 11.2956 54.5886 11.0902 54.239 10.7406C53.9113 10.4129 53.441 10.0721 52.9001 9.72791C52.5007 9.47371 52.0928 9.23605 51.7013 9.00791L51.7012 9.0078C51.5636 8.92767 51.4282 8.84871 51.2957 8.77062C51.0031 8.59806 50.6934 8.41223 50.4318 8.22563L45.4727 9.70184C45.2088 10.0502 44.9001 10.5519 44.7092 11.0784C44.4746 11.7256 44.4801 12.2248 44.6866 12.5583C44.9214 12.9375 44.8043 13.4353 44.4251 13.67C44.0459 13.9048 43.5482 13.7877 43.3134 13.4085C42.7199 12.45 42.892 11.3522 43.1908 10.528C43.3573 10.0687 43.5828 9.63615 43.815 9.26475L41.6073 8.03621C41.2176 7.81934 41.0775 7.3276 41.2943 6.93788C41.5112 6.54816 42.0029 6.40803 42.3927 6.6249L45.0955 8.12897L49.3324 6.86776C49.2694 6.75237 49.208 6.63499 49.1485 6.51834C48.8592 5.95049 48.5586 5.27812 48.2914 4.62867C48.0243 3.97931 47.7849 3.33886 47.62 2.83284C47.5382 2.58203 47.4699 2.34949 47.4265 2.15904C47.4052 2.06569 47.3853 1.96276 47.3756 1.86316C47.3708 1.81351 47.3668 1.7478 47.3708 1.675C47.3742 1.6144 47.3858 1.48258 47.453 1.33778C47.4882 1.26197 47.528 1.16214 47.5753 1.04333C47.6784 0.784882 47.8172 0.43658 48.0223 0.0500669ZM61.8587 1.03254C59.182 0.571217 56.2511 0.241643 53.0308 0.0627322C51.9855 0.00465973 50.9713 -0.0177526 49.9887 -0.00919425C49.6001 0.451634 49.3723 0.942441 49.1855 1.38726C49.3432 1.45282 49.5394 1.52421 49.772 1.59912C50.4769 1.82613 51.4217 2.05549 52.4104 2.24235C53.3984 2.42907 54.4052 2.56861 55.2325 2.62278C55.6472 2.64994 56.0009 2.65455 56.2768 2.63673C56.4144 2.62784 56.5219 2.61402 56.6018 2.59813C56.6705 2.58444 56.7019 2.57249 56.7075 2.57034C56.7081 2.5701 56.7084 2.56998 56.7084 2.57L56.7075 2.57049C57.1007 2.37386 57.7626 2.14933 58.5043 1.92645C59.2659 1.69762 60.1717 1.45319 61.0911 1.22191C61.3459 1.1578 61.6027 1.09446 61.8587 1.03254ZM48.821 1.20281C48.8124 1.19603 48.8142 1.19629 48.8226 1.20398L48.821 1.20281ZM26.2574 45.2856C29.002 45.2856 31.227 41.6701 31.227 37.2101C31.227 32.7501 29.0021 29.1345 26.2575 29.1345C22.6609 29.1345 22.9686 31.028 23.4132 33.7648C23.5829 34.8097 23.7727 35.9777 23.7727 37.2101C23.7727 38.4424 23.583 39.6102 23.4133 40.6552C22.9688 43.392 22.6612 45.2856 26.2574 45.2856ZM61.4172 51.746C65.2596 51.746 68.3747 47.7689 68.3747 42.8629C68.3747 37.9569 65.2598 33.9798 61.4173 33.9798C56.3821 33.9798 56.8128 36.0627 57.4352 39.0731C57.6729 40.2226 57.9386 41.5073 57.9386 42.8629C57.9386 44.2185 57.673 45.5031 57.4354 46.6525L57.4354 46.6526C56.8131 49.6631 56.3825 51.746 61.4172 51.746ZM41.7252 47.6567C40.1101 48.4642 37.6875 47.1836 37.6875 46.0415C37.6875 45.234 38.7009 43.4213 40.0587 42.0554C40.2454 42.4669 40.54 42.9675 40.8535 43.5002C41.8096 45.1249 42.9415 47.0485 41.7252 47.6567ZM32.8421 51.746C35.4935 50.3215 43.1983 50.7962 47.3783 54.9762C51.4161 59.014 53.3496 65.505 49.801 67.0895C47.432 68.1473 44.994 66.8342 42.3087 65.3878L42.3086 65.3878C40.6127 64.4743 38.8182 63.5077 36.8801 63.0518C34.7381 62.5478 33.0795 62.6445 31.7645 62.7211C30.0058 62.8235 28.8615 62.8902 27.997 61.4367C26.486 58.8964 29.6121 52.5536 32.8421 51.746Z" fill="#898989"/>
<path fill-rule="evenodd" clip-rule="evenodd" d="M48.0223 0.0500669C43.5019 0.284134 39.7229 1.1616 36.7437 2.15954L36.0631 6.64417L36.0233 6.90645L35.8357 7.09403C35.6763 7.25339 35.4836 7.49267 35.2414 7.80877C35.1821 7.88623 35.12 7.96806 35.0556 8.05282L35.0554 8.05305L35.0554 8.05309C34.8703 8.2969 34.6667 8.56502 34.4579 8.8235C34.0887 9.28052 33.6339 9.79944 33.1067 10.1897L34.2812 12.4477L37.3643 14.7601C37.7211 15.0277 37.7934 15.5338 37.5258 15.8906C37.2582 16.2474 36.752 16.3197 36.3952 16.0521L34.7247 14.7992L35.2566 18.5221C35.3196 18.9636 35.0128 19.3727 34.5713 19.4357C34.1298 19.4988 33.7208 19.192 33.6577 18.7505L32.8696 13.2339L31.6538 10.8963C31.39 11.0017 31.1329 11.1058 30.8814 11.2077L30.8809 11.2078C30.5187 11.3545 30.1681 11.4965 29.8259 11.6309C29.4571 11.7757 29.1145 11.9049 28.8289 11.9987C28.6404 12.0606 28.4078 12.1318 28.1897 12.1616C28.1811 12.1723 28.1713 12.185 28.1604 12.1997C28.053 12.346 27.9249 12.5842 27.7897 12.8987C27.5231 13.5186 27.2932 14.2815 27.165 14.7944C27.0569 15.2271 26.6184 15.4902 26.1857 15.382C25.753 15.2738 25.49 14.8354 25.5981 14.4027C25.7391 13.8388 25.9938 12.9866 26.3059 12.2607C26.4601 11.9022 26.6449 11.5347 26.8588 11.2435C26.9658 11.0979 27.1011 10.942 27.269 10.8164C27.4369 10.6908 27.685 10.5608 27.9967 10.5608C27.9854 10.5608 27.9877 10.5602 28.0073 10.5557L28.0073 10.5557C28.0442 10.5471 28.142 10.5243 28.3249 10.4643C28.5652 10.3853 28.873 10.2699 29.2354 10.1276C29.5293 10.0121 29.8747 9.87247 30.2411 9.72432L30.2413 9.72423C30.7286 9.52719 31.2529 9.31516 31.7423 9.12528C32.1638 8.96176 32.651 8.48999 33.2015 7.80853C33.3938 7.57056 33.5752 7.33167 33.7561 7.0934L33.7561 7.09334C33.8238 7.0043 33.8913 6.91534 33.9593 6.82654C34.1361 6.59585 34.3205 6.36024 34.5039 6.15413L35.0155 2.78293C33.0095 3.55925 31.469 4.34328 30.4192 4.90806C21.2162 9.31516 17.4987 21.8667 19.1135 31.5573C20.432 39.4699 19.3589 43.8392 18.4961 47.3527C18.3129 48.0984 18.1393 48.8057 17.9999 49.5C16.9998 54.484 18.8471 61.7698 24.5 65C30.1528 68.2302 48.2045 73.7062 58.5 71.5C68.0464 69.4543 70.9596 63.1021 73.2557 58.0955L73.2558 58.0954L73.2559 58.0951C73.679 57.1726 74.0811 56.2958 74.5 55.5C77.461 55.5 81 54 85.3329 48.516C88.6297 44.3432 90.944 39.2249 91.8532 34.0493C86.6451 36.0922 80.4957 32.6296 77 26.5C73.6553 20.6352 74.1949 11.1461 78.1829 6.95354C74.8577 4.83516 70.8307 3.07502 65.7816 1.84375C64.8106 2.00554 63.1297 2.37448 61.4851 2.78821C60.5807 3.01573 59.6999 3.25365 58.9691 3.47323C58.8734 3.502 58.7811 3.53019 58.6925 3.55774L61.6109 5.89241C61.9591 6.17102 62.0156 6.67921 61.737 7.02748C61.4584 7.37574 60.9502 7.43221 60.6019 7.1536L56.8934 4.18679C56.721 4.21982 56.5456 4.23784 56.3809 4.24847C56.0103 4.27241 55.5812 4.26418 55.127 4.23444C54.2167 4.17483 53.1425 4.0244 52.1105 3.82937C51.1581 3.64938 50.2202 3.42734 49.4614 3.19446C49.5601 3.45583 49.6693 3.73285 49.7851 4.01426C50.0413 4.63703 50.3237 5.26731 50.5876 5.78501C50.8698 6.33891 51.0803 6.66064 51.1792 6.75953C51.2931 6.87339 51.5948 7.07195 52.1162 7.37942C52.2342 7.449 52.3602 7.52245 52.4918 7.59913L52.492 7.59926C52.89 7.83113 53.3385 8.09249 53.7672 8.36531C54.3368 8.72774 54.9264 9.14399 55.381 9.59859C55.6997 9.91727 56.0263 10.3279 56.1763 10.8157C56.6655 11.0321 57.3187 11.2745 57.9804 11.4302C58.8734 11.6403 59.5656 11.6396 59.9377 11.4536C60.6652 11.0898 61.8144 10.7359 62.8967 10.4468C63.9991 10.1524 65.1062 9.90632 65.7933 9.7689L66.1213 9.7033L66.3997 9.88885L68.8223 11.504C69.1934 11.7514 69.2937 12.2527 69.0463 12.6238C68.7989 12.9949 68.2975 13.0952 67.9264 12.8478L65.7841 11.4196C65.1267 11.5576 64.2169 11.7659 63.3135 12.0072C62.7499 12.1577 62.208 12.3162 61.7383 12.4732L62.5455 13.2805L64.1001 14.8351C64.1419 14.8769 64.3125 14.9921 64.6843 15.1495C65.0263 15.2944 65.455 15.4413 65.9218 15.5816C66.8538 15.8619 67.8779 16.0984 68.5328 16.2293C68.9701 16.3168 69.2537 16.7422 69.1662 17.1796C69.0788 17.6169 68.6533 17.9005 68.216 17.8131C67.5249 17.6749 66.4494 17.4268 65.4567 17.1283C64.9612 16.9793 64.4713 16.8133 64.0545 16.6368C63.6676 16.4729 63.2392 16.2583 62.958 15.9771L61.4035 14.4226L60.0861 13.1052C59.2783 13.3013 58.3625 13.1793 57.6105 13.0023C57.2558 12.9189 56.9063 12.8154 56.577 12.7035C56.7105 13.0507 56.8823 13.4295 57.0843 13.8336C57.3282 14.3215 57.5982 14.8126 57.8638 15.2931L57.9108 15.3782L57.9109 15.3785C58.1568 15.8232 58.4001 16.2633 58.5985 16.6601C58.8956 17.2543 58.8796 17.9641 58.78 18.5817C58.6764 19.2248 58.4578 19.9096 58.2061 20.5477C58.1622 20.6591 58.1189 20.886 58.0936 21.2513C58.0695 21.5989 58.0656 21.9942 58.0623 22.4087L58.062 22.4499V22.45C58.0589 22.8386 58.0557 23.2494 58.0306 23.6008C58.0175 23.7841 57.9972 23.9709 57.9629 24.1436C57.9309 24.3045 57.8755 24.514 57.7611 24.7047C57.5316 25.0871 57.0356 25.2111 56.6531 24.9817C56.2789 24.7571 56.1521 24.2773 56.3619 23.8985C56.3647 23.8893 56.3711 23.8673 56.3788 23.8287C56.3948 23.7481 56.4089 23.6351 56.4196 23.4857C56.441 23.1862 56.4439 22.8196 56.4472 22.4048L56.4472 22.396C56.4504 21.9913 56.4542 21.5454 56.4823 21.1396L56.4868 21.0784C55.9027 21.1005 55.2411 21.1431 54.6215 21.2151C54.1182 21.2736 53.6642 21.349 53.3101 21.4416C52.9583 21.5335 52.8218 21.6141 52.798 21.6281C52.7947 21.6301 52.7936 21.6307 52.7943 21.63C52.479 21.9454 51.9676 21.9454 51.6523 21.63C51.3369 21.3146 51.3369 20.8033 51.6523 20.4879C51.9814 20.1588 52.4911 19.9863 52.9017 19.8789C53.3587 19.7595 53.8957 19.6734 54.4352 19.6108C55.2757 19.5131 56.1747 19.4665 56.8899 19.4505C57.0267 19.0503 57.1303 18.6674 57.1855 18.3247C57.2677 17.8145 57.222 17.5186 57.1539 17.3824C56.971 17.0166 56.743 16.604 56.4909 16.1481L56.4501 16.0743C56.1857 15.5959 55.9005 15.0775 55.6397 14.5559C55.1373 13.551 54.646 12.3869 54.646 11.3683C54.646 11.2956 54.5886 11.0902 54.239 10.7406C53.9113 10.4129 53.441 10.0721 52.9001 9.72791C52.5007 9.47371 52.0928 9.23605 51.7013 9.00791L51.7012 9.0078C51.5636 8.92767 51.4282 8.84871 51.2957 8.77062C51.0031 8.59806 50.6934 8.41223 50.4318 8.22563L45.4727 9.70184C45.2088 10.0502 44.9001 10.5519 44.7092 11.0784C44.4746 11.7256 44.4801 12.2248 44.6866 12.5583C44.9214 12.9375 44.8043 13.4353 44.4251 13.67C44.0459 13.9048 43.5482 13.7877 43.3134 13.4085C42.7199 12.45 42.892 11.3522 43.1908 10.528C43.3573 10.0687 43.5828 9.63615 43.815 9.26475L41.6073 8.03621C41.2176 7.81934 41.0775 7.3276 41.2943 6.93788C41.5112 6.54816 42.0029 6.40803 42.3927 6.6249L45.0955 8.12897L49.3324 6.86776C49.2694 6.75237 49.208 6.63499 49.1485 6.51834C48.8592 5.95049 48.5586 5.27812 48.2914 4.62867C48.0243 3.97931 47.7849 3.33886 47.62 2.83284C47.5382 2.58203 47.4699 2.34949 47.4265 2.15904C47.4052 2.06569 47.3853 1.96276 47.3756 1.86316C47.3708 1.81351 47.3668 1.7478 47.3708 1.675C47.3742 1.6144 47.3858 1.48258 47.453 1.33778C47.4882 1.26197 47.528 1.16214 47.5753 1.04333C47.6784 0.784882 47.8172 0.43658 48.0223 0.0500669ZM61.8587 1.03254C59.182 0.571217 56.2511 0.241643 53.0308 0.0627322C51.9855 0.00465973 50.9713 -0.0177526 49.9887 -0.00919425C49.6001 0.451634 49.3723 0.942441 49.1855 1.38726C49.3432 1.45282 49.5394 1.52421 49.772 1.59912C50.4769 1.82613 51.4217 2.05549 52.4104 2.24235C53.3984 2.42907 54.4052 2.56861 55.2325 2.62278C55.6472 2.64994 56.0009 2.65455 56.2768 2.63673C56.4144 2.62784 56.5219 2.61402 56.6018 2.59813C56.6705 2.58444 56.7019 2.57249 56.7075 2.57034C56.7081 2.5701 56.7084 2.56998 56.7084 2.57L56.7075 2.57049C57.1007 2.37386 57.7626 2.14933 58.5043 1.92645C59.2659 1.69762 60.1717 1.45319 61.0911 1.22191C61.3459 1.1578 61.6027 1.09446 61.8587 1.03254ZM48.821 1.20281C48.8124 1.19603 48.8142 1.19629 48.8226 1.20398L48.821 1.20281ZM26.2574 45.2856C29.002 45.2856 31.227 41.6701 31.227 37.2101C31.227 32.7501 29.0021 29.1345 26.2575 29.1345C22.6609 29.1345 22.9686 31.028 23.4132 33.7648C23.5829 34.8097 23.7727 35.9777 23.7727 37.2101C23.7727 38.4424 23.583 39.6102 23.4133 40.6552C22.9688 43.392 22.6612 45.2856 26.2574 45.2856ZM61.4172 51.746C65.2596 51.746 68.3747 47.7689 68.3747 42.8629C68.3747 37.9569 65.2598 33.9798 61.4173 33.9798C56.3821 33.9798 56.8128 36.0627 57.4352 39.0731C57.6729 40.2226 57.9386 41.5073 57.9386 42.8629C57.9386 44.2185 57.673 45.5031 57.4354 46.6525L57.4354 46.6526C56.8131 49.6631 56.3825 51.746 61.4172 51.746ZM41.7252 47.6567C40.1101 48.4642 37.6875 47.1836 37.6875 46.0415C37.6875 45.234 38.7009 43.4213 40.0587 42.0554C40.2454 42.4669 40.54 42.9675 40.8535 43.5002C41.8096 45.1249 42.9415 47.0485 41.7252 47.6567ZM32.8421 51.746C35.4935 50.3215 43.1983 50.7962 47.3783 54.9762C51.4161 59.014 53.3496 65.505 49.801 67.0895C47.432 68.1473 44.994 66.8342 42.3087 65.3878L42.3086 65.3878C40.6127 64.4743 38.8182 63.5077 36.8801 63.0518C34.7381 62.5478 33.0795 62.6445 31.7645 62.7211C30.0058 62.8235 28.8615 62.8902 27.997 61.4367C26.486 58.8964 29.6121 52.5536 32.8421 51.746Z" fill="white" fill-opacity="0.8"/>
</g>
<defs>
<clipPath id="clip0_2336_11147">
<rect width="100" height="100" fill="white"/>
</clipPath>
</defs>
</svg>
